%TF.GenerationSoftware,KiCad,Pcbnew,(5.1.12)-1*%
%TF.CreationDate,2021-11-20T18:07:47-08:00*%
%TF.ProjectId,PyKey87,50794b65-7938-4372-9e6b-696361645f70,rev?*%
%TF.SameCoordinates,Original*%
%TF.FileFunction,Soldermask,Top*%
%TF.FilePolarity,Negative*%
%FSLAX46Y46*%
G04 Gerber Fmt 4.6, Leading zero omitted, Abs format (unit mm)*
G04 Created by KiCad (PCBNEW (5.1.12)-1) date 2021-11-20 18:07:47*
%MOMM*%
%LPD*%
G01*
G04 APERTURE LIST*
%ADD10C,3.152400*%
%ADD11C,1.902400*%
%ADD12C,4.152400*%
%ADD13C,0.902400*%
%ADD14C,4.552400*%
%ADD15C,1.448000*%
%ADD16O,1.852400X1.852400*%
%ADD17C,1.652400*%
%ADD18C,3.202400*%
%ADD19O,1.152400X2.252400*%
%ADD20C,0.802400*%
%ADD21O,1.152400X1.752400*%
%ADD22C,1.052400*%
G04 APERTURE END LIST*
D10*
X145097500Y-55087500D03*
X151447500Y-52547500D03*
D11*
X142557500Y-50007500D03*
X152717500Y-50007500D03*
D12*
X147637500Y-50007500D03*
D10*
X316547500Y-55087500D03*
X322897500Y-52547500D03*
D11*
X314007500Y-50007500D03*
X324167500Y-50007500D03*
D12*
X319087500Y-50007500D03*
D10*
X397510000Y-155100000D03*
X403860000Y-152560000D03*
D11*
X394970000Y-150020000D03*
X405130000Y-150020000D03*
D12*
X400050000Y-150020000D03*
D10*
X87947500Y-78900000D03*
X94297500Y-76360000D03*
D11*
X85407500Y-73820000D03*
X95567500Y-73820000D03*
D12*
X90487500Y-73820000D03*
D13*
X180975000Y-42830000D03*
X180975000Y-45580000D03*
D10*
X68897500Y-78900000D03*
X75247500Y-76360000D03*
D11*
X66357500Y-73820000D03*
X76517500Y-73820000D03*
D12*
X71437500Y-73820000D03*
D14*
X402495000Y-132875000D03*
D15*
X409575000Y-157505000D03*
X61895000Y-42405000D03*
D14*
X233045000Y-151925000D03*
X65405000Y-132875000D03*
X346375000Y-107475000D03*
X190365000Y-110015000D03*
X402495000Y-61755000D03*
X233045000Y-61755000D03*
X65405000Y-61755000D03*
D16*
X360045000Y-107475000D03*
X360045000Y-110015000D03*
X360045000Y-112555000D03*
G36*
G01*
X360971200Y-114245000D02*
X360971200Y-115945000D01*
G75*
G02*
X360895000Y-116021200I-76200J0D01*
G01*
X359195000Y-116021200D01*
G75*
G02*
X359118800Y-115945000I0J76200D01*
G01*
X359118800Y-114245000D01*
G75*
G02*
X359195000Y-114168800I76200J0D01*
G01*
X360895000Y-114168800D01*
G75*
G02*
X360971200Y-114245000I0J-76200D01*
G01*
G37*
D17*
X267335000Y-51280000D03*
X267335000Y-44280000D03*
D10*
X335597500Y-55087500D03*
X341947500Y-52547500D03*
D11*
X333057500Y-50007500D03*
X343217500Y-50007500D03*
D12*
X338137500Y-50007500D03*
D10*
X397510000Y-55087500D03*
X403860000Y-52547500D03*
D11*
X394970000Y-50007500D03*
X405130000Y-50007500D03*
D12*
X400050000Y-50007500D03*
D10*
X397510000Y-78900000D03*
X403860000Y-76360000D03*
D11*
X394970000Y-73820000D03*
X405130000Y-73820000D03*
D12*
X400050000Y-73820000D03*
D10*
X397510000Y-97950000D03*
X403860000Y-95410000D03*
D11*
X394970000Y-92870000D03*
X405130000Y-92870000D03*
D12*
X400050000Y-92870000D03*
D10*
X378460000Y-136050000D03*
X384810000Y-133510000D03*
D11*
X375920000Y-130970000D03*
X386080000Y-130970000D03*
D12*
X381000000Y-130970000D03*
D18*
X71374000Y-137970000D03*
D12*
X71374000Y-122730000D03*
X95250000Y-122730000D03*
D18*
X95250000Y-137970000D03*
D10*
X80772000Y-136050000D03*
X87122000Y-133510000D03*
D11*
X78232000Y-130970000D03*
X88392000Y-130970000D03*
D12*
X83312000Y-130970000D03*
D10*
X106998000Y-78900000D03*
X113348000Y-76360000D03*
D11*
X104458000Y-73820000D03*
X114618000Y-73820000D03*
D12*
X109538000Y-73820000D03*
D10*
X126048000Y-78900000D03*
X132398000Y-76360000D03*
D11*
X123508000Y-73820000D03*
X133668000Y-73820000D03*
D12*
X128588000Y-73820000D03*
D10*
X145098000Y-78900000D03*
X151448000Y-76360000D03*
D11*
X142558000Y-73820000D03*
X152718000Y-73820000D03*
D12*
X147638000Y-73820000D03*
D10*
X164148000Y-78900000D03*
X170498000Y-76360000D03*
D11*
X161608000Y-73820000D03*
X171768000Y-73820000D03*
D12*
X166688000Y-73820000D03*
D10*
X202248000Y-78900000D03*
X208598000Y-76360000D03*
D11*
X199708000Y-73820000D03*
X209868000Y-73820000D03*
D12*
X204788000Y-73820000D03*
D10*
X221298000Y-78900000D03*
X227648000Y-76360000D03*
D11*
X218758000Y-73820000D03*
X228918000Y-73820000D03*
D12*
X223838000Y-73820000D03*
D10*
X240348000Y-78900000D03*
X246698000Y-76360000D03*
D11*
X237808000Y-73820000D03*
X247968000Y-73820000D03*
D12*
X242888000Y-73820000D03*
D10*
X259398000Y-78900000D03*
X265748000Y-76360000D03*
D11*
X256858000Y-73820000D03*
X267018000Y-73820000D03*
D12*
X261938000Y-73820000D03*
D10*
X278448000Y-78900000D03*
X284798000Y-76360000D03*
D11*
X275908000Y-73820000D03*
X286068000Y-73820000D03*
D12*
X280988000Y-73820000D03*
D10*
X297498000Y-78900000D03*
X303848000Y-76360000D03*
D11*
X294958000Y-73820000D03*
X305118000Y-73820000D03*
D12*
X300038000Y-73820000D03*
D10*
X97472000Y-97950000D03*
X103822000Y-95410000D03*
D11*
X94932000Y-92870000D03*
X105092000Y-92870000D03*
D12*
X100012000Y-92870000D03*
D10*
X116522000Y-97950000D03*
X122872000Y-95410000D03*
D11*
X113982000Y-92870000D03*
X124142000Y-92870000D03*
D12*
X119062000Y-92870000D03*
D10*
X135572000Y-97950000D03*
X141922000Y-95410000D03*
D11*
X133032000Y-92870000D03*
X143192000Y-92870000D03*
D12*
X138112000Y-92870000D03*
D10*
X154622000Y-97950000D03*
X160972000Y-95410000D03*
D11*
X152082000Y-92870000D03*
X162242000Y-92870000D03*
D12*
X157162000Y-92870000D03*
D10*
X173672000Y-97950000D03*
X180022000Y-95410000D03*
D11*
X171132000Y-92870000D03*
X181292000Y-92870000D03*
D12*
X176212000Y-92870000D03*
D10*
X192722000Y-97950000D03*
X199072000Y-95410000D03*
D11*
X190182000Y-92870000D03*
X200342000Y-92870000D03*
D12*
X195262000Y-92870000D03*
D10*
X211772000Y-97950000D03*
X218122000Y-95410000D03*
D11*
X209232000Y-92870000D03*
X219392000Y-92870000D03*
D12*
X214312000Y-92870000D03*
D10*
X230822000Y-97950000D03*
X237172000Y-95410000D03*
D11*
X228282000Y-92870000D03*
X238442000Y-92870000D03*
D12*
X233362000Y-92870000D03*
D10*
X249872000Y-97950000D03*
X256222000Y-95410000D03*
D11*
X247332000Y-92870000D03*
X257492000Y-92870000D03*
D12*
X252412000Y-92870000D03*
D10*
X268922000Y-97950000D03*
X275272000Y-95410000D03*
D11*
X266382000Y-92870000D03*
X276542000Y-92870000D03*
D12*
X271462000Y-92870000D03*
D10*
X287972000Y-97950000D03*
X294322000Y-95410000D03*
D11*
X285432000Y-92870000D03*
X295592000Y-92870000D03*
D12*
X290512000Y-92870000D03*
D10*
X307022000Y-97950000D03*
X313372000Y-95410000D03*
D11*
X304482000Y-92870000D03*
X314642000Y-92870000D03*
D12*
X309562000Y-92870000D03*
D10*
X102235000Y-117000000D03*
X108585000Y-114460000D03*
D11*
X99695000Y-111920000D03*
X109855000Y-111920000D03*
D12*
X104775000Y-111920000D03*
D10*
X121285000Y-117000000D03*
X127635000Y-114460000D03*
D11*
X118745000Y-111920000D03*
X128905000Y-111920000D03*
D12*
X123825000Y-111920000D03*
D10*
X140335000Y-117000000D03*
X146685000Y-114460000D03*
D11*
X137795000Y-111920000D03*
X147955000Y-111920000D03*
D12*
X142875000Y-111920000D03*
D10*
X159385000Y-117000000D03*
X165735000Y-114460000D03*
D11*
X156845000Y-111920000D03*
X167005000Y-111920000D03*
D12*
X161925000Y-111920000D03*
D10*
X178435000Y-117000000D03*
X184785000Y-114460000D03*
D11*
X175895000Y-111920000D03*
X186055000Y-111920000D03*
D12*
X180975000Y-111920000D03*
D10*
X197485000Y-117000000D03*
X203835000Y-114460000D03*
D11*
X194945000Y-111920000D03*
X205105000Y-111920000D03*
D12*
X200025000Y-111920000D03*
D10*
X216535000Y-117000000D03*
X222885000Y-114460000D03*
D11*
X213995000Y-111920000D03*
X224155000Y-111920000D03*
D12*
X219075000Y-111920000D03*
D10*
X235585000Y-117000000D03*
X241935000Y-114460000D03*
D11*
X233045000Y-111920000D03*
X243205000Y-111920000D03*
D12*
X238125000Y-111920000D03*
D10*
X254635000Y-117000000D03*
X260985000Y-114460000D03*
D11*
X252095000Y-111920000D03*
X262255000Y-111920000D03*
D12*
X257175000Y-111920000D03*
D10*
X273685000Y-117000000D03*
X280035000Y-114460000D03*
D11*
X271145000Y-111920000D03*
X281305000Y-111920000D03*
D12*
X276225000Y-111920000D03*
D10*
X292735000Y-117000000D03*
X299085000Y-114460000D03*
D11*
X290195000Y-111920000D03*
X300355000Y-111920000D03*
D12*
X295275000Y-111920000D03*
D10*
X111760000Y-136050000D03*
X118110000Y-133510000D03*
D11*
X109220000Y-130970000D03*
X119380000Y-130970000D03*
D12*
X114300000Y-130970000D03*
D10*
X130810000Y-136050000D03*
X137160000Y-133510000D03*
D11*
X128270000Y-130970000D03*
X138430000Y-130970000D03*
D12*
X133350000Y-130970000D03*
D10*
X149860000Y-136050000D03*
X156210000Y-133510000D03*
D11*
X147320000Y-130970000D03*
X157480000Y-130970000D03*
D12*
X152400000Y-130970000D03*
D10*
X168910000Y-136050000D03*
X175260000Y-133510000D03*
D11*
X166370000Y-130970000D03*
X176530000Y-130970000D03*
D12*
X171450000Y-130970000D03*
D10*
X187960000Y-136050000D03*
X194310000Y-133510000D03*
D11*
X185420000Y-130970000D03*
X195580000Y-130970000D03*
D12*
X190500000Y-130970000D03*
D10*
X207010000Y-136050000D03*
X213360000Y-133510000D03*
D11*
X204470000Y-130970000D03*
X214630000Y-130970000D03*
D12*
X209550000Y-130970000D03*
D10*
X226060000Y-136050000D03*
X232410000Y-133510000D03*
D11*
X223520000Y-130970000D03*
X233680000Y-130970000D03*
D12*
X228600000Y-130970000D03*
D10*
X245110000Y-136050000D03*
X251460000Y-133510000D03*
D11*
X242570000Y-130970000D03*
X252730000Y-130970000D03*
D12*
X247650000Y-130970000D03*
D10*
X264160000Y-136050000D03*
X270510000Y-133510000D03*
D11*
X261620000Y-130970000D03*
X271780000Y-130970000D03*
D12*
X266700000Y-130970000D03*
D10*
X283210000Y-136050000D03*
X289560000Y-133510000D03*
D11*
X280670000Y-130970000D03*
X290830000Y-130970000D03*
D12*
X285750000Y-130970000D03*
D10*
X68897500Y-55087500D03*
X75247500Y-52547500D03*
D11*
X66357500Y-50007500D03*
X76517500Y-50007500D03*
D12*
X71437500Y-50007500D03*
X109537500Y-50007500D03*
D11*
X114617500Y-50007500D03*
X104457500Y-50007500D03*
D10*
X113347500Y-52547500D03*
X106997500Y-55087500D03*
X126047500Y-55087500D03*
X132397500Y-52547500D03*
D11*
X123507500Y-50007500D03*
X133667500Y-50007500D03*
D12*
X128587500Y-50007500D03*
D10*
X164147500Y-55087500D03*
X170497500Y-52547500D03*
D11*
X161607500Y-50007500D03*
X171767500Y-50007500D03*
D12*
X166687500Y-50007500D03*
D10*
X192722500Y-55087500D03*
X199072500Y-52547500D03*
D11*
X190182500Y-50007500D03*
X200342500Y-50007500D03*
D12*
X195262500Y-50007500D03*
D10*
X211772500Y-55087500D03*
X218122500Y-52547500D03*
D11*
X209232500Y-50007500D03*
X219392500Y-50007500D03*
D12*
X214312500Y-50007500D03*
D10*
X230822500Y-55087500D03*
X237172500Y-52547500D03*
D11*
X228282500Y-50007500D03*
X238442500Y-50007500D03*
D12*
X233362500Y-50007500D03*
D10*
X249872500Y-55087500D03*
X256222500Y-52547500D03*
D11*
X247332500Y-50007500D03*
X257492500Y-50007500D03*
D12*
X252412500Y-50007500D03*
D10*
X278447500Y-55087500D03*
X284797500Y-52547500D03*
D11*
X275907500Y-50007500D03*
X286067500Y-50007500D03*
D12*
X280987500Y-50007500D03*
D10*
X297497500Y-55087500D03*
X303847500Y-52547500D03*
D11*
X294957500Y-50007500D03*
X305117500Y-50007500D03*
D12*
X300037500Y-50007500D03*
D10*
X359410000Y-55087500D03*
X365760000Y-52547500D03*
D11*
X356870000Y-50007500D03*
X367030000Y-50007500D03*
D12*
X361950000Y-50007500D03*
D10*
X359410000Y-78900000D03*
X365760000Y-76360000D03*
D11*
X356870000Y-73820000D03*
X367030000Y-73820000D03*
D12*
X361950000Y-73820000D03*
D10*
X359410000Y-97950000D03*
X365760000Y-95410000D03*
D11*
X356870000Y-92870000D03*
X367030000Y-92870000D03*
D12*
X361950000Y-92870000D03*
D10*
X359410000Y-155100000D03*
X365760000Y-152560000D03*
D11*
X356870000Y-150020000D03*
X367030000Y-150020000D03*
D12*
X361950000Y-150020000D03*
D10*
X378460000Y-55087500D03*
X384810000Y-52547500D03*
D11*
X375920000Y-50007500D03*
X386080000Y-50007500D03*
D12*
X381000000Y-50007500D03*
D10*
X378460000Y-78900000D03*
X384810000Y-76360000D03*
D11*
X375920000Y-73820000D03*
X386080000Y-73820000D03*
D12*
X381000000Y-73820000D03*
D10*
X378460000Y-97950000D03*
X384810000Y-95410000D03*
D11*
X375920000Y-92870000D03*
X386080000Y-92870000D03*
D12*
X381000000Y-92870000D03*
D10*
X183198000Y-78900000D03*
X189548000Y-76360000D03*
D11*
X180658000Y-73820000D03*
X190818000Y-73820000D03*
D12*
X185738000Y-73820000D03*
D10*
X378460000Y-155100000D03*
X384810000Y-152560000D03*
D11*
X375920000Y-150020000D03*
X386080000Y-150020000D03*
D12*
X381000000Y-150020000D03*
D18*
X142881000Y-157020000D03*
D12*
X142881000Y-141780000D03*
X242881000Y-141780000D03*
D18*
X242881000Y-157020000D03*
D10*
X190341000Y-155100000D03*
X196691000Y-152560000D03*
D11*
X187801000Y-150020000D03*
X197961000Y-150020000D03*
D12*
X192881000Y-150020000D03*
D18*
X309531000Y-137970000D03*
D12*
X309531000Y-122730000D03*
X333407000Y-122730000D03*
D18*
X333407000Y-137970000D03*
D10*
X318929000Y-136050000D03*
X325279000Y-133510000D03*
D11*
X316389000Y-130970000D03*
X326549000Y-130970000D03*
D12*
X321469000Y-130970000D03*
D18*
X314293000Y-118920000D03*
D12*
X314293000Y-103680000D03*
X338169000Y-103680000D03*
D18*
X338169000Y-118920000D03*
D10*
X323691000Y-117000000D03*
X330041000Y-114460000D03*
D11*
X321151000Y-111920000D03*
X331311000Y-111920000D03*
D12*
X326231000Y-111920000D03*
D18*
X316675000Y-66820000D03*
D12*
X316675000Y-82060000D03*
X340551000Y-82060000D03*
D18*
X340551000Y-66820000D03*
D10*
X326073000Y-78900000D03*
X332423000Y-76360000D03*
D11*
X323533000Y-73820000D03*
X333693000Y-73820000D03*
D12*
X328613000Y-73820000D03*
D10*
X76042500Y-117000000D03*
X82392500Y-114460000D03*
D11*
X73502500Y-111920000D03*
X83662500Y-111920000D03*
D12*
X78582500Y-111920000D03*
D10*
X330835000Y-97950000D03*
X337185000Y-95410000D03*
D11*
X328295000Y-92870000D03*
X338455000Y-92870000D03*
D12*
X333375000Y-92870000D03*
D10*
X73660000Y-97950000D03*
X80010000Y-95410000D03*
D11*
X71120000Y-92870000D03*
X81280000Y-92870000D03*
D12*
X76200000Y-92870000D03*
D16*
X181102000Y-156116000D03*
X178562000Y-156116000D03*
G36*
G01*
X175172000Y-155189800D02*
X176872000Y-155189800D01*
G75*
G02*
X176948200Y-155266000I0J-76200D01*
G01*
X176948200Y-156966000D01*
G75*
G02*
X176872000Y-157042200I-76200J0D01*
G01*
X175172000Y-157042200D01*
G75*
G02*
X175095800Y-156966000I0J76200D01*
G01*
X175095800Y-155266000D01*
G75*
G02*
X175172000Y-155189800I76200J0D01*
G01*
G37*
D10*
X333204000Y-155100000D03*
X339554000Y-152560000D03*
D11*
X330664000Y-150020000D03*
X340824000Y-150020000D03*
D12*
X335744000Y-150020000D03*
D10*
X309391000Y-155100000D03*
X315741000Y-152560000D03*
D11*
X306851000Y-150020000D03*
X317011000Y-150020000D03*
D12*
X311931000Y-150020000D03*
D10*
X285591000Y-155100000D03*
X291941000Y-152560000D03*
D11*
X283051000Y-150020000D03*
X293211000Y-150020000D03*
D12*
X288131000Y-150020000D03*
D10*
X261779000Y-155100000D03*
X268129000Y-152560000D03*
D11*
X259239000Y-150020000D03*
X269399000Y-150020000D03*
D12*
X264319000Y-150020000D03*
D10*
X118904000Y-155100000D03*
X125254000Y-152560000D03*
D11*
X116364000Y-150020000D03*
X126524000Y-150020000D03*
D12*
X121444000Y-150020000D03*
D10*
X95091200Y-155100000D03*
X101441200Y-152560000D03*
D11*
X92551200Y-150020000D03*
X102711200Y-150020000D03*
D12*
X97631200Y-150020000D03*
D10*
X71278800Y-155100000D03*
X77628800Y-152560000D03*
D11*
X68738800Y-150020000D03*
X78898800Y-150020000D03*
D12*
X73818800Y-150020000D03*
D19*
X90712000Y-47081000D03*
X82072000Y-47081000D03*
D20*
X83502000Y-46551000D03*
D21*
X82072000Y-42901000D03*
D20*
X89282000Y-46551000D03*
D21*
X90712000Y-42901000D03*
D22*
X96425000Y-43145000D03*
X99425000Y-43145000D03*
M02*
