M48
; DRILL file {KiCad (5.1.12)-1} date 11/20/21 18:08:27
; FORMAT={-:-/ absolute / metric / decimal}
; #@! TF.CreationDate,2021-11-20T18:08:27-08:00
; #@! TF.GenerationSoftware,Kicad,Pcbnew,(5.1.12)-1
; #@! TF.FileFunction,Plated,1,2,PTH
FMAT,2
METRIC
T1C0.305
T2C0.350
T3C0.600
T4C1.000
T5C2.200
%
G90
G05
T1
X62.865Y-56.675
X62.865Y-57.945
X65.405Y-43.975
X65.405Y-45.88
X65.405Y-57.945
X65.405Y-103.665
X66.142Y-68.232
X67.945Y-71.915
X67.945Y-71.915
X68.58Y-145.321
X69.105Y-144.042
X71.12Y-86.901
X71.628Y-84.742
X73.279Y-101.506
X73.66Y-80.17
X74.295Y-141.763
X74.295Y-56.675
X75.184Y-139.479
X75.438Y-82.202
X76.835Y-44.84
X76.835Y-68.105
X77.343Y-121.572
X78.105Y-139.225
X78.486Y-124.62
X78.613Y-144.051
X79.375Y-46.515
X79.375Y-121.445
X79.629Y-81.44
X80.137Y-101.125
X80.645Y-52.865
X81.026Y-86.901
X82.56Y-119.642
X83.059Y-50.199
X83.185Y-61.755
X83.82Y-135.415
X83.871Y-106.172
X84.455Y-70.645
X84.741Y-49.793
X85.725Y-69.375
X86.519Y-41.435
X86.519Y-43.951
X86.519Y-46.11
X88.265Y-66.581
X88.265Y-83.345
X88.519Y-125.128
X88.551Y-49.793
X90.69Y-110.892
X90.805Y-49.92
X91.567Y-128.303
X92.456Y-140.114
X92.456Y-144.051
X92.456Y-145.956
X93.472Y-86.139
X94.488Y-82.202
X94.742Y-88.806
X94.869Y-86.774
X95.25Y-81.44
X96.774Y-134.399
X97.155Y-55.405
X97.155Y-59.215
X98.425Y-47.785
X98.425Y-61.755
X98.425Y-69.375
X99.695Y-66.835
X99.695Y-70.645
X99.695Y-105.697
X99.822Y-107.729
X100.33Y-81.44
X100.965Y-66.835
X101.219Y-125.763
X102.235Y-69.375
X102.235Y-135.415
X102.489Y-144.305
X103.505Y-43.975
X103.505Y-46.515
X104.14Y-67.343
X104.267Y-101.125
X104.902Y-141.257
X105.359Y-87.409
X106.045Y-85.885
X106.535Y-137.645
X108.839Y-120.2
X108.966Y-125.001
X109.093Y-126.906
X109.982Y-105.697
X110.871Y-81.44
X111.125Y-97.315
X112.536Y-56.675
X113.284Y-86.901
X113.665Y-82.329
X113.919Y-88.679
X114.173Y-142.248
X115.697Y-146.083
X116.459Y-144.686
X117.983Y-107.602
X118.11Y-128.43
X118.364Y-105.697
X120.015Y-66.835
X120.015Y-69.375
X120.142Y-125.128
X121.666Y-81.44
X122.428Y-128.303
X122.555Y-43.975
X122.555Y-67.216
X122.555Y-139.479
X123.19Y-101.125
X123.622Y-86.901
X123.682Y-139.851
X125.095Y-135.415
X126.873Y-144.305
X127.889Y-120.2
X128.143Y-125.001
X128.143Y-126.779
X128.143Y-137.803
X129.032Y-81.44
X129.54Y-105.824
X131.445Y-56.675
X132.715Y-88.806
X132.842Y-82.202
X132.842Y-87.028
X136.779Y-128.43
X137.16Y-107.729
X137.541Y-106.078
X137.795Y-47.785
X137.795Y-64.295
X139.065Y-68.105
X139.065Y-70.645
X139.192Y-125.001
X139.7Y-81.44
X141.605Y-43.975
X141.605Y-128.303
X141.986Y-101.125
X142.367Y-67.724
X143.383Y-86.774
X144.399Y-139.606
X145.923Y-137.955
X146.939Y-120.2
X147.066Y-125.001
X147.066Y-126.652
X148.082Y-81.44
X148.082Y-105.951
X148.971Y-139.733
X150.495Y-56.675
X151.765Y-82.202
X151.892Y-86.901
X151.892Y-88.552
X156.337Y-106.078
X156.337Y-128.43
X156.591Y-107.729
X156.845Y-70.645
X158.115Y-68.105
X158.115Y-70.645
X158.115Y-78.265
X158.115Y-81.44
X158.115Y-124.874
X158.115Y-157.005
X158.877Y-147.099
X158.877Y-148.115
X159.004Y-151.696
X159.004Y-153.068
X159.766Y-143.67
X160.655Y-43.975
X160.655Y-128.303
X161.29Y-101.125
X161.417Y-67.724
X162.56Y-87.028
X164.405Y-150.595
X165.354Y-157.64
X165.735Y-153.195
X165.862Y-126.652
X165.989Y-120.2
X166.243Y-124.874
X166.751Y-81.44
X167.132Y-157.64
X167.234Y-142.476
X167.259Y-138.844
X167.386Y-105.951
X167.513Y-147.861
X167.869Y-143.138
X168.148Y-81.44
X168.275Y-153.195
X168.275Y-93.505
X168.275Y-153.957
X168.322Y-141.456
X168.529Y-140.495
X169.24Y-152.89
X169.545Y-56.675
X169.745Y-154.065
X169.942Y-142.255
X170.658Y-138.691
X170.815Y-82.202
X170.815Y-86.901
X170.815Y-88.552
X170.815Y-153.695
X170.815Y-157.64
X171.332Y-142.527
X171.41Y-138.814
X171.961Y-148.581
X172.085Y-157.005
X172.187Y-153.195
X172.403Y-142.21
X173.101Y-143.162
X173.228Y-142.273
X173.355Y-113.825
X173.355Y-153.195
X173.981Y-158.385
X174.244Y-143.416
X174.523Y-152.479
X174.608Y-148.164
X174.608Y-150.019
X174.625Y-121.445
X174.625Y-60.485
X174.899Y-151.29
X175.133Y-143.162
X175.26Y-128.43
X175.387Y-105.824
X175.446Y-151.925
X175.641Y-107.729
X175.895Y-45.245
X175.895Y-49.055
X176.149Y-143.162
X176.657Y-125.001
X176.911Y-143.289
X177.165Y-68.105
X177.165Y-70.645
X177.384Y-144.524
X178.054Y-152.56
X178.922Y-143.776
X179.447Y-145.19
X179.578Y-128.303
X179.705Y-136.685
X180.213Y-101.125
X180.594Y-67.851
X180.915Y-153.5
X180.975Y-47.785
X180.975Y-59.215
X181.991Y-87.155
X182.093Y-129.065
X182.982Y-151.036
X183.642Y-143.924
X183.769Y-147.099
X185.039Y-124.747
X185.166Y-120.2
X185.166Y-126.906
X186.055Y-107.475
X186.132Y-157.682
X186.563Y-81.44
X186.69Y-106.078
X187.579Y-144.051
X189.738Y-87.028
X189.865Y-43.975
X189.865Y-88.679
X189.992Y-82.202
X194.716Y-105.98
X194.716Y-107.729
X194.945Y-113.825
X195.072Y-128.43
X196.215Y-68.105
X196.215Y-70.645
X196.723Y-125.255
X197.993Y-144.178
X198.374Y-142.654
X198.628Y-128.278
X198.755Y-56.675
X199.263Y-67.724
X199.343Y-141.359
X199.39Y-101.125
X200.025Y-81.44
X200.226Y-141.317
X200.914Y-87.028
X202.264Y-138.895
X203.581Y-151.798
X204.089Y-120.2
X204.216Y-125.001
X204.47Y-126.906
X205.105Y-107.475
X205.486Y-81.44
X205.613Y-105.824
X208.915Y-43.975
X209.042Y-82.202
X209.138Y-86.87
X209.169Y-88.552
X210.185Y-154.465
X213.233Y-105.951
X213.233Y-107.602
X213.233Y-128.43
X215.138Y-124.874
X215.265Y-68.105
X215.265Y-70.645
X217.664Y-56.675
X217.805Y-125.128
X217.805Y-128.303
X218.313Y-101.125
X218.567Y-81.44
X218.694Y-67.851
X219.329Y-141.765
X220.389Y-87.365
X221.361Y-125.128
X221.615Y-138.336
X223.266Y-120.2
X223.393Y-126.779
X224.409Y-105.824
X224.536Y-81.44
X225.425Y-47.785
X225.425Y-59.215
X227.965Y-43.975
X227.965Y-82.202
X227.965Y-86.901
X228.092Y-88.679
X232.283Y-105.824
X232.537Y-107.475
X232.791Y-128.43
X234.061Y-125.001
X236.855Y-56.675
X236.982Y-81.44
X236.982Y-128.303
X237.363Y-101.125
X237.49Y-67.978
X239.268Y-86.774
X239.395Y-146.845
X239.395Y-148.115
X239.395Y-149.385
X239.724Y-137.428
X242.189Y-126.906
X242.316Y-120.2
X242.443Y-125.128
X243.205Y-81.44
X243.586Y-105.951
X245.745Y-151.925
X245.745Y-153.195
X246.888Y-82.202
X246.888Y-86.901
X247.015Y-43.975
X247.015Y-88.806
X248.285Y-141.765
X249.555Y-143.035
X250.825Y-70.645
X250.825Y-143.213
X250.825Y-150.655
X251.46Y-81.44
X251.841Y-106.205
X251.841Y-107.729
X252.095Y-70.645
X252.095Y-128.43
X253.238Y-125.001
X253.365Y-68.105
X253.365Y-70.645
X254.635Y-140.266
X255.844Y-140.266
X255.905Y-56.675
X256.032Y-128.303
X256.286Y-101.125
X256.794Y-67.724
X257.175Y-136.685
X258.445Y-47.785
X258.572Y-87.282
X258.572Y-145.956
X258.953Y-143.924
X259.207Y-137.65
X260.985Y-85.885
X261.112Y-126.906
X261.239Y-120.2
X261.524Y-124.97
X262.255Y-59.335
X262.382Y-81.44
X262.636Y-106.205
X263.525Y-55.405
X264.49Y-59.52
X265.684Y-88.552
X266.065Y-49.055
X266.192Y-82.202
X266.319Y-87.028
X268.605Y-56.675
X268.605Y-60.485
X268.732Y-147.099
X269.494Y-144.178
X270.637Y-107.729
X270.637Y-128.43
X270.764Y-105.824
X271.907Y-125.001
X272.415Y-68.105
X272.415Y-70.645
X274.574Y-81.44
X274.955Y-43.975
X274.955Y-128.303
X275.184Y-139.987
X275.463Y-101.125
X275.686Y-67.82
X276.479Y-87.155
X277.495Y-140.495
X277.749Y-137.955
X280.289Y-124.874
X280.416Y-120.2
X280.67Y-126.779
X281.178Y-81.44
X281.305Y-106.078
X282.956Y-144.178
X282.956Y-146.083
X283.845Y-57.945
X285.115Y-88.679
X285.153Y-82.202
X285.242Y-86.774
X289.687Y-107.729
X289.814Y-105.697
X290.322Y-128.43
X291.465Y-68.105
X291.465Y-70.645
X292.1Y-125.255
X292.735Y-147.48
X292.989Y-144.051
X294.005Y-43.975
X294.005Y-128.303
X294.386Y-67.724
X294.513Y-101.125
X295.148Y-81.44
X296.418Y-87.028
X296.926Y-138.209
X298.856Y-136.685
X299.466Y-120.2
X299.597Y-137.778
X300.736Y-105.951
X300.99Y-81.44
X302.895Y-125.255
X302.895Y-57.945
X304.038Y-82.202
X304.292Y-88.806
X304.515Y-86.87
X306.578Y-144.051
X306.705Y-45.245
X306.705Y-101.252
X306.832Y-145.956
X310.515Y-60.485
X311.61Y-81.368
X313.055Y-43.975
X315.468Y-86.901
X315.976Y-126.779
X316.865Y-147.226
X317.5Y-143.797
X320.675Y-68.105
X320.675Y-70.645
X321.056Y-107.856
X321.183Y-106.078
X321.945Y-57.945
X323.088Y-67.851
X326.39Y-125.89
X327.025Y-101.125
X327.025Y-128.43
X327.406Y-88.679
X327.787Y-86.774
X329.692Y-128.303
X330.073Y-145.956
X330.2Y-143.797
X332.105Y-43.975
X332.105Y-79.535
X332.613Y-82.202
X333.883Y-107.348
X334.645Y-98.585
X337.185Y-83.98
X338.01Y-86.965
X338.074Y-73.566
X338.074Y-114.841
X340.995Y-57.945
X340.995Y-144.94
X340.995Y-147.607
X346.075Y-45.245
X349.885Y-59.215
X349.885Y-84.615
X351.155Y-92.235
X351.155Y-113.825
X351.155Y-127.795
X352.425Y-139.225
X352.425Y-140.495
X353.695Y-68.105
X353.695Y-70.645
X353.695Y-90.965
X353.695Y-131.605
X356.235Y-43.975
X356.235Y-68.105
X356.235Y-87.155
X356.235Y-89.06
X356.235Y-132.875
X356.235Y-144.305
X356.87Y-146.21
X358.775Y-71.915
X363.855Y-115.095
X365.125Y-57.945
X365.125Y-99.855
X367.665Y-82.075
X368.935Y-140.495
X368.935Y-141.765
X368.935Y-146.845
X371.475Y-141.765
X371.475Y-141.765
X372.745Y-68.105
X372.745Y-70.645
X372.745Y-87.155
X372.745Y-89.695
X372.745Y-144.305
X372.745Y-146.845
X375.285Y-43.975
X375.285Y-68.105
X375.285Y-87.155
X375.285Y-125.255
X375.285Y-144.305
X375.92Y-127.16
X377.825Y-129.065
X382.905Y-57.945
X384.175Y-99.83
X384.175Y-137.955
X385.445Y-82.075
X387.35Y-124.62
X387.985Y-45.245
X389.255Y-144.305
X389.255Y-141.765
X390.525Y-59.215
X390.525Y-71.915
X390.525Y-83.345
X390.525Y-87.155
X390.525Y-89.695
X391.795Y-68.105
X391.795Y-76.995
X391.795Y-87.155
X391.795Y-96.045
X391.795Y-141.765
X393.065Y-151.925
X394.335Y-43.975
X394.335Y-68.105
X394.335Y-87.155
X394.335Y-137.955
X394.335Y-144.305
X401.955Y-57.945
X401.955Y-99.855
X402.794Y-82.075
X405.765Y-68.105
X405.765Y-87.028
X408.305Y-60.485
T2
X168.524Y-146.713
X168.524Y-147.988
X168.524Y-149.263
X169.799Y-146.713
X169.799Y-147.988
X169.799Y-149.263
X171.074Y-146.713
X171.074Y-147.988
X171.074Y-149.263
T4
X176.022Y-156.116
X178.562Y-156.116
X181.102Y-156.116
X360.045Y-107.475
X360.045Y-110.015
X360.045Y-112.555
X360.045Y-115.095
T5
X65.405Y-61.755
X65.405Y-132.875
X190.365Y-110.015
X233.045Y-61.755
X233.045Y-151.925
X346.375Y-107.475
X402.495Y-61.755
X402.495Y-132.875
T3
X82.072Y-42.601G85X82.072Y-43.201
G05
X82.072Y-46.531G85X82.072Y-47.631
G05
X90.712Y-42.601G85X90.712Y-43.201
G05
X90.712Y-46.531G85X90.712Y-47.631
G05
T0
M30
