M48
; DRILL file {KiCad (5.1.10)-1} date 02/04/22 14:19:24
; FORMAT={-:-/ absolute / inch / decimal}
; #@! TF.CreationDate,2022-02-04T14:19:24-06:00
; #@! TF.GenerationSoftware,Kicad,Pcbnew,(5.1.10)-1
; #@! TF.FileFunction,Plated,1,2,PTH
FMAT,2
INCH
T1C0.0120
T2C0.0138
T3C0.0236
T4C0.0394
T5C0.0866
%
G90
G05
T1
X2.475Y-2.2313
X2.475Y-2.2813
X2.575Y-1.7313
X2.575Y-1.8063
X2.575Y-2.2813
X2.575Y-4.0813
X2.604Y-2.6863
X2.675Y-2.8313
X2.675Y-2.8313
X2.7Y-5.7213
X2.7207Y-5.6709
X2.8Y-3.4213
X2.82Y-3.3363
X2.885Y-3.9963
X2.9Y-3.1563
X2.925Y-5.5812
X2.925Y-2.2313
X2.96Y-5.4913
X2.97Y-3.2363
X3.025Y-1.7654
X3.025Y-2.6813
X3.043Y-5.4323
X3.045Y-4.7863
X3.09Y-4.9063
X3.095Y-5.6713
X3.125Y-1.8313
X3.125Y-4.7813
X3.135Y-3.2063
X3.155Y-3.9813
X3.159Y-3.3793
X3.175Y-2.0813
X3.2504Y-4.7103
X3.2701Y-1.9764
X3.275Y-2.4313
X3.279Y-4.1593
X3.3Y-5.3313
X3.325Y-2.7813
X3.3363Y-1.9604
X3.375Y-2.7313
X3.4063Y-1.6313
X3.4063Y-1.7304
X3.4063Y-1.8154
X3.475Y-2.6213
X3.475Y-3.2813
X3.485Y-4.9263
X3.4863Y-1.9604
X3.5705Y-4.3658
X3.575Y-1.9654
X3.605Y-5.0513
X3.64Y-5.5163
X3.64Y-5.6713
X3.64Y-5.7463
X3.68Y-3.3913
X3.72Y-3.2363
X3.73Y-3.4963
X3.735Y-3.4163
X3.75Y-3.2063
X3.81Y-5.2913
X3.825Y-2.1813
X3.825Y-2.3313
X3.875Y-1.8813
X3.875Y-2.4313
X3.875Y-2.7313
X3.925Y-2.6313
X3.925Y-2.7813
X3.925Y-4.1613
X3.93Y-4.2413
X3.95Y-3.2063
X3.975Y-2.6313
X3.985Y-4.9513
X4.025Y-2.7313
X4.025Y-5.3313
X4.027Y-5.6583
X4.075Y-1.7313
X4.075Y-1.8313
X4.1Y-2.6513
X4.105Y-3.9813
X4.12Y-3.4343
X4.13Y-5.5613
X4.175Y-3.3813
X4.1943Y-5.4191
X4.285Y-4.7323
X4.29Y-4.9213
X4.295Y-4.9963
X4.305Y-4.1493
X4.365Y-3.2063
X4.375Y-3.8313
X4.4306Y-2.2313
X4.46Y-3.4213
X4.475Y-3.2413
X4.485Y-3.4913
X4.495Y-5.6003
X4.555Y-5.7513
X4.585Y-5.6963
X4.645Y-4.2363
X4.65Y-5.0563
X4.66Y-4.1613
X4.725Y-2.6313
X4.725Y-2.7313
X4.73Y-4.9263
X4.79Y-3.2063
X4.82Y-5.0513
X4.825Y-1.7313
X4.825Y-2.6463
X4.825Y-5.4913
X4.841Y-3.3793
X4.85Y-3.9813
X4.8694Y-5.506
X4.925Y-5.3313
X4.995Y-5.6813
X5.035Y-4.7323
X5.045Y-4.9213
X5.045Y-4.9913
X5.045Y-5.4253
X5.061Y-4.1533
X5.08Y-3.2063
X5.175Y-2.2313
X5.225Y-3.4963
X5.23Y-3.2363
X5.23Y-3.4263
X5.385Y-5.0563
X5.4Y-4.2413
X5.415Y-4.1763
X5.425Y-1.8813
X5.425Y-2.5313
X5.475Y-2.6813
X5.475Y-2.7813
X5.48Y-4.9213
X5.5Y-3.2063
X5.575Y-1.7313
X5.575Y-5.0513
X5.59Y-3.9813
X5.605Y-2.6663
X5.625Y-3.4193
X5.685Y-5.4963
X5.745Y-5.4313
X5.785Y-4.7323
X5.79Y-4.9213
X5.79Y-4.9863
X5.806Y-4.1593
X5.83Y-3.2063
X5.865Y-5.5013
X5.925Y-2.2313
X5.975Y-3.2363
X5.98Y-3.4213
X5.98Y-3.4863
X6.155Y-4.1763
X6.155Y-5.0563
X6.165Y-4.2413
X6.175Y-2.7813
X6.225Y-2.6813
X6.225Y-2.7813
X6.225Y-3.0813
X6.225Y-3.2063
X6.225Y-4.9163
X6.225Y-6.1813
X6.255Y-5.7913
X6.255Y-5.8313
X6.26Y-5.9723
X6.26Y-6.0263
X6.29Y-5.6563
X6.325Y-1.7313
X6.325Y-5.0513
X6.35Y-3.9813
X6.355Y-2.6663
X6.381Y-3.4263
X6.4727Y-5.9289
X6.51Y-6.2063
X6.525Y-6.0313
X6.53Y-4.9863
X6.535Y-4.7323
X6.545Y-4.9163
X6.561Y-4.1693
X6.565Y-3.2063
X6.58Y-6.2063
X6.584Y-5.6093
X6.585Y-5.4663
X6.595Y-5.8213
X6.609Y-5.6354
X6.62Y-3.2063
X6.625Y-6.0313
X6.625Y-3.6813
X6.625Y-6.0613
X6.6269Y-5.5691
X6.635Y-5.5313
X6.663Y-6.0193
X6.675Y-2.2313
X6.6829Y-6.0656
X6.6906Y-5.6006
X6.7188Y-5.4603
X6.725Y-3.2363
X6.725Y-3.4213
X6.725Y-3.4863
X6.725Y-6.051
X6.725Y-6.2063
X6.7454Y-5.6113
X6.7484Y-5.4651
X6.7701Y-5.8496
X6.775Y-6.1813
X6.779Y-6.0313
X6.7875Y-5.5988
X6.815Y-5.6363
X6.82Y-5.6013
X6.825Y-4.4813
X6.825Y-6.0313
X6.8497Y-6.2356
X6.86Y-5.6463
X6.871Y-6.0031
X6.8743Y-5.8332
X6.8743Y-5.9062
X6.875Y-4.7813
X6.875Y-2.3813
X6.8858Y-5.9563
X6.895Y-5.6363
X6.9Y-5.0563
X6.905Y-4.1663
X6.9073Y-5.9813
X6.915Y-4.2413
X6.925Y-1.7813
X6.925Y-1.9313
X6.935Y-5.6363
X6.955Y-4.9213
X6.965Y-5.6413
X6.976Y-2.6813
X6.976Y-2.7813
X6.9836Y-5.6899
X7.01Y-6.0063
X7.0442Y-5.6605
X7.0648Y-5.7161
X7.07Y-5.0513
X7.075Y-5.3813
X7.095Y-3.9813
X7.11Y-2.6713
X7.1226Y-6.0433
X7.125Y-1.8813
X7.125Y-2.3313
X7.165Y-3.4313
X7.169Y-5.0813
X7.204Y-5.9463
X7.23Y-5.6663
X7.235Y-5.7913
X7.285Y-4.9113
X7.29Y-4.7323
X7.29Y-4.9963
X7.325Y-4.2313
X7.328Y-6.208
X7.345Y-3.2063
X7.35Y-4.1763
X7.385Y-5.6713
X7.47Y-3.4263
X7.475Y-1.7313
X7.475Y-3.4913
X7.48Y-3.2363
X7.666Y-4.1724
X7.666Y-4.2413
X7.675Y-4.4813
X7.68Y-5.0563
X7.725Y-2.6813
X7.725Y-2.7813
X7.745Y-4.9313
X7.795Y-5.6763
X7.81Y-5.6163
X7.82Y-5.0503
X7.825Y-2.2313
X7.845Y-2.6663
X7.8482Y-5.5653
X7.85Y-3.9813
X7.875Y-3.2063
X7.88Y-3.4203
X7.8829Y-5.5637
X7.9632Y-5.4683
X8.015Y-5.9763
X8.035Y-4.7323
X8.04Y-4.9213
X8.05Y-4.9963
X8.075Y-4.2313
X8.09Y-3.2063
X8.095Y-4.1663
X8.225Y-1.7313
X8.23Y-3.2363
X8.2338Y-3.4201
X8.235Y-3.4863
X8.275Y-6.0813
X8.395Y-4.1713
X8.395Y-4.2363
X8.395Y-5.0563
X8.47Y-4.9163
X8.475Y-2.6813
X8.475Y-2.7813
X8.5694Y-2.2313
X8.575Y-4.9263
X8.575Y-5.0513
X8.595Y-3.9813
X8.605Y-3.2063
X8.61Y-2.6713
X8.631Y-3.4293
X8.635Y-5.5813
X8.715Y-4.9263
X8.725Y-5.4463
X8.79Y-4.7323
X8.795Y-4.9913
X8.819Y-4.1663
X8.84Y-3.2063
X8.875Y-1.8813
X8.875Y-2.3313
X8.975Y-1.7313
X8.975Y-3.2363
X8.975Y-3.4213
X8.98Y-3.4913
X9.145Y-4.1663
X9.155Y-4.2313
X9.165Y-5.0563
X9.215Y-4.9213
X9.325Y-2.2313
X9.33Y-3.2063
X9.33Y-5.0513
X9.345Y-3.9813
X9.35Y-2.6763
X9.383Y-3.4193
X9.425Y-5.7813
X9.425Y-5.8313
X9.425Y-5.8813
X9.4379Y-5.4106
X9.535Y-4.9963
X9.54Y-4.7323
X9.545Y-4.9263
X9.575Y-3.2063
X9.59Y-4.1713
X9.675Y-5.9813
X9.675Y-6.0313
X9.72Y-3.2363
X9.72Y-3.4213
X9.725Y-1.7313
X9.725Y-3.4963
X9.775Y-5.5813
X9.825Y-5.6313
X9.875Y-2.7813
X9.875Y-5.6383
X9.875Y-5.9313
X9.9Y-3.2063
X9.915Y-4.1813
X9.915Y-4.2413
X9.925Y-2.7813
X9.925Y-5.0563
X9.97Y-4.9213
X9.975Y-2.6813
X9.975Y-2.7813
X10.025Y-5.5223
X10.0726Y-5.5223
X10.075Y-2.2313
X10.08Y-5.0513
X10.09Y-3.9813
X10.11Y-2.6663
X10.125Y-5.3813
X10.132Y-3.4243
X10.175Y-1.8813
X10.18Y-5.7463
X10.195Y-5.6663
X10.205Y-5.4193
X10.275Y-3.3813
X10.28Y-4.9963
X10.285Y-4.7323
X10.2962Y-4.9201
X10.325Y-2.336
X10.33Y-3.2063
X10.34Y-4.1813
X10.375Y-2.1803
X10.413Y-2.3433
X10.46Y-3.4863
X10.475Y-1.9313
X10.48Y-3.2363
X10.485Y-3.4263
X10.575Y-2.2313
X10.575Y-2.3813
X10.58Y-5.7913
X10.61Y-5.6763
X10.655Y-4.2413
X10.655Y-5.0563
X10.66Y-4.1663
X10.705Y-4.9213
X10.726Y-2.6813
X10.726Y-2.7813
X10.81Y-3.2063
X10.825Y-1.7313
X10.825Y-5.0513
X10.834Y-5.5113
X10.845Y-3.9813
X10.8538Y-2.6701
X10.885Y-3.4313
X10.925Y-5.5313
X10.935Y-5.4313
X11.035Y-4.9163
X11.04Y-4.7323
X11.05Y-4.9913
X11.059Y-4.1743
X11.07Y-3.2063
X11.14Y-5.6763
X11.14Y-5.7513
X11.175Y-2.2813
X11.225Y-3.4913
X11.2265Y-3.2363
X11.23Y-3.4163
X11.405Y-4.2413
X11.41Y-4.1613
X11.43Y-5.0563
X11.475Y-2.6813
X11.475Y-2.7813
X11.5Y-4.9313
X11.525Y-5.8063
X11.535Y-5.6713
X11.575Y-1.7313
X11.575Y-5.0513
X11.59Y-2.6663
X11.595Y-3.9813
X11.62Y-3.2063
X11.629Y-3.4193
X11.69Y-5.4413
X11.766Y-5.3813
X11.79Y-4.7323
X11.7952Y-5.4243
X11.84Y-4.1713
X11.85Y-3.2063
X11.925Y-4.9313
X11.925Y-2.2813
X11.97Y-3.2363
X11.98Y-3.4963
X11.9888Y-3.4201
X12.07Y-5.6713
X12.075Y-1.7813
X12.075Y-3.9863
X12.08Y-5.7463
X12.225Y-2.3813
X12.2681Y-3.2035
X12.325Y-1.7313
X12.374Y-3.4183
X12.44Y-4.9913
X12.475Y-5.7963
X12.5Y-5.6613
X12.625Y-2.6813
X12.625Y-2.7813
X12.64Y-4.2463
X12.645Y-4.1763
X12.675Y-2.2813
X12.72Y-2.6713
X12.85Y-4.9563
X12.875Y-3.9813
X12.875Y-5.0563
X12.89Y-3.4913
X12.905Y-3.4163
X12.926Y-4.6243
X12.961Y-4.9363
X12.973Y-4.7343
X12.98Y-5.0483
X12.995Y-5.7463
X13.0Y-5.6613
X13.009Y-4.8283
X13.075Y-1.7313
X13.075Y-3.1313
X13.089Y-4.3203
X13.095Y-3.2363
X13.107Y-5.0643
X13.133Y-4.1823
X13.175Y-3.8813
X13.203Y-5.1903
X13.205Y-4.3143
X13.275Y-3.3063
X13.3075Y-3.4238
X13.31Y-2.8963
X13.31Y-4.5213
X13.401Y-5.6773
X13.425Y-2.2813
X13.425Y-5.8113
X13.564Y-2.8043
X13.585Y-4.7083
X13.611Y-3.2533
X13.614Y-3.0083
X13.625Y-1.7813
X13.643Y-3.4493
X13.654Y-3.7263
X13.767Y-5.0693
X13.775Y-2.3313
X13.775Y-3.3313
X13.776Y-5.1873
X13.825Y-3.6313
X13.825Y-4.4813
X13.825Y-5.0313
X13.847Y-2.7753
X13.86Y-5.1873
X13.863Y-4.2123
X13.864Y-5.3223
X13.865Y-4.7373
X13.87Y-3.8373
X13.875Y-5.4813
X13.875Y-5.5313
X13.925Y-2.6813
X13.925Y-2.7813
X13.925Y-3.5813
X13.925Y-5.1813
X14.025Y-1.7313
X14.025Y-2.6813
X14.025Y-3.4313
X14.025Y-3.5063
X14.025Y-5.2313
X14.025Y-5.6813
X14.05Y-5.7563
X14.125Y-2.8313
X14.325Y-4.5313
X14.375Y-2.2813
X14.375Y-3.9313
X14.408Y-3.2273
X14.525Y-5.5313
X14.525Y-5.5813
X14.525Y-5.7813
X14.625Y-5.5813
X14.625Y-5.5813
X14.675Y-2.6813
X14.675Y-2.7813
X14.675Y-3.4313
X14.675Y-3.5313
X14.675Y-5.6813
X14.675Y-5.7813
X14.775Y-1.7313
X14.775Y-2.6813
X14.775Y-3.4313
X14.775Y-4.9313
X14.775Y-5.6813
X14.8Y-5.0063
X14.875Y-5.0813
X15.075Y-2.2813
X15.125Y-3.9303
X15.125Y-5.4313
X15.163Y-3.2313
X15.25Y-4.9063
X15.275Y-1.7813
X15.323Y-5.5813
X15.325Y-5.6813
X15.375Y-2.3313
X15.375Y-2.8313
X15.375Y-3.2813
X15.375Y-3.4313
X15.375Y-3.5313
X15.425Y-2.6813
X15.425Y-3.0313
X15.425Y-3.4313
X15.425Y-3.7813
X15.425Y-5.5813
X15.475Y-5.9813
X15.525Y-1.7313
X15.525Y-2.6813
X15.525Y-3.4313
X15.525Y-5.4313
X15.525Y-5.6813
X15.825Y-2.2813
X15.825Y-3.9313
X15.858Y-3.2313
X15.975Y-2.6813
X15.975Y-3.4263
X16.075Y-2.3813
T2
X6.6348Y-5.7761
X6.6348Y-5.8263
X6.6348Y-5.8765
X6.685Y-5.7761
X6.685Y-5.8263
X6.685Y-5.8765
X6.7352Y-5.7761
X6.7352Y-5.8263
X6.7352Y-5.8765
T4
X6.93Y-6.1463
X7.03Y-6.1463
X7.13Y-6.1463
X14.175Y-4.2313
X14.175Y-4.3313
X14.175Y-4.4313
X14.175Y-4.5313
T5
X2.575Y-2.4313
X2.575Y-5.2313
X7.4947Y-4.3313
X9.175Y-2.4313
X9.175Y-5.9813
X13.6368Y-4.2313
X15.8463Y-2.4313
X15.8463Y-5.2313
T3
G00X3.2312Y-1.6772
M15
G01X3.2312Y-1.7008
M16
G05
G00X3.2312Y-1.8319
M15
G01X3.2312Y-1.8752
M16
G05
G00X3.5713Y-1.6772
M15
G01X3.5713Y-1.7008
M16
G05
G00X3.5713Y-1.8319
M15
G01X3.5713Y-1.8752
M16
G05
T0
M30
