%TF.GenerationSoftware,KiCad,Pcbnew,(5.1.10)-1*%
%TF.CreationDate,2022-02-04T14:19:33-06:00*%
%TF.ProjectId,PyKey87,50794b65-7938-4372-9e6b-696361645f70,rev?*%
%TF.SameCoordinates,Original*%
%TF.FileFunction,Paste,Bot*%
%TF.FilePolarity,Positive*%
%FSLAX46Y46*%
G04 Gerber Fmt 4.6, Leading zero omitted, Abs format (unit mm)*
G04 Created by KiCad (PCBNEW (5.1.10)-1) date 2022-02-04 14:19:33*
%MOMM*%
%LPD*%
G01*
G04 APERTURE LIST*
%ADD10R,2.500000X1.100000*%
%ADD11R,2.550000X2.500000*%
%ADD12R,1.550000X1.000000*%
%ADD13R,2.500000X1.200000*%
%ADD14R,2.306599X1.956600*%
%ADD15R,1.200000X0.900000*%
%ADD16R,0.900000X1.200000*%
%ADD17R,2.000000X1.500000*%
%ADD18R,2.000000X3.800000*%
%ADD19R,1.200000X1.400000*%
%ADD20R,0.600000X1.450000*%
%ADD21R,0.300000X1.450000*%
%ADD22R,0.650000X1.060000*%
%ADD23R,0.700000X1.500000*%
%ADD24R,1.000000X0.800000*%
G04 APERTURE END LIST*
D10*
X144687500Y-44007500D03*
X144687500Y-45907500D03*
X150587500Y-44007500D03*
X150587500Y-45907500D03*
D11*
X141622500Y-55087500D03*
X155047500Y-52547500D03*
D10*
X316137500Y-44007500D03*
X316137500Y-45907500D03*
X322037500Y-44007500D03*
X322037500Y-45907500D03*
D11*
X313072500Y-55087500D03*
X326497500Y-52547500D03*
D10*
X397100000Y-144020000D03*
X397100000Y-145920000D03*
X403000000Y-144020000D03*
X403000000Y-145920000D03*
D11*
X394035000Y-155100000D03*
X407460000Y-152560000D03*
D10*
X87537500Y-67820000D03*
X87537500Y-69720000D03*
X93437500Y-67820000D03*
X93437500Y-69720000D03*
D11*
X84472500Y-78900000D03*
X97897500Y-76360000D03*
D12*
X178350000Y-43355000D03*
X183600000Y-43355000D03*
X183600000Y-45055000D03*
X178350000Y-45055000D03*
D10*
X68487500Y-67820000D03*
X68487500Y-69720000D03*
X74387500Y-67820000D03*
X74387500Y-69720000D03*
D11*
X65422500Y-78900000D03*
X78847500Y-76360000D03*
D13*
X264085000Y-45880000D03*
X264085000Y-48880000D03*
X264085000Y-52880000D03*
X270585000Y-53980000D03*
G36*
G01*
X250779999Y-154125000D02*
X252080001Y-154125000D01*
G75*
G02*
X252330000Y-154374999I0J-249999D01*
G01*
X252330000Y-155075001D01*
G75*
G02*
X252080001Y-155325000I-249999J0D01*
G01*
X250779999Y-155325000D01*
G75*
G02*
X250530000Y-155075001I0J249999D01*
G01*
X250530000Y-154374999D01*
G75*
G02*
X250779999Y-154125000I249999J0D01*
G01*
G37*
G36*
G01*
X250779999Y-148525000D02*
X252080001Y-148525000D01*
G75*
G02*
X252330000Y-148774999I0J-249999D01*
G01*
X252330000Y-149475001D01*
G75*
G02*
X252080001Y-149725000I-249999J0D01*
G01*
X250779999Y-149725000D01*
G75*
G02*
X250530000Y-149475001I0J249999D01*
G01*
X250530000Y-148774999D01*
G75*
G02*
X250779999Y-148525000I249999J0D01*
G01*
G37*
G36*
G01*
X246930000Y-153125000D02*
X248180000Y-153125000D01*
G75*
G02*
X248330000Y-153275000I0J-150000D01*
G01*
X248330000Y-153575000D01*
G75*
G02*
X248180000Y-153725000I-150000J0D01*
G01*
X246930000Y-153725000D01*
G75*
G02*
X246780000Y-153575000I0J150000D01*
G01*
X246780000Y-153275000D01*
G75*
G02*
X246930000Y-153125000I150000J0D01*
G01*
G37*
G36*
G01*
X246930000Y-152125000D02*
X248180000Y-152125000D01*
G75*
G02*
X248330000Y-152275000I0J-150000D01*
G01*
X248330000Y-152575000D01*
G75*
G02*
X248180000Y-152725000I-150000J0D01*
G01*
X246930000Y-152725000D01*
G75*
G02*
X246780000Y-152575000I0J150000D01*
G01*
X246780000Y-152275000D01*
G75*
G02*
X246930000Y-152125000I150000J0D01*
G01*
G37*
G36*
G01*
X246930000Y-151125000D02*
X248180000Y-151125000D01*
G75*
G02*
X248330000Y-151275000I0J-150000D01*
G01*
X248330000Y-151575000D01*
G75*
G02*
X248180000Y-151725000I-150000J0D01*
G01*
X246930000Y-151725000D01*
G75*
G02*
X246780000Y-151575000I0J150000D01*
G01*
X246780000Y-151275000D01*
G75*
G02*
X246930000Y-151125000I150000J0D01*
G01*
G37*
G36*
G01*
X246930000Y-150125000D02*
X248180000Y-150125000D01*
G75*
G02*
X248330000Y-150275000I0J-150000D01*
G01*
X248330000Y-150575000D01*
G75*
G02*
X248180000Y-150725000I-150000J0D01*
G01*
X246930000Y-150725000D01*
G75*
G02*
X246780000Y-150575000I0J150000D01*
G01*
X246780000Y-150275000D01*
G75*
G02*
X246930000Y-150125000I150000J0D01*
G01*
G37*
D10*
X335187500Y-44007500D03*
X335187500Y-45907500D03*
X341087500Y-44007500D03*
X341087500Y-45907500D03*
D11*
X332122500Y-55087500D03*
X345547500Y-52547500D03*
D10*
X397100000Y-44007500D03*
X397100000Y-45907500D03*
X403000000Y-44007500D03*
X403000000Y-45907500D03*
D11*
X394035000Y-55087500D03*
X407460000Y-52547500D03*
D10*
X397100000Y-67820000D03*
X397100000Y-69720000D03*
X403000000Y-67820000D03*
X403000000Y-69720000D03*
D11*
X394035000Y-78900000D03*
X407460000Y-76360000D03*
D10*
X397100000Y-86870000D03*
X397100000Y-88770000D03*
X403000000Y-86870000D03*
X403000000Y-88770000D03*
D11*
X394035000Y-97950000D03*
X407460000Y-95410000D03*
D10*
X378050000Y-124970000D03*
X378050000Y-126870000D03*
X383950000Y-124970000D03*
X383950000Y-126870000D03*
D11*
X374985000Y-136050000D03*
X388410000Y-133510000D03*
G36*
G01*
X153955000Y-155478750D02*
X153955000Y-155991250D01*
G75*
G02*
X153736250Y-156210000I-218750J0D01*
G01*
X153298750Y-156210000D01*
G75*
G02*
X153080000Y-155991250I0J218750D01*
G01*
X153080000Y-155478750D01*
G75*
G02*
X153298750Y-155260000I218750J0D01*
G01*
X153736250Y-155260000D01*
G75*
G02*
X153955000Y-155478750I0J-218750D01*
G01*
G37*
G36*
G01*
X155530000Y-155478750D02*
X155530000Y-155991250D01*
G75*
G02*
X155311250Y-156210000I-218750J0D01*
G01*
X154873750Y-156210000D01*
G75*
G02*
X154655000Y-155991250I0J218750D01*
G01*
X154655000Y-155478750D01*
G75*
G02*
X154873750Y-155260000I218750J0D01*
G01*
X155311250Y-155260000D01*
G75*
G02*
X155530000Y-155478750I0J-218750D01*
G01*
G37*
G36*
G01*
X151632500Y-155991250D02*
X151632500Y-155478750D01*
G75*
G02*
X151851250Y-155260000I218750J0D01*
G01*
X152288750Y-155260000D01*
G75*
G02*
X152507500Y-155478750I0J-218750D01*
G01*
X152507500Y-155991250D01*
G75*
G02*
X152288750Y-156210000I-218750J0D01*
G01*
X151851250Y-156210000D01*
G75*
G02*
X151632500Y-155991250I0J218750D01*
G01*
G37*
G36*
G01*
X150057500Y-155991250D02*
X150057500Y-155478750D01*
G75*
G02*
X150276250Y-155260000I218750J0D01*
G01*
X150713750Y-155260000D01*
G75*
G02*
X150932500Y-155478750I0J-218750D01*
G01*
X150932500Y-155991250D01*
G75*
G02*
X150713750Y-156210000I-218750J0D01*
G01*
X150276250Y-156210000D01*
G75*
G02*
X150057500Y-155991250I0J218750D01*
G01*
G37*
D14*
X211012900Y-151925000D03*
X224597100Y-151925000D03*
D10*
X80362000Y-124970000D03*
X80362000Y-126870000D03*
X86262000Y-124970000D03*
X86262000Y-126870000D03*
D11*
X77297000Y-136050000D03*
X90722000Y-133510000D03*
D10*
X106588000Y-67820000D03*
X106588000Y-69720000D03*
X112488000Y-67820000D03*
X112488000Y-69720000D03*
D11*
X103523000Y-78900000D03*
X116948000Y-76360000D03*
D10*
X125638000Y-67820000D03*
X125638000Y-69720000D03*
X131538000Y-67820000D03*
X131538000Y-69720000D03*
D11*
X122573000Y-78900000D03*
X135998000Y-76360000D03*
D10*
X144688000Y-67820000D03*
X144688000Y-69720000D03*
X150588000Y-67820000D03*
X150588000Y-69720000D03*
D11*
X141623000Y-78900000D03*
X155048000Y-76360000D03*
D10*
X163738000Y-67820000D03*
X163738000Y-69720000D03*
X169638000Y-67820000D03*
X169638000Y-69720000D03*
D11*
X160673000Y-78900000D03*
X174098000Y-76360000D03*
D10*
X201838000Y-67820000D03*
X201838000Y-69720000D03*
X207738000Y-67820000D03*
X207738000Y-69720000D03*
D11*
X198773000Y-78900000D03*
X212198000Y-76360000D03*
D10*
X220888000Y-67820000D03*
X220888000Y-69720000D03*
X226788000Y-67820000D03*
X226788000Y-69720000D03*
D11*
X217823000Y-78900000D03*
X231248000Y-76360000D03*
D10*
X239938000Y-67820000D03*
X239938000Y-69720000D03*
X245838000Y-67820000D03*
X245838000Y-69720000D03*
D11*
X236873000Y-78900000D03*
X250298000Y-76360000D03*
D10*
X258988000Y-67820000D03*
X258988000Y-69720000D03*
X264888000Y-67820000D03*
X264888000Y-69720000D03*
D11*
X255923000Y-78900000D03*
X269348000Y-76360000D03*
D10*
X278038000Y-67820000D03*
X278038000Y-69720000D03*
X283938000Y-67820000D03*
X283938000Y-69720000D03*
D11*
X274973000Y-78900000D03*
X288398000Y-76360000D03*
D10*
X297088000Y-67820000D03*
X297088000Y-69720000D03*
X302988000Y-67820000D03*
X302988000Y-69720000D03*
D11*
X294023000Y-78900000D03*
X307448000Y-76360000D03*
D10*
X97062000Y-86870000D03*
X97062000Y-88770000D03*
X102962000Y-86870000D03*
X102962000Y-88770000D03*
D11*
X93997000Y-97950000D03*
X107422000Y-95410000D03*
D10*
X116112000Y-86870000D03*
X116112000Y-88770000D03*
X122012000Y-86870000D03*
X122012000Y-88770000D03*
D11*
X113047000Y-97950000D03*
X126472000Y-95410000D03*
D10*
X135162000Y-86870000D03*
X135162000Y-88770000D03*
X141062000Y-86870000D03*
X141062000Y-88770000D03*
D11*
X132097000Y-97950000D03*
X145522000Y-95410000D03*
D10*
X154212000Y-86870000D03*
X154212000Y-88770000D03*
X160112000Y-86870000D03*
X160112000Y-88770000D03*
D11*
X151147000Y-97950000D03*
X164572000Y-95410000D03*
D10*
X173262000Y-86870000D03*
X173262000Y-88770000D03*
X179162000Y-86870000D03*
X179162000Y-88770000D03*
D11*
X170197000Y-97950000D03*
X183622000Y-95410000D03*
D10*
X192312000Y-86870000D03*
X192312000Y-88770000D03*
X198212000Y-86870000D03*
X198212000Y-88770000D03*
D11*
X189247000Y-97950000D03*
X202672000Y-95410000D03*
D10*
X211362000Y-86870000D03*
X211362000Y-88770000D03*
X217262000Y-86870000D03*
X217262000Y-88770000D03*
D11*
X208297000Y-97950000D03*
X221722000Y-95410000D03*
D10*
X230412000Y-86870000D03*
X230412000Y-88770000D03*
X236312000Y-86870000D03*
X236312000Y-88770000D03*
D11*
X227347000Y-97950000D03*
X240772000Y-95410000D03*
D10*
X249462000Y-86870000D03*
X249462000Y-88770000D03*
X255362000Y-86870000D03*
X255362000Y-88770000D03*
D11*
X246397000Y-97950000D03*
X259822000Y-95410000D03*
D10*
X268512000Y-86870000D03*
X268512000Y-88770000D03*
X274412000Y-86870000D03*
X274412000Y-88770000D03*
D11*
X265447000Y-97950000D03*
X278872000Y-95410000D03*
D10*
X287562000Y-86870000D03*
X287562000Y-88770000D03*
X293462000Y-86870000D03*
X293462000Y-88770000D03*
D11*
X284497000Y-97950000D03*
X297922000Y-95410000D03*
D10*
X306612000Y-86870000D03*
X306612000Y-88770000D03*
X312512000Y-86870000D03*
X312512000Y-88770000D03*
D11*
X303547000Y-97950000D03*
X316972000Y-95410000D03*
D10*
X101825000Y-105920000D03*
X101825000Y-107820000D03*
X107725000Y-105920000D03*
X107725000Y-107820000D03*
D11*
X98760000Y-117000000D03*
X112185000Y-114460000D03*
D10*
X120875000Y-105920000D03*
X120875000Y-107820000D03*
X126775000Y-105920000D03*
X126775000Y-107820000D03*
D11*
X117810000Y-117000000D03*
X131235000Y-114460000D03*
D10*
X139925000Y-105920000D03*
X139925000Y-107820000D03*
X145825000Y-105920000D03*
X145825000Y-107820000D03*
D11*
X136860000Y-117000000D03*
X150285000Y-114460000D03*
D10*
X158975000Y-105920000D03*
X158975000Y-107820000D03*
X164875000Y-105920000D03*
X164875000Y-107820000D03*
D11*
X155910000Y-117000000D03*
X169335000Y-114460000D03*
D10*
X178025000Y-105920000D03*
X178025000Y-107820000D03*
X183925000Y-105920000D03*
X183925000Y-107820000D03*
D11*
X174960000Y-117000000D03*
X188385000Y-114460000D03*
D10*
X197075000Y-105920000D03*
X197075000Y-107820000D03*
X202975000Y-105920000D03*
X202975000Y-107820000D03*
D11*
X194010000Y-117000000D03*
X207435000Y-114460000D03*
D10*
X216125000Y-105920000D03*
X216125000Y-107820000D03*
X222025000Y-105920000D03*
X222025000Y-107820000D03*
D11*
X213060000Y-117000000D03*
X226485000Y-114460000D03*
D10*
X235175000Y-105920000D03*
X235175000Y-107820000D03*
X241075000Y-105920000D03*
X241075000Y-107820000D03*
D11*
X232110000Y-117000000D03*
X245535000Y-114460000D03*
D10*
X254225000Y-105920000D03*
X254225000Y-107820000D03*
X260125000Y-105920000D03*
X260125000Y-107820000D03*
D11*
X251160000Y-117000000D03*
X264585000Y-114460000D03*
D10*
X273275000Y-105920000D03*
X273275000Y-107820000D03*
X279175000Y-105920000D03*
X279175000Y-107820000D03*
D11*
X270210000Y-117000000D03*
X283635000Y-114460000D03*
D10*
X292325000Y-105920000D03*
X292325000Y-107820000D03*
X298225000Y-105920000D03*
X298225000Y-107820000D03*
D11*
X289260000Y-117000000D03*
X302685000Y-114460000D03*
D10*
X111350000Y-124970000D03*
X111350000Y-126870000D03*
X117250000Y-124970000D03*
X117250000Y-126870000D03*
D11*
X108285000Y-136050000D03*
X121710000Y-133510000D03*
D10*
X130400000Y-124970000D03*
X130400000Y-126870000D03*
X136300000Y-124970000D03*
X136300000Y-126870000D03*
D11*
X127335000Y-136050000D03*
X140760000Y-133510000D03*
D10*
X149450000Y-124970000D03*
X149450000Y-126870000D03*
X155350000Y-124970000D03*
X155350000Y-126870000D03*
D11*
X146385000Y-136050000D03*
X159810000Y-133510000D03*
D10*
X168500000Y-124970000D03*
X168500000Y-126870000D03*
X174400000Y-124970000D03*
X174400000Y-126870000D03*
D11*
X165435000Y-136050000D03*
X178860000Y-133510000D03*
D10*
X187550000Y-124970000D03*
X187550000Y-126870000D03*
X193450000Y-124970000D03*
X193450000Y-126870000D03*
D11*
X184485000Y-136050000D03*
X197910000Y-133510000D03*
D10*
X206600000Y-124970000D03*
X206600000Y-126870000D03*
X212500000Y-124970000D03*
X212500000Y-126870000D03*
D11*
X203535000Y-136050000D03*
X216960000Y-133510000D03*
D10*
X225650000Y-124970000D03*
X225650000Y-126870000D03*
X231550000Y-124970000D03*
X231550000Y-126870000D03*
D11*
X222585000Y-136050000D03*
X236010000Y-133510000D03*
D10*
X244700000Y-124970000D03*
X244700000Y-126870000D03*
X250600000Y-124970000D03*
X250600000Y-126870000D03*
D11*
X241635000Y-136050000D03*
X255060000Y-133510000D03*
D10*
X263750000Y-124970000D03*
X263750000Y-126870000D03*
X269650000Y-124970000D03*
X269650000Y-126870000D03*
D11*
X260685000Y-136050000D03*
X274110000Y-133510000D03*
D10*
X282800000Y-124970000D03*
X282800000Y-126870000D03*
X288700000Y-124970000D03*
X288700000Y-126870000D03*
D11*
X279735000Y-136050000D03*
X293160000Y-133510000D03*
D10*
X68487500Y-44007500D03*
X68487500Y-45907500D03*
X74387500Y-44007500D03*
X74387500Y-45907500D03*
D11*
X65422500Y-55087500D03*
X78847500Y-52547500D03*
X116947500Y-52547500D03*
X103522500Y-55087500D03*
D10*
X112487500Y-45907500D03*
X112487500Y-44007500D03*
X106587500Y-45907500D03*
X106587500Y-44007500D03*
X125637500Y-44007500D03*
X125637500Y-45907500D03*
X131537500Y-44007500D03*
X131537500Y-45907500D03*
D11*
X122572500Y-55087500D03*
X135997500Y-52547500D03*
D10*
X163737500Y-44007500D03*
X163737500Y-45907500D03*
X169637500Y-44007500D03*
X169637500Y-45907500D03*
D11*
X160672500Y-55087500D03*
X174097500Y-52547500D03*
D10*
X192312500Y-44007500D03*
X192312500Y-45907500D03*
X198212500Y-44007500D03*
X198212500Y-45907500D03*
D11*
X189247500Y-55087500D03*
X202672500Y-52547500D03*
D10*
X211362500Y-44007500D03*
X211362500Y-45907500D03*
X217262500Y-44007500D03*
X217262500Y-45907500D03*
D11*
X208297500Y-55087500D03*
X221722500Y-52547500D03*
D10*
X230412500Y-44007500D03*
X230412500Y-45907500D03*
X236312500Y-44007500D03*
X236312500Y-45907500D03*
D11*
X227347500Y-55087500D03*
X240772500Y-52547500D03*
D10*
X249462500Y-44007500D03*
X249462500Y-45907500D03*
X255362500Y-44007500D03*
X255362500Y-45907500D03*
D11*
X246397500Y-55087500D03*
X259822500Y-52547500D03*
D10*
X278037500Y-44007500D03*
X278037500Y-45907500D03*
X283937500Y-44007500D03*
X283937500Y-45907500D03*
D11*
X274972500Y-55087500D03*
X288397500Y-52547500D03*
D10*
X297087500Y-44007500D03*
X297087500Y-45907500D03*
X302987500Y-44007500D03*
X302987500Y-45907500D03*
D11*
X294022500Y-55087500D03*
X307447500Y-52547500D03*
D10*
X359000000Y-44007500D03*
X359000000Y-45907500D03*
X364900000Y-44007500D03*
X364900000Y-45907500D03*
D11*
X355935000Y-55087500D03*
X369360000Y-52547500D03*
D10*
X359000000Y-67820000D03*
X359000000Y-69720000D03*
X364900000Y-67820000D03*
X364900000Y-69720000D03*
D11*
X355935000Y-78900000D03*
X369360000Y-76360000D03*
D10*
X359000000Y-86870000D03*
X359000000Y-88770000D03*
X364900000Y-86870000D03*
X364900000Y-88770000D03*
D11*
X355935000Y-97950000D03*
X369360000Y-95410000D03*
D10*
X359000000Y-144020000D03*
X359000000Y-145920000D03*
X364900000Y-144020000D03*
X364900000Y-145920000D03*
D11*
X355935000Y-155100000D03*
X369360000Y-152560000D03*
D10*
X378050000Y-44007500D03*
X378050000Y-45907500D03*
X383950000Y-44007500D03*
X383950000Y-45907500D03*
D11*
X374985000Y-55087500D03*
X388410000Y-52547500D03*
D10*
X378050000Y-67820000D03*
X378050000Y-69720000D03*
X383950000Y-67820000D03*
X383950000Y-69720000D03*
D11*
X374985000Y-78900000D03*
X388410000Y-76360000D03*
D10*
X378050000Y-86870000D03*
X378050000Y-88770000D03*
X383950000Y-86870000D03*
X383950000Y-88770000D03*
D11*
X374985000Y-97950000D03*
X388410000Y-95410000D03*
D10*
X182788000Y-67820000D03*
X182788000Y-69720000D03*
X188688000Y-67820000D03*
X188688000Y-69720000D03*
D11*
X179723000Y-78900000D03*
X193148000Y-76360000D03*
D10*
X378050000Y-144020000D03*
X378050000Y-145920000D03*
X383950000Y-144020000D03*
X383950000Y-145920000D03*
D11*
X374985000Y-155100000D03*
X388410000Y-152560000D03*
G36*
G01*
X226497500Y-70903000D02*
X226497500Y-71403000D01*
G75*
G02*
X226272500Y-71628000I-225000J0D01*
G01*
X225822500Y-71628000D01*
G75*
G02*
X225597500Y-71403000I0J225000D01*
G01*
X225597500Y-70903000D01*
G75*
G02*
X225822500Y-70678000I225000J0D01*
G01*
X226272500Y-70678000D01*
G75*
G02*
X226497500Y-70903000I0J-225000D01*
G01*
G37*
G36*
G01*
X228072500Y-70903000D02*
X228072500Y-71403000D01*
G75*
G02*
X227847500Y-71628000I-225000J0D01*
G01*
X227397500Y-71628000D01*
G75*
G02*
X227172500Y-71403000I0J225000D01*
G01*
X227172500Y-70903000D01*
G75*
G02*
X227397500Y-70678000I225000J0D01*
G01*
X227847500Y-70678000D01*
G75*
G02*
X228072500Y-70903000I0J-225000D01*
G01*
G37*
G36*
G01*
X403550000Y-147765000D02*
X403550000Y-147265000D01*
G75*
G02*
X403775000Y-147040000I225000J0D01*
G01*
X404225000Y-147040000D01*
G75*
G02*
X404450000Y-147265000I0J-225000D01*
G01*
X404450000Y-147765000D01*
G75*
G02*
X404225000Y-147990000I-225000J0D01*
G01*
X403775000Y-147990000D01*
G75*
G02*
X403550000Y-147765000I0J225000D01*
G01*
G37*
G36*
G01*
X402000000Y-147765000D02*
X402000000Y-147265000D01*
G75*
G02*
X402225000Y-147040000I225000J0D01*
G01*
X402675000Y-147040000D01*
G75*
G02*
X402900000Y-147265000I0J-225000D01*
G01*
X402900000Y-147765000D01*
G75*
G02*
X402675000Y-147990000I-225000J0D01*
G01*
X402225000Y-147990000D01*
G75*
G02*
X402000000Y-147765000I0J225000D01*
G01*
G37*
G36*
G01*
X385400000Y-147265000D02*
X385400000Y-147765000D01*
G75*
G02*
X385175000Y-147990000I-225000J0D01*
G01*
X384725000Y-147990000D01*
G75*
G02*
X384500000Y-147765000I0J225000D01*
G01*
X384500000Y-147265000D01*
G75*
G02*
X384725000Y-147040000I225000J0D01*
G01*
X385175000Y-147040000D01*
G75*
G02*
X385400000Y-147265000I0J-225000D01*
G01*
G37*
G36*
G01*
X383850000Y-147265000D02*
X383850000Y-147765000D01*
G75*
G02*
X383625000Y-147990000I-225000J0D01*
G01*
X383175000Y-147990000D01*
G75*
G02*
X382950000Y-147765000I0J225000D01*
G01*
X382950000Y-147265000D01*
G75*
G02*
X383175000Y-147040000I225000J0D01*
G01*
X383625000Y-147040000D01*
G75*
G02*
X383850000Y-147265000I0J-225000D01*
G01*
G37*
G36*
G01*
X364800000Y-146895000D02*
X364800000Y-147395000D01*
G75*
G02*
X364575000Y-147620000I-225000J0D01*
G01*
X364125000Y-147620000D01*
G75*
G02*
X363900000Y-147395000I0J225000D01*
G01*
X363900000Y-146895000D01*
G75*
G02*
X364125000Y-146670000I225000J0D01*
G01*
X364575000Y-146670000D01*
G75*
G02*
X364800000Y-146895000I0J-225000D01*
G01*
G37*
G36*
G01*
X366350000Y-146895000D02*
X366350000Y-147395000D01*
G75*
G02*
X366125000Y-147620000I-225000J0D01*
G01*
X365675000Y-147620000D01*
G75*
G02*
X365450000Y-147395000I0J225000D01*
G01*
X365450000Y-146895000D01*
G75*
G02*
X365675000Y-146670000I225000J0D01*
G01*
X366125000Y-146670000D01*
G75*
G02*
X366350000Y-146895000I0J-225000D01*
G01*
G37*
G36*
G01*
X382950000Y-128495000D02*
X382950000Y-127995000D01*
G75*
G02*
X383175000Y-127770000I225000J0D01*
G01*
X383625000Y-127770000D01*
G75*
G02*
X383850000Y-127995000I0J-225000D01*
G01*
X383850000Y-128495000D01*
G75*
G02*
X383625000Y-128720000I-225000J0D01*
G01*
X383175000Y-128720000D01*
G75*
G02*
X382950000Y-128495000I0J225000D01*
G01*
G37*
G36*
G01*
X384500000Y-128495000D02*
X384500000Y-127995000D01*
G75*
G02*
X384725000Y-127770000I225000J0D01*
G01*
X385175000Y-127770000D01*
G75*
G02*
X385400000Y-127995000I0J-225000D01*
G01*
X385400000Y-128495000D01*
G75*
G02*
X385175000Y-128720000I-225000J0D01*
G01*
X384725000Y-128720000D01*
G75*
G02*
X384500000Y-128495000I0J225000D01*
G01*
G37*
G36*
G01*
X385400000Y-89965000D02*
X385400000Y-90465000D01*
G75*
G02*
X385175000Y-90690000I-225000J0D01*
G01*
X384725000Y-90690000D01*
G75*
G02*
X384500000Y-90465000I0J225000D01*
G01*
X384500000Y-89965000D01*
G75*
G02*
X384725000Y-89740000I225000J0D01*
G01*
X385175000Y-89740000D01*
G75*
G02*
X385400000Y-89965000I0J-225000D01*
G01*
G37*
G36*
G01*
X383850000Y-89965000D02*
X383850000Y-90465000D01*
G75*
G02*
X383625000Y-90690000I-225000J0D01*
G01*
X383175000Y-90690000D01*
G75*
G02*
X382950000Y-90465000I0J225000D01*
G01*
X382950000Y-89965000D01*
G75*
G02*
X383175000Y-89740000I225000J0D01*
G01*
X383625000Y-89740000D01*
G75*
G02*
X383850000Y-89965000I0J-225000D01*
G01*
G37*
G36*
G01*
X383850000Y-70915000D02*
X383850000Y-71415000D01*
G75*
G02*
X383625000Y-71640000I-225000J0D01*
G01*
X383175000Y-71640000D01*
G75*
G02*
X382950000Y-71415000I0J225000D01*
G01*
X382950000Y-70915000D01*
G75*
G02*
X383175000Y-70690000I225000J0D01*
G01*
X383625000Y-70690000D01*
G75*
G02*
X383850000Y-70915000I0J-225000D01*
G01*
G37*
G36*
G01*
X385400000Y-70915000D02*
X385400000Y-71415000D01*
G75*
G02*
X385175000Y-71640000I-225000J0D01*
G01*
X384725000Y-71640000D01*
G75*
G02*
X384500000Y-71415000I0J225000D01*
G01*
X384500000Y-70915000D01*
G75*
G02*
X384725000Y-70690000I225000J0D01*
G01*
X385175000Y-70690000D01*
G75*
G02*
X385400000Y-70915000I0J-225000D01*
G01*
G37*
G36*
G01*
X363900000Y-90465000D02*
X363900000Y-89965000D01*
G75*
G02*
X364125000Y-89740000I225000J0D01*
G01*
X364575000Y-89740000D01*
G75*
G02*
X364800000Y-89965000I0J-225000D01*
G01*
X364800000Y-90465000D01*
G75*
G02*
X364575000Y-90690000I-225000J0D01*
G01*
X364125000Y-90690000D01*
G75*
G02*
X363900000Y-90465000I0J225000D01*
G01*
G37*
G36*
G01*
X365450000Y-90465000D02*
X365450000Y-89965000D01*
G75*
G02*
X365675000Y-89740000I225000J0D01*
G01*
X366125000Y-89740000D01*
G75*
G02*
X366350000Y-89965000I0J-225000D01*
G01*
X366350000Y-90465000D01*
G75*
G02*
X366125000Y-90690000I-225000J0D01*
G01*
X365675000Y-90690000D01*
G75*
G02*
X365450000Y-90465000I0J225000D01*
G01*
G37*
G36*
G01*
X403550000Y-90465000D02*
X403550000Y-89965000D01*
G75*
G02*
X403775000Y-89740000I225000J0D01*
G01*
X404225000Y-89740000D01*
G75*
G02*
X404450000Y-89965000I0J-225000D01*
G01*
X404450000Y-90465000D01*
G75*
G02*
X404225000Y-90690000I-225000J0D01*
G01*
X403775000Y-90690000D01*
G75*
G02*
X403550000Y-90465000I0J225000D01*
G01*
G37*
G36*
G01*
X402000000Y-90465000D02*
X402000000Y-89965000D01*
G75*
G02*
X402225000Y-89740000I225000J0D01*
G01*
X402675000Y-89740000D01*
G75*
G02*
X402900000Y-89965000I0J-225000D01*
G01*
X402900000Y-90465000D01*
G75*
G02*
X402675000Y-90690000I-225000J0D01*
G01*
X402225000Y-90690000D01*
G75*
G02*
X402000000Y-90465000I0J225000D01*
G01*
G37*
G36*
G01*
X402495000Y-71415000D02*
X402495000Y-70915000D01*
G75*
G02*
X402720000Y-70690000I225000J0D01*
G01*
X403170000Y-70690000D01*
G75*
G02*
X403395000Y-70915000I0J-225000D01*
G01*
X403395000Y-71415000D01*
G75*
G02*
X403170000Y-71640000I-225000J0D01*
G01*
X402720000Y-71640000D01*
G75*
G02*
X402495000Y-71415000I0J225000D01*
G01*
G37*
G36*
G01*
X404045000Y-71415000D02*
X404045000Y-70915000D01*
G75*
G02*
X404270000Y-70690000I225000J0D01*
G01*
X404720000Y-70690000D01*
G75*
G02*
X404945000Y-70915000I0J-225000D01*
G01*
X404945000Y-71415000D01*
G75*
G02*
X404720000Y-71640000I-225000J0D01*
G01*
X404270000Y-71640000D01*
G75*
G02*
X404045000Y-71415000I0J225000D01*
G01*
G37*
G36*
G01*
X365450000Y-71415000D02*
X365450000Y-70915000D01*
G75*
G02*
X365675000Y-70690000I225000J0D01*
G01*
X366125000Y-70690000D01*
G75*
G02*
X366350000Y-70915000I0J-225000D01*
G01*
X366350000Y-71415000D01*
G75*
G02*
X366125000Y-71640000I-225000J0D01*
G01*
X365675000Y-71640000D01*
G75*
G02*
X365450000Y-71415000I0J225000D01*
G01*
G37*
G36*
G01*
X363900000Y-71415000D02*
X363900000Y-70915000D01*
G75*
G02*
X364125000Y-70690000I225000J0D01*
G01*
X364575000Y-70690000D01*
G75*
G02*
X364800000Y-70915000I0J-225000D01*
G01*
X364800000Y-71415000D01*
G75*
G02*
X364575000Y-71640000I-225000J0D01*
G01*
X364125000Y-71640000D01*
G75*
G02*
X363900000Y-71415000I0J225000D01*
G01*
G37*
G36*
G01*
X403550000Y-47535000D02*
X403550000Y-47035000D01*
G75*
G02*
X403775000Y-46810000I225000J0D01*
G01*
X404225000Y-46810000D01*
G75*
G02*
X404450000Y-47035000I0J-225000D01*
G01*
X404450000Y-47535000D01*
G75*
G02*
X404225000Y-47760000I-225000J0D01*
G01*
X403775000Y-47760000D01*
G75*
G02*
X403550000Y-47535000I0J225000D01*
G01*
G37*
G36*
G01*
X402000000Y-47535000D02*
X402000000Y-47035000D01*
G75*
G02*
X402225000Y-46810000I225000J0D01*
G01*
X402675000Y-46810000D01*
G75*
G02*
X402900000Y-47035000I0J-225000D01*
G01*
X402900000Y-47535000D01*
G75*
G02*
X402675000Y-47760000I-225000J0D01*
G01*
X402225000Y-47760000D01*
G75*
G02*
X402000000Y-47535000I0J225000D01*
G01*
G37*
G36*
G01*
X385400000Y-47035000D02*
X385400000Y-47535000D01*
G75*
G02*
X385175000Y-47760000I-225000J0D01*
G01*
X384725000Y-47760000D01*
G75*
G02*
X384500000Y-47535000I0J225000D01*
G01*
X384500000Y-47035000D01*
G75*
G02*
X384725000Y-46810000I225000J0D01*
G01*
X385175000Y-46810000D01*
G75*
G02*
X385400000Y-47035000I0J-225000D01*
G01*
G37*
G36*
G01*
X383850000Y-47035000D02*
X383850000Y-47535000D01*
G75*
G02*
X383625000Y-47760000I-225000J0D01*
G01*
X383175000Y-47760000D01*
G75*
G02*
X382950000Y-47535000I0J225000D01*
G01*
X382950000Y-47035000D01*
G75*
G02*
X383175000Y-46810000I225000J0D01*
G01*
X383625000Y-46810000D01*
G75*
G02*
X383850000Y-47035000I0J-225000D01*
G01*
G37*
G36*
G01*
X363900000Y-47535000D02*
X363900000Y-47035000D01*
G75*
G02*
X364125000Y-46810000I225000J0D01*
G01*
X364575000Y-46810000D01*
G75*
G02*
X364800000Y-47035000I0J-225000D01*
G01*
X364800000Y-47535000D01*
G75*
G02*
X364575000Y-47760000I-225000J0D01*
G01*
X364125000Y-47760000D01*
G75*
G02*
X363900000Y-47535000I0J225000D01*
G01*
G37*
G36*
G01*
X365450000Y-47535000D02*
X365450000Y-47035000D01*
G75*
G02*
X365675000Y-46810000I225000J0D01*
G01*
X366125000Y-46810000D01*
G75*
G02*
X366350000Y-47035000I0J-225000D01*
G01*
X366350000Y-47535000D01*
G75*
G02*
X366125000Y-47760000I-225000J0D01*
G01*
X365675000Y-47760000D01*
G75*
G02*
X365450000Y-47535000I0J225000D01*
G01*
G37*
G36*
G01*
X340670000Y-47035000D02*
X340670000Y-47535000D01*
G75*
G02*
X340445000Y-47760000I-225000J0D01*
G01*
X339995000Y-47760000D01*
G75*
G02*
X339770000Y-47535000I0J225000D01*
G01*
X339770000Y-47035000D01*
G75*
G02*
X339995000Y-46810000I225000J0D01*
G01*
X340445000Y-46810000D01*
G75*
G02*
X340670000Y-47035000I0J-225000D01*
G01*
G37*
G36*
G01*
X342220000Y-47035000D02*
X342220000Y-47535000D01*
G75*
G02*
X341995000Y-47760000I-225000J0D01*
G01*
X341545000Y-47760000D01*
G75*
G02*
X341320000Y-47535000I0J225000D01*
G01*
X341320000Y-47035000D01*
G75*
G02*
X341545000Y-46810000I225000J0D01*
G01*
X341995000Y-46810000D01*
G75*
G02*
X342220000Y-47035000I0J-225000D01*
G01*
G37*
G36*
G01*
X322270000Y-47535000D02*
X322270000Y-47035000D01*
G75*
G02*
X322495000Y-46810000I225000J0D01*
G01*
X322945000Y-46810000D01*
G75*
G02*
X323170000Y-47035000I0J-225000D01*
G01*
X323170000Y-47535000D01*
G75*
G02*
X322945000Y-47760000I-225000J0D01*
G01*
X322495000Y-47760000D01*
G75*
G02*
X322270000Y-47535000I0J225000D01*
G01*
G37*
G36*
G01*
X320720000Y-47535000D02*
X320720000Y-47035000D01*
G75*
G02*
X320945000Y-46810000I225000J0D01*
G01*
X321395000Y-46810000D01*
G75*
G02*
X321620000Y-47035000I0J-225000D01*
G01*
X321620000Y-47535000D01*
G75*
G02*
X321395000Y-47760000I-225000J0D01*
G01*
X320945000Y-47760000D01*
G75*
G02*
X320720000Y-47535000I0J225000D01*
G01*
G37*
G36*
G01*
X304120000Y-47035000D02*
X304120000Y-47535000D01*
G75*
G02*
X303895000Y-47760000I-225000J0D01*
G01*
X303445000Y-47760000D01*
G75*
G02*
X303220000Y-47535000I0J225000D01*
G01*
X303220000Y-47035000D01*
G75*
G02*
X303445000Y-46810000I225000J0D01*
G01*
X303895000Y-46810000D01*
G75*
G02*
X304120000Y-47035000I0J-225000D01*
G01*
G37*
G36*
G01*
X302570000Y-47035000D02*
X302570000Y-47535000D01*
G75*
G02*
X302345000Y-47760000I-225000J0D01*
G01*
X301895000Y-47760000D01*
G75*
G02*
X301670000Y-47535000I0J225000D01*
G01*
X301670000Y-47035000D01*
G75*
G02*
X301895000Y-46810000I225000J0D01*
G01*
X302345000Y-46810000D01*
G75*
G02*
X302570000Y-47035000I0J-225000D01*
G01*
G37*
G36*
G01*
X282620000Y-47535000D02*
X282620000Y-47035000D01*
G75*
G02*
X282845000Y-46810000I225000J0D01*
G01*
X283295000Y-46810000D01*
G75*
G02*
X283520000Y-47035000I0J-225000D01*
G01*
X283520000Y-47535000D01*
G75*
G02*
X283295000Y-47760000I-225000J0D01*
G01*
X282845000Y-47760000D01*
G75*
G02*
X282620000Y-47535000I0J225000D01*
G01*
G37*
G36*
G01*
X284170000Y-47535000D02*
X284170000Y-47035000D01*
G75*
G02*
X284395000Y-46810000I225000J0D01*
G01*
X284845000Y-46810000D01*
G75*
G02*
X285070000Y-47035000I0J-225000D01*
G01*
X285070000Y-47535000D01*
G75*
G02*
X284845000Y-47760000I-225000J0D01*
G01*
X284395000Y-47760000D01*
G75*
G02*
X284170000Y-47535000I0J225000D01*
G01*
G37*
G36*
G01*
X255580000Y-47035000D02*
X255580000Y-47535000D01*
G75*
G02*
X255355000Y-47760000I-225000J0D01*
G01*
X254905000Y-47760000D01*
G75*
G02*
X254680000Y-47535000I0J225000D01*
G01*
X254680000Y-47035000D01*
G75*
G02*
X254905000Y-46810000I225000J0D01*
G01*
X255355000Y-46810000D01*
G75*
G02*
X255580000Y-47035000I0J-225000D01*
G01*
G37*
G36*
G01*
X257130000Y-47035000D02*
X257130000Y-47535000D01*
G75*
G02*
X256905000Y-47760000I-225000J0D01*
G01*
X256455000Y-47760000D01*
G75*
G02*
X256230000Y-47535000I0J225000D01*
G01*
X256230000Y-47035000D01*
G75*
G02*
X256455000Y-46810000I225000J0D01*
G01*
X256905000Y-46810000D01*
G75*
G02*
X257130000Y-47035000I0J-225000D01*
G01*
G37*
G36*
G01*
X237180000Y-47535000D02*
X237180000Y-47035000D01*
G75*
G02*
X237405000Y-46810000I225000J0D01*
G01*
X237855000Y-46810000D01*
G75*
G02*
X238080000Y-47035000I0J-225000D01*
G01*
X238080000Y-47535000D01*
G75*
G02*
X237855000Y-47760000I-225000J0D01*
G01*
X237405000Y-47760000D01*
G75*
G02*
X237180000Y-47535000I0J225000D01*
G01*
G37*
G36*
G01*
X235630000Y-47535000D02*
X235630000Y-47035000D01*
G75*
G02*
X235855000Y-46810000I225000J0D01*
G01*
X236305000Y-46810000D01*
G75*
G02*
X236530000Y-47035000I0J-225000D01*
G01*
X236530000Y-47535000D01*
G75*
G02*
X236305000Y-47760000I-225000J0D01*
G01*
X235855000Y-47760000D01*
G75*
G02*
X235630000Y-47535000I0J225000D01*
G01*
G37*
G36*
G01*
X219030000Y-47035000D02*
X219030000Y-47535000D01*
G75*
G02*
X218805000Y-47760000I-225000J0D01*
G01*
X218355000Y-47760000D01*
G75*
G02*
X218130000Y-47535000I0J225000D01*
G01*
X218130000Y-47035000D01*
G75*
G02*
X218355000Y-46810000I225000J0D01*
G01*
X218805000Y-46810000D01*
G75*
G02*
X219030000Y-47035000I0J-225000D01*
G01*
G37*
G36*
G01*
X217480000Y-47035000D02*
X217480000Y-47535000D01*
G75*
G02*
X217255000Y-47760000I-225000J0D01*
G01*
X216805000Y-47760000D01*
G75*
G02*
X216580000Y-47535000I0J225000D01*
G01*
X216580000Y-47035000D01*
G75*
G02*
X216805000Y-46810000I225000J0D01*
G01*
X217255000Y-46810000D01*
G75*
G02*
X217480000Y-47035000I0J-225000D01*
G01*
G37*
G36*
G01*
X197030000Y-47535000D02*
X197030000Y-47035000D01*
G75*
G02*
X197255000Y-46810000I225000J0D01*
G01*
X197705000Y-46810000D01*
G75*
G02*
X197930000Y-47035000I0J-225000D01*
G01*
X197930000Y-47535000D01*
G75*
G02*
X197705000Y-47760000I-225000J0D01*
G01*
X197255000Y-47760000D01*
G75*
G02*
X197030000Y-47535000I0J225000D01*
G01*
G37*
G36*
G01*
X198580000Y-47535000D02*
X198580000Y-47035000D01*
G75*
G02*
X198805000Y-46810000I225000J0D01*
G01*
X199255000Y-46810000D01*
G75*
G02*
X199480000Y-47035000I0J-225000D01*
G01*
X199480000Y-47535000D01*
G75*
G02*
X199255000Y-47760000I-225000J0D01*
G01*
X198805000Y-47760000D01*
G75*
G02*
X198580000Y-47535000I0J225000D01*
G01*
G37*
G36*
G01*
X169220000Y-47035000D02*
X169220000Y-47535000D01*
G75*
G02*
X168995000Y-47760000I-225000J0D01*
G01*
X168545000Y-47760000D01*
G75*
G02*
X168320000Y-47535000I0J225000D01*
G01*
X168320000Y-47035000D01*
G75*
G02*
X168545000Y-46810000I225000J0D01*
G01*
X168995000Y-46810000D01*
G75*
G02*
X169220000Y-47035000I0J-225000D01*
G01*
G37*
G36*
G01*
X170770000Y-47035000D02*
X170770000Y-47535000D01*
G75*
G02*
X170545000Y-47760000I-225000J0D01*
G01*
X170095000Y-47760000D01*
G75*
G02*
X169870000Y-47535000I0J225000D01*
G01*
X169870000Y-47035000D01*
G75*
G02*
X170095000Y-46810000I225000J0D01*
G01*
X170545000Y-46810000D01*
G75*
G02*
X170770000Y-47035000I0J-225000D01*
G01*
G37*
G36*
G01*
X132670000Y-47035000D02*
X132670000Y-47535000D01*
G75*
G02*
X132445000Y-47760000I-225000J0D01*
G01*
X131995000Y-47760000D01*
G75*
G02*
X131770000Y-47535000I0J225000D01*
G01*
X131770000Y-47035000D01*
G75*
G02*
X131995000Y-46810000I225000J0D01*
G01*
X132445000Y-46810000D01*
G75*
G02*
X132670000Y-47035000I0J-225000D01*
G01*
G37*
G36*
G01*
X131120000Y-47035000D02*
X131120000Y-47535000D01*
G75*
G02*
X130895000Y-47760000I-225000J0D01*
G01*
X130445000Y-47760000D01*
G75*
G02*
X130220000Y-47535000I0J225000D01*
G01*
X130220000Y-47035000D01*
G75*
G02*
X130445000Y-46810000I225000J0D01*
G01*
X130895000Y-46810000D01*
G75*
G02*
X131120000Y-47035000I0J-225000D01*
G01*
G37*
G36*
G01*
X150820000Y-47535000D02*
X150820000Y-47035000D01*
G75*
G02*
X151045000Y-46810000I225000J0D01*
G01*
X151495000Y-46810000D01*
G75*
G02*
X151720000Y-47035000I0J-225000D01*
G01*
X151720000Y-47535000D01*
G75*
G02*
X151495000Y-47760000I-225000J0D01*
G01*
X151045000Y-47760000D01*
G75*
G02*
X150820000Y-47535000I0J225000D01*
G01*
G37*
G36*
G01*
X149270000Y-47535000D02*
X149270000Y-47035000D01*
G75*
G02*
X149495000Y-46810000I225000J0D01*
G01*
X149945000Y-46810000D01*
G75*
G02*
X150170000Y-47035000I0J-225000D01*
G01*
X150170000Y-47535000D01*
G75*
G02*
X149945000Y-47760000I-225000J0D01*
G01*
X149495000Y-47760000D01*
G75*
G02*
X149270000Y-47535000I0J225000D01*
G01*
G37*
G36*
G01*
X111665000Y-47535000D02*
X111665000Y-47035000D01*
G75*
G02*
X111890000Y-46810000I225000J0D01*
G01*
X112340000Y-46810000D01*
G75*
G02*
X112565000Y-47035000I0J-225000D01*
G01*
X112565000Y-47535000D01*
G75*
G02*
X112340000Y-47760000I-225000J0D01*
G01*
X111890000Y-47760000D01*
G75*
G02*
X111665000Y-47535000I0J225000D01*
G01*
G37*
G36*
G01*
X113215000Y-47535000D02*
X113215000Y-47035000D01*
G75*
G02*
X113440000Y-46810000I225000J0D01*
G01*
X113890000Y-46810000D01*
G75*
G02*
X114115000Y-47035000I0J-225000D01*
G01*
X114115000Y-47535000D01*
G75*
G02*
X113890000Y-47760000I-225000J0D01*
G01*
X113440000Y-47760000D01*
G75*
G02*
X113215000Y-47535000I0J225000D01*
G01*
G37*
G36*
G01*
X73970000Y-47035000D02*
X73970000Y-47535000D01*
G75*
G02*
X73745000Y-47760000I-225000J0D01*
G01*
X73295000Y-47760000D01*
G75*
G02*
X73070000Y-47535000I0J225000D01*
G01*
X73070000Y-47035000D01*
G75*
G02*
X73295000Y-46810000I225000J0D01*
G01*
X73745000Y-46810000D01*
G75*
G02*
X73970000Y-47035000I0J-225000D01*
G01*
G37*
G36*
G01*
X75520000Y-47035000D02*
X75520000Y-47535000D01*
G75*
G02*
X75295000Y-47760000I-225000J0D01*
G01*
X74845000Y-47760000D01*
G75*
G02*
X74620000Y-47535000I0J225000D01*
G01*
X74620000Y-47035000D01*
G75*
G02*
X74845000Y-46810000I225000J0D01*
G01*
X75295000Y-46810000D01*
G75*
G02*
X75520000Y-47035000I0J-225000D01*
G01*
G37*
D15*
X391795000Y-146465000D03*
X391795000Y-149765000D03*
X389255000Y-146465000D03*
X389255000Y-149765000D03*
X372075000Y-152815000D03*
X372075000Y-156115000D03*
X391795000Y-133765000D03*
X391795000Y-137065000D03*
D16*
X407415000Y-101125000D03*
X404115000Y-101125000D03*
X389635000Y-101125000D03*
X386335000Y-101125000D03*
X370585000Y-101125000D03*
X367285000Y-101125000D03*
X407415000Y-82202000D03*
X404115000Y-82202000D03*
X389635000Y-82202000D03*
X386335000Y-82202000D03*
X370585000Y-82202000D03*
X367285000Y-82202000D03*
X407795000Y-58675000D03*
X404495000Y-58675000D03*
X388365000Y-58675000D03*
X385065000Y-58675000D03*
X370585000Y-58675000D03*
X367285000Y-58675000D03*
X346455000Y-58675000D03*
X343155000Y-58675000D03*
X327405000Y-58675000D03*
X324105000Y-58675000D03*
X308355000Y-58675000D03*
X305055000Y-58675000D03*
X289305000Y-58675000D03*
X286005000Y-58675000D03*
X260985000Y-58675000D03*
X257685000Y-58675000D03*
X242315000Y-58675000D03*
X239015000Y-58675000D03*
X223265000Y-58675000D03*
X219965000Y-58675000D03*
X204215000Y-58675000D03*
X200915000Y-58675000D03*
X174505000Y-58675000D03*
X171205000Y-58675000D03*
X154955000Y-58675000D03*
X151655000Y-58675000D03*
X136905000Y-58715000D03*
X133605000Y-58715000D03*
X114555000Y-57945000D03*
X117855000Y-57945000D03*
X79755000Y-57945000D03*
X76455000Y-57945000D03*
G36*
G01*
X78796000Y-89953000D02*
X78796000Y-90453000D01*
G75*
G02*
X78571000Y-90678000I-225000J0D01*
G01*
X78121000Y-90678000D01*
G75*
G02*
X77896000Y-90453000I0J225000D01*
G01*
X77896000Y-89953000D01*
G75*
G02*
X78121000Y-89728000I225000J0D01*
G01*
X78571000Y-89728000D01*
G75*
G02*
X78796000Y-89953000I0J-225000D01*
G01*
G37*
G36*
G01*
X80346000Y-89953000D02*
X80346000Y-90453000D01*
G75*
G02*
X80121000Y-90678000I-225000J0D01*
G01*
X79671000Y-90678000D01*
G75*
G02*
X79446000Y-90453000I0J225000D01*
G01*
X79446000Y-89953000D01*
G75*
G02*
X79671000Y-89728000I225000J0D01*
G01*
X80121000Y-89728000D01*
G75*
G02*
X80346000Y-89953000I0J-225000D01*
G01*
G37*
G36*
G01*
X236035000Y-89953000D02*
X236035000Y-90453000D01*
G75*
G02*
X235810000Y-90678000I-225000J0D01*
G01*
X235360000Y-90678000D01*
G75*
G02*
X235135000Y-90453000I0J225000D01*
G01*
X235135000Y-89953000D01*
G75*
G02*
X235360000Y-89728000I225000J0D01*
G01*
X235810000Y-89728000D01*
G75*
G02*
X236035000Y-89953000I0J-225000D01*
G01*
G37*
G36*
G01*
X237585000Y-89953000D02*
X237585000Y-90453000D01*
G75*
G02*
X237360000Y-90678000I-225000J0D01*
G01*
X236910000Y-90678000D01*
G75*
G02*
X236685000Y-90453000I0J225000D01*
G01*
X236685000Y-89953000D01*
G75*
G02*
X236910000Y-89728000I225000J0D01*
G01*
X237360000Y-89728000D01*
G75*
G02*
X237585000Y-89953000I0J-225000D01*
G01*
G37*
G36*
G01*
X255085000Y-89953000D02*
X255085000Y-90453000D01*
G75*
G02*
X254860000Y-90678000I-225000J0D01*
G01*
X254410000Y-90678000D01*
G75*
G02*
X254185000Y-90453000I0J225000D01*
G01*
X254185000Y-89953000D01*
G75*
G02*
X254410000Y-89728000I225000J0D01*
G01*
X254860000Y-89728000D01*
G75*
G02*
X255085000Y-89953000I0J-225000D01*
G01*
G37*
G36*
G01*
X256635000Y-89953000D02*
X256635000Y-90453000D01*
G75*
G02*
X256410000Y-90678000I-225000J0D01*
G01*
X255960000Y-90678000D01*
G75*
G02*
X255735000Y-90453000I0J225000D01*
G01*
X255735000Y-89953000D01*
G75*
G02*
X255960000Y-89728000I225000J0D01*
G01*
X256410000Y-89728000D01*
G75*
G02*
X256635000Y-89953000I0J-225000D01*
G01*
G37*
G36*
G01*
X264584000Y-70903000D02*
X264584000Y-71403000D01*
G75*
G02*
X264359000Y-71628000I-225000J0D01*
G01*
X263909000Y-71628000D01*
G75*
G02*
X263684000Y-71403000I0J225000D01*
G01*
X263684000Y-70903000D01*
G75*
G02*
X263909000Y-70678000I225000J0D01*
G01*
X264359000Y-70678000D01*
G75*
G02*
X264584000Y-70903000I0J-225000D01*
G01*
G37*
G36*
G01*
X266134000Y-70903000D02*
X266134000Y-71403000D01*
G75*
G02*
X265909000Y-71628000I-225000J0D01*
G01*
X265459000Y-71628000D01*
G75*
G02*
X265234000Y-71403000I0J225000D01*
G01*
X265234000Y-70903000D01*
G75*
G02*
X265459000Y-70678000I225000J0D01*
G01*
X265909000Y-70678000D01*
G75*
G02*
X266134000Y-70903000I0J-225000D01*
G01*
G37*
G36*
G01*
X202761000Y-109003000D02*
X202761000Y-109503000D01*
G75*
G02*
X202536000Y-109728000I-225000J0D01*
G01*
X202086000Y-109728000D01*
G75*
G02*
X201861000Y-109503000I0J225000D01*
G01*
X201861000Y-109003000D01*
G75*
G02*
X202086000Y-108778000I225000J0D01*
G01*
X202536000Y-108778000D01*
G75*
G02*
X202761000Y-109003000I0J-225000D01*
G01*
G37*
G36*
G01*
X204311000Y-109003000D02*
X204311000Y-109503000D01*
G75*
G02*
X204086000Y-109728000I-225000J0D01*
G01*
X203636000Y-109728000D01*
G75*
G02*
X203411000Y-109503000I0J225000D01*
G01*
X203411000Y-109003000D01*
G75*
G02*
X203636000Y-108778000I225000J0D01*
G01*
X204086000Y-108778000D01*
G75*
G02*
X204311000Y-109003000I0J-225000D01*
G01*
G37*
G36*
G01*
X245534000Y-70903000D02*
X245534000Y-71403000D01*
G75*
G02*
X245309000Y-71628000I-225000J0D01*
G01*
X244859000Y-71628000D01*
G75*
G02*
X244634000Y-71403000I0J225000D01*
G01*
X244634000Y-70903000D01*
G75*
G02*
X244859000Y-70678000I225000J0D01*
G01*
X245309000Y-70678000D01*
G75*
G02*
X245534000Y-70903000I0J-225000D01*
G01*
G37*
G36*
G01*
X247084000Y-70903000D02*
X247084000Y-71403000D01*
G75*
G02*
X246859000Y-71628000I-225000J0D01*
G01*
X246409000Y-71628000D01*
G75*
G02*
X246184000Y-71403000I0J225000D01*
G01*
X246184000Y-70903000D01*
G75*
G02*
X246409000Y-70678000I225000J0D01*
G01*
X246859000Y-70678000D01*
G75*
G02*
X247084000Y-70903000I0J-225000D01*
G01*
G37*
G36*
G01*
X331259000Y-71030000D02*
X331259000Y-71530000D01*
G75*
G02*
X331034000Y-71755000I-225000J0D01*
G01*
X330584000Y-71755000D01*
G75*
G02*
X330359000Y-71530000I0J225000D01*
G01*
X330359000Y-71030000D01*
G75*
G02*
X330584000Y-70805000I225000J0D01*
G01*
X331034000Y-70805000D01*
G75*
G02*
X331259000Y-71030000I0J-225000D01*
G01*
G37*
G36*
G01*
X332809000Y-71030000D02*
X332809000Y-71530000D01*
G75*
G02*
X332584000Y-71755000I-225000J0D01*
G01*
X332134000Y-71755000D01*
G75*
G02*
X331909000Y-71530000I0J225000D01*
G01*
X331909000Y-71030000D01*
G75*
G02*
X332134000Y-70805000I225000J0D01*
G01*
X332584000Y-70805000D01*
G75*
G02*
X332809000Y-71030000I0J-225000D01*
G01*
G37*
G36*
G01*
X217112000Y-89953000D02*
X217112000Y-90453000D01*
G75*
G02*
X216887000Y-90678000I-225000J0D01*
G01*
X216437000Y-90678000D01*
G75*
G02*
X216212000Y-90453000I0J225000D01*
G01*
X216212000Y-89953000D01*
G75*
G02*
X216437000Y-89728000I225000J0D01*
G01*
X216887000Y-89728000D01*
G75*
G02*
X217112000Y-89953000I0J-225000D01*
G01*
G37*
G36*
G01*
X218662000Y-89953000D02*
X218662000Y-90453000D01*
G75*
G02*
X218437000Y-90678000I-225000J0D01*
G01*
X217987000Y-90678000D01*
G75*
G02*
X217762000Y-90453000I0J225000D01*
G01*
X217762000Y-89953000D01*
G75*
G02*
X217987000Y-89728000I225000J0D01*
G01*
X218437000Y-89728000D01*
G75*
G02*
X218662000Y-89953000I0J-225000D01*
G01*
G37*
G36*
G01*
X283634000Y-70903000D02*
X283634000Y-71403000D01*
G75*
G02*
X283409000Y-71628000I-225000J0D01*
G01*
X282959000Y-71628000D01*
G75*
G02*
X282734000Y-71403000I0J225000D01*
G01*
X282734000Y-70903000D01*
G75*
G02*
X282959000Y-70678000I225000J0D01*
G01*
X283409000Y-70678000D01*
G75*
G02*
X283634000Y-70903000I0J-225000D01*
G01*
G37*
G36*
G01*
X285184000Y-70903000D02*
X285184000Y-71403000D01*
G75*
G02*
X284959000Y-71628000I-225000J0D01*
G01*
X284509000Y-71628000D01*
G75*
G02*
X284284000Y-71403000I0J225000D01*
G01*
X284284000Y-70903000D01*
G75*
G02*
X284509000Y-70678000I225000J0D01*
G01*
X284959000Y-70678000D01*
G75*
G02*
X285184000Y-70903000I0J-225000D01*
G01*
G37*
G36*
G01*
X197935000Y-89953000D02*
X197935000Y-90453000D01*
G75*
G02*
X197710000Y-90678000I-225000J0D01*
G01*
X197260000Y-90678000D01*
G75*
G02*
X197035000Y-90453000I0J225000D01*
G01*
X197035000Y-89953000D01*
G75*
G02*
X197260000Y-89728000I225000J0D01*
G01*
X197710000Y-89728000D01*
G75*
G02*
X197935000Y-89953000I0J-225000D01*
G01*
G37*
G36*
G01*
X199485000Y-89953000D02*
X199485000Y-90453000D01*
G75*
G02*
X199260000Y-90678000I-225000J0D01*
G01*
X198810000Y-90678000D01*
G75*
G02*
X198585000Y-90453000I0J225000D01*
G01*
X198585000Y-89953000D01*
G75*
G02*
X198810000Y-89728000I225000J0D01*
G01*
X199260000Y-89728000D01*
G75*
G02*
X199485000Y-89953000I0J-225000D01*
G01*
G37*
G36*
G01*
X185261000Y-109003000D02*
X185261000Y-109503000D01*
G75*
G02*
X185036000Y-109728000I-225000J0D01*
G01*
X184586000Y-109728000D01*
G75*
G02*
X184361000Y-109503000I0J225000D01*
G01*
X184361000Y-109003000D01*
G75*
G02*
X184586000Y-108778000I225000J0D01*
G01*
X185036000Y-108778000D01*
G75*
G02*
X185261000Y-109003000I0J-225000D01*
G01*
G37*
G36*
G01*
X183711000Y-109003000D02*
X183711000Y-109503000D01*
G75*
G02*
X183486000Y-109728000I-225000J0D01*
G01*
X183036000Y-109728000D01*
G75*
G02*
X182811000Y-109503000I0J225000D01*
G01*
X182811000Y-109003000D01*
G75*
G02*
X183036000Y-108778000I225000J0D01*
G01*
X183486000Y-108778000D01*
G75*
G02*
X183711000Y-109003000I0J-225000D01*
G01*
G37*
G36*
G01*
X221684000Y-109003000D02*
X221684000Y-109503000D01*
G75*
G02*
X221459000Y-109728000I-225000J0D01*
G01*
X221009000Y-109728000D01*
G75*
G02*
X220784000Y-109503000I0J225000D01*
G01*
X220784000Y-109003000D01*
G75*
G02*
X221009000Y-108778000I225000J0D01*
G01*
X221459000Y-108778000D01*
G75*
G02*
X221684000Y-109003000I0J-225000D01*
G01*
G37*
G36*
G01*
X223234000Y-109003000D02*
X223234000Y-109503000D01*
G75*
G02*
X223009000Y-109728000I-225000J0D01*
G01*
X222559000Y-109728000D01*
G75*
G02*
X222334000Y-109503000I0J225000D01*
G01*
X222334000Y-109003000D01*
G75*
G02*
X222559000Y-108778000I225000J0D01*
G01*
X223009000Y-108778000D01*
G75*
G02*
X223234000Y-109003000I0J-225000D01*
G01*
G37*
G36*
G01*
X302684000Y-71030000D02*
X302684000Y-71530000D01*
G75*
G02*
X302459000Y-71755000I-225000J0D01*
G01*
X302009000Y-71755000D01*
G75*
G02*
X301784000Y-71530000I0J225000D01*
G01*
X301784000Y-71030000D01*
G75*
G02*
X302009000Y-70805000I225000J0D01*
G01*
X302459000Y-70805000D01*
G75*
G02*
X302684000Y-71030000I0J-225000D01*
G01*
G37*
G36*
G01*
X304234000Y-71030000D02*
X304234000Y-71530000D01*
G75*
G02*
X304009000Y-71755000I-225000J0D01*
G01*
X303559000Y-71755000D01*
G75*
G02*
X303334000Y-71530000I0J225000D01*
G01*
X303334000Y-71030000D01*
G75*
G02*
X303559000Y-70805000I225000J0D01*
G01*
X304009000Y-70805000D01*
G75*
G02*
X304234000Y-71030000I0J-225000D01*
G01*
G37*
G36*
G01*
X159835000Y-89953000D02*
X159835000Y-90453000D01*
G75*
G02*
X159610000Y-90678000I-225000J0D01*
G01*
X159160000Y-90678000D01*
G75*
G02*
X158935000Y-90453000I0J225000D01*
G01*
X158935000Y-89953000D01*
G75*
G02*
X159160000Y-89728000I225000J0D01*
G01*
X159610000Y-89728000D01*
G75*
G02*
X159835000Y-89953000I0J-225000D01*
G01*
G37*
G36*
G01*
X161385000Y-89953000D02*
X161385000Y-90453000D01*
G75*
G02*
X161160000Y-90678000I-225000J0D01*
G01*
X160710000Y-90678000D01*
G75*
G02*
X160485000Y-90453000I0J225000D01*
G01*
X160485000Y-89953000D01*
G75*
G02*
X160710000Y-89728000I225000J0D01*
G01*
X161160000Y-89728000D01*
G75*
G02*
X161385000Y-89953000I0J-225000D01*
G01*
G37*
G36*
G01*
X112184000Y-70903000D02*
X112184000Y-71403000D01*
G75*
G02*
X111959000Y-71628000I-225000J0D01*
G01*
X111509000Y-71628000D01*
G75*
G02*
X111284000Y-71403000I0J225000D01*
G01*
X111284000Y-70903000D01*
G75*
G02*
X111509000Y-70678000I225000J0D01*
G01*
X111959000Y-70678000D01*
G75*
G02*
X112184000Y-70903000I0J-225000D01*
G01*
G37*
G36*
G01*
X113734000Y-70903000D02*
X113734000Y-71403000D01*
G75*
G02*
X113509000Y-71628000I-225000J0D01*
G01*
X113059000Y-71628000D01*
G75*
G02*
X112834000Y-71403000I0J225000D01*
G01*
X112834000Y-70903000D01*
G75*
G02*
X113059000Y-70678000I225000J0D01*
G01*
X113509000Y-70678000D01*
G75*
G02*
X113734000Y-70903000I0J-225000D01*
G01*
G37*
G36*
G01*
X145484000Y-109003000D02*
X145484000Y-109503000D01*
G75*
G02*
X145259000Y-109728000I-225000J0D01*
G01*
X144809000Y-109728000D01*
G75*
G02*
X144584000Y-109503000I0J225000D01*
G01*
X144584000Y-109003000D01*
G75*
G02*
X144809000Y-108778000I225000J0D01*
G01*
X145259000Y-108778000D01*
G75*
G02*
X145484000Y-109003000I0J-225000D01*
G01*
G37*
G36*
G01*
X147034000Y-109003000D02*
X147034000Y-109503000D01*
G75*
G02*
X146809000Y-109728000I-225000J0D01*
G01*
X146359000Y-109728000D01*
G75*
G02*
X146134000Y-109503000I0J225000D01*
G01*
X146134000Y-109003000D01*
G75*
G02*
X146359000Y-108778000I225000J0D01*
G01*
X146809000Y-108778000D01*
G75*
G02*
X147034000Y-109003000I0J-225000D01*
G01*
G37*
G36*
G01*
X179522000Y-90534000D02*
X179522000Y-90034000D01*
G75*
G02*
X179747000Y-89809000I225000J0D01*
G01*
X180197000Y-89809000D01*
G75*
G02*
X180422000Y-90034000I0J-225000D01*
G01*
X180422000Y-90534000D01*
G75*
G02*
X180197000Y-90759000I-225000J0D01*
G01*
X179747000Y-90759000D01*
G75*
G02*
X179522000Y-90534000I0J225000D01*
G01*
G37*
G36*
G01*
X177972000Y-90534000D02*
X177972000Y-90034000D01*
G75*
G02*
X178197000Y-89809000I225000J0D01*
G01*
X178647000Y-89809000D01*
G75*
G02*
X178872000Y-90034000I0J-225000D01*
G01*
X178872000Y-90534000D01*
G75*
G02*
X178647000Y-90759000I-225000J0D01*
G01*
X178197000Y-90759000D01*
G75*
G02*
X177972000Y-90534000I0J225000D01*
G01*
G37*
G36*
G01*
X240861000Y-109130000D02*
X240861000Y-109630000D01*
G75*
G02*
X240636000Y-109855000I-225000J0D01*
G01*
X240186000Y-109855000D01*
G75*
G02*
X239961000Y-109630000I0J225000D01*
G01*
X239961000Y-109130000D01*
G75*
G02*
X240186000Y-108905000I225000J0D01*
G01*
X240636000Y-108905000D01*
G75*
G02*
X240861000Y-109130000I0J-225000D01*
G01*
G37*
G36*
G01*
X242411000Y-109130000D02*
X242411000Y-109630000D01*
G75*
G02*
X242186000Y-109855000I-225000J0D01*
G01*
X241736000Y-109855000D01*
G75*
G02*
X241511000Y-109630000I0J225000D01*
G01*
X241511000Y-109130000D01*
G75*
G02*
X241736000Y-108905000I225000J0D01*
G01*
X242186000Y-108905000D01*
G75*
G02*
X242411000Y-109130000I0J-225000D01*
G01*
G37*
G36*
G01*
X259911000Y-109130000D02*
X259911000Y-109630000D01*
G75*
G02*
X259686000Y-109855000I-225000J0D01*
G01*
X259236000Y-109855000D01*
G75*
G02*
X259011000Y-109630000I0J225000D01*
G01*
X259011000Y-109130000D01*
G75*
G02*
X259236000Y-108905000I225000J0D01*
G01*
X259686000Y-108905000D01*
G75*
G02*
X259911000Y-109130000I0J-225000D01*
G01*
G37*
G36*
G01*
X261461000Y-109130000D02*
X261461000Y-109630000D01*
G75*
G02*
X261236000Y-109855000I-225000J0D01*
G01*
X260786000Y-109855000D01*
G75*
G02*
X260561000Y-109630000I0J225000D01*
G01*
X260561000Y-109130000D01*
G75*
G02*
X260786000Y-108905000I225000J0D01*
G01*
X261236000Y-108905000D01*
G75*
G02*
X261461000Y-109130000I0J-225000D01*
G01*
G37*
G36*
G01*
X207434000Y-70903000D02*
X207434000Y-71403000D01*
G75*
G02*
X207209000Y-71628000I-225000J0D01*
G01*
X206759000Y-71628000D01*
G75*
G02*
X206534000Y-71403000I0J225000D01*
G01*
X206534000Y-70903000D01*
G75*
G02*
X206759000Y-70678000I225000J0D01*
G01*
X207209000Y-70678000D01*
G75*
G02*
X207434000Y-70903000I0J-225000D01*
G01*
G37*
G36*
G01*
X208984000Y-70903000D02*
X208984000Y-71403000D01*
G75*
G02*
X208759000Y-71628000I-225000J0D01*
G01*
X208309000Y-71628000D01*
G75*
G02*
X208084000Y-71403000I0J225000D01*
G01*
X208084000Y-70903000D01*
G75*
G02*
X208309000Y-70678000I225000J0D01*
G01*
X208759000Y-70678000D01*
G75*
G02*
X208984000Y-70903000I0J-225000D01*
G01*
G37*
G36*
G01*
X193109000Y-128053000D02*
X193109000Y-128553000D01*
G75*
G02*
X192884000Y-128778000I-225000J0D01*
G01*
X192434000Y-128778000D01*
G75*
G02*
X192209000Y-128553000I0J225000D01*
G01*
X192209000Y-128053000D01*
G75*
G02*
X192434000Y-127828000I225000J0D01*
G01*
X192884000Y-127828000D01*
G75*
G02*
X193109000Y-128053000I0J-225000D01*
G01*
G37*
G36*
G01*
X194659000Y-128053000D02*
X194659000Y-128553000D01*
G75*
G02*
X194434000Y-128778000I-225000J0D01*
G01*
X193984000Y-128778000D01*
G75*
G02*
X193759000Y-128553000I0J225000D01*
G01*
X193759000Y-128053000D01*
G75*
G02*
X193984000Y-127828000I225000J0D01*
G01*
X194434000Y-127828000D01*
G75*
G02*
X194659000Y-128053000I0J-225000D01*
G01*
G37*
G36*
G01*
X131234000Y-70903000D02*
X131234000Y-71403000D01*
G75*
G02*
X131009000Y-71628000I-225000J0D01*
G01*
X130559000Y-71628000D01*
G75*
G02*
X130334000Y-71403000I0J225000D01*
G01*
X130334000Y-70903000D01*
G75*
G02*
X130559000Y-70678000I225000J0D01*
G01*
X131009000Y-70678000D01*
G75*
G02*
X131234000Y-70903000I0J-225000D01*
G01*
G37*
G36*
G01*
X132784000Y-70903000D02*
X132784000Y-71403000D01*
G75*
G02*
X132559000Y-71628000I-225000J0D01*
G01*
X132109000Y-71628000D01*
G75*
G02*
X131884000Y-71403000I0J225000D01*
G01*
X131884000Y-70903000D01*
G75*
G02*
X132109000Y-70678000I225000J0D01*
G01*
X132559000Y-70678000D01*
G75*
G02*
X132784000Y-70903000I0J-225000D01*
G01*
G37*
G36*
G01*
X140785000Y-89953000D02*
X140785000Y-90453000D01*
G75*
G02*
X140560000Y-90678000I-225000J0D01*
G01*
X140110000Y-90678000D01*
G75*
G02*
X139885000Y-90453000I0J225000D01*
G01*
X139885000Y-89953000D01*
G75*
G02*
X140110000Y-89728000I225000J0D01*
G01*
X140560000Y-89728000D01*
G75*
G02*
X140785000Y-89953000I0J-225000D01*
G01*
G37*
G36*
G01*
X142335000Y-89953000D02*
X142335000Y-90453000D01*
G75*
G02*
X142110000Y-90678000I-225000J0D01*
G01*
X141660000Y-90678000D01*
G75*
G02*
X141435000Y-90453000I0J225000D01*
G01*
X141435000Y-89953000D01*
G75*
G02*
X141660000Y-89728000I225000J0D01*
G01*
X142110000Y-89728000D01*
G75*
G02*
X142335000Y-89953000I0J-225000D01*
G01*
G37*
G36*
G01*
X164661000Y-109003000D02*
X164661000Y-109503000D01*
G75*
G02*
X164436000Y-109728000I-225000J0D01*
G01*
X163986000Y-109728000D01*
G75*
G02*
X163761000Y-109503000I0J225000D01*
G01*
X163761000Y-109003000D01*
G75*
G02*
X163986000Y-108778000I225000J0D01*
G01*
X164436000Y-108778000D01*
G75*
G02*
X164661000Y-109003000I0J-225000D01*
G01*
G37*
G36*
G01*
X166211000Y-109003000D02*
X166211000Y-109503000D01*
G75*
G02*
X165986000Y-109728000I-225000J0D01*
G01*
X165536000Y-109728000D01*
G75*
G02*
X165311000Y-109503000I0J225000D01*
G01*
X165311000Y-109003000D01*
G75*
G02*
X165536000Y-108778000I225000J0D01*
G01*
X165986000Y-108778000D01*
G75*
G02*
X166211000Y-109003000I0J-225000D01*
G01*
G37*
G36*
G01*
X274135000Y-89953000D02*
X274135000Y-90453000D01*
G75*
G02*
X273910000Y-90678000I-225000J0D01*
G01*
X273460000Y-90678000D01*
G75*
G02*
X273235000Y-90453000I0J225000D01*
G01*
X273235000Y-89953000D01*
G75*
G02*
X273460000Y-89728000I225000J0D01*
G01*
X273910000Y-89728000D01*
G75*
G02*
X274135000Y-89953000I0J-225000D01*
G01*
G37*
G36*
G01*
X275685000Y-89953000D02*
X275685000Y-90453000D01*
G75*
G02*
X275460000Y-90678000I-225000J0D01*
G01*
X275010000Y-90678000D01*
G75*
G02*
X274785000Y-90453000I0J225000D01*
G01*
X274785000Y-89953000D01*
G75*
G02*
X275010000Y-89728000I225000J0D01*
G01*
X275460000Y-89728000D01*
G75*
G02*
X275685000Y-89953000I0J-225000D01*
G01*
G37*
G36*
G01*
X211384000Y-128053000D02*
X211384000Y-128553000D01*
G75*
G02*
X211159000Y-128778000I-225000J0D01*
G01*
X210709000Y-128778000D01*
G75*
G02*
X210484000Y-128553000I0J225000D01*
G01*
X210484000Y-128053000D01*
G75*
G02*
X210709000Y-127828000I225000J0D01*
G01*
X211159000Y-127828000D01*
G75*
G02*
X211384000Y-128053000I0J-225000D01*
G01*
G37*
G36*
G01*
X212934000Y-128053000D02*
X212934000Y-128553000D01*
G75*
G02*
X212709000Y-128778000I-225000J0D01*
G01*
X212259000Y-128778000D01*
G75*
G02*
X212034000Y-128553000I0J225000D01*
G01*
X212034000Y-128053000D01*
G75*
G02*
X212259000Y-127828000I225000J0D01*
G01*
X212709000Y-127828000D01*
G75*
G02*
X212934000Y-128053000I0J-225000D01*
G01*
G37*
G36*
G01*
X230828000Y-128053000D02*
X230828000Y-128553000D01*
G75*
G02*
X230603000Y-128778000I-225000J0D01*
G01*
X230153000Y-128778000D01*
G75*
G02*
X229928000Y-128553000I0J225000D01*
G01*
X229928000Y-128053000D01*
G75*
G02*
X230153000Y-127828000I225000J0D01*
G01*
X230603000Y-127828000D01*
G75*
G02*
X230828000Y-128053000I0J-225000D01*
G01*
G37*
G36*
G01*
X232378000Y-128053000D02*
X232378000Y-128553000D01*
G75*
G02*
X232153000Y-128778000I-225000J0D01*
G01*
X231703000Y-128778000D01*
G75*
G02*
X231478000Y-128553000I0J225000D01*
G01*
X231478000Y-128053000D01*
G75*
G02*
X231703000Y-127828000I225000J0D01*
G01*
X232153000Y-127828000D01*
G75*
G02*
X232378000Y-128053000I0J-225000D01*
G01*
G37*
G36*
G01*
X188410000Y-70903000D02*
X188410000Y-71403000D01*
G75*
G02*
X188185000Y-71628000I-225000J0D01*
G01*
X187735000Y-71628000D01*
G75*
G02*
X187510000Y-71403000I0J225000D01*
G01*
X187510000Y-70903000D01*
G75*
G02*
X187735000Y-70678000I225000J0D01*
G01*
X188185000Y-70678000D01*
G75*
G02*
X188410000Y-70903000I0J-225000D01*
G01*
G37*
G36*
G01*
X189960000Y-70903000D02*
X189960000Y-71403000D01*
G75*
G02*
X189735000Y-71628000I-225000J0D01*
G01*
X189285000Y-71628000D01*
G75*
G02*
X189060000Y-71403000I0J225000D01*
G01*
X189060000Y-70903000D01*
G75*
G02*
X189285000Y-70678000I225000J0D01*
G01*
X189735000Y-70678000D01*
G75*
G02*
X189960000Y-70903000I0J-225000D01*
G01*
G37*
G36*
G01*
X154628000Y-128053000D02*
X154628000Y-128553000D01*
G75*
G02*
X154403000Y-128778000I-225000J0D01*
G01*
X153953000Y-128778000D01*
G75*
G02*
X153728000Y-128553000I0J225000D01*
G01*
X153728000Y-128053000D01*
G75*
G02*
X153953000Y-127828000I225000J0D01*
G01*
X154403000Y-127828000D01*
G75*
G02*
X154628000Y-128053000I0J-225000D01*
G01*
G37*
G36*
G01*
X156178000Y-128053000D02*
X156178000Y-128553000D01*
G75*
G02*
X155953000Y-128778000I-225000J0D01*
G01*
X155503000Y-128778000D01*
G75*
G02*
X155278000Y-128553000I0J225000D01*
G01*
X155278000Y-128053000D01*
G75*
G02*
X155503000Y-127828000I225000J0D01*
G01*
X155953000Y-127828000D01*
G75*
G02*
X156178000Y-128053000I0J-225000D01*
G01*
G37*
G36*
G01*
X93147000Y-70903000D02*
X93147000Y-71403000D01*
G75*
G02*
X92922000Y-71628000I-225000J0D01*
G01*
X92472000Y-71628000D01*
G75*
G02*
X92247000Y-71403000I0J225000D01*
G01*
X92247000Y-70903000D01*
G75*
G02*
X92472000Y-70678000I225000J0D01*
G01*
X92922000Y-70678000D01*
G75*
G02*
X93147000Y-70903000I0J-225000D01*
G01*
G37*
G36*
G01*
X94697000Y-70903000D02*
X94697000Y-71403000D01*
G75*
G02*
X94472000Y-71628000I-225000J0D01*
G01*
X94022000Y-71628000D01*
G75*
G02*
X93797000Y-71403000I0J225000D01*
G01*
X93797000Y-70903000D01*
G75*
G02*
X94022000Y-70678000I225000J0D01*
G01*
X94472000Y-70678000D01*
G75*
G02*
X94697000Y-70903000I0J-225000D01*
G01*
G37*
G36*
G01*
X121862000Y-89953000D02*
X121862000Y-90453000D01*
G75*
G02*
X121637000Y-90678000I-225000J0D01*
G01*
X121187000Y-90678000D01*
G75*
G02*
X120962000Y-90453000I0J225000D01*
G01*
X120962000Y-89953000D01*
G75*
G02*
X121187000Y-89728000I225000J0D01*
G01*
X121637000Y-89728000D01*
G75*
G02*
X121862000Y-89953000I0J-225000D01*
G01*
G37*
G36*
G01*
X123412000Y-89953000D02*
X123412000Y-90453000D01*
G75*
G02*
X123187000Y-90678000I-225000J0D01*
G01*
X122737000Y-90678000D01*
G75*
G02*
X122512000Y-90453000I0J225000D01*
G01*
X122512000Y-89953000D01*
G75*
G02*
X122737000Y-89728000I225000J0D01*
G01*
X123187000Y-89728000D01*
G75*
G02*
X123412000Y-89953000I0J-225000D01*
G01*
G37*
G36*
G01*
X173398000Y-127926000D02*
X173398000Y-128426000D01*
G75*
G02*
X173173000Y-128651000I-225000J0D01*
G01*
X172723000Y-128651000D01*
G75*
G02*
X172498000Y-128426000I0J225000D01*
G01*
X172498000Y-127926000D01*
G75*
G02*
X172723000Y-127701000I225000J0D01*
G01*
X173173000Y-127701000D01*
G75*
G02*
X173398000Y-127926000I0J-225000D01*
G01*
G37*
G36*
G01*
X174948000Y-127926000D02*
X174948000Y-128426000D01*
G75*
G02*
X174723000Y-128651000I-225000J0D01*
G01*
X174273000Y-128651000D01*
G75*
G02*
X174048000Y-128426000I0J225000D01*
G01*
X174048000Y-127926000D01*
G75*
G02*
X174273000Y-127701000I225000J0D01*
G01*
X174723000Y-127701000D01*
G75*
G02*
X174948000Y-127926000I0J-225000D01*
G01*
G37*
G36*
G01*
X293185000Y-89953000D02*
X293185000Y-90453000D01*
G75*
G02*
X292960000Y-90678000I-225000J0D01*
G01*
X292510000Y-90678000D01*
G75*
G02*
X292285000Y-90453000I0J225000D01*
G01*
X292285000Y-89953000D01*
G75*
G02*
X292510000Y-89728000I225000J0D01*
G01*
X292960000Y-89728000D01*
G75*
G02*
X293185000Y-89953000I0J-225000D01*
G01*
G37*
G36*
G01*
X294735000Y-89953000D02*
X294735000Y-90453000D01*
G75*
G02*
X294510000Y-90678000I-225000J0D01*
G01*
X294060000Y-90678000D01*
G75*
G02*
X293835000Y-90453000I0J225000D01*
G01*
X293835000Y-89953000D01*
G75*
G02*
X294060000Y-89728000I225000J0D01*
G01*
X294510000Y-89728000D01*
G75*
G02*
X294735000Y-89953000I0J-225000D01*
G01*
G37*
G36*
G01*
X250132000Y-128053000D02*
X250132000Y-128553000D01*
G75*
G02*
X249907000Y-128778000I-225000J0D01*
G01*
X249457000Y-128778000D01*
G75*
G02*
X249232000Y-128553000I0J225000D01*
G01*
X249232000Y-128053000D01*
G75*
G02*
X249457000Y-127828000I225000J0D01*
G01*
X249907000Y-127828000D01*
G75*
G02*
X250132000Y-128053000I0J-225000D01*
G01*
G37*
G36*
G01*
X251682000Y-128053000D02*
X251682000Y-128553000D01*
G75*
G02*
X251457000Y-128778000I-225000J0D01*
G01*
X251007000Y-128778000D01*
G75*
G02*
X250782000Y-128553000I0J225000D01*
G01*
X250782000Y-128053000D01*
G75*
G02*
X251007000Y-127828000I225000J0D01*
G01*
X251457000Y-127828000D01*
G75*
G02*
X251682000Y-128053000I0J-225000D01*
G01*
G37*
G36*
G01*
X195649000Y-147103000D02*
X195649000Y-147603000D01*
G75*
G02*
X195424000Y-147828000I-225000J0D01*
G01*
X194974000Y-147828000D01*
G75*
G02*
X194749000Y-147603000I0J225000D01*
G01*
X194749000Y-147103000D01*
G75*
G02*
X194974000Y-146878000I225000J0D01*
G01*
X195424000Y-146878000D01*
G75*
G02*
X195649000Y-147103000I0J-225000D01*
G01*
G37*
G36*
G01*
X197199000Y-147103000D02*
X197199000Y-147603000D01*
G75*
G02*
X196974000Y-147828000I-225000J0D01*
G01*
X196524000Y-147828000D01*
G75*
G02*
X196299000Y-147603000I0J225000D01*
G01*
X196299000Y-147103000D01*
G75*
G02*
X196524000Y-146878000I225000J0D01*
G01*
X196974000Y-146878000D01*
G75*
G02*
X197199000Y-147103000I0J-225000D01*
G01*
G37*
G36*
G01*
X74620000Y-71295000D02*
X74620000Y-70795000D01*
G75*
G02*
X74845000Y-70570000I225000J0D01*
G01*
X75295000Y-70570000D01*
G75*
G02*
X75520000Y-70795000I0J-225000D01*
G01*
X75520000Y-71295000D01*
G75*
G02*
X75295000Y-71520000I-225000J0D01*
G01*
X74845000Y-71520000D01*
G75*
G02*
X74620000Y-71295000I0J225000D01*
G01*
G37*
G36*
G01*
X73070000Y-71295000D02*
X73070000Y-70795000D01*
G75*
G02*
X73295000Y-70570000I225000J0D01*
G01*
X73745000Y-70570000D01*
G75*
G02*
X73970000Y-70795000I0J-225000D01*
G01*
X73970000Y-71295000D01*
G75*
G02*
X73745000Y-71520000I-225000J0D01*
G01*
X73295000Y-71520000D01*
G75*
G02*
X73070000Y-71295000I0J225000D01*
G01*
G37*
G36*
G01*
X81222000Y-109003000D02*
X81222000Y-109503000D01*
G75*
G02*
X80997000Y-109728000I-225000J0D01*
G01*
X80547000Y-109728000D01*
G75*
G02*
X80322000Y-109503000I0J225000D01*
G01*
X80322000Y-109003000D01*
G75*
G02*
X80547000Y-108778000I225000J0D01*
G01*
X80997000Y-108778000D01*
G75*
G02*
X81222000Y-109003000I0J-225000D01*
G01*
G37*
G36*
G01*
X82772000Y-109003000D02*
X82772000Y-109503000D01*
G75*
G02*
X82547000Y-109728000I-225000J0D01*
G01*
X82097000Y-109728000D01*
G75*
G02*
X81872000Y-109503000I0J225000D01*
G01*
X81872000Y-109003000D01*
G75*
G02*
X82097000Y-108778000I225000J0D01*
G01*
X82547000Y-108778000D01*
G75*
G02*
X82772000Y-109003000I0J-225000D01*
G01*
G37*
G36*
G01*
X150297000Y-70903000D02*
X150297000Y-71403000D01*
G75*
G02*
X150072000Y-71628000I-225000J0D01*
G01*
X149622000Y-71628000D01*
G75*
G02*
X149397000Y-71403000I0J225000D01*
G01*
X149397000Y-70903000D01*
G75*
G02*
X149622000Y-70678000I225000J0D01*
G01*
X150072000Y-70678000D01*
G75*
G02*
X150297000Y-70903000I0J-225000D01*
G01*
G37*
G36*
G01*
X151847000Y-70903000D02*
X151847000Y-71403000D01*
G75*
G02*
X151622000Y-71628000I-225000J0D01*
G01*
X151172000Y-71628000D01*
G75*
G02*
X150947000Y-71403000I0J225000D01*
G01*
X150947000Y-70903000D01*
G75*
G02*
X151172000Y-70678000I225000J0D01*
G01*
X151622000Y-70678000D01*
G75*
G02*
X151847000Y-70903000I0J-225000D01*
G01*
G37*
G36*
G01*
X312108000Y-89953000D02*
X312108000Y-90453000D01*
G75*
G02*
X311883000Y-90678000I-225000J0D01*
G01*
X311433000Y-90678000D01*
G75*
G02*
X311208000Y-90453000I0J225000D01*
G01*
X311208000Y-89953000D01*
G75*
G02*
X311433000Y-89728000I225000J0D01*
G01*
X311883000Y-89728000D01*
G75*
G02*
X312108000Y-89953000I0J-225000D01*
G01*
G37*
G36*
G01*
X313658000Y-89953000D02*
X313658000Y-90453000D01*
G75*
G02*
X313433000Y-90678000I-225000J0D01*
G01*
X312983000Y-90678000D01*
G75*
G02*
X312758000Y-90453000I0J225000D01*
G01*
X312758000Y-89953000D01*
G75*
G02*
X312983000Y-89728000I225000J0D01*
G01*
X313433000Y-89728000D01*
G75*
G02*
X313658000Y-89953000I0J-225000D01*
G01*
G37*
G36*
G01*
X134917000Y-127926000D02*
X134917000Y-128426000D01*
G75*
G02*
X134692000Y-128651000I-225000J0D01*
G01*
X134242000Y-128651000D01*
G75*
G02*
X134017000Y-128426000I0J225000D01*
G01*
X134017000Y-127926000D01*
G75*
G02*
X134242000Y-127701000I225000J0D01*
G01*
X134692000Y-127701000D01*
G75*
G02*
X134917000Y-127926000I0J-225000D01*
G01*
G37*
G36*
G01*
X136467000Y-127926000D02*
X136467000Y-128426000D01*
G75*
G02*
X136242000Y-128651000I-225000J0D01*
G01*
X135792000Y-128651000D01*
G75*
G02*
X135567000Y-128426000I0J225000D01*
G01*
X135567000Y-127926000D01*
G75*
G02*
X135792000Y-127701000I225000J0D01*
G01*
X136242000Y-127701000D01*
G75*
G02*
X136467000Y-127926000I0J-225000D01*
G01*
G37*
G36*
G01*
X324147000Y-128053000D02*
X324147000Y-128553000D01*
G75*
G02*
X323922000Y-128778000I-225000J0D01*
G01*
X323472000Y-128778000D01*
G75*
G02*
X323247000Y-128553000I0J225000D01*
G01*
X323247000Y-128053000D01*
G75*
G02*
X323472000Y-127828000I225000J0D01*
G01*
X323922000Y-127828000D01*
G75*
G02*
X324147000Y-128053000I0J-225000D01*
G01*
G37*
G36*
G01*
X325697000Y-128053000D02*
X325697000Y-128553000D01*
G75*
G02*
X325472000Y-128778000I-225000J0D01*
G01*
X325022000Y-128778000D01*
G75*
G02*
X324797000Y-128553000I0J225000D01*
G01*
X324797000Y-128053000D01*
G75*
G02*
X325022000Y-127828000I225000J0D01*
G01*
X325472000Y-127828000D01*
G75*
G02*
X325697000Y-128053000I0J-225000D01*
G01*
G37*
G36*
G01*
X278834000Y-109130000D02*
X278834000Y-109630000D01*
G75*
G02*
X278609000Y-109855000I-225000J0D01*
G01*
X278159000Y-109855000D01*
G75*
G02*
X277934000Y-109630000I0J225000D01*
G01*
X277934000Y-109130000D01*
G75*
G02*
X278159000Y-108905000I225000J0D01*
G01*
X278609000Y-108905000D01*
G75*
G02*
X278834000Y-109130000I0J-225000D01*
G01*
G37*
G36*
G01*
X280384000Y-109130000D02*
X280384000Y-109630000D01*
G75*
G02*
X280159000Y-109855000I-225000J0D01*
G01*
X279709000Y-109855000D01*
G75*
G02*
X279484000Y-109630000I0J225000D01*
G01*
X279484000Y-109130000D01*
G75*
G02*
X279709000Y-108905000I225000J0D01*
G01*
X280159000Y-108905000D01*
G75*
G02*
X280384000Y-109130000I0J-225000D01*
G01*
G37*
G36*
G01*
X268674000Y-128053000D02*
X268674000Y-128553000D01*
G75*
G02*
X268449000Y-128778000I-225000J0D01*
G01*
X267999000Y-128778000D01*
G75*
G02*
X267774000Y-128553000I0J225000D01*
G01*
X267774000Y-128053000D01*
G75*
G02*
X267999000Y-127828000I225000J0D01*
G01*
X268449000Y-127828000D01*
G75*
G02*
X268674000Y-128053000I0J-225000D01*
G01*
G37*
G36*
G01*
X270224000Y-128053000D02*
X270224000Y-128553000D01*
G75*
G02*
X269999000Y-128778000I-225000J0D01*
G01*
X269549000Y-128778000D01*
G75*
G02*
X269324000Y-128553000I0J225000D01*
G01*
X269324000Y-128053000D01*
G75*
G02*
X269549000Y-127828000I225000J0D01*
G01*
X269999000Y-127828000D01*
G75*
G02*
X270224000Y-128053000I0J-225000D01*
G01*
G37*
G36*
G01*
X169334000Y-70903000D02*
X169334000Y-71403000D01*
G75*
G02*
X169109000Y-71628000I-225000J0D01*
G01*
X168659000Y-71628000D01*
G75*
G02*
X168434000Y-71403000I0J225000D01*
G01*
X168434000Y-70903000D01*
G75*
G02*
X168659000Y-70678000I225000J0D01*
G01*
X169109000Y-70678000D01*
G75*
G02*
X169334000Y-70903000I0J-225000D01*
G01*
G37*
G36*
G01*
X170884000Y-70903000D02*
X170884000Y-71403000D01*
G75*
G02*
X170659000Y-71628000I-225000J0D01*
G01*
X170209000Y-71628000D01*
G75*
G02*
X169984000Y-71403000I0J225000D01*
G01*
X169984000Y-70903000D01*
G75*
G02*
X170209000Y-70678000I225000J0D01*
G01*
X170659000Y-70678000D01*
G75*
G02*
X170884000Y-70903000I0J-225000D01*
G01*
G37*
G36*
G01*
X100272000Y-147103000D02*
X100272000Y-147603000D01*
G75*
G02*
X100047000Y-147828000I-225000J0D01*
G01*
X99597000Y-147828000D01*
G75*
G02*
X99372000Y-147603000I0J225000D01*
G01*
X99372000Y-147103000D01*
G75*
G02*
X99597000Y-146878000I225000J0D01*
G01*
X100047000Y-146878000D01*
G75*
G02*
X100272000Y-147103000I0J-225000D01*
G01*
G37*
G36*
G01*
X101822000Y-147103000D02*
X101822000Y-147603000D01*
G75*
G02*
X101597000Y-147828000I-225000J0D01*
G01*
X101147000Y-147828000D01*
G75*
G02*
X100922000Y-147603000I0J225000D01*
G01*
X100922000Y-147103000D01*
G75*
G02*
X101147000Y-146878000I225000J0D01*
G01*
X101597000Y-146878000D01*
G75*
G02*
X101822000Y-147103000I0J-225000D01*
G01*
G37*
G36*
G01*
X337254000Y-147103000D02*
X337254000Y-147603000D01*
G75*
G02*
X337029000Y-147828000I-225000J0D01*
G01*
X336579000Y-147828000D01*
G75*
G02*
X336354000Y-147603000I0J225000D01*
G01*
X336354000Y-147103000D01*
G75*
G02*
X336579000Y-146878000I225000J0D01*
G01*
X337029000Y-146878000D01*
G75*
G02*
X337254000Y-147103000I0J-225000D01*
G01*
G37*
G36*
G01*
X338804000Y-147103000D02*
X338804000Y-147603000D01*
G75*
G02*
X338579000Y-147828000I-225000J0D01*
G01*
X338129000Y-147828000D01*
G75*
G02*
X337904000Y-147603000I0J225000D01*
G01*
X337904000Y-147103000D01*
G75*
G02*
X338129000Y-146878000I225000J0D01*
G01*
X338579000Y-146878000D01*
G75*
G02*
X338804000Y-147103000I0J-225000D01*
G01*
G37*
G36*
G01*
X116274000Y-128053000D02*
X116274000Y-128553000D01*
G75*
G02*
X116049000Y-128778000I-225000J0D01*
G01*
X115599000Y-128778000D01*
G75*
G02*
X115374000Y-128553000I0J225000D01*
G01*
X115374000Y-128053000D01*
G75*
G02*
X115599000Y-127828000I225000J0D01*
G01*
X116049000Y-127828000D01*
G75*
G02*
X116274000Y-128053000I0J-225000D01*
G01*
G37*
G36*
G01*
X117824000Y-128053000D02*
X117824000Y-128553000D01*
G75*
G02*
X117599000Y-128778000I-225000J0D01*
G01*
X117149000Y-128778000D01*
G75*
G02*
X116924000Y-128553000I0J225000D01*
G01*
X116924000Y-128053000D01*
G75*
G02*
X117149000Y-127828000I225000J0D01*
G01*
X117599000Y-127828000D01*
G75*
G02*
X117824000Y-128053000I0J-225000D01*
G01*
G37*
G36*
G01*
X328872000Y-108876000D02*
X328872000Y-109376000D01*
G75*
G02*
X328647000Y-109601000I-225000J0D01*
G01*
X328197000Y-109601000D01*
G75*
G02*
X327972000Y-109376000I0J225000D01*
G01*
X327972000Y-108876000D01*
G75*
G02*
X328197000Y-108651000I225000J0D01*
G01*
X328647000Y-108651000D01*
G75*
G02*
X328872000Y-108876000I0J-225000D01*
G01*
G37*
G36*
G01*
X330422000Y-108876000D02*
X330422000Y-109376000D01*
G75*
G02*
X330197000Y-109601000I-225000J0D01*
G01*
X329747000Y-109601000D01*
G75*
G02*
X329522000Y-109376000I0J225000D01*
G01*
X329522000Y-108876000D01*
G75*
G02*
X329747000Y-108651000I225000J0D01*
G01*
X330197000Y-108651000D01*
G75*
G02*
X330422000Y-108876000I0J-225000D01*
G01*
G37*
G36*
G01*
X266769000Y-147230000D02*
X266769000Y-147730000D01*
G75*
G02*
X266544000Y-147955000I-225000J0D01*
G01*
X266094000Y-147955000D01*
G75*
G02*
X265869000Y-147730000I0J225000D01*
G01*
X265869000Y-147230000D01*
G75*
G02*
X266094000Y-147005000I225000J0D01*
G01*
X266544000Y-147005000D01*
G75*
G02*
X266769000Y-147230000I0J-225000D01*
G01*
G37*
G36*
G01*
X268319000Y-147230000D02*
X268319000Y-147730000D01*
G75*
G02*
X268094000Y-147955000I-225000J0D01*
G01*
X267644000Y-147955000D01*
G75*
G02*
X267419000Y-147730000I0J225000D01*
G01*
X267419000Y-147230000D01*
G75*
G02*
X267644000Y-147005000I225000J0D01*
G01*
X268094000Y-147005000D01*
G75*
G02*
X268319000Y-147230000I0J-225000D01*
G01*
G37*
G36*
G01*
X290746000Y-146976000D02*
X290746000Y-147476000D01*
G75*
G02*
X290521000Y-147701000I-225000J0D01*
G01*
X290071000Y-147701000D01*
G75*
G02*
X289846000Y-147476000I0J225000D01*
G01*
X289846000Y-146976000D01*
G75*
G02*
X290071000Y-146751000I225000J0D01*
G01*
X290521000Y-146751000D01*
G75*
G02*
X290746000Y-146976000I0J-225000D01*
G01*
G37*
G36*
G01*
X292296000Y-146976000D02*
X292296000Y-147476000D01*
G75*
G02*
X292071000Y-147701000I-225000J0D01*
G01*
X291621000Y-147701000D01*
G75*
G02*
X291396000Y-147476000I0J225000D01*
G01*
X291396000Y-146976000D01*
G75*
G02*
X291621000Y-146751000I225000J0D01*
G01*
X292071000Y-146751000D01*
G75*
G02*
X292296000Y-146976000I0J-225000D01*
G01*
G37*
G36*
G01*
X102799000Y-89953000D02*
X102799000Y-90453000D01*
G75*
G02*
X102574000Y-90678000I-225000J0D01*
G01*
X102124000Y-90678000D01*
G75*
G02*
X101899000Y-90453000I0J225000D01*
G01*
X101899000Y-89953000D01*
G75*
G02*
X102124000Y-89728000I225000J0D01*
G01*
X102574000Y-89728000D01*
G75*
G02*
X102799000Y-89953000I0J-225000D01*
G01*
G37*
G36*
G01*
X104349000Y-89953000D02*
X104349000Y-90453000D01*
G75*
G02*
X104124000Y-90678000I-225000J0D01*
G01*
X103674000Y-90678000D01*
G75*
G02*
X103449000Y-90453000I0J225000D01*
G01*
X103449000Y-89953000D01*
G75*
G02*
X103674000Y-89728000I225000J0D01*
G01*
X104124000Y-89728000D01*
G75*
G02*
X104349000Y-89953000I0J-225000D01*
G01*
G37*
G36*
G01*
X336111000Y-90080000D02*
X336111000Y-90580000D01*
G75*
G02*
X335886000Y-90805000I-225000J0D01*
G01*
X335436000Y-90805000D01*
G75*
G02*
X335211000Y-90580000I0J225000D01*
G01*
X335211000Y-90080000D01*
G75*
G02*
X335436000Y-89855000I225000J0D01*
G01*
X335886000Y-89855000D01*
G75*
G02*
X336111000Y-90080000I0J-225000D01*
G01*
G37*
G36*
G01*
X337661000Y-90080000D02*
X337661000Y-90580000D01*
G75*
G02*
X337436000Y-90805000I-225000J0D01*
G01*
X336986000Y-90805000D01*
G75*
G02*
X336761000Y-90580000I0J225000D01*
G01*
X336761000Y-90080000D01*
G75*
G02*
X336986000Y-89855000I225000J0D01*
G01*
X337436000Y-89855000D01*
G75*
G02*
X337661000Y-90080000I0J-225000D01*
G01*
G37*
G36*
G01*
X86545000Y-128553000D02*
X86545000Y-128053000D01*
G75*
G02*
X86770000Y-127828000I225000J0D01*
G01*
X87220000Y-127828000D01*
G75*
G02*
X87445000Y-128053000I0J-225000D01*
G01*
X87445000Y-128553000D01*
G75*
G02*
X87220000Y-128778000I-225000J0D01*
G01*
X86770000Y-128778000D01*
G75*
G02*
X86545000Y-128553000I0J225000D01*
G01*
G37*
G36*
G01*
X84995000Y-128553000D02*
X84995000Y-128053000D01*
G75*
G02*
X85220000Y-127828000I225000J0D01*
G01*
X85670000Y-127828000D01*
G75*
G02*
X85895000Y-128053000I0J-225000D01*
G01*
X85895000Y-128553000D01*
G75*
G02*
X85670000Y-128778000I-225000J0D01*
G01*
X85220000Y-128778000D01*
G75*
G02*
X84995000Y-128553000I0J225000D01*
G01*
G37*
G36*
G01*
X313873000Y-146976000D02*
X313873000Y-147476000D01*
G75*
G02*
X313648000Y-147701000I-225000J0D01*
G01*
X313198000Y-147701000D01*
G75*
G02*
X312973000Y-147476000I0J225000D01*
G01*
X312973000Y-146976000D01*
G75*
G02*
X313198000Y-146751000I225000J0D01*
G01*
X313648000Y-146751000D01*
G75*
G02*
X313873000Y-146976000I0J-225000D01*
G01*
G37*
G36*
G01*
X315423000Y-146976000D02*
X315423000Y-147476000D01*
G75*
G02*
X315198000Y-147701000I-225000J0D01*
G01*
X314748000Y-147701000D01*
G75*
G02*
X314523000Y-147476000I0J225000D01*
G01*
X314523000Y-146976000D01*
G75*
G02*
X314748000Y-146751000I225000J0D01*
G01*
X315198000Y-146751000D01*
G75*
G02*
X315423000Y-146976000I0J-225000D01*
G01*
G37*
G36*
G01*
X288092000Y-128053000D02*
X288092000Y-128553000D01*
G75*
G02*
X287867000Y-128778000I-225000J0D01*
G01*
X287417000Y-128778000D01*
G75*
G02*
X287192000Y-128553000I0J225000D01*
G01*
X287192000Y-128053000D01*
G75*
G02*
X287417000Y-127828000I225000J0D01*
G01*
X287867000Y-127828000D01*
G75*
G02*
X288092000Y-128053000I0J-225000D01*
G01*
G37*
G36*
G01*
X289642000Y-128053000D02*
X289642000Y-128553000D01*
G75*
G02*
X289417000Y-128778000I-225000J0D01*
G01*
X288967000Y-128778000D01*
G75*
G02*
X288742000Y-128553000I0J225000D01*
G01*
X288742000Y-128053000D01*
G75*
G02*
X288967000Y-127828000I225000J0D01*
G01*
X289417000Y-127828000D01*
G75*
G02*
X289642000Y-128053000I0J-225000D01*
G01*
G37*
G36*
G01*
X107511000Y-109003000D02*
X107511000Y-109503000D01*
G75*
G02*
X107286000Y-109728000I-225000J0D01*
G01*
X106836000Y-109728000D01*
G75*
G02*
X106611000Y-109503000I0J225000D01*
G01*
X106611000Y-109003000D01*
G75*
G02*
X106836000Y-108778000I225000J0D01*
G01*
X107286000Y-108778000D01*
G75*
G02*
X107511000Y-109003000I0J-225000D01*
G01*
G37*
G36*
G01*
X109061000Y-109003000D02*
X109061000Y-109503000D01*
G75*
G02*
X108836000Y-109728000I-225000J0D01*
G01*
X108386000Y-109728000D01*
G75*
G02*
X108161000Y-109503000I0J225000D01*
G01*
X108161000Y-109003000D01*
G75*
G02*
X108386000Y-108778000I225000J0D01*
G01*
X108836000Y-108778000D01*
G75*
G02*
X109061000Y-109003000I0J-225000D01*
G01*
G37*
G36*
G01*
X76523000Y-147103000D02*
X76523000Y-147603000D01*
G75*
G02*
X76298000Y-147828000I-225000J0D01*
G01*
X75848000Y-147828000D01*
G75*
G02*
X75623000Y-147603000I0J225000D01*
G01*
X75623000Y-147103000D01*
G75*
G02*
X75848000Y-146878000I225000J0D01*
G01*
X76298000Y-146878000D01*
G75*
G02*
X76523000Y-147103000I0J-225000D01*
G01*
G37*
G36*
G01*
X78073000Y-147103000D02*
X78073000Y-147603000D01*
G75*
G02*
X77848000Y-147828000I-225000J0D01*
G01*
X77398000Y-147828000D01*
G75*
G02*
X77173000Y-147603000I0J225000D01*
G01*
X77173000Y-147103000D01*
G75*
G02*
X77398000Y-146878000I225000J0D01*
G01*
X77848000Y-146878000D01*
G75*
G02*
X78073000Y-147103000I0J-225000D01*
G01*
G37*
G36*
G01*
X298011000Y-109003000D02*
X298011000Y-109503000D01*
G75*
G02*
X297786000Y-109728000I-225000J0D01*
G01*
X297336000Y-109728000D01*
G75*
G02*
X297111000Y-109503000I0J225000D01*
G01*
X297111000Y-109003000D01*
G75*
G02*
X297336000Y-108778000I225000J0D01*
G01*
X297786000Y-108778000D01*
G75*
G02*
X298011000Y-109003000I0J-225000D01*
G01*
G37*
G36*
G01*
X299561000Y-109003000D02*
X299561000Y-109503000D01*
G75*
G02*
X299336000Y-109728000I-225000J0D01*
G01*
X298886000Y-109728000D01*
G75*
G02*
X298661000Y-109503000I0J225000D01*
G01*
X298661000Y-109003000D01*
G75*
G02*
X298886000Y-108778000I225000J0D01*
G01*
X299336000Y-108778000D01*
G75*
G02*
X299561000Y-109003000I0J-225000D01*
G01*
G37*
G36*
G01*
X126434000Y-109003000D02*
X126434000Y-109503000D01*
G75*
G02*
X126209000Y-109728000I-225000J0D01*
G01*
X125759000Y-109728000D01*
G75*
G02*
X125534000Y-109503000I0J225000D01*
G01*
X125534000Y-109003000D01*
G75*
G02*
X125759000Y-108778000I225000J0D01*
G01*
X126209000Y-108778000D01*
G75*
G02*
X126434000Y-109003000I0J-225000D01*
G01*
G37*
G36*
G01*
X127984000Y-109003000D02*
X127984000Y-109503000D01*
G75*
G02*
X127759000Y-109728000I-225000J0D01*
G01*
X127309000Y-109728000D01*
G75*
G02*
X127084000Y-109503000I0J225000D01*
G01*
X127084000Y-109003000D01*
G75*
G02*
X127309000Y-108778000I225000J0D01*
G01*
X127759000Y-108778000D01*
G75*
G02*
X127984000Y-109003000I0J-225000D01*
G01*
G37*
G36*
G01*
X124021000Y-147103000D02*
X124021000Y-147603000D01*
G75*
G02*
X123796000Y-147828000I-225000J0D01*
G01*
X123346000Y-147828000D01*
G75*
G02*
X123121000Y-147603000I0J225000D01*
G01*
X123121000Y-147103000D01*
G75*
G02*
X123346000Y-146878000I225000J0D01*
G01*
X123796000Y-146878000D01*
G75*
G02*
X124021000Y-147103000I0J-225000D01*
G01*
G37*
G36*
G01*
X125571000Y-147103000D02*
X125571000Y-147603000D01*
G75*
G02*
X125346000Y-147828000I-225000J0D01*
G01*
X124896000Y-147828000D01*
G75*
G02*
X124671000Y-147603000I0J225000D01*
G01*
X124671000Y-147103000D01*
G75*
G02*
X124896000Y-146878000I225000J0D01*
G01*
X125346000Y-146878000D01*
G75*
G02*
X125571000Y-147103000I0J-225000D01*
G01*
G37*
D10*
X189931000Y-144020000D03*
X189931000Y-145920000D03*
X195831000Y-144020000D03*
X195831000Y-145920000D03*
D11*
X186866000Y-155100000D03*
X200291000Y-152560000D03*
D10*
X318519000Y-124970000D03*
X318519000Y-126870000D03*
X324419000Y-124970000D03*
X324419000Y-126870000D03*
D11*
X315454000Y-136050000D03*
X328879000Y-133510000D03*
D10*
X323281000Y-105920000D03*
X323281000Y-107820000D03*
X329181000Y-105920000D03*
X329181000Y-107820000D03*
D11*
X320216000Y-117000000D03*
X333641000Y-114460000D03*
D10*
X325663000Y-67820000D03*
X325663000Y-69720000D03*
X331563000Y-67820000D03*
X331563000Y-69720000D03*
D11*
X322598000Y-78900000D03*
X336023000Y-76360000D03*
D10*
X75632500Y-105920000D03*
X75632500Y-107820000D03*
X81532500Y-105920000D03*
X81532500Y-107820000D03*
D11*
X72567500Y-117000000D03*
X85992500Y-114460000D03*
D10*
X330425000Y-86870000D03*
X330425000Y-88770000D03*
X336325000Y-86870000D03*
X336325000Y-88770000D03*
D11*
X327360000Y-97950000D03*
X340785000Y-95410000D03*
D10*
X73250000Y-86870000D03*
X73250000Y-88770000D03*
X79150000Y-86870000D03*
X79150000Y-88770000D03*
D11*
X70185000Y-97950000D03*
X83610000Y-95410000D03*
D10*
X332794000Y-144020000D03*
X332794000Y-145920000D03*
X338694000Y-144020000D03*
X338694000Y-145920000D03*
D11*
X329729000Y-155100000D03*
X343154000Y-152560000D03*
D10*
X308981000Y-144020000D03*
X308981000Y-145920000D03*
X314881000Y-144020000D03*
X314881000Y-145920000D03*
D11*
X305916000Y-155100000D03*
X319341000Y-152560000D03*
D10*
X285181000Y-144020000D03*
X285181000Y-145920000D03*
X291081000Y-144020000D03*
X291081000Y-145920000D03*
D11*
X282116000Y-155100000D03*
X295541000Y-152560000D03*
D10*
X261369000Y-144020000D03*
X261369000Y-145920000D03*
X267269000Y-144020000D03*
X267269000Y-145920000D03*
D11*
X258304000Y-155100000D03*
X271729000Y-152560000D03*
D10*
X118494000Y-144020000D03*
X118494000Y-145920000D03*
X124394000Y-144020000D03*
X124394000Y-145920000D03*
D11*
X115429000Y-155100000D03*
X128854000Y-152560000D03*
D10*
X94681200Y-144020000D03*
X94681200Y-145920000D03*
X100581200Y-144020000D03*
X100581200Y-145920000D03*
D11*
X91616200Y-155100000D03*
X105041200Y-152560000D03*
D10*
X70868800Y-144020000D03*
X70868800Y-145920000D03*
X76768800Y-144020000D03*
X76768800Y-145920000D03*
D11*
X67803800Y-155100000D03*
X81228800Y-152560000D03*
D17*
X95275000Y-133016000D03*
X95275000Y-128416000D03*
X95275000Y-130716000D03*
D18*
X101575000Y-130716000D03*
G36*
G01*
X98608000Y-135546000D02*
X98608000Y-136046000D01*
G75*
G02*
X98383000Y-136271000I-225000J0D01*
G01*
X97933000Y-136271000D01*
G75*
G02*
X97708000Y-136046000I0J225000D01*
G01*
X97708000Y-135546000D01*
G75*
G02*
X97933000Y-135321000I225000J0D01*
G01*
X98383000Y-135321000D01*
G75*
G02*
X98608000Y-135546000I0J-225000D01*
G01*
G37*
G36*
G01*
X100158000Y-135546000D02*
X100158000Y-136046000D01*
G75*
G02*
X99933000Y-136271000I-225000J0D01*
G01*
X99483000Y-136271000D01*
G75*
G02*
X99258000Y-136046000I0J225000D01*
G01*
X99258000Y-135546000D01*
G75*
G02*
X99483000Y-135321000I225000J0D01*
G01*
X99933000Y-135321000D01*
G75*
G02*
X100158000Y-135546000I0J-225000D01*
G01*
G37*
G36*
G01*
X99499000Y-126013000D02*
X99499000Y-125513000D01*
G75*
G02*
X99724000Y-125288000I225000J0D01*
G01*
X100174000Y-125288000D01*
G75*
G02*
X100399000Y-125513000I0J-225000D01*
G01*
X100399000Y-126013000D01*
G75*
G02*
X100174000Y-126238000I-225000J0D01*
G01*
X99724000Y-126238000D01*
G75*
G02*
X99499000Y-126013000I0J225000D01*
G01*
G37*
G36*
G01*
X97949000Y-126013000D02*
X97949000Y-125513000D01*
G75*
G02*
X98174000Y-125288000I225000J0D01*
G01*
X98624000Y-125288000D01*
G75*
G02*
X98849000Y-125513000I0J-225000D01*
G01*
X98849000Y-126013000D01*
G75*
G02*
X98624000Y-126238000I-225000J0D01*
G01*
X98174000Y-126238000D01*
G75*
G02*
X97949000Y-126013000I0J225000D01*
G01*
G37*
D19*
X180633000Y-145745000D03*
X180633000Y-147945000D03*
X182333000Y-147945000D03*
X182333000Y-145745000D03*
G36*
G01*
X150197000Y-141109000D02*
X150197000Y-141659000D01*
G75*
G02*
X149997000Y-141859000I-200000J0D01*
G01*
X149597000Y-141859000D01*
G75*
G02*
X149397000Y-141659000I0J200000D01*
G01*
X149397000Y-141109000D01*
G75*
G02*
X149597000Y-140909000I200000J0D01*
G01*
X149997000Y-140909000D01*
G75*
G02*
X150197000Y-141109000I0J-200000D01*
G01*
G37*
G36*
G01*
X151847000Y-141109000D02*
X151847000Y-141659000D01*
G75*
G02*
X151647000Y-141859000I-200000J0D01*
G01*
X151247000Y-141859000D01*
G75*
G02*
X151047000Y-141659000I0J200000D01*
G01*
X151047000Y-141109000D01*
G75*
G02*
X151247000Y-140909000I200000J0D01*
G01*
X151647000Y-140909000D01*
G75*
G02*
X151847000Y-141109000I0J-200000D01*
G01*
G37*
G36*
G01*
X164509000Y-140135000D02*
X164509000Y-139585000D01*
G75*
G02*
X164709000Y-139385000I200000J0D01*
G01*
X165109000Y-139385000D01*
G75*
G02*
X165309000Y-139585000I0J-200000D01*
G01*
X165309000Y-140135000D01*
G75*
G02*
X165109000Y-140335000I-200000J0D01*
G01*
X164709000Y-140335000D01*
G75*
G02*
X164509000Y-140135000I0J200000D01*
G01*
G37*
G36*
G01*
X162859000Y-140135000D02*
X162859000Y-139585000D01*
G75*
G02*
X163059000Y-139385000I200000J0D01*
G01*
X163459000Y-139385000D01*
G75*
G02*
X163659000Y-139585000I0J-200000D01*
G01*
X163659000Y-140135000D01*
G75*
G02*
X163459000Y-140335000I-200000J0D01*
G01*
X163059000Y-140335000D01*
G75*
G02*
X162859000Y-140135000I0J200000D01*
G01*
G37*
G36*
G01*
X178606000Y-148136000D02*
X178606000Y-147586000D01*
G75*
G02*
X178806000Y-147386000I200000J0D01*
G01*
X179206000Y-147386000D01*
G75*
G02*
X179406000Y-147586000I0J-200000D01*
G01*
X179406000Y-148136000D01*
G75*
G02*
X179206000Y-148336000I-200000J0D01*
G01*
X178806000Y-148336000D01*
G75*
G02*
X178606000Y-148136000I0J200000D01*
G01*
G37*
G36*
G01*
X176956000Y-148136000D02*
X176956000Y-147586000D01*
G75*
G02*
X177156000Y-147386000I200000J0D01*
G01*
X177556000Y-147386000D01*
G75*
G02*
X177756000Y-147586000I0J-200000D01*
G01*
X177756000Y-148136000D01*
G75*
G02*
X177556000Y-148336000I-200000J0D01*
G01*
X177156000Y-148336000D01*
G75*
G02*
X176956000Y-148136000I0J200000D01*
G01*
G37*
G36*
G01*
X158096000Y-150930000D02*
X158096000Y-150380000D01*
G75*
G02*
X158296000Y-150180000I200000J0D01*
G01*
X158696000Y-150180000D01*
G75*
G02*
X158896000Y-150380000I0J-200000D01*
G01*
X158896000Y-150930000D01*
G75*
G02*
X158696000Y-151130000I-200000J0D01*
G01*
X158296000Y-151130000D01*
G75*
G02*
X158096000Y-150930000I0J200000D01*
G01*
G37*
G36*
G01*
X156446000Y-150930000D02*
X156446000Y-150380000D01*
G75*
G02*
X156646000Y-150180000I200000J0D01*
G01*
X157046000Y-150180000D01*
G75*
G02*
X157246000Y-150380000I0J-200000D01*
G01*
X157246000Y-150930000D01*
G75*
G02*
X157046000Y-151130000I-200000J0D01*
G01*
X156646000Y-151130000D01*
G75*
G02*
X156446000Y-150930000I0J200000D01*
G01*
G37*
G36*
G01*
X158096000Y-149406000D02*
X158096000Y-148856000D01*
G75*
G02*
X158296000Y-148656000I200000J0D01*
G01*
X158696000Y-148656000D01*
G75*
G02*
X158896000Y-148856000I0J-200000D01*
G01*
X158896000Y-149406000D01*
G75*
G02*
X158696000Y-149606000I-200000J0D01*
G01*
X158296000Y-149606000D01*
G75*
G02*
X158096000Y-149406000I0J200000D01*
G01*
G37*
G36*
G01*
X156446000Y-149406000D02*
X156446000Y-148856000D01*
G75*
G02*
X156646000Y-148656000I200000J0D01*
G01*
X157046000Y-148656000D01*
G75*
G02*
X157246000Y-148856000I0J-200000D01*
G01*
X157246000Y-149406000D01*
G75*
G02*
X157046000Y-149606000I-200000J0D01*
G01*
X156646000Y-149606000D01*
G75*
G02*
X156446000Y-149406000I0J200000D01*
G01*
G37*
G36*
G01*
X178493000Y-150016000D02*
X178493000Y-149516000D01*
G75*
G02*
X178718000Y-149291000I225000J0D01*
G01*
X179168000Y-149291000D01*
G75*
G02*
X179393000Y-149516000I0J-225000D01*
G01*
X179393000Y-150016000D01*
G75*
G02*
X179168000Y-150241000I-225000J0D01*
G01*
X178718000Y-150241000D01*
G75*
G02*
X178493000Y-150016000I0J225000D01*
G01*
G37*
G36*
G01*
X176943000Y-150016000D02*
X176943000Y-149516000D01*
G75*
G02*
X177168000Y-149291000I225000J0D01*
G01*
X177618000Y-149291000D01*
G75*
G02*
X177843000Y-149516000I0J-225000D01*
G01*
X177843000Y-150016000D01*
G75*
G02*
X177618000Y-150241000I-225000J0D01*
G01*
X177168000Y-150241000D01*
G75*
G02*
X176943000Y-150016000I0J225000D01*
G01*
G37*
G36*
G01*
X181681000Y-150016000D02*
X181681000Y-149516000D01*
G75*
G02*
X181906000Y-149291000I225000J0D01*
G01*
X182356000Y-149291000D01*
G75*
G02*
X182581000Y-149516000I0J-225000D01*
G01*
X182581000Y-150016000D01*
G75*
G02*
X182356000Y-150241000I-225000J0D01*
G01*
X181906000Y-150241000D01*
G75*
G02*
X181681000Y-150016000I0J225000D01*
G01*
G37*
G36*
G01*
X180131000Y-150016000D02*
X180131000Y-149516000D01*
G75*
G02*
X180356000Y-149291000I225000J0D01*
G01*
X180806000Y-149291000D01*
G75*
G02*
X181031000Y-149516000I0J-225000D01*
G01*
X181031000Y-150016000D01*
G75*
G02*
X180806000Y-150241000I-225000J0D01*
G01*
X180356000Y-150241000D01*
G75*
G02*
X180131000Y-150016000I0J225000D01*
G01*
G37*
G36*
G01*
X181031000Y-143674000D02*
X181031000Y-144174000D01*
G75*
G02*
X180806000Y-144399000I-225000J0D01*
G01*
X180356000Y-144399000D01*
G75*
G02*
X180131000Y-144174000I0J225000D01*
G01*
X180131000Y-143674000D01*
G75*
G02*
X180356000Y-143449000I225000J0D01*
G01*
X180806000Y-143449000D01*
G75*
G02*
X181031000Y-143674000I0J-225000D01*
G01*
G37*
G36*
G01*
X182581000Y-143674000D02*
X182581000Y-144174000D01*
G75*
G02*
X182356000Y-144399000I-225000J0D01*
G01*
X181906000Y-144399000D01*
G75*
G02*
X181681000Y-144174000I0J225000D01*
G01*
X181681000Y-143674000D01*
G75*
G02*
X181906000Y-143449000I225000J0D01*
G01*
X182356000Y-143449000D01*
G75*
G02*
X182581000Y-143674000I0J-225000D01*
G01*
G37*
G36*
G01*
X160711000Y-152818000D02*
X160711000Y-153318000D01*
G75*
G02*
X160486000Y-153543000I-225000J0D01*
G01*
X160036000Y-153543000D01*
G75*
G02*
X159811000Y-153318000I0J225000D01*
G01*
X159811000Y-152818000D01*
G75*
G02*
X160036000Y-152593000I225000J0D01*
G01*
X160486000Y-152593000D01*
G75*
G02*
X160711000Y-152818000I0J-225000D01*
G01*
G37*
G36*
G01*
X162261000Y-152818000D02*
X162261000Y-153318000D01*
G75*
G02*
X162036000Y-153543000I-225000J0D01*
G01*
X161586000Y-153543000D01*
G75*
G02*
X161361000Y-153318000I0J225000D01*
G01*
X161361000Y-152818000D01*
G75*
G02*
X161586000Y-152593000I225000J0D01*
G01*
X162036000Y-152593000D01*
G75*
G02*
X162261000Y-152818000I0J-225000D01*
G01*
G37*
G36*
G01*
X160711000Y-151040000D02*
X160711000Y-151540000D01*
G75*
G02*
X160486000Y-151765000I-225000J0D01*
G01*
X160036000Y-151765000D01*
G75*
G02*
X159811000Y-151540000I0J225000D01*
G01*
X159811000Y-151040000D01*
G75*
G02*
X160036000Y-150815000I225000J0D01*
G01*
X160486000Y-150815000D01*
G75*
G02*
X160711000Y-151040000I0J-225000D01*
G01*
G37*
G36*
G01*
X162261000Y-151040000D02*
X162261000Y-151540000D01*
G75*
G02*
X162036000Y-151765000I-225000J0D01*
G01*
X161586000Y-151765000D01*
G75*
G02*
X161361000Y-151540000I0J225000D01*
G01*
X161361000Y-151040000D01*
G75*
G02*
X161586000Y-150815000I225000J0D01*
G01*
X162036000Y-150815000D01*
G75*
G02*
X162261000Y-151040000I0J-225000D01*
G01*
G37*
G36*
G01*
X170565000Y-156073000D02*
X171065000Y-156073000D01*
G75*
G02*
X171290000Y-156298000I0J-225000D01*
G01*
X171290000Y-156748000D01*
G75*
G02*
X171065000Y-156973000I-225000J0D01*
G01*
X170565000Y-156973000D01*
G75*
G02*
X170340000Y-156748000I0J225000D01*
G01*
X170340000Y-156298000D01*
G75*
G02*
X170565000Y-156073000I225000J0D01*
G01*
G37*
G36*
G01*
X170565000Y-154523000D02*
X171065000Y-154523000D01*
G75*
G02*
X171290000Y-154748000I0J-225000D01*
G01*
X171290000Y-155198000D01*
G75*
G02*
X171065000Y-155423000I-225000J0D01*
G01*
X170565000Y-155423000D01*
G75*
G02*
X170340000Y-155198000I0J225000D01*
G01*
X170340000Y-154748000D01*
G75*
G02*
X170565000Y-154523000I225000J0D01*
G01*
G37*
G36*
G01*
X171065000Y-140157000D02*
X170565000Y-140157000D01*
G75*
G02*
X170340000Y-139932000I0J225000D01*
G01*
X170340000Y-139482000D01*
G75*
G02*
X170565000Y-139257000I225000J0D01*
G01*
X171065000Y-139257000D01*
G75*
G02*
X171290000Y-139482000I0J-225000D01*
G01*
X171290000Y-139932000D01*
G75*
G02*
X171065000Y-140157000I-225000J0D01*
G01*
G37*
G36*
G01*
X171065000Y-141707000D02*
X170565000Y-141707000D01*
G75*
G02*
X170340000Y-141482000I0J225000D01*
G01*
X170340000Y-141032000D01*
G75*
G02*
X170565000Y-140807000I225000J0D01*
G01*
X171065000Y-140807000D01*
G75*
G02*
X171290000Y-141032000I0J-225000D01*
G01*
X171290000Y-141482000D01*
G75*
G02*
X171065000Y-141707000I-225000J0D01*
G01*
G37*
G36*
G01*
X160571000Y-148246000D02*
X160571000Y-148746000D01*
G75*
G02*
X160346000Y-148971000I-225000J0D01*
G01*
X159896000Y-148971000D01*
G75*
G02*
X159671000Y-148746000I0J225000D01*
G01*
X159671000Y-148246000D01*
G75*
G02*
X159896000Y-148021000I225000J0D01*
G01*
X160346000Y-148021000D01*
G75*
G02*
X160571000Y-148246000I0J-225000D01*
G01*
G37*
G36*
G01*
X162121000Y-148246000D02*
X162121000Y-148746000D01*
G75*
G02*
X161896000Y-148971000I-225000J0D01*
G01*
X161446000Y-148971000D01*
G75*
G02*
X161221000Y-148746000I0J225000D01*
G01*
X161221000Y-148246000D01*
G75*
G02*
X161446000Y-148021000I225000J0D01*
G01*
X161896000Y-148021000D01*
G75*
G02*
X162121000Y-148246000I0J-225000D01*
G01*
G37*
G36*
G01*
X166882000Y-156073000D02*
X167382000Y-156073000D01*
G75*
G02*
X167607000Y-156298000I0J-225000D01*
G01*
X167607000Y-156748000D01*
G75*
G02*
X167382000Y-156973000I-225000J0D01*
G01*
X166882000Y-156973000D01*
G75*
G02*
X166657000Y-156748000I0J225000D01*
G01*
X166657000Y-156298000D01*
G75*
G02*
X166882000Y-156073000I225000J0D01*
G01*
G37*
G36*
G01*
X166882000Y-154523000D02*
X167382000Y-154523000D01*
G75*
G02*
X167607000Y-154748000I0J-225000D01*
G01*
X167607000Y-155198000D01*
G75*
G02*
X167382000Y-155423000I-225000J0D01*
G01*
X166882000Y-155423000D01*
G75*
G02*
X166657000Y-155198000I0J225000D01*
G01*
X166657000Y-154748000D01*
G75*
G02*
X166882000Y-154523000I225000J0D01*
G01*
G37*
G36*
G01*
X150297000Y-139610000D02*
X150297000Y-140110000D01*
G75*
G02*
X150072000Y-140335000I-225000J0D01*
G01*
X149622000Y-140335000D01*
G75*
G02*
X149397000Y-140110000I0J225000D01*
G01*
X149397000Y-139610000D01*
G75*
G02*
X149622000Y-139385000I225000J0D01*
G01*
X150072000Y-139385000D01*
G75*
G02*
X150297000Y-139610000I0J-225000D01*
G01*
G37*
G36*
G01*
X151847000Y-139610000D02*
X151847000Y-140110000D01*
G75*
G02*
X151622000Y-140335000I-225000J0D01*
G01*
X151172000Y-140335000D01*
G75*
G02*
X150947000Y-140110000I0J225000D01*
G01*
X150947000Y-139610000D01*
G75*
G02*
X151172000Y-139385000I225000J0D01*
G01*
X151622000Y-139385000D01*
G75*
G02*
X151847000Y-139610000I0J-225000D01*
G01*
G37*
G36*
G01*
X165104000Y-156060000D02*
X165604000Y-156060000D01*
G75*
G02*
X165829000Y-156285000I0J-225000D01*
G01*
X165829000Y-156735000D01*
G75*
G02*
X165604000Y-156960000I-225000J0D01*
G01*
X165104000Y-156960000D01*
G75*
G02*
X164879000Y-156735000I0J225000D01*
G01*
X164879000Y-156285000D01*
G75*
G02*
X165104000Y-156060000I225000J0D01*
G01*
G37*
G36*
G01*
X165104000Y-154510000D02*
X165604000Y-154510000D01*
G75*
G02*
X165829000Y-154735000I0J-225000D01*
G01*
X165829000Y-155185000D01*
G75*
G02*
X165604000Y-155410000I-225000J0D01*
G01*
X165104000Y-155410000D01*
G75*
G02*
X164879000Y-155185000I0J225000D01*
G01*
X164879000Y-154735000D01*
G75*
G02*
X165104000Y-154510000I225000J0D01*
G01*
G37*
G36*
G01*
X167509000Y-140157000D02*
X167009000Y-140157000D01*
G75*
G02*
X166784000Y-139932000I0J225000D01*
G01*
X166784000Y-139482000D01*
G75*
G02*
X167009000Y-139257000I225000J0D01*
G01*
X167509000Y-139257000D01*
G75*
G02*
X167734000Y-139482000I0J-225000D01*
G01*
X167734000Y-139932000D01*
G75*
G02*
X167509000Y-140157000I-225000J0D01*
G01*
G37*
G36*
G01*
X167509000Y-141707000D02*
X167009000Y-141707000D01*
G75*
G02*
X166784000Y-141482000I0J225000D01*
G01*
X166784000Y-141032000D01*
G75*
G02*
X167009000Y-140807000I225000J0D01*
G01*
X167509000Y-140807000D01*
G75*
G02*
X167734000Y-141032000I0J-225000D01*
G01*
X167734000Y-141482000D01*
G75*
G02*
X167509000Y-141707000I-225000J0D01*
G01*
G37*
G36*
G01*
X178493000Y-151667000D02*
X178493000Y-151167000D01*
G75*
G02*
X178718000Y-150942000I225000J0D01*
G01*
X179168000Y-150942000D01*
G75*
G02*
X179393000Y-151167000I0J-225000D01*
G01*
X179393000Y-151667000D01*
G75*
G02*
X179168000Y-151892000I-225000J0D01*
G01*
X178718000Y-151892000D01*
G75*
G02*
X178493000Y-151667000I0J225000D01*
G01*
G37*
G36*
G01*
X176943000Y-151667000D02*
X176943000Y-151167000D01*
G75*
G02*
X177168000Y-150942000I225000J0D01*
G01*
X177618000Y-150942000D01*
G75*
G02*
X177843000Y-151167000I0J-225000D01*
G01*
X177843000Y-151667000D01*
G75*
G02*
X177618000Y-151892000I-225000J0D01*
G01*
X177168000Y-151892000D01*
G75*
G02*
X176943000Y-151667000I0J225000D01*
G01*
G37*
G36*
G01*
X160571000Y-146722000D02*
X160571000Y-147222000D01*
G75*
G02*
X160346000Y-147447000I-225000J0D01*
G01*
X159896000Y-147447000D01*
G75*
G02*
X159671000Y-147222000I0J225000D01*
G01*
X159671000Y-146722000D01*
G75*
G02*
X159896000Y-146497000I225000J0D01*
G01*
X160346000Y-146497000D01*
G75*
G02*
X160571000Y-146722000I0J-225000D01*
G01*
G37*
G36*
G01*
X162121000Y-146722000D02*
X162121000Y-147222000D01*
G75*
G02*
X161896000Y-147447000I-225000J0D01*
G01*
X161446000Y-147447000D01*
G75*
G02*
X161221000Y-147222000I0J225000D01*
G01*
X161221000Y-146722000D01*
G75*
G02*
X161446000Y-146497000I225000J0D01*
G01*
X161896000Y-146497000D01*
G75*
G02*
X162121000Y-146722000I0J-225000D01*
G01*
G37*
D20*
X89642000Y-47996000D03*
X88842000Y-47996000D03*
X83942000Y-47996000D03*
X83142000Y-47996000D03*
X83142000Y-47996000D03*
X83942000Y-47996000D03*
X88842000Y-47996000D03*
X89642000Y-47996000D03*
D21*
X84642000Y-47996000D03*
X85142000Y-47996000D03*
X85642000Y-47996000D03*
X86642000Y-47996000D03*
X87142000Y-47996000D03*
X87642000Y-47996000D03*
X88142000Y-47996000D03*
X86142000Y-47996000D03*
D15*
X325247000Y-153704000D03*
X325247000Y-157004000D03*
X322453000Y-153704000D03*
X322453000Y-157004000D03*
X298958000Y-153958000D03*
X298958000Y-157258000D03*
X275082000Y-153831000D03*
X275082000Y-157131000D03*
X203962000Y-153958000D03*
X203962000Y-157258000D03*
X132207000Y-154085000D03*
X132207000Y-157385000D03*
X108458000Y-153958000D03*
X108458000Y-157258000D03*
X84582000Y-153958000D03*
X84582000Y-157258000D03*
X329819000Y-130460000D03*
X329819000Y-127160000D03*
X294005000Y-130588000D03*
X294005000Y-127416000D03*
X274955000Y-130588000D03*
X274955000Y-127289000D03*
X255905000Y-130589000D03*
X255905000Y-127289000D03*
X236855000Y-130588000D03*
X236855000Y-127288000D03*
X217805000Y-130589000D03*
X217805000Y-127289000D03*
X198755000Y-130589000D03*
X198755000Y-127289000D03*
X179705000Y-130589000D03*
X179705000Y-127289000D03*
X160655000Y-130589000D03*
X160655000Y-127289000D03*
X141605000Y-130589000D03*
X141605000Y-127289000D03*
X122428000Y-130589000D03*
X122428000Y-127289000D03*
X91567000Y-130589000D03*
X91567000Y-127289000D03*
X338074000Y-110016000D03*
X338074000Y-113316000D03*
D16*
X301625000Y-120175000D03*
X298325000Y-120175000D03*
X282575000Y-120175000D03*
X279275000Y-120175000D03*
X263525000Y-120175000D03*
X260225000Y-120175000D03*
X244475000Y-120175000D03*
X241175000Y-120175000D03*
X225425000Y-120175000D03*
X222125000Y-120175000D03*
X206375000Y-120175000D03*
X203075000Y-120175000D03*
X187325000Y-120175000D03*
X184025000Y-120175000D03*
X168148000Y-120175000D03*
X164848000Y-120175000D03*
X149224000Y-120175000D03*
X145924000Y-120175000D03*
X130175000Y-120175000D03*
X126875000Y-120175000D03*
X110998000Y-120175000D03*
X107698000Y-120175000D03*
X84836000Y-120175000D03*
X81536000Y-120175000D03*
X332613000Y-101125000D03*
X329313000Y-101125000D03*
X308736000Y-100998000D03*
X305436000Y-100998000D03*
X296799000Y-101125000D03*
X293499000Y-101125000D03*
X277748000Y-101125000D03*
X274448000Y-101125000D03*
X258698000Y-101125000D03*
X255398000Y-101125000D03*
X239649000Y-101125000D03*
X236349000Y-101125000D03*
X220599000Y-101125000D03*
X217299000Y-101125000D03*
X201549000Y-101125000D03*
X198249000Y-101125000D03*
X182499000Y-101125000D03*
X179199000Y-101125000D03*
X163449000Y-101252000D03*
X160149000Y-101252000D03*
X144399000Y-101125000D03*
X141099000Y-101125000D03*
X125349000Y-101125000D03*
X122049000Y-101125000D03*
X106426000Y-101125000D03*
X103126000Y-101125000D03*
X82422000Y-101125000D03*
X79122000Y-101125000D03*
X334772000Y-82202000D03*
X331472000Y-82202000D03*
X306324000Y-82075000D03*
X303024000Y-82075000D03*
X287401000Y-82202000D03*
X284101000Y-82202000D03*
X268224000Y-82202000D03*
X264924000Y-82202000D03*
X249174000Y-82075000D03*
X245874000Y-82075000D03*
X230124000Y-82202000D03*
X226824000Y-82202000D03*
X211074000Y-82202000D03*
X207774000Y-82202000D03*
X192024000Y-82202000D03*
X188724000Y-82202000D03*
X172974000Y-82202000D03*
X169674000Y-82202000D03*
X153923000Y-82202000D03*
X150623000Y-82202000D03*
X134874000Y-82202000D03*
X131574000Y-82202000D03*
X115824000Y-82202000D03*
X112524000Y-82202000D03*
X96773000Y-82075000D03*
X93473000Y-82075000D03*
X77724000Y-82202000D03*
X74424000Y-82202000D03*
G36*
G01*
X78380000Y-44820000D02*
X77830000Y-44820000D01*
G75*
G02*
X77630000Y-44620000I0J200000D01*
G01*
X77630000Y-44220000D01*
G75*
G02*
X77830000Y-44020000I200000J0D01*
G01*
X78380000Y-44020000D01*
G75*
G02*
X78580000Y-44220000I0J-200000D01*
G01*
X78580000Y-44620000D01*
G75*
G02*
X78380000Y-44820000I-200000J0D01*
G01*
G37*
G36*
G01*
X78380000Y-46470000D02*
X77830000Y-46470000D01*
G75*
G02*
X77630000Y-46270000I0J200000D01*
G01*
X77630000Y-45870000D01*
G75*
G02*
X77830000Y-45670000I200000J0D01*
G01*
X78380000Y-45670000D01*
G75*
G02*
X78580000Y-45870000I0J-200000D01*
G01*
X78580000Y-46270000D01*
G75*
G02*
X78380000Y-46470000I-200000J0D01*
G01*
G37*
G36*
G01*
X97110000Y-48240000D02*
X97110000Y-48790000D01*
G75*
G02*
X96910000Y-48990000I-200000J0D01*
G01*
X96510000Y-48990000D01*
G75*
G02*
X96310000Y-48790000I0J200000D01*
G01*
X96310000Y-48240000D01*
G75*
G02*
X96510000Y-48040000I200000J0D01*
G01*
X96910000Y-48040000D01*
G75*
G02*
X97110000Y-48240000I0J-200000D01*
G01*
G37*
G36*
G01*
X95460000Y-48240000D02*
X95460000Y-48790000D01*
G75*
G02*
X95260000Y-48990000I-200000J0D01*
G01*
X94860000Y-48990000D01*
G75*
G02*
X94660000Y-48790000I0J200000D01*
G01*
X94660000Y-48240000D01*
G75*
G02*
X94860000Y-48040000I200000J0D01*
G01*
X95260000Y-48040000D01*
G75*
G02*
X95460000Y-48240000I0J-200000D01*
G01*
G37*
G36*
G01*
X168869283Y-146808283D02*
X169453717Y-146808283D01*
G75*
G02*
X169703717Y-147058283I0J-250000D01*
G01*
X169703717Y-147642717D01*
G75*
G02*
X169453717Y-147892717I-250000J0D01*
G01*
X168869283Y-147892717D01*
G75*
G02*
X168619283Y-147642717I0J250000D01*
G01*
X168619283Y-147058283D01*
G75*
G02*
X168869283Y-146808283I250000J0D01*
G01*
G37*
G36*
G01*
X170144283Y-146808283D02*
X170728717Y-146808283D01*
G75*
G02*
X170978717Y-147058283I0J-250000D01*
G01*
X170978717Y-147642717D01*
G75*
G02*
X170728717Y-147892717I-250000J0D01*
G01*
X170144283Y-147892717D01*
G75*
G02*
X169894283Y-147642717I0J250000D01*
G01*
X169894283Y-147058283D01*
G75*
G02*
X170144283Y-146808283I250000J0D01*
G01*
G37*
G36*
G01*
X168869283Y-148083283D02*
X169453717Y-148083283D01*
G75*
G02*
X169703717Y-148333283I0J-250000D01*
G01*
X169703717Y-148917717D01*
G75*
G02*
X169453717Y-149167717I-250000J0D01*
G01*
X168869283Y-149167717D01*
G75*
G02*
X168619283Y-148917717I0J250000D01*
G01*
X168619283Y-148333283D01*
G75*
G02*
X168869283Y-148083283I250000J0D01*
G01*
G37*
G36*
G01*
X170144283Y-148083283D02*
X170728717Y-148083283D01*
G75*
G02*
X170978717Y-148333283I0J-250000D01*
G01*
X170978717Y-148917717D01*
G75*
G02*
X170728717Y-149167717I-250000J0D01*
G01*
X170144283Y-149167717D01*
G75*
G02*
X169894283Y-148917717I0J250000D01*
G01*
X169894283Y-148333283D01*
G75*
G02*
X170144283Y-148083283I250000J0D01*
G01*
G37*
G36*
G01*
X167149000Y-144113000D02*
X167249000Y-144113000D01*
G75*
G02*
X167299000Y-144163000I0J-50000D01*
G01*
X167299000Y-144938000D01*
G75*
G02*
X167249000Y-144988000I-50000J0D01*
G01*
X167149000Y-144988000D01*
G75*
G02*
X167099000Y-144938000I0J50000D01*
G01*
X167099000Y-144163000D01*
G75*
G02*
X167149000Y-144113000I50000J0D01*
G01*
G37*
G36*
G01*
X167549000Y-144113000D02*
X167649000Y-144113000D01*
G75*
G02*
X167699000Y-144163000I0J-50000D01*
G01*
X167699000Y-144938000D01*
G75*
G02*
X167649000Y-144988000I-50000J0D01*
G01*
X167549000Y-144988000D01*
G75*
G02*
X167499000Y-144938000I0J50000D01*
G01*
X167499000Y-144163000D01*
G75*
G02*
X167549000Y-144113000I50000J0D01*
G01*
G37*
G36*
G01*
X167949000Y-144113000D02*
X168049000Y-144113000D01*
G75*
G02*
X168099000Y-144163000I0J-50000D01*
G01*
X168099000Y-144938000D01*
G75*
G02*
X168049000Y-144988000I-50000J0D01*
G01*
X167949000Y-144988000D01*
G75*
G02*
X167899000Y-144938000I0J50000D01*
G01*
X167899000Y-144163000D01*
G75*
G02*
X167949000Y-144113000I50000J0D01*
G01*
G37*
G36*
G01*
X168349000Y-144113000D02*
X168449000Y-144113000D01*
G75*
G02*
X168499000Y-144163000I0J-50000D01*
G01*
X168499000Y-144938000D01*
G75*
G02*
X168449000Y-144988000I-50000J0D01*
G01*
X168349000Y-144988000D01*
G75*
G02*
X168299000Y-144938000I0J50000D01*
G01*
X168299000Y-144163000D01*
G75*
G02*
X168349000Y-144113000I50000J0D01*
G01*
G37*
G36*
G01*
X168749000Y-144113000D02*
X168849000Y-144113000D01*
G75*
G02*
X168899000Y-144163000I0J-50000D01*
G01*
X168899000Y-144938000D01*
G75*
G02*
X168849000Y-144988000I-50000J0D01*
G01*
X168749000Y-144988000D01*
G75*
G02*
X168699000Y-144938000I0J50000D01*
G01*
X168699000Y-144163000D01*
G75*
G02*
X168749000Y-144113000I50000J0D01*
G01*
G37*
G36*
G01*
X169149000Y-144113000D02*
X169249000Y-144113000D01*
G75*
G02*
X169299000Y-144163000I0J-50000D01*
G01*
X169299000Y-144938000D01*
G75*
G02*
X169249000Y-144988000I-50000J0D01*
G01*
X169149000Y-144988000D01*
G75*
G02*
X169099000Y-144938000I0J50000D01*
G01*
X169099000Y-144163000D01*
G75*
G02*
X169149000Y-144113000I50000J0D01*
G01*
G37*
G36*
G01*
X169549000Y-144113000D02*
X169649000Y-144113000D01*
G75*
G02*
X169699000Y-144163000I0J-50000D01*
G01*
X169699000Y-144938000D01*
G75*
G02*
X169649000Y-144988000I-50000J0D01*
G01*
X169549000Y-144988000D01*
G75*
G02*
X169499000Y-144938000I0J50000D01*
G01*
X169499000Y-144163000D01*
G75*
G02*
X169549000Y-144113000I50000J0D01*
G01*
G37*
G36*
G01*
X169949000Y-144113000D02*
X170049000Y-144113000D01*
G75*
G02*
X170099000Y-144163000I0J-50000D01*
G01*
X170099000Y-144938000D01*
G75*
G02*
X170049000Y-144988000I-50000J0D01*
G01*
X169949000Y-144988000D01*
G75*
G02*
X169899000Y-144938000I0J50000D01*
G01*
X169899000Y-144163000D01*
G75*
G02*
X169949000Y-144113000I50000J0D01*
G01*
G37*
G36*
G01*
X170349000Y-144113000D02*
X170449000Y-144113000D01*
G75*
G02*
X170499000Y-144163000I0J-50000D01*
G01*
X170499000Y-144938000D01*
G75*
G02*
X170449000Y-144988000I-50000J0D01*
G01*
X170349000Y-144988000D01*
G75*
G02*
X170299000Y-144938000I0J50000D01*
G01*
X170299000Y-144163000D01*
G75*
G02*
X170349000Y-144113000I50000J0D01*
G01*
G37*
G36*
G01*
X170749000Y-144113000D02*
X170849000Y-144113000D01*
G75*
G02*
X170899000Y-144163000I0J-50000D01*
G01*
X170899000Y-144938000D01*
G75*
G02*
X170849000Y-144988000I-50000J0D01*
G01*
X170749000Y-144988000D01*
G75*
G02*
X170699000Y-144938000I0J50000D01*
G01*
X170699000Y-144163000D01*
G75*
G02*
X170749000Y-144113000I50000J0D01*
G01*
G37*
G36*
G01*
X171149000Y-144113000D02*
X171249000Y-144113000D01*
G75*
G02*
X171299000Y-144163000I0J-50000D01*
G01*
X171299000Y-144938000D01*
G75*
G02*
X171249000Y-144988000I-50000J0D01*
G01*
X171149000Y-144988000D01*
G75*
G02*
X171099000Y-144938000I0J50000D01*
G01*
X171099000Y-144163000D01*
G75*
G02*
X171149000Y-144113000I50000J0D01*
G01*
G37*
G36*
G01*
X171549000Y-144113000D02*
X171649000Y-144113000D01*
G75*
G02*
X171699000Y-144163000I0J-50000D01*
G01*
X171699000Y-144938000D01*
G75*
G02*
X171649000Y-144988000I-50000J0D01*
G01*
X171549000Y-144988000D01*
G75*
G02*
X171499000Y-144938000I0J50000D01*
G01*
X171499000Y-144163000D01*
G75*
G02*
X171549000Y-144113000I50000J0D01*
G01*
G37*
G36*
G01*
X171949000Y-144113000D02*
X172049000Y-144113000D01*
G75*
G02*
X172099000Y-144163000I0J-50000D01*
G01*
X172099000Y-144938000D01*
G75*
G02*
X172049000Y-144988000I-50000J0D01*
G01*
X171949000Y-144988000D01*
G75*
G02*
X171899000Y-144938000I0J50000D01*
G01*
X171899000Y-144163000D01*
G75*
G02*
X171949000Y-144113000I50000J0D01*
G01*
G37*
G36*
G01*
X172349000Y-144113000D02*
X172449000Y-144113000D01*
G75*
G02*
X172499000Y-144163000I0J-50000D01*
G01*
X172499000Y-144938000D01*
G75*
G02*
X172449000Y-144988000I-50000J0D01*
G01*
X172349000Y-144988000D01*
G75*
G02*
X172299000Y-144938000I0J50000D01*
G01*
X172299000Y-144163000D01*
G75*
G02*
X172349000Y-144113000I50000J0D01*
G01*
G37*
G36*
G01*
X172849000Y-145288000D02*
X173624000Y-145288000D01*
G75*
G02*
X173674000Y-145338000I0J-50000D01*
G01*
X173674000Y-145438000D01*
G75*
G02*
X173624000Y-145488000I-50000J0D01*
G01*
X172849000Y-145488000D01*
G75*
G02*
X172799000Y-145438000I0J50000D01*
G01*
X172799000Y-145338000D01*
G75*
G02*
X172849000Y-145288000I50000J0D01*
G01*
G37*
G36*
G01*
X172849000Y-145688000D02*
X173624000Y-145688000D01*
G75*
G02*
X173674000Y-145738000I0J-50000D01*
G01*
X173674000Y-145838000D01*
G75*
G02*
X173624000Y-145888000I-50000J0D01*
G01*
X172849000Y-145888000D01*
G75*
G02*
X172799000Y-145838000I0J50000D01*
G01*
X172799000Y-145738000D01*
G75*
G02*
X172849000Y-145688000I50000J0D01*
G01*
G37*
G36*
G01*
X172849000Y-146088000D02*
X173624000Y-146088000D01*
G75*
G02*
X173674000Y-146138000I0J-50000D01*
G01*
X173674000Y-146238000D01*
G75*
G02*
X173624000Y-146288000I-50000J0D01*
G01*
X172849000Y-146288000D01*
G75*
G02*
X172799000Y-146238000I0J50000D01*
G01*
X172799000Y-146138000D01*
G75*
G02*
X172849000Y-146088000I50000J0D01*
G01*
G37*
G36*
G01*
X172849000Y-146488000D02*
X173624000Y-146488000D01*
G75*
G02*
X173674000Y-146538000I0J-50000D01*
G01*
X173674000Y-146638000D01*
G75*
G02*
X173624000Y-146688000I-50000J0D01*
G01*
X172849000Y-146688000D01*
G75*
G02*
X172799000Y-146638000I0J50000D01*
G01*
X172799000Y-146538000D01*
G75*
G02*
X172849000Y-146488000I50000J0D01*
G01*
G37*
G36*
G01*
X172849000Y-146888000D02*
X173624000Y-146888000D01*
G75*
G02*
X173674000Y-146938000I0J-50000D01*
G01*
X173674000Y-147038000D01*
G75*
G02*
X173624000Y-147088000I-50000J0D01*
G01*
X172849000Y-147088000D01*
G75*
G02*
X172799000Y-147038000I0J50000D01*
G01*
X172799000Y-146938000D01*
G75*
G02*
X172849000Y-146888000I50000J0D01*
G01*
G37*
G36*
G01*
X172849000Y-147288000D02*
X173624000Y-147288000D01*
G75*
G02*
X173674000Y-147338000I0J-50000D01*
G01*
X173674000Y-147438000D01*
G75*
G02*
X173624000Y-147488000I-50000J0D01*
G01*
X172849000Y-147488000D01*
G75*
G02*
X172799000Y-147438000I0J50000D01*
G01*
X172799000Y-147338000D01*
G75*
G02*
X172849000Y-147288000I50000J0D01*
G01*
G37*
G36*
G01*
X172849000Y-147688000D02*
X173624000Y-147688000D01*
G75*
G02*
X173674000Y-147738000I0J-50000D01*
G01*
X173674000Y-147838000D01*
G75*
G02*
X173624000Y-147888000I-50000J0D01*
G01*
X172849000Y-147888000D01*
G75*
G02*
X172799000Y-147838000I0J50000D01*
G01*
X172799000Y-147738000D01*
G75*
G02*
X172849000Y-147688000I50000J0D01*
G01*
G37*
G36*
G01*
X172849000Y-148088000D02*
X173624000Y-148088000D01*
G75*
G02*
X173674000Y-148138000I0J-50000D01*
G01*
X173674000Y-148238000D01*
G75*
G02*
X173624000Y-148288000I-50000J0D01*
G01*
X172849000Y-148288000D01*
G75*
G02*
X172799000Y-148238000I0J50000D01*
G01*
X172799000Y-148138000D01*
G75*
G02*
X172849000Y-148088000I50000J0D01*
G01*
G37*
G36*
G01*
X172849000Y-148488000D02*
X173624000Y-148488000D01*
G75*
G02*
X173674000Y-148538000I0J-50000D01*
G01*
X173674000Y-148638000D01*
G75*
G02*
X173624000Y-148688000I-50000J0D01*
G01*
X172849000Y-148688000D01*
G75*
G02*
X172799000Y-148638000I0J50000D01*
G01*
X172799000Y-148538000D01*
G75*
G02*
X172849000Y-148488000I50000J0D01*
G01*
G37*
G36*
G01*
X172849000Y-148888000D02*
X173624000Y-148888000D01*
G75*
G02*
X173674000Y-148938000I0J-50000D01*
G01*
X173674000Y-149038000D01*
G75*
G02*
X173624000Y-149088000I-50000J0D01*
G01*
X172849000Y-149088000D01*
G75*
G02*
X172799000Y-149038000I0J50000D01*
G01*
X172799000Y-148938000D01*
G75*
G02*
X172849000Y-148888000I50000J0D01*
G01*
G37*
G36*
G01*
X172849000Y-149288000D02*
X173624000Y-149288000D01*
G75*
G02*
X173674000Y-149338000I0J-50000D01*
G01*
X173674000Y-149438000D01*
G75*
G02*
X173624000Y-149488000I-50000J0D01*
G01*
X172849000Y-149488000D01*
G75*
G02*
X172799000Y-149438000I0J50000D01*
G01*
X172799000Y-149338000D01*
G75*
G02*
X172849000Y-149288000I50000J0D01*
G01*
G37*
G36*
G01*
X172849000Y-149688000D02*
X173624000Y-149688000D01*
G75*
G02*
X173674000Y-149738000I0J-50000D01*
G01*
X173674000Y-149838000D01*
G75*
G02*
X173624000Y-149888000I-50000J0D01*
G01*
X172849000Y-149888000D01*
G75*
G02*
X172799000Y-149838000I0J50000D01*
G01*
X172799000Y-149738000D01*
G75*
G02*
X172849000Y-149688000I50000J0D01*
G01*
G37*
G36*
G01*
X172849000Y-150088000D02*
X173624000Y-150088000D01*
G75*
G02*
X173674000Y-150138000I0J-50000D01*
G01*
X173674000Y-150238000D01*
G75*
G02*
X173624000Y-150288000I-50000J0D01*
G01*
X172849000Y-150288000D01*
G75*
G02*
X172799000Y-150238000I0J50000D01*
G01*
X172799000Y-150138000D01*
G75*
G02*
X172849000Y-150088000I50000J0D01*
G01*
G37*
G36*
G01*
X172849000Y-150488000D02*
X173624000Y-150488000D01*
G75*
G02*
X173674000Y-150538000I0J-50000D01*
G01*
X173674000Y-150638000D01*
G75*
G02*
X173624000Y-150688000I-50000J0D01*
G01*
X172849000Y-150688000D01*
G75*
G02*
X172799000Y-150638000I0J50000D01*
G01*
X172799000Y-150538000D01*
G75*
G02*
X172849000Y-150488000I50000J0D01*
G01*
G37*
G36*
G01*
X172349000Y-150988000D02*
X172449000Y-150988000D01*
G75*
G02*
X172499000Y-151038000I0J-50000D01*
G01*
X172499000Y-151813000D01*
G75*
G02*
X172449000Y-151863000I-50000J0D01*
G01*
X172349000Y-151863000D01*
G75*
G02*
X172299000Y-151813000I0J50000D01*
G01*
X172299000Y-151038000D01*
G75*
G02*
X172349000Y-150988000I50000J0D01*
G01*
G37*
G36*
G01*
X171949000Y-150988000D02*
X172049000Y-150988000D01*
G75*
G02*
X172099000Y-151038000I0J-50000D01*
G01*
X172099000Y-151813000D01*
G75*
G02*
X172049000Y-151863000I-50000J0D01*
G01*
X171949000Y-151863000D01*
G75*
G02*
X171899000Y-151813000I0J50000D01*
G01*
X171899000Y-151038000D01*
G75*
G02*
X171949000Y-150988000I50000J0D01*
G01*
G37*
G36*
G01*
X171549000Y-150988000D02*
X171649000Y-150988000D01*
G75*
G02*
X171699000Y-151038000I0J-50000D01*
G01*
X171699000Y-151813000D01*
G75*
G02*
X171649000Y-151863000I-50000J0D01*
G01*
X171549000Y-151863000D01*
G75*
G02*
X171499000Y-151813000I0J50000D01*
G01*
X171499000Y-151038000D01*
G75*
G02*
X171549000Y-150988000I50000J0D01*
G01*
G37*
G36*
G01*
X171149000Y-150988000D02*
X171249000Y-150988000D01*
G75*
G02*
X171299000Y-151038000I0J-50000D01*
G01*
X171299000Y-151813000D01*
G75*
G02*
X171249000Y-151863000I-50000J0D01*
G01*
X171149000Y-151863000D01*
G75*
G02*
X171099000Y-151813000I0J50000D01*
G01*
X171099000Y-151038000D01*
G75*
G02*
X171149000Y-150988000I50000J0D01*
G01*
G37*
G36*
G01*
X170749000Y-150988000D02*
X170849000Y-150988000D01*
G75*
G02*
X170899000Y-151038000I0J-50000D01*
G01*
X170899000Y-151813000D01*
G75*
G02*
X170849000Y-151863000I-50000J0D01*
G01*
X170749000Y-151863000D01*
G75*
G02*
X170699000Y-151813000I0J50000D01*
G01*
X170699000Y-151038000D01*
G75*
G02*
X170749000Y-150988000I50000J0D01*
G01*
G37*
G36*
G01*
X170349000Y-150988000D02*
X170449000Y-150988000D01*
G75*
G02*
X170499000Y-151038000I0J-50000D01*
G01*
X170499000Y-151813000D01*
G75*
G02*
X170449000Y-151863000I-50000J0D01*
G01*
X170349000Y-151863000D01*
G75*
G02*
X170299000Y-151813000I0J50000D01*
G01*
X170299000Y-151038000D01*
G75*
G02*
X170349000Y-150988000I50000J0D01*
G01*
G37*
G36*
G01*
X169949000Y-150988000D02*
X170049000Y-150988000D01*
G75*
G02*
X170099000Y-151038000I0J-50000D01*
G01*
X170099000Y-151813000D01*
G75*
G02*
X170049000Y-151863000I-50000J0D01*
G01*
X169949000Y-151863000D01*
G75*
G02*
X169899000Y-151813000I0J50000D01*
G01*
X169899000Y-151038000D01*
G75*
G02*
X169949000Y-150988000I50000J0D01*
G01*
G37*
G36*
G01*
X169549000Y-150988000D02*
X169649000Y-150988000D01*
G75*
G02*
X169699000Y-151038000I0J-50000D01*
G01*
X169699000Y-151813000D01*
G75*
G02*
X169649000Y-151863000I-50000J0D01*
G01*
X169549000Y-151863000D01*
G75*
G02*
X169499000Y-151813000I0J50000D01*
G01*
X169499000Y-151038000D01*
G75*
G02*
X169549000Y-150988000I50000J0D01*
G01*
G37*
G36*
G01*
X169149000Y-150988000D02*
X169249000Y-150988000D01*
G75*
G02*
X169299000Y-151038000I0J-50000D01*
G01*
X169299000Y-151813000D01*
G75*
G02*
X169249000Y-151863000I-50000J0D01*
G01*
X169149000Y-151863000D01*
G75*
G02*
X169099000Y-151813000I0J50000D01*
G01*
X169099000Y-151038000D01*
G75*
G02*
X169149000Y-150988000I50000J0D01*
G01*
G37*
G36*
G01*
X168749000Y-150988000D02*
X168849000Y-150988000D01*
G75*
G02*
X168899000Y-151038000I0J-50000D01*
G01*
X168899000Y-151813000D01*
G75*
G02*
X168849000Y-151863000I-50000J0D01*
G01*
X168749000Y-151863000D01*
G75*
G02*
X168699000Y-151813000I0J50000D01*
G01*
X168699000Y-151038000D01*
G75*
G02*
X168749000Y-150988000I50000J0D01*
G01*
G37*
G36*
G01*
X168349000Y-150988000D02*
X168449000Y-150988000D01*
G75*
G02*
X168499000Y-151038000I0J-50000D01*
G01*
X168499000Y-151813000D01*
G75*
G02*
X168449000Y-151863000I-50000J0D01*
G01*
X168349000Y-151863000D01*
G75*
G02*
X168299000Y-151813000I0J50000D01*
G01*
X168299000Y-151038000D01*
G75*
G02*
X168349000Y-150988000I50000J0D01*
G01*
G37*
G36*
G01*
X167949000Y-150988000D02*
X168049000Y-150988000D01*
G75*
G02*
X168099000Y-151038000I0J-50000D01*
G01*
X168099000Y-151813000D01*
G75*
G02*
X168049000Y-151863000I-50000J0D01*
G01*
X167949000Y-151863000D01*
G75*
G02*
X167899000Y-151813000I0J50000D01*
G01*
X167899000Y-151038000D01*
G75*
G02*
X167949000Y-150988000I50000J0D01*
G01*
G37*
G36*
G01*
X167549000Y-150988000D02*
X167649000Y-150988000D01*
G75*
G02*
X167699000Y-151038000I0J-50000D01*
G01*
X167699000Y-151813000D01*
G75*
G02*
X167649000Y-151863000I-50000J0D01*
G01*
X167549000Y-151863000D01*
G75*
G02*
X167499000Y-151813000I0J50000D01*
G01*
X167499000Y-151038000D01*
G75*
G02*
X167549000Y-150988000I50000J0D01*
G01*
G37*
G36*
G01*
X167149000Y-150988000D02*
X167249000Y-150988000D01*
G75*
G02*
X167299000Y-151038000I0J-50000D01*
G01*
X167299000Y-151813000D01*
G75*
G02*
X167249000Y-151863000I-50000J0D01*
G01*
X167149000Y-151863000D01*
G75*
G02*
X167099000Y-151813000I0J50000D01*
G01*
X167099000Y-151038000D01*
G75*
G02*
X167149000Y-150988000I50000J0D01*
G01*
G37*
G36*
G01*
X165974000Y-150488000D02*
X166749000Y-150488000D01*
G75*
G02*
X166799000Y-150538000I0J-50000D01*
G01*
X166799000Y-150638000D01*
G75*
G02*
X166749000Y-150688000I-50000J0D01*
G01*
X165974000Y-150688000D01*
G75*
G02*
X165924000Y-150638000I0J50000D01*
G01*
X165924000Y-150538000D01*
G75*
G02*
X165974000Y-150488000I50000J0D01*
G01*
G37*
G36*
G01*
X165974000Y-150088000D02*
X166749000Y-150088000D01*
G75*
G02*
X166799000Y-150138000I0J-50000D01*
G01*
X166799000Y-150238000D01*
G75*
G02*
X166749000Y-150288000I-50000J0D01*
G01*
X165974000Y-150288000D01*
G75*
G02*
X165924000Y-150238000I0J50000D01*
G01*
X165924000Y-150138000D01*
G75*
G02*
X165974000Y-150088000I50000J0D01*
G01*
G37*
G36*
G01*
X165974000Y-149688000D02*
X166749000Y-149688000D01*
G75*
G02*
X166799000Y-149738000I0J-50000D01*
G01*
X166799000Y-149838000D01*
G75*
G02*
X166749000Y-149888000I-50000J0D01*
G01*
X165974000Y-149888000D01*
G75*
G02*
X165924000Y-149838000I0J50000D01*
G01*
X165924000Y-149738000D01*
G75*
G02*
X165974000Y-149688000I50000J0D01*
G01*
G37*
G36*
G01*
X165974000Y-149288000D02*
X166749000Y-149288000D01*
G75*
G02*
X166799000Y-149338000I0J-50000D01*
G01*
X166799000Y-149438000D01*
G75*
G02*
X166749000Y-149488000I-50000J0D01*
G01*
X165974000Y-149488000D01*
G75*
G02*
X165924000Y-149438000I0J50000D01*
G01*
X165924000Y-149338000D01*
G75*
G02*
X165974000Y-149288000I50000J0D01*
G01*
G37*
G36*
G01*
X165974000Y-148888000D02*
X166749000Y-148888000D01*
G75*
G02*
X166799000Y-148938000I0J-50000D01*
G01*
X166799000Y-149038000D01*
G75*
G02*
X166749000Y-149088000I-50000J0D01*
G01*
X165974000Y-149088000D01*
G75*
G02*
X165924000Y-149038000I0J50000D01*
G01*
X165924000Y-148938000D01*
G75*
G02*
X165974000Y-148888000I50000J0D01*
G01*
G37*
G36*
G01*
X165974000Y-148488000D02*
X166749000Y-148488000D01*
G75*
G02*
X166799000Y-148538000I0J-50000D01*
G01*
X166799000Y-148638000D01*
G75*
G02*
X166749000Y-148688000I-50000J0D01*
G01*
X165974000Y-148688000D01*
G75*
G02*
X165924000Y-148638000I0J50000D01*
G01*
X165924000Y-148538000D01*
G75*
G02*
X165974000Y-148488000I50000J0D01*
G01*
G37*
G36*
G01*
X165974000Y-148088000D02*
X166749000Y-148088000D01*
G75*
G02*
X166799000Y-148138000I0J-50000D01*
G01*
X166799000Y-148238000D01*
G75*
G02*
X166749000Y-148288000I-50000J0D01*
G01*
X165974000Y-148288000D01*
G75*
G02*
X165924000Y-148238000I0J50000D01*
G01*
X165924000Y-148138000D01*
G75*
G02*
X165974000Y-148088000I50000J0D01*
G01*
G37*
G36*
G01*
X165974000Y-147688000D02*
X166749000Y-147688000D01*
G75*
G02*
X166799000Y-147738000I0J-50000D01*
G01*
X166799000Y-147838000D01*
G75*
G02*
X166749000Y-147888000I-50000J0D01*
G01*
X165974000Y-147888000D01*
G75*
G02*
X165924000Y-147838000I0J50000D01*
G01*
X165924000Y-147738000D01*
G75*
G02*
X165974000Y-147688000I50000J0D01*
G01*
G37*
G36*
G01*
X165974000Y-147288000D02*
X166749000Y-147288000D01*
G75*
G02*
X166799000Y-147338000I0J-50000D01*
G01*
X166799000Y-147438000D01*
G75*
G02*
X166749000Y-147488000I-50000J0D01*
G01*
X165974000Y-147488000D01*
G75*
G02*
X165924000Y-147438000I0J50000D01*
G01*
X165924000Y-147338000D01*
G75*
G02*
X165974000Y-147288000I50000J0D01*
G01*
G37*
G36*
G01*
X165974000Y-146888000D02*
X166749000Y-146888000D01*
G75*
G02*
X166799000Y-146938000I0J-50000D01*
G01*
X166799000Y-147038000D01*
G75*
G02*
X166749000Y-147088000I-50000J0D01*
G01*
X165974000Y-147088000D01*
G75*
G02*
X165924000Y-147038000I0J50000D01*
G01*
X165924000Y-146938000D01*
G75*
G02*
X165974000Y-146888000I50000J0D01*
G01*
G37*
G36*
G01*
X165974000Y-146488000D02*
X166749000Y-146488000D01*
G75*
G02*
X166799000Y-146538000I0J-50000D01*
G01*
X166799000Y-146638000D01*
G75*
G02*
X166749000Y-146688000I-50000J0D01*
G01*
X165974000Y-146688000D01*
G75*
G02*
X165924000Y-146638000I0J50000D01*
G01*
X165924000Y-146538000D01*
G75*
G02*
X165974000Y-146488000I50000J0D01*
G01*
G37*
G36*
G01*
X165974000Y-146088000D02*
X166749000Y-146088000D01*
G75*
G02*
X166799000Y-146138000I0J-50000D01*
G01*
X166799000Y-146238000D01*
G75*
G02*
X166749000Y-146288000I-50000J0D01*
G01*
X165974000Y-146288000D01*
G75*
G02*
X165924000Y-146238000I0J50000D01*
G01*
X165924000Y-146138000D01*
G75*
G02*
X165974000Y-146088000I50000J0D01*
G01*
G37*
G36*
G01*
X165974000Y-145688000D02*
X166749000Y-145688000D01*
G75*
G02*
X166799000Y-145738000I0J-50000D01*
G01*
X166799000Y-145838000D01*
G75*
G02*
X166749000Y-145888000I-50000J0D01*
G01*
X165974000Y-145888000D01*
G75*
G02*
X165924000Y-145838000I0J50000D01*
G01*
X165924000Y-145738000D01*
G75*
G02*
X165974000Y-145688000I50000J0D01*
G01*
G37*
G36*
G01*
X165974000Y-145288000D02*
X166749000Y-145288000D01*
G75*
G02*
X166799000Y-145338000I0J-50000D01*
G01*
X166799000Y-145438000D01*
G75*
G02*
X166749000Y-145488000I-50000J0D01*
G01*
X165974000Y-145488000D01*
G75*
G02*
X165924000Y-145438000I0J50000D01*
G01*
X165924000Y-145338000D01*
G75*
G02*
X165974000Y-145288000I50000J0D01*
G01*
G37*
D22*
X87315000Y-84955000D03*
X88265000Y-84955000D03*
X89215000Y-84955000D03*
X89215000Y-87155000D03*
X87315000Y-87155000D03*
X88265000Y-87155000D03*
G36*
G01*
X162007000Y-139710000D02*
X162007000Y-140010000D01*
G75*
G02*
X161857000Y-140160000I-150000J0D01*
G01*
X160557000Y-140160000D01*
G75*
G02*
X160407000Y-140010000I0J150000D01*
G01*
X160407000Y-139710000D01*
G75*
G02*
X160557000Y-139560000I150000J0D01*
G01*
X161857000Y-139560000D01*
G75*
G02*
X162007000Y-139710000I0J-150000D01*
G01*
G37*
G36*
G01*
X162007000Y-140980000D02*
X162007000Y-141280000D01*
G75*
G02*
X161857000Y-141430000I-150000J0D01*
G01*
X160557000Y-141430000D01*
G75*
G02*
X160407000Y-141280000I0J150000D01*
G01*
X160407000Y-140980000D01*
G75*
G02*
X160557000Y-140830000I150000J0D01*
G01*
X161857000Y-140830000D01*
G75*
G02*
X162007000Y-140980000I0J-150000D01*
G01*
G37*
G36*
G01*
X162007000Y-142250000D02*
X162007000Y-142550000D01*
G75*
G02*
X161857000Y-142700000I-150000J0D01*
G01*
X160557000Y-142700000D01*
G75*
G02*
X160407000Y-142550000I0J150000D01*
G01*
X160407000Y-142250000D01*
G75*
G02*
X160557000Y-142100000I150000J0D01*
G01*
X161857000Y-142100000D01*
G75*
G02*
X162007000Y-142250000I0J-150000D01*
G01*
G37*
G36*
G01*
X162007000Y-143520000D02*
X162007000Y-143820000D01*
G75*
G02*
X161857000Y-143970000I-150000J0D01*
G01*
X160557000Y-143970000D01*
G75*
G02*
X160407000Y-143820000I0J150000D01*
G01*
X160407000Y-143520000D01*
G75*
G02*
X160557000Y-143370000I150000J0D01*
G01*
X161857000Y-143370000D01*
G75*
G02*
X162007000Y-143520000I0J-150000D01*
G01*
G37*
G36*
G01*
X154807000Y-143520000D02*
X154807000Y-143820000D01*
G75*
G02*
X154657000Y-143970000I-150000J0D01*
G01*
X153357000Y-143970000D01*
G75*
G02*
X153207000Y-143820000I0J150000D01*
G01*
X153207000Y-143520000D01*
G75*
G02*
X153357000Y-143370000I150000J0D01*
G01*
X154657000Y-143370000D01*
G75*
G02*
X154807000Y-143520000I0J-150000D01*
G01*
G37*
G36*
G01*
X154807000Y-142250000D02*
X154807000Y-142550000D01*
G75*
G02*
X154657000Y-142700000I-150000J0D01*
G01*
X153357000Y-142700000D01*
G75*
G02*
X153207000Y-142550000I0J150000D01*
G01*
X153207000Y-142250000D01*
G75*
G02*
X153357000Y-142100000I150000J0D01*
G01*
X154657000Y-142100000D01*
G75*
G02*
X154807000Y-142250000I0J-150000D01*
G01*
G37*
G36*
G01*
X154807000Y-140980000D02*
X154807000Y-141280000D01*
G75*
G02*
X154657000Y-141430000I-150000J0D01*
G01*
X153357000Y-141430000D01*
G75*
G02*
X153207000Y-141280000I0J150000D01*
G01*
X153207000Y-140980000D01*
G75*
G02*
X153357000Y-140830000I150000J0D01*
G01*
X154657000Y-140830000D01*
G75*
G02*
X154807000Y-140980000I0J-150000D01*
G01*
G37*
G36*
G01*
X154807000Y-139710000D02*
X154807000Y-140010000D01*
G75*
G02*
X154657000Y-140160000I-150000J0D01*
G01*
X153357000Y-140160000D01*
G75*
G02*
X153207000Y-140010000I0J150000D01*
G01*
X153207000Y-139710000D01*
G75*
G02*
X153357000Y-139560000I150000J0D01*
G01*
X154657000Y-139560000D01*
G75*
G02*
X154807000Y-139710000I0J-150000D01*
G01*
G37*
D23*
X95675000Y-44905000D03*
X98675000Y-44905000D03*
X100175000Y-44905000D03*
D24*
X94275000Y-42045000D03*
X101575000Y-42045000D03*
X101575000Y-44255000D03*
X94275000Y-44255000D03*
M02*
