%FSLAX45Y45*%
G04 Gerber Fmt 4.5, Leading zero omitted, Abs format (unit mm)*
G04 Created by KiCad (PCBNEW (5.1.12)-1) date 2021-11-20 18:08:33*
%MOMM*%
%LPD*%
G01*
G04 APERTURE LIST*
%TA.AperFunction,Profile*%
%ADD10C,0.100000*%
%TD*%
%TA.AperFunction,Profile*%
%ADD11C,0.099060*%
%TD*%
%ADD12C,0.200000*%
%ADD13C,0.300000*%
G04 APERTURE END LIST*
D10*
X41200000Y-4200000D02*
G75*
G03*
X41000000Y-4000000I-200000J0D01*
G01*
X41200000Y-15800000D02*
G75*
G02*
X41000000Y-16000000I-200000J0D01*
G01*
X5950000Y-15800000D02*
G75*
G03*
X6150000Y-16000000I200000J0D01*
G01*
X5950000Y-4200000D02*
G75*
G02*
X6150000Y-4000000I200000J0D01*
G01*
D11*
X6150000Y-4000000D02*
X41000000Y-4000000D01*
X6150000Y-16000000D02*
X41000000Y-16000000D01*
X41200000Y-15800000D02*
X41200000Y-4200000D01*
X5950000Y-4200000D02*
X5950000Y-15800000D01*
D12*
X6271260Y-5652260D02*
X6301740Y-5682740D01*
X6301740Y-5652260D02*
X6271260Y-5682740D01*
X6271260Y-5779260D02*
X6301740Y-5809740D01*
X6301740Y-5779260D02*
X6271260Y-5809740D01*
X6525260Y-4382260D02*
X6555740Y-4412740D01*
X6555740Y-4382260D02*
X6525260Y-4412740D01*
X6525260Y-4572760D02*
X6555740Y-4603240D01*
X6555740Y-4572760D02*
X6525260Y-4603240D01*
X6525260Y-5779260D02*
X6555740Y-5809740D01*
X6555740Y-5779260D02*
X6525260Y-5809740D01*
X6525260Y-10351260D02*
X6555740Y-10381740D01*
X6555740Y-10351260D02*
X6525260Y-10381740D01*
X6598919Y-6807960D02*
X6629399Y-6838440D01*
X6629399Y-6807960D02*
X6598919Y-6838440D01*
X6779260Y-7176260D02*
X6809740Y-7206740D01*
X6809740Y-7176260D02*
X6779260Y-7206740D01*
X6779260Y-7176260D02*
X6809740Y-7206740D01*
X6809740Y-7176260D02*
X6779260Y-7206740D01*
X6842760Y-14516860D02*
X6873240Y-14547340D01*
X6873240Y-14516860D02*
X6842760Y-14547340D01*
X6895212Y-14388972D02*
X6925692Y-14419452D01*
X6925692Y-14388972D02*
X6895212Y-14419452D01*
X7096760Y-8674860D02*
X7127240Y-8705340D01*
X7127240Y-8674860D02*
X7096760Y-8705340D01*
X7147560Y-8458960D02*
X7178040Y-8489440D01*
X7178040Y-8458960D02*
X7147560Y-8489440D01*
X7312660Y-10135360D02*
X7343140Y-10165840D01*
X7343140Y-10135360D02*
X7312660Y-10165840D01*
X7350760Y-8001760D02*
X7381240Y-8032240D01*
X7381240Y-8001760D02*
X7350760Y-8032240D01*
X7414260Y-14161042D02*
X7444740Y-14191522D01*
X7444740Y-14161042D02*
X7414260Y-14191522D01*
X7414261Y-5652261D02*
X7444741Y-5682741D01*
X7444741Y-5652261D02*
X7414261Y-5682741D01*
X7503160Y-13932660D02*
X7533640Y-13963140D01*
X7533640Y-13932660D02*
X7503160Y-13963140D01*
X7528560Y-8204960D02*
X7559040Y-8235440D01*
X7559040Y-8204960D02*
X7528560Y-8235440D01*
X7668260Y-4468760D02*
X7698740Y-4499240D01*
X7698740Y-4468760D02*
X7668260Y-4499240D01*
X7668260Y-6795260D02*
X7698740Y-6825740D01*
X7698740Y-6795260D02*
X7668260Y-6825740D01*
X7719060Y-12141960D02*
X7749540Y-12172440D01*
X7749540Y-12141960D02*
X7719060Y-12172440D01*
X7795260Y-13907260D02*
X7825740Y-13937740D01*
X7825740Y-13907260D02*
X7795260Y-13937740D01*
X7833360Y-12446760D02*
X7863840Y-12477240D01*
X7863840Y-12446760D02*
X7833360Y-12477240D01*
X7846060Y-14389860D02*
X7876540Y-14420340D01*
X7876540Y-14389860D02*
X7846060Y-14420340D01*
X7922260Y-4636260D02*
X7952740Y-4666740D01*
X7952740Y-4636260D02*
X7922260Y-4666740D01*
X7922260Y-12129260D02*
X7952740Y-12159740D01*
X7952740Y-12129260D02*
X7922260Y-12159740D01*
X7947660Y-8128760D02*
X7978140Y-8159240D01*
X7978140Y-8128760D02*
X7947660Y-8159240D01*
X7998460Y-10097260D02*
X8028940Y-10127740D01*
X8028940Y-10097260D02*
X7998460Y-10127740D01*
X8049261Y-5271260D02*
X8079741Y-5301740D01*
X8079741Y-5271260D02*
X8049261Y-5301740D01*
X8087360Y-8674860D02*
X8117840Y-8705340D01*
X8117840Y-8674860D02*
X8087360Y-8705340D01*
X8240749Y-11948919D02*
X8271229Y-11979399D01*
X8271229Y-11948919D02*
X8240749Y-11979399D01*
X8290699Y-5004699D02*
X8321179Y-5035179D01*
X8321179Y-5004699D02*
X8290699Y-5035179D01*
X8303260Y-6160260D02*
X8333740Y-6190740D01*
X8333740Y-6160260D02*
X8303260Y-6190740D01*
X8366760Y-13526260D02*
X8397240Y-13556740D01*
X8397240Y-13526260D02*
X8366760Y-13556740D01*
X8371839Y-10601987D02*
X8402319Y-10632467D01*
X8402319Y-10601987D02*
X8371839Y-10632467D01*
X8430260Y-7049260D02*
X8460740Y-7079740D01*
X8460740Y-7049260D02*
X8430260Y-7079740D01*
X8458860Y-4964060D02*
X8489340Y-4994540D01*
X8489340Y-4964060D02*
X8458860Y-4994540D01*
X8557260Y-6922260D02*
X8587740Y-6952740D01*
X8587740Y-6922260D02*
X8557260Y-6952740D01*
X8636660Y-4128260D02*
X8667140Y-4158740D01*
X8667140Y-4128260D02*
X8636660Y-4158740D01*
X8636660Y-4379860D02*
X8667140Y-4410340D01*
X8667140Y-4379860D02*
X8636660Y-4410340D01*
X8636660Y-4595760D02*
X8667140Y-4626240D01*
X8667140Y-4595760D02*
X8636660Y-4626240D01*
X8811260Y-6642860D02*
X8841740Y-6673340D01*
X8841740Y-6642860D02*
X8811260Y-6673340D01*
X8811260Y-8319260D02*
X8841740Y-8349740D01*
X8841740Y-8319260D02*
X8811260Y-8349740D01*
X8836660Y-12497560D02*
X8867140Y-12528040D01*
X8867140Y-12497560D02*
X8836660Y-12528040D01*
X8839860Y-4964060D02*
X8870340Y-4994540D01*
X8870340Y-4964060D02*
X8839860Y-4994540D01*
X9053760Y-11073960D02*
X9084240Y-11104440D01*
X9084240Y-11073960D02*
X9053760Y-11104440D01*
X9065260Y-4976760D02*
X9095740Y-5007240D01*
X9095740Y-4976760D02*
X9065260Y-5007240D01*
X9141460Y-12815060D02*
X9171940Y-12845540D01*
X9171940Y-12815060D02*
X9141460Y-12845540D01*
X9230360Y-13996160D02*
X9260840Y-14026640D01*
X9260840Y-13996160D02*
X9230360Y-14026640D01*
X9230360Y-14389860D02*
X9260840Y-14420340D01*
X9260840Y-14389860D02*
X9230360Y-14420340D01*
X9230360Y-14580360D02*
X9260840Y-14610840D01*
X9260840Y-14580360D02*
X9230360Y-14610840D01*
X9331960Y-8598660D02*
X9362440Y-8629140D01*
X9362440Y-8598660D02*
X9331960Y-8629140D01*
X9433560Y-8204960D02*
X9464040Y-8235440D01*
X9464040Y-8204960D02*
X9433560Y-8235440D01*
X9458960Y-8865360D02*
X9489440Y-8895840D01*
X9489440Y-8865360D02*
X9458960Y-8895840D01*
X9471660Y-8662160D02*
X9502140Y-8692640D01*
X9502140Y-8662160D02*
X9471660Y-8692640D01*
X9509760Y-8128760D02*
X9540240Y-8159240D01*
X9540240Y-8128760D02*
X9509760Y-8159240D01*
X9662160Y-13424660D02*
X9692640Y-13455140D01*
X9692640Y-13424660D02*
X9662160Y-13455140D01*
X9700260Y-5525250D02*
X9730740Y-5555730D01*
X9730740Y-5525250D02*
X9700260Y-5555730D01*
X9700260Y-5906260D02*
X9730740Y-5936740D01*
X9730740Y-5906260D02*
X9700260Y-5936740D01*
X9827260Y-4763260D02*
X9857740Y-4793740D01*
X9857740Y-4763260D02*
X9827260Y-4793740D01*
X9827260Y-6160260D02*
X9857740Y-6190740D01*
X9857740Y-6160260D02*
X9827260Y-6190740D01*
X9827260Y-6922260D02*
X9857740Y-6952740D01*
X9857740Y-6922260D02*
X9827260Y-6952740D01*
X9954260Y-6668260D02*
X9984740Y-6698740D01*
X9984740Y-6668260D02*
X9954260Y-6698740D01*
X9954260Y-7049250D02*
X9984740Y-7079730D01*
X9984740Y-7049250D02*
X9954260Y-7079730D01*
X9954260Y-10554460D02*
X9984740Y-10584940D01*
X9984740Y-10554460D02*
X9954260Y-10584940D01*
X9966960Y-10757660D02*
X9997440Y-10788140D01*
X9997440Y-10757660D02*
X9966960Y-10788140D01*
X10017760Y-8128760D02*
X10048240Y-8159240D01*
X10048240Y-8128760D02*
X10017760Y-8159240D01*
X10081260Y-6668260D02*
X10111740Y-6698740D01*
X10111740Y-6668260D02*
X10081260Y-6698740D01*
X10106660Y-12561060D02*
X10137140Y-12591540D01*
X10137140Y-12561060D02*
X10106660Y-12591540D01*
X10208260Y-6922260D02*
X10238740Y-6952740D01*
X10238740Y-6922260D02*
X10208260Y-6952740D01*
X10208260Y-13526260D02*
X10238740Y-13556740D01*
X10238740Y-13526260D02*
X10208260Y-13556740D01*
X10233660Y-14415260D02*
X10264140Y-14445740D01*
X10264140Y-14415260D02*
X10233660Y-14445740D01*
X10335260Y-4382260D02*
X10365740Y-4412740D01*
X10365740Y-4382260D02*
X10335260Y-4412740D01*
X10335260Y-4636260D02*
X10365740Y-4666740D01*
X10365740Y-4636260D02*
X10335260Y-4666740D01*
X10398760Y-6719060D02*
X10429240Y-6749540D01*
X10429240Y-6719060D02*
X10398760Y-6749540D01*
X10411460Y-10097260D02*
X10441940Y-10127740D01*
X10441940Y-10097260D02*
X10411460Y-10127740D01*
X10474960Y-14110460D02*
X10505440Y-14140940D01*
X10505440Y-14110460D02*
X10474960Y-14140940D01*
X10520678Y-8725660D02*
X10551158Y-8756140D01*
X10551158Y-8725660D02*
X10520678Y-8756140D01*
X10589260Y-8573260D02*
X10619740Y-8603740D01*
X10619740Y-8573260D02*
X10589260Y-8603740D01*
X10638231Y-13749276D02*
X10668711Y-13779756D01*
X10668711Y-13749276D02*
X10638231Y-13779756D01*
X10868660Y-12004801D02*
X10899140Y-12035281D01*
X10899140Y-12004801D02*
X10868660Y-12035281D01*
X10881360Y-12484860D02*
X10911840Y-12515340D01*
X10911840Y-12484860D02*
X10881360Y-12515340D01*
X10894060Y-12675360D02*
X10924540Y-12705840D01*
X10924540Y-12675360D02*
X10894060Y-12705840D01*
X10982960Y-10554460D02*
X11013440Y-10584940D01*
X11013440Y-10554460D02*
X10982960Y-10584940D01*
X11071860Y-8128760D02*
X11102340Y-8159240D01*
X11102340Y-8128760D02*
X11071860Y-8159240D01*
X11097260Y-9716260D02*
X11127740Y-9746740D01*
X11127740Y-9716260D02*
X11097260Y-9746740D01*
X11238370Y-5652260D02*
X11268850Y-5682740D01*
X11268850Y-5652260D02*
X11238370Y-5682740D01*
X11313160Y-8674860D02*
X11343640Y-8705340D01*
X11343640Y-8674860D02*
X11313160Y-8705340D01*
X11351260Y-8217660D02*
X11381740Y-8248140D01*
X11381740Y-8217660D02*
X11351260Y-8248140D01*
X11376660Y-8852660D02*
X11407140Y-8883140D01*
X11407140Y-8852660D02*
X11376660Y-8883140D01*
X11402060Y-14209519D02*
X11432540Y-14239999D01*
X11432540Y-14209519D02*
X11402060Y-14239999D01*
X11554460Y-14593060D02*
X11584940Y-14623540D01*
X11584940Y-14593060D02*
X11554460Y-14623540D01*
X11630660Y-14453360D02*
X11661140Y-14483840D01*
X11661140Y-14453360D02*
X11630660Y-14483840D01*
X11783060Y-10744960D02*
X11813540Y-10775440D01*
X11813540Y-10744960D02*
X11783060Y-10775440D01*
X11795760Y-12827760D02*
X11826240Y-12858240D01*
X11826240Y-12827760D02*
X11795760Y-12858240D01*
X11821160Y-10554460D02*
X11851640Y-10584940D01*
X11851640Y-10554460D02*
X11821160Y-10584940D01*
X11986260Y-6668260D02*
X12016740Y-6698740D01*
X12016740Y-6668260D02*
X11986260Y-6698740D01*
X11986260Y-6922260D02*
X12016740Y-6952740D01*
X12016740Y-6922260D02*
X11986260Y-6952740D01*
X11998960Y-12497560D02*
X12029440Y-12528040D01*
X12029440Y-12497560D02*
X11998960Y-12528040D01*
X12151360Y-8128760D02*
X12181840Y-8159240D01*
X12181840Y-8128760D02*
X12151360Y-8159240D01*
X12227560Y-12815060D02*
X12258040Y-12845540D01*
X12258040Y-12815060D02*
X12227560Y-12845540D01*
X12240260Y-4382260D02*
X12270740Y-4412740D01*
X12270740Y-4382260D02*
X12240260Y-4412740D01*
X12240260Y-6706360D02*
X12270740Y-6736840D01*
X12270740Y-6706360D02*
X12240260Y-6736840D01*
X12240260Y-13932663D02*
X12270740Y-13963143D01*
X12270740Y-13932663D02*
X12240260Y-13963143D01*
X12303760Y-10097260D02*
X12334240Y-10127740D01*
X12334240Y-10097260D02*
X12303760Y-10127740D01*
X12346939Y-8674860D02*
X12377419Y-8705340D01*
X12377419Y-8674860D02*
X12346939Y-8705340D01*
X12352911Y-13969879D02*
X12383391Y-14000359D01*
X12383391Y-13969879D02*
X12352911Y-14000359D01*
X12494260Y-13526260D02*
X12524740Y-13556740D01*
X12524740Y-13526260D02*
X12494260Y-13556740D01*
X12672060Y-14415260D02*
X12702540Y-14445740D01*
X12702540Y-14415260D02*
X12672060Y-14445740D01*
X12773660Y-12004801D02*
X12804140Y-12035281D01*
X12804140Y-12004801D02*
X12773660Y-12035281D01*
X12799060Y-12484860D02*
X12829540Y-12515340D01*
X12829540Y-12484860D02*
X12799060Y-12515340D01*
X12799060Y-12662660D02*
X12829540Y-12693140D01*
X12829540Y-12662660D02*
X12799060Y-12693140D01*
X12799060Y-13765020D02*
X12829540Y-13795500D01*
X12829540Y-13765020D02*
X12799060Y-13795500D01*
X12887960Y-8128760D02*
X12918440Y-8159240D01*
X12918440Y-8128760D02*
X12887960Y-8159240D01*
X12938760Y-10567160D02*
X12969240Y-10597640D01*
X12969240Y-10567160D02*
X12938760Y-10597640D01*
X13129260Y-5652260D02*
X13159740Y-5682740D01*
X13159740Y-5652260D02*
X13129260Y-5682740D01*
X13256260Y-8865360D02*
X13286740Y-8895840D01*
X13286740Y-8865360D02*
X13256260Y-8895840D01*
X13268960Y-8204960D02*
X13299440Y-8235440D01*
X13299440Y-8204960D02*
X13268960Y-8235440D01*
X13268960Y-8687560D02*
X13299440Y-8718040D01*
X13299440Y-8687560D02*
X13268960Y-8718040D01*
X13662660Y-12827760D02*
X13693140Y-12858240D01*
X13693140Y-12827760D02*
X13662660Y-12858240D01*
X13700760Y-10757660D02*
X13731240Y-10788140D01*
X13731240Y-10757660D02*
X13700760Y-10788140D01*
X13738860Y-10592560D02*
X13769340Y-10623040D01*
X13769340Y-10592560D02*
X13738860Y-10623040D01*
X13764260Y-4763260D02*
X13794740Y-4793740D01*
X13794740Y-4763260D02*
X13764260Y-4793740D01*
X13764260Y-6414260D02*
X13794740Y-6444740D01*
X13794740Y-6414260D02*
X13764260Y-6444740D01*
X13891260Y-6795260D02*
X13921740Y-6825740D01*
X13921740Y-6795260D02*
X13891260Y-6825740D01*
X13891260Y-7049260D02*
X13921740Y-7079740D01*
X13921740Y-7049260D02*
X13891260Y-7079740D01*
X13903960Y-12484860D02*
X13934440Y-12515340D01*
X13934440Y-12484860D02*
X13903960Y-12515340D01*
X13954760Y-8128760D02*
X13985240Y-8159240D01*
X13985240Y-8128760D02*
X13954760Y-8159240D01*
X14145260Y-4382260D02*
X14175740Y-4412740D01*
X14175740Y-4382260D02*
X14145260Y-4412740D01*
X14145260Y-12815060D02*
X14175740Y-12845540D01*
X14175740Y-12815060D02*
X14145260Y-12845540D01*
X14183360Y-10097260D02*
X14213840Y-10127740D01*
X14213840Y-10097260D02*
X14183360Y-10127740D01*
X14221460Y-6757160D02*
X14251940Y-6787640D01*
X14251940Y-6757160D02*
X14221460Y-6787640D01*
X14323060Y-8662160D02*
X14353540Y-8692640D01*
X14353540Y-8662160D02*
X14323060Y-8692640D01*
X14424660Y-13945360D02*
X14455140Y-13975840D01*
X14455140Y-13945360D02*
X14424660Y-13975840D01*
X14577060Y-13780260D02*
X14607540Y-13810740D01*
X14607540Y-13780260D02*
X14577060Y-13810740D01*
X14678660Y-12004801D02*
X14709140Y-12035281D01*
X14709140Y-12004801D02*
X14678660Y-12035281D01*
X14691360Y-12484860D02*
X14721840Y-12515340D01*
X14721840Y-12484860D02*
X14691360Y-12515340D01*
X14691360Y-12649960D02*
X14721840Y-12680440D01*
X14721840Y-12649960D02*
X14691360Y-12680440D01*
X14792960Y-8128760D02*
X14823440Y-8159240D01*
X14823440Y-8128760D02*
X14792960Y-8159240D01*
X14792960Y-10579860D02*
X14823440Y-10610340D01*
X14823440Y-10579860D02*
X14792960Y-10610340D01*
X14881860Y-13958060D02*
X14912340Y-13988540D01*
X14912340Y-13958060D02*
X14881860Y-13988540D01*
X15034260Y-5652260D02*
X15064740Y-5682740D01*
X15064740Y-5652260D02*
X15034260Y-5682740D01*
X15161260Y-8204960D02*
X15191740Y-8235440D01*
X15191740Y-8204960D02*
X15161260Y-8235440D01*
X15173960Y-8674860D02*
X15204440Y-8705340D01*
X15204440Y-8674860D02*
X15173960Y-8705340D01*
X15173960Y-8839960D02*
X15204440Y-8870440D01*
X15204440Y-8839960D02*
X15173960Y-8870440D01*
X15618460Y-10592560D02*
X15648940Y-10623040D01*
X15648940Y-10592560D02*
X15618460Y-10623040D01*
X15618460Y-12827760D02*
X15648940Y-12858240D01*
X15648940Y-12827760D02*
X15618460Y-12858240D01*
X15643860Y-10757660D02*
X15674340Y-10788140D01*
X15674340Y-10757660D02*
X15643860Y-10788140D01*
X15669260Y-7049260D02*
X15699740Y-7079740D01*
X15699740Y-7049260D02*
X15669260Y-7079740D01*
X15796260Y-6795260D02*
X15826740Y-6825740D01*
X15826740Y-6795260D02*
X15796260Y-6825740D01*
X15796260Y-7049260D02*
X15826740Y-7079740D01*
X15826740Y-7049260D02*
X15796260Y-7079740D01*
X15796260Y-7811260D02*
X15826740Y-7841740D01*
X15826740Y-7811260D02*
X15796260Y-7841740D01*
X15796260Y-8128760D02*
X15826740Y-8159240D01*
X15826740Y-8128760D02*
X15796260Y-8159240D01*
X15796260Y-12472160D02*
X15826740Y-12502640D01*
X15826740Y-12472160D02*
X15796260Y-12502640D01*
X15796260Y-15685260D02*
X15826740Y-15715740D01*
X15826740Y-15685260D02*
X15796260Y-15715740D01*
X15872460Y-14694660D02*
X15902940Y-14725140D01*
X15902940Y-14694660D02*
X15872460Y-14725140D01*
X15872460Y-14796260D02*
X15902940Y-14826740D01*
X15902940Y-14796260D02*
X15872460Y-14826740D01*
X15885160Y-15154401D02*
X15915640Y-15184881D01*
X15915640Y-15154401D02*
X15885160Y-15184881D01*
X15885160Y-15291560D02*
X15915640Y-15322040D01*
X15915640Y-15291560D02*
X15885160Y-15322040D01*
X15961360Y-14351760D02*
X15991840Y-14382240D01*
X15991840Y-14351760D02*
X15961360Y-14382240D01*
X16050260Y-4382260D02*
X16080740Y-4412740D01*
X16080740Y-4382260D02*
X16050260Y-4412740D01*
X16050260Y-12815060D02*
X16080740Y-12845540D01*
X16080740Y-12815060D02*
X16050260Y-12845540D01*
X16113760Y-10097260D02*
X16144240Y-10127740D01*
X16144240Y-10097260D02*
X16113760Y-10127740D01*
X16126460Y-6757160D02*
X16156940Y-6787640D01*
X16156940Y-6757160D02*
X16126460Y-6787640D01*
X16240760Y-8687560D02*
X16271240Y-8718040D01*
X16271240Y-8687560D02*
X16240760Y-8718040D01*
X16425293Y-15044293D02*
X16455773Y-15074773D01*
X16455773Y-15044293D02*
X16425293Y-15074773D01*
X16520160Y-15748760D02*
X16550640Y-15779240D01*
X16550640Y-15748760D02*
X16520160Y-15779240D01*
X16558260Y-15304260D02*
X16588740Y-15334740D01*
X16588740Y-15304260D02*
X16558260Y-15334740D01*
X16570960Y-12649960D02*
X16601440Y-12680440D01*
X16601440Y-12649960D02*
X16570960Y-12680440D01*
X16583660Y-12004801D02*
X16614140Y-12035281D01*
X16614140Y-12004801D02*
X16583660Y-12035281D01*
X16609060Y-12472160D02*
X16639540Y-12502640D01*
X16639540Y-12472160D02*
X16609060Y-12502640D01*
X16659860Y-8128760D02*
X16690340Y-8159240D01*
X16690340Y-8128760D02*
X16659860Y-8159240D01*
X16697960Y-15748760D02*
X16728440Y-15779240D01*
X16728440Y-15748760D02*
X16697960Y-15779240D01*
X16708119Y-14232382D02*
X16738599Y-14262862D01*
X16738599Y-14232382D02*
X16708119Y-14262862D01*
X16710660Y-13869160D02*
X16741140Y-13899640D01*
X16741140Y-13869160D02*
X16710660Y-13899640D01*
X16723360Y-10579860D02*
X16753840Y-10610340D01*
X16753840Y-10579860D02*
X16723360Y-10610340D01*
X16736060Y-14770860D02*
X16766540Y-14801340D01*
X16766540Y-14770860D02*
X16736060Y-14801340D01*
X16771619Y-14298603D02*
X16802099Y-14329083D01*
X16802099Y-14298603D02*
X16771619Y-14329083D01*
X16799560Y-8128760D02*
X16830040Y-8159240D01*
X16830040Y-8128760D02*
X16799560Y-8159240D01*
X16812258Y-15304260D02*
X16842738Y-15334740D01*
X16842738Y-15304260D02*
X16812258Y-15334740D01*
X16812260Y-9335260D02*
X16842740Y-9365740D01*
X16842740Y-9335260D02*
X16812260Y-9365740D01*
X16812260Y-15380461D02*
X16842740Y-15410941D01*
X16842740Y-15380461D02*
X16812260Y-15410941D01*
X16816973Y-14130383D02*
X16847453Y-14160863D01*
X16847453Y-14130383D02*
X16816973Y-14160863D01*
X16837660Y-14034260D02*
X16868140Y-14064740D01*
X16868140Y-14034260D02*
X16837660Y-14064740D01*
X16908782Y-15273780D02*
X16939262Y-15304260D01*
X16939262Y-15273780D02*
X16908782Y-15304260D01*
X16939260Y-5652260D02*
X16969740Y-5682740D01*
X16969740Y-5652260D02*
X16939260Y-5682740D01*
X16959260Y-15391260D02*
X16989740Y-15421740D01*
X16989740Y-15391260D02*
X16959260Y-15421740D01*
X16978963Y-14210248D02*
X17009443Y-14240728D01*
X17009443Y-14210248D02*
X16978963Y-14240728D01*
X17050594Y-13853910D02*
X17081074Y-13884390D01*
X17081074Y-13853910D02*
X17050594Y-13884390D01*
X17066260Y-8204960D02*
X17096740Y-8235440D01*
X17096740Y-8204960D02*
X17066260Y-8235440D01*
X17066260Y-8674860D02*
X17096740Y-8705340D01*
X17096740Y-8674860D02*
X17066260Y-8705340D01*
X17066260Y-8839960D02*
X17096740Y-8870440D01*
X17096740Y-8839960D02*
X17066260Y-8870440D01*
X17066260Y-15354260D02*
X17096740Y-15384740D01*
X17096740Y-15354260D02*
X17066260Y-15384740D01*
X17066260Y-15748760D02*
X17096740Y-15779240D01*
X17096740Y-15748760D02*
X17066260Y-15779240D01*
X17118000Y-14237460D02*
X17148480Y-14267940D01*
X17148480Y-14237460D02*
X17118000Y-14267940D01*
X17125806Y-13866152D02*
X17156286Y-13896632D01*
X17156286Y-13866152D02*
X17125806Y-13896632D01*
X17180836Y-14842871D02*
X17211316Y-14873351D01*
X17211316Y-14842871D02*
X17180836Y-14873351D01*
X17193260Y-15685260D02*
X17223740Y-15715740D01*
X17223740Y-15685260D02*
X17193260Y-15715740D01*
X17203422Y-15304260D02*
X17233902Y-15334740D01*
X17233902Y-15304260D02*
X17203422Y-15334740D01*
X17225097Y-14205797D02*
X17255577Y-14236277D01*
X17255577Y-14205797D02*
X17225097Y-14236277D01*
X17294860Y-14300960D02*
X17325340Y-14331440D01*
X17325340Y-14300960D02*
X17294860Y-14331440D01*
X17307560Y-14212060D02*
X17338040Y-14242540D01*
X17338040Y-14212060D02*
X17307560Y-14242540D01*
X17320260Y-11367260D02*
X17350740Y-11397740D01*
X17350740Y-11367260D02*
X17320260Y-11397740D01*
X17320260Y-15304260D02*
X17350740Y-15334740D01*
X17350740Y-15304260D02*
X17320260Y-15334740D01*
X17382872Y-15823307D02*
X17413352Y-15853787D01*
X17413352Y-15823307D02*
X17382872Y-15853787D01*
X17409160Y-14326360D02*
X17439640Y-14356840D01*
X17439640Y-14326360D02*
X17409160Y-14356840D01*
X17437100Y-15232632D02*
X17467580Y-15263112D01*
X17467580Y-15232632D02*
X17437100Y-15263112D01*
X17445559Y-14801134D02*
X17476039Y-14831614D01*
X17476039Y-14801134D02*
X17445559Y-14831614D01*
X17445559Y-14986613D02*
X17476039Y-15017093D01*
X17476039Y-14986613D02*
X17445559Y-15017093D01*
X17447260Y-12129260D02*
X17477740Y-12159740D01*
X17477740Y-12129260D02*
X17447260Y-12159740D01*
X17447261Y-6033260D02*
X17477741Y-6063740D01*
X17477741Y-6033260D02*
X17447261Y-6063740D01*
X17474615Y-15113760D02*
X17505095Y-15144240D01*
X17505095Y-15113760D02*
X17474615Y-15144240D01*
X17498060Y-14300960D02*
X17528540Y-14331440D01*
X17528540Y-14300960D02*
X17498060Y-14331440D01*
X17510760Y-12827760D02*
X17541240Y-12858240D01*
X17541240Y-12827760D02*
X17510760Y-12858240D01*
X17523460Y-10567160D02*
X17553940Y-10597640D01*
X17553940Y-10567160D02*
X17523460Y-10597640D01*
X17529381Y-15177260D02*
X17559861Y-15207740D01*
X17559861Y-15177260D02*
X17529381Y-15207740D01*
X17548860Y-10757660D02*
X17579340Y-10788140D01*
X17579340Y-10757660D02*
X17548860Y-10788140D01*
X17574260Y-4509260D02*
X17604740Y-4539740D01*
X17604740Y-4509260D02*
X17574260Y-4539740D01*
X17574260Y-4890260D02*
X17604740Y-4920740D01*
X17604740Y-4890260D02*
X17574260Y-4920740D01*
X17599660Y-14300960D02*
X17630140Y-14331440D01*
X17630140Y-14300960D02*
X17599660Y-14331440D01*
X17650460Y-12484860D02*
X17680940Y-12515340D01*
X17680940Y-12484860D02*
X17650460Y-12515340D01*
X17675860Y-14313660D02*
X17706340Y-14344140D01*
X17706340Y-14313660D02*
X17675860Y-14344140D01*
X17701260Y-6795260D02*
X17731740Y-6825740D01*
X17731740Y-6795260D02*
X17701260Y-6825740D01*
X17701260Y-7049260D02*
X17731740Y-7079740D01*
X17731740Y-7049260D02*
X17701260Y-7079740D01*
X17723167Y-14437167D02*
X17753647Y-14467647D01*
X17753647Y-14437167D02*
X17723167Y-14467647D01*
X17790160Y-15240760D02*
X17820640Y-15271240D01*
X17820640Y-15240760D02*
X17790160Y-15271240D01*
X17876939Y-14362339D02*
X17907419Y-14392819D01*
X17907419Y-14362339D02*
X17876939Y-14392819D01*
X17929477Y-14503777D02*
X17959957Y-14534257D01*
X17959957Y-14503777D02*
X17929477Y-14534257D01*
X17942560Y-12815060D02*
X17973040Y-12845540D01*
X17973040Y-12815060D02*
X17942560Y-12845540D01*
X17955260Y-13653260D02*
X17985740Y-13683740D01*
X17985740Y-13653260D02*
X17955260Y-13683740D01*
X18006060Y-10097260D02*
X18036540Y-10127740D01*
X18036540Y-10097260D02*
X18006060Y-10127740D01*
X18044160Y-6769860D02*
X18074640Y-6800340D01*
X18074640Y-6769860D02*
X18044160Y-6800340D01*
X18076213Y-15334738D02*
X18106693Y-15365218D01*
X18106693Y-15334738D02*
X18076213Y-15365218D01*
X18082260Y-4763260D02*
X18112740Y-4793740D01*
X18112740Y-4763260D02*
X18082260Y-4793740D01*
X18082260Y-5906260D02*
X18112740Y-5936740D01*
X18112740Y-5906260D02*
X18082260Y-5936740D01*
X18183860Y-8700260D02*
X18214340Y-8730740D01*
X18214340Y-8700260D02*
X18183860Y-8730740D01*
X18194019Y-12891260D02*
X18224499Y-12921740D01*
X18224499Y-12891260D02*
X18194019Y-12921740D01*
X18282919Y-15088360D02*
X18313399Y-15118840D01*
X18313399Y-15088360D02*
X18282919Y-15118840D01*
X18348960Y-14377160D02*
X18379440Y-14407640D01*
X18379440Y-14377160D02*
X18348960Y-14407640D01*
X18361660Y-14694660D02*
X18392140Y-14725140D01*
X18392140Y-14694660D02*
X18361660Y-14725140D01*
X18488660Y-12459460D02*
X18519140Y-12489940D01*
X18519140Y-12459460D02*
X18488660Y-12489940D01*
X18501360Y-12004801D02*
X18531840Y-12035281D01*
X18531840Y-12004801D02*
X18501360Y-12035281D01*
X18501360Y-12675360D02*
X18531840Y-12705840D01*
X18531840Y-12675360D02*
X18501360Y-12705840D01*
X18590260Y-10732260D02*
X18620740Y-10762740D01*
X18620740Y-10732260D02*
X18590260Y-10762740D01*
X18597978Y-15752978D02*
X18628458Y-15783458D01*
X18628458Y-15752978D02*
X18597978Y-15783458D01*
X18641060Y-8128760D02*
X18671540Y-8159240D01*
X18671540Y-8128760D02*
X18641060Y-8159240D01*
X18653760Y-10592560D02*
X18684240Y-10623040D01*
X18684240Y-10592560D02*
X18653760Y-10623040D01*
X18742660Y-14389860D02*
X18773140Y-14420340D01*
X18773140Y-14389860D02*
X18742660Y-14420340D01*
X18958560Y-8687560D02*
X18989040Y-8718040D01*
X18989040Y-8687560D02*
X18958560Y-8718040D01*
X18971260Y-4382260D02*
X19001740Y-4412740D01*
X19001740Y-4382260D02*
X18971260Y-4412740D01*
X18971260Y-8852660D02*
X19001740Y-8883140D01*
X19001740Y-8852660D02*
X18971260Y-8883140D01*
X18983960Y-8204960D02*
X19014440Y-8235440D01*
X19014440Y-8204960D02*
X18983960Y-8235440D01*
X19456401Y-10582730D02*
X19486881Y-10613210D01*
X19486881Y-10582730D02*
X19456401Y-10613210D01*
X19456401Y-10757660D02*
X19486881Y-10788140D01*
X19486881Y-10757660D02*
X19456401Y-10788140D01*
X19479260Y-11367260D02*
X19509740Y-11397740D01*
X19509740Y-11367260D02*
X19479260Y-11397740D01*
X19491960Y-12827760D02*
X19522440Y-12858240D01*
X19522440Y-12827760D02*
X19491960Y-12858240D01*
X19606260Y-6795260D02*
X19636740Y-6825740D01*
X19636740Y-6795260D02*
X19606260Y-6825740D01*
X19606260Y-7049260D02*
X19636740Y-7079740D01*
X19636740Y-7049260D02*
X19606260Y-7079740D01*
X19657060Y-12510260D02*
X19687540Y-12540740D01*
X19687540Y-12510260D02*
X19657060Y-12540740D01*
X19784060Y-14402560D02*
X19814540Y-14433040D01*
X19814540Y-14402560D02*
X19784060Y-14433040D01*
X19822160Y-14250160D02*
X19852640Y-14280640D01*
X19852640Y-14250160D02*
X19822160Y-14280640D01*
X19847560Y-12812519D02*
X19878040Y-12842999D01*
X19878040Y-12812519D02*
X19847560Y-12842999D01*
X19860260Y-5652260D02*
X19890740Y-5682740D01*
X19890740Y-5652260D02*
X19860260Y-5682740D01*
X19911060Y-6757160D02*
X19941540Y-6787640D01*
X19941540Y-6757160D02*
X19911060Y-6787640D01*
X19919105Y-14120619D02*
X19949585Y-14151099D01*
X19949585Y-14120619D02*
X19919105Y-14151099D01*
X19923760Y-10097260D02*
X19954240Y-10127740D01*
X19954240Y-10097260D02*
X19923760Y-10127740D01*
X19987260Y-8128760D02*
X20017740Y-8159240D01*
X20017740Y-8128760D02*
X19987260Y-8159240D01*
X20007393Y-14116492D02*
X20037873Y-14146972D01*
X20037873Y-14116492D02*
X20007393Y-14146972D01*
X20076160Y-8687560D02*
X20106640Y-8718040D01*
X20106640Y-8687560D02*
X20076160Y-8718040D01*
X20211163Y-13874232D02*
X20241643Y-13904712D01*
X20241643Y-13874232D02*
X20211163Y-13904712D01*
X20342860Y-15164560D02*
X20373340Y-15195040D01*
X20373340Y-15164560D02*
X20342860Y-15195040D01*
X20393660Y-12004801D02*
X20424140Y-12035281D01*
X20424140Y-12004801D02*
X20393660Y-12035281D01*
X20406360Y-12484860D02*
X20436840Y-12515340D01*
X20436840Y-12484860D02*
X20406360Y-12515340D01*
X20431760Y-12675360D02*
X20462240Y-12705840D01*
X20462240Y-12675360D02*
X20431760Y-12705840D01*
X20495260Y-10732260D02*
X20525740Y-10762740D01*
X20525740Y-10732260D02*
X20495260Y-10762740D01*
X20533360Y-8128760D02*
X20563840Y-8159240D01*
X20563840Y-8128760D02*
X20533360Y-8159240D01*
X20546060Y-10567160D02*
X20576540Y-10597640D01*
X20576540Y-10567160D02*
X20546060Y-10597640D01*
X20876260Y-4382260D02*
X20906740Y-4412740D01*
X20906740Y-4382260D02*
X20876260Y-4412740D01*
X20888960Y-8204960D02*
X20919440Y-8235440D01*
X20919440Y-8204960D02*
X20888960Y-8235440D01*
X20898560Y-8671760D02*
X20929040Y-8702240D01*
X20929040Y-8671760D02*
X20898560Y-8702240D01*
X20901660Y-8839960D02*
X20932140Y-8870440D01*
X20932140Y-8839960D02*
X20901660Y-8870440D01*
X21003260Y-15431260D02*
X21033740Y-15461740D01*
X21033740Y-15431260D02*
X21003260Y-15461740D01*
X21308060Y-10579860D02*
X21338540Y-10610340D01*
X21338540Y-10579860D02*
X21308060Y-10610340D01*
X21308060Y-10744960D02*
X21338540Y-10775440D01*
X21338540Y-10744960D02*
X21308060Y-10775440D01*
X21308060Y-12827760D02*
X21338540Y-12858240D01*
X21338540Y-12827760D02*
X21308060Y-12858240D01*
X21498560Y-12472160D02*
X21529040Y-12502640D01*
X21529040Y-12472160D02*
X21498560Y-12502640D01*
X21511260Y-6795260D02*
X21541740Y-6825740D01*
X21541740Y-6795260D02*
X21511260Y-6825740D01*
X21511260Y-7049260D02*
X21541740Y-7079740D01*
X21541740Y-7049260D02*
X21511260Y-7079740D01*
X21751149Y-5652260D02*
X21781629Y-5682740D01*
X21781629Y-5652260D02*
X21751149Y-5682740D01*
X21765260Y-12497560D02*
X21795740Y-12528040D01*
X21795740Y-12497560D02*
X21765260Y-12528040D01*
X21765260Y-12815060D02*
X21795740Y-12845540D01*
X21795740Y-12815060D02*
X21765260Y-12845540D01*
X21816060Y-10097260D02*
X21846540Y-10127740D01*
X21846540Y-10097260D02*
X21816060Y-10127740D01*
X21841460Y-8128760D02*
X21871940Y-8159240D01*
X21871940Y-8128760D02*
X21841460Y-8159240D01*
X21854160Y-6769860D02*
X21884640Y-6800340D01*
X21884640Y-6769860D02*
X21854160Y-6800340D01*
X21917660Y-14161260D02*
X21948140Y-14191740D01*
X21948140Y-14161260D02*
X21917660Y-14191740D01*
X22023676Y-8721244D02*
X22054156Y-8751724D01*
X22054156Y-8721244D02*
X22023676Y-8751724D01*
X22120860Y-12497560D02*
X22151340Y-12528040D01*
X22151340Y-12497560D02*
X22120860Y-12528040D01*
X22146260Y-13818360D02*
X22176740Y-13848840D01*
X22176740Y-13818360D02*
X22146260Y-13848840D01*
X22311360Y-12004801D02*
X22341840Y-12035281D01*
X22341840Y-12004801D02*
X22311360Y-12035281D01*
X22324060Y-12662660D02*
X22354540Y-12693140D01*
X22354540Y-12662660D02*
X22324060Y-12693140D01*
X22425660Y-10567160D02*
X22456140Y-10597640D01*
X22456140Y-10567160D02*
X22425660Y-10597640D01*
X22438360Y-8128760D02*
X22468840Y-8159240D01*
X22468840Y-8128760D02*
X22438360Y-8159240D01*
X22527260Y-4763260D02*
X22557740Y-4793740D01*
X22557740Y-4763260D02*
X22527260Y-4793740D01*
X22527260Y-5906260D02*
X22557740Y-5936740D01*
X22557740Y-5906260D02*
X22527260Y-5936740D01*
X22781260Y-4382260D02*
X22811740Y-4412740D01*
X22811740Y-4382260D02*
X22781260Y-4412740D01*
X22781260Y-8204960D02*
X22811740Y-8235440D01*
X22811740Y-8204960D02*
X22781260Y-8235440D01*
X22781260Y-8674860D02*
X22811740Y-8705340D01*
X22811740Y-8674860D02*
X22781260Y-8705340D01*
X22793960Y-8852660D02*
X22824440Y-8883140D01*
X22824440Y-8852660D02*
X22793960Y-8883140D01*
X23213060Y-10567160D02*
X23243540Y-10597640D01*
X23243540Y-10567160D02*
X23213060Y-10597640D01*
X23238460Y-10732260D02*
X23268940Y-10762740D01*
X23268940Y-10732260D02*
X23238460Y-10762740D01*
X23263860Y-12827760D02*
X23294340Y-12858240D01*
X23294340Y-12827760D02*
X23263860Y-12858240D01*
X23390860Y-12484860D02*
X23421340Y-12515340D01*
X23421340Y-12484860D02*
X23390860Y-12515340D01*
X23670260Y-5652260D02*
X23700740Y-5682740D01*
X23700740Y-5652260D02*
X23670260Y-5682740D01*
X23682960Y-8128760D02*
X23713440Y-8159240D01*
X23713440Y-8128760D02*
X23682960Y-8159240D01*
X23682960Y-12815060D02*
X23713440Y-12845540D01*
X23713440Y-12815060D02*
X23682960Y-12845540D01*
X23721060Y-10097260D02*
X23751540Y-10127740D01*
X23751540Y-10097260D02*
X23721060Y-10127740D01*
X23733760Y-6782560D02*
X23764240Y-6813040D01*
X23764240Y-6782560D02*
X23733760Y-6813040D01*
X23911560Y-8662160D02*
X23942040Y-8692640D01*
X23942040Y-8662160D02*
X23911560Y-8692640D01*
X23924260Y-14669260D02*
X23954740Y-14699740D01*
X23954740Y-14669260D02*
X23924260Y-14699740D01*
X23924260Y-14796260D02*
X23954740Y-14826740D01*
X23954740Y-14796260D02*
X23924260Y-14826740D01*
X23924260Y-14923260D02*
X23954740Y-14953740D01*
X23954740Y-14923260D02*
X23924260Y-14953740D01*
X23957134Y-13727558D02*
X23987614Y-13758038D01*
X23987614Y-13727558D02*
X23957134Y-13758038D01*
X24203660Y-12675360D02*
X24234140Y-12705840D01*
X24234140Y-12675360D02*
X24203660Y-12705840D01*
X24216360Y-12004801D02*
X24246840Y-12035281D01*
X24246840Y-12004801D02*
X24216360Y-12035281D01*
X24229060Y-12497560D02*
X24259540Y-12528040D01*
X24259540Y-12497560D02*
X24229060Y-12528040D01*
X24305260Y-8128760D02*
X24335740Y-8159240D01*
X24335740Y-8128760D02*
X24305260Y-8159240D01*
X24343360Y-10579860D02*
X24373840Y-10610340D01*
X24373840Y-10579860D02*
X24343360Y-10610340D01*
X24559260Y-15177260D02*
X24589740Y-15207740D01*
X24589740Y-15177260D02*
X24559260Y-15207740D01*
X24559260Y-15304260D02*
X24589740Y-15334740D01*
X24589740Y-15304260D02*
X24559260Y-15334740D01*
X24673560Y-8204960D02*
X24704040Y-8235440D01*
X24704040Y-8204960D02*
X24673560Y-8235440D01*
X24673560Y-8674860D02*
X24704040Y-8705340D01*
X24704040Y-8674860D02*
X24673560Y-8705340D01*
X24686260Y-4382260D02*
X24716740Y-4412740D01*
X24716740Y-4382260D02*
X24686260Y-4412740D01*
X24686260Y-8865360D02*
X24716740Y-8895840D01*
X24716740Y-8865360D02*
X24686260Y-8895840D01*
X24813260Y-14161260D02*
X24843740Y-14191740D01*
X24843740Y-14161260D02*
X24813260Y-14191740D01*
X24940260Y-14288262D02*
X24970740Y-14318742D01*
X24970740Y-14288262D02*
X24940260Y-14318742D01*
X25067260Y-7049260D02*
X25097740Y-7079740D01*
X25097740Y-7049260D02*
X25067260Y-7079740D01*
X25067260Y-14306044D02*
X25097740Y-14336524D01*
X25097740Y-14306044D02*
X25067260Y-14336524D01*
X25067260Y-15050260D02*
X25097740Y-15080740D01*
X25097740Y-15050260D02*
X25067260Y-15080740D01*
X25130758Y-8128760D02*
X25161238Y-8159240D01*
X25161238Y-8128760D02*
X25130758Y-8159240D01*
X25168860Y-10605260D02*
X25199340Y-10635740D01*
X25199340Y-10605260D02*
X25168860Y-10635740D01*
X25168860Y-10757660D02*
X25199340Y-10788140D01*
X25199340Y-10757660D02*
X25168860Y-10788140D01*
X25194260Y-7049260D02*
X25224740Y-7079740D01*
X25224740Y-7049260D02*
X25194260Y-7079740D01*
X25194260Y-12827760D02*
X25224740Y-12858240D01*
X25224740Y-12827760D02*
X25194260Y-12858240D01*
X25308560Y-12484860D02*
X25339040Y-12515340D01*
X25339040Y-12484860D02*
X25308560Y-12515340D01*
X25321260Y-6795260D02*
X25351740Y-6825740D01*
X25351740Y-6795260D02*
X25321260Y-6825740D01*
X25321260Y-7049260D02*
X25351740Y-7079740D01*
X25351740Y-7049260D02*
X25321260Y-7079740D01*
X25448260Y-14011400D02*
X25478740Y-14041880D01*
X25478740Y-14011400D02*
X25448260Y-14041880D01*
X25569158Y-14011400D02*
X25599638Y-14041880D01*
X25599638Y-14011400D02*
X25569158Y-14041880D01*
X25575260Y-5652260D02*
X25605740Y-5682740D01*
X25605740Y-5652260D02*
X25575260Y-5682740D01*
X25587960Y-12815060D02*
X25618440Y-12845540D01*
X25618440Y-12815060D02*
X25587960Y-12845540D01*
X25613360Y-10097260D02*
X25643840Y-10127740D01*
X25643840Y-10097260D02*
X25613360Y-10127740D01*
X25664160Y-6757160D02*
X25694640Y-6787640D01*
X25694640Y-6757160D02*
X25664160Y-6787640D01*
X25702260Y-13653260D02*
X25732740Y-13683740D01*
X25732740Y-13653260D02*
X25702260Y-13683740D01*
X25829260Y-4763260D02*
X25859740Y-4793740D01*
X25859740Y-4763260D02*
X25829260Y-4793740D01*
X25841960Y-8712960D02*
X25872440Y-8743440D01*
X25872440Y-8712960D02*
X25841960Y-8743440D01*
X25841960Y-14580360D02*
X25872440Y-14610840D01*
X25872440Y-14580360D02*
X25841960Y-14610840D01*
X25880060Y-14377160D02*
X25910540Y-14407640D01*
X25910540Y-14377160D02*
X25880060Y-14407640D01*
X25905460Y-13749776D02*
X25935940Y-13780256D01*
X25935940Y-13749776D02*
X25905460Y-13780256D01*
X26083260Y-8573260D02*
X26113740Y-8603740D01*
X26113740Y-8573260D02*
X26083260Y-8603740D01*
X26095960Y-12675360D02*
X26126440Y-12705840D01*
X26126440Y-12675360D02*
X26095960Y-12705840D01*
X26108660Y-12004801D02*
X26139140Y-12035281D01*
X26139140Y-12004801D02*
X26108660Y-12035281D01*
X26137160Y-12481760D02*
X26167640Y-12512240D01*
X26167640Y-12481760D02*
X26137160Y-12512240D01*
X26210260Y-5918270D02*
X26240740Y-5948750D01*
X26240740Y-5918270D02*
X26210260Y-5948750D01*
X26222960Y-8128760D02*
X26253440Y-8159240D01*
X26253440Y-8128760D02*
X26222960Y-8159240D01*
X26248360Y-10605260D02*
X26278840Y-10635740D01*
X26278840Y-10605260D02*
X26248360Y-10635740D01*
X26337260Y-5525260D02*
X26367740Y-5555740D01*
X26367740Y-5525260D02*
X26337260Y-5555740D01*
X26433779Y-5936741D02*
X26464259Y-5967221D01*
X26464259Y-5936741D02*
X26433779Y-5967221D01*
X26553160Y-8839960D02*
X26583640Y-8870440D01*
X26583640Y-8839960D02*
X26553160Y-8870440D01*
X26591260Y-4890260D02*
X26621740Y-4920740D01*
X26621740Y-4890260D02*
X26591260Y-4920740D01*
X26603960Y-8204960D02*
X26634440Y-8235440D01*
X26634440Y-8204960D02*
X26603960Y-8235440D01*
X26616660Y-8687560D02*
X26647140Y-8718040D01*
X26647140Y-8687560D02*
X26616660Y-8718040D01*
X26845260Y-5652260D02*
X26875740Y-5682740D01*
X26875740Y-5652260D02*
X26845260Y-5682740D01*
X26845260Y-6033260D02*
X26875740Y-6063740D01*
X26875740Y-6033260D02*
X26845260Y-6063740D01*
X26857960Y-14694660D02*
X26888440Y-14725140D01*
X26888440Y-14694660D02*
X26857960Y-14725140D01*
X26934160Y-14402560D02*
X26964640Y-14433040D01*
X26964640Y-14402560D02*
X26934160Y-14433040D01*
X27048460Y-10757660D02*
X27078940Y-10788140D01*
X27078940Y-10757660D02*
X27048460Y-10788140D01*
X27048460Y-12827760D02*
X27078940Y-12858240D01*
X27078940Y-12827760D02*
X27048460Y-12858240D01*
X27061160Y-10567160D02*
X27091640Y-10597640D01*
X27091640Y-10567160D02*
X27061160Y-10597640D01*
X27175460Y-12484860D02*
X27205940Y-12515340D01*
X27205940Y-12484860D02*
X27175460Y-12515340D01*
X27226260Y-6795260D02*
X27256740Y-6825740D01*
X27256740Y-6795260D02*
X27226260Y-6825740D01*
X27226260Y-7049260D02*
X27256740Y-7079740D01*
X27256740Y-7049260D02*
X27226260Y-7079740D01*
X27442160Y-8128760D02*
X27472640Y-8159240D01*
X27472640Y-8128760D02*
X27442160Y-8159240D01*
X27480260Y-4382260D02*
X27510740Y-4412740D01*
X27510740Y-4382260D02*
X27480260Y-4412740D01*
X27480260Y-12815060D02*
X27510740Y-12845540D01*
X27510740Y-12815060D02*
X27480260Y-12845540D01*
X27503120Y-13983463D02*
X27533600Y-14013943D01*
X27533600Y-13983463D02*
X27503120Y-14013943D01*
X27531060Y-10097260D02*
X27561540Y-10127740D01*
X27561540Y-10097260D02*
X27531060Y-10127740D01*
X27553360Y-6766760D02*
X27583840Y-6797240D01*
X27583840Y-6766760D02*
X27553360Y-6797240D01*
X27632660Y-8700260D02*
X27663140Y-8730740D01*
X27663140Y-8700260D02*
X27632660Y-8730740D01*
X27734260Y-14034260D02*
X27764740Y-14064740D01*
X27764740Y-14034260D02*
X27734260Y-14064740D01*
X27759660Y-13780257D02*
X27790140Y-13810737D01*
X27790140Y-13780257D02*
X27759660Y-13810737D01*
X28013660Y-12472160D02*
X28044140Y-12502640D01*
X28044140Y-12472160D02*
X28013660Y-12502640D01*
X28026360Y-12004801D02*
X28056840Y-12035281D01*
X28056840Y-12004801D02*
X28026360Y-12035281D01*
X28051760Y-12662660D02*
X28082240Y-12693140D01*
X28082240Y-12662660D02*
X28051760Y-12693140D01*
X28102560Y-8128760D02*
X28133040Y-8159240D01*
X28133040Y-8128760D02*
X28102560Y-8159240D01*
X28115260Y-10592560D02*
X28145740Y-10623040D01*
X28145740Y-10592560D02*
X28115260Y-10623040D01*
X28280360Y-14402560D02*
X28310840Y-14433040D01*
X28310840Y-14402560D02*
X28280360Y-14433040D01*
X28280360Y-14593060D02*
X28310840Y-14623540D01*
X28310840Y-14593060D02*
X28280360Y-14623540D01*
X28369260Y-5779260D02*
X28399740Y-5809740D01*
X28399740Y-5779260D02*
X28369260Y-5809740D01*
X28496260Y-8852660D02*
X28526740Y-8883140D01*
X28526740Y-8852660D02*
X28496260Y-8883140D01*
X28500070Y-8204960D02*
X28530550Y-8235440D01*
X28530550Y-8204960D02*
X28500070Y-8235440D01*
X28508960Y-8662160D02*
X28539440Y-8692640D01*
X28539440Y-8662160D02*
X28508960Y-8692640D01*
X28953460Y-10757660D02*
X28983940Y-10788140D01*
X28983940Y-10757660D02*
X28953460Y-10788140D01*
X28966160Y-10554460D02*
X28996640Y-10584940D01*
X28996640Y-10554460D02*
X28966160Y-10584940D01*
X29016960Y-12827760D02*
X29047440Y-12858240D01*
X29047440Y-12827760D02*
X29016960Y-12858240D01*
X29131260Y-6795260D02*
X29161740Y-6825740D01*
X29161740Y-6795260D02*
X29131260Y-6825740D01*
X29131260Y-7049260D02*
X29161740Y-7079740D01*
X29161740Y-7049260D02*
X29131260Y-7079740D01*
X29194760Y-12510260D02*
X29225240Y-12540740D01*
X29225240Y-12510260D02*
X29194760Y-12540740D01*
X29258260Y-14732760D02*
X29288740Y-14763240D01*
X29288740Y-14732760D02*
X29258260Y-14763240D01*
X29283660Y-14389860D02*
X29314140Y-14420340D01*
X29314140Y-14389860D02*
X29283660Y-14420340D01*
X29385260Y-4382260D02*
X29415740Y-4412740D01*
X29415740Y-4382260D02*
X29385260Y-4412740D01*
X29385260Y-12815060D02*
X29415740Y-12845540D01*
X29415740Y-12815060D02*
X29385260Y-12845540D01*
X29423360Y-6757160D02*
X29453840Y-6787640D01*
X29453840Y-6757160D02*
X29423360Y-6787640D01*
X29436060Y-10097260D02*
X29466540Y-10127740D01*
X29466540Y-10097260D02*
X29436060Y-10127740D01*
X29499560Y-8128760D02*
X29530040Y-8159240D01*
X29530040Y-8128760D02*
X29499560Y-8159240D01*
X29626560Y-8687560D02*
X29657040Y-8718040D01*
X29657040Y-8687560D02*
X29626560Y-8718040D01*
X29677360Y-13805660D02*
X29707840Y-13836140D01*
X29707840Y-13805660D02*
X29677360Y-13836140D01*
X29870399Y-13653260D02*
X29900879Y-13683740D01*
X29900879Y-13653260D02*
X29870399Y-13683740D01*
X29931360Y-12004801D02*
X29961840Y-12035281D01*
X29961840Y-12004801D02*
X29931360Y-12035281D01*
X29944505Y-13762516D02*
X29974985Y-13792996D01*
X29974985Y-13762516D02*
X29944505Y-13792996D01*
X30058360Y-10579860D02*
X30088840Y-10610340D01*
X30088840Y-10579860D02*
X30058360Y-10610340D01*
X30083760Y-8128760D02*
X30114240Y-8159240D01*
X30114240Y-8128760D02*
X30083760Y-8159240D01*
X30274260Y-12510260D02*
X30304740Y-12540740D01*
X30304740Y-12510260D02*
X30274260Y-12540740D01*
X30274264Y-5779260D02*
X30304744Y-5809740D01*
X30304744Y-5779260D02*
X30274264Y-5809740D01*
X30388560Y-8204960D02*
X30419040Y-8235440D01*
X30419040Y-8204960D02*
X30388560Y-8235440D01*
X30413960Y-8865360D02*
X30444440Y-8895840D01*
X30444440Y-8865360D02*
X30413960Y-8895840D01*
X30436260Y-8671760D02*
X30466740Y-8702240D01*
X30466740Y-8671760D02*
X30436260Y-8702240D01*
X30642560Y-14389860D02*
X30673040Y-14420340D01*
X30673040Y-14389860D02*
X30642560Y-14420340D01*
X30655260Y-4509260D02*
X30685740Y-4539740D01*
X30685740Y-4509260D02*
X30655260Y-4539740D01*
X30655260Y-10109960D02*
X30685740Y-10140440D01*
X30685740Y-10109960D02*
X30655260Y-10140440D01*
X30667960Y-14580360D02*
X30698440Y-14610840D01*
X30698440Y-14580360D02*
X30667960Y-14610840D01*
X31036260Y-6033260D02*
X31066740Y-6063740D01*
X31066740Y-6033260D02*
X31036260Y-6063740D01*
X31145809Y-8121576D02*
X31176289Y-8152056D01*
X31176289Y-8121576D02*
X31145809Y-8152056D01*
X31290260Y-4382260D02*
X31320740Y-4412740D01*
X31320740Y-4382260D02*
X31290260Y-4412740D01*
X31531560Y-8674860D02*
X31562040Y-8705340D01*
X31562040Y-8674860D02*
X31531560Y-8705340D01*
X31582360Y-12662660D02*
X31612840Y-12693140D01*
X31612840Y-12662660D02*
X31582360Y-12693140D01*
X31671260Y-14707360D02*
X31701740Y-14737840D01*
X31701740Y-14707360D02*
X31671260Y-14737840D01*
X31734760Y-14364460D02*
X31765240Y-14394940D01*
X31765240Y-14364460D02*
X31734760Y-14394940D01*
X32052260Y-6795260D02*
X32082740Y-6825740D01*
X32082740Y-6795260D02*
X32052260Y-6825740D01*
X32052260Y-7049260D02*
X32082740Y-7079740D01*
X32082740Y-7049260D02*
X32052260Y-7079740D01*
X32090360Y-10770360D02*
X32120840Y-10800840D01*
X32120840Y-10770360D02*
X32090360Y-10800840D01*
X32103060Y-10592560D02*
X32133540Y-10623040D01*
X32133540Y-10592560D02*
X32103060Y-10623040D01*
X32179260Y-5779260D02*
X32209740Y-5809740D01*
X32209740Y-5779260D02*
X32179260Y-5809740D01*
X32293560Y-6769860D02*
X32324040Y-6800340D01*
X32324040Y-6769860D02*
X32293560Y-6800340D01*
X32623760Y-12573760D02*
X32654240Y-12604240D01*
X32654240Y-12573760D02*
X32623760Y-12604240D01*
X32687260Y-10097260D02*
X32717740Y-10127740D01*
X32717740Y-10097260D02*
X32687260Y-10127740D01*
X32687260Y-12827760D02*
X32717740Y-12858240D01*
X32717740Y-12827760D02*
X32687260Y-12858240D01*
X32725360Y-8852660D02*
X32755840Y-8883140D01*
X32755840Y-8852660D02*
X32725360Y-8883140D01*
X32763460Y-8662160D02*
X32793940Y-8692640D01*
X32793940Y-8662160D02*
X32763460Y-8692640D01*
X32953960Y-12815060D02*
X32984440Y-12845540D01*
X32984440Y-12815060D02*
X32953960Y-12845540D01*
X32992060Y-14580360D02*
X33022540Y-14610840D01*
X33022540Y-14580360D02*
X32992060Y-14610840D01*
X33004760Y-14364460D02*
X33035240Y-14394940D01*
X33035240Y-14364460D02*
X33004760Y-14394940D01*
X33195260Y-4382260D02*
X33225740Y-4412740D01*
X33225740Y-4382260D02*
X33195260Y-4412740D01*
X33195260Y-7938260D02*
X33225740Y-7968740D01*
X33225740Y-7938260D02*
X33195260Y-7968740D01*
X33246060Y-8204960D02*
X33276540Y-8235440D01*
X33276540Y-8204960D02*
X33246060Y-8235440D01*
X33373060Y-10719560D02*
X33403540Y-10750040D01*
X33403540Y-10719560D02*
X33373060Y-10750040D01*
X33449260Y-9843260D02*
X33479740Y-9873740D01*
X33479740Y-9843260D02*
X33449260Y-9873740D01*
X33703260Y-8382760D02*
X33733740Y-8413240D01*
X33733740Y-8382760D02*
X33703260Y-8413240D01*
X33785810Y-8681210D02*
X33816290Y-8711690D01*
X33816290Y-8681210D02*
X33785810Y-8711690D01*
X33792160Y-7341360D02*
X33822640Y-7371840D01*
X33822640Y-7341360D02*
X33792160Y-7371840D01*
X33792160Y-11468860D02*
X33822640Y-11499340D01*
X33822640Y-11468860D02*
X33792160Y-11499340D01*
X34084260Y-5779260D02*
X34114740Y-5809740D01*
X34114740Y-5779260D02*
X34084260Y-5809740D01*
X34084260Y-14478760D02*
X34114740Y-14509240D01*
X34114740Y-14478760D02*
X34084260Y-14509240D01*
X34084260Y-14745460D02*
X34114740Y-14775940D01*
X34114740Y-14745460D02*
X34084260Y-14775940D01*
X34592260Y-4509260D02*
X34622740Y-4539740D01*
X34622740Y-4509260D02*
X34592260Y-4539740D01*
X34973260Y-5906260D02*
X35003740Y-5936740D01*
X35003740Y-5906260D02*
X34973260Y-5936740D01*
X34973260Y-8446260D02*
X35003740Y-8476740D01*
X35003740Y-8446260D02*
X34973260Y-8476740D01*
X35100260Y-9208260D02*
X35130740Y-9238740D01*
X35130740Y-9208260D02*
X35100260Y-9238740D01*
X35100260Y-11367260D02*
X35130740Y-11397740D01*
X35130740Y-11367260D02*
X35100260Y-11397740D01*
X35100260Y-12764258D02*
X35130740Y-12794738D01*
X35130740Y-12764258D02*
X35100260Y-12794738D01*
X35227260Y-13907260D02*
X35257740Y-13937740D01*
X35257740Y-13907260D02*
X35227260Y-13937740D01*
X35227260Y-14034260D02*
X35257740Y-14064740D01*
X35257740Y-14034260D02*
X35227260Y-14064740D01*
X35354260Y-6795260D02*
X35384740Y-6825740D01*
X35384740Y-6795260D02*
X35354260Y-6825740D01*
X35354260Y-7049260D02*
X35384740Y-7079740D01*
X35384740Y-7049260D02*
X35354260Y-7079740D01*
X35354260Y-9081260D02*
X35384740Y-9111740D01*
X35384740Y-9081260D02*
X35354260Y-9111740D01*
X35354260Y-13145260D02*
X35384740Y-13175740D01*
X35384740Y-13145260D02*
X35354260Y-13175740D01*
X35608260Y-4382260D02*
X35638740Y-4412740D01*
X35638740Y-4382260D02*
X35608260Y-4412740D01*
X35608260Y-6795260D02*
X35638740Y-6825740D01*
X35638740Y-6795260D02*
X35608260Y-6825740D01*
X35608260Y-8700260D02*
X35638740Y-8730740D01*
X35638740Y-8700260D02*
X35608260Y-8730740D01*
X35608260Y-8890760D02*
X35638740Y-8921240D01*
X35638740Y-8890760D02*
X35608260Y-8921240D01*
X35608260Y-13272260D02*
X35638740Y-13302740D01*
X35638740Y-13272260D02*
X35608260Y-13302740D01*
X35608260Y-14415260D02*
X35638740Y-14445740D01*
X35638740Y-14415260D02*
X35608260Y-14445740D01*
X35671760Y-14605760D02*
X35702240Y-14636240D01*
X35702240Y-14605760D02*
X35671760Y-14636240D01*
X35862260Y-7176260D02*
X35892740Y-7206740D01*
X35892740Y-7176260D02*
X35862260Y-7206740D01*
X36370260Y-11494260D02*
X36400740Y-11524740D01*
X36400740Y-11494260D02*
X36370260Y-11524740D01*
X36497260Y-5779260D02*
X36527740Y-5809740D01*
X36527740Y-5779260D02*
X36497260Y-5809740D01*
X36497260Y-9970260D02*
X36527740Y-10000740D01*
X36527740Y-9970260D02*
X36497260Y-10000740D01*
X36751260Y-8192260D02*
X36781740Y-8222740D01*
X36781740Y-8192260D02*
X36751260Y-8222740D01*
X36878260Y-14034260D02*
X36908740Y-14064740D01*
X36908740Y-14034260D02*
X36878260Y-14064740D01*
X36878260Y-14161260D02*
X36908740Y-14191740D01*
X36908740Y-14161260D02*
X36878260Y-14191740D01*
X36878260Y-14669260D02*
X36908740Y-14699740D01*
X36908740Y-14669260D02*
X36878260Y-14699740D01*
X37132260Y-14161260D02*
X37162740Y-14191740D01*
X37162740Y-14161260D02*
X37132260Y-14191740D01*
X37132260Y-14161260D02*
X37162740Y-14191740D01*
X37162740Y-14161260D02*
X37132260Y-14191740D01*
X37259260Y-6795260D02*
X37289740Y-6825740D01*
X37289740Y-6795260D02*
X37259260Y-6825740D01*
X37259260Y-7049260D02*
X37289740Y-7079740D01*
X37289740Y-7049260D02*
X37259260Y-7079740D01*
X37259260Y-8700260D02*
X37289740Y-8730740D01*
X37289740Y-8700260D02*
X37259260Y-8730740D01*
X37259260Y-8954260D02*
X37289740Y-8984740D01*
X37289740Y-8954260D02*
X37259260Y-8984740D01*
X37259260Y-14415260D02*
X37289740Y-14445740D01*
X37289740Y-14415260D02*
X37259260Y-14445740D01*
X37259260Y-14669260D02*
X37289740Y-14699740D01*
X37289740Y-14669260D02*
X37259260Y-14699740D01*
X37513260Y-4382260D02*
X37543740Y-4412740D01*
X37543740Y-4382260D02*
X37513260Y-4412740D01*
X37513260Y-6795260D02*
X37543740Y-6825740D01*
X37543740Y-6795260D02*
X37513260Y-6825740D01*
X37513260Y-8700260D02*
X37543740Y-8730740D01*
X37543740Y-8700260D02*
X37513260Y-8730740D01*
X37513260Y-12510260D02*
X37543740Y-12540740D01*
X37543740Y-12510260D02*
X37513260Y-12540740D01*
X37513260Y-14415260D02*
X37543740Y-14445740D01*
X37543740Y-14415260D02*
X37513260Y-14445740D01*
X37576760Y-12700760D02*
X37607240Y-12731240D01*
X37607240Y-12700760D02*
X37576760Y-12731240D01*
X37767260Y-12891260D02*
X37797740Y-12921740D01*
X37797740Y-12891260D02*
X37767260Y-12921740D01*
X38275260Y-5779260D02*
X38305740Y-5809740D01*
X38305740Y-5779260D02*
X38275260Y-5809740D01*
X38402260Y-9967719D02*
X38432740Y-9998199D01*
X38432740Y-9967719D02*
X38402260Y-9998199D01*
X38402260Y-13780260D02*
X38432740Y-13810740D01*
X38432740Y-13780260D02*
X38402260Y-13810740D01*
X38529263Y-8192260D02*
X38559743Y-8222740D01*
X38559743Y-8192260D02*
X38529263Y-8222740D01*
X38719760Y-12446760D02*
X38750240Y-12477240D01*
X38750240Y-12446760D02*
X38719760Y-12477240D01*
X38783260Y-4509260D02*
X38813740Y-4539740D01*
X38813740Y-4509260D02*
X38783260Y-4539740D01*
X38910253Y-14415260D02*
X38940733Y-14445740D01*
X38940733Y-14415260D02*
X38910253Y-14445740D01*
X38910260Y-14161260D02*
X38940740Y-14191740D01*
X38940740Y-14161260D02*
X38910260Y-14191740D01*
X39037260Y-5906260D02*
X39067740Y-5936740D01*
X39067740Y-5906260D02*
X39037260Y-5936740D01*
X39037260Y-7176260D02*
X39067740Y-7206740D01*
X39067740Y-7176260D02*
X39037260Y-7206740D01*
X39037260Y-8319258D02*
X39067740Y-8349738D01*
X39067740Y-8319258D02*
X39037260Y-8349738D01*
X39037260Y-8700260D02*
X39067740Y-8730740D01*
X39067740Y-8700260D02*
X39037260Y-8730740D01*
X39037260Y-8954260D02*
X39067740Y-8984740D01*
X39067740Y-8954260D02*
X39037260Y-8984740D01*
X39164260Y-6795260D02*
X39194740Y-6825740D01*
X39194740Y-6795260D02*
X39164260Y-6825740D01*
X39164260Y-7684260D02*
X39194740Y-7714740D01*
X39194740Y-7684260D02*
X39164260Y-7714740D01*
X39164260Y-8700260D02*
X39194740Y-8730740D01*
X39194740Y-8700260D02*
X39164260Y-8730740D01*
X39164260Y-9589260D02*
X39194740Y-9619740D01*
X39194740Y-9589260D02*
X39164260Y-9619740D01*
X39164260Y-14161260D02*
X39194740Y-14191740D01*
X39194740Y-14161260D02*
X39164260Y-14191740D01*
X39291260Y-15177260D02*
X39321740Y-15207740D01*
X39321740Y-15177260D02*
X39291260Y-15207740D01*
X39418260Y-4382260D02*
X39448740Y-4412740D01*
X39448740Y-4382260D02*
X39418260Y-4412740D01*
X39418260Y-6795260D02*
X39448740Y-6825740D01*
X39448740Y-6795260D02*
X39418260Y-6825740D01*
X39418260Y-8700260D02*
X39448740Y-8730740D01*
X39448740Y-8700260D02*
X39418260Y-8730740D01*
X39418260Y-13780260D02*
X39448740Y-13810740D01*
X39448740Y-13780260D02*
X39418260Y-13810740D01*
X39418260Y-14415260D02*
X39448740Y-14445740D01*
X39448740Y-14415260D02*
X39418260Y-14445740D01*
X40180260Y-5779258D02*
X40210740Y-5809738D01*
X40210740Y-5779258D02*
X40180260Y-5809738D01*
X40180260Y-9970260D02*
X40210740Y-10000740D01*
X40210740Y-9970260D02*
X40180260Y-10000740D01*
X40264157Y-8192258D02*
X40294637Y-8222738D01*
X40294637Y-8192258D02*
X40264157Y-8222738D01*
X40561260Y-6795260D02*
X40591740Y-6825740D01*
X40591740Y-6795260D02*
X40561260Y-6825740D01*
X40561260Y-8687560D02*
X40591740Y-8718040D01*
X40591740Y-8687560D02*
X40561260Y-8718040D01*
X40815260Y-6033260D02*
X40845740Y-6063740D01*
X40845740Y-6033260D02*
X40815260Y-6063740D01*
X16869900Y-14671300D02*
G75*
G03*
X16869900Y-14671300I-17500J0D01*
G01*
X16869900Y-14798800D02*
G75*
G03*
X16869900Y-14798800I-17500J0D01*
G01*
X16869900Y-14926300D02*
G75*
G03*
X16869900Y-14926300I-17500J0D01*
G01*
X16997400Y-14671300D02*
G75*
G03*
X16997400Y-14671300I-17500J0D01*
G01*
X16997400Y-14798800D02*
G75*
G03*
X16997400Y-14798800I-17500J0D01*
G01*
X16997400Y-14926300D02*
G75*
G03*
X16997400Y-14926300I-17500J0D01*
G01*
X17124900Y-14671300D02*
G75*
G03*
X17124900Y-14671300I-17500J0D01*
G01*
X17124900Y-14798800D02*
G75*
G03*
X17124900Y-14798800I-17500J0D01*
G01*
X17124900Y-14926300D02*
G75*
G03*
X17124900Y-14926300I-17500J0D01*
G01*
X8207200Y-4260100D02*
X8207200Y-4320100D01*
X8177200Y-4290100D02*
X8237200Y-4290100D01*
X8187200Y-4260100D02*
X8187200Y-4320100D01*
X8227200Y-4260100D02*
X8227200Y-4320100D01*
X8187200Y-4320100D02*
G75*
G03*
X8227200Y-4320100I20000J0D01*
G01*
X8227200Y-4260100D02*
G75*
G03*
X8187200Y-4260100I-20000J0D01*
G01*
X8207200Y-4678100D02*
X8207200Y-4738100D01*
X8177200Y-4708100D02*
X8237200Y-4708100D01*
X8187200Y-4653100D02*
X8187200Y-4763100D01*
X8227200Y-4653100D02*
X8227200Y-4763100D01*
X8187200Y-4763100D02*
G75*
G03*
X8227200Y-4763100I20000J0D01*
G01*
X8227200Y-4653100D02*
G75*
G03*
X8187200Y-4653100I-20000J0D01*
G01*
X9071200Y-4260100D02*
X9071200Y-4320100D01*
X9041200Y-4290100D02*
X9101200Y-4290100D01*
X9051200Y-4260100D02*
X9051200Y-4320100D01*
X9091200Y-4260100D02*
X9091200Y-4320100D01*
X9051200Y-4320100D02*
G75*
G03*
X9091200Y-4320100I20000J0D01*
G01*
X9091200Y-4260100D02*
G75*
G03*
X9051200Y-4260100I-20000J0D01*
G01*
X9071200Y-4678100D02*
X9071200Y-4738100D01*
X9041200Y-4708100D02*
X9101200Y-4708100D01*
X9051200Y-4653100D02*
X9051200Y-4763100D01*
X9091200Y-4653100D02*
X9091200Y-4763100D01*
X9051200Y-4763100D02*
G75*
G03*
X9091200Y-4763100I20000J0D01*
G01*
X9091200Y-4653100D02*
G75*
G03*
X9051200Y-4653100I-20000J0D01*
G01*
X17637556Y-15646956D02*
X17637556Y-15576244D01*
X17566844Y-15576244D01*
X17566844Y-15646956D01*
X17637556Y-15646956D01*
X17891556Y-15646956D02*
X17891556Y-15576244D01*
X17820844Y-15576244D01*
X17820844Y-15646956D01*
X17891556Y-15646956D01*
X18145556Y-15646956D02*
X18145556Y-15576244D01*
X18074844Y-15576244D01*
X18074844Y-15646956D01*
X18145556Y-15646956D01*
X36039856Y-10782856D02*
X36039856Y-10712144D01*
X35969144Y-10712144D01*
X35969144Y-10782856D01*
X36039856Y-10782856D01*
X36039856Y-11036856D02*
X36039856Y-10966144D01*
X35969144Y-10966144D01*
X35969144Y-11036856D01*
X36039856Y-11036856D01*
X36039856Y-11290856D02*
X36039856Y-11220144D01*
X35969144Y-11220144D01*
X35969144Y-11290856D01*
X36039856Y-11290856D01*
X36039856Y-11544856D02*
X36039856Y-11474144D01*
X35969144Y-11474144D01*
X35969144Y-11544856D01*
X36039856Y-11544856D01*
X6540500Y-6285500D02*
X6650500Y-6175500D01*
X6540500Y-6065500D01*
X6430500Y-6175500D01*
X6540500Y-6285500D01*
X6540500Y-13397500D02*
X6650500Y-13287500D01*
X6540500Y-13177500D01*
X6430500Y-13287500D01*
X6540500Y-13397500D01*
X19036500Y-11111500D02*
X19146500Y-11001500D01*
X19036500Y-10891500D01*
X18926500Y-11001500D01*
X19036500Y-11111500D01*
X23304500Y-6285500D02*
X23414500Y-6175500D01*
X23304500Y-6065500D01*
X23194500Y-6175500D01*
X23304500Y-6285500D01*
X23304500Y-15302500D02*
X23414500Y-15192500D01*
X23304500Y-15082500D01*
X23194500Y-15192500D01*
X23304500Y-15302500D01*
X34637500Y-10857500D02*
X34747500Y-10747500D01*
X34637500Y-10637500D01*
X34527500Y-10747500D01*
X34637500Y-10857500D01*
X40249500Y-6285500D02*
X40359500Y-6175500D01*
X40249500Y-6065500D01*
X40139500Y-6175500D01*
X40249500Y-6285500D01*
X40249500Y-13397500D02*
X40359500Y-13287500D01*
X40249500Y-13177500D01*
X40139500Y-13287500D01*
X40249500Y-13397500D01*
D13*
X6231428Y-16470714D02*
X6231428Y-16170714D01*
X6302857Y-16170714D01*
X6345714Y-16185000D01*
X6374286Y-16213571D01*
X6388571Y-16242143D01*
X6402857Y-16299286D01*
X6402857Y-16342143D01*
X6388571Y-16399286D01*
X6374286Y-16427857D01*
X6345714Y-16456429D01*
X6302857Y-16470714D01*
X6231428Y-16470714D01*
X6531428Y-16470714D02*
X6531428Y-16270714D01*
X6531428Y-16327857D02*
X6545714Y-16299286D01*
X6560000Y-16285000D01*
X6588571Y-16270714D01*
X6617143Y-16270714D01*
X6717143Y-16470714D02*
X6717143Y-16270714D01*
X6717143Y-16170714D02*
X6702857Y-16185000D01*
X6717143Y-16199286D01*
X6731428Y-16185000D01*
X6717143Y-16170714D01*
X6717143Y-16199286D01*
X6902857Y-16470714D02*
X6874286Y-16456429D01*
X6860000Y-16427857D01*
X6860000Y-16170714D01*
X7060000Y-16470714D02*
X7031428Y-16456429D01*
X7017143Y-16427857D01*
X7017143Y-16170714D01*
X7402857Y-16470714D02*
X7402857Y-16170714D01*
X7502857Y-16385000D01*
X7602857Y-16170714D01*
X7602857Y-16470714D01*
X7874286Y-16470714D02*
X7874286Y-16313571D01*
X7860000Y-16285000D01*
X7831428Y-16270714D01*
X7774286Y-16270714D01*
X7745714Y-16285000D01*
X7874286Y-16456429D02*
X7845714Y-16470714D01*
X7774286Y-16470714D01*
X7745714Y-16456429D01*
X7731428Y-16427857D01*
X7731428Y-16399286D01*
X7745714Y-16370714D01*
X7774286Y-16356429D01*
X7845714Y-16356429D01*
X7874286Y-16342143D01*
X8017143Y-16270714D02*
X8017143Y-16570714D01*
X8017143Y-16285000D02*
X8045714Y-16270714D01*
X8102857Y-16270714D01*
X8131428Y-16285000D01*
X8145714Y-16299286D01*
X8160000Y-16327857D01*
X8160000Y-16413571D01*
X8145714Y-16442143D01*
X8131428Y-16456429D01*
X8102857Y-16470714D01*
X8045714Y-16470714D01*
X8017143Y-16456429D01*
X8288571Y-16442143D02*
X8302857Y-16456429D01*
X8288571Y-16470714D01*
X8274286Y-16456429D01*
X8288571Y-16442143D01*
X8288571Y-16470714D01*
X8288571Y-16285000D02*
X8302857Y-16299286D01*
X8288571Y-16313571D01*
X8274286Y-16299286D01*
X8288571Y-16285000D01*
X8288571Y-16313571D01*
X5914520Y-16949760D02*
X5945000Y-16980240D01*
X5945000Y-16949760D02*
X5914520Y-16980240D01*
X6288571Y-16800714D02*
X6317143Y-16800714D01*
X6345714Y-16815000D01*
X6360000Y-16829286D01*
X6374286Y-16857857D01*
X6388571Y-16915000D01*
X6388571Y-16986429D01*
X6374286Y-17043572D01*
X6360000Y-17072143D01*
X6345714Y-17086429D01*
X6317143Y-17100714D01*
X6288571Y-17100714D01*
X6260000Y-17086429D01*
X6245714Y-17072143D01*
X6231428Y-17043572D01*
X6217143Y-16986429D01*
X6217143Y-16915000D01*
X6231428Y-16857857D01*
X6245714Y-16829286D01*
X6260000Y-16815000D01*
X6288571Y-16800714D01*
X6517143Y-17072143D02*
X6531428Y-17086429D01*
X6517143Y-17100714D01*
X6502857Y-17086429D01*
X6517143Y-17072143D01*
X6517143Y-17100714D01*
X6631428Y-16800714D02*
X6817143Y-16800714D01*
X6717143Y-16915000D01*
X6760000Y-16915000D01*
X6788571Y-16929286D01*
X6802857Y-16943572D01*
X6817143Y-16972143D01*
X6817143Y-17043572D01*
X6802857Y-17072143D01*
X6788571Y-17086429D01*
X6760000Y-17100714D01*
X6674286Y-17100714D01*
X6645714Y-17086429D01*
X6631428Y-17072143D01*
X7002857Y-16800714D02*
X7031428Y-16800714D01*
X7060000Y-16815000D01*
X7074286Y-16829286D01*
X7088571Y-16857857D01*
X7102857Y-16915000D01*
X7102857Y-16986429D01*
X7088571Y-17043572D01*
X7074286Y-17072143D01*
X7060000Y-17086429D01*
X7031428Y-17100714D01*
X7002857Y-17100714D01*
X6974286Y-17086429D01*
X6960000Y-17072143D01*
X6945714Y-17043572D01*
X6931428Y-16986429D01*
X6931428Y-16915000D01*
X6945714Y-16857857D01*
X6960000Y-16829286D01*
X6974286Y-16815000D01*
X7002857Y-16800714D01*
X7374286Y-16800714D02*
X7231428Y-16800714D01*
X7217143Y-16943572D01*
X7231428Y-16929286D01*
X7260000Y-16915000D01*
X7331428Y-16915000D01*
X7360000Y-16929286D01*
X7374286Y-16943572D01*
X7388571Y-16972143D01*
X7388571Y-17043572D01*
X7374286Y-17072143D01*
X7360000Y-17086429D01*
X7331428Y-17100714D01*
X7260000Y-17100714D01*
X7231428Y-17086429D01*
X7217143Y-17072143D01*
X7517143Y-17100714D02*
X7517143Y-16900714D01*
X7517143Y-16929286D02*
X7531428Y-16915000D01*
X7560000Y-16900714D01*
X7602857Y-16900714D01*
X7631428Y-16915000D01*
X7645714Y-16943572D01*
X7645714Y-17100714D01*
X7645714Y-16943572D02*
X7660000Y-16915000D01*
X7688571Y-16900714D01*
X7731428Y-16900714D01*
X7760000Y-16915000D01*
X7774286Y-16943572D01*
X7774286Y-17100714D01*
X7917143Y-17100714D02*
X7917143Y-16900714D01*
X7917143Y-16929286D02*
X7931428Y-16915000D01*
X7960000Y-16900714D01*
X8002857Y-16900714D01*
X8031428Y-16915000D01*
X8045714Y-16943572D01*
X8045714Y-17100714D01*
X8045714Y-16943572D02*
X8060000Y-16915000D01*
X8088571Y-16900714D01*
X8131428Y-16900714D01*
X8160000Y-16915000D01*
X8174286Y-16943572D01*
X8174286Y-17100714D01*
X8760000Y-16786429D02*
X8502857Y-17172143D01*
X9145714Y-16800714D02*
X9174286Y-16800714D01*
X9202857Y-16815000D01*
X9217143Y-16829286D01*
X9231428Y-16857857D01*
X9245714Y-16915000D01*
X9245714Y-16986429D01*
X9231428Y-17043572D01*
X9217143Y-17072143D01*
X9202857Y-17086429D01*
X9174286Y-17100714D01*
X9145714Y-17100714D01*
X9117143Y-17086429D01*
X9102857Y-17072143D01*
X9088571Y-17043572D01*
X9074286Y-16986429D01*
X9074286Y-16915000D01*
X9088571Y-16857857D01*
X9102857Y-16829286D01*
X9117143Y-16815000D01*
X9145714Y-16800714D01*
X9374286Y-17072143D02*
X9388571Y-17086429D01*
X9374286Y-17100714D01*
X9360000Y-17086429D01*
X9374286Y-17072143D01*
X9374286Y-17100714D01*
X9574286Y-16800714D02*
X9602857Y-16800714D01*
X9631428Y-16815000D01*
X9645714Y-16829286D01*
X9660000Y-16857857D01*
X9674286Y-16915000D01*
X9674286Y-16986429D01*
X9660000Y-17043572D01*
X9645714Y-17072143D01*
X9631428Y-17086429D01*
X9602857Y-17100714D01*
X9574286Y-17100714D01*
X9545714Y-17086429D01*
X9531428Y-17072143D01*
X9517143Y-17043572D01*
X9502857Y-16986429D01*
X9502857Y-16915000D01*
X9517143Y-16857857D01*
X9531428Y-16829286D01*
X9545714Y-16815000D01*
X9574286Y-16800714D01*
X9960000Y-17100714D02*
X9788571Y-17100714D01*
X9874286Y-17100714D02*
X9874286Y-16800714D01*
X9845714Y-16843572D01*
X9817143Y-16872143D01*
X9788571Y-16886429D01*
X10074286Y-16829286D02*
X10088571Y-16815000D01*
X10117143Y-16800714D01*
X10188571Y-16800714D01*
X10217143Y-16815000D01*
X10231428Y-16829286D01*
X10245714Y-16857857D01*
X10245714Y-16886429D01*
X10231428Y-16929286D01*
X10060000Y-17100714D01*
X10245714Y-17100714D01*
X10431428Y-16800714D02*
X10460000Y-16800714D01*
X10488571Y-16815000D01*
X10502857Y-16829286D01*
X10517143Y-16857857D01*
X10531428Y-16915000D01*
X10531428Y-16986429D01*
X10517143Y-17043572D01*
X10502857Y-17072143D01*
X10488571Y-17086429D01*
X10460000Y-17100714D01*
X10431428Y-17100714D01*
X10402857Y-17086429D01*
X10388571Y-17072143D01*
X10374286Y-17043572D01*
X10360000Y-16986429D01*
X10360000Y-16915000D01*
X10374286Y-16857857D01*
X10388571Y-16829286D01*
X10402857Y-16815000D01*
X10431428Y-16800714D01*
X10645714Y-16800714D02*
X10645714Y-16857857D01*
X10760000Y-16800714D02*
X10760000Y-16857857D01*
X11202857Y-17215000D02*
X11188571Y-17200714D01*
X11160000Y-17157857D01*
X11145714Y-17129286D01*
X11131428Y-17086429D01*
X11117143Y-17015000D01*
X11117143Y-16957857D01*
X11131428Y-16886429D01*
X11145714Y-16843572D01*
X11160000Y-16815000D01*
X11188571Y-16772143D01*
X11202857Y-16757857D01*
X11460000Y-16800714D02*
X11317143Y-16800714D01*
X11302857Y-16943572D01*
X11317143Y-16929286D01*
X11345714Y-16915000D01*
X11417143Y-16915000D01*
X11445714Y-16929286D01*
X11460000Y-16943572D01*
X11474286Y-16972143D01*
X11474286Y-17043572D01*
X11460000Y-17072143D01*
X11445714Y-17086429D01*
X11417143Y-17100714D01*
X11345714Y-17100714D01*
X11317143Y-17086429D01*
X11302857Y-17072143D01*
X11574286Y-16800714D02*
X11760000Y-16800714D01*
X11660000Y-16915000D01*
X11702857Y-16915000D01*
X11731428Y-16929286D01*
X11745714Y-16943572D01*
X11760000Y-16972143D01*
X11760000Y-17043572D01*
X11745714Y-17072143D01*
X11731428Y-17086429D01*
X11702857Y-17100714D01*
X11617143Y-17100714D01*
X11588571Y-17086429D01*
X11574286Y-17072143D01*
X12017143Y-16800714D02*
X11960000Y-16800714D01*
X11931428Y-16815000D01*
X11917143Y-16829286D01*
X11888571Y-16872143D01*
X11874286Y-16929286D01*
X11874286Y-17043572D01*
X11888571Y-17072143D01*
X11902857Y-17086429D01*
X11931428Y-17100714D01*
X11988571Y-17100714D01*
X12017143Y-17086429D01*
X12031428Y-17072143D01*
X12045714Y-17043572D01*
X12045714Y-16972143D01*
X12031428Y-16943572D01*
X12017143Y-16929286D01*
X11988571Y-16915000D01*
X11931428Y-16915000D01*
X11902857Y-16929286D01*
X11888571Y-16943572D01*
X11874286Y-16972143D01*
X12402857Y-17100714D02*
X12402857Y-16800714D01*
X12531428Y-17100714D02*
X12531428Y-16943572D01*
X12517143Y-16915000D01*
X12488571Y-16900714D01*
X12445714Y-16900714D01*
X12417143Y-16915000D01*
X12402857Y-16929286D01*
X12717143Y-17100714D02*
X12688571Y-17086429D01*
X12674286Y-17072143D01*
X12660000Y-17043572D01*
X12660000Y-16957857D01*
X12674286Y-16929286D01*
X12688571Y-16915000D01*
X12717143Y-16900714D01*
X12760000Y-16900714D01*
X12788571Y-16915000D01*
X12802857Y-16929286D01*
X12817143Y-16957857D01*
X12817143Y-17043572D01*
X12802857Y-17072143D01*
X12788571Y-17086429D01*
X12760000Y-17100714D01*
X12717143Y-17100714D01*
X12988571Y-17100714D02*
X12960000Y-17086429D01*
X12945714Y-17057857D01*
X12945714Y-16800714D01*
X13217143Y-17086429D02*
X13188571Y-17100714D01*
X13131428Y-17100714D01*
X13102857Y-17086429D01*
X13088571Y-17057857D01*
X13088571Y-16943572D01*
X13102857Y-16915000D01*
X13131428Y-16900714D01*
X13188571Y-16900714D01*
X13217143Y-16915000D01*
X13231428Y-16943572D01*
X13231428Y-16972143D01*
X13088571Y-17000714D01*
X13345714Y-17086429D02*
X13374286Y-17100714D01*
X13431428Y-17100714D01*
X13460000Y-17086429D01*
X13474286Y-17057857D01*
X13474286Y-17043572D01*
X13460000Y-17015000D01*
X13431428Y-17000714D01*
X13388571Y-17000714D01*
X13360000Y-16986429D01*
X13345714Y-16957857D01*
X13345714Y-16943572D01*
X13360000Y-16915000D01*
X13388571Y-16900714D01*
X13431428Y-16900714D01*
X13460000Y-16915000D01*
X13574286Y-17215000D02*
X13588571Y-17200714D01*
X13617143Y-17157857D01*
X13631428Y-17129286D01*
X13645714Y-17086429D01*
X13660000Y-17015000D01*
X13660000Y-16957857D01*
X13645714Y-16886429D01*
X13631428Y-16843572D01*
X13617143Y-16815000D01*
X13588571Y-16772143D01*
X13574286Y-16757857D01*
X5945000Y-17361000D02*
G75*
G03*
X5945000Y-17361000I-17500J0D01*
G01*
X6288571Y-17196714D02*
X6317143Y-17196714D01*
X6345714Y-17211000D01*
X6360000Y-17225286D01*
X6374286Y-17253857D01*
X6388571Y-17311000D01*
X6388571Y-17382429D01*
X6374286Y-17439572D01*
X6360000Y-17468143D01*
X6345714Y-17482429D01*
X6317143Y-17496714D01*
X6288571Y-17496714D01*
X6260000Y-17482429D01*
X6245714Y-17468143D01*
X6231428Y-17439572D01*
X6217143Y-17382429D01*
X6217143Y-17311000D01*
X6231428Y-17253857D01*
X6245714Y-17225286D01*
X6260000Y-17211000D01*
X6288571Y-17196714D01*
X6517143Y-17468143D02*
X6531428Y-17482429D01*
X6517143Y-17496714D01*
X6502857Y-17482429D01*
X6517143Y-17468143D01*
X6517143Y-17496714D01*
X6631428Y-17196714D02*
X6817143Y-17196714D01*
X6717143Y-17311000D01*
X6760000Y-17311000D01*
X6788571Y-17325286D01*
X6802857Y-17339572D01*
X6817143Y-17368143D01*
X6817143Y-17439572D01*
X6802857Y-17468143D01*
X6788571Y-17482429D01*
X6760000Y-17496714D01*
X6674286Y-17496714D01*
X6645714Y-17482429D01*
X6631428Y-17468143D01*
X7088571Y-17196714D02*
X6945714Y-17196714D01*
X6931428Y-17339572D01*
X6945714Y-17325286D01*
X6974286Y-17311000D01*
X7045714Y-17311000D01*
X7074286Y-17325286D01*
X7088571Y-17339572D01*
X7102857Y-17368143D01*
X7102857Y-17439572D01*
X7088571Y-17468143D01*
X7074286Y-17482429D01*
X7045714Y-17496714D01*
X6974286Y-17496714D01*
X6945714Y-17482429D01*
X6931428Y-17468143D01*
X7288571Y-17196714D02*
X7317143Y-17196714D01*
X7345714Y-17211000D01*
X7360000Y-17225286D01*
X7374286Y-17253857D01*
X7388571Y-17311000D01*
X7388571Y-17382429D01*
X7374286Y-17439572D01*
X7360000Y-17468143D01*
X7345714Y-17482429D01*
X7317143Y-17496714D01*
X7288571Y-17496714D01*
X7260000Y-17482429D01*
X7245714Y-17468143D01*
X7231428Y-17439572D01*
X7217143Y-17382429D01*
X7217143Y-17311000D01*
X7231428Y-17253857D01*
X7245714Y-17225286D01*
X7260000Y-17211000D01*
X7288571Y-17196714D01*
X7517143Y-17496714D02*
X7517143Y-17296714D01*
X7517143Y-17325286D02*
X7531428Y-17311000D01*
X7560000Y-17296714D01*
X7602857Y-17296714D01*
X7631428Y-17311000D01*
X7645714Y-17339572D01*
X7645714Y-17496714D01*
X7645714Y-17339572D02*
X7660000Y-17311000D01*
X7688571Y-17296714D01*
X7731428Y-17296714D01*
X7760000Y-17311000D01*
X7774286Y-17339572D01*
X7774286Y-17496714D01*
X7917143Y-17496714D02*
X7917143Y-17296714D01*
X7917143Y-17325286D02*
X7931428Y-17311000D01*
X7960000Y-17296714D01*
X8002857Y-17296714D01*
X8031428Y-17311000D01*
X8045714Y-17339572D01*
X8045714Y-17496714D01*
X8045714Y-17339572D02*
X8060000Y-17311000D01*
X8088571Y-17296714D01*
X8131428Y-17296714D01*
X8160000Y-17311000D01*
X8174286Y-17339572D01*
X8174286Y-17496714D01*
X8760000Y-17182429D02*
X8502857Y-17568143D01*
X9145714Y-17196714D02*
X9174286Y-17196714D01*
X9202857Y-17211000D01*
X9217143Y-17225286D01*
X9231428Y-17253857D01*
X9245714Y-17311000D01*
X9245714Y-17382429D01*
X9231428Y-17439572D01*
X9217143Y-17468143D01*
X9202857Y-17482429D01*
X9174286Y-17496714D01*
X9145714Y-17496714D01*
X9117143Y-17482429D01*
X9102857Y-17468143D01*
X9088571Y-17439572D01*
X9074286Y-17382429D01*
X9074286Y-17311000D01*
X9088571Y-17253857D01*
X9102857Y-17225286D01*
X9117143Y-17211000D01*
X9145714Y-17196714D01*
X9374286Y-17468143D02*
X9388571Y-17482429D01*
X9374286Y-17496714D01*
X9360000Y-17482429D01*
X9374286Y-17468143D01*
X9374286Y-17496714D01*
X9574286Y-17196714D02*
X9602857Y-17196714D01*
X9631428Y-17211000D01*
X9645714Y-17225286D01*
X9660000Y-17253857D01*
X9674286Y-17311000D01*
X9674286Y-17382429D01*
X9660000Y-17439572D01*
X9645714Y-17468143D01*
X9631428Y-17482429D01*
X9602857Y-17496714D01*
X9574286Y-17496714D01*
X9545714Y-17482429D01*
X9531428Y-17468143D01*
X9517143Y-17439572D01*
X9502857Y-17382429D01*
X9502857Y-17311000D01*
X9517143Y-17253857D01*
X9531428Y-17225286D01*
X9545714Y-17211000D01*
X9574286Y-17196714D01*
X9960000Y-17496714D02*
X9788571Y-17496714D01*
X9874286Y-17496714D02*
X9874286Y-17196714D01*
X9845714Y-17239572D01*
X9817143Y-17268143D01*
X9788571Y-17282429D01*
X10060000Y-17196714D02*
X10245714Y-17196714D01*
X10145714Y-17311000D01*
X10188571Y-17311000D01*
X10217143Y-17325286D01*
X10231428Y-17339572D01*
X10245714Y-17368143D01*
X10245714Y-17439572D01*
X10231428Y-17468143D01*
X10217143Y-17482429D01*
X10188571Y-17496714D01*
X10102857Y-17496714D01*
X10074286Y-17482429D01*
X10060000Y-17468143D01*
X10417143Y-17325286D02*
X10388571Y-17311000D01*
X10374286Y-17296714D01*
X10360000Y-17268143D01*
X10360000Y-17253857D01*
X10374286Y-17225286D01*
X10388571Y-17211000D01*
X10417143Y-17196714D01*
X10474286Y-17196714D01*
X10502857Y-17211000D01*
X10517143Y-17225286D01*
X10531428Y-17253857D01*
X10531428Y-17268143D01*
X10517143Y-17296714D01*
X10502857Y-17311000D01*
X10474286Y-17325286D01*
X10417143Y-17325286D01*
X10388571Y-17339572D01*
X10374286Y-17353857D01*
X10360000Y-17382429D01*
X10360000Y-17439572D01*
X10374286Y-17468143D01*
X10388571Y-17482429D01*
X10417143Y-17496714D01*
X10474286Y-17496714D01*
X10502857Y-17482429D01*
X10517143Y-17468143D01*
X10531428Y-17439572D01*
X10531428Y-17382429D01*
X10517143Y-17353857D01*
X10502857Y-17339572D01*
X10474286Y-17325286D01*
X10645714Y-17196714D02*
X10645714Y-17253857D01*
X10760000Y-17196714D02*
X10760000Y-17253857D01*
X11202857Y-17611000D02*
X11188571Y-17596714D01*
X11160000Y-17553857D01*
X11145714Y-17525286D01*
X11131428Y-17482429D01*
X11117143Y-17411000D01*
X11117143Y-17353857D01*
X11131428Y-17282429D01*
X11145714Y-17239572D01*
X11160000Y-17211000D01*
X11188571Y-17168143D01*
X11202857Y-17153857D01*
X11331428Y-17496714D02*
X11388571Y-17496714D01*
X11417143Y-17482429D01*
X11431428Y-17468143D01*
X11460000Y-17425286D01*
X11474286Y-17368143D01*
X11474286Y-17253857D01*
X11460000Y-17225286D01*
X11445714Y-17211000D01*
X11417143Y-17196714D01*
X11360000Y-17196714D01*
X11331428Y-17211000D01*
X11317143Y-17225286D01*
X11302857Y-17253857D01*
X11302857Y-17325286D01*
X11317143Y-17353857D01*
X11331428Y-17368143D01*
X11360000Y-17382429D01*
X11417143Y-17382429D01*
X11445714Y-17368143D01*
X11460000Y-17353857D01*
X11474286Y-17325286D01*
X11831428Y-17496714D02*
X11831428Y-17196714D01*
X11960000Y-17496714D02*
X11960000Y-17339572D01*
X11945714Y-17311000D01*
X11917143Y-17296714D01*
X11874286Y-17296714D01*
X11845714Y-17311000D01*
X11831428Y-17325286D01*
X12145714Y-17496714D02*
X12117143Y-17482429D01*
X12102857Y-17468143D01*
X12088571Y-17439572D01*
X12088571Y-17353857D01*
X12102857Y-17325286D01*
X12117143Y-17311000D01*
X12145714Y-17296714D01*
X12188571Y-17296714D01*
X12217143Y-17311000D01*
X12231428Y-17325286D01*
X12245714Y-17353857D01*
X12245714Y-17439572D01*
X12231428Y-17468143D01*
X12217143Y-17482429D01*
X12188571Y-17496714D01*
X12145714Y-17496714D01*
X12417143Y-17496714D02*
X12388571Y-17482429D01*
X12374286Y-17453857D01*
X12374286Y-17196714D01*
X12645714Y-17482429D02*
X12617143Y-17496714D01*
X12560000Y-17496714D01*
X12531428Y-17482429D01*
X12517143Y-17453857D01*
X12517143Y-17339572D01*
X12531428Y-17311000D01*
X12560000Y-17296714D01*
X12617143Y-17296714D01*
X12645714Y-17311000D01*
X12660000Y-17339572D01*
X12660000Y-17368143D01*
X12517143Y-17396714D01*
X12774286Y-17482429D02*
X12802857Y-17496714D01*
X12860000Y-17496714D01*
X12888571Y-17482429D01*
X12902857Y-17453857D01*
X12902857Y-17439572D01*
X12888571Y-17411000D01*
X12860000Y-17396714D01*
X12817143Y-17396714D01*
X12788571Y-17382429D01*
X12774286Y-17353857D01*
X12774286Y-17339572D01*
X12788571Y-17311000D01*
X12817143Y-17296714D01*
X12860000Y-17296714D01*
X12888571Y-17311000D01*
X13002857Y-17611000D02*
X13017143Y-17596714D01*
X13045714Y-17553857D01*
X13060000Y-17525286D01*
X13074286Y-17482429D01*
X13088571Y-17411000D01*
X13088571Y-17353857D01*
X13074286Y-17282429D01*
X13060000Y-17239572D01*
X13045714Y-17211000D01*
X13017143Y-17168143D01*
X13002857Y-17153857D01*
X5915000Y-17727000D02*
X5915000Y-17787000D01*
X5885000Y-17757000D02*
X5945000Y-17757000D01*
X6288571Y-17592714D02*
X6317143Y-17592714D01*
X6345714Y-17607000D01*
X6360000Y-17621286D01*
X6374286Y-17649857D01*
X6388571Y-17707000D01*
X6388571Y-17778429D01*
X6374286Y-17835572D01*
X6360000Y-17864143D01*
X6345714Y-17878429D01*
X6317143Y-17892714D01*
X6288571Y-17892714D01*
X6260000Y-17878429D01*
X6245714Y-17864143D01*
X6231428Y-17835572D01*
X6217143Y-17778429D01*
X6217143Y-17707000D01*
X6231428Y-17649857D01*
X6245714Y-17621286D01*
X6260000Y-17607000D01*
X6288571Y-17592714D01*
X6517143Y-17864143D02*
X6531428Y-17878429D01*
X6517143Y-17892714D01*
X6502857Y-17878429D01*
X6517143Y-17864143D01*
X6517143Y-17892714D01*
X6788571Y-17592714D02*
X6731428Y-17592714D01*
X6702857Y-17607000D01*
X6688571Y-17621286D01*
X6660000Y-17664143D01*
X6645714Y-17721286D01*
X6645714Y-17835572D01*
X6660000Y-17864143D01*
X6674286Y-17878429D01*
X6702857Y-17892714D01*
X6760000Y-17892714D01*
X6788571Y-17878429D01*
X6802857Y-17864143D01*
X6817143Y-17835572D01*
X6817143Y-17764143D01*
X6802857Y-17735572D01*
X6788571Y-17721286D01*
X6760000Y-17707000D01*
X6702857Y-17707000D01*
X6674286Y-17721286D01*
X6660000Y-17735572D01*
X6645714Y-17764143D01*
X7002857Y-17592714D02*
X7031428Y-17592714D01*
X7060000Y-17607000D01*
X7074286Y-17621286D01*
X7088571Y-17649857D01*
X7102857Y-17707000D01*
X7102857Y-17778429D01*
X7088571Y-17835572D01*
X7074286Y-17864143D01*
X7060000Y-17878429D01*
X7031428Y-17892714D01*
X7002857Y-17892714D01*
X6974286Y-17878429D01*
X6960000Y-17864143D01*
X6945714Y-17835572D01*
X6931428Y-17778429D01*
X6931428Y-17707000D01*
X6945714Y-17649857D01*
X6960000Y-17621286D01*
X6974286Y-17607000D01*
X7002857Y-17592714D01*
X7288571Y-17592714D02*
X7317143Y-17592714D01*
X7345714Y-17607000D01*
X7360000Y-17621286D01*
X7374286Y-17649857D01*
X7388571Y-17707000D01*
X7388571Y-17778429D01*
X7374286Y-17835572D01*
X7360000Y-17864143D01*
X7345714Y-17878429D01*
X7317143Y-17892714D01*
X7288571Y-17892714D01*
X7260000Y-17878429D01*
X7245714Y-17864143D01*
X7231428Y-17835572D01*
X7217143Y-17778429D01*
X7217143Y-17707000D01*
X7231428Y-17649857D01*
X7245714Y-17621286D01*
X7260000Y-17607000D01*
X7288571Y-17592714D01*
X7517143Y-17892714D02*
X7517143Y-17692714D01*
X7517143Y-17721286D02*
X7531428Y-17707000D01*
X7560000Y-17692714D01*
X7602857Y-17692714D01*
X7631428Y-17707000D01*
X7645714Y-17735572D01*
X7645714Y-17892714D01*
X7645714Y-17735572D02*
X7660000Y-17707000D01*
X7688571Y-17692714D01*
X7731428Y-17692714D01*
X7760000Y-17707000D01*
X7774286Y-17735572D01*
X7774286Y-17892714D01*
X7917143Y-17892714D02*
X7917143Y-17692714D01*
X7917143Y-17721286D02*
X7931428Y-17707000D01*
X7960000Y-17692714D01*
X8002857Y-17692714D01*
X8031428Y-17707000D01*
X8045714Y-17735572D01*
X8045714Y-17892714D01*
X8045714Y-17735572D02*
X8060000Y-17707000D01*
X8088571Y-17692714D01*
X8131428Y-17692714D01*
X8160000Y-17707000D01*
X8174286Y-17735572D01*
X8174286Y-17892714D01*
X8760000Y-17578429D02*
X8502857Y-17964143D01*
X9145714Y-17592714D02*
X9174286Y-17592714D01*
X9202857Y-17607000D01*
X9217143Y-17621286D01*
X9231428Y-17649857D01*
X9245714Y-17707000D01*
X9245714Y-17778429D01*
X9231428Y-17835572D01*
X9217143Y-17864143D01*
X9202857Y-17878429D01*
X9174286Y-17892714D01*
X9145714Y-17892714D01*
X9117143Y-17878429D01*
X9102857Y-17864143D01*
X9088571Y-17835572D01*
X9074286Y-17778429D01*
X9074286Y-17707000D01*
X9088571Y-17649857D01*
X9102857Y-17621286D01*
X9117143Y-17607000D01*
X9145714Y-17592714D01*
X9374286Y-17864143D02*
X9388571Y-17878429D01*
X9374286Y-17892714D01*
X9360000Y-17878429D01*
X9374286Y-17864143D01*
X9374286Y-17892714D01*
X9574286Y-17592714D02*
X9602857Y-17592714D01*
X9631428Y-17607000D01*
X9645714Y-17621286D01*
X9660000Y-17649857D01*
X9674286Y-17707000D01*
X9674286Y-17778429D01*
X9660000Y-17835572D01*
X9645714Y-17864143D01*
X9631428Y-17878429D01*
X9602857Y-17892714D01*
X9574286Y-17892714D01*
X9545714Y-17878429D01*
X9531428Y-17864143D01*
X9517143Y-17835572D01*
X9502857Y-17778429D01*
X9502857Y-17707000D01*
X9517143Y-17649857D01*
X9531428Y-17621286D01*
X9545714Y-17607000D01*
X9574286Y-17592714D01*
X9788571Y-17621286D02*
X9802857Y-17607000D01*
X9831428Y-17592714D01*
X9902857Y-17592714D01*
X9931428Y-17607000D01*
X9945714Y-17621286D01*
X9960000Y-17649857D01*
X9960000Y-17678429D01*
X9945714Y-17721286D01*
X9774286Y-17892714D01*
X9960000Y-17892714D01*
X10060000Y-17592714D02*
X10245714Y-17592714D01*
X10145714Y-17707000D01*
X10188571Y-17707000D01*
X10217143Y-17721286D01*
X10231428Y-17735572D01*
X10245714Y-17764143D01*
X10245714Y-17835572D01*
X10231428Y-17864143D01*
X10217143Y-17878429D01*
X10188571Y-17892714D01*
X10102857Y-17892714D01*
X10074286Y-17878429D01*
X10060000Y-17864143D01*
X10502857Y-17592714D02*
X10445714Y-17592714D01*
X10417143Y-17607000D01*
X10402857Y-17621286D01*
X10374286Y-17664143D01*
X10360000Y-17721286D01*
X10360000Y-17835572D01*
X10374286Y-17864143D01*
X10388571Y-17878429D01*
X10417143Y-17892714D01*
X10474286Y-17892714D01*
X10502857Y-17878429D01*
X10517143Y-17864143D01*
X10531428Y-17835572D01*
X10531428Y-17764143D01*
X10517143Y-17735572D01*
X10502857Y-17721286D01*
X10474286Y-17707000D01*
X10417143Y-17707000D01*
X10388571Y-17721286D01*
X10374286Y-17735572D01*
X10360000Y-17764143D01*
X10645714Y-17592714D02*
X10645714Y-17649857D01*
X10760000Y-17592714D02*
X10760000Y-17649857D01*
X11202857Y-18007000D02*
X11188571Y-17992714D01*
X11160000Y-17949857D01*
X11145714Y-17921286D01*
X11131428Y-17878429D01*
X11117143Y-17807000D01*
X11117143Y-17749857D01*
X11131428Y-17678429D01*
X11145714Y-17635572D01*
X11160000Y-17607000D01*
X11188571Y-17564143D01*
X11202857Y-17549857D01*
X11374286Y-17592714D02*
X11402857Y-17592714D01*
X11431428Y-17607000D01*
X11445714Y-17621286D01*
X11460000Y-17649857D01*
X11474286Y-17707000D01*
X11474286Y-17778429D01*
X11460000Y-17835572D01*
X11445714Y-17864143D01*
X11431428Y-17878429D01*
X11402857Y-17892714D01*
X11374286Y-17892714D01*
X11345714Y-17878429D01*
X11331428Y-17864143D01*
X11317143Y-17835572D01*
X11302857Y-17778429D01*
X11302857Y-17707000D01*
X11317143Y-17649857D01*
X11331428Y-17621286D01*
X11345714Y-17607000D01*
X11374286Y-17592714D01*
X11831428Y-17892714D02*
X11831428Y-17592714D01*
X11960000Y-17892714D02*
X11960000Y-17735572D01*
X11945714Y-17707000D01*
X11917143Y-17692714D01*
X11874286Y-17692714D01*
X11845714Y-17707000D01*
X11831428Y-17721286D01*
X12145714Y-17892714D02*
X12117143Y-17878429D01*
X12102857Y-17864143D01*
X12088571Y-17835572D01*
X12088571Y-17749857D01*
X12102857Y-17721286D01*
X12117143Y-17707000D01*
X12145714Y-17692714D01*
X12188571Y-17692714D01*
X12217143Y-17707000D01*
X12231428Y-17721286D01*
X12245714Y-17749857D01*
X12245714Y-17835572D01*
X12231428Y-17864143D01*
X12217143Y-17878429D01*
X12188571Y-17892714D01*
X12145714Y-17892714D01*
X12417143Y-17892714D02*
X12388571Y-17878429D01*
X12374286Y-17849857D01*
X12374286Y-17592714D01*
X12645714Y-17878429D02*
X12617143Y-17892714D01*
X12560000Y-17892714D01*
X12531428Y-17878429D01*
X12517143Y-17849857D01*
X12517143Y-17735572D01*
X12531428Y-17707000D01*
X12560000Y-17692714D01*
X12617143Y-17692714D01*
X12645714Y-17707000D01*
X12660000Y-17735572D01*
X12660000Y-17764143D01*
X12517143Y-17792714D01*
X12774286Y-17878429D02*
X12802857Y-17892714D01*
X12860000Y-17892714D01*
X12888571Y-17878429D01*
X12902857Y-17849857D01*
X12902857Y-17835572D01*
X12888571Y-17807000D01*
X12860000Y-17792714D01*
X12817143Y-17792714D01*
X12788571Y-17778429D01*
X12774286Y-17749857D01*
X12774286Y-17735572D01*
X12788571Y-17707000D01*
X12817143Y-17692714D01*
X12860000Y-17692714D01*
X12888571Y-17707000D01*
X13260000Y-17778429D02*
X13488571Y-17778429D01*
X13374286Y-17892714D02*
X13374286Y-17664143D01*
X13988571Y-17692714D02*
X13988571Y-17892714D01*
X13917143Y-17578429D02*
X13845714Y-17792714D01*
X14031428Y-17792714D01*
X14360000Y-17878429D02*
X14388571Y-17892714D01*
X14445714Y-17892714D01*
X14474286Y-17878429D01*
X14488571Y-17849857D01*
X14488571Y-17835572D01*
X14474286Y-17807000D01*
X14445714Y-17792714D01*
X14402857Y-17792714D01*
X14374286Y-17778429D01*
X14360000Y-17749857D01*
X14360000Y-17735572D01*
X14374286Y-17707000D01*
X14402857Y-17692714D01*
X14445714Y-17692714D01*
X14474286Y-17707000D01*
X14660000Y-17892714D02*
X14631428Y-17878429D01*
X14617143Y-17849857D01*
X14617143Y-17592714D01*
X14817143Y-17892714D02*
X14788571Y-17878429D01*
X14774286Y-17864143D01*
X14760000Y-17835572D01*
X14760000Y-17749857D01*
X14774286Y-17721286D01*
X14788571Y-17707000D01*
X14817143Y-17692714D01*
X14860000Y-17692714D01*
X14888571Y-17707000D01*
X14902857Y-17721286D01*
X14917143Y-17749857D01*
X14917143Y-17835572D01*
X14902857Y-17864143D01*
X14888571Y-17878429D01*
X14860000Y-17892714D01*
X14817143Y-17892714D01*
X15002857Y-17692714D02*
X15117143Y-17692714D01*
X15045714Y-17592714D02*
X15045714Y-17849857D01*
X15060000Y-17878429D01*
X15088571Y-17892714D01*
X15117143Y-17892714D01*
X15202857Y-17878429D02*
X15231428Y-17892714D01*
X15288571Y-17892714D01*
X15317143Y-17878429D01*
X15331428Y-17849857D01*
X15331428Y-17835572D01*
X15317143Y-17807000D01*
X15288571Y-17792714D01*
X15245714Y-17792714D01*
X15217143Y-17778429D01*
X15202857Y-17749857D01*
X15202857Y-17735572D01*
X15217143Y-17707000D01*
X15245714Y-17692714D01*
X15288571Y-17692714D01*
X15317143Y-17707000D01*
X15431428Y-18007000D02*
X15445714Y-17992714D01*
X15474286Y-17949857D01*
X15488571Y-17921286D01*
X15502857Y-17878429D01*
X15517143Y-17807000D01*
X15517143Y-17749857D01*
X15502857Y-17678429D01*
X15488571Y-17635572D01*
X15474286Y-17607000D01*
X15445714Y-17564143D01*
X15431428Y-17549857D01*
X5930356Y-18188356D02*
X5930356Y-18117644D01*
X5859644Y-18117644D01*
X5859644Y-18188356D01*
X5930356Y-18188356D01*
X6388571Y-18288714D02*
X6217143Y-18288714D01*
X6302857Y-18288714D02*
X6302857Y-17988714D01*
X6274286Y-18031572D01*
X6245714Y-18060143D01*
X6217143Y-18074429D01*
X6517143Y-18260143D02*
X6531428Y-18274429D01*
X6517143Y-18288714D01*
X6502857Y-18274429D01*
X6517143Y-18260143D01*
X6517143Y-18288714D01*
X6717143Y-17988714D02*
X6745714Y-17988714D01*
X6774286Y-18003000D01*
X6788571Y-18017286D01*
X6802857Y-18045857D01*
X6817143Y-18103000D01*
X6817143Y-18174429D01*
X6802857Y-18231572D01*
X6788571Y-18260143D01*
X6774286Y-18274429D01*
X6745714Y-18288714D01*
X6717143Y-18288714D01*
X6688571Y-18274429D01*
X6674286Y-18260143D01*
X6660000Y-18231572D01*
X6645714Y-18174429D01*
X6645714Y-18103000D01*
X6660000Y-18045857D01*
X6674286Y-18017286D01*
X6688571Y-18003000D01*
X6717143Y-17988714D01*
X7002857Y-17988714D02*
X7031428Y-17988714D01*
X7060000Y-18003000D01*
X7074286Y-18017286D01*
X7088571Y-18045857D01*
X7102857Y-18103000D01*
X7102857Y-18174429D01*
X7088571Y-18231572D01*
X7074286Y-18260143D01*
X7060000Y-18274429D01*
X7031428Y-18288714D01*
X7002857Y-18288714D01*
X6974286Y-18274429D01*
X6960000Y-18260143D01*
X6945714Y-18231572D01*
X6931428Y-18174429D01*
X6931428Y-18103000D01*
X6945714Y-18045857D01*
X6960000Y-18017286D01*
X6974286Y-18003000D01*
X7002857Y-17988714D01*
X7288571Y-17988714D02*
X7317143Y-17988714D01*
X7345714Y-18003000D01*
X7360000Y-18017286D01*
X7374286Y-18045857D01*
X7388571Y-18103000D01*
X7388571Y-18174429D01*
X7374286Y-18231572D01*
X7360000Y-18260143D01*
X7345714Y-18274429D01*
X7317143Y-18288714D01*
X7288571Y-18288714D01*
X7260000Y-18274429D01*
X7245714Y-18260143D01*
X7231428Y-18231572D01*
X7217143Y-18174429D01*
X7217143Y-18103000D01*
X7231428Y-18045857D01*
X7245714Y-18017286D01*
X7260000Y-18003000D01*
X7288571Y-17988714D01*
X7517143Y-18288714D02*
X7517143Y-18088714D01*
X7517143Y-18117286D02*
X7531428Y-18103000D01*
X7560000Y-18088714D01*
X7602857Y-18088714D01*
X7631428Y-18103000D01*
X7645714Y-18131572D01*
X7645714Y-18288714D01*
X7645714Y-18131572D02*
X7660000Y-18103000D01*
X7688571Y-18088714D01*
X7731428Y-18088714D01*
X7760000Y-18103000D01*
X7774286Y-18131572D01*
X7774286Y-18288714D01*
X7917143Y-18288714D02*
X7917143Y-18088714D01*
X7917143Y-18117286D02*
X7931428Y-18103000D01*
X7960000Y-18088714D01*
X8002857Y-18088714D01*
X8031428Y-18103000D01*
X8045714Y-18131572D01*
X8045714Y-18288714D01*
X8045714Y-18131572D02*
X8060000Y-18103000D01*
X8088571Y-18088714D01*
X8131428Y-18088714D01*
X8160000Y-18103000D01*
X8174286Y-18131572D01*
X8174286Y-18288714D01*
X8760000Y-17974429D02*
X8502857Y-18360143D01*
X9145714Y-17988714D02*
X9174286Y-17988714D01*
X9202857Y-18003000D01*
X9217143Y-18017286D01*
X9231428Y-18045857D01*
X9245714Y-18103000D01*
X9245714Y-18174429D01*
X9231428Y-18231572D01*
X9217143Y-18260143D01*
X9202857Y-18274429D01*
X9174286Y-18288714D01*
X9145714Y-18288714D01*
X9117143Y-18274429D01*
X9102857Y-18260143D01*
X9088571Y-18231572D01*
X9074286Y-18174429D01*
X9074286Y-18103000D01*
X9088571Y-18045857D01*
X9102857Y-18017286D01*
X9117143Y-18003000D01*
X9145714Y-17988714D01*
X9374286Y-18260143D02*
X9388571Y-18274429D01*
X9374286Y-18288714D01*
X9360000Y-18274429D01*
X9374286Y-18260143D01*
X9374286Y-18288714D01*
X9574286Y-17988714D02*
X9602857Y-17988714D01*
X9631428Y-18003000D01*
X9645714Y-18017286D01*
X9660000Y-18045857D01*
X9674286Y-18103000D01*
X9674286Y-18174429D01*
X9660000Y-18231572D01*
X9645714Y-18260143D01*
X9631428Y-18274429D01*
X9602857Y-18288714D01*
X9574286Y-18288714D01*
X9545714Y-18274429D01*
X9531428Y-18260143D01*
X9517143Y-18231572D01*
X9502857Y-18174429D01*
X9502857Y-18103000D01*
X9517143Y-18045857D01*
X9531428Y-18017286D01*
X9545714Y-18003000D01*
X9574286Y-17988714D01*
X9774286Y-17988714D02*
X9960000Y-17988714D01*
X9860000Y-18103000D01*
X9902857Y-18103000D01*
X9931428Y-18117286D01*
X9945714Y-18131572D01*
X9960000Y-18160143D01*
X9960000Y-18231572D01*
X9945714Y-18260143D01*
X9931428Y-18274429D01*
X9902857Y-18288714D01*
X9817143Y-18288714D01*
X9788571Y-18274429D01*
X9774286Y-18260143D01*
X10102857Y-18288714D02*
X10160000Y-18288714D01*
X10188571Y-18274429D01*
X10202857Y-18260143D01*
X10231428Y-18217286D01*
X10245714Y-18160143D01*
X10245714Y-18045857D01*
X10231428Y-18017286D01*
X10217143Y-18003000D01*
X10188571Y-17988714D01*
X10131428Y-17988714D01*
X10102857Y-18003000D01*
X10088571Y-18017286D01*
X10074286Y-18045857D01*
X10074286Y-18117286D01*
X10088571Y-18145857D01*
X10102857Y-18160143D01*
X10131428Y-18174429D01*
X10188571Y-18174429D01*
X10217143Y-18160143D01*
X10231428Y-18145857D01*
X10245714Y-18117286D01*
X10502857Y-18088714D02*
X10502857Y-18288714D01*
X10431428Y-17974429D02*
X10360000Y-18188714D01*
X10545714Y-18188714D01*
X10645714Y-17988714D02*
X10645714Y-18045857D01*
X10760000Y-17988714D02*
X10760000Y-18045857D01*
X11202857Y-18403000D02*
X11188571Y-18388714D01*
X11160000Y-18345857D01*
X11145714Y-18317286D01*
X11131428Y-18274429D01*
X11117143Y-18203000D01*
X11117143Y-18145857D01*
X11131428Y-18074429D01*
X11145714Y-18031572D01*
X11160000Y-18003000D01*
X11188571Y-17960143D01*
X11202857Y-17945857D01*
X11288571Y-17988714D02*
X11488571Y-17988714D01*
X11360000Y-18288714D01*
X11831428Y-18288714D02*
X11831428Y-17988714D01*
X11960000Y-18288714D02*
X11960000Y-18131572D01*
X11945714Y-18103000D01*
X11917143Y-18088714D01*
X11874286Y-18088714D01*
X11845714Y-18103000D01*
X11831428Y-18117286D01*
X12145714Y-18288714D02*
X12117143Y-18274429D01*
X12102857Y-18260143D01*
X12088571Y-18231572D01*
X12088571Y-18145857D01*
X12102857Y-18117286D01*
X12117143Y-18103000D01*
X12145714Y-18088714D01*
X12188571Y-18088714D01*
X12217143Y-18103000D01*
X12231428Y-18117286D01*
X12245714Y-18145857D01*
X12245714Y-18231572D01*
X12231428Y-18260143D01*
X12217143Y-18274429D01*
X12188571Y-18288714D01*
X12145714Y-18288714D01*
X12417143Y-18288714D02*
X12388571Y-18274429D01*
X12374286Y-18245857D01*
X12374286Y-17988714D01*
X12645714Y-18274429D02*
X12617143Y-18288714D01*
X12560000Y-18288714D01*
X12531428Y-18274429D01*
X12517143Y-18245857D01*
X12517143Y-18131572D01*
X12531428Y-18103000D01*
X12560000Y-18088714D01*
X12617143Y-18088714D01*
X12645714Y-18103000D01*
X12660000Y-18131572D01*
X12660000Y-18160143D01*
X12517143Y-18188714D01*
X12774286Y-18274429D02*
X12802857Y-18288714D01*
X12860000Y-18288714D01*
X12888571Y-18274429D01*
X12902857Y-18245857D01*
X12902857Y-18231572D01*
X12888571Y-18203000D01*
X12860000Y-18188714D01*
X12817143Y-18188714D01*
X12788571Y-18174429D01*
X12774286Y-18145857D01*
X12774286Y-18131572D01*
X12788571Y-18103000D01*
X12817143Y-18088714D01*
X12860000Y-18088714D01*
X12888571Y-18103000D01*
X13002857Y-18403000D02*
X13017143Y-18388714D01*
X13045714Y-18345857D01*
X13060000Y-18317286D01*
X13074286Y-18274429D01*
X13088571Y-18203000D01*
X13088571Y-18145857D01*
X13074286Y-18074429D01*
X13060000Y-18031572D01*
X13045714Y-18003000D01*
X13017143Y-17960143D01*
X13002857Y-17945857D01*
X5835000Y-18659000D02*
X5945000Y-18549000D01*
X5835000Y-18439000D01*
X5725000Y-18549000D01*
X5835000Y-18659000D01*
X6217143Y-18413286D02*
X6231428Y-18399000D01*
X6260000Y-18384714D01*
X6331428Y-18384714D01*
X6360000Y-18399000D01*
X6374286Y-18413286D01*
X6388571Y-18441857D01*
X6388571Y-18470429D01*
X6374286Y-18513286D01*
X6202857Y-18684714D01*
X6388571Y-18684714D01*
X6517143Y-18656143D02*
X6531428Y-18670429D01*
X6517143Y-18684714D01*
X6502857Y-18670429D01*
X6517143Y-18656143D01*
X6517143Y-18684714D01*
X6645714Y-18413286D02*
X6660000Y-18399000D01*
X6688571Y-18384714D01*
X6760000Y-18384714D01*
X6788571Y-18399000D01*
X6802857Y-18413286D01*
X6817143Y-18441857D01*
X6817143Y-18470429D01*
X6802857Y-18513286D01*
X6631428Y-18684714D01*
X6817143Y-18684714D01*
X7002857Y-18384714D02*
X7031428Y-18384714D01*
X7060000Y-18399000D01*
X7074286Y-18413286D01*
X7088571Y-18441857D01*
X7102857Y-18499000D01*
X7102857Y-18570429D01*
X7088571Y-18627572D01*
X7074286Y-18656143D01*
X7060000Y-18670429D01*
X7031428Y-18684714D01*
X7002857Y-18684714D01*
X6974286Y-18670429D01*
X6960000Y-18656143D01*
X6945714Y-18627572D01*
X6931428Y-18570429D01*
X6931428Y-18499000D01*
X6945714Y-18441857D01*
X6960000Y-18413286D01*
X6974286Y-18399000D01*
X7002857Y-18384714D01*
X7288571Y-18384714D02*
X7317143Y-18384714D01*
X7345714Y-18399000D01*
X7360000Y-18413286D01*
X7374286Y-18441857D01*
X7388571Y-18499000D01*
X7388571Y-18570429D01*
X7374286Y-18627572D01*
X7360000Y-18656143D01*
X7345714Y-18670429D01*
X7317143Y-18684714D01*
X7288571Y-18684714D01*
X7260000Y-18670429D01*
X7245714Y-18656143D01*
X7231428Y-18627572D01*
X7217143Y-18570429D01*
X7217143Y-18499000D01*
X7231428Y-18441857D01*
X7245714Y-18413286D01*
X7260000Y-18399000D01*
X7288571Y-18384714D01*
X7517143Y-18684714D02*
X7517143Y-18484714D01*
X7517143Y-18513286D02*
X7531428Y-18499000D01*
X7560000Y-18484714D01*
X7602857Y-18484714D01*
X7631428Y-18499000D01*
X7645714Y-18527572D01*
X7645714Y-18684714D01*
X7645714Y-18527572D02*
X7660000Y-18499000D01*
X7688571Y-18484714D01*
X7731428Y-18484714D01*
X7760000Y-18499000D01*
X7774286Y-18527572D01*
X7774286Y-18684714D01*
X7917143Y-18684714D02*
X7917143Y-18484714D01*
X7917143Y-18513286D02*
X7931428Y-18499000D01*
X7960000Y-18484714D01*
X8002857Y-18484714D01*
X8031428Y-18499000D01*
X8045714Y-18527572D01*
X8045714Y-18684714D01*
X8045714Y-18527572D02*
X8060000Y-18499000D01*
X8088571Y-18484714D01*
X8131428Y-18484714D01*
X8160000Y-18499000D01*
X8174286Y-18527572D01*
X8174286Y-18684714D01*
X8760000Y-18370429D02*
X8502857Y-18756143D01*
X9145714Y-18384714D02*
X9174286Y-18384714D01*
X9202857Y-18399000D01*
X9217143Y-18413286D01*
X9231428Y-18441857D01*
X9245714Y-18499000D01*
X9245714Y-18570429D01*
X9231428Y-18627572D01*
X9217143Y-18656143D01*
X9202857Y-18670429D01*
X9174286Y-18684714D01*
X9145714Y-18684714D01*
X9117143Y-18670429D01*
X9102857Y-18656143D01*
X9088571Y-18627572D01*
X9074286Y-18570429D01*
X9074286Y-18499000D01*
X9088571Y-18441857D01*
X9102857Y-18413286D01*
X9117143Y-18399000D01*
X9145714Y-18384714D01*
X9374286Y-18656143D02*
X9388571Y-18670429D01*
X9374286Y-18684714D01*
X9360000Y-18670429D01*
X9374286Y-18656143D01*
X9374286Y-18684714D01*
X9574286Y-18384714D02*
X9602857Y-18384714D01*
X9631428Y-18399000D01*
X9645714Y-18413286D01*
X9660000Y-18441857D01*
X9674286Y-18499000D01*
X9674286Y-18570429D01*
X9660000Y-18627572D01*
X9645714Y-18656143D01*
X9631428Y-18670429D01*
X9602857Y-18684714D01*
X9574286Y-18684714D01*
X9545714Y-18670429D01*
X9531428Y-18656143D01*
X9517143Y-18627572D01*
X9502857Y-18570429D01*
X9502857Y-18499000D01*
X9517143Y-18441857D01*
X9531428Y-18413286D01*
X9545714Y-18399000D01*
X9574286Y-18384714D01*
X9845714Y-18513286D02*
X9817143Y-18499000D01*
X9802857Y-18484714D01*
X9788571Y-18456143D01*
X9788571Y-18441857D01*
X9802857Y-18413286D01*
X9817143Y-18399000D01*
X9845714Y-18384714D01*
X9902857Y-18384714D01*
X9931428Y-18399000D01*
X9945714Y-18413286D01*
X9960000Y-18441857D01*
X9960000Y-18456143D01*
X9945714Y-18484714D01*
X9931428Y-18499000D01*
X9902857Y-18513286D01*
X9845714Y-18513286D01*
X9817143Y-18527572D01*
X9802857Y-18541857D01*
X9788571Y-18570429D01*
X9788571Y-18627572D01*
X9802857Y-18656143D01*
X9817143Y-18670429D01*
X9845714Y-18684714D01*
X9902857Y-18684714D01*
X9931428Y-18670429D01*
X9945714Y-18656143D01*
X9960000Y-18627572D01*
X9960000Y-18570429D01*
X9945714Y-18541857D01*
X9931428Y-18527572D01*
X9902857Y-18513286D01*
X10217143Y-18384714D02*
X10160000Y-18384714D01*
X10131428Y-18399000D01*
X10117143Y-18413286D01*
X10088571Y-18456143D01*
X10074286Y-18513286D01*
X10074286Y-18627572D01*
X10088571Y-18656143D01*
X10102857Y-18670429D01*
X10131428Y-18684714D01*
X10188571Y-18684714D01*
X10217143Y-18670429D01*
X10231428Y-18656143D01*
X10245714Y-18627572D01*
X10245714Y-18556143D01*
X10231428Y-18527572D01*
X10217143Y-18513286D01*
X10188571Y-18499000D01*
X10131428Y-18499000D01*
X10102857Y-18513286D01*
X10088571Y-18527572D01*
X10074286Y-18556143D01*
X10502857Y-18384714D02*
X10445714Y-18384714D01*
X10417143Y-18399000D01*
X10402857Y-18413286D01*
X10374286Y-18456143D01*
X10360000Y-18513286D01*
X10360000Y-18627572D01*
X10374286Y-18656143D01*
X10388571Y-18670429D01*
X10417143Y-18684714D01*
X10474286Y-18684714D01*
X10502857Y-18670429D01*
X10517143Y-18656143D01*
X10531428Y-18627572D01*
X10531428Y-18556143D01*
X10517143Y-18527572D01*
X10502857Y-18513286D01*
X10474286Y-18499000D01*
X10417143Y-18499000D01*
X10388571Y-18513286D01*
X10374286Y-18527572D01*
X10360000Y-18556143D01*
X10645714Y-18384714D02*
X10645714Y-18441857D01*
X10760000Y-18384714D02*
X10760000Y-18441857D01*
X11202857Y-18799000D02*
X11188571Y-18784714D01*
X11160000Y-18741857D01*
X11145714Y-18713286D01*
X11131428Y-18670429D01*
X11117143Y-18599000D01*
X11117143Y-18541857D01*
X11131428Y-18470429D01*
X11145714Y-18427572D01*
X11160000Y-18399000D01*
X11188571Y-18356143D01*
X11202857Y-18341857D01*
X11360000Y-18513286D02*
X11331428Y-18499000D01*
X11317143Y-18484714D01*
X11302857Y-18456143D01*
X11302857Y-18441857D01*
X11317143Y-18413286D01*
X11331428Y-18399000D01*
X11360000Y-18384714D01*
X11417143Y-18384714D01*
X11445714Y-18399000D01*
X11460000Y-18413286D01*
X11474286Y-18441857D01*
X11474286Y-18456143D01*
X11460000Y-18484714D01*
X11445714Y-18499000D01*
X11417143Y-18513286D01*
X11360000Y-18513286D01*
X11331428Y-18527572D01*
X11317143Y-18541857D01*
X11302857Y-18570429D01*
X11302857Y-18627572D01*
X11317143Y-18656143D01*
X11331428Y-18670429D01*
X11360000Y-18684714D01*
X11417143Y-18684714D01*
X11445714Y-18670429D01*
X11460000Y-18656143D01*
X11474286Y-18627572D01*
X11474286Y-18570429D01*
X11460000Y-18541857D01*
X11445714Y-18527572D01*
X11417143Y-18513286D01*
X11831428Y-18684714D02*
X11831428Y-18384714D01*
X11960000Y-18684714D02*
X11960000Y-18527572D01*
X11945714Y-18499000D01*
X11917143Y-18484714D01*
X11874286Y-18484714D01*
X11845714Y-18499000D01*
X11831428Y-18513286D01*
X12145714Y-18684714D02*
X12117143Y-18670429D01*
X12102857Y-18656143D01*
X12088571Y-18627572D01*
X12088571Y-18541857D01*
X12102857Y-18513286D01*
X12117143Y-18499000D01*
X12145714Y-18484714D01*
X12188571Y-18484714D01*
X12217143Y-18499000D01*
X12231428Y-18513286D01*
X12245714Y-18541857D01*
X12245714Y-18627572D01*
X12231428Y-18656143D01*
X12217143Y-18670429D01*
X12188571Y-18684714D01*
X12145714Y-18684714D01*
X12417143Y-18684714D02*
X12388571Y-18670429D01*
X12374286Y-18641857D01*
X12374286Y-18384714D01*
X12645714Y-18670429D02*
X12617143Y-18684714D01*
X12560000Y-18684714D01*
X12531428Y-18670429D01*
X12517143Y-18641857D01*
X12517143Y-18527572D01*
X12531428Y-18499000D01*
X12560000Y-18484714D01*
X12617143Y-18484714D01*
X12645714Y-18499000D01*
X12660000Y-18527572D01*
X12660000Y-18556143D01*
X12517143Y-18584714D01*
X12774286Y-18670429D02*
X12802857Y-18684714D01*
X12860000Y-18684714D01*
X12888571Y-18670429D01*
X12902857Y-18641857D01*
X12902857Y-18627572D01*
X12888571Y-18599000D01*
X12860000Y-18584714D01*
X12817143Y-18584714D01*
X12788571Y-18570429D01*
X12774286Y-18541857D01*
X12774286Y-18527572D01*
X12788571Y-18499000D01*
X12817143Y-18484714D01*
X12860000Y-18484714D01*
X12888571Y-18499000D01*
X13002857Y-18799000D02*
X13017143Y-18784714D01*
X13045714Y-18741857D01*
X13060000Y-18713286D01*
X13074286Y-18670429D01*
X13088571Y-18599000D01*
X13088571Y-18541857D01*
X13074286Y-18470429D01*
X13060000Y-18427572D01*
X13045714Y-18399000D01*
X13017143Y-18356143D01*
X13002857Y-18341857D01*
M02*
