%TF.GenerationSoftware,KiCad,Pcbnew,(5.1.10)-1*%
%TF.CreationDate,2021-11-22T22:47:00-06:00*%
%TF.ProjectId,PyKey18,50794b65-7931-4382-9e6b-696361645f70,1.0*%
%TF.SameCoordinates,Original*%
%TF.FileFunction,Copper,L2,Bot*%
%TF.FilePolarity,Positive*%
%FSLAX46Y46*%
G04 Gerber Fmt 4.6, Leading zero omitted, Abs format (unit mm)*
G04 Created by KiCad (PCBNEW (5.1.10)-1) date 2021-11-22 22:47:00*
%MOMM*%
%LPD*%
G01*
G04 APERTURE LIST*
%TA.AperFunction,NonConductor*%
%ADD10C,0.254000*%
%TD*%
%TA.AperFunction,NonConductor*%
%ADD11C,0.100000*%
%TD*%
G04 APERTURE END LIST*
D10*
X129249899Y-50737907D02*
X129490285Y-50810484D01*
X129711991Y-50928368D01*
X129906577Y-51087068D01*
X130066635Y-51280545D01*
X130186064Y-51501424D01*
X130260317Y-51741297D01*
X130290001Y-52023726D01*
X130290000Y-167965279D01*
X130262093Y-168249899D01*
X130189517Y-168490282D01*
X130071633Y-168711989D01*
X129912929Y-168906580D01*
X129719455Y-169066635D01*
X129498576Y-169186064D01*
X129258701Y-169260317D01*
X128976291Y-169290000D01*
X52034721Y-169290000D01*
X51750101Y-169262093D01*
X51509718Y-169189517D01*
X51288011Y-169071633D01*
X51093420Y-168912929D01*
X50933365Y-168719455D01*
X50813936Y-168498576D01*
X50739683Y-168258701D01*
X50710000Y-167976291D01*
X50710000Y-150329117D01*
X51265000Y-150329117D01*
X51265000Y-150670883D01*
X51331675Y-151006081D01*
X51462463Y-151321831D01*
X51652337Y-151605998D01*
X51894002Y-151847663D01*
X52178169Y-152037537D01*
X52493919Y-152168325D01*
X52829117Y-152235000D01*
X53170883Y-152235000D01*
X53506081Y-152168325D01*
X53821831Y-152037537D01*
X54105998Y-151847663D01*
X54347663Y-151605998D01*
X54537537Y-151321831D01*
X54668325Y-151006081D01*
X54735000Y-150670883D01*
X54735000Y-150329117D01*
X107765000Y-150329117D01*
X107765000Y-150670883D01*
X107831675Y-151006081D01*
X107962463Y-151321831D01*
X108152337Y-151605998D01*
X108394002Y-151847663D01*
X108678169Y-152037537D01*
X108993919Y-152168325D01*
X109329117Y-152235000D01*
X109670883Y-152235000D01*
X110006081Y-152168325D01*
X110321831Y-152037537D01*
X110605998Y-151847663D01*
X110847663Y-151605998D01*
X111037537Y-151321831D01*
X111168325Y-151006081D01*
X111235000Y-150670883D01*
X111235000Y-150329117D01*
X111168325Y-149993919D01*
X111037537Y-149678169D01*
X110847663Y-149394002D01*
X110605998Y-149152337D01*
X110321831Y-148962463D01*
X110006081Y-148831675D01*
X109670883Y-148765000D01*
X109329117Y-148765000D01*
X108993919Y-148831675D01*
X108678169Y-148962463D01*
X108394002Y-149152337D01*
X108152337Y-149394002D01*
X107962463Y-149678169D01*
X107831675Y-149993919D01*
X107765000Y-150329117D01*
X54735000Y-150329117D01*
X54668325Y-149993919D01*
X54537537Y-149678169D01*
X54347663Y-149394002D01*
X54105998Y-149152337D01*
X53821831Y-148962463D01*
X53506081Y-148831675D01*
X53170883Y-148765000D01*
X52829117Y-148765000D01*
X52493919Y-148831675D01*
X52178169Y-148962463D01*
X51894002Y-149152337D01*
X51652337Y-149394002D01*
X51462463Y-149678169D01*
X51331675Y-149993919D01*
X51265000Y-150329117D01*
X50710000Y-150329117D01*
X50710000Y-64725701D01*
X62215000Y-64725701D01*
X62215000Y-65274299D01*
X62322026Y-65812354D01*
X62531965Y-66319192D01*
X62836750Y-66775334D01*
X63224666Y-67163250D01*
X63680808Y-67468035D01*
X64187646Y-67677974D01*
X64725701Y-67785000D01*
X65274299Y-67785000D01*
X65812354Y-67677974D01*
X66319192Y-67468035D01*
X66775334Y-67163250D01*
X67163250Y-66775334D01*
X67468035Y-66319192D01*
X67677974Y-65812354D01*
X67785000Y-65274299D01*
X67785000Y-64725701D01*
X113215000Y-64725701D01*
X113215000Y-65274299D01*
X113322026Y-65812354D01*
X113531965Y-66319192D01*
X113836750Y-66775334D01*
X114224666Y-67163250D01*
X114680808Y-67468035D01*
X115187646Y-67677974D01*
X115725701Y-67785000D01*
X116274299Y-67785000D01*
X116812354Y-67677974D01*
X117319192Y-67468035D01*
X117775334Y-67163250D01*
X118163250Y-66775334D01*
X118468035Y-66319192D01*
X118677974Y-65812354D01*
X118785000Y-65274299D01*
X118785000Y-64725701D01*
X118677974Y-64187646D01*
X118468035Y-63680808D01*
X118163250Y-63224666D01*
X117775334Y-62836750D01*
X117319192Y-62531965D01*
X116812354Y-62322026D01*
X116274299Y-62215000D01*
X115725701Y-62215000D01*
X115187646Y-62322026D01*
X114680808Y-62531965D01*
X114224666Y-62836750D01*
X113836750Y-63224666D01*
X113531965Y-63680808D01*
X113322026Y-64187646D01*
X113215000Y-64725701D01*
X67785000Y-64725701D01*
X67677974Y-64187646D01*
X67468035Y-63680808D01*
X67163250Y-63224666D01*
X66775334Y-62836750D01*
X66319192Y-62531965D01*
X65812354Y-62322026D01*
X65274299Y-62215000D01*
X64725701Y-62215000D01*
X64187646Y-62322026D01*
X63680808Y-62531965D01*
X63224666Y-62836750D01*
X62836750Y-63224666D01*
X62531965Y-63680808D01*
X62322026Y-64187646D01*
X62215000Y-64725701D01*
X50710000Y-64725701D01*
X50710000Y-53829117D01*
X51265000Y-53829117D01*
X51265000Y-54170883D01*
X51331675Y-54506081D01*
X51462463Y-54821831D01*
X51652337Y-55105998D01*
X51894002Y-55347663D01*
X52178169Y-55537537D01*
X52493919Y-55668325D01*
X52829117Y-55735000D01*
X53170883Y-55735000D01*
X53506081Y-55668325D01*
X53821831Y-55537537D01*
X54105998Y-55347663D01*
X54347663Y-55105998D01*
X54537537Y-54821831D01*
X54668325Y-54506081D01*
X54735000Y-54170883D01*
X54735000Y-53829117D01*
X126265000Y-53829117D01*
X126265000Y-54170883D01*
X126331675Y-54506081D01*
X126462463Y-54821831D01*
X126652337Y-55105998D01*
X126894002Y-55347663D01*
X127178169Y-55537537D01*
X127493919Y-55668325D01*
X127829117Y-55735000D01*
X128170883Y-55735000D01*
X128506081Y-55668325D01*
X128821831Y-55537537D01*
X129105998Y-55347663D01*
X129347663Y-55105998D01*
X129537537Y-54821831D01*
X129668325Y-54506081D01*
X129735000Y-54170883D01*
X129735000Y-53829117D01*
X129668325Y-53493919D01*
X129537537Y-53178169D01*
X129347663Y-52894002D01*
X129105998Y-52652337D01*
X128821831Y-52462463D01*
X128506081Y-52331675D01*
X128170883Y-52265000D01*
X127829117Y-52265000D01*
X127493919Y-52331675D01*
X127178169Y-52462463D01*
X126894002Y-52652337D01*
X126652337Y-52894002D01*
X126462463Y-53178169D01*
X126331675Y-53493919D01*
X126265000Y-53829117D01*
X54735000Y-53829117D01*
X54668325Y-53493919D01*
X54537537Y-53178169D01*
X54347663Y-52894002D01*
X54105998Y-52652337D01*
X53821831Y-52462463D01*
X53506081Y-52331675D01*
X53170883Y-52265000D01*
X52829117Y-52265000D01*
X52493919Y-52331675D01*
X52178169Y-52462463D01*
X51894002Y-52652337D01*
X51652337Y-52894002D01*
X51462463Y-53178169D01*
X51331675Y-53493919D01*
X51265000Y-53829117D01*
X50710000Y-53829117D01*
X50710000Y-52034721D01*
X50737907Y-51750101D01*
X50810484Y-51509715D01*
X50928368Y-51288009D01*
X51087068Y-51093423D01*
X51280545Y-50933365D01*
X51501424Y-50813936D01*
X51741297Y-50739683D01*
X52023716Y-50710000D01*
X128965279Y-50710000D01*
X129249899Y-50737907D01*
%TA.AperFunction,NonConductor*%
D11*
G36*
X129249899Y-50737907D02*
G01*
X129490285Y-50810484D01*
X129711991Y-50928368D01*
X129906577Y-51087068D01*
X130066635Y-51280545D01*
X130186064Y-51501424D01*
X130260317Y-51741297D01*
X130290001Y-52023726D01*
X130290000Y-167965279D01*
X130262093Y-168249899D01*
X130189517Y-168490282D01*
X130071633Y-168711989D01*
X129912929Y-168906580D01*
X129719455Y-169066635D01*
X129498576Y-169186064D01*
X129258701Y-169260317D01*
X128976291Y-169290000D01*
X52034721Y-169290000D01*
X51750101Y-169262093D01*
X51509718Y-169189517D01*
X51288011Y-169071633D01*
X51093420Y-168912929D01*
X50933365Y-168719455D01*
X50813936Y-168498576D01*
X50739683Y-168258701D01*
X50710000Y-167976291D01*
X50710000Y-150329117D01*
X51265000Y-150329117D01*
X51265000Y-150670883D01*
X51331675Y-151006081D01*
X51462463Y-151321831D01*
X51652337Y-151605998D01*
X51894002Y-151847663D01*
X52178169Y-152037537D01*
X52493919Y-152168325D01*
X52829117Y-152235000D01*
X53170883Y-152235000D01*
X53506081Y-152168325D01*
X53821831Y-152037537D01*
X54105998Y-151847663D01*
X54347663Y-151605998D01*
X54537537Y-151321831D01*
X54668325Y-151006081D01*
X54735000Y-150670883D01*
X54735000Y-150329117D01*
X107765000Y-150329117D01*
X107765000Y-150670883D01*
X107831675Y-151006081D01*
X107962463Y-151321831D01*
X108152337Y-151605998D01*
X108394002Y-151847663D01*
X108678169Y-152037537D01*
X108993919Y-152168325D01*
X109329117Y-152235000D01*
X109670883Y-152235000D01*
X110006081Y-152168325D01*
X110321831Y-152037537D01*
X110605998Y-151847663D01*
X110847663Y-151605998D01*
X111037537Y-151321831D01*
X111168325Y-151006081D01*
X111235000Y-150670883D01*
X111235000Y-150329117D01*
X111168325Y-149993919D01*
X111037537Y-149678169D01*
X110847663Y-149394002D01*
X110605998Y-149152337D01*
X110321831Y-148962463D01*
X110006081Y-148831675D01*
X109670883Y-148765000D01*
X109329117Y-148765000D01*
X108993919Y-148831675D01*
X108678169Y-148962463D01*
X108394002Y-149152337D01*
X108152337Y-149394002D01*
X107962463Y-149678169D01*
X107831675Y-149993919D01*
X107765000Y-150329117D01*
X54735000Y-150329117D01*
X54668325Y-149993919D01*
X54537537Y-149678169D01*
X54347663Y-149394002D01*
X54105998Y-149152337D01*
X53821831Y-148962463D01*
X53506081Y-148831675D01*
X53170883Y-148765000D01*
X52829117Y-148765000D01*
X52493919Y-148831675D01*
X52178169Y-148962463D01*
X51894002Y-149152337D01*
X51652337Y-149394002D01*
X51462463Y-149678169D01*
X51331675Y-149993919D01*
X51265000Y-150329117D01*
X50710000Y-150329117D01*
X50710000Y-64725701D01*
X62215000Y-64725701D01*
X62215000Y-65274299D01*
X62322026Y-65812354D01*
X62531965Y-66319192D01*
X62836750Y-66775334D01*
X63224666Y-67163250D01*
X63680808Y-67468035D01*
X64187646Y-67677974D01*
X64725701Y-67785000D01*
X65274299Y-67785000D01*
X65812354Y-67677974D01*
X66319192Y-67468035D01*
X66775334Y-67163250D01*
X67163250Y-66775334D01*
X67468035Y-66319192D01*
X67677974Y-65812354D01*
X67785000Y-65274299D01*
X67785000Y-64725701D01*
X113215000Y-64725701D01*
X113215000Y-65274299D01*
X113322026Y-65812354D01*
X113531965Y-66319192D01*
X113836750Y-66775334D01*
X114224666Y-67163250D01*
X114680808Y-67468035D01*
X115187646Y-67677974D01*
X115725701Y-67785000D01*
X116274299Y-67785000D01*
X116812354Y-67677974D01*
X117319192Y-67468035D01*
X117775334Y-67163250D01*
X118163250Y-66775334D01*
X118468035Y-66319192D01*
X118677974Y-65812354D01*
X118785000Y-65274299D01*
X118785000Y-64725701D01*
X118677974Y-64187646D01*
X118468035Y-63680808D01*
X118163250Y-63224666D01*
X117775334Y-62836750D01*
X117319192Y-62531965D01*
X116812354Y-62322026D01*
X116274299Y-62215000D01*
X115725701Y-62215000D01*
X115187646Y-62322026D01*
X114680808Y-62531965D01*
X114224666Y-62836750D01*
X113836750Y-63224666D01*
X113531965Y-63680808D01*
X113322026Y-64187646D01*
X113215000Y-64725701D01*
X67785000Y-64725701D01*
X67677974Y-64187646D01*
X67468035Y-63680808D01*
X67163250Y-63224666D01*
X66775334Y-62836750D01*
X66319192Y-62531965D01*
X65812354Y-62322026D01*
X65274299Y-62215000D01*
X64725701Y-62215000D01*
X64187646Y-62322026D01*
X63680808Y-62531965D01*
X63224666Y-62836750D01*
X62836750Y-63224666D01*
X62531965Y-63680808D01*
X62322026Y-64187646D01*
X62215000Y-64725701D01*
X50710000Y-64725701D01*
X50710000Y-53829117D01*
X51265000Y-53829117D01*
X51265000Y-54170883D01*
X51331675Y-54506081D01*
X51462463Y-54821831D01*
X51652337Y-55105998D01*
X51894002Y-55347663D01*
X52178169Y-55537537D01*
X52493919Y-55668325D01*
X52829117Y-55735000D01*
X53170883Y-55735000D01*
X53506081Y-55668325D01*
X53821831Y-55537537D01*
X54105998Y-55347663D01*
X54347663Y-55105998D01*
X54537537Y-54821831D01*
X54668325Y-54506081D01*
X54735000Y-54170883D01*
X54735000Y-53829117D01*
X126265000Y-53829117D01*
X126265000Y-54170883D01*
X126331675Y-54506081D01*
X126462463Y-54821831D01*
X126652337Y-55105998D01*
X126894002Y-55347663D01*
X127178169Y-55537537D01*
X127493919Y-55668325D01*
X127829117Y-55735000D01*
X128170883Y-55735000D01*
X128506081Y-55668325D01*
X128821831Y-55537537D01*
X129105998Y-55347663D01*
X129347663Y-55105998D01*
X129537537Y-54821831D01*
X129668325Y-54506081D01*
X129735000Y-54170883D01*
X129735000Y-53829117D01*
X129668325Y-53493919D01*
X129537537Y-53178169D01*
X129347663Y-52894002D01*
X129105998Y-52652337D01*
X128821831Y-52462463D01*
X128506081Y-52331675D01*
X128170883Y-52265000D01*
X127829117Y-52265000D01*
X127493919Y-52331675D01*
X127178169Y-52462463D01*
X126894002Y-52652337D01*
X126652337Y-52894002D01*
X126462463Y-53178169D01*
X126331675Y-53493919D01*
X126265000Y-53829117D01*
X54735000Y-53829117D01*
X54668325Y-53493919D01*
X54537537Y-53178169D01*
X54347663Y-52894002D01*
X54105998Y-52652337D01*
X53821831Y-52462463D01*
X53506081Y-52331675D01*
X53170883Y-52265000D01*
X52829117Y-52265000D01*
X52493919Y-52331675D01*
X52178169Y-52462463D01*
X51894002Y-52652337D01*
X51652337Y-52894002D01*
X51462463Y-53178169D01*
X51331675Y-53493919D01*
X51265000Y-53829117D01*
X50710000Y-53829117D01*
X50710000Y-52034721D01*
X50737907Y-51750101D01*
X50810484Y-51509715D01*
X50928368Y-51288009D01*
X51087068Y-51093423D01*
X51280545Y-50933365D01*
X51501424Y-50813936D01*
X51741297Y-50739683D01*
X52023716Y-50710000D01*
X128965279Y-50710000D01*
X129249899Y-50737907D01*
G37*
%TD.AperFunction*%
M02*
