M48
; DRILL file {KiCad (5.1.10)-1} date 11/23/21 17:36:02
; FORMAT={-:-/ absolute / inch / decimal}
; #@! TF.CreationDate,2021-11-23T17:36:02-06:00
; #@! TF.GenerationSoftware,Kicad,Pcbnew,(5.1.10)-1
; #@! TF.FileFunction,NonPlated,1,2,NPTH
FMAT,2
INCH
T1C0.0256
T2C0.0295
T3C0.0354
T4C0.0454
T5C0.0591
T6C0.0689
T7C0.0866
T8C0.1181
T9C0.1201
T10C0.1575
T11C0.1693
%
G90
G05
T1
X3.9709Y-2.2087
X4.1984Y-2.2087
T2
X2.0522Y-2.874
X2.1604Y-2.874
T3
X4.2783Y-2.5394
X4.2783Y-2.6575
T4
X2.2638Y-2.126
X4.7146Y-6.3976
T5
X2.6378Y-2.1152
X2.6378Y-2.3907
T6
X2.2409Y-3.3071
X2.2409Y-4.0551
X2.2409Y-4.8031
X2.2409Y-5.5512
X2.615Y-6.2992
X2.6409Y-3.3071
X2.6409Y-4.0551
X2.6409Y-4.8031
X2.6409Y-5.5512
X2.989Y-3.3071
X2.989Y-4.0551
X2.989Y-4.8031
X2.989Y-5.5512
X3.015Y-6.2992
X3.389Y-3.3071
X3.389Y-4.0551
X3.389Y-4.8031
X3.389Y-5.5512
X3.737Y-3.3071
X3.737Y-4.0551
X3.737Y-4.8031
X3.737Y-5.5512
X3.737Y-6.2992
X4.137Y-3.3071
X4.137Y-4.0551
X4.137Y-4.8031
X4.137Y-5.5512
X4.137Y-6.2992
X4.485Y-3.3071
X4.485Y-4.4291
X4.485Y-5.9252
X4.885Y-3.3071
X4.885Y-4.4291
X4.885Y-5.9252
T7
X2.0866Y-2.126
X2.0866Y-5.9252
X4.311Y-5.9252
X5.0394Y-2.126
T8
X2.3409Y-3.5071
X2.3409Y-4.2551
X2.3409Y-5.0031
X2.3409Y-5.7512
X2.5909Y-3.4071
X2.5909Y-4.1551
X2.5909Y-4.9031
X2.5909Y-5.6512
X2.715Y-6.4992
X2.965Y-6.3992
X3.089Y-3.5071
X3.089Y-4.2551
X3.089Y-5.0031
X3.089Y-5.7512
X3.339Y-3.4071
X3.339Y-4.1551
X3.339Y-4.9031
X3.339Y-5.6512
X3.837Y-3.5071
X3.837Y-4.2551
X3.837Y-5.0031
X3.837Y-5.7512
X3.837Y-6.4992
X4.087Y-3.4071
X4.087Y-4.1551
X4.087Y-4.9031
X4.087Y-5.6512
X4.087Y-6.3992
X4.585Y-3.5071
X4.585Y-4.6291
X4.585Y-6.1252
X4.835Y-3.4071
X4.835Y-4.5291
X4.835Y-6.0252
T9
X2.345Y-6.5748
X3.285Y-6.5748
X4.4094Y-3.9591
X4.4094Y-4.8991
X4.4094Y-5.4552
X4.4094Y-6.3952
T10
X2.345Y-5.9748
X2.4409Y-3.3071
X2.4409Y-4.0551
X2.4409Y-4.8031
X2.4409Y-5.5512
X2.815Y-6.2992
X3.189Y-3.3071
X3.189Y-4.0551
X3.189Y-4.8031
X3.189Y-5.5512
X3.285Y-5.9748
X3.937Y-3.3071
X3.937Y-4.0551
X3.937Y-4.8031
X3.937Y-5.5512
X3.937Y-6.2992
X4.685Y-3.3071
X4.685Y-4.4291
X4.685Y-5.9252
X5.0094Y-3.9591
X5.0094Y-4.8991
X5.0094Y-5.4552
X5.0094Y-6.3952
T11
X0.1677Y-3.5559
X0.5673Y-3.5559
T0
M30
