%TF.GenerationSoftware,KiCad,Pcbnew,(5.1.10)-1*%
%TF.CreationDate,2021-11-23T17:36:00-06:00*%
%TF.ProjectId,PyKey18,50794b65-7931-4382-9e6b-696361645f70,1.0*%
%TF.SameCoordinates,Original*%
%TF.FileFunction,Paste,Bot*%
%TF.FilePolarity,Positive*%
%FSLAX46Y46*%
G04 Gerber Fmt 4.6, Leading zero omitted, Abs format (unit mm)*
G04 Created by KiCad (PCBNEW (5.1.10)-1) date 2021-11-23 17:36:00*
%MOMM*%
%LPD*%
G01*
G04 APERTURE LIST*
%ADD10R,2.500000X1.100000*%
%ADD11R,2.550000X2.500000*%
%ADD12R,2.200000X2.200000*%
%ADD13R,1.400000X1.200000*%
%ADD14R,2.000000X1.500000*%
%ADD15R,2.000000X3.800000*%
%ADD16R,1.000000X1.550000*%
%ADD17R,0.800000X1.000000*%
%ADD18R,1.500000X0.700000*%
%ADD19R,2.500000X1.200000*%
%ADD20R,0.600000X1.450000*%
%ADD21R,0.300000X1.450000*%
%ADD22R,1.200000X0.900000*%
%ADD23R,0.900000X1.200000*%
G04 APERTURE END LIST*
%TO.C,C17*%
G36*
G01*
X104575000Y-157750000D02*
X104575000Y-157250000D01*
G75*
G02*
X104800000Y-157025000I225000J0D01*
G01*
X105250000Y-157025000D01*
G75*
G02*
X105475000Y-157250000I0J-225000D01*
G01*
X105475000Y-157750000D01*
G75*
G02*
X105250000Y-157975000I-225000J0D01*
G01*
X104800000Y-157975000D01*
G75*
G02*
X104575000Y-157750000I0J225000D01*
G01*
G37*
G36*
G01*
X103025000Y-157750000D02*
X103025000Y-157250000D01*
G75*
G02*
X103250000Y-157025000I225000J0D01*
G01*
X103700000Y-157025000D01*
G75*
G02*
X103925000Y-157250000I0J-225000D01*
G01*
X103925000Y-157750000D01*
G75*
G02*
X103700000Y-157975000I-225000J0D01*
G01*
X103250000Y-157975000D01*
G75*
G02*
X103025000Y-157750000I0J225000D01*
G01*
G37*
%TD*%
%TO.C,C16*%
G36*
G01*
X76575000Y-157750000D02*
X76575000Y-157250000D01*
G75*
G02*
X76800000Y-157025000I225000J0D01*
G01*
X77250000Y-157025000D01*
G75*
G02*
X77475000Y-157250000I0J-225000D01*
G01*
X77475000Y-157750000D01*
G75*
G02*
X77250000Y-157975000I-225000J0D01*
G01*
X76800000Y-157975000D01*
G75*
G02*
X76575000Y-157750000I0J225000D01*
G01*
G37*
G36*
G01*
X75025000Y-157750000D02*
X75025000Y-157250000D01*
G75*
G02*
X75250000Y-157025000I225000J0D01*
G01*
X75700000Y-157025000D01*
G75*
G02*
X75925000Y-157250000I0J-225000D01*
G01*
X75925000Y-157750000D01*
G75*
G02*
X75700000Y-157975000I-225000J0D01*
G01*
X75250000Y-157975000D01*
G75*
G02*
X75025000Y-157750000I0J225000D01*
G01*
G37*
%TD*%
%TO.C,C15*%
G36*
G01*
X123800000Y-148250000D02*
X123800000Y-147750000D01*
G75*
G02*
X124025000Y-147525000I225000J0D01*
G01*
X124475000Y-147525000D01*
G75*
G02*
X124700000Y-147750000I0J-225000D01*
G01*
X124700000Y-148250000D01*
G75*
G02*
X124475000Y-148475000I-225000J0D01*
G01*
X124025000Y-148475000D01*
G75*
G02*
X123800000Y-148250000I0J225000D01*
G01*
G37*
G36*
G01*
X122250000Y-148250000D02*
X122250000Y-147750000D01*
G75*
G02*
X122475000Y-147525000I225000J0D01*
G01*
X122925000Y-147525000D01*
G75*
G02*
X123150000Y-147750000I0J-225000D01*
G01*
X123150000Y-148250000D01*
G75*
G02*
X122925000Y-148475000I-225000J0D01*
G01*
X122475000Y-148475000D01*
G75*
G02*
X122250000Y-148250000I0J225000D01*
G01*
G37*
%TD*%
%TO.C,C14*%
G36*
G01*
X104575000Y-138750000D02*
X104575000Y-138250000D01*
G75*
G02*
X104800000Y-138025000I225000J0D01*
G01*
X105250000Y-138025000D01*
G75*
G02*
X105475000Y-138250000I0J-225000D01*
G01*
X105475000Y-138750000D01*
G75*
G02*
X105250000Y-138975000I-225000J0D01*
G01*
X104800000Y-138975000D01*
G75*
G02*
X104575000Y-138750000I0J225000D01*
G01*
G37*
G36*
G01*
X103025000Y-138750000D02*
X103025000Y-138250000D01*
G75*
G02*
X103250000Y-138025000I225000J0D01*
G01*
X103700000Y-138025000D01*
G75*
G02*
X103925000Y-138250000I0J-225000D01*
G01*
X103925000Y-138750000D01*
G75*
G02*
X103700000Y-138975000I-225000J0D01*
G01*
X103250000Y-138975000D01*
G75*
G02*
X103025000Y-138750000I0J225000D01*
G01*
G37*
%TD*%
%TO.C,C13*%
G36*
G01*
X85825000Y-138750000D02*
X85825000Y-138250000D01*
G75*
G02*
X86050000Y-138025000I225000J0D01*
G01*
X86500000Y-138025000D01*
G75*
G02*
X86725000Y-138250000I0J-225000D01*
G01*
X86725000Y-138750000D01*
G75*
G02*
X86500000Y-138975000I-225000J0D01*
G01*
X86050000Y-138975000D01*
G75*
G02*
X85825000Y-138750000I0J225000D01*
G01*
G37*
G36*
G01*
X84275000Y-138750000D02*
X84275000Y-138250000D01*
G75*
G02*
X84500000Y-138025000I225000J0D01*
G01*
X84950000Y-138025000D01*
G75*
G02*
X85175000Y-138250000I0J-225000D01*
G01*
X85175000Y-138750000D01*
G75*
G02*
X84950000Y-138975000I-225000J0D01*
G01*
X84500000Y-138975000D01*
G75*
G02*
X84275000Y-138750000I0J225000D01*
G01*
G37*
%TD*%
%TO.C,C12*%
G36*
G01*
X66825000Y-138750000D02*
X66825000Y-138250000D01*
G75*
G02*
X67050000Y-138025000I225000J0D01*
G01*
X67500000Y-138025000D01*
G75*
G02*
X67725000Y-138250000I0J-225000D01*
G01*
X67725000Y-138750000D01*
G75*
G02*
X67500000Y-138975000I-225000J0D01*
G01*
X67050000Y-138975000D01*
G75*
G02*
X66825000Y-138750000I0J225000D01*
G01*
G37*
G36*
G01*
X65275000Y-138750000D02*
X65275000Y-138250000D01*
G75*
G02*
X65500000Y-138025000I225000J0D01*
G01*
X65950000Y-138025000D01*
G75*
G02*
X66175000Y-138250000I0J-225000D01*
G01*
X66175000Y-138750000D01*
G75*
G02*
X65950000Y-138975000I-225000J0D01*
G01*
X65500000Y-138975000D01*
G75*
G02*
X65275000Y-138750000I0J225000D01*
G01*
G37*
%TD*%
%TO.C,C11*%
G36*
G01*
X123825000Y-110250000D02*
X123825000Y-109750000D01*
G75*
G02*
X124050000Y-109525000I225000J0D01*
G01*
X124500000Y-109525000D01*
G75*
G02*
X124725000Y-109750000I0J-225000D01*
G01*
X124725000Y-110250000D01*
G75*
G02*
X124500000Y-110475000I-225000J0D01*
G01*
X124050000Y-110475000D01*
G75*
G02*
X123825000Y-110250000I0J225000D01*
G01*
G37*
G36*
G01*
X122275000Y-110250000D02*
X122275000Y-109750000D01*
G75*
G02*
X122500000Y-109525000I225000J0D01*
G01*
X122950000Y-109525000D01*
G75*
G02*
X123175000Y-109750000I0J-225000D01*
G01*
X123175000Y-110250000D01*
G75*
G02*
X122950000Y-110475000I-225000J0D01*
G01*
X122500000Y-110475000D01*
G75*
G02*
X122275000Y-110250000I0J225000D01*
G01*
G37*
%TD*%
%TO.C,C10*%
G36*
G01*
X104825000Y-119750000D02*
X104825000Y-119250000D01*
G75*
G02*
X105050000Y-119025000I225000J0D01*
G01*
X105500000Y-119025000D01*
G75*
G02*
X105725000Y-119250000I0J-225000D01*
G01*
X105725000Y-119750000D01*
G75*
G02*
X105500000Y-119975000I-225000J0D01*
G01*
X105050000Y-119975000D01*
G75*
G02*
X104825000Y-119750000I0J225000D01*
G01*
G37*
G36*
G01*
X103275000Y-119750000D02*
X103275000Y-119250000D01*
G75*
G02*
X103500000Y-119025000I225000J0D01*
G01*
X103950000Y-119025000D01*
G75*
G02*
X104175000Y-119250000I0J-225000D01*
G01*
X104175000Y-119750000D01*
G75*
G02*
X103950000Y-119975000I-225000J0D01*
G01*
X103500000Y-119975000D01*
G75*
G02*
X103275000Y-119750000I0J225000D01*
G01*
G37*
%TD*%
%TO.C,C9*%
G36*
G01*
X86075000Y-119750000D02*
X86075000Y-119250000D01*
G75*
G02*
X86300000Y-119025000I225000J0D01*
G01*
X86750000Y-119025000D01*
G75*
G02*
X86975000Y-119250000I0J-225000D01*
G01*
X86975000Y-119750000D01*
G75*
G02*
X86750000Y-119975000I-225000J0D01*
G01*
X86300000Y-119975000D01*
G75*
G02*
X86075000Y-119750000I0J225000D01*
G01*
G37*
G36*
G01*
X84525000Y-119750000D02*
X84525000Y-119250000D01*
G75*
G02*
X84750000Y-119025000I225000J0D01*
G01*
X85200000Y-119025000D01*
G75*
G02*
X85425000Y-119250000I0J-225000D01*
G01*
X85425000Y-119750000D01*
G75*
G02*
X85200000Y-119975000I-225000J0D01*
G01*
X84750000Y-119975000D01*
G75*
G02*
X84525000Y-119750000I0J225000D01*
G01*
G37*
%TD*%
%TO.C,C8*%
G36*
G01*
X67300000Y-119750000D02*
X67300000Y-119250000D01*
G75*
G02*
X67525000Y-119025000I225000J0D01*
G01*
X67975000Y-119025000D01*
G75*
G02*
X68200000Y-119250000I0J-225000D01*
G01*
X68200000Y-119750000D01*
G75*
G02*
X67975000Y-119975000I-225000J0D01*
G01*
X67525000Y-119975000D01*
G75*
G02*
X67300000Y-119750000I0J225000D01*
G01*
G37*
G36*
G01*
X65750000Y-119750000D02*
X65750000Y-119250000D01*
G75*
G02*
X65975000Y-119025000I225000J0D01*
G01*
X66425000Y-119025000D01*
G75*
G02*
X66650000Y-119250000I0J-225000D01*
G01*
X66650000Y-119750000D01*
G75*
G02*
X66425000Y-119975000I-225000J0D01*
G01*
X65975000Y-119975000D01*
G75*
G02*
X65750000Y-119750000I0J225000D01*
G01*
G37*
%TD*%
%TO.C,C7*%
G36*
G01*
X104850000Y-100750000D02*
X104850000Y-100250000D01*
G75*
G02*
X105075000Y-100025000I225000J0D01*
G01*
X105525000Y-100025000D01*
G75*
G02*
X105750000Y-100250000I0J-225000D01*
G01*
X105750000Y-100750000D01*
G75*
G02*
X105525000Y-100975000I-225000J0D01*
G01*
X105075000Y-100975000D01*
G75*
G02*
X104850000Y-100750000I0J225000D01*
G01*
G37*
G36*
G01*
X103300000Y-100750000D02*
X103300000Y-100250000D01*
G75*
G02*
X103525000Y-100025000I225000J0D01*
G01*
X103975000Y-100025000D01*
G75*
G02*
X104200000Y-100250000I0J-225000D01*
G01*
X104200000Y-100750000D01*
G75*
G02*
X103975000Y-100975000I-225000J0D01*
G01*
X103525000Y-100975000D01*
G75*
G02*
X103300000Y-100750000I0J225000D01*
G01*
G37*
%TD*%
%TO.C,C6*%
G36*
G01*
X85800000Y-100750000D02*
X85800000Y-100250000D01*
G75*
G02*
X86025000Y-100025000I225000J0D01*
G01*
X86475000Y-100025000D01*
G75*
G02*
X86700000Y-100250000I0J-225000D01*
G01*
X86700000Y-100750000D01*
G75*
G02*
X86475000Y-100975000I-225000J0D01*
G01*
X86025000Y-100975000D01*
G75*
G02*
X85800000Y-100750000I0J225000D01*
G01*
G37*
G36*
G01*
X84250000Y-100750000D02*
X84250000Y-100250000D01*
G75*
G02*
X84475000Y-100025000I225000J0D01*
G01*
X84925000Y-100025000D01*
G75*
G02*
X85150000Y-100250000I0J-225000D01*
G01*
X85150000Y-100750000D01*
G75*
G02*
X84925000Y-100975000I-225000J0D01*
G01*
X84475000Y-100975000D01*
G75*
G02*
X84250000Y-100750000I0J225000D01*
G01*
G37*
%TD*%
%TO.C,C5*%
G36*
G01*
X67300000Y-100750000D02*
X67300000Y-100250000D01*
G75*
G02*
X67525000Y-100025000I225000J0D01*
G01*
X67975000Y-100025000D01*
G75*
G02*
X68200000Y-100250000I0J-225000D01*
G01*
X68200000Y-100750000D01*
G75*
G02*
X67975000Y-100975000I-225000J0D01*
G01*
X67525000Y-100975000D01*
G75*
G02*
X67300000Y-100750000I0J225000D01*
G01*
G37*
G36*
G01*
X65750000Y-100750000D02*
X65750000Y-100250000D01*
G75*
G02*
X65975000Y-100025000I225000J0D01*
G01*
X66425000Y-100025000D01*
G75*
G02*
X66650000Y-100250000I0J-225000D01*
G01*
X66650000Y-100750000D01*
G75*
G02*
X66425000Y-100975000I-225000J0D01*
G01*
X65975000Y-100975000D01*
G75*
G02*
X65750000Y-100750000I0J225000D01*
G01*
G37*
%TD*%
%TO.C,C4*%
G36*
G01*
X123825000Y-81750000D02*
X123825000Y-81250000D01*
G75*
G02*
X124050000Y-81025000I225000J0D01*
G01*
X124500000Y-81025000D01*
G75*
G02*
X124725000Y-81250000I0J-225000D01*
G01*
X124725000Y-81750000D01*
G75*
G02*
X124500000Y-81975000I-225000J0D01*
G01*
X124050000Y-81975000D01*
G75*
G02*
X123825000Y-81750000I0J225000D01*
G01*
G37*
G36*
G01*
X122275000Y-81750000D02*
X122275000Y-81250000D01*
G75*
G02*
X122500000Y-81025000I225000J0D01*
G01*
X122950000Y-81025000D01*
G75*
G02*
X123175000Y-81250000I0J-225000D01*
G01*
X123175000Y-81750000D01*
G75*
G02*
X122950000Y-81975000I-225000J0D01*
G01*
X122500000Y-81975000D01*
G75*
G02*
X122275000Y-81750000I0J225000D01*
G01*
G37*
%TD*%
%TO.C,C3*%
G36*
G01*
X105050000Y-81750000D02*
X105050000Y-81250000D01*
G75*
G02*
X105275000Y-81025000I225000J0D01*
G01*
X105725000Y-81025000D01*
G75*
G02*
X105950000Y-81250000I0J-225000D01*
G01*
X105950000Y-81750000D01*
G75*
G02*
X105725000Y-81975000I-225000J0D01*
G01*
X105275000Y-81975000D01*
G75*
G02*
X105050000Y-81750000I0J225000D01*
G01*
G37*
G36*
G01*
X103500000Y-81750000D02*
X103500000Y-81250000D01*
G75*
G02*
X103725000Y-81025000I225000J0D01*
G01*
X104175000Y-81025000D01*
G75*
G02*
X104400000Y-81250000I0J-225000D01*
G01*
X104400000Y-81750000D01*
G75*
G02*
X104175000Y-81975000I-225000J0D01*
G01*
X103725000Y-81975000D01*
G75*
G02*
X103500000Y-81750000I0J225000D01*
G01*
G37*
%TD*%
%TO.C,C2*%
G36*
G01*
X86075000Y-81750000D02*
X86075000Y-81250000D01*
G75*
G02*
X86300000Y-81025000I225000J0D01*
G01*
X86750000Y-81025000D01*
G75*
G02*
X86975000Y-81250000I0J-225000D01*
G01*
X86975000Y-81750000D01*
G75*
G02*
X86750000Y-81975000I-225000J0D01*
G01*
X86300000Y-81975000D01*
G75*
G02*
X86075000Y-81750000I0J225000D01*
G01*
G37*
G36*
G01*
X84525000Y-81750000D02*
X84525000Y-81250000D01*
G75*
G02*
X84750000Y-81025000I225000J0D01*
G01*
X85200000Y-81025000D01*
G75*
G02*
X85425000Y-81250000I0J-225000D01*
G01*
X85425000Y-81750000D01*
G75*
G02*
X85200000Y-81975000I-225000J0D01*
G01*
X84750000Y-81975000D01*
G75*
G02*
X84525000Y-81750000I0J225000D01*
G01*
G37*
%TD*%
%TO.C,C1*%
G36*
G01*
X66800000Y-81750000D02*
X66800000Y-81250000D01*
G75*
G02*
X67025000Y-81025000I225000J0D01*
G01*
X67475000Y-81025000D01*
G75*
G02*
X67700000Y-81250000I0J-225000D01*
G01*
X67700000Y-81750000D01*
G75*
G02*
X67475000Y-81975000I-225000J0D01*
G01*
X67025000Y-81975000D01*
G75*
G02*
X66800000Y-81750000I0J225000D01*
G01*
G37*
G36*
G01*
X65250000Y-81750000D02*
X65250000Y-81250000D01*
G75*
G02*
X65475000Y-81025000I225000J0D01*
G01*
X65925000Y-81025000D01*
G75*
G02*
X66150000Y-81250000I0J-225000D01*
G01*
X66150000Y-81750000D01*
G75*
G02*
X65925000Y-81975000I-225000J0D01*
G01*
X65475000Y-81975000D01*
G75*
G02*
X65250000Y-81750000I0J225000D01*
G01*
G37*
%TD*%
D10*
%TO.C,U16*%
X116050000Y-144500000D03*
X116050000Y-146400000D03*
X121950000Y-144500000D03*
X121950000Y-146400000D03*
D11*
X112985000Y-155580000D03*
X126410000Y-153040000D03*
%TD*%
D10*
%TO.C,U12*%
X116050000Y-106500000D03*
X116050000Y-108400000D03*
X121950000Y-106500000D03*
X121950000Y-108400000D03*
D11*
X112985000Y-117580000D03*
X126410000Y-115040000D03*
%TD*%
D10*
%TO.C,U17*%
X68550000Y-154000000D03*
X68550000Y-155900000D03*
X74450000Y-154000000D03*
X74450000Y-155900000D03*
D11*
X65485000Y-165080000D03*
X78910000Y-162540000D03*
%TD*%
D10*
%TO.C,U3*%
X97050000Y-78000000D03*
X97050000Y-79900000D03*
X102950000Y-78000000D03*
X102950000Y-79900000D03*
D11*
X93985000Y-89080000D03*
X107410000Y-86540000D03*
%TD*%
D12*
%TO.C,LS1*%
X71600000Y-72390000D03*
X58400000Y-72390000D03*
%TD*%
D13*
%TO.C,Y1*%
X78119999Y-69349999D03*
X75919999Y-69349999D03*
X75919999Y-71049999D03*
X78119999Y-71049999D03*
%TD*%
D14*
%TO.C,U103*%
X83969999Y-51950002D03*
X83969999Y-56550002D03*
X83969999Y-54250002D03*
D15*
X77669999Y-54250002D03*
%TD*%
%TO.C,U102*%
G36*
G01*
X101860000Y-73175000D02*
X101860000Y-72875000D01*
G75*
G02*
X102010000Y-72725000I150000J0D01*
G01*
X103310000Y-72725000D01*
G75*
G02*
X103460000Y-72875000I0J-150000D01*
G01*
X103460000Y-73175000D01*
G75*
G02*
X103310000Y-73325000I-150000J0D01*
G01*
X102010000Y-73325000D01*
G75*
G02*
X101860000Y-73175000I0J150000D01*
G01*
G37*
G36*
G01*
X101860000Y-71905000D02*
X101860000Y-71605000D01*
G75*
G02*
X102010000Y-71455000I150000J0D01*
G01*
X103310000Y-71455000D01*
G75*
G02*
X103460000Y-71605000I0J-150000D01*
G01*
X103460000Y-71905000D01*
G75*
G02*
X103310000Y-72055000I-150000J0D01*
G01*
X102010000Y-72055000D01*
G75*
G02*
X101860000Y-71905000I0J150000D01*
G01*
G37*
G36*
G01*
X101860000Y-70635000D02*
X101860000Y-70335000D01*
G75*
G02*
X102010000Y-70185000I150000J0D01*
G01*
X103310000Y-70185000D01*
G75*
G02*
X103460000Y-70335000I0J-150000D01*
G01*
X103460000Y-70635000D01*
G75*
G02*
X103310000Y-70785000I-150000J0D01*
G01*
X102010000Y-70785000D01*
G75*
G02*
X101860000Y-70635000I0J150000D01*
G01*
G37*
G36*
G01*
X101860000Y-69365000D02*
X101860000Y-69065000D01*
G75*
G02*
X102010000Y-68915000I150000J0D01*
G01*
X103310000Y-68915000D01*
G75*
G02*
X103460000Y-69065000I0J-150000D01*
G01*
X103460000Y-69365000D01*
G75*
G02*
X103310000Y-69515000I-150000J0D01*
G01*
X102010000Y-69515000D01*
G75*
G02*
X101860000Y-69365000I0J150000D01*
G01*
G37*
G36*
G01*
X94660000Y-69365000D02*
X94660000Y-69065000D01*
G75*
G02*
X94810000Y-68915000I150000J0D01*
G01*
X96110000Y-68915000D01*
G75*
G02*
X96260000Y-69065000I0J-150000D01*
G01*
X96260000Y-69365000D01*
G75*
G02*
X96110000Y-69515000I-150000J0D01*
G01*
X94810000Y-69515000D01*
G75*
G02*
X94660000Y-69365000I0J150000D01*
G01*
G37*
G36*
G01*
X94660000Y-70635000D02*
X94660000Y-70335000D01*
G75*
G02*
X94810000Y-70185000I150000J0D01*
G01*
X96110000Y-70185000D01*
G75*
G02*
X96260000Y-70335000I0J-150000D01*
G01*
X96260000Y-70635000D01*
G75*
G02*
X96110000Y-70785000I-150000J0D01*
G01*
X94810000Y-70785000D01*
G75*
G02*
X94660000Y-70635000I0J150000D01*
G01*
G37*
G36*
G01*
X94660000Y-71905000D02*
X94660000Y-71605000D01*
G75*
G02*
X94810000Y-71455000I150000J0D01*
G01*
X96110000Y-71455000D01*
G75*
G02*
X96260000Y-71605000I0J-150000D01*
G01*
X96260000Y-71905000D01*
G75*
G02*
X96110000Y-72055000I-150000J0D01*
G01*
X94810000Y-72055000D01*
G75*
G02*
X94660000Y-71905000I0J150000D01*
G01*
G37*
G36*
G01*
X94660000Y-73175000D02*
X94660000Y-72875000D01*
G75*
G02*
X94810000Y-72725000I150000J0D01*
G01*
X96110000Y-72725000D01*
G75*
G02*
X96260000Y-72875000I0J-150000D01*
G01*
X96260000Y-73175000D01*
G75*
G02*
X96110000Y-73325000I-150000J0D01*
G01*
X94810000Y-73325000D01*
G75*
G02*
X94660000Y-73175000I0J150000D01*
G01*
G37*
%TD*%
%TO.C,U101*%
G36*
G01*
X87349718Y-66529714D02*
X86765284Y-66529714D01*
G75*
G02*
X86515284Y-66279714I0J250000D01*
G01*
X86515284Y-65695280D01*
G75*
G02*
X86765284Y-65445280I250000J0D01*
G01*
X87349718Y-65445280D01*
G75*
G02*
X87599718Y-65695280I0J-250000D01*
G01*
X87599718Y-66279714D01*
G75*
G02*
X87349718Y-66529714I-250000J0D01*
G01*
G37*
G36*
G01*
X86074718Y-66529714D02*
X85490284Y-66529714D01*
G75*
G02*
X85240284Y-66279714I0J250000D01*
G01*
X85240284Y-65695280D01*
G75*
G02*
X85490284Y-65445280I250000J0D01*
G01*
X86074718Y-65445280D01*
G75*
G02*
X86324718Y-65695280I0J-250000D01*
G01*
X86324718Y-66279714D01*
G75*
G02*
X86074718Y-66529714I-250000J0D01*
G01*
G37*
G36*
G01*
X87349718Y-65254714D02*
X86765284Y-65254714D01*
G75*
G02*
X86515284Y-65004714I0J250000D01*
G01*
X86515284Y-64420280D01*
G75*
G02*
X86765284Y-64170280I250000J0D01*
G01*
X87349718Y-64170280D01*
G75*
G02*
X87599718Y-64420280I0J-250000D01*
G01*
X87599718Y-65004714D01*
G75*
G02*
X87349718Y-65254714I-250000J0D01*
G01*
G37*
G36*
G01*
X86074718Y-65254714D02*
X85490284Y-65254714D01*
G75*
G02*
X85240284Y-65004714I0J250000D01*
G01*
X85240284Y-64420280D01*
G75*
G02*
X85490284Y-64170280I250000J0D01*
G01*
X86074718Y-64170280D01*
G75*
G02*
X86324718Y-64420280I0J-250000D01*
G01*
X86324718Y-65004714D01*
G75*
G02*
X86074718Y-65254714I-250000J0D01*
G01*
G37*
G36*
G01*
X89070001Y-69224997D02*
X88970001Y-69224997D01*
G75*
G02*
X88920001Y-69174997I0J50000D01*
G01*
X88920001Y-68399997D01*
G75*
G02*
X88970001Y-68349997I50000J0D01*
G01*
X89070001Y-68349997D01*
G75*
G02*
X89120001Y-68399997I0J-50000D01*
G01*
X89120001Y-69174997D01*
G75*
G02*
X89070001Y-69224997I-50000J0D01*
G01*
G37*
G36*
G01*
X88670001Y-69224997D02*
X88570001Y-69224997D01*
G75*
G02*
X88520001Y-69174997I0J50000D01*
G01*
X88520001Y-68399997D01*
G75*
G02*
X88570001Y-68349997I50000J0D01*
G01*
X88670001Y-68349997D01*
G75*
G02*
X88720001Y-68399997I0J-50000D01*
G01*
X88720001Y-69174997D01*
G75*
G02*
X88670001Y-69224997I-50000J0D01*
G01*
G37*
G36*
G01*
X88270001Y-69224997D02*
X88170001Y-69224997D01*
G75*
G02*
X88120001Y-69174997I0J50000D01*
G01*
X88120001Y-68399997D01*
G75*
G02*
X88170001Y-68349997I50000J0D01*
G01*
X88270001Y-68349997D01*
G75*
G02*
X88320001Y-68399997I0J-50000D01*
G01*
X88320001Y-69174997D01*
G75*
G02*
X88270001Y-69224997I-50000J0D01*
G01*
G37*
G36*
G01*
X87870001Y-69224997D02*
X87770001Y-69224997D01*
G75*
G02*
X87720001Y-69174997I0J50000D01*
G01*
X87720001Y-68399997D01*
G75*
G02*
X87770001Y-68349997I50000J0D01*
G01*
X87870001Y-68349997D01*
G75*
G02*
X87920001Y-68399997I0J-50000D01*
G01*
X87920001Y-69174997D01*
G75*
G02*
X87870001Y-69224997I-50000J0D01*
G01*
G37*
G36*
G01*
X87470001Y-69224997D02*
X87370001Y-69224997D01*
G75*
G02*
X87320001Y-69174997I0J50000D01*
G01*
X87320001Y-68399997D01*
G75*
G02*
X87370001Y-68349997I50000J0D01*
G01*
X87470001Y-68349997D01*
G75*
G02*
X87520001Y-68399997I0J-50000D01*
G01*
X87520001Y-69174997D01*
G75*
G02*
X87470001Y-69224997I-50000J0D01*
G01*
G37*
G36*
G01*
X87070001Y-69224997D02*
X86970001Y-69224997D01*
G75*
G02*
X86920001Y-69174997I0J50000D01*
G01*
X86920001Y-68399997D01*
G75*
G02*
X86970001Y-68349997I50000J0D01*
G01*
X87070001Y-68349997D01*
G75*
G02*
X87120001Y-68399997I0J-50000D01*
G01*
X87120001Y-69174997D01*
G75*
G02*
X87070001Y-69224997I-50000J0D01*
G01*
G37*
G36*
G01*
X86670001Y-69224997D02*
X86570001Y-69224997D01*
G75*
G02*
X86520001Y-69174997I0J50000D01*
G01*
X86520001Y-68399997D01*
G75*
G02*
X86570001Y-68349997I50000J0D01*
G01*
X86670001Y-68349997D01*
G75*
G02*
X86720001Y-68399997I0J-50000D01*
G01*
X86720001Y-69174997D01*
G75*
G02*
X86670001Y-69224997I-50000J0D01*
G01*
G37*
G36*
G01*
X86270001Y-69224997D02*
X86170001Y-69224997D01*
G75*
G02*
X86120001Y-69174997I0J50000D01*
G01*
X86120001Y-68399997D01*
G75*
G02*
X86170001Y-68349997I50000J0D01*
G01*
X86270001Y-68349997D01*
G75*
G02*
X86320001Y-68399997I0J-50000D01*
G01*
X86320001Y-69174997D01*
G75*
G02*
X86270001Y-69224997I-50000J0D01*
G01*
G37*
G36*
G01*
X85870001Y-69224997D02*
X85770001Y-69224997D01*
G75*
G02*
X85720001Y-69174997I0J50000D01*
G01*
X85720001Y-68399997D01*
G75*
G02*
X85770001Y-68349997I50000J0D01*
G01*
X85870001Y-68349997D01*
G75*
G02*
X85920001Y-68399997I0J-50000D01*
G01*
X85920001Y-69174997D01*
G75*
G02*
X85870001Y-69224997I-50000J0D01*
G01*
G37*
G36*
G01*
X85470001Y-69224997D02*
X85370001Y-69224997D01*
G75*
G02*
X85320001Y-69174997I0J50000D01*
G01*
X85320001Y-68399997D01*
G75*
G02*
X85370001Y-68349997I50000J0D01*
G01*
X85470001Y-68349997D01*
G75*
G02*
X85520001Y-68399997I0J-50000D01*
G01*
X85520001Y-69174997D01*
G75*
G02*
X85470001Y-69224997I-50000J0D01*
G01*
G37*
G36*
G01*
X85070001Y-69224997D02*
X84970001Y-69224997D01*
G75*
G02*
X84920001Y-69174997I0J50000D01*
G01*
X84920001Y-68399997D01*
G75*
G02*
X84970001Y-68349997I50000J0D01*
G01*
X85070001Y-68349997D01*
G75*
G02*
X85120001Y-68399997I0J-50000D01*
G01*
X85120001Y-69174997D01*
G75*
G02*
X85070001Y-69224997I-50000J0D01*
G01*
G37*
G36*
G01*
X84670001Y-69224997D02*
X84570001Y-69224997D01*
G75*
G02*
X84520001Y-69174997I0J50000D01*
G01*
X84520001Y-68399997D01*
G75*
G02*
X84570001Y-68349997I50000J0D01*
G01*
X84670001Y-68349997D01*
G75*
G02*
X84720001Y-68399997I0J-50000D01*
G01*
X84720001Y-69174997D01*
G75*
G02*
X84670001Y-69224997I-50000J0D01*
G01*
G37*
G36*
G01*
X84270001Y-69224997D02*
X84170001Y-69224997D01*
G75*
G02*
X84120001Y-69174997I0J50000D01*
G01*
X84120001Y-68399997D01*
G75*
G02*
X84170001Y-68349997I50000J0D01*
G01*
X84270001Y-68349997D01*
G75*
G02*
X84320001Y-68399997I0J-50000D01*
G01*
X84320001Y-69174997D01*
G75*
G02*
X84270001Y-69224997I-50000J0D01*
G01*
G37*
G36*
G01*
X83870001Y-69224997D02*
X83770001Y-69224997D01*
G75*
G02*
X83720001Y-69174997I0J50000D01*
G01*
X83720001Y-68399997D01*
G75*
G02*
X83770001Y-68349997I50000J0D01*
G01*
X83870001Y-68349997D01*
G75*
G02*
X83920001Y-68399997I0J-50000D01*
G01*
X83920001Y-69174997D01*
G75*
G02*
X83870001Y-69224997I-50000J0D01*
G01*
G37*
G36*
G01*
X83370001Y-68049997D02*
X82595001Y-68049997D01*
G75*
G02*
X82545001Y-67999997I0J50000D01*
G01*
X82545001Y-67899997D01*
G75*
G02*
X82595001Y-67849997I50000J0D01*
G01*
X83370001Y-67849997D01*
G75*
G02*
X83420001Y-67899997I0J-50000D01*
G01*
X83420001Y-67999997D01*
G75*
G02*
X83370001Y-68049997I-50000J0D01*
G01*
G37*
G36*
G01*
X83370001Y-67649997D02*
X82595001Y-67649997D01*
G75*
G02*
X82545001Y-67599997I0J50000D01*
G01*
X82545001Y-67499997D01*
G75*
G02*
X82595001Y-67449997I50000J0D01*
G01*
X83370001Y-67449997D01*
G75*
G02*
X83420001Y-67499997I0J-50000D01*
G01*
X83420001Y-67599997D01*
G75*
G02*
X83370001Y-67649997I-50000J0D01*
G01*
G37*
G36*
G01*
X83370001Y-67249997D02*
X82595001Y-67249997D01*
G75*
G02*
X82545001Y-67199997I0J50000D01*
G01*
X82545001Y-67099997D01*
G75*
G02*
X82595001Y-67049997I50000J0D01*
G01*
X83370001Y-67049997D01*
G75*
G02*
X83420001Y-67099997I0J-50000D01*
G01*
X83420001Y-67199997D01*
G75*
G02*
X83370001Y-67249997I-50000J0D01*
G01*
G37*
G36*
G01*
X83370001Y-66849997D02*
X82595001Y-66849997D01*
G75*
G02*
X82545001Y-66799997I0J50000D01*
G01*
X82545001Y-66699997D01*
G75*
G02*
X82595001Y-66649997I50000J0D01*
G01*
X83370001Y-66649997D01*
G75*
G02*
X83420001Y-66699997I0J-50000D01*
G01*
X83420001Y-66799997D01*
G75*
G02*
X83370001Y-66849997I-50000J0D01*
G01*
G37*
G36*
G01*
X83370001Y-66449997D02*
X82595001Y-66449997D01*
G75*
G02*
X82545001Y-66399997I0J50000D01*
G01*
X82545001Y-66299997D01*
G75*
G02*
X82595001Y-66249997I50000J0D01*
G01*
X83370001Y-66249997D01*
G75*
G02*
X83420001Y-66299997I0J-50000D01*
G01*
X83420001Y-66399997D01*
G75*
G02*
X83370001Y-66449997I-50000J0D01*
G01*
G37*
G36*
G01*
X83370001Y-66049997D02*
X82595001Y-66049997D01*
G75*
G02*
X82545001Y-65999997I0J50000D01*
G01*
X82545001Y-65899997D01*
G75*
G02*
X82595001Y-65849997I50000J0D01*
G01*
X83370001Y-65849997D01*
G75*
G02*
X83420001Y-65899997I0J-50000D01*
G01*
X83420001Y-65999997D01*
G75*
G02*
X83370001Y-66049997I-50000J0D01*
G01*
G37*
G36*
G01*
X83370001Y-65649997D02*
X82595001Y-65649997D01*
G75*
G02*
X82545001Y-65599997I0J50000D01*
G01*
X82545001Y-65499997D01*
G75*
G02*
X82595001Y-65449997I50000J0D01*
G01*
X83370001Y-65449997D01*
G75*
G02*
X83420001Y-65499997I0J-50000D01*
G01*
X83420001Y-65599997D01*
G75*
G02*
X83370001Y-65649997I-50000J0D01*
G01*
G37*
G36*
G01*
X83370001Y-65249997D02*
X82595001Y-65249997D01*
G75*
G02*
X82545001Y-65199997I0J50000D01*
G01*
X82545001Y-65099997D01*
G75*
G02*
X82595001Y-65049997I50000J0D01*
G01*
X83370001Y-65049997D01*
G75*
G02*
X83420001Y-65099997I0J-50000D01*
G01*
X83420001Y-65199997D01*
G75*
G02*
X83370001Y-65249997I-50000J0D01*
G01*
G37*
G36*
G01*
X83370001Y-64849997D02*
X82595001Y-64849997D01*
G75*
G02*
X82545001Y-64799997I0J50000D01*
G01*
X82545001Y-64699997D01*
G75*
G02*
X82595001Y-64649997I50000J0D01*
G01*
X83370001Y-64649997D01*
G75*
G02*
X83420001Y-64699997I0J-50000D01*
G01*
X83420001Y-64799997D01*
G75*
G02*
X83370001Y-64849997I-50000J0D01*
G01*
G37*
G36*
G01*
X83370001Y-64449997D02*
X82595001Y-64449997D01*
G75*
G02*
X82545001Y-64399997I0J50000D01*
G01*
X82545001Y-64299997D01*
G75*
G02*
X82595001Y-64249997I50000J0D01*
G01*
X83370001Y-64249997D01*
G75*
G02*
X83420001Y-64299997I0J-50000D01*
G01*
X83420001Y-64399997D01*
G75*
G02*
X83370001Y-64449997I-50000J0D01*
G01*
G37*
G36*
G01*
X83370001Y-64049997D02*
X82595001Y-64049997D01*
G75*
G02*
X82545001Y-63999997I0J50000D01*
G01*
X82545001Y-63899997D01*
G75*
G02*
X82595001Y-63849997I50000J0D01*
G01*
X83370001Y-63849997D01*
G75*
G02*
X83420001Y-63899997I0J-50000D01*
G01*
X83420001Y-63999997D01*
G75*
G02*
X83370001Y-64049997I-50000J0D01*
G01*
G37*
G36*
G01*
X83370001Y-63649997D02*
X82595001Y-63649997D01*
G75*
G02*
X82545001Y-63599997I0J50000D01*
G01*
X82545001Y-63499997D01*
G75*
G02*
X82595001Y-63449997I50000J0D01*
G01*
X83370001Y-63449997D01*
G75*
G02*
X83420001Y-63499997I0J-50000D01*
G01*
X83420001Y-63599997D01*
G75*
G02*
X83370001Y-63649997I-50000J0D01*
G01*
G37*
G36*
G01*
X83370001Y-63249997D02*
X82595001Y-63249997D01*
G75*
G02*
X82545001Y-63199997I0J50000D01*
G01*
X82545001Y-63099997D01*
G75*
G02*
X82595001Y-63049997I50000J0D01*
G01*
X83370001Y-63049997D01*
G75*
G02*
X83420001Y-63099997I0J-50000D01*
G01*
X83420001Y-63199997D01*
G75*
G02*
X83370001Y-63249997I-50000J0D01*
G01*
G37*
G36*
G01*
X83370001Y-62849997D02*
X82595001Y-62849997D01*
G75*
G02*
X82545001Y-62799997I0J50000D01*
G01*
X82545001Y-62699997D01*
G75*
G02*
X82595001Y-62649997I50000J0D01*
G01*
X83370001Y-62649997D01*
G75*
G02*
X83420001Y-62699997I0J-50000D01*
G01*
X83420001Y-62799997D01*
G75*
G02*
X83370001Y-62849997I-50000J0D01*
G01*
G37*
G36*
G01*
X83870001Y-62349997D02*
X83770001Y-62349997D01*
G75*
G02*
X83720001Y-62299997I0J50000D01*
G01*
X83720001Y-61524997D01*
G75*
G02*
X83770001Y-61474997I50000J0D01*
G01*
X83870001Y-61474997D01*
G75*
G02*
X83920001Y-61524997I0J-50000D01*
G01*
X83920001Y-62299997D01*
G75*
G02*
X83870001Y-62349997I-50000J0D01*
G01*
G37*
G36*
G01*
X84270001Y-62349997D02*
X84170001Y-62349997D01*
G75*
G02*
X84120001Y-62299997I0J50000D01*
G01*
X84120001Y-61524997D01*
G75*
G02*
X84170001Y-61474997I50000J0D01*
G01*
X84270001Y-61474997D01*
G75*
G02*
X84320001Y-61524997I0J-50000D01*
G01*
X84320001Y-62299997D01*
G75*
G02*
X84270001Y-62349997I-50000J0D01*
G01*
G37*
G36*
G01*
X84670001Y-62349997D02*
X84570001Y-62349997D01*
G75*
G02*
X84520001Y-62299997I0J50000D01*
G01*
X84520001Y-61524997D01*
G75*
G02*
X84570001Y-61474997I50000J0D01*
G01*
X84670001Y-61474997D01*
G75*
G02*
X84720001Y-61524997I0J-50000D01*
G01*
X84720001Y-62299997D01*
G75*
G02*
X84670001Y-62349997I-50000J0D01*
G01*
G37*
G36*
G01*
X85070001Y-62349997D02*
X84970001Y-62349997D01*
G75*
G02*
X84920001Y-62299997I0J50000D01*
G01*
X84920001Y-61524997D01*
G75*
G02*
X84970001Y-61474997I50000J0D01*
G01*
X85070001Y-61474997D01*
G75*
G02*
X85120001Y-61524997I0J-50000D01*
G01*
X85120001Y-62299997D01*
G75*
G02*
X85070001Y-62349997I-50000J0D01*
G01*
G37*
G36*
G01*
X85470001Y-62349997D02*
X85370001Y-62349997D01*
G75*
G02*
X85320001Y-62299997I0J50000D01*
G01*
X85320001Y-61524997D01*
G75*
G02*
X85370001Y-61474997I50000J0D01*
G01*
X85470001Y-61474997D01*
G75*
G02*
X85520001Y-61524997I0J-50000D01*
G01*
X85520001Y-62299997D01*
G75*
G02*
X85470001Y-62349997I-50000J0D01*
G01*
G37*
G36*
G01*
X85870001Y-62349997D02*
X85770001Y-62349997D01*
G75*
G02*
X85720001Y-62299997I0J50000D01*
G01*
X85720001Y-61524997D01*
G75*
G02*
X85770001Y-61474997I50000J0D01*
G01*
X85870001Y-61474997D01*
G75*
G02*
X85920001Y-61524997I0J-50000D01*
G01*
X85920001Y-62299997D01*
G75*
G02*
X85870001Y-62349997I-50000J0D01*
G01*
G37*
G36*
G01*
X86270001Y-62349997D02*
X86170001Y-62349997D01*
G75*
G02*
X86120001Y-62299997I0J50000D01*
G01*
X86120001Y-61524997D01*
G75*
G02*
X86170001Y-61474997I50000J0D01*
G01*
X86270001Y-61474997D01*
G75*
G02*
X86320001Y-61524997I0J-50000D01*
G01*
X86320001Y-62299997D01*
G75*
G02*
X86270001Y-62349997I-50000J0D01*
G01*
G37*
G36*
G01*
X86670001Y-62349997D02*
X86570001Y-62349997D01*
G75*
G02*
X86520001Y-62299997I0J50000D01*
G01*
X86520001Y-61524997D01*
G75*
G02*
X86570001Y-61474997I50000J0D01*
G01*
X86670001Y-61474997D01*
G75*
G02*
X86720001Y-61524997I0J-50000D01*
G01*
X86720001Y-62299997D01*
G75*
G02*
X86670001Y-62349997I-50000J0D01*
G01*
G37*
G36*
G01*
X87070001Y-62349997D02*
X86970001Y-62349997D01*
G75*
G02*
X86920001Y-62299997I0J50000D01*
G01*
X86920001Y-61524997D01*
G75*
G02*
X86970001Y-61474997I50000J0D01*
G01*
X87070001Y-61474997D01*
G75*
G02*
X87120001Y-61524997I0J-50000D01*
G01*
X87120001Y-62299997D01*
G75*
G02*
X87070001Y-62349997I-50000J0D01*
G01*
G37*
G36*
G01*
X87470001Y-62349997D02*
X87370001Y-62349997D01*
G75*
G02*
X87320001Y-62299997I0J50000D01*
G01*
X87320001Y-61524997D01*
G75*
G02*
X87370001Y-61474997I50000J0D01*
G01*
X87470001Y-61474997D01*
G75*
G02*
X87520001Y-61524997I0J-50000D01*
G01*
X87520001Y-62299997D01*
G75*
G02*
X87470001Y-62349997I-50000J0D01*
G01*
G37*
G36*
G01*
X87870001Y-62349997D02*
X87770001Y-62349997D01*
G75*
G02*
X87720001Y-62299997I0J50000D01*
G01*
X87720001Y-61524997D01*
G75*
G02*
X87770001Y-61474997I50000J0D01*
G01*
X87870001Y-61474997D01*
G75*
G02*
X87920001Y-61524997I0J-50000D01*
G01*
X87920001Y-62299997D01*
G75*
G02*
X87870001Y-62349997I-50000J0D01*
G01*
G37*
G36*
G01*
X88270001Y-62349997D02*
X88170001Y-62349997D01*
G75*
G02*
X88120001Y-62299997I0J50000D01*
G01*
X88120001Y-61524997D01*
G75*
G02*
X88170001Y-61474997I50000J0D01*
G01*
X88270001Y-61474997D01*
G75*
G02*
X88320001Y-61524997I0J-50000D01*
G01*
X88320001Y-62299997D01*
G75*
G02*
X88270001Y-62349997I-50000J0D01*
G01*
G37*
G36*
G01*
X88670001Y-62349997D02*
X88570001Y-62349997D01*
G75*
G02*
X88520001Y-62299997I0J50000D01*
G01*
X88520001Y-61524997D01*
G75*
G02*
X88570001Y-61474997I50000J0D01*
G01*
X88670001Y-61474997D01*
G75*
G02*
X88720001Y-61524997I0J-50000D01*
G01*
X88720001Y-62299997D01*
G75*
G02*
X88670001Y-62349997I-50000J0D01*
G01*
G37*
G36*
G01*
X89070001Y-62349997D02*
X88970001Y-62349997D01*
G75*
G02*
X88920001Y-62299997I0J50000D01*
G01*
X88920001Y-61524997D01*
G75*
G02*
X88970001Y-61474997I50000J0D01*
G01*
X89070001Y-61474997D01*
G75*
G02*
X89120001Y-61524997I0J-50000D01*
G01*
X89120001Y-62299997D01*
G75*
G02*
X89070001Y-62349997I-50000J0D01*
G01*
G37*
G36*
G01*
X90245001Y-62849997D02*
X89470001Y-62849997D01*
G75*
G02*
X89420001Y-62799997I0J50000D01*
G01*
X89420001Y-62699997D01*
G75*
G02*
X89470001Y-62649997I50000J0D01*
G01*
X90245001Y-62649997D01*
G75*
G02*
X90295001Y-62699997I0J-50000D01*
G01*
X90295001Y-62799997D01*
G75*
G02*
X90245001Y-62849997I-50000J0D01*
G01*
G37*
G36*
G01*
X90245001Y-63249997D02*
X89470001Y-63249997D01*
G75*
G02*
X89420001Y-63199997I0J50000D01*
G01*
X89420001Y-63099997D01*
G75*
G02*
X89470001Y-63049997I50000J0D01*
G01*
X90245001Y-63049997D01*
G75*
G02*
X90295001Y-63099997I0J-50000D01*
G01*
X90295001Y-63199997D01*
G75*
G02*
X90245001Y-63249997I-50000J0D01*
G01*
G37*
G36*
G01*
X90245001Y-63649997D02*
X89470001Y-63649997D01*
G75*
G02*
X89420001Y-63599997I0J50000D01*
G01*
X89420001Y-63499997D01*
G75*
G02*
X89470001Y-63449997I50000J0D01*
G01*
X90245001Y-63449997D01*
G75*
G02*
X90295001Y-63499997I0J-50000D01*
G01*
X90295001Y-63599997D01*
G75*
G02*
X90245001Y-63649997I-50000J0D01*
G01*
G37*
G36*
G01*
X90245001Y-64049997D02*
X89470001Y-64049997D01*
G75*
G02*
X89420001Y-63999997I0J50000D01*
G01*
X89420001Y-63899997D01*
G75*
G02*
X89470001Y-63849997I50000J0D01*
G01*
X90245001Y-63849997D01*
G75*
G02*
X90295001Y-63899997I0J-50000D01*
G01*
X90295001Y-63999997D01*
G75*
G02*
X90245001Y-64049997I-50000J0D01*
G01*
G37*
G36*
G01*
X90245001Y-64449997D02*
X89470001Y-64449997D01*
G75*
G02*
X89420001Y-64399997I0J50000D01*
G01*
X89420001Y-64299997D01*
G75*
G02*
X89470001Y-64249997I50000J0D01*
G01*
X90245001Y-64249997D01*
G75*
G02*
X90295001Y-64299997I0J-50000D01*
G01*
X90295001Y-64399997D01*
G75*
G02*
X90245001Y-64449997I-50000J0D01*
G01*
G37*
G36*
G01*
X90245001Y-64849997D02*
X89470001Y-64849997D01*
G75*
G02*
X89420001Y-64799997I0J50000D01*
G01*
X89420001Y-64699997D01*
G75*
G02*
X89470001Y-64649997I50000J0D01*
G01*
X90245001Y-64649997D01*
G75*
G02*
X90295001Y-64699997I0J-50000D01*
G01*
X90295001Y-64799997D01*
G75*
G02*
X90245001Y-64849997I-50000J0D01*
G01*
G37*
G36*
G01*
X90245001Y-65249997D02*
X89470001Y-65249997D01*
G75*
G02*
X89420001Y-65199997I0J50000D01*
G01*
X89420001Y-65099997D01*
G75*
G02*
X89470001Y-65049997I50000J0D01*
G01*
X90245001Y-65049997D01*
G75*
G02*
X90295001Y-65099997I0J-50000D01*
G01*
X90295001Y-65199997D01*
G75*
G02*
X90245001Y-65249997I-50000J0D01*
G01*
G37*
G36*
G01*
X90245001Y-65649997D02*
X89470001Y-65649997D01*
G75*
G02*
X89420001Y-65599997I0J50000D01*
G01*
X89420001Y-65499997D01*
G75*
G02*
X89470001Y-65449997I50000J0D01*
G01*
X90245001Y-65449997D01*
G75*
G02*
X90295001Y-65499997I0J-50000D01*
G01*
X90295001Y-65599997D01*
G75*
G02*
X90245001Y-65649997I-50000J0D01*
G01*
G37*
G36*
G01*
X90245001Y-66049997D02*
X89470001Y-66049997D01*
G75*
G02*
X89420001Y-65999997I0J50000D01*
G01*
X89420001Y-65899997D01*
G75*
G02*
X89470001Y-65849997I50000J0D01*
G01*
X90245001Y-65849997D01*
G75*
G02*
X90295001Y-65899997I0J-50000D01*
G01*
X90295001Y-65999997D01*
G75*
G02*
X90245001Y-66049997I-50000J0D01*
G01*
G37*
G36*
G01*
X90245001Y-66449997D02*
X89470001Y-66449997D01*
G75*
G02*
X89420001Y-66399997I0J50000D01*
G01*
X89420001Y-66299997D01*
G75*
G02*
X89470001Y-66249997I50000J0D01*
G01*
X90245001Y-66249997D01*
G75*
G02*
X90295001Y-66299997I0J-50000D01*
G01*
X90295001Y-66399997D01*
G75*
G02*
X90245001Y-66449997I-50000J0D01*
G01*
G37*
G36*
G01*
X90245001Y-66849997D02*
X89470001Y-66849997D01*
G75*
G02*
X89420001Y-66799997I0J50000D01*
G01*
X89420001Y-66699997D01*
G75*
G02*
X89470001Y-66649997I50000J0D01*
G01*
X90245001Y-66649997D01*
G75*
G02*
X90295001Y-66699997I0J-50000D01*
G01*
X90295001Y-66799997D01*
G75*
G02*
X90245001Y-66849997I-50000J0D01*
G01*
G37*
G36*
G01*
X90245001Y-67249997D02*
X89470001Y-67249997D01*
G75*
G02*
X89420001Y-67199997I0J50000D01*
G01*
X89420001Y-67099997D01*
G75*
G02*
X89470001Y-67049997I50000J0D01*
G01*
X90245001Y-67049997D01*
G75*
G02*
X90295001Y-67099997I0J-50000D01*
G01*
X90295001Y-67199997D01*
G75*
G02*
X90245001Y-67249997I-50000J0D01*
G01*
G37*
G36*
G01*
X90245001Y-67649997D02*
X89470001Y-67649997D01*
G75*
G02*
X89420001Y-67599997I0J50000D01*
G01*
X89420001Y-67499997D01*
G75*
G02*
X89470001Y-67449997I50000J0D01*
G01*
X90245001Y-67449997D01*
G75*
G02*
X90295001Y-67499997I0J-50000D01*
G01*
X90295001Y-67599997D01*
G75*
G02*
X90245001Y-67649997I-50000J0D01*
G01*
G37*
G36*
G01*
X90245001Y-68049997D02*
X89470001Y-68049997D01*
G75*
G02*
X89420001Y-67999997I0J50000D01*
G01*
X89420001Y-67899997D01*
G75*
G02*
X89470001Y-67849997I50000J0D01*
G01*
X90245001Y-67849997D01*
G75*
G02*
X90295001Y-67899997I0J-50000D01*
G01*
X90295001Y-67999997D01*
G75*
G02*
X90245001Y-68049997I-50000J0D01*
G01*
G37*
%TD*%
D10*
%TO.C,U18*%
X97050000Y-154000000D03*
X97050000Y-155900000D03*
X102950000Y-154000000D03*
X102950000Y-155900000D03*
D11*
X93985000Y-165080000D03*
X107410000Y-162540000D03*
%TD*%
D10*
%TO.C,U15*%
X97050000Y-135000000D03*
X97050000Y-136900000D03*
X102950000Y-135000000D03*
X102950000Y-136900000D03*
D11*
X93985000Y-146080000D03*
X107410000Y-143540000D03*
%TD*%
D10*
%TO.C,U14*%
X78050000Y-135000000D03*
X78050000Y-136900000D03*
X83950000Y-135000000D03*
X83950000Y-136900000D03*
D11*
X74985000Y-146080000D03*
X88410000Y-143540000D03*
%TD*%
D10*
%TO.C,U13*%
X59050000Y-135000000D03*
X59050000Y-136900000D03*
X64950000Y-135000000D03*
X64950000Y-136900000D03*
D11*
X55985000Y-146080000D03*
X69410000Y-143540000D03*
%TD*%
D10*
%TO.C,U11*%
X97050000Y-116000000D03*
X97050000Y-117900000D03*
X102950000Y-116000000D03*
X102950000Y-117900000D03*
D11*
X93985000Y-127080000D03*
X107410000Y-124540000D03*
%TD*%
D10*
%TO.C,U10*%
X78050000Y-116000000D03*
X78050000Y-117900000D03*
X83950000Y-116000000D03*
X83950000Y-117900000D03*
D11*
X74985000Y-127080000D03*
X88410000Y-124540000D03*
%TD*%
D10*
%TO.C,U9*%
X59050000Y-116000000D03*
X59050000Y-117900000D03*
X64950000Y-116000000D03*
X64950000Y-117900000D03*
D11*
X55985000Y-127080000D03*
X69410000Y-124540000D03*
%TD*%
D10*
%TO.C,U8*%
X116050000Y-78000000D03*
X116050000Y-79900000D03*
X121950000Y-78000000D03*
X121950000Y-79900000D03*
D11*
X112985000Y-89080000D03*
X126410000Y-86540000D03*
%TD*%
D10*
%TO.C,U7*%
X97050000Y-97000000D03*
X97050000Y-98900000D03*
X102950000Y-97000000D03*
X102950000Y-98900000D03*
D11*
X93985000Y-108080000D03*
X107410000Y-105540000D03*
%TD*%
D10*
%TO.C,U6*%
X78050000Y-97000000D03*
X78050000Y-98900000D03*
X83950000Y-97000000D03*
X83950000Y-98900000D03*
D11*
X74985000Y-108080000D03*
X88410000Y-105540000D03*
%TD*%
D10*
%TO.C,U5*%
X59050000Y-97000000D03*
X59050000Y-98900000D03*
X64950000Y-97000000D03*
X64950000Y-98900000D03*
D11*
X55985000Y-108080000D03*
X69410000Y-105540000D03*
%TD*%
D10*
%TO.C,U2*%
X78050000Y-78000000D03*
X78050000Y-79900000D03*
X83950000Y-78000000D03*
X83950000Y-79900000D03*
D11*
X74985000Y-89080000D03*
X88410000Y-86540000D03*
%TD*%
D10*
%TO.C,U1*%
X59050000Y-78000000D03*
X59050000Y-79900000D03*
X64950000Y-78000000D03*
X64950000Y-79900000D03*
D11*
X55985000Y-89080000D03*
X69410000Y-86540000D03*
%TD*%
D16*
%TO.C,SW101*%
X52650000Y-75625000D03*
X52650000Y-70375000D03*
X54350000Y-70375000D03*
X54350000Y-75625000D03*
%TD*%
D17*
%TO.C,SW2*%
X109780000Y-69650000D03*
X109780000Y-62350000D03*
X107570000Y-62350000D03*
X107570000Y-69650000D03*
D18*
X110430000Y-63750000D03*
X110430000Y-65250000D03*
X110430000Y-68250000D03*
%TD*%
%TO.C,R8*%
G36*
G01*
X92225000Y-54925000D02*
X92775000Y-54925000D01*
G75*
G02*
X92975000Y-55125000I0J-200000D01*
G01*
X92975000Y-55525000D01*
G75*
G02*
X92775000Y-55725000I-200000J0D01*
G01*
X92225000Y-55725000D01*
G75*
G02*
X92025000Y-55525000I0J200000D01*
G01*
X92025000Y-55125000D01*
G75*
G02*
X92225000Y-54925000I200000J0D01*
G01*
G37*
G36*
G01*
X92225000Y-53275000D02*
X92775000Y-53275000D01*
G75*
G02*
X92975000Y-53475000I0J-200000D01*
G01*
X92975000Y-53875000D01*
G75*
G02*
X92775000Y-54075000I-200000J0D01*
G01*
X92225000Y-54075000D01*
G75*
G02*
X92025000Y-53875000I0J200000D01*
G01*
X92025000Y-53475000D01*
G75*
G02*
X92225000Y-53275000I200000J0D01*
G01*
G37*
%TD*%
%TO.C,R7*%
G36*
G01*
X76820000Y-65575000D02*
X76820000Y-66125000D01*
G75*
G02*
X76620000Y-66325000I-200000J0D01*
G01*
X76220000Y-66325000D01*
G75*
G02*
X76020000Y-66125000I0J200000D01*
G01*
X76020000Y-65575000D01*
G75*
G02*
X76220000Y-65375000I200000J0D01*
G01*
X76620000Y-65375000D01*
G75*
G02*
X76820000Y-65575000I0J-200000D01*
G01*
G37*
G36*
G01*
X78470000Y-65575000D02*
X78470000Y-66125000D01*
G75*
G02*
X78270000Y-66325000I-200000J0D01*
G01*
X77870000Y-66325000D01*
G75*
G02*
X77670000Y-66125000I0J200000D01*
G01*
X77670000Y-65575000D01*
G75*
G02*
X77870000Y-65375000I200000J0D01*
G01*
X78270000Y-65375000D01*
G75*
G02*
X78470000Y-65575000I0J-200000D01*
G01*
G37*
%TD*%
%TO.C,R6*%
G36*
G01*
X97994999Y-62074996D02*
X97994999Y-62624996D01*
G75*
G02*
X97794999Y-62824996I-200000J0D01*
G01*
X97394999Y-62824996D01*
G75*
G02*
X97194999Y-62624996I0J200000D01*
G01*
X97194999Y-62074996D01*
G75*
G02*
X97394999Y-61874996I200000J0D01*
G01*
X97794999Y-61874996D01*
G75*
G02*
X97994999Y-62074996I0J-200000D01*
G01*
G37*
G36*
G01*
X99644999Y-62074996D02*
X99644999Y-62624996D01*
G75*
G02*
X99444999Y-62824996I-200000J0D01*
G01*
X99044999Y-62824996D01*
G75*
G02*
X98844999Y-62624996I0J200000D01*
G01*
X98844999Y-62074996D01*
G75*
G02*
X99044999Y-61874996I200000J0D01*
G01*
X99444999Y-61874996D01*
G75*
G02*
X99644999Y-62074996I0J-200000D01*
G01*
G37*
%TD*%
%TO.C,R5*%
G36*
G01*
X97994997Y-63575001D02*
X97994997Y-64125001D01*
G75*
G02*
X97794997Y-64325001I-200000J0D01*
G01*
X97394997Y-64325001D01*
G75*
G02*
X97194997Y-64125001I0J200000D01*
G01*
X97194997Y-63575001D01*
G75*
G02*
X97394997Y-63375001I200000J0D01*
G01*
X97794997Y-63375001D01*
G75*
G02*
X97994997Y-63575001I0J-200000D01*
G01*
G37*
G36*
G01*
X99644997Y-63575001D02*
X99644997Y-64125001D01*
G75*
G02*
X99444997Y-64325001I-200000J0D01*
G01*
X99044997Y-64325001D01*
G75*
G02*
X98844997Y-64125001I0J200000D01*
G01*
X98844997Y-63575001D01*
G75*
G02*
X99044997Y-63375001I200000J0D01*
G01*
X99444997Y-63375001D01*
G75*
G02*
X99644997Y-63575001I0J-200000D01*
G01*
G37*
%TD*%
%TO.C,R4*%
G36*
G01*
X109175000Y-71775000D02*
X109175000Y-71225000D01*
G75*
G02*
X109375000Y-71025000I200000J0D01*
G01*
X109775000Y-71025000D01*
G75*
G02*
X109975000Y-71225000I0J-200000D01*
G01*
X109975000Y-71775000D01*
G75*
G02*
X109775000Y-71975000I-200000J0D01*
G01*
X109375000Y-71975000D01*
G75*
G02*
X109175000Y-71775000I0J200000D01*
G01*
G37*
G36*
G01*
X107525000Y-71775000D02*
X107525000Y-71225000D01*
G75*
G02*
X107725000Y-71025000I200000J0D01*
G01*
X108125000Y-71025000D01*
G75*
G02*
X108325000Y-71225000I0J-200000D01*
G01*
X108325000Y-71775000D01*
G75*
G02*
X108125000Y-71975000I-200000J0D01*
G01*
X107725000Y-71975000D01*
G75*
G02*
X107525000Y-71775000I0J200000D01*
G01*
G37*
%TD*%
%TO.C,R3*%
G36*
G01*
X108325000Y-72725000D02*
X108325000Y-73275000D01*
G75*
G02*
X108125000Y-73475000I-200000J0D01*
G01*
X107725000Y-73475000D01*
G75*
G02*
X107525000Y-73275000I0J200000D01*
G01*
X107525000Y-72725000D01*
G75*
G02*
X107725000Y-72525000I200000J0D01*
G01*
X108125000Y-72525000D01*
G75*
G02*
X108325000Y-72725000I0J-200000D01*
G01*
G37*
G36*
G01*
X109975000Y-72725000D02*
X109975000Y-73275000D01*
G75*
G02*
X109775000Y-73475000I-200000J0D01*
G01*
X109375000Y-73475000D01*
G75*
G02*
X109175000Y-73275000I0J200000D01*
G01*
X109175000Y-72725000D01*
G75*
G02*
X109375000Y-72525000I200000J0D01*
G01*
X109775000Y-72525000D01*
G75*
G02*
X109975000Y-72725000I0J-200000D01*
G01*
G37*
%TD*%
%TO.C,R2*%
G36*
G01*
X95425000Y-54025000D02*
X95425000Y-53475000D01*
G75*
G02*
X95625000Y-53275000I200000J0D01*
G01*
X96025000Y-53275000D01*
G75*
G02*
X96225000Y-53475000I0J-200000D01*
G01*
X96225000Y-54025000D01*
G75*
G02*
X96025000Y-54225000I-200000J0D01*
G01*
X95625000Y-54225000D01*
G75*
G02*
X95425000Y-54025000I0J200000D01*
G01*
G37*
G36*
G01*
X93775000Y-54025000D02*
X93775000Y-53475000D01*
G75*
G02*
X93975000Y-53275000I200000J0D01*
G01*
X94375000Y-53275000D01*
G75*
G02*
X94575000Y-53475000I0J-200000D01*
G01*
X94575000Y-54025000D01*
G75*
G02*
X94375000Y-54225000I-200000J0D01*
G01*
X93975000Y-54225000D01*
G75*
G02*
X93775000Y-54025000I0J200000D01*
G01*
G37*
%TD*%
%TO.C,R1*%
G36*
G01*
X95425000Y-55525000D02*
X95425000Y-54975000D01*
G75*
G02*
X95625000Y-54775000I200000J0D01*
G01*
X96025000Y-54775000D01*
G75*
G02*
X96225000Y-54975000I0J-200000D01*
G01*
X96225000Y-55525000D01*
G75*
G02*
X96025000Y-55725000I-200000J0D01*
G01*
X95625000Y-55725000D01*
G75*
G02*
X95425000Y-55525000I0J200000D01*
G01*
G37*
G36*
G01*
X93775000Y-55525000D02*
X93775000Y-54975000D01*
G75*
G02*
X93975000Y-54775000I200000J0D01*
G01*
X94375000Y-54775000D01*
G75*
G02*
X94575000Y-54975000I0J-200000D01*
G01*
X94575000Y-55525000D01*
G75*
G02*
X94375000Y-55725000I-200000J0D01*
G01*
X93975000Y-55725000D01*
G75*
G02*
X93775000Y-55525000I0J200000D01*
G01*
G37*
%TD*%
D19*
%TO.C,J4*%
X63750000Y-55325000D03*
X63750000Y-58325000D03*
X63750000Y-62325000D03*
X70250000Y-63425000D03*
%TD*%
%TO.C,J3*%
G36*
G01*
X52275001Y-62800000D02*
X50974999Y-62800000D01*
G75*
G02*
X50725000Y-62550001I0J249999D01*
G01*
X50725000Y-61849999D01*
G75*
G02*
X50974999Y-61600000I249999J0D01*
G01*
X52275001Y-61600000D01*
G75*
G02*
X52525000Y-61849999I0J-249999D01*
G01*
X52525000Y-62550001D01*
G75*
G02*
X52275001Y-62800000I-249999J0D01*
G01*
G37*
G36*
G01*
X52275001Y-68400000D02*
X50974999Y-68400000D01*
G75*
G02*
X50725000Y-68150001I0J249999D01*
G01*
X50725000Y-67449999D01*
G75*
G02*
X50974999Y-67200000I249999J0D01*
G01*
X52275001Y-67200000D01*
G75*
G02*
X52525000Y-67449999I0J-249999D01*
G01*
X52525000Y-68150001D01*
G75*
G02*
X52275001Y-68400000I-249999J0D01*
G01*
G37*
G36*
G01*
X56125000Y-63800000D02*
X54875000Y-63800000D01*
G75*
G02*
X54725000Y-63650000I0J150000D01*
G01*
X54725000Y-63350000D01*
G75*
G02*
X54875000Y-63200000I150000J0D01*
G01*
X56125000Y-63200000D01*
G75*
G02*
X56275000Y-63350000I0J-150000D01*
G01*
X56275000Y-63650000D01*
G75*
G02*
X56125000Y-63800000I-150000J0D01*
G01*
G37*
G36*
G01*
X56125000Y-64800000D02*
X54875000Y-64800000D01*
G75*
G02*
X54725000Y-64650000I0J150000D01*
G01*
X54725000Y-64350000D01*
G75*
G02*
X54875000Y-64200000I150000J0D01*
G01*
X56125000Y-64200000D01*
G75*
G02*
X56275000Y-64350000I0J-150000D01*
G01*
X56275000Y-64650000D01*
G75*
G02*
X56125000Y-64800000I-150000J0D01*
G01*
G37*
G36*
G01*
X56125000Y-65800000D02*
X54875000Y-65800000D01*
G75*
G02*
X54725000Y-65650000I0J150000D01*
G01*
X54725000Y-65350000D01*
G75*
G02*
X54875000Y-65200000I150000J0D01*
G01*
X56125000Y-65200000D01*
G75*
G02*
X56275000Y-65350000I0J-150000D01*
G01*
X56275000Y-65650000D01*
G75*
G02*
X56125000Y-65800000I-150000J0D01*
G01*
G37*
G36*
G01*
X56125000Y-66800000D02*
X54875000Y-66800000D01*
G75*
G02*
X54725000Y-66650000I0J150000D01*
G01*
X54725000Y-66350000D01*
G75*
G02*
X54875000Y-66200000I150000J0D01*
G01*
X56125000Y-66200000D01*
G75*
G02*
X56275000Y-66350000I0J-150000D01*
G01*
X56275000Y-66650000D01*
G75*
G02*
X56125000Y-66800000I-150000J0D01*
G01*
G37*
%TD*%
D20*
%TO.C,J1*%
X107000000Y-57545000D03*
X106200000Y-57545000D03*
X101300000Y-57545000D03*
X100500000Y-57545000D03*
X100500000Y-57545000D03*
X101300000Y-57545000D03*
X106200000Y-57545000D03*
X107000000Y-57545000D03*
D21*
X102000000Y-57545000D03*
X102500000Y-57545000D03*
X103000000Y-57545000D03*
X104000000Y-57545000D03*
X104500000Y-57545000D03*
X105000000Y-57545000D03*
X105500000Y-57545000D03*
X103500000Y-57545000D03*
%TD*%
%TO.C,D101*%
G36*
G01*
X94729997Y-51743749D02*
X94729997Y-52256249D01*
G75*
G02*
X94511247Y-52474999I-218750J0D01*
G01*
X94073747Y-52474999D01*
G75*
G02*
X93854997Y-52256249I0J218750D01*
G01*
X93854997Y-51743749D01*
G75*
G02*
X94073747Y-51524999I218750J0D01*
G01*
X94511247Y-51524999D01*
G75*
G02*
X94729997Y-51743749I0J-218750D01*
G01*
G37*
G36*
G01*
X96304997Y-51743749D02*
X96304997Y-52256249D01*
G75*
G02*
X96086247Y-52474999I-218750J0D01*
G01*
X95648747Y-52474999D01*
G75*
G02*
X95429997Y-52256249I0J218750D01*
G01*
X95429997Y-51743749D01*
G75*
G02*
X95648747Y-51524999I218750J0D01*
G01*
X96086247Y-51524999D01*
G75*
G02*
X96304997Y-51743749I0J-218750D01*
G01*
G37*
%TD*%
D22*
%TO.C,D18*%
X107500000Y-158000001D03*
X107500000Y-154700001D03*
%TD*%
%TO.C,D17*%
X79000000Y-158650000D03*
X79000000Y-155350000D03*
%TD*%
%TO.C,D16*%
X126500000Y-148900000D03*
X126500000Y-145600000D03*
%TD*%
D23*
%TO.C,D15*%
X107000000Y-149000000D03*
X103700000Y-149000000D03*
%TD*%
D22*
%TO.C,D14*%
X89000000Y-140250001D03*
X89000000Y-136950001D03*
%TD*%
%TO.C,D13*%
X70250000Y-140400000D03*
X70250000Y-137100000D03*
%TD*%
%TO.C,D12*%
X126500000Y-110650000D03*
X126500000Y-107350000D03*
%TD*%
D23*
%TO.C,D11*%
X107000000Y-130000000D03*
X103700000Y-130000000D03*
%TD*%
%TO.C,D10*%
X88000000Y-130000000D03*
X84700000Y-130000000D03*
%TD*%
%TO.C,D9*%
X69000000Y-130000000D03*
X65700000Y-130000000D03*
%TD*%
%TO.C,D8*%
X126150000Y-92500000D03*
X122850000Y-92500000D03*
%TD*%
%TO.C,D7*%
X107000000Y-111500000D03*
X103700000Y-111500000D03*
%TD*%
%TO.C,D6*%
X88000000Y-111500000D03*
X84700000Y-111500000D03*
%TD*%
%TO.C,D5*%
X69150000Y-111500000D03*
X65850000Y-111500000D03*
%TD*%
%TO.C,D4*%
X115650000Y-72500000D03*
X112350000Y-72500000D03*
%TD*%
%TO.C,D3*%
X107000000Y-92500000D03*
X103700000Y-92500000D03*
%TD*%
%TO.C,D2*%
X88150000Y-92500000D03*
X84850000Y-92500000D03*
%TD*%
%TO.C,D1*%
X69150000Y-92500000D03*
X65850000Y-92500000D03*
%TD*%
%TO.C,C116*%
G36*
G01*
X77520001Y-67599996D02*
X77520001Y-67099996D01*
G75*
G02*
X77745001Y-66874996I225000J0D01*
G01*
X78195001Y-66874996D01*
G75*
G02*
X78420001Y-67099996I0J-225000D01*
G01*
X78420001Y-67599996D01*
G75*
G02*
X78195001Y-67824996I-225000J0D01*
G01*
X77745001Y-67824996D01*
G75*
G02*
X77520001Y-67599996I0J225000D01*
G01*
G37*
G36*
G01*
X75970001Y-67599996D02*
X75970001Y-67099996D01*
G75*
G02*
X76195001Y-66874996I225000J0D01*
G01*
X76645001Y-66874996D01*
G75*
G02*
X76870001Y-67099996I0J-225000D01*
G01*
X76870001Y-67599996D01*
G75*
G02*
X76645001Y-67824996I-225000J0D01*
G01*
X76195001Y-67824996D01*
G75*
G02*
X75970001Y-67599996I0J225000D01*
G01*
G37*
%TD*%
%TO.C,C115*%
G36*
G01*
X87320002Y-52449999D02*
X86820002Y-52449999D01*
G75*
G02*
X86595002Y-52224999I0J225000D01*
G01*
X86595002Y-51774999D01*
G75*
G02*
X86820002Y-51549999I225000J0D01*
G01*
X87320002Y-51549999D01*
G75*
G02*
X87545002Y-51774999I0J-225000D01*
G01*
X87545002Y-52224999D01*
G75*
G02*
X87320002Y-52449999I-225000J0D01*
G01*
G37*
G36*
G01*
X87320002Y-53999999D02*
X86820002Y-53999999D01*
G75*
G02*
X86595002Y-53774999I0J225000D01*
G01*
X86595002Y-53324999D01*
G75*
G02*
X86820002Y-53099999I225000J0D01*
G01*
X87320002Y-53099999D01*
G75*
G02*
X87545002Y-53324999I0J-225000D01*
G01*
X87545002Y-53774999D01*
G75*
G02*
X87320002Y-53999999I-225000J0D01*
G01*
G37*
%TD*%
%TO.C,C114*%
G36*
G01*
X87320000Y-55675006D02*
X86820000Y-55675006D01*
G75*
G02*
X86595000Y-55450006I0J225000D01*
G01*
X86595000Y-55000006D01*
G75*
G02*
X86820000Y-54775006I225000J0D01*
G01*
X87320000Y-54775006D01*
G75*
G02*
X87545000Y-55000006I0J-225000D01*
G01*
X87545000Y-55450006D01*
G75*
G02*
X87320000Y-55675006I-225000J0D01*
G01*
G37*
G36*
G01*
X87320000Y-57225006D02*
X86820000Y-57225006D01*
G75*
G02*
X86595000Y-57000006I0J225000D01*
G01*
X86595000Y-56550006D01*
G75*
G02*
X86820000Y-56325006I225000J0D01*
G01*
X87320000Y-56325006D01*
G75*
G02*
X87545000Y-56550006I0J-225000D01*
G01*
X87545000Y-57000006D01*
G75*
G02*
X87320000Y-57225006I-225000J0D01*
G01*
G37*
%TD*%
%TO.C,C113*%
G36*
G01*
X76870000Y-72600000D02*
X76870000Y-73100000D01*
G75*
G02*
X76645000Y-73325000I-225000J0D01*
G01*
X76195000Y-73325000D01*
G75*
G02*
X75970000Y-73100000I0J225000D01*
G01*
X75970000Y-72600000D01*
G75*
G02*
X76195000Y-72375000I225000J0D01*
G01*
X76645000Y-72375000D01*
G75*
G02*
X76870000Y-72600000I0J-225000D01*
G01*
G37*
G36*
G01*
X78420000Y-72600000D02*
X78420000Y-73100000D01*
G75*
G02*
X78195000Y-73325000I-225000J0D01*
G01*
X77745000Y-73325000D01*
G75*
G02*
X77520000Y-73100000I0J225000D01*
G01*
X77520000Y-72600000D01*
G75*
G02*
X77745000Y-72375000I225000J0D01*
G01*
X78195000Y-72375000D01*
G75*
G02*
X78420000Y-72600000I0J-225000D01*
G01*
G37*
%TD*%
%TO.C,C112*%
G36*
G01*
X95470001Y-61100003D02*
X95470001Y-60600003D01*
G75*
G02*
X95695001Y-60375003I225000J0D01*
G01*
X96145001Y-60375003D01*
G75*
G02*
X96370001Y-60600003I0J-225000D01*
G01*
X96370001Y-61100003D01*
G75*
G02*
X96145001Y-61325003I-225000J0D01*
G01*
X95695001Y-61325003D01*
G75*
G02*
X95470001Y-61100003I0J225000D01*
G01*
G37*
G36*
G01*
X93920001Y-61100003D02*
X93920001Y-60600003D01*
G75*
G02*
X94145001Y-60375003I225000J0D01*
G01*
X94595001Y-60375003D01*
G75*
G02*
X94820001Y-60600003I0J-225000D01*
G01*
X94820001Y-61100003D01*
G75*
G02*
X94595001Y-61325003I-225000J0D01*
G01*
X94145001Y-61325003D01*
G75*
G02*
X93920001Y-61100003I0J225000D01*
G01*
G37*
%TD*%
%TO.C,C111*%
G36*
G01*
X95470002Y-62600007D02*
X95470002Y-62100007D01*
G75*
G02*
X95695002Y-61875007I225000J0D01*
G01*
X96145002Y-61875007D01*
G75*
G02*
X96370002Y-62100007I0J-225000D01*
G01*
X96370002Y-62600007D01*
G75*
G02*
X96145002Y-62825007I-225000J0D01*
G01*
X95695002Y-62825007D01*
G75*
G02*
X95470002Y-62600007I0J225000D01*
G01*
G37*
G36*
G01*
X93920002Y-62600007D02*
X93920002Y-62100007D01*
G75*
G02*
X94145002Y-61875007I225000J0D01*
G01*
X94595002Y-61875007D01*
G75*
G02*
X94820002Y-62100007I0J-225000D01*
G01*
X94820002Y-62600007D01*
G75*
G02*
X94595002Y-62825007I-225000J0D01*
G01*
X94145002Y-62825007D01*
G75*
G02*
X93920002Y-62600007I0J225000D01*
G01*
G37*
%TD*%
%TO.C,C110*%
G36*
G01*
X105049999Y-71299998D02*
X104549999Y-71299998D01*
G75*
G02*
X104324999Y-71074998I0J225000D01*
G01*
X104324999Y-70624998D01*
G75*
G02*
X104549999Y-70399998I225000J0D01*
G01*
X105049999Y-70399998D01*
G75*
G02*
X105274999Y-70624998I0J-225000D01*
G01*
X105274999Y-71074998D01*
G75*
G02*
X105049999Y-71299998I-225000J0D01*
G01*
G37*
G36*
G01*
X105049999Y-72849998D02*
X104549999Y-72849998D01*
G75*
G02*
X104324999Y-72624998I0J225000D01*
G01*
X104324999Y-72174998D01*
G75*
G02*
X104549999Y-71949998I225000J0D01*
G01*
X105049999Y-71949998D01*
G75*
G02*
X105274999Y-72174998I0J-225000D01*
G01*
X105274999Y-72624998D01*
G75*
G02*
X105049999Y-72849998I-225000J0D01*
G01*
G37*
%TD*%
%TO.C,C109*%
G36*
G01*
X95550000Y-59500000D02*
X95550000Y-59000000D01*
G75*
G02*
X95775000Y-58775000I225000J0D01*
G01*
X96225000Y-58775000D01*
G75*
G02*
X96450000Y-59000000I0J-225000D01*
G01*
X96450000Y-59500000D01*
G75*
G02*
X96225000Y-59725000I-225000J0D01*
G01*
X95775000Y-59725000D01*
G75*
G02*
X95550000Y-59500000I0J225000D01*
G01*
G37*
G36*
G01*
X94000000Y-59500000D02*
X94000000Y-59000000D01*
G75*
G02*
X94225000Y-58775000I225000J0D01*
G01*
X94675000Y-58775000D01*
G75*
G02*
X94900000Y-59000000I0J-225000D01*
G01*
X94900000Y-59500000D01*
G75*
G02*
X94675000Y-59725000I-225000J0D01*
G01*
X94225000Y-59725000D01*
G75*
G02*
X94000000Y-59500000I0J225000D01*
G01*
G37*
%TD*%
%TO.C,C108*%
G36*
G01*
X88670000Y-73400002D02*
X89170000Y-73400002D01*
G75*
G02*
X89395000Y-73625002I0J-225000D01*
G01*
X89395000Y-74075002D01*
G75*
G02*
X89170000Y-74300002I-225000J0D01*
G01*
X88670000Y-74300002D01*
G75*
G02*
X88445000Y-74075002I0J225000D01*
G01*
X88445000Y-73625002D01*
G75*
G02*
X88670000Y-73400002I225000J0D01*
G01*
G37*
G36*
G01*
X88670000Y-71850002D02*
X89170000Y-71850002D01*
G75*
G02*
X89395000Y-72075002I0J-225000D01*
G01*
X89395000Y-72525002D01*
G75*
G02*
X89170000Y-72750002I-225000J0D01*
G01*
X88670000Y-72750002D01*
G75*
G02*
X88445000Y-72525002I0J225000D01*
G01*
X88445000Y-72075002D01*
G75*
G02*
X88670000Y-71850002I225000J0D01*
G01*
G37*
%TD*%
%TO.C,C107*%
G36*
G01*
X85170000Y-73399999D02*
X85670000Y-73399999D01*
G75*
G02*
X85895000Y-73624999I0J-225000D01*
G01*
X85895000Y-74074999D01*
G75*
G02*
X85670000Y-74299999I-225000J0D01*
G01*
X85170000Y-74299999D01*
G75*
G02*
X84945000Y-74074999I0J225000D01*
G01*
X84945000Y-73624999D01*
G75*
G02*
X85170000Y-73399999I225000J0D01*
G01*
G37*
G36*
G01*
X85170000Y-71849999D02*
X85670000Y-71849999D01*
G75*
G02*
X85895000Y-72074999I0J-225000D01*
G01*
X85895000Y-72524999D01*
G75*
G02*
X85670000Y-72749999I-225000J0D01*
G01*
X85170000Y-72749999D01*
G75*
G02*
X84945000Y-72524999I0J225000D01*
G01*
X84945000Y-72074999D01*
G75*
G02*
X85170000Y-71849999I225000J0D01*
G01*
G37*
%TD*%
%TO.C,C106*%
G36*
G01*
X95520001Y-65100001D02*
X95520001Y-64600001D01*
G75*
G02*
X95745001Y-64375001I225000J0D01*
G01*
X96195001Y-64375001D01*
G75*
G02*
X96420001Y-64600001I0J-225000D01*
G01*
X96420001Y-65100001D01*
G75*
G02*
X96195001Y-65325001I-225000J0D01*
G01*
X95745001Y-65325001D01*
G75*
G02*
X95520001Y-65100001I0J225000D01*
G01*
G37*
G36*
G01*
X93970001Y-65100001D02*
X93970001Y-64600001D01*
G75*
G02*
X94195001Y-64375001I225000J0D01*
G01*
X94645001Y-64375001D01*
G75*
G02*
X94870001Y-64600001I0J-225000D01*
G01*
X94870001Y-65100001D01*
G75*
G02*
X94645001Y-65325001I-225000J0D01*
G01*
X94195001Y-65325001D01*
G75*
G02*
X93970001Y-65100001I0J225000D01*
G01*
G37*
%TD*%
%TO.C,C105*%
G36*
G01*
X77169998Y-61525001D02*
X76669998Y-61525001D01*
G75*
G02*
X76444998Y-61300001I0J225000D01*
G01*
X76444998Y-60850001D01*
G75*
G02*
X76669998Y-60625001I225000J0D01*
G01*
X77169998Y-60625001D01*
G75*
G02*
X77394998Y-60850001I0J-225000D01*
G01*
X77394998Y-61300001D01*
G75*
G02*
X77169998Y-61525001I-225000J0D01*
G01*
G37*
G36*
G01*
X77169998Y-63075001D02*
X76669998Y-63075001D01*
G75*
G02*
X76444998Y-62850001I0J225000D01*
G01*
X76444998Y-62400001D01*
G75*
G02*
X76669998Y-62175001I225000J0D01*
G01*
X77169998Y-62175001D01*
G75*
G02*
X77394998Y-62400001I0J-225000D01*
G01*
X77394998Y-62850001D01*
G75*
G02*
X77169998Y-63075001I-225000J0D01*
G01*
G37*
%TD*%
%TO.C,C104*%
G36*
G01*
X83630001Y-59119995D02*
X83630001Y-59619995D01*
G75*
G02*
X83405001Y-59844995I-225000J0D01*
G01*
X82955001Y-59844995D01*
G75*
G02*
X82730001Y-59619995I0J225000D01*
G01*
X82730001Y-59119995D01*
G75*
G02*
X82955001Y-58894995I225000J0D01*
G01*
X83405001Y-58894995D01*
G75*
G02*
X83630001Y-59119995I0J-225000D01*
G01*
G37*
G36*
G01*
X85180001Y-59119995D02*
X85180001Y-59619995D01*
G75*
G02*
X84955001Y-59844995I-225000J0D01*
G01*
X84505001Y-59844995D01*
G75*
G02*
X84280001Y-59619995I0J225000D01*
G01*
X84280001Y-59119995D01*
G75*
G02*
X84505001Y-58894995I225000J0D01*
G01*
X84955001Y-58894995D01*
G75*
G02*
X85180001Y-59119995I0J-225000D01*
G01*
G37*
%TD*%
%TO.C,C103*%
G36*
G01*
X95575000Y-57750000D02*
X95575000Y-57250000D01*
G75*
G02*
X95800000Y-57025000I225000J0D01*
G01*
X96250000Y-57025000D01*
G75*
G02*
X96475000Y-57250000I0J-225000D01*
G01*
X96475000Y-57750000D01*
G75*
G02*
X96250000Y-57975000I-225000J0D01*
G01*
X95800000Y-57975000D01*
G75*
G02*
X95575000Y-57750000I0J225000D01*
G01*
G37*
G36*
G01*
X94025000Y-57750000D02*
X94025000Y-57250000D01*
G75*
G02*
X94250000Y-57025000I225000J0D01*
G01*
X94700000Y-57025000D01*
G75*
G02*
X94925000Y-57250000I0J-225000D01*
G01*
X94925000Y-57750000D01*
G75*
G02*
X94700000Y-57975000I-225000J0D01*
G01*
X94250000Y-57975000D01*
G75*
G02*
X94025000Y-57750000I0J225000D01*
G01*
G37*
%TD*%
%TO.C,C102*%
G36*
G01*
X95519997Y-66600002D02*
X95519997Y-66100002D01*
G75*
G02*
X95744997Y-65875002I225000J0D01*
G01*
X96194997Y-65875002D01*
G75*
G02*
X96419997Y-66100002I0J-225000D01*
G01*
X96419997Y-66600002D01*
G75*
G02*
X96194997Y-66825002I-225000J0D01*
G01*
X95744997Y-66825002D01*
G75*
G02*
X95519997Y-66600002I0J225000D01*
G01*
G37*
G36*
G01*
X93969997Y-66600002D02*
X93969997Y-66100002D01*
G75*
G02*
X94194997Y-65875002I225000J0D01*
G01*
X94644997Y-65875002D01*
G75*
G02*
X94869997Y-66100002I0J-225000D01*
G01*
X94869997Y-66600002D01*
G75*
G02*
X94644997Y-66825002I-225000J0D01*
G01*
X94194997Y-66825002D01*
G75*
G02*
X93969997Y-66600002I0J225000D01*
G01*
G37*
%TD*%
%TO.C,C101*%
G36*
G01*
X78670001Y-61524999D02*
X78170001Y-61524999D01*
G75*
G02*
X77945001Y-61299999I0J225000D01*
G01*
X77945001Y-60849999D01*
G75*
G02*
X78170001Y-60624999I225000J0D01*
G01*
X78670001Y-60624999D01*
G75*
G02*
X78895001Y-60849999I0J-225000D01*
G01*
X78895001Y-61299999D01*
G75*
G02*
X78670001Y-61524999I-225000J0D01*
G01*
G37*
G36*
G01*
X78670001Y-63074999D02*
X78170001Y-63074999D01*
G75*
G02*
X77945001Y-62849999I0J225000D01*
G01*
X77945001Y-62399999D01*
G75*
G02*
X78170001Y-62174999I225000J0D01*
G01*
X78670001Y-62174999D01*
G75*
G02*
X78895001Y-62399999I0J-225000D01*
G01*
X78895001Y-62849999D01*
G75*
G02*
X78670001Y-63074999I-225000J0D01*
G01*
G37*
%TD*%
M02*
