%TF.GenerationSoftware,KiCad,Pcbnew,(5.1.10)-1*%
%TF.CreationDate,2021-11-23T18:56:39-06:00*%
%TF.ProjectId,PyKey18,50794b65-7931-4382-9e6b-696361645f70,1.0*%
%TF.SameCoordinates,Original*%
%TF.FileFunction,Legend,Top*%
%TF.FilePolarity,Positive*%
%FSLAX46Y46*%
G04 Gerber Fmt 4.6, Leading zero omitted, Abs format (unit mm)*
G04 Created by KiCad (PCBNEW (5.1.10)-1) date 2021-11-23 18:56:39*
%MOMM*%
%LPD*%
G01*
G04 APERTURE LIST*
%ADD10C,0.120000*%
G04 APERTURE END LIST*
D10*
%TO.C,U16*%
X112000000Y-143500000D02*
X126000000Y-143500000D01*
X112000000Y-157500000D02*
X112000000Y-143500000D01*
X126000000Y-157500000D02*
X112000000Y-157500000D01*
X126000000Y-157500000D02*
X126000000Y-143500000D01*
%TO.C,U12*%
X112000000Y-105500000D02*
X126000000Y-105500000D01*
X112000000Y-119500000D02*
X112000000Y-105500000D01*
X126000000Y-119500000D02*
X112000000Y-119500000D01*
X126000000Y-119500000D02*
X126000000Y-105500000D01*
%TO.C,U17*%
X64500000Y-153000000D02*
X78500000Y-153000000D01*
X64500000Y-167000000D02*
X64500000Y-153000000D01*
X78500000Y-167000000D02*
X64500000Y-167000000D01*
X78500000Y-167000000D02*
X78500000Y-153000000D01*
%TO.C,U3*%
X107000000Y-91000000D02*
X107000000Y-77000000D01*
X107000000Y-91000000D02*
X93000000Y-91000000D01*
X93000000Y-91000000D02*
X93000000Y-77000000D01*
X93000000Y-77000000D02*
X107000000Y-77000000D01*
%TO.C,U18*%
X107000000Y-167000000D02*
X107000000Y-153000000D01*
X107000000Y-167000000D02*
X93000000Y-167000000D01*
X93000000Y-167000000D02*
X93000000Y-153000000D01*
X93000000Y-153000000D02*
X107000000Y-153000000D01*
%TO.C,U15*%
X107000000Y-148000000D02*
X107000000Y-134000000D01*
X107000000Y-148000000D02*
X93000000Y-148000000D01*
X93000000Y-148000000D02*
X93000000Y-134000000D01*
X93000000Y-134000000D02*
X107000000Y-134000000D01*
%TO.C,U14*%
X88000000Y-148000000D02*
X88000000Y-134000000D01*
X88000000Y-148000000D02*
X74000000Y-148000000D01*
X74000000Y-148000000D02*
X74000000Y-134000000D01*
X74000000Y-134000000D02*
X88000000Y-134000000D01*
%TO.C,U13*%
X69000000Y-148000000D02*
X69000000Y-134000000D01*
X69000000Y-148000000D02*
X55000000Y-148000000D01*
X55000000Y-148000000D02*
X55000000Y-134000000D01*
X55000000Y-134000000D02*
X69000000Y-134000000D01*
%TO.C,U11*%
X107000000Y-129000000D02*
X107000000Y-115000000D01*
X107000000Y-129000000D02*
X93000000Y-129000000D01*
X93000000Y-129000000D02*
X93000000Y-115000000D01*
X93000000Y-115000000D02*
X107000000Y-115000000D01*
%TO.C,U10*%
X88000000Y-129000000D02*
X88000000Y-115000000D01*
X88000000Y-129000000D02*
X74000000Y-129000000D01*
X74000000Y-129000000D02*
X74000000Y-115000000D01*
X74000000Y-115000000D02*
X88000000Y-115000000D01*
%TO.C,U9*%
X69000000Y-129000000D02*
X69000000Y-115000000D01*
X69000000Y-129000000D02*
X55000000Y-129000000D01*
X55000000Y-129000000D02*
X55000000Y-115000000D01*
X55000000Y-115000000D02*
X69000000Y-115000000D01*
%TO.C,U8*%
X126000000Y-91000000D02*
X126000000Y-77000000D01*
X126000000Y-91000000D02*
X112000000Y-91000000D01*
X112000000Y-91000000D02*
X112000000Y-77000000D01*
X112000000Y-77000000D02*
X126000000Y-77000000D01*
%TO.C,U7*%
X107000000Y-110000000D02*
X107000000Y-96000000D01*
X107000000Y-110000000D02*
X93000000Y-110000000D01*
X93000000Y-110000000D02*
X93000000Y-96000000D01*
X93000000Y-96000000D02*
X107000000Y-96000000D01*
%TO.C,U6*%
X88000000Y-110000000D02*
X88000000Y-96000000D01*
X88000000Y-110000000D02*
X74000000Y-110000000D01*
X74000000Y-110000000D02*
X74000000Y-96000000D01*
X74000000Y-96000000D02*
X88000000Y-96000000D01*
%TO.C,U5*%
X69000000Y-110000000D02*
X69000000Y-96000000D01*
X69000000Y-110000000D02*
X55000000Y-110000000D01*
X55000000Y-110000000D02*
X55000000Y-96000000D01*
X55000000Y-96000000D02*
X69000000Y-96000000D01*
%TO.C,U2*%
X88000000Y-91000000D02*
X88000000Y-77000000D01*
X88000000Y-91000000D02*
X74000000Y-91000000D01*
X74000000Y-91000000D02*
X74000000Y-77000000D01*
X74000000Y-77000000D02*
X88000000Y-77000000D01*
%TO.C,U1*%
X69000000Y-91000000D02*
X69000000Y-77000000D01*
X69000000Y-91000000D02*
X55000000Y-91000000D01*
X55000000Y-91000000D02*
X55000000Y-77000000D01*
X55000000Y-77000000D02*
X69000000Y-77000000D01*
%TO.C,SW4*%
X122000000Y-62500000D02*
G75*
G03*
X122000000Y-62500000I-3000000J0D01*
G01*
X124900000Y-64500000D02*
X124900000Y-68600000D01*
X113100000Y-68600000D02*
X113100000Y-64500000D01*
X113100000Y-60500000D02*
X113100000Y-56400000D01*
X124900000Y-60500000D02*
X124900000Y-56400000D01*
X124900000Y-56400000D02*
X113100000Y-56400000D01*
X122800000Y-55000000D02*
X123100000Y-54700000D01*
X123100000Y-54700000D02*
X123100000Y-55300000D01*
X123100000Y-55300000D02*
X122800000Y-55000000D01*
X124900000Y-68600000D02*
X122500000Y-68600000D01*
X120300000Y-68600000D02*
X117700000Y-68600000D01*
X115500000Y-68600000D02*
X113100000Y-68600000D01*
X119500000Y-62500000D02*
X118500000Y-62500000D01*
X119000000Y-62000000D02*
X119000000Y-63000000D01*
%TO.C,J5*%
X61330000Y-67370000D02*
X60000000Y-67370000D01*
X61330000Y-66040000D02*
X61330000Y-67370000D01*
X61330000Y-64770000D02*
X58670000Y-64770000D01*
X58670000Y-64770000D02*
X58670000Y-57090000D01*
X61330000Y-64770000D02*
X61330000Y-57090000D01*
X61330000Y-57090000D02*
X58670000Y-57090000D01*
%TO.C,J2*%
X71170000Y-51129999D02*
X72500000Y-51129999D01*
X71170000Y-52459999D02*
X71170000Y-51129999D01*
X71170000Y-53729999D02*
X73830000Y-53729999D01*
X73830000Y-53729999D02*
X73830000Y-58869999D01*
X71170000Y-53729999D02*
X71170000Y-58869999D01*
X71170000Y-58869999D02*
X73830000Y-58869999D01*
%TD*%
M02*
