%TF.GenerationSoftware,KiCad,Pcbnew,(5.1.10)-1*%
%TF.CreationDate,2021-11-23T18:56:39-06:00*%
%TF.ProjectId,PyKey18,50794b65-7931-4382-9e6b-696361645f70,1.0*%
%TF.SameCoordinates,Original*%
%TF.FileFunction,Profile,NP*%
%FSLAX46Y46*%
G04 Gerber Fmt 4.6, Leading zero omitted, Abs format (unit mm)*
G04 Created by KiCad (PCBNEW (5.1.10)-1) date 2021-11-23 18:56:39*
%MOMM*%
%LPD*%
G01*
G04 APERTURE LIST*
%TA.AperFunction,Profile*%
%ADD10C,0.150000*%
%TD*%
%TA.AperFunction,Profile*%
%ADD11C,0.050000*%
%TD*%
G04 APERTURE END LIST*
D10*
X129000000Y-50000000D02*
G75*
G02*
X131000000Y-52000000I0J-2000000D01*
G01*
X131000000Y-168000000D02*
G75*
G02*
X129000000Y-170000000I-2000000J0D01*
G01*
X52000000Y-170000000D02*
G75*
G02*
X50000000Y-168000000I0J2000000D01*
G01*
X50000000Y-52000000D02*
G75*
G02*
X52000000Y-50000000I2000000J0D01*
G01*
X129000000Y-50000000D02*
X52000000Y-50000000D01*
X131000000Y-168000000D02*
X131000000Y-52000000D01*
X52000000Y-170000000D02*
X129000000Y-170000000D01*
X50000000Y-52000000D02*
X50000000Y-168000000D01*
D11*
%TO.C,U16*%
X120700000Y-146950000D02*
X117300000Y-146950000D01*
X117300000Y-146950000D02*
X117300000Y-143950000D01*
X117300000Y-143950000D02*
X120700000Y-143950000D01*
X120700000Y-143950000D02*
X120700000Y-146950000D01*
%TO.C,U12*%
X120700000Y-108950000D02*
X117300000Y-108950000D01*
X117300000Y-108950000D02*
X117300000Y-105950000D01*
X117300000Y-105950000D02*
X120700000Y-105950000D01*
X120700000Y-105950000D02*
X120700000Y-108950000D01*
%TO.C,U17*%
X73200000Y-156450000D02*
X69800000Y-156450000D01*
X69800000Y-156450000D02*
X69800000Y-153450000D01*
X69800000Y-153450000D02*
X73200000Y-153450000D01*
X73200000Y-153450000D02*
X73200000Y-156450000D01*
%TO.C,U3*%
X101700000Y-77450000D02*
X101700000Y-80450000D01*
X98300000Y-77450000D02*
X101700000Y-77450000D01*
X98300000Y-80450000D02*
X98300000Y-77450000D01*
X101700000Y-80450000D02*
X98300000Y-80450000D01*
%TO.C,U18*%
X101700000Y-153450000D02*
X101700000Y-156450000D01*
X98300000Y-153450000D02*
X101700000Y-153450000D01*
X98300000Y-156450000D02*
X98300000Y-153450000D01*
X101700000Y-156450000D02*
X98300000Y-156450000D01*
%TO.C,U15*%
X101700000Y-134450000D02*
X101700000Y-137450000D01*
X98300000Y-134450000D02*
X101700000Y-134450000D01*
X98300000Y-137450000D02*
X98300000Y-134450000D01*
X101700000Y-137450000D02*
X98300000Y-137450000D01*
%TO.C,U14*%
X82700000Y-134450000D02*
X82700000Y-137450000D01*
X79300000Y-134450000D02*
X82700000Y-134450000D01*
X79300000Y-137450000D02*
X79300000Y-134450000D01*
X82700000Y-137450000D02*
X79300000Y-137450000D01*
%TO.C,U13*%
X63700000Y-134450000D02*
X63700000Y-137450000D01*
X60300000Y-134450000D02*
X63700000Y-134450000D01*
X60300000Y-137450000D02*
X60300000Y-134450000D01*
X63700000Y-137450000D02*
X60300000Y-137450000D01*
%TO.C,U11*%
X101700000Y-115450000D02*
X101700000Y-118450000D01*
X98300000Y-115450000D02*
X101700000Y-115450000D01*
X98300000Y-118450000D02*
X98300000Y-115450000D01*
X101700000Y-118450000D02*
X98300000Y-118450000D01*
%TO.C,U10*%
X82700000Y-115450000D02*
X82700000Y-118450000D01*
X79300000Y-115450000D02*
X82700000Y-115450000D01*
X79300000Y-118450000D02*
X79300000Y-115450000D01*
X82700000Y-118450000D02*
X79300000Y-118450000D01*
%TO.C,U9*%
X63700000Y-115450000D02*
X63700000Y-118450000D01*
X60300000Y-115450000D02*
X63700000Y-115450000D01*
X60300000Y-118450000D02*
X60300000Y-115450000D01*
X63700000Y-118450000D02*
X60300000Y-118450000D01*
%TO.C,U8*%
X120700000Y-77450000D02*
X120700000Y-80450000D01*
X117300000Y-77450000D02*
X120700000Y-77450000D01*
X117300000Y-80450000D02*
X117300000Y-77450000D01*
X120700000Y-80450000D02*
X117300000Y-80450000D01*
%TO.C,U7*%
X101700000Y-96450000D02*
X101700000Y-99450000D01*
X98300000Y-96450000D02*
X101700000Y-96450000D01*
X98300000Y-99450000D02*
X98300000Y-96450000D01*
X101700000Y-99450000D02*
X98300000Y-99450000D01*
%TO.C,U6*%
X82700000Y-96450000D02*
X82700000Y-99450000D01*
X79300000Y-96450000D02*
X82700000Y-96450000D01*
X79300000Y-99450000D02*
X79300000Y-96450000D01*
X82700000Y-99450000D02*
X79300000Y-99450000D01*
%TO.C,U5*%
X63700000Y-96450000D02*
X63700000Y-99450000D01*
X60300000Y-96450000D02*
X63700000Y-96450000D01*
X60300000Y-99450000D02*
X60300000Y-96450000D01*
X63700000Y-99450000D02*
X60300000Y-99450000D01*
%TO.C,U2*%
X82700000Y-77450000D02*
X82700000Y-80450000D01*
X79300000Y-77450000D02*
X82700000Y-77450000D01*
X79300000Y-80450000D02*
X79300000Y-77450000D01*
X82700000Y-80450000D02*
X79300000Y-80450000D01*
%TO.C,U1*%
X63700000Y-77450000D02*
X63700000Y-80450000D01*
X60300000Y-77450000D02*
X63700000Y-77450000D01*
X60300000Y-80450000D02*
X60300000Y-77450000D01*
X63700000Y-80450000D02*
X60300000Y-80450000D01*
%TD*%
M02*
