M48
; DRILL file {KiCad (5.1.10)-1} date 11/23/21 17:36:02
; FORMAT={-:-/ absolute / inch / decimal}
; #@! TF.CreationDate,2021-11-23T17:36:02-06:00
; #@! TF.GenerationSoftware,Kicad,Pcbnew,(5.1.10)-1
; #@! TF.FileFunction,Plated,1,2,PTH
FMAT,2
INCH
T1C0.0138
T2C0.0157
T3C0.0236
T4C0.0394
T5C0.0591
%
G90
G05
T1
X3.3522Y-2.5226
X3.3522Y-2.5728
X3.3522Y-2.623
X3.4024Y-2.5226
X3.4024Y-2.5728
X3.4024Y-2.623
X3.4526Y-2.5226
X3.4526Y-2.5728
X3.4526Y-2.623
T2
X2.0433Y-2.5551
X2.063Y-4.6831
X2.0748Y-3.9449
X2.0846Y-3.1476
X2.0965Y-3.3327
X2.1122Y-4.0335
X2.1122Y-4.622
X2.1142Y-3.8602
X2.1142Y-4.748
X2.1161Y-5.3642
X2.1181Y-5.5138
X2.124Y-3.2205
X2.124Y-5.4409
X2.15Y-2.3
X2.2047Y-3.0315
X2.2126Y-3.1673
X2.2244Y-5.3543
X2.2244Y-2.9823
X2.2283Y-6.1988
X2.2343Y-3.7598
X2.2583Y-4.3705
X2.3079Y-4.0094
X2.3307Y-4.7362
X2.4661Y-4.2157
X2.5079Y-3.1988
X2.5315Y-5.4409
X2.5374Y-4.6831
X2.5394Y-2.2382
X2.5512Y-3.9449
X2.5846Y-2.6575
X2.628Y-4.4488
X2.628Y-5.187
X2.6378Y-2.8248
X2.6378Y-3.0709
X2.6378Y-3.6998
X2.6378Y-4.5669
X2.6378Y-5.315
X2.6575Y-3.8189
X2.6654Y-3.1398
X2.6791Y-6.2205
X2.687Y-3.8839
X2.7185Y-4.0
X2.75Y-5.7795
X2.7618Y-3.0748
X2.7657Y-4.2913
X2.7953Y-4.4488
X2.815Y-5.187
X2.8304Y-2.9689
X2.8445Y-5.8661
X2.8543Y-4.5472
X2.8543Y-4.8524
X2.8543Y-5.2854
X2.889Y-3.6998
X2.9272Y-6.1762
X2.9429Y-2.9973
X2.9505Y-2.4932
X2.9505Y-2.6113
X2.9505Y-2.6703
X2.9505Y-2.869
X2.9505Y-2.5522
X2.9724Y-3.8898
X2.9823Y-5.3839
X2.9836Y-2.4493
X2.9862Y-3.0689
X2.9921Y-3.1398
X2.9921Y-4.6358
X3.0295Y-2.3642
X3.0413Y-6.0531
X3.0709Y-2.9331
X3.1465Y-2.7697
X3.1465Y-2.8287
X3.1478Y-2.4763
X3.1671Y-2.5131
X3.1831Y-2.2008
X3.1843Y-2.3693
X3.186Y-2.4086
X3.1952Y-2.4469
X3.2087Y-2.9232
X3.2244Y-2.3307
X3.2779Y-3.9367
X3.2815Y-3.1988
X3.2854Y-4.6831
X3.2854Y-5.4409
X3.2874Y-5.187
X3.2953Y-2.9075
X3.2972Y-4.4488
X3.31Y-2.6644
X3.313Y-2.4803
X3.3268Y-3.6998
X3.376Y-5.3051
X3.3812Y-2.2763
X3.3839Y-3.8248
X3.4024Y-2.8091
X3.4055Y-4.5768
X3.4179Y-2.7657
X3.4211Y-2.3391
X3.422Y-2.8484
X3.4252Y-3.1398
X3.444Y-2.372
X3.4582Y-2.8777
X3.4658Y-2.314
X3.4705Y-2.1024
X3.4764Y-2.2362
X3.4902Y-2.5807
X3.502Y-2.9665
X3.5039Y-3.7874
X3.5276Y-3.9961
X3.5433Y-5.8661
X3.5591Y-2.7185
X3.5827Y-4.1614
X3.5866Y-2.1791
X3.6377Y-2.4735
X3.6811Y-3.1004
X3.7264Y-3.878
X3.7402Y-5.3937
X3.7402Y-6.1417
X3.75Y-4.6358
X3.7618Y-6.3819
X3.7736Y-2.9488
X3.8291Y-2.3323
X3.876Y-2.8366
X3.9075Y-2.6063
X3.9094Y-2.7126
X3.9291Y-2.3268
X3.9724Y-2.872
X3.9909Y-2.3307
X3.9921Y-2.1457
X4.0138Y-3.1988
X4.0217Y-5.437
X4.0236Y-4.6831
X4.0315Y-3.9409
X4.0325Y-6.1781
X4.0354Y-5.9154
X4.0551Y-3.6998
X4.0551Y-4.4488
X4.065Y-5.187
X4.1358Y-5.3921
X4.1634Y-3.1437
X4.1711Y-5.5016
X4.1732Y-3.0807
X4.1732Y-4.5472
X4.1747Y-2.3342
X4.2028Y-4.6555
X4.2087Y-3.9291
X4.2138Y-2.3295
X4.252Y-3.0925
X4.4783Y-4.2815
X4.4882Y-3.0315
X4.4882Y-5.748
X4.5571Y-3.1988
X4.6654Y-6.2303
X4.7126Y-4.0453
X4.7854Y-3.2067
X4.7953Y-4.3228
X4.7953Y-5.8041
X4.8425Y-3.7008
X4.8819Y-4.1929
X4.8835Y-5.7717
X4.9114Y-3.1102
X4.9409Y-3.1594
X4.9565Y-5.7966
X5.0394Y-4.2717
T4
X2.3622Y-2.3
X2.3622Y-2.4
X2.3622Y-2.5
X2.3622Y-2.6
X2.8543Y-2.0654
X2.8543Y-2.1654
X2.8543Y-2.2654
X4.5866Y-2.1654
X4.5866Y-2.7362
X4.685Y-2.1654
X4.7835Y-2.1654
X4.7835Y-2.7362
T3
G00X3.9146Y-2.0531
M15
G01X3.9146Y-2.0768
M16
G05
G00X3.9146Y-2.2079
M15
G01X3.9146Y-2.2512
M16
G05
G00X4.2547Y-2.0531
M15
G01X4.2547Y-2.0768
M16
G05
G00X4.2547Y-2.2079
M15
G01X4.2547Y-2.2512
M16
G05
T5
G00X4.4646Y-2.435
M15
G01X4.4646Y-2.4862
M16
G05
G00X4.9055Y-2.435
M15
G01X4.9055Y-2.4862
M16
G05
T0
M30
