%TF.GenerationSoftware,KiCad,Pcbnew,(5.1.10)-1*%
%TF.CreationDate,2021-09-29T22:37:26-06:00*%
%TF.ProjectId,PyKey60,50794b65-7936-4302-9e6b-696361645f70,1.1a*%
%TF.SameCoordinates,Original*%
%TF.FileFunction,Legend,Bot*%
%TF.FilePolarity,Positive*%
%FSLAX46Y46*%
G04 Gerber Fmt 4.6, Leading zero omitted, Abs format (unit mm)*
G04 Created by KiCad (PCBNEW (5.1.10)-1) date 2021-09-29 22:37:26*
%MOMM*%
%LPD*%
G01*
G04 APERTURE LIST*
%ADD10C,0.150000*%
%ADD11C,0.304800*%
%ADD12C,0.100000*%
%ADD13C,0.120000*%
%ADD14C,0.010000*%
G04 APERTURE END LIST*
D10*
X239797666Y-141201380D02*
X239797666Y-140201380D01*
X239369095Y-141201380D02*
X239369095Y-140677571D01*
X239416714Y-140582333D01*
X239511952Y-140534714D01*
X239654809Y-140534714D01*
X239750047Y-140582333D01*
X239797666Y-140629952D01*
X239035761Y-140534714D02*
X238654809Y-140534714D01*
X238892904Y-140201380D02*
X238892904Y-141058523D01*
X238845285Y-141153761D01*
X238750047Y-141201380D01*
X238654809Y-141201380D01*
X238464333Y-140534714D02*
X238083380Y-140534714D01*
X238321476Y-140201380D02*
X238321476Y-141058523D01*
X238273857Y-141153761D01*
X238178619Y-141201380D01*
X238083380Y-141201380D01*
X237750047Y-140534714D02*
X237750047Y-141534714D01*
X237750047Y-140582333D02*
X237654809Y-140534714D01*
X237464333Y-140534714D01*
X237369095Y-140582333D01*
X237321476Y-140629952D01*
X237273857Y-140725190D01*
X237273857Y-141010904D01*
X237321476Y-141106142D01*
X237369095Y-141153761D01*
X237464333Y-141201380D01*
X237654809Y-141201380D01*
X237750047Y-141153761D01*
X236892904Y-141153761D02*
X236797666Y-141201380D01*
X236607190Y-141201380D01*
X236511952Y-141153761D01*
X236464333Y-141058523D01*
X236464333Y-141010904D01*
X236511952Y-140915666D01*
X236607190Y-140868047D01*
X236750047Y-140868047D01*
X236845285Y-140820428D01*
X236892904Y-140725190D01*
X236892904Y-140677571D01*
X236845285Y-140582333D01*
X236750047Y-140534714D01*
X236607190Y-140534714D01*
X236511952Y-140582333D01*
X236035761Y-141106142D02*
X235988142Y-141153761D01*
X236035761Y-141201380D01*
X236083380Y-141153761D01*
X236035761Y-141106142D01*
X236035761Y-141201380D01*
X236035761Y-140582333D02*
X235988142Y-140629952D01*
X236035761Y-140677571D01*
X236083380Y-140629952D01*
X236035761Y-140582333D01*
X236035761Y-140677571D01*
X234845285Y-140153761D02*
X235702428Y-141439476D01*
X233797666Y-140153761D02*
X234654809Y-141439476D01*
X233035761Y-140534714D02*
X233035761Y-141344238D01*
X233083380Y-141439476D01*
X233131000Y-141487095D01*
X233226238Y-141534714D01*
X233369095Y-141534714D01*
X233464333Y-141487095D01*
X233035761Y-141153761D02*
X233131000Y-141201380D01*
X233321476Y-141201380D01*
X233416714Y-141153761D01*
X233464333Y-141106142D01*
X233511952Y-141010904D01*
X233511952Y-140725190D01*
X233464333Y-140629952D01*
X233416714Y-140582333D01*
X233321476Y-140534714D01*
X233131000Y-140534714D01*
X233035761Y-140582333D01*
X232559571Y-141201380D02*
X232559571Y-140534714D01*
X232559571Y-140201380D02*
X232607190Y-140249000D01*
X232559571Y-140296619D01*
X232511952Y-140249000D01*
X232559571Y-140201380D01*
X232559571Y-140296619D01*
X232226238Y-140534714D02*
X231845285Y-140534714D01*
X232083380Y-140201380D02*
X232083380Y-141058523D01*
X232035761Y-141153761D01*
X231940523Y-141201380D01*
X231845285Y-141201380D01*
X231511952Y-141201380D02*
X231511952Y-140201380D01*
X231083380Y-141201380D02*
X231083380Y-140677571D01*
X231131000Y-140582333D01*
X231226238Y-140534714D01*
X231369095Y-140534714D01*
X231464333Y-140582333D01*
X231511952Y-140629952D01*
X230178619Y-140534714D02*
X230178619Y-141201380D01*
X230607190Y-140534714D02*
X230607190Y-141058523D01*
X230559571Y-141153761D01*
X230464333Y-141201380D01*
X230321476Y-141201380D01*
X230226238Y-141153761D01*
X230178619Y-141106142D01*
X229702428Y-141201380D02*
X229702428Y-140201380D01*
X229702428Y-140582333D02*
X229607190Y-140534714D01*
X229416714Y-140534714D01*
X229321476Y-140582333D01*
X229273857Y-140629952D01*
X229226238Y-140725190D01*
X229226238Y-141010904D01*
X229273857Y-141106142D01*
X229321476Y-141153761D01*
X229416714Y-141201380D01*
X229607190Y-141201380D01*
X229702428Y-141153761D01*
X228797666Y-141106142D02*
X228750047Y-141153761D01*
X228797666Y-141201380D01*
X228845285Y-141153761D01*
X228797666Y-141106142D01*
X228797666Y-141201380D01*
X227892904Y-141153761D02*
X227988142Y-141201380D01*
X228178619Y-141201380D01*
X228273857Y-141153761D01*
X228321476Y-141106142D01*
X228369095Y-141010904D01*
X228369095Y-140725190D01*
X228321476Y-140629952D01*
X228273857Y-140582333D01*
X228178619Y-140534714D01*
X227988142Y-140534714D01*
X227892904Y-140582333D01*
X227321476Y-141201380D02*
X227416714Y-141153761D01*
X227464333Y-141106142D01*
X227511952Y-141010904D01*
X227511952Y-140725190D01*
X227464333Y-140629952D01*
X227416714Y-140582333D01*
X227321476Y-140534714D01*
X227178619Y-140534714D01*
X227083380Y-140582333D01*
X227035761Y-140629952D01*
X226988142Y-140725190D01*
X226988142Y-141010904D01*
X227035761Y-141106142D01*
X227083380Y-141153761D01*
X227178619Y-141201380D01*
X227321476Y-141201380D01*
X226559571Y-141201380D02*
X226559571Y-140534714D01*
X226559571Y-140629952D02*
X226511952Y-140582333D01*
X226416714Y-140534714D01*
X226273857Y-140534714D01*
X226178619Y-140582333D01*
X226131000Y-140677571D01*
X226131000Y-141201380D01*
X226131000Y-140677571D02*
X226083380Y-140582333D01*
X225988142Y-140534714D01*
X225845285Y-140534714D01*
X225750047Y-140582333D01*
X225702428Y-140677571D01*
X225702428Y-141201380D01*
X224511952Y-140153761D02*
X225369095Y-141439476D01*
X224178619Y-140534714D02*
X224178619Y-141391857D01*
X224226238Y-141487095D01*
X224321476Y-141534714D01*
X224369095Y-141534714D01*
X224178619Y-140201380D02*
X224226238Y-140249000D01*
X224178619Y-140296619D01*
X224131000Y-140249000D01*
X224178619Y-140201380D01*
X224178619Y-140296619D01*
X223702428Y-140534714D02*
X223702428Y-141534714D01*
X223702428Y-140582333D02*
X223607190Y-140534714D01*
X223416714Y-140534714D01*
X223321476Y-140582333D01*
X223273857Y-140629952D01*
X223226238Y-140725190D01*
X223226238Y-141010904D01*
X223273857Y-141106142D01*
X223321476Y-141153761D01*
X223416714Y-141201380D01*
X223607190Y-141201380D01*
X223702428Y-141153761D01*
X222369095Y-141153761D02*
X222464333Y-141201380D01*
X222654809Y-141201380D01*
X222750047Y-141153761D01*
X222797666Y-141106142D01*
X222845285Y-141010904D01*
X222845285Y-140725190D01*
X222797666Y-140629952D01*
X222750047Y-140582333D01*
X222654809Y-140534714D01*
X222464333Y-140534714D01*
X222369095Y-140582333D01*
X221797666Y-141201380D02*
X221892904Y-141153761D01*
X221940523Y-141106142D01*
X221988142Y-141010904D01*
X221988142Y-140725190D01*
X221940523Y-140629952D01*
X221892904Y-140582333D01*
X221797666Y-140534714D01*
X221654809Y-140534714D01*
X221559571Y-140582333D01*
X221511952Y-140629952D01*
X221464333Y-140725190D01*
X221464333Y-141010904D01*
X221511952Y-141106142D01*
X221559571Y-141153761D01*
X221654809Y-141201380D01*
X221797666Y-141201380D01*
X221035761Y-140534714D02*
X221035761Y-141201380D01*
X221035761Y-140629952D02*
X220988142Y-140582333D01*
X220892904Y-140534714D01*
X220750047Y-140534714D01*
X220654809Y-140582333D01*
X220607190Y-140677571D01*
X220607190Y-141201380D01*
X220178619Y-141153761D02*
X220083380Y-141201380D01*
X219892904Y-141201380D01*
X219797666Y-141153761D01*
X219750047Y-141058523D01*
X219750047Y-141010904D01*
X219797666Y-140915666D01*
X219892904Y-140868047D01*
X220035761Y-140868047D01*
X220131000Y-140820428D01*
X220178619Y-140725190D01*
X220178619Y-140677571D01*
X220131000Y-140582333D01*
X220035761Y-140534714D01*
X219892904Y-140534714D01*
X219797666Y-140582333D01*
X219464333Y-140534714D02*
X219083380Y-140534714D01*
X219321476Y-140201380D02*
X219321476Y-141058523D01*
X219273857Y-141153761D01*
X219178619Y-141201380D01*
X219083380Y-141201380D01*
X218321476Y-141201380D02*
X218321476Y-140677571D01*
X218369095Y-140582333D01*
X218464333Y-140534714D01*
X218654809Y-140534714D01*
X218750047Y-140582333D01*
X218321476Y-141153761D02*
X218416714Y-141201380D01*
X218654809Y-141201380D01*
X218750047Y-141153761D01*
X218797666Y-141058523D01*
X218797666Y-140963285D01*
X218750047Y-140868047D01*
X218654809Y-140820428D01*
X218416714Y-140820428D01*
X218321476Y-140772809D01*
X217845285Y-140534714D02*
X217845285Y-141201380D01*
X217845285Y-140629952D02*
X217797666Y-140582333D01*
X217702428Y-140534714D01*
X217559571Y-140534714D01*
X217464333Y-140582333D01*
X217416714Y-140677571D01*
X217416714Y-141201380D01*
X217083380Y-140534714D02*
X216702428Y-140534714D01*
X216940523Y-140201380D02*
X216940523Y-141058523D01*
X216892904Y-141153761D01*
X216797666Y-141201380D01*
X216702428Y-141201380D01*
X216369095Y-141201380D02*
X216369095Y-140534714D01*
X216369095Y-140201380D02*
X216416714Y-140249000D01*
X216369095Y-140296619D01*
X216321476Y-140249000D01*
X216369095Y-140201380D01*
X216369095Y-140296619D01*
X215892904Y-140534714D02*
X215892904Y-141201380D01*
X215892904Y-140629952D02*
X215845285Y-140582333D01*
X215750047Y-140534714D01*
X215607190Y-140534714D01*
X215511952Y-140582333D01*
X215464333Y-140677571D01*
X215464333Y-141201380D01*
X214607190Y-141153761D02*
X214702428Y-141201380D01*
X214892904Y-141201380D01*
X214988142Y-141153761D01*
X215035761Y-141058523D01*
X215035761Y-140677571D01*
X214988142Y-140582333D01*
X214892904Y-140534714D01*
X214702428Y-140534714D01*
X214607190Y-140582333D01*
X214559571Y-140677571D01*
X214559571Y-140772809D01*
X215035761Y-140868047D01*
X213702428Y-141201380D02*
X213702428Y-140677571D01*
X213750047Y-140582333D01*
X213845285Y-140534714D01*
X214035761Y-140534714D01*
X214131000Y-140582333D01*
X213702428Y-141153761D02*
X213797666Y-141201380D01*
X214035761Y-141201380D01*
X214131000Y-141153761D01*
X214178619Y-141058523D01*
X214178619Y-140963285D01*
X214131000Y-140868047D01*
X214035761Y-140820428D01*
X213797666Y-140820428D01*
X213702428Y-140772809D01*
X212797666Y-140534714D02*
X212797666Y-141201380D01*
X213226238Y-140534714D02*
X213226238Y-141058523D01*
X213178619Y-141153761D01*
X213083380Y-141201380D01*
X212940523Y-141201380D01*
X212845285Y-141153761D01*
X212797666Y-141106142D01*
X211607190Y-140153761D02*
X212464333Y-141439476D01*
X211273857Y-141201380D02*
X211273857Y-140201380D01*
X210892904Y-140201380D01*
X210797666Y-140249000D01*
X210750047Y-140296619D01*
X210702428Y-140391857D01*
X210702428Y-140534714D01*
X210750047Y-140629952D01*
X210797666Y-140677571D01*
X210892904Y-140725190D01*
X211273857Y-140725190D01*
X210369095Y-140534714D02*
X210131000Y-141201380D01*
X209892904Y-140534714D02*
X210131000Y-141201380D01*
X210226238Y-141439476D01*
X210273857Y-141487095D01*
X210369095Y-141534714D01*
X209511952Y-141201380D02*
X209511952Y-140201380D01*
X208940523Y-141201380D02*
X209369095Y-140629952D01*
X208940523Y-140201380D02*
X209511952Y-140772809D01*
X208131000Y-141153761D02*
X208226238Y-141201380D01*
X208416714Y-141201380D01*
X208511952Y-141153761D01*
X208559571Y-141058523D01*
X208559571Y-140677571D01*
X208511952Y-140582333D01*
X208416714Y-140534714D01*
X208226238Y-140534714D01*
X208131000Y-140582333D01*
X208083380Y-140677571D01*
X208083380Y-140772809D01*
X208559571Y-140868047D01*
X207750047Y-140534714D02*
X207511952Y-141201380D01*
X207273857Y-140534714D02*
X207511952Y-141201380D01*
X207607190Y-141439476D01*
X207654809Y-141487095D01*
X207750047Y-141534714D01*
X206464333Y-140201380D02*
X206654809Y-140201380D01*
X206750047Y-140249000D01*
X206797666Y-140296619D01*
X206892904Y-140439476D01*
X206940523Y-140629952D01*
X206940523Y-141010904D01*
X206892904Y-141106142D01*
X206845285Y-141153761D01*
X206750047Y-141201380D01*
X206559571Y-141201380D01*
X206464333Y-141153761D01*
X206416714Y-141106142D01*
X206369095Y-141010904D01*
X206369095Y-140772809D01*
X206416714Y-140677571D01*
X206464333Y-140629952D01*
X206559571Y-140582333D01*
X206750047Y-140582333D01*
X206845285Y-140629952D01*
X206892904Y-140677571D01*
X206940523Y-140772809D01*
X205750047Y-140201380D02*
X205654809Y-140201380D01*
X205559571Y-140249000D01*
X205511952Y-140296619D01*
X205464333Y-140391857D01*
X205416714Y-140582333D01*
X205416714Y-140820428D01*
X205464333Y-141010904D01*
X205511952Y-141106142D01*
X205559571Y-141153761D01*
X205654809Y-141201380D01*
X205750047Y-141201380D01*
X205845285Y-141153761D01*
X205892904Y-141106142D01*
X205940523Y-141010904D01*
X205988142Y-140820428D01*
X205988142Y-140582333D01*
X205940523Y-140391857D01*
X205892904Y-140296619D01*
X205845285Y-140249000D01*
X205750047Y-140201380D01*
D11*
X147013022Y-146061228D02*
X147013022Y-144537228D01*
X146432451Y-144537228D01*
X146287308Y-144609800D01*
X146214737Y-144682371D01*
X146142165Y-144827514D01*
X146142165Y-145045228D01*
X146214737Y-145190371D01*
X146287308Y-145262942D01*
X146432451Y-145335514D01*
X147013022Y-145335514D01*
X145634165Y-145045228D02*
X145271308Y-146061228D01*
X144908451Y-145045228D02*
X145271308Y-146061228D01*
X145416451Y-146424085D01*
X145489022Y-146496657D01*
X145634165Y-146569228D01*
X144327880Y-146061228D02*
X144327880Y-144537228D01*
X143457022Y-146061228D02*
X144110165Y-145190371D01*
X143457022Y-144537228D02*
X144327880Y-145408085D01*
X142223308Y-145988657D02*
X142368451Y-146061228D01*
X142658737Y-146061228D01*
X142803880Y-145988657D01*
X142876451Y-145843514D01*
X142876451Y-145262942D01*
X142803880Y-145117800D01*
X142658737Y-145045228D01*
X142368451Y-145045228D01*
X142223308Y-145117800D01*
X142150737Y-145262942D01*
X142150737Y-145408085D01*
X142876451Y-145553228D01*
X141642737Y-145045228D02*
X141279880Y-146061228D01*
X140917022Y-145045228D02*
X141279880Y-146061228D01*
X141425022Y-146424085D01*
X141497594Y-146496657D01*
X141642737Y-146569228D01*
X139683308Y-144537228D02*
X139973594Y-144537228D01*
X140118737Y-144609800D01*
X140191308Y-144682371D01*
X140336451Y-144900085D01*
X140409022Y-145190371D01*
X140409022Y-145770942D01*
X140336451Y-145916085D01*
X140263880Y-145988657D01*
X140118737Y-146061228D01*
X139828451Y-146061228D01*
X139683308Y-145988657D01*
X139610737Y-145916085D01*
X139538165Y-145770942D01*
X139538165Y-145408085D01*
X139610737Y-145262942D01*
X139683308Y-145190371D01*
X139828451Y-145117800D01*
X140118737Y-145117800D01*
X140263880Y-145190371D01*
X140336451Y-145262942D01*
X140409022Y-145408085D01*
X138594737Y-144537228D02*
X138449594Y-144537228D01*
X138304451Y-144609800D01*
X138231880Y-144682371D01*
X138159308Y-144827514D01*
X138086737Y-145117800D01*
X138086737Y-145480657D01*
X138159308Y-145770942D01*
X138231880Y-145916085D01*
X138304451Y-145988657D01*
X138449594Y-146061228D01*
X138594737Y-146061228D01*
X138739880Y-145988657D01*
X138812451Y-145916085D01*
X138885022Y-145770942D01*
X138957594Y-145480657D01*
X138957594Y-145117800D01*
X138885022Y-144827514D01*
X138812451Y-144682371D01*
X138739880Y-144609800D01*
X138594737Y-144537228D01*
X146359880Y-147128028D02*
X146650165Y-147128028D01*
X146795308Y-147200600D01*
X146867880Y-147273171D01*
X147013022Y-147490885D01*
X147085594Y-147781171D01*
X147085594Y-148361742D01*
X147013022Y-148506885D01*
X146940451Y-148579457D01*
X146795308Y-148652028D01*
X146505022Y-148652028D01*
X146359880Y-148579457D01*
X146287308Y-148506885D01*
X146214737Y-148361742D01*
X146214737Y-147998885D01*
X146287308Y-147853742D01*
X146359880Y-147781171D01*
X146505022Y-147708600D01*
X146795308Y-147708600D01*
X146940451Y-147781171D01*
X147013022Y-147853742D01*
X147085594Y-147998885D01*
X145271308Y-147128028D02*
X145126165Y-147128028D01*
X144981022Y-147200600D01*
X144908451Y-147273171D01*
X144835880Y-147418314D01*
X144763308Y-147708600D01*
X144763308Y-148071457D01*
X144835880Y-148361742D01*
X144908451Y-148506885D01*
X144981022Y-148579457D01*
X145126165Y-148652028D01*
X145271308Y-148652028D01*
X145416451Y-148579457D01*
X145489022Y-148506885D01*
X145561594Y-148361742D01*
X145634165Y-148071457D01*
X145634165Y-147708600D01*
X145561594Y-147418314D01*
X145489022Y-147273171D01*
X145416451Y-147200600D01*
X145271308Y-147128028D01*
X144182737Y-148652028D02*
X143021594Y-147128028D01*
X143965022Y-147128028D02*
X143819880Y-147200600D01*
X143747308Y-147345742D01*
X143819880Y-147490885D01*
X143965022Y-147563457D01*
X144110165Y-147490885D01*
X144182737Y-147345742D01*
X144110165Y-147200600D01*
X143965022Y-147128028D01*
X143094165Y-148579457D02*
X143021594Y-148434314D01*
X143094165Y-148289171D01*
X143239308Y-148216600D01*
X143384451Y-148289171D01*
X143457022Y-148434314D01*
X143384451Y-148579457D01*
X143239308Y-148652028D01*
X143094165Y-148579457D01*
X141207308Y-148652028D02*
X141207308Y-147128028D01*
X140336451Y-148652028D02*
X140989594Y-147781171D01*
X140336451Y-147128028D02*
X141207308Y-147998885D01*
X139102737Y-148579457D02*
X139247880Y-148652028D01*
X139538165Y-148652028D01*
X139683308Y-148579457D01*
X139755880Y-148434314D01*
X139755880Y-147853742D01*
X139683308Y-147708600D01*
X139538165Y-147636028D01*
X139247880Y-147636028D01*
X139102737Y-147708600D01*
X139030165Y-147853742D01*
X139030165Y-147998885D01*
X139755880Y-148144028D01*
X138522165Y-147636028D02*
X138159308Y-148652028D01*
X137796451Y-147636028D02*
X138159308Y-148652028D01*
X138304451Y-149014885D01*
X138377022Y-149087457D01*
X138522165Y-149160028D01*
X137215880Y-148652028D02*
X137215880Y-147128028D01*
X137215880Y-147708600D02*
X137070737Y-147636028D01*
X136780451Y-147636028D01*
X136635308Y-147708600D01*
X136562737Y-147781171D01*
X136490165Y-147926314D01*
X136490165Y-148361742D01*
X136562737Y-148506885D01*
X136635308Y-148579457D01*
X136780451Y-148652028D01*
X137070737Y-148652028D01*
X137215880Y-148579457D01*
X135619308Y-148652028D02*
X135764451Y-148579457D01*
X135837022Y-148506885D01*
X135909594Y-148361742D01*
X135909594Y-147926314D01*
X135837022Y-147781171D01*
X135764451Y-147708600D01*
X135619308Y-147636028D01*
X135401594Y-147636028D01*
X135256451Y-147708600D01*
X135183880Y-147781171D01*
X135111308Y-147926314D01*
X135111308Y-148361742D01*
X135183880Y-148506885D01*
X135256451Y-148579457D01*
X135401594Y-148652028D01*
X135619308Y-148652028D01*
X133805022Y-148652028D02*
X133805022Y-147853742D01*
X133877594Y-147708600D01*
X134022737Y-147636028D01*
X134313022Y-147636028D01*
X134458165Y-147708600D01*
X133805022Y-148579457D02*
X133950165Y-148652028D01*
X134313022Y-148652028D01*
X134458165Y-148579457D01*
X134530737Y-148434314D01*
X134530737Y-148289171D01*
X134458165Y-148144028D01*
X134313022Y-148071457D01*
X133950165Y-148071457D01*
X133805022Y-147998885D01*
X133079308Y-148652028D02*
X133079308Y-147636028D01*
X133079308Y-147926314D02*
X133006737Y-147781171D01*
X132934165Y-147708600D01*
X132789022Y-147636028D01*
X132643880Y-147636028D01*
X131482737Y-148652028D02*
X131482737Y-147128028D01*
X131482737Y-148579457D02*
X131627880Y-148652028D01*
X131918165Y-148652028D01*
X132063308Y-148579457D01*
X132135880Y-148506885D01*
X132208451Y-148361742D01*
X132208451Y-147926314D01*
X132135880Y-147781171D01*
X132063308Y-147708600D01*
X131918165Y-147636028D01*
X131627880Y-147636028D01*
X131482737Y-147708600D01*
X146142165Y-151242828D02*
X146650165Y-150517114D01*
X147013022Y-151242828D02*
X147013022Y-149718828D01*
X146432451Y-149718828D01*
X146287308Y-149791400D01*
X146214737Y-149863971D01*
X146142165Y-150009114D01*
X146142165Y-150226828D01*
X146214737Y-150371971D01*
X146287308Y-150444542D01*
X146432451Y-150517114D01*
X147013022Y-150517114D01*
X145489022Y-151242828D02*
X145489022Y-149718828D01*
X144908451Y-149718828D01*
X144763308Y-149791400D01*
X144690737Y-149863971D01*
X144618165Y-150009114D01*
X144618165Y-150226828D01*
X144690737Y-150371971D01*
X144763308Y-150444542D01*
X144908451Y-150517114D01*
X145489022Y-150517114D01*
X144037594Y-149863971D02*
X143965022Y-149791400D01*
X143819880Y-149718828D01*
X143457022Y-149718828D01*
X143311880Y-149791400D01*
X143239308Y-149863971D01*
X143166737Y-150009114D01*
X143166737Y-150154257D01*
X143239308Y-150371971D01*
X144110165Y-151242828D01*
X143166737Y-151242828D01*
X142223308Y-149718828D02*
X142078165Y-149718828D01*
X141933022Y-149791400D01*
X141860451Y-149863971D01*
X141787880Y-150009114D01*
X141715308Y-150299400D01*
X141715308Y-150662257D01*
X141787880Y-150952542D01*
X141860451Y-151097685D01*
X141933022Y-151170257D01*
X142078165Y-151242828D01*
X142223308Y-151242828D01*
X142368451Y-151170257D01*
X142441022Y-151097685D01*
X142513594Y-150952542D01*
X142586165Y-150662257D01*
X142586165Y-150299400D01*
X142513594Y-150009114D01*
X142441022Y-149863971D01*
X142368451Y-149791400D01*
X142223308Y-149718828D01*
X140409022Y-150226828D02*
X140409022Y-151242828D01*
X140771880Y-149646257D02*
X141134737Y-150734828D01*
X140191308Y-150734828D01*
X139320451Y-149718828D02*
X139175308Y-149718828D01*
X139030165Y-149791400D01*
X138957594Y-149863971D01*
X138885022Y-150009114D01*
X138812451Y-150299400D01*
X138812451Y-150662257D01*
X138885022Y-150952542D01*
X138957594Y-151097685D01*
X139030165Y-151170257D01*
X139175308Y-151242828D01*
X139320451Y-151242828D01*
X139465594Y-151170257D01*
X139538165Y-151097685D01*
X139610737Y-150952542D01*
X139683308Y-150662257D01*
X139683308Y-150299400D01*
X139610737Y-150009114D01*
X139538165Y-149863971D01*
X139465594Y-149791400D01*
X139320451Y-149718828D01*
X146142165Y-153833628D02*
X146650165Y-153107914D01*
X147013022Y-153833628D02*
X147013022Y-152309628D01*
X146432451Y-152309628D01*
X146287308Y-152382200D01*
X146214737Y-152454771D01*
X146142165Y-152599914D01*
X146142165Y-152817628D01*
X146214737Y-152962771D01*
X146287308Y-153035342D01*
X146432451Y-153107914D01*
X147013022Y-153107914D01*
X144835880Y-152817628D02*
X144835880Y-153833628D01*
X145489022Y-152817628D02*
X145489022Y-153615914D01*
X145416451Y-153761057D01*
X145271308Y-153833628D01*
X145053594Y-153833628D01*
X144908451Y-153761057D01*
X144835880Y-153688485D01*
X144110165Y-152817628D02*
X144110165Y-153833628D01*
X144110165Y-152962771D02*
X144037594Y-152890200D01*
X143892451Y-152817628D01*
X143674737Y-152817628D01*
X143529594Y-152890200D01*
X143457022Y-153035342D01*
X143457022Y-153833628D01*
X142803880Y-153761057D02*
X142658737Y-153833628D01*
X142368451Y-153833628D01*
X142223308Y-153761057D01*
X142150737Y-153615914D01*
X142150737Y-153543342D01*
X142223308Y-153398200D01*
X142368451Y-153325628D01*
X142586165Y-153325628D01*
X142731308Y-153253057D01*
X142803880Y-153107914D01*
X142803880Y-153035342D01*
X142731308Y-152890200D01*
X142586165Y-152817628D01*
X142368451Y-152817628D01*
X142223308Y-152890200D01*
X140336451Y-153833628D02*
X140336451Y-152309628D01*
X139755880Y-152309628D01*
X139610737Y-152382200D01*
X139538165Y-152454771D01*
X139465594Y-152599914D01*
X139465594Y-152817628D01*
X139538165Y-152962771D01*
X139610737Y-153035342D01*
X139755880Y-153107914D01*
X140336451Y-153107914D01*
X138957594Y-152817628D02*
X138594737Y-153833628D01*
X138231880Y-152817628D02*
X138594737Y-153833628D01*
X138739880Y-154196485D01*
X138812451Y-154269057D01*
X138957594Y-154341628D01*
X137869022Y-152817628D02*
X137288451Y-152817628D01*
X137651308Y-152309628D02*
X137651308Y-153615914D01*
X137578737Y-153761057D01*
X137433594Y-153833628D01*
X137288451Y-153833628D01*
X136780451Y-153833628D02*
X136780451Y-152309628D01*
X136127308Y-153833628D02*
X136127308Y-153035342D01*
X136199880Y-152890200D01*
X136345022Y-152817628D01*
X136562737Y-152817628D01*
X136707880Y-152890200D01*
X136780451Y-152962771D01*
X135183880Y-153833628D02*
X135329022Y-153761057D01*
X135401594Y-153688485D01*
X135474165Y-153543342D01*
X135474165Y-153107914D01*
X135401594Y-152962771D01*
X135329022Y-152890200D01*
X135183880Y-152817628D01*
X134966165Y-152817628D01*
X134821022Y-152890200D01*
X134748451Y-152962771D01*
X134675880Y-153107914D01*
X134675880Y-153543342D01*
X134748451Y-153688485D01*
X134821022Y-153761057D01*
X134966165Y-153833628D01*
X135183880Y-153833628D01*
X134022737Y-152817628D02*
X134022737Y-153833628D01*
X134022737Y-152962771D02*
X133950165Y-152890200D01*
X133805022Y-152817628D01*
X133587308Y-152817628D01*
X133442165Y-152890200D01*
X133369594Y-153035342D01*
X133369594Y-153833628D01*
D10*
X92932095Y-110975380D02*
X93265428Y-110499190D01*
X93503523Y-110975380D02*
X93503523Y-109975380D01*
X93122571Y-109975380D01*
X93027333Y-110023000D01*
X92979714Y-110070619D01*
X92932095Y-110165857D01*
X92932095Y-110308714D01*
X92979714Y-110403952D01*
X93027333Y-110451571D01*
X93122571Y-110499190D01*
X93503523Y-110499190D01*
X92122571Y-110927761D02*
X92217809Y-110975380D01*
X92408285Y-110975380D01*
X92503523Y-110927761D01*
X92551142Y-110832523D01*
X92551142Y-110451571D01*
X92503523Y-110356333D01*
X92408285Y-110308714D01*
X92217809Y-110308714D01*
X92122571Y-110356333D01*
X92074952Y-110451571D01*
X92074952Y-110546809D01*
X92551142Y-110642047D01*
X91694000Y-110927761D02*
X91598761Y-110975380D01*
X91408285Y-110975380D01*
X91313047Y-110927761D01*
X91265428Y-110832523D01*
X91265428Y-110784904D01*
X91313047Y-110689666D01*
X91408285Y-110642047D01*
X91551142Y-110642047D01*
X91646380Y-110594428D01*
X91694000Y-110499190D01*
X91694000Y-110451571D01*
X91646380Y-110356333D01*
X91551142Y-110308714D01*
X91408285Y-110308714D01*
X91313047Y-110356333D01*
X90455904Y-110927761D02*
X90551142Y-110975380D01*
X90741619Y-110975380D01*
X90836857Y-110927761D01*
X90884476Y-110832523D01*
X90884476Y-110451571D01*
X90836857Y-110356333D01*
X90741619Y-110308714D01*
X90551142Y-110308714D01*
X90455904Y-110356333D01*
X90408285Y-110451571D01*
X90408285Y-110546809D01*
X90884476Y-110642047D01*
X90122571Y-110308714D02*
X89741619Y-110308714D01*
X89979714Y-109975380D02*
X89979714Y-110832523D01*
X89932095Y-110927761D01*
X89836857Y-110975380D01*
X89741619Y-110975380D01*
X93892761Y-108800619D02*
X93559428Y-109276809D01*
X93321333Y-108800619D02*
X93321333Y-109800619D01*
X93702285Y-109800619D01*
X93797523Y-109753000D01*
X93845142Y-109705380D01*
X93892761Y-109610142D01*
X93892761Y-109467285D01*
X93845142Y-109372047D01*
X93797523Y-109324428D01*
X93702285Y-109276809D01*
X93321333Y-109276809D01*
X94749904Y-109467285D02*
X94749904Y-108800619D01*
X94321333Y-109467285D02*
X94321333Y-108943476D01*
X94368952Y-108848238D01*
X94464190Y-108800619D01*
X94607047Y-108800619D01*
X94702285Y-108848238D01*
X94749904Y-108895857D01*
X95226095Y-109467285D02*
X95226095Y-108800619D01*
X95226095Y-109372047D02*
X95273714Y-109419666D01*
X95368952Y-109467285D01*
X95511809Y-109467285D01*
X95607047Y-109419666D01*
X95654666Y-109324428D01*
X95654666Y-108800619D01*
D12*
X65238380Y-104887952D02*
X65952666Y-104887952D01*
X66095523Y-104840333D01*
X66190761Y-104745095D01*
X66238380Y-104602238D01*
X66238380Y-104507000D01*
X66238380Y-105840333D02*
X66238380Y-105364142D01*
X65238380Y-105364142D01*
X66143142Y-106745095D02*
X66190761Y-106697476D01*
X66238380Y-106554619D01*
X66238380Y-106459380D01*
X66190761Y-106316523D01*
X66095523Y-106221285D01*
X66000285Y-106173666D01*
X65809809Y-106126047D01*
X65666952Y-106126047D01*
X65476476Y-106173666D01*
X65381238Y-106221285D01*
X65286000Y-106316523D01*
X65238380Y-106459380D01*
X65238380Y-106554619D01*
X65286000Y-106697476D01*
X65333619Y-106745095D01*
X65238380Y-107459380D02*
X65952666Y-107459380D01*
X66095523Y-107411761D01*
X66190761Y-107316523D01*
X66238380Y-107173666D01*
X66238380Y-107078428D01*
X66238380Y-108411761D02*
X66238380Y-107935571D01*
X65238380Y-107935571D01*
X66143142Y-109316523D02*
X66190761Y-109268904D01*
X66238380Y-109126047D01*
X66238380Y-109030809D01*
X66190761Y-108887952D01*
X66095523Y-108792714D01*
X66000285Y-108745095D01*
X65809809Y-108697476D01*
X65666952Y-108697476D01*
X65476476Y-108745095D01*
X65381238Y-108792714D01*
X65286000Y-108887952D01*
X65238380Y-109030809D01*
X65238380Y-109126047D01*
X65286000Y-109268904D01*
X65333619Y-109316523D01*
X65238380Y-110030809D02*
X65952666Y-110030809D01*
X66095523Y-109983190D01*
X66190761Y-109887952D01*
X66238380Y-109745095D01*
X66238380Y-109649857D01*
X66238380Y-110983190D02*
X66238380Y-110507000D01*
X65238380Y-110507000D01*
X66143142Y-111887952D02*
X66190761Y-111840333D01*
X66238380Y-111697476D01*
X66238380Y-111602238D01*
X66190761Y-111459380D01*
X66095523Y-111364142D01*
X66000285Y-111316523D01*
X65809809Y-111268904D01*
X65666952Y-111268904D01*
X65476476Y-111316523D01*
X65381238Y-111364142D01*
X65286000Y-111459380D01*
X65238380Y-111602238D01*
X65238380Y-111697476D01*
X65286000Y-111840333D01*
X65333619Y-111887952D01*
X65238380Y-112602238D02*
X65952666Y-112602238D01*
X66095523Y-112554619D01*
X66190761Y-112459380D01*
X66238380Y-112316523D01*
X66238380Y-112221285D01*
X66238380Y-113554619D02*
X66238380Y-113078428D01*
X65238380Y-113078428D01*
X66143142Y-114459380D02*
X66190761Y-114411761D01*
X66238380Y-114268904D01*
X66238380Y-114173666D01*
X66190761Y-114030809D01*
X66095523Y-113935571D01*
X66000285Y-113887952D01*
X65809809Y-113840333D01*
X65666952Y-113840333D01*
X65476476Y-113887952D01*
X65381238Y-113935571D01*
X65286000Y-114030809D01*
X65238380Y-114173666D01*
X65238380Y-114268904D01*
X65286000Y-114411761D01*
X65333619Y-114459380D01*
D11*
X306162165Y-139743885D02*
X306234737Y-139816457D01*
X306452451Y-139889028D01*
X306597594Y-139889028D01*
X306815308Y-139816457D01*
X306960451Y-139671314D01*
X307033022Y-139526171D01*
X307105594Y-139235885D01*
X307105594Y-139018171D01*
X307033022Y-138727885D01*
X306960451Y-138582742D01*
X306815308Y-138437600D01*
X306597594Y-138365028D01*
X306452451Y-138365028D01*
X306234737Y-138437600D01*
X306162165Y-138510171D01*
X305509022Y-139090742D02*
X305001022Y-139090742D01*
X304783308Y-139889028D02*
X305509022Y-139889028D01*
X305509022Y-138365028D01*
X304783308Y-138365028D01*
X303259308Y-139889028D02*
X303767308Y-139163314D01*
X304130165Y-139889028D02*
X304130165Y-138365028D01*
X303549594Y-138365028D01*
X303404451Y-138437600D01*
X303331880Y-138510171D01*
X303259308Y-138655314D01*
X303259308Y-138873028D01*
X303331880Y-139018171D01*
X303404451Y-139090742D01*
X303549594Y-139163314D01*
X304130165Y-139163314D01*
X302606165Y-139889028D02*
X302606165Y-138365028D01*
X301735308Y-139889028D01*
X301735308Y-138365028D01*
X301009594Y-139308457D02*
X299848451Y-139308457D01*
X298832451Y-138365028D02*
X298542165Y-138365028D01*
X298397022Y-138437600D01*
X298251880Y-138582742D01*
X298179308Y-138873028D01*
X298179308Y-139381028D01*
X298251880Y-139671314D01*
X298397022Y-139816457D01*
X298542165Y-139889028D01*
X298832451Y-139889028D01*
X298977594Y-139816457D01*
X299122737Y-139671314D01*
X299195308Y-139381028D01*
X299195308Y-138873028D01*
X299122737Y-138582742D01*
X298977594Y-138437600D01*
X298832451Y-138365028D01*
X297526165Y-139889028D02*
X297526165Y-138365028D01*
X297526165Y-139090742D02*
X296655308Y-139090742D01*
X296655308Y-139889028D02*
X296655308Y-138365028D01*
X295203880Y-139889028D02*
X295929594Y-139889028D01*
X295929594Y-138365028D01*
X294695880Y-139308457D02*
X293534737Y-139308457D01*
X292954165Y-138365028D02*
X292591308Y-139889028D01*
X292301022Y-138800457D01*
X292010737Y-139889028D01*
X291647880Y-138365028D01*
X307105594Y-141100971D02*
X307033022Y-141028400D01*
X306887880Y-140955828D01*
X306525022Y-140955828D01*
X306379880Y-141028400D01*
X306307308Y-141100971D01*
X306234737Y-141246114D01*
X306234737Y-141391257D01*
X306307308Y-141608971D01*
X307178165Y-142479828D01*
X306234737Y-142479828D01*
X305291308Y-140955828D02*
X305146165Y-140955828D01*
X305001022Y-141028400D01*
X304928451Y-141100971D01*
X304855880Y-141246114D01*
X304783308Y-141536400D01*
X304783308Y-141899257D01*
X304855880Y-142189542D01*
X304928451Y-142334685D01*
X305001022Y-142407257D01*
X305146165Y-142479828D01*
X305291308Y-142479828D01*
X305436451Y-142407257D01*
X305509022Y-142334685D01*
X305581594Y-142189542D01*
X305654165Y-141899257D01*
X305654165Y-141536400D01*
X305581594Y-141246114D01*
X305509022Y-141100971D01*
X305436451Y-141028400D01*
X305291308Y-140955828D01*
X304202737Y-141100971D02*
X304130165Y-141028400D01*
X303985022Y-140955828D01*
X303622165Y-140955828D01*
X303477022Y-141028400D01*
X303404451Y-141100971D01*
X303331880Y-141246114D01*
X303331880Y-141391257D01*
X303404451Y-141608971D01*
X304275308Y-142479828D01*
X303331880Y-142479828D01*
X301880451Y-142479828D02*
X302751308Y-142479828D01*
X302315880Y-142479828D02*
X302315880Y-140955828D01*
X302461022Y-141173542D01*
X302606165Y-141318685D01*
X302751308Y-141391257D01*
X301227308Y-141899257D02*
X300066165Y-141899257D01*
X299050165Y-140955828D02*
X298905022Y-140955828D01*
X298759880Y-141028400D01*
X298687308Y-141100971D01*
X298614737Y-141246114D01*
X298542165Y-141536400D01*
X298542165Y-141899257D01*
X298614737Y-142189542D01*
X298687308Y-142334685D01*
X298759880Y-142407257D01*
X298905022Y-142479828D01*
X299050165Y-142479828D01*
X299195308Y-142407257D01*
X299267880Y-142334685D01*
X299340451Y-142189542D01*
X299413022Y-141899257D01*
X299413022Y-141536400D01*
X299340451Y-141246114D01*
X299267880Y-141100971D01*
X299195308Y-141028400D01*
X299050165Y-140955828D01*
X297816451Y-142479828D02*
X297526165Y-142479828D01*
X297381022Y-142407257D01*
X297308451Y-142334685D01*
X297163308Y-142116971D01*
X297090737Y-141826685D01*
X297090737Y-141246114D01*
X297163308Y-141100971D01*
X297235880Y-141028400D01*
X297381022Y-140955828D01*
X297671308Y-140955828D01*
X297816451Y-141028400D01*
X297889022Y-141100971D01*
X297961594Y-141246114D01*
X297961594Y-141608971D01*
X297889022Y-141754114D01*
X297816451Y-141826685D01*
X297671308Y-141899257D01*
X297381022Y-141899257D01*
X297235880Y-141826685D01*
X297163308Y-141754114D01*
X297090737Y-141608971D01*
X296437594Y-141899257D02*
X295276451Y-141899257D01*
X294623308Y-141100971D02*
X294550737Y-141028400D01*
X294405594Y-140955828D01*
X294042737Y-140955828D01*
X293897594Y-141028400D01*
X293825022Y-141100971D01*
X293752451Y-141246114D01*
X293752451Y-141391257D01*
X293825022Y-141608971D01*
X294695880Y-142479828D01*
X293752451Y-142479828D01*
X293026737Y-142479828D02*
X292736451Y-142479828D01*
X292591308Y-142407257D01*
X292518737Y-142334685D01*
X292373594Y-142116971D01*
X292301022Y-141826685D01*
X292301022Y-141246114D01*
X292373594Y-141100971D01*
X292446165Y-141028400D01*
X292591308Y-140955828D01*
X292881594Y-140955828D01*
X293026737Y-141028400D01*
X293099308Y-141100971D01*
X293171880Y-141246114D01*
X293171880Y-141608971D01*
X293099308Y-141754114D01*
X293026737Y-141826685D01*
X292881594Y-141899257D01*
X292591308Y-141899257D01*
X292446165Y-141826685D01*
X292373594Y-141754114D01*
X292301022Y-141608971D01*
X290486737Y-141899257D02*
X289325594Y-141899257D01*
X287438737Y-142479828D02*
X287438737Y-140955828D01*
X286858165Y-140955828D01*
X286713022Y-141028400D01*
X286640451Y-141100971D01*
X286567880Y-141246114D01*
X286567880Y-141463828D01*
X286640451Y-141608971D01*
X286713022Y-141681542D01*
X286858165Y-141754114D01*
X287438737Y-141754114D01*
X285914737Y-142479828D02*
X285914737Y-141463828D01*
X285914737Y-140955828D02*
X285987308Y-141028400D01*
X285914737Y-141100971D01*
X285842165Y-141028400D01*
X285914737Y-140955828D01*
X285914737Y-141100971D01*
X284608451Y-142407257D02*
X284753594Y-142479828D01*
X285043880Y-142479828D01*
X285189022Y-142407257D01*
X285261594Y-142262114D01*
X285261594Y-141681542D01*
X285189022Y-141536400D01*
X285043880Y-141463828D01*
X284753594Y-141463828D01*
X284608451Y-141536400D01*
X284535880Y-141681542D01*
X284535880Y-141826685D01*
X285261594Y-141971828D01*
X283882737Y-142479828D02*
X283882737Y-141463828D01*
X283882737Y-141754114D02*
X283810165Y-141608971D01*
X283737594Y-141536400D01*
X283592451Y-141463828D01*
X283447308Y-141463828D01*
X282939308Y-142479828D02*
X282939308Y-141463828D01*
X282939308Y-141754114D02*
X282866737Y-141608971D01*
X282794165Y-141536400D01*
X282649022Y-141463828D01*
X282503880Y-141463828D01*
X281415308Y-142407257D02*
X281560451Y-142479828D01*
X281850737Y-142479828D01*
X281995880Y-142407257D01*
X282068451Y-142262114D01*
X282068451Y-141681542D01*
X281995880Y-141536400D01*
X281850737Y-141463828D01*
X281560451Y-141463828D01*
X281415308Y-141536400D01*
X281342737Y-141681542D01*
X281342737Y-141826685D01*
X282068451Y-141971828D01*
X278657594Y-142334685D02*
X278730165Y-142407257D01*
X278947880Y-142479828D01*
X279093022Y-142479828D01*
X279310737Y-142407257D01*
X279455880Y-142262114D01*
X279528451Y-142116971D01*
X279601022Y-141826685D01*
X279601022Y-141608971D01*
X279528451Y-141318685D01*
X279455880Y-141173542D01*
X279310737Y-141028400D01*
X279093022Y-140955828D01*
X278947880Y-140955828D01*
X278730165Y-141028400D01*
X278657594Y-141100971D01*
X277786737Y-142479828D02*
X277931880Y-142407257D01*
X278004451Y-142334685D01*
X278077022Y-142189542D01*
X278077022Y-141754114D01*
X278004451Y-141608971D01*
X277931880Y-141536400D01*
X277786737Y-141463828D01*
X277569022Y-141463828D01*
X277423880Y-141536400D01*
X277351308Y-141608971D01*
X277278737Y-141754114D01*
X277278737Y-142189542D01*
X277351308Y-142334685D01*
X277423880Y-142407257D01*
X277569022Y-142479828D01*
X277786737Y-142479828D01*
X276625594Y-141463828D02*
X276625594Y-142479828D01*
X276625594Y-141608971D02*
X276553022Y-141536400D01*
X276407880Y-141463828D01*
X276190165Y-141463828D01*
X276045022Y-141536400D01*
X275972451Y-141681542D01*
X275972451Y-142479828D01*
X275319308Y-142407257D02*
X275174165Y-142479828D01*
X274883880Y-142479828D01*
X274738737Y-142407257D01*
X274666165Y-142262114D01*
X274666165Y-142189542D01*
X274738737Y-142044400D01*
X274883880Y-141971828D01*
X275101594Y-141971828D01*
X275246737Y-141899257D01*
X275319308Y-141754114D01*
X275319308Y-141681542D01*
X275246737Y-141536400D01*
X275101594Y-141463828D01*
X274883880Y-141463828D01*
X274738737Y-141536400D01*
X274230737Y-141463828D02*
X273650165Y-141463828D01*
X274013022Y-140955828D02*
X274013022Y-142262114D01*
X273940451Y-142407257D01*
X273795308Y-142479828D01*
X273650165Y-142479828D01*
X272489022Y-142479828D02*
X272489022Y-141681542D01*
X272561594Y-141536400D01*
X272706737Y-141463828D01*
X272997022Y-141463828D01*
X273142165Y-141536400D01*
X272489022Y-142407257D02*
X272634165Y-142479828D01*
X272997022Y-142479828D01*
X273142165Y-142407257D01*
X273214737Y-142262114D01*
X273214737Y-142116971D01*
X273142165Y-141971828D01*
X272997022Y-141899257D01*
X272634165Y-141899257D01*
X272489022Y-141826685D01*
X271763308Y-141463828D02*
X271763308Y-142479828D01*
X271763308Y-141608971D02*
X271690737Y-141536400D01*
X271545594Y-141463828D01*
X271327880Y-141463828D01*
X271182737Y-141536400D01*
X271110165Y-141681542D01*
X271110165Y-142479828D01*
X270602165Y-141463828D02*
X270021594Y-141463828D01*
X270384451Y-140955828D02*
X270384451Y-142262114D01*
X270311880Y-142407257D01*
X270166737Y-142479828D01*
X270021594Y-142479828D01*
X269513594Y-142479828D02*
X269513594Y-141463828D01*
X269513594Y-140955828D02*
X269586165Y-141028400D01*
X269513594Y-141100971D01*
X269441022Y-141028400D01*
X269513594Y-140955828D01*
X269513594Y-141100971D01*
X268787880Y-141463828D02*
X268787880Y-142479828D01*
X268787880Y-141608971D02*
X268715308Y-141536400D01*
X268570165Y-141463828D01*
X268352451Y-141463828D01*
X268207308Y-141536400D01*
X268134737Y-141681542D01*
X268134737Y-142479828D01*
X266828451Y-142407257D02*
X266973594Y-142479828D01*
X267263880Y-142479828D01*
X267409022Y-142407257D01*
X267481594Y-142262114D01*
X267481594Y-141681542D01*
X267409022Y-141536400D01*
X267263880Y-141463828D01*
X266973594Y-141463828D01*
X266828451Y-141536400D01*
X266755880Y-141681542D01*
X266755880Y-141826685D01*
X267481594Y-141971828D01*
X265449594Y-142479828D02*
X265449594Y-141681542D01*
X265522165Y-141536400D01*
X265667308Y-141463828D01*
X265957594Y-141463828D01*
X266102737Y-141536400D01*
X265449594Y-142407257D02*
X265594737Y-142479828D01*
X265957594Y-142479828D01*
X266102737Y-142407257D01*
X266175308Y-142262114D01*
X266175308Y-142116971D01*
X266102737Y-141971828D01*
X265957594Y-141899257D01*
X265594737Y-141899257D01*
X265449594Y-141826685D01*
X264070737Y-141463828D02*
X264070737Y-142479828D01*
X264723880Y-141463828D02*
X264723880Y-142262114D01*
X264651308Y-142407257D01*
X264506165Y-142479828D01*
X264288451Y-142479828D01*
X264143308Y-142407257D01*
X264070737Y-142334685D01*
X217605428Y-152614428D02*
X217605428Y-151090428D01*
X216952285Y-151235571D02*
X216879714Y-151163000D01*
X216734571Y-151090428D01*
X216371714Y-151090428D01*
X216226571Y-151163000D01*
X216154000Y-151235571D01*
X216081428Y-151380714D01*
X216081428Y-151525857D01*
X216154000Y-151743571D01*
X217024857Y-152614428D01*
X216081428Y-152614428D01*
X214557428Y-152469285D02*
X214630000Y-152541857D01*
X214847714Y-152614428D01*
X214992857Y-152614428D01*
X215210571Y-152541857D01*
X215355714Y-152396714D01*
X215428285Y-152251571D01*
X215500857Y-151961285D01*
X215500857Y-151743571D01*
X215428285Y-151453285D01*
X215355714Y-151308142D01*
X215210571Y-151163000D01*
X214992857Y-151090428D01*
X214847714Y-151090428D01*
X214630000Y-151163000D01*
X214557428Y-151235571D01*
X213106000Y-152614428D02*
X213976857Y-152614428D01*
X213541428Y-152614428D02*
X213541428Y-151090428D01*
X213686571Y-151308142D01*
X213831714Y-151453285D01*
X213976857Y-151525857D01*
X215138000Y-144921857D02*
X214920285Y-144994428D01*
X214557428Y-144994428D01*
X214412285Y-144921857D01*
X214339714Y-144849285D01*
X214267142Y-144704142D01*
X214267142Y-144559000D01*
X214339714Y-144413857D01*
X214412285Y-144341285D01*
X214557428Y-144268714D01*
X214847714Y-144196142D01*
X214992857Y-144123571D01*
X215065428Y-144051000D01*
X215138000Y-143905857D01*
X215138000Y-143760714D01*
X215065428Y-143615571D01*
X214992857Y-143543000D01*
X214847714Y-143470428D01*
X214484857Y-143470428D01*
X214267142Y-143543000D01*
X213614000Y-144994428D02*
X213614000Y-143470428D01*
X213033428Y-143470428D01*
X212888285Y-143543000D01*
X212815714Y-143615571D01*
X212743142Y-143760714D01*
X212743142Y-143978428D01*
X212815714Y-144123571D01*
X212888285Y-144196142D01*
X213033428Y-144268714D01*
X213614000Y-144268714D01*
X212090000Y-144994428D02*
X212090000Y-143470428D01*
X210566000Y-144994428D02*
X211436857Y-144994428D01*
X211001428Y-144994428D02*
X211001428Y-143470428D01*
X211146571Y-143688142D01*
X211291714Y-143833285D01*
X211436857Y-143905857D01*
D10*
X221185333Y-145710000D02*
X221280571Y-145662380D01*
X221423428Y-145662380D01*
X221566285Y-145710000D01*
X221661523Y-145805238D01*
X221709142Y-145900476D01*
X221756761Y-146090952D01*
X221756761Y-146233809D01*
X221709142Y-146424285D01*
X221661523Y-146519523D01*
X221566285Y-146614761D01*
X221423428Y-146662380D01*
X221328190Y-146662380D01*
X221185333Y-146614761D01*
X221137714Y-146567142D01*
X221137714Y-146233809D01*
X221328190Y-146233809D01*
X220709142Y-146662380D02*
X220709142Y-145662380D01*
X220137714Y-146662380D01*
X220137714Y-145662380D01*
X219661523Y-146662380D02*
X219661523Y-145662380D01*
X219423428Y-145662380D01*
X219280571Y-145710000D01*
X219185333Y-145805238D01*
X219137714Y-145900476D01*
X219090095Y-146090952D01*
X219090095Y-146233809D01*
X219137714Y-146424285D01*
X219185333Y-146519523D01*
X219280571Y-146614761D01*
X219423428Y-146662380D01*
X219661523Y-146662380D01*
X217994857Y-145662380D02*
X217375809Y-145662380D01*
X217709142Y-146043333D01*
X217566285Y-146043333D01*
X217471047Y-146090952D01*
X217423428Y-146138571D01*
X217375809Y-146233809D01*
X217375809Y-146471904D01*
X217423428Y-146567142D01*
X217471047Y-146614761D01*
X217566285Y-146662380D01*
X217852000Y-146662380D01*
X217947238Y-146614761D01*
X217994857Y-146567142D01*
X217090095Y-145662380D02*
X216756761Y-146662380D01*
X216423428Y-145662380D01*
X216185333Y-145662380D02*
X215566285Y-145662380D01*
X215899619Y-146043333D01*
X215756761Y-146043333D01*
X215661523Y-146090952D01*
X215613904Y-146138571D01*
X215566285Y-146233809D01*
X215566285Y-146471904D01*
X215613904Y-146567142D01*
X215661523Y-146614761D01*
X215756761Y-146662380D01*
X216042476Y-146662380D01*
X216137714Y-146614761D01*
X216185333Y-146567142D01*
X214423428Y-146614761D02*
X214280571Y-146662380D01*
X214042476Y-146662380D01*
X213947238Y-146614761D01*
X213899619Y-146567142D01*
X213852000Y-146471904D01*
X213852000Y-146376666D01*
X213899619Y-146281428D01*
X213947238Y-146233809D01*
X214042476Y-146186190D01*
X214232952Y-146138571D01*
X214328190Y-146090952D01*
X214375809Y-146043333D01*
X214423428Y-145948095D01*
X214423428Y-145852857D01*
X214375809Y-145757619D01*
X214328190Y-145710000D01*
X214232952Y-145662380D01*
X213994857Y-145662380D01*
X213852000Y-145710000D01*
X212852000Y-146567142D02*
X212899619Y-146614761D01*
X213042476Y-146662380D01*
X213137714Y-146662380D01*
X213280571Y-146614761D01*
X213375809Y-146519523D01*
X213423428Y-146424285D01*
X213471047Y-146233809D01*
X213471047Y-146090952D01*
X213423428Y-145900476D01*
X213375809Y-145805238D01*
X213280571Y-145710000D01*
X213137714Y-145662380D01*
X213042476Y-145662380D01*
X212899619Y-145710000D01*
X212852000Y-145757619D01*
X212423428Y-146662380D02*
X212423428Y-145662380D01*
X211852000Y-146662380D02*
X212280571Y-146090952D01*
X211852000Y-145662380D02*
X212423428Y-146233809D01*
X210804380Y-145662380D02*
X210232952Y-145662380D01*
X210518666Y-146662380D02*
X210518666Y-145662380D01*
X209994857Y-145662380D02*
X209328190Y-146662380D01*
X209328190Y-145662380D02*
X209994857Y-146662380D01*
X207613904Y-146662380D02*
X207947238Y-146186190D01*
X208185333Y-146662380D02*
X208185333Y-145662380D01*
X207804380Y-145662380D01*
X207709142Y-145710000D01*
X207661523Y-145757619D01*
X207613904Y-145852857D01*
X207613904Y-145995714D01*
X207661523Y-146090952D01*
X207709142Y-146138571D01*
X207804380Y-146186190D01*
X208185333Y-146186190D01*
X207280571Y-145662380D02*
X206613904Y-146662380D01*
X206613904Y-145662380D02*
X207280571Y-146662380D01*
X204899619Y-146567142D02*
X204947238Y-146614761D01*
X205090095Y-146662380D01*
X205185333Y-146662380D01*
X205328190Y-146614761D01*
X205423428Y-146519523D01*
X205471047Y-146424285D01*
X205518666Y-146233809D01*
X205518666Y-146090952D01*
X205471047Y-145900476D01*
X205423428Y-145805238D01*
X205328190Y-145710000D01*
X205185333Y-145662380D01*
X205090095Y-145662380D01*
X204947238Y-145710000D01*
X204899619Y-145757619D01*
X204518666Y-146614761D02*
X204375809Y-146662380D01*
X204137714Y-146662380D01*
X204042476Y-146614761D01*
X203994857Y-146567142D01*
X203947238Y-146471904D01*
X203947238Y-146376666D01*
X203994857Y-146281428D01*
X204042476Y-146233809D01*
X204137714Y-146186190D01*
X204328190Y-146138571D01*
X204423428Y-146090952D01*
X204471047Y-146043333D01*
X204518666Y-145948095D01*
X204518666Y-145852857D01*
X204471047Y-145757619D01*
X204423428Y-145710000D01*
X204328190Y-145662380D01*
X204090095Y-145662380D01*
X203947238Y-145710000D01*
X221336428Y-153457000D02*
X221431666Y-153409380D01*
X221574523Y-153409380D01*
X221717380Y-153457000D01*
X221812619Y-153552238D01*
X221860238Y-153647476D01*
X221907857Y-153837952D01*
X221907857Y-153980809D01*
X221860238Y-154171285D01*
X221812619Y-154266523D01*
X221717380Y-154361761D01*
X221574523Y-154409380D01*
X221479285Y-154409380D01*
X221336428Y-154361761D01*
X221288809Y-154314142D01*
X221288809Y-153980809D01*
X221479285Y-153980809D01*
X220860238Y-154409380D02*
X220860238Y-153409380D01*
X220288809Y-154409380D01*
X220288809Y-153409380D01*
X219812619Y-154409380D02*
X219812619Y-153409380D01*
X219574523Y-153409380D01*
X219431666Y-153457000D01*
X219336428Y-153552238D01*
X219288809Y-153647476D01*
X219241190Y-153837952D01*
X219241190Y-153980809D01*
X219288809Y-154171285D01*
X219336428Y-154266523D01*
X219431666Y-154361761D01*
X219574523Y-154409380D01*
X219812619Y-154409380D01*
X218145952Y-153409380D02*
X217526904Y-153409380D01*
X217860238Y-153790333D01*
X217717380Y-153790333D01*
X217622142Y-153837952D01*
X217574523Y-153885571D01*
X217526904Y-153980809D01*
X217526904Y-154218904D01*
X217574523Y-154314142D01*
X217622142Y-154361761D01*
X217717380Y-154409380D01*
X218003095Y-154409380D01*
X218098333Y-154361761D01*
X218145952Y-154314142D01*
X217241190Y-153409380D02*
X216907857Y-154409380D01*
X216574523Y-153409380D01*
X216336428Y-153409380D02*
X215717380Y-153409380D01*
X216050714Y-153790333D01*
X215907857Y-153790333D01*
X215812619Y-153837952D01*
X215765000Y-153885571D01*
X215717380Y-153980809D01*
X215717380Y-154218904D01*
X215765000Y-154314142D01*
X215812619Y-154361761D01*
X215907857Y-154409380D01*
X216193571Y-154409380D01*
X216288809Y-154361761D01*
X216336428Y-154314142D01*
X214574523Y-154361761D02*
X214431666Y-154409380D01*
X214193571Y-154409380D01*
X214098333Y-154361761D01*
X214050714Y-154314142D01*
X214003095Y-154218904D01*
X214003095Y-154123666D01*
X214050714Y-154028428D01*
X214098333Y-153980809D01*
X214193571Y-153933190D01*
X214384047Y-153885571D01*
X214479285Y-153837952D01*
X214526904Y-153790333D01*
X214574523Y-153695095D01*
X214574523Y-153599857D01*
X214526904Y-153504619D01*
X214479285Y-153457000D01*
X214384047Y-153409380D01*
X214145952Y-153409380D01*
X214003095Y-153457000D01*
X213574523Y-154409380D02*
X213574523Y-153409380D01*
X213336428Y-153409380D01*
X213193571Y-153457000D01*
X213098333Y-153552238D01*
X213050714Y-153647476D01*
X213003095Y-153837952D01*
X213003095Y-153980809D01*
X213050714Y-154171285D01*
X213098333Y-154266523D01*
X213193571Y-154361761D01*
X213336428Y-154409380D01*
X213574523Y-154409380D01*
X212622142Y-154123666D02*
X212145952Y-154123666D01*
X212717380Y-154409380D02*
X212384047Y-153409380D01*
X212050714Y-154409380D01*
X211003095Y-154361761D02*
X210860238Y-154409380D01*
X210622142Y-154409380D01*
X210526904Y-154361761D01*
X210479285Y-154314142D01*
X210431666Y-154218904D01*
X210431666Y-154123666D01*
X210479285Y-154028428D01*
X210526904Y-153980809D01*
X210622142Y-153933190D01*
X210812619Y-153885571D01*
X210907857Y-153837952D01*
X210955476Y-153790333D01*
X211003095Y-153695095D01*
X211003095Y-153599857D01*
X210955476Y-153504619D01*
X210907857Y-153457000D01*
X210812619Y-153409380D01*
X210574523Y-153409380D01*
X210431666Y-153457000D01*
X209431666Y-154314142D02*
X209479285Y-154361761D01*
X209622142Y-154409380D01*
X209717380Y-154409380D01*
X209860238Y-154361761D01*
X209955476Y-154266523D01*
X210003095Y-154171285D01*
X210050714Y-153980809D01*
X210050714Y-153837952D01*
X210003095Y-153647476D01*
X209955476Y-153552238D01*
X209860238Y-153457000D01*
X209717380Y-153409380D01*
X209622142Y-153409380D01*
X209479285Y-153457000D01*
X209431666Y-153504619D01*
X208526904Y-154409380D02*
X209003095Y-154409380D01*
X209003095Y-153409380D01*
X90781047Y-109308571D02*
X90638190Y-109356190D01*
X90590571Y-109403809D01*
X90542952Y-109499047D01*
X90542952Y-109641904D01*
X90590571Y-109737142D01*
X90638190Y-109784761D01*
X90733428Y-109832380D01*
X91114380Y-109832380D01*
X91114380Y-108832380D01*
X90781047Y-108832380D01*
X90685809Y-108880000D01*
X90638190Y-108927619D01*
X90590571Y-109022857D01*
X90590571Y-109118095D01*
X90638190Y-109213333D01*
X90685809Y-109260952D01*
X90781047Y-109308571D01*
X91114380Y-109308571D01*
X89971523Y-109832380D02*
X90066761Y-109784761D01*
X90114380Y-109737142D01*
X90162000Y-109641904D01*
X90162000Y-109356190D01*
X90114380Y-109260952D01*
X90066761Y-109213333D01*
X89971523Y-109165714D01*
X89828666Y-109165714D01*
X89733428Y-109213333D01*
X89685809Y-109260952D01*
X89638190Y-109356190D01*
X89638190Y-109641904D01*
X89685809Y-109737142D01*
X89733428Y-109784761D01*
X89828666Y-109832380D01*
X89971523Y-109832380D01*
X89066761Y-109832380D02*
X89162000Y-109784761D01*
X89209619Y-109737142D01*
X89257238Y-109641904D01*
X89257238Y-109356190D01*
X89209619Y-109260952D01*
X89162000Y-109213333D01*
X89066761Y-109165714D01*
X88923904Y-109165714D01*
X88828666Y-109213333D01*
X88781047Y-109260952D01*
X88733428Y-109356190D01*
X88733428Y-109641904D01*
X88781047Y-109737142D01*
X88828666Y-109784761D01*
X88923904Y-109832380D01*
X89066761Y-109832380D01*
X88447714Y-109165714D02*
X88066761Y-109165714D01*
X88304857Y-108832380D02*
X88304857Y-109689523D01*
X88257238Y-109784761D01*
X88162000Y-109832380D01*
X88066761Y-109832380D01*
X182863571Y-154314142D02*
X182911190Y-154361761D01*
X183054047Y-154409380D01*
X183149285Y-154409380D01*
X183292142Y-154361761D01*
X183387380Y-154266523D01*
X183435000Y-154171285D01*
X183482619Y-153980809D01*
X183482619Y-153837952D01*
X183435000Y-153647476D01*
X183387380Y-153552238D01*
X183292142Y-153457000D01*
X183149285Y-153409380D01*
X183054047Y-153409380D01*
X182911190Y-153457000D01*
X182863571Y-153504619D01*
X181958809Y-154409380D02*
X182435000Y-154409380D01*
X182435000Y-153409380D01*
X181625476Y-154409380D02*
X181625476Y-153409380D01*
X181054047Y-154409380D02*
X181482619Y-153837952D01*
X181054047Y-153409380D02*
X181625476Y-153980809D01*
X179339761Y-153457000D02*
X179435000Y-153409380D01*
X179577857Y-153409380D01*
X179720714Y-153457000D01*
X179815952Y-153552238D01*
X179863571Y-153647476D01*
X179911190Y-153837952D01*
X179911190Y-153980809D01*
X179863571Y-154171285D01*
X179815952Y-154266523D01*
X179720714Y-154361761D01*
X179577857Y-154409380D01*
X179482619Y-154409380D01*
X179339761Y-154361761D01*
X179292142Y-154314142D01*
X179292142Y-153980809D01*
X179482619Y-153980809D01*
X178863571Y-154409380D02*
X178863571Y-153409380D01*
X178292142Y-154409380D01*
X178292142Y-153409380D01*
X177815952Y-154409380D02*
X177815952Y-153409380D01*
X177577857Y-153409380D01*
X177435000Y-153457000D01*
X177339761Y-153552238D01*
X177292142Y-153647476D01*
X177244523Y-153837952D01*
X177244523Y-153980809D01*
X177292142Y-154171285D01*
X177339761Y-154266523D01*
X177435000Y-154361761D01*
X177577857Y-154409380D01*
X177815952Y-154409380D01*
X176101666Y-154361761D02*
X175958809Y-154409380D01*
X175720714Y-154409380D01*
X175625476Y-154361761D01*
X175577857Y-154314142D01*
X175530238Y-154218904D01*
X175530238Y-154123666D01*
X175577857Y-154028428D01*
X175625476Y-153980809D01*
X175720714Y-153933190D01*
X175911190Y-153885571D01*
X176006428Y-153837952D01*
X176054047Y-153790333D01*
X176101666Y-153695095D01*
X176101666Y-153599857D01*
X176054047Y-153504619D01*
X176006428Y-153457000D01*
X175911190Y-153409380D01*
X175673095Y-153409380D01*
X175530238Y-153457000D01*
X175196904Y-153409380D02*
X174958809Y-154409380D01*
X174768333Y-153695095D01*
X174577857Y-154409380D01*
X174339761Y-153409380D01*
X173958809Y-154409380D02*
X173958809Y-153409380D01*
X173720714Y-153409380D01*
X173577857Y-153457000D01*
X173482619Y-153552238D01*
X173435000Y-153647476D01*
X173387380Y-153837952D01*
X173387380Y-153980809D01*
X173435000Y-154171285D01*
X173482619Y-154266523D01*
X173577857Y-154361761D01*
X173720714Y-154409380D01*
X173958809Y-154409380D01*
D13*
%TO.C,C77*%
X79261580Y-89693000D02*
X78980420Y-89693000D01*
X79261580Y-90713000D02*
X78980420Y-90713000D01*
%TO.C,C76*%
X236500580Y-89693000D02*
X236219420Y-89693000D01*
X236500580Y-90713000D02*
X236219420Y-90713000D01*
%TO.C,C75*%
X255550580Y-89693000D02*
X255269420Y-89693000D01*
X255550580Y-90713000D02*
X255269420Y-90713000D01*
%TO.C,C74*%
X265049580Y-70643000D02*
X264768420Y-70643000D01*
X265049580Y-71663000D02*
X264768420Y-71663000D01*
%TO.C,C73*%
X203226580Y-108743000D02*
X202945420Y-108743000D01*
X203226580Y-109763000D02*
X202945420Y-109763000D01*
%TO.C,C72*%
X245999580Y-70643000D02*
X245718420Y-70643000D01*
X245999580Y-71663000D02*
X245718420Y-71663000D01*
%TO.C,C71*%
X331724580Y-70770000D02*
X331443420Y-70770000D01*
X331724580Y-71790000D02*
X331443420Y-71790000D01*
%TO.C,C70*%
X217577580Y-89693000D02*
X217296420Y-89693000D01*
X217577580Y-90713000D02*
X217296420Y-90713000D01*
%TO.C,C69*%
X284099580Y-70643000D02*
X283818420Y-70643000D01*
X284099580Y-71663000D02*
X283818420Y-71663000D01*
%TO.C,C68*%
X198400580Y-89693000D02*
X198119420Y-89693000D01*
X198400580Y-90713000D02*
X198119420Y-90713000D01*
%TO.C,C67*%
X184176580Y-108743000D02*
X183895420Y-108743000D01*
X184176580Y-109763000D02*
X183895420Y-109763000D01*
%TO.C,C66*%
X222149580Y-108743000D02*
X221868420Y-108743000D01*
X222149580Y-109763000D02*
X221868420Y-109763000D01*
%TO.C,C65*%
X226975580Y-70643000D02*
X226694420Y-70643000D01*
X226975580Y-71663000D02*
X226694420Y-71663000D01*
%TO.C,C64*%
X303149580Y-70770000D02*
X302868420Y-70770000D01*
X303149580Y-71790000D02*
X302868420Y-71790000D01*
%TO.C,C63*%
X160300580Y-89693000D02*
X160019420Y-89693000D01*
X160300580Y-90713000D02*
X160019420Y-90713000D01*
%TO.C,C62*%
X112649580Y-70643000D02*
X112368420Y-70643000D01*
X112649580Y-71663000D02*
X112368420Y-71663000D01*
%TO.C,C61*%
X145949580Y-108743000D02*
X145668420Y-108743000D01*
X145949580Y-109763000D02*
X145668420Y-109763000D01*
%TO.C,C60*%
X179337580Y-90074000D02*
X179056420Y-90074000D01*
X179337580Y-91094000D02*
X179056420Y-91094000D01*
%TO.C,C59*%
X241326580Y-108870000D02*
X241045420Y-108870000D01*
X241326580Y-109890000D02*
X241045420Y-109890000D01*
%TO.C,C58*%
X260376580Y-108870000D02*
X260095420Y-108870000D01*
X260376580Y-109890000D02*
X260095420Y-109890000D01*
%TO.C,C57*%
X207899580Y-70643000D02*
X207618420Y-70643000D01*
X207899580Y-71663000D02*
X207618420Y-71663000D01*
%TO.C,C56*%
X193574580Y-127793000D02*
X193293420Y-127793000D01*
X193574580Y-128813000D02*
X193293420Y-128813000D01*
%TO.C,C55*%
X131699580Y-70643000D02*
X131418420Y-70643000D01*
X131699580Y-71663000D02*
X131418420Y-71663000D01*
%TO.C,C54*%
X141250580Y-89693000D02*
X140969420Y-89693000D01*
X141250580Y-90713000D02*
X140969420Y-90713000D01*
%TO.C,C53*%
X165126580Y-108743000D02*
X164845420Y-108743000D01*
X165126580Y-109763000D02*
X164845420Y-109763000D01*
%TO.C,C52*%
X274600580Y-89693000D02*
X274319420Y-89693000D01*
X274600580Y-90713000D02*
X274319420Y-90713000D01*
%TO.C,C51*%
X211849580Y-127793000D02*
X211568420Y-127793000D01*
X211849580Y-128813000D02*
X211568420Y-128813000D01*
%TO.C,C50*%
X231293580Y-127793000D02*
X231012420Y-127793000D01*
X231293580Y-128813000D02*
X231012420Y-128813000D01*
%TO.C,C49*%
X188875580Y-70643000D02*
X188594420Y-70643000D01*
X188875580Y-71663000D02*
X188594420Y-71663000D01*
%TO.C,C48*%
X155093580Y-127793000D02*
X154812420Y-127793000D01*
X155093580Y-128813000D02*
X154812420Y-128813000D01*
%TO.C,C47*%
X93612580Y-70643000D02*
X93331420Y-70643000D01*
X93612580Y-71663000D02*
X93331420Y-71663000D01*
%TO.C,C46*%
X122327580Y-89693000D02*
X122046420Y-89693000D01*
X122327580Y-90713000D02*
X122046420Y-90713000D01*
%TO.C,C45*%
X173863580Y-127666000D02*
X173582420Y-127666000D01*
X173863580Y-128686000D02*
X173582420Y-128686000D01*
%TO.C,C44*%
X293650580Y-89693000D02*
X293369420Y-89693000D01*
X293650580Y-90713000D02*
X293369420Y-90713000D01*
%TO.C,C43*%
X250597580Y-127793000D02*
X250316420Y-127793000D01*
X250597580Y-128813000D02*
X250316420Y-128813000D01*
%TO.C,C42*%
X196114580Y-146843000D02*
X195833420Y-146843000D01*
X196114580Y-147863000D02*
X195833420Y-147863000D01*
%TO.C,C41*%
X72911580Y-70516000D02*
X72630420Y-70516000D01*
X72911580Y-71536000D02*
X72630420Y-71536000D01*
%TO.C,C40*%
X81687580Y-108743000D02*
X81406420Y-108743000D01*
X81687580Y-109763000D02*
X81406420Y-109763000D01*
%TO.C,C39*%
X150762580Y-70643000D02*
X150481420Y-70643000D01*
X150762580Y-71663000D02*
X150481420Y-71663000D01*
%TO.C,C38*%
X312573580Y-89693000D02*
X312292420Y-89693000D01*
X312573580Y-90713000D02*
X312292420Y-90713000D01*
%TO.C,C37*%
X135382580Y-127666000D02*
X135101420Y-127666000D01*
X135382580Y-128686000D02*
X135101420Y-128686000D01*
%TO.C,C36*%
X324612580Y-127793000D02*
X324331420Y-127793000D01*
X324612580Y-128813000D02*
X324331420Y-128813000D01*
%TO.C,C35*%
X279299580Y-108870000D02*
X279018420Y-108870000D01*
X279299580Y-109890000D02*
X279018420Y-109890000D01*
%TO.C,C34*%
X269139580Y-127793000D02*
X268858420Y-127793000D01*
X269139580Y-128813000D02*
X268858420Y-128813000D01*
%TO.C,C33*%
X169799580Y-70643000D02*
X169518420Y-70643000D01*
X169799580Y-71663000D02*
X169518420Y-71663000D01*
%TO.C,C32*%
X100737580Y-146843000D02*
X100456420Y-146843000D01*
X100737580Y-147863000D02*
X100456420Y-147863000D01*
%TO.C,C31*%
X337719580Y-146843000D02*
X337438420Y-146843000D01*
X337719580Y-147863000D02*
X337438420Y-147863000D01*
%TO.C,C30*%
X116739580Y-127793000D02*
X116458420Y-127793000D01*
X116739580Y-128813000D02*
X116458420Y-128813000D01*
%TO.C,C29*%
X329337580Y-108616000D02*
X329056420Y-108616000D01*
X329337580Y-109636000D02*
X329056420Y-109636000D01*
%TO.C,C28*%
X267234580Y-146970000D02*
X266953420Y-146970000D01*
X267234580Y-147990000D02*
X266953420Y-147990000D01*
%TO.C,C27*%
X291211580Y-146716000D02*
X290930420Y-146716000D01*
X291211580Y-147736000D02*
X290930420Y-147736000D01*
%TO.C,C26*%
X103264580Y-89693000D02*
X102983420Y-89693000D01*
X103264580Y-90713000D02*
X102983420Y-90713000D01*
%TO.C,C25*%
X336576580Y-89820000D02*
X336295420Y-89820000D01*
X336576580Y-90840000D02*
X336295420Y-90840000D01*
%TO.C,C24*%
X86079420Y-128813000D02*
X86360580Y-128813000D01*
X86079420Y-127793000D02*
X86360580Y-127793000D01*
%TO.C,C23*%
X314338580Y-146716000D02*
X314057420Y-146716000D01*
X314338580Y-147736000D02*
X314057420Y-147736000D01*
%TO.C,C22*%
X288557580Y-127793000D02*
X288276420Y-127793000D01*
X288557580Y-128813000D02*
X288276420Y-128813000D01*
%TO.C,C21*%
X107976580Y-108743000D02*
X107695420Y-108743000D01*
X107976580Y-109763000D02*
X107695420Y-109763000D01*
%TO.C,C20*%
X76988580Y-146843000D02*
X76707420Y-146843000D01*
X76988580Y-147863000D02*
X76707420Y-147863000D01*
%TO.C,C19*%
X298476580Y-108743000D02*
X298195420Y-108743000D01*
X298476580Y-109763000D02*
X298195420Y-109763000D01*
%TO.C,C18*%
X126899580Y-108743000D02*
X126618420Y-108743000D01*
X126899580Y-109763000D02*
X126618420Y-109763000D01*
%TO.C,C17*%
X124486580Y-146843000D02*
X124205420Y-146843000D01*
X124486580Y-147863000D02*
X124205420Y-147863000D01*
D14*
%TO.C,H7*%
G36*
X151805188Y-144305155D02*
G01*
X151621432Y-144305230D01*
X151459688Y-144305393D01*
X151318262Y-144305674D01*
X151195460Y-144306103D01*
X151089587Y-144306713D01*
X150998950Y-144307533D01*
X150921855Y-144308593D01*
X150856608Y-144309926D01*
X150801514Y-144311561D01*
X150754880Y-144313529D01*
X150715012Y-144315861D01*
X150680215Y-144318588D01*
X150648796Y-144321740D01*
X150619060Y-144325348D01*
X150589314Y-144329442D01*
X150577550Y-144331147D01*
X150306841Y-144383183D01*
X150045189Y-144458407D01*
X149793784Y-144556118D01*
X149553811Y-144675614D01*
X149326460Y-144816192D01*
X149112916Y-144977150D01*
X148914367Y-145157786D01*
X148732001Y-145357397D01*
X148635485Y-145479750D01*
X148566455Y-145574125D01*
X148509388Y-145657334D01*
X148459413Y-145737232D01*
X148411663Y-145821674D01*
X148361267Y-145918517D01*
X148351544Y-145937864D01*
X148247923Y-146168164D01*
X148164648Y-146403218D01*
X148103717Y-146637351D01*
X148101149Y-146649624D01*
X148094159Y-146683511D01*
X148087761Y-146715328D01*
X148081931Y-146746281D01*
X148076642Y-146777573D01*
X148071868Y-146810410D01*
X148067582Y-146845997D01*
X148063758Y-146885538D01*
X148060369Y-146930239D01*
X148057391Y-146981304D01*
X148054795Y-147039937D01*
X148052556Y-147107345D01*
X148050648Y-147184731D01*
X148049044Y-147273300D01*
X148047718Y-147374258D01*
X148046643Y-147488809D01*
X148045794Y-147618158D01*
X148045145Y-147763510D01*
X148044667Y-147926069D01*
X148044337Y-148107041D01*
X148044126Y-148307630D01*
X148044010Y-148529042D01*
X148043961Y-148772480D01*
X148043953Y-149039150D01*
X148043959Y-149269892D01*
X148043974Y-149550426D01*
X148044014Y-149806747D01*
X148044089Y-150040046D01*
X148044213Y-150251510D01*
X148044396Y-150442327D01*
X148044653Y-150613686D01*
X148044993Y-150766775D01*
X148045431Y-150902782D01*
X148045977Y-151022896D01*
X148046645Y-151128305D01*
X148047446Y-151220198D01*
X148048392Y-151299763D01*
X148049495Y-151368188D01*
X148050769Y-151426661D01*
X148052224Y-151476372D01*
X148053873Y-151518507D01*
X148055728Y-151554257D01*
X148057802Y-151584808D01*
X148060105Y-151611349D01*
X148062652Y-151635070D01*
X148065453Y-151657157D01*
X148068521Y-151678799D01*
X148068600Y-151679334D01*
X148111733Y-151916572D01*
X148169778Y-152138509D01*
X148244768Y-152351734D01*
X148338731Y-152562839D01*
X148344285Y-152574104D01*
X148477723Y-152815644D01*
X148630294Y-153041067D01*
X148800859Y-153249560D01*
X148988278Y-153440309D01*
X149191410Y-153612497D01*
X149409115Y-153765312D01*
X149640254Y-153897939D01*
X149883686Y-154009563D01*
X150138271Y-154099369D01*
X150402869Y-154166543D01*
X150625826Y-154204078D01*
X150665505Y-154207505D01*
X150728258Y-154210615D01*
X150811848Y-154213406D01*
X150914040Y-154215879D01*
X151032597Y-154218034D01*
X151165285Y-154219872D01*
X151309867Y-154221392D01*
X151464107Y-154222595D01*
X151625770Y-154223481D01*
X151792620Y-154224050D01*
X151962420Y-154224303D01*
X152132936Y-154224238D01*
X152301932Y-154223858D01*
X152467171Y-154223161D01*
X152626417Y-154222148D01*
X152777436Y-154220819D01*
X152917990Y-154219175D01*
X153045845Y-154217215D01*
X153158765Y-154214940D01*
X153254513Y-154212349D01*
X153330854Y-154209444D01*
X153385553Y-154206224D01*
X153409232Y-154203856D01*
X153675617Y-154155314D01*
X153935268Y-154083594D01*
X154186395Y-153989665D01*
X154427210Y-153874500D01*
X154655923Y-153739069D01*
X154870746Y-153584342D01*
X155069889Y-153411291D01*
X155251563Y-153220886D01*
X155278261Y-153189624D01*
X155448526Y-152968212D01*
X155595635Y-152736365D01*
X155719617Y-152494024D01*
X155789554Y-152318700D01*
X151168100Y-152318700D01*
X150323550Y-152316922D01*
X149701250Y-151561735D01*
X149602014Y-151441258D01*
X149507214Y-151326071D01*
X149418129Y-151217735D01*
X149336039Y-151117809D01*
X149262225Y-151027857D01*
X149197966Y-150949438D01*
X149144543Y-150884112D01*
X149103234Y-150833442D01*
X149075320Y-150798988D01*
X149062081Y-150782311D01*
X149061400Y-150781383D01*
X149059088Y-150775964D01*
X149059672Y-150768632D01*
X149064266Y-150758202D01*
X149073984Y-150743488D01*
X149089941Y-150723306D01*
X149113252Y-150696471D01*
X149145031Y-150661798D01*
X149186394Y-150618102D01*
X149238454Y-150564198D01*
X149302327Y-150498901D01*
X149379127Y-150421026D01*
X149469969Y-150329388D01*
X149575968Y-150222802D01*
X149698238Y-150100084D01*
X149769934Y-150028183D01*
X150496018Y-149300148D01*
X149870034Y-148685331D01*
X149761874Y-148579116D01*
X149656555Y-148475721D01*
X149555880Y-148376915D01*
X149461649Y-148284463D01*
X149375666Y-148200133D01*
X149299732Y-148125692D01*
X149235649Y-148062908D01*
X149185220Y-148013547D01*
X149150245Y-147979377D01*
X149139519Y-147968931D01*
X149034988Y-147867350D01*
X150412450Y-146274178D01*
X151168100Y-146273500D01*
X151168100Y-152318700D01*
X155789554Y-152318700D01*
X155820498Y-152241129D01*
X155898304Y-151977619D01*
X155953064Y-151703434D01*
X155956701Y-151679334D01*
X155959776Y-151657687D01*
X155962583Y-151635625D01*
X155965136Y-151611959D01*
X155967446Y-151585501D01*
X155969525Y-151555062D01*
X155971385Y-151519455D01*
X155973039Y-151477490D01*
X155974499Y-151427979D01*
X155975777Y-151369735D01*
X155976884Y-151301568D01*
X155977834Y-151222290D01*
X155978638Y-151130714D01*
X155979309Y-151025650D01*
X155979858Y-150905910D01*
X155980298Y-150770306D01*
X155980641Y-150617650D01*
X155980899Y-150446753D01*
X155981085Y-150256427D01*
X155981209Y-150045483D01*
X155981286Y-149812734D01*
X155981326Y-149556990D01*
X155981342Y-149277064D01*
X155981342Y-149269892D01*
X155981348Y-148983780D01*
X155981335Y-148721863D01*
X155981284Y-148521400D01*
X154622500Y-148521400D01*
X154622500Y-152153600D01*
X154089100Y-152153600D01*
X154089100Y-151594800D01*
X154088891Y-151478445D01*
X154088293Y-151370322D01*
X154087349Y-151272989D01*
X154086104Y-151189005D01*
X154084600Y-151120931D01*
X154082882Y-151071325D01*
X154080993Y-151042747D01*
X154079575Y-151036625D01*
X154069106Y-151045427D01*
X154042160Y-151070597D01*
X154000297Y-151110617D01*
X153945077Y-151163971D01*
X153878059Y-151229140D01*
X153800803Y-151304608D01*
X153714869Y-151388857D01*
X153621816Y-151480370D01*
X153523203Y-151577631D01*
X153504900Y-151595713D01*
X152939750Y-152154174D01*
X152752763Y-151960212D01*
X152697568Y-151902540D01*
X152649098Y-151851094D01*
X152609885Y-151808627D01*
X152582459Y-151777893D01*
X152569353Y-151761646D01*
X152568613Y-151759900D01*
X152578006Y-151749885D01*
X152603563Y-151724058D01*
X152643307Y-151684382D01*
X152695259Y-151632821D01*
X152757440Y-151571337D01*
X152827872Y-151501893D01*
X152904574Y-151426452D01*
X152920700Y-151410614D01*
X153017646Y-151315398D01*
X153127242Y-151207718D01*
X153244037Y-151092933D01*
X153362581Y-150976398D01*
X153477426Y-150863472D01*
X153583120Y-150759512D01*
X153629838Y-150713546D01*
X153989725Y-150359414D01*
X153661640Y-150027782D01*
X153574141Y-149939346D01*
X153473458Y-149837600D01*
X153364279Y-149727282D01*
X153251294Y-149613130D01*
X153139192Y-149499880D01*
X153032661Y-149392270D01*
X152952503Y-149311311D01*
X152871663Y-149229660D01*
X152796408Y-149153634D01*
X152728605Y-149085124D01*
X152670126Y-149026018D01*
X152622838Y-148978205D01*
X152588612Y-148943576D01*
X152569316Y-148924020D01*
X152565709Y-148920335D01*
X152572548Y-148909966D01*
X152594924Y-148884447D01*
X152630302Y-148846482D01*
X152676149Y-148798771D01*
X152729931Y-148744017D01*
X152749753Y-148724096D01*
X152939540Y-148533992D01*
X153514320Y-149108669D01*
X154089100Y-149683345D01*
X154089100Y-148521400D01*
X154622500Y-148521400D01*
X155981284Y-148521400D01*
X155981274Y-148482936D01*
X155981141Y-148265795D01*
X155980908Y-148069234D01*
X155980551Y-147892049D01*
X155980041Y-147733036D01*
X155979353Y-147590988D01*
X155978461Y-147464702D01*
X155977338Y-147352972D01*
X155975959Y-147254594D01*
X155974296Y-147168362D01*
X155972324Y-147093073D01*
X155970015Y-147027521D01*
X155967345Y-146970501D01*
X155964286Y-146920808D01*
X155960813Y-146877238D01*
X155956898Y-146838586D01*
X155952516Y-146803647D01*
X155947641Y-146771216D01*
X155942245Y-146740088D01*
X155936304Y-146709059D01*
X155929790Y-146676923D01*
X155924152Y-146649624D01*
X155864460Y-146415698D01*
X155782319Y-146180550D01*
X155679726Y-145949856D01*
X155673757Y-145937864D01*
X155622369Y-145837956D01*
X155574502Y-145751862D01*
X155525287Y-145671726D01*
X155469855Y-145589693D01*
X155403337Y-145497906D01*
X155389816Y-145479750D01*
X155217233Y-145269607D01*
X155027789Y-145078038D01*
X154822671Y-144905746D01*
X154603067Y-144753433D01*
X154370163Y-144621800D01*
X154125148Y-144511551D01*
X153869207Y-144423387D01*
X153603530Y-144358011D01*
X153447750Y-144331147D01*
X153417551Y-144326858D01*
X153388012Y-144323067D01*
X153357438Y-144319744D01*
X153324136Y-144316858D01*
X153286412Y-144314378D01*
X153242572Y-144312274D01*
X153190922Y-144310515D01*
X153129768Y-144309070D01*
X153057415Y-144307909D01*
X152972170Y-144307001D01*
X152872338Y-144306314D01*
X152756226Y-144305819D01*
X152622140Y-144305485D01*
X152468385Y-144305281D01*
X152293268Y-144305176D01*
X152095094Y-144305139D01*
X152012650Y-144305137D01*
X151805188Y-144305155D01*
G37*
X151805188Y-144305155D02*
X151621432Y-144305230D01*
X151459688Y-144305393D01*
X151318262Y-144305674D01*
X151195460Y-144306103D01*
X151089587Y-144306713D01*
X150998950Y-144307533D01*
X150921855Y-144308593D01*
X150856608Y-144309926D01*
X150801514Y-144311561D01*
X150754880Y-144313529D01*
X150715012Y-144315861D01*
X150680215Y-144318588D01*
X150648796Y-144321740D01*
X150619060Y-144325348D01*
X150589314Y-144329442D01*
X150577550Y-144331147D01*
X150306841Y-144383183D01*
X150045189Y-144458407D01*
X149793784Y-144556118D01*
X149553811Y-144675614D01*
X149326460Y-144816192D01*
X149112916Y-144977150D01*
X148914367Y-145157786D01*
X148732001Y-145357397D01*
X148635485Y-145479750D01*
X148566455Y-145574125D01*
X148509388Y-145657334D01*
X148459413Y-145737232D01*
X148411663Y-145821674D01*
X148361267Y-145918517D01*
X148351544Y-145937864D01*
X148247923Y-146168164D01*
X148164648Y-146403218D01*
X148103717Y-146637351D01*
X148101149Y-146649624D01*
X148094159Y-146683511D01*
X148087761Y-146715328D01*
X148081931Y-146746281D01*
X148076642Y-146777573D01*
X148071868Y-146810410D01*
X148067582Y-146845997D01*
X148063758Y-146885538D01*
X148060369Y-146930239D01*
X148057391Y-146981304D01*
X148054795Y-147039937D01*
X148052556Y-147107345D01*
X148050648Y-147184731D01*
X148049044Y-147273300D01*
X148047718Y-147374258D01*
X148046643Y-147488809D01*
X148045794Y-147618158D01*
X148045145Y-147763510D01*
X148044667Y-147926069D01*
X148044337Y-148107041D01*
X148044126Y-148307630D01*
X148044010Y-148529042D01*
X148043961Y-148772480D01*
X148043953Y-149039150D01*
X148043959Y-149269892D01*
X148043974Y-149550426D01*
X148044014Y-149806747D01*
X148044089Y-150040046D01*
X148044213Y-150251510D01*
X148044396Y-150442327D01*
X148044653Y-150613686D01*
X148044993Y-150766775D01*
X148045431Y-150902782D01*
X148045977Y-151022896D01*
X148046645Y-151128305D01*
X148047446Y-151220198D01*
X148048392Y-151299763D01*
X148049495Y-151368188D01*
X148050769Y-151426661D01*
X148052224Y-151476372D01*
X148053873Y-151518507D01*
X148055728Y-151554257D01*
X148057802Y-151584808D01*
X148060105Y-151611349D01*
X148062652Y-151635070D01*
X148065453Y-151657157D01*
X148068521Y-151678799D01*
X148068600Y-151679334D01*
X148111733Y-151916572D01*
X148169778Y-152138509D01*
X148244768Y-152351734D01*
X148338731Y-152562839D01*
X148344285Y-152574104D01*
X148477723Y-152815644D01*
X148630294Y-153041067D01*
X148800859Y-153249560D01*
X148988278Y-153440309D01*
X149191410Y-153612497D01*
X149409115Y-153765312D01*
X149640254Y-153897939D01*
X149883686Y-154009563D01*
X150138271Y-154099369D01*
X150402869Y-154166543D01*
X150625826Y-154204078D01*
X150665505Y-154207505D01*
X150728258Y-154210615D01*
X150811848Y-154213406D01*
X150914040Y-154215879D01*
X151032597Y-154218034D01*
X151165285Y-154219872D01*
X151309867Y-154221392D01*
X151464107Y-154222595D01*
X151625770Y-154223481D01*
X151792620Y-154224050D01*
X151962420Y-154224303D01*
X152132936Y-154224238D01*
X152301932Y-154223858D01*
X152467171Y-154223161D01*
X152626417Y-154222148D01*
X152777436Y-154220819D01*
X152917990Y-154219175D01*
X153045845Y-154217215D01*
X153158765Y-154214940D01*
X153254513Y-154212349D01*
X153330854Y-154209444D01*
X153385553Y-154206224D01*
X153409232Y-154203856D01*
X153675617Y-154155314D01*
X153935268Y-154083594D01*
X154186395Y-153989665D01*
X154427210Y-153874500D01*
X154655923Y-153739069D01*
X154870746Y-153584342D01*
X155069889Y-153411291D01*
X155251563Y-153220886D01*
X155278261Y-153189624D01*
X155448526Y-152968212D01*
X155595635Y-152736365D01*
X155719617Y-152494024D01*
X155789554Y-152318700D01*
X151168100Y-152318700D01*
X150323550Y-152316922D01*
X149701250Y-151561735D01*
X149602014Y-151441258D01*
X149507214Y-151326071D01*
X149418129Y-151217735D01*
X149336039Y-151117809D01*
X149262225Y-151027857D01*
X149197966Y-150949438D01*
X149144543Y-150884112D01*
X149103234Y-150833442D01*
X149075320Y-150798988D01*
X149062081Y-150782311D01*
X149061400Y-150781383D01*
X149059088Y-150775964D01*
X149059672Y-150768632D01*
X149064266Y-150758202D01*
X149073984Y-150743488D01*
X149089941Y-150723306D01*
X149113252Y-150696471D01*
X149145031Y-150661798D01*
X149186394Y-150618102D01*
X149238454Y-150564198D01*
X149302327Y-150498901D01*
X149379127Y-150421026D01*
X149469969Y-150329388D01*
X149575968Y-150222802D01*
X149698238Y-150100084D01*
X149769934Y-150028183D01*
X150496018Y-149300148D01*
X149870034Y-148685331D01*
X149761874Y-148579116D01*
X149656555Y-148475721D01*
X149555880Y-148376915D01*
X149461649Y-148284463D01*
X149375666Y-148200133D01*
X149299732Y-148125692D01*
X149235649Y-148062908D01*
X149185220Y-148013547D01*
X149150245Y-147979377D01*
X149139519Y-147968931D01*
X149034988Y-147867350D01*
X150412450Y-146274178D01*
X151168100Y-146273500D01*
X151168100Y-152318700D01*
X155789554Y-152318700D01*
X155820498Y-152241129D01*
X155898304Y-151977619D01*
X155953064Y-151703434D01*
X155956701Y-151679334D01*
X155959776Y-151657687D01*
X155962583Y-151635625D01*
X155965136Y-151611959D01*
X155967446Y-151585501D01*
X155969525Y-151555062D01*
X155971385Y-151519455D01*
X155973039Y-151477490D01*
X155974499Y-151427979D01*
X155975777Y-151369735D01*
X155976884Y-151301568D01*
X155977834Y-151222290D01*
X155978638Y-151130714D01*
X155979309Y-151025650D01*
X155979858Y-150905910D01*
X155980298Y-150770306D01*
X155980641Y-150617650D01*
X155980899Y-150446753D01*
X155981085Y-150256427D01*
X155981209Y-150045483D01*
X155981286Y-149812734D01*
X155981326Y-149556990D01*
X155981342Y-149277064D01*
X155981342Y-149269892D01*
X155981348Y-148983780D01*
X155981335Y-148721863D01*
X155981284Y-148521400D01*
X154622500Y-148521400D01*
X154622500Y-152153600D01*
X154089100Y-152153600D01*
X154089100Y-151594800D01*
X154088891Y-151478445D01*
X154088293Y-151370322D01*
X154087349Y-151272989D01*
X154086104Y-151189005D01*
X154084600Y-151120931D01*
X154082882Y-151071325D01*
X154080993Y-151042747D01*
X154079575Y-151036625D01*
X154069106Y-151045427D01*
X154042160Y-151070597D01*
X154000297Y-151110617D01*
X153945077Y-151163971D01*
X153878059Y-151229140D01*
X153800803Y-151304608D01*
X153714869Y-151388857D01*
X153621816Y-151480370D01*
X153523203Y-151577631D01*
X153504900Y-151595713D01*
X152939750Y-152154174D01*
X152752763Y-151960212D01*
X152697568Y-151902540D01*
X152649098Y-151851094D01*
X152609885Y-151808627D01*
X152582459Y-151777893D01*
X152569353Y-151761646D01*
X152568613Y-151759900D01*
X152578006Y-151749885D01*
X152603563Y-151724058D01*
X152643307Y-151684382D01*
X152695259Y-151632821D01*
X152757440Y-151571337D01*
X152827872Y-151501893D01*
X152904574Y-151426452D01*
X152920700Y-151410614D01*
X153017646Y-151315398D01*
X153127242Y-151207718D01*
X153244037Y-151092933D01*
X153362581Y-150976398D01*
X153477426Y-150863472D01*
X153583120Y-150759512D01*
X153629838Y-150713546D01*
X153989725Y-150359414D01*
X153661640Y-150027782D01*
X153574141Y-149939346D01*
X153473458Y-149837600D01*
X153364279Y-149727282D01*
X153251294Y-149613130D01*
X153139192Y-149499880D01*
X153032661Y-149392270D01*
X152952503Y-149311311D01*
X152871663Y-149229660D01*
X152796408Y-149153634D01*
X152728605Y-149085124D01*
X152670126Y-149026018D01*
X152622838Y-148978205D01*
X152588612Y-148943576D01*
X152569316Y-148924020D01*
X152565709Y-148920335D01*
X152572548Y-148909966D01*
X152594924Y-148884447D01*
X152630302Y-148846482D01*
X152676149Y-148798771D01*
X152729931Y-148744017D01*
X152749753Y-148724096D01*
X152939540Y-148533992D01*
X153514320Y-149108669D01*
X154089100Y-149683345D01*
X154089100Y-148521400D01*
X154622500Y-148521400D01*
X155981284Y-148521400D01*
X155981274Y-148482936D01*
X155981141Y-148265795D01*
X155980908Y-148069234D01*
X155980551Y-147892049D01*
X155980041Y-147733036D01*
X155979353Y-147590988D01*
X155978461Y-147464702D01*
X155977338Y-147352972D01*
X155975959Y-147254594D01*
X155974296Y-147168362D01*
X155972324Y-147093073D01*
X155970015Y-147027521D01*
X155967345Y-146970501D01*
X155964286Y-146920808D01*
X155960813Y-146877238D01*
X155956898Y-146838586D01*
X155952516Y-146803647D01*
X155947641Y-146771216D01*
X155942245Y-146740088D01*
X155936304Y-146709059D01*
X155929790Y-146676923D01*
X155924152Y-146649624D01*
X155864460Y-146415698D01*
X155782319Y-146180550D01*
X155679726Y-145949856D01*
X155673757Y-145937864D01*
X155622369Y-145837956D01*
X155574502Y-145751862D01*
X155525287Y-145671726D01*
X155469855Y-145589693D01*
X155403337Y-145497906D01*
X155389816Y-145479750D01*
X155217233Y-145269607D01*
X155027789Y-145078038D01*
X154822671Y-144905746D01*
X154603067Y-144753433D01*
X154370163Y-144621800D01*
X154125148Y-144511551D01*
X153869207Y-144423387D01*
X153603530Y-144358011D01*
X153447750Y-144331147D01*
X153417551Y-144326858D01*
X153388012Y-144323067D01*
X153357438Y-144319744D01*
X153324136Y-144316858D01*
X153286412Y-144314378D01*
X153242572Y-144312274D01*
X153190922Y-144310515D01*
X153129768Y-144309070D01*
X153057415Y-144307909D01*
X152972170Y-144307001D01*
X152872338Y-144306314D01*
X152756226Y-144305819D01*
X152622140Y-144305485D01*
X152468385Y-144305281D01*
X152293268Y-144305176D01*
X152095094Y-144305139D01*
X152012650Y-144305137D01*
X151805188Y-144305155D01*
G36*
X150203735Y-150361172D02*
G01*
X149774139Y-150797595D01*
X150173963Y-151281922D01*
X150253853Y-151378589D01*
X150329648Y-151470094D01*
X150399654Y-151554406D01*
X150462174Y-151629491D01*
X150515513Y-151693316D01*
X150557975Y-151743850D01*
X150587865Y-151779059D01*
X150603486Y-151796911D01*
X150604244Y-151797711D01*
X150634700Y-151829172D01*
X150633332Y-149924750D01*
X150203735Y-150361172D01*
G37*
X150203735Y-150361172D02*
X149774139Y-150797595D01*
X150173963Y-151281922D01*
X150253853Y-151378589D01*
X150329648Y-151470094D01*
X150399654Y-151554406D01*
X150462174Y-151629491D01*
X150515513Y-151693316D01*
X150557975Y-151743850D01*
X150587865Y-151779059D01*
X150603486Y-151796911D01*
X150604244Y-151797711D01*
X150634700Y-151829172D01*
X150633332Y-149924750D01*
X150203735Y-150361172D01*
G36*
X150620682Y-146867017D02*
G01*
X150596712Y-146893726D01*
X150559434Y-146935964D01*
X150510478Y-146991865D01*
X150451470Y-147059566D01*
X150384039Y-147137203D01*
X150309813Y-147222911D01*
X150230420Y-147314826D01*
X150227618Y-147318075D01*
X150147146Y-147411345D01*
X150071067Y-147499480D01*
X150001127Y-147580460D01*
X149939073Y-147652266D01*
X149886652Y-147712878D01*
X149845608Y-147760276D01*
X149817688Y-147792439D01*
X149804731Y-147807246D01*
X149778956Y-147836043D01*
X150195903Y-148245396D01*
X150281284Y-148329085D01*
X150361250Y-148407202D01*
X150433955Y-148477963D01*
X150497552Y-148539583D01*
X150550193Y-148590275D01*
X150590033Y-148628256D01*
X150615224Y-148651739D01*
X150623775Y-148658983D01*
X150625589Y-148647330D01*
X150627305Y-148612254D01*
X150628902Y-148555730D01*
X150630355Y-148479735D01*
X150631639Y-148386244D01*
X150632730Y-148277234D01*
X150633605Y-148154681D01*
X150634240Y-148020561D01*
X150634611Y-147876850D01*
X150634700Y-147760458D01*
X150634632Y-147611560D01*
X150634435Y-147470323D01*
X150634119Y-147338764D01*
X150633697Y-147218899D01*
X150633179Y-147112746D01*
X150632577Y-147022320D01*
X150631901Y-146949639D01*
X150631163Y-146896720D01*
X150630373Y-146865578D01*
X150629716Y-146857700D01*
X150620682Y-146867017D01*
G37*
X150620682Y-146867017D02*
X150596712Y-146893726D01*
X150559434Y-146935964D01*
X150510478Y-146991865D01*
X150451470Y-147059566D01*
X150384039Y-147137203D01*
X150309813Y-147222911D01*
X150230420Y-147314826D01*
X150227618Y-147318075D01*
X150147146Y-147411345D01*
X150071067Y-147499480D01*
X150001127Y-147580460D01*
X149939073Y-147652266D01*
X149886652Y-147712878D01*
X149845608Y-147760276D01*
X149817688Y-147792439D01*
X149804731Y-147807246D01*
X149778956Y-147836043D01*
X150195903Y-148245396D01*
X150281284Y-148329085D01*
X150361250Y-148407202D01*
X150433955Y-148477963D01*
X150497552Y-148539583D01*
X150550193Y-148590275D01*
X150590033Y-148628256D01*
X150615224Y-148651739D01*
X150623775Y-148658983D01*
X150625589Y-148647330D01*
X150627305Y-148612254D01*
X150628902Y-148555730D01*
X150630355Y-148479735D01*
X150631639Y-148386244D01*
X150632730Y-148277234D01*
X150633605Y-148154681D01*
X150634240Y-148020561D01*
X150634611Y-147876850D01*
X150634700Y-147760458D01*
X150634632Y-147611560D01*
X150634435Y-147470323D01*
X150634119Y-147338764D01*
X150633697Y-147218899D01*
X150633179Y-147112746D01*
X150632577Y-147022320D01*
X150631901Y-146949639D01*
X150631163Y-146896720D01*
X150630373Y-146865578D01*
X150629716Y-146857700D01*
X150620682Y-146867017D01*
D13*
%TO.C,U57*%
X191181000Y-143170000D02*
X190881000Y-143170000D01*
X190881000Y-143170000D02*
X190881000Y-143470000D01*
%TO.C,U53*%
X319769000Y-124120000D02*
X319469000Y-124120000D01*
X319469000Y-124120000D02*
X319469000Y-124420000D01*
%TO.C,U42*%
X81612000Y-124120000D02*
X81312000Y-124120000D01*
X81312000Y-124120000D02*
X81312000Y-124420000D01*
%TO.C,U41*%
X324531000Y-105070000D02*
X324231000Y-105070000D01*
X324231000Y-105070000D02*
X324231000Y-105370000D01*
%TO.C,U14*%
X326913000Y-66970000D02*
X326613000Y-66970000D01*
X326613000Y-66970000D02*
X326613000Y-67270000D01*
%TO.C,U29*%
X76882500Y-105070000D02*
X76582500Y-105070000D01*
X76582500Y-105070000D02*
X76582500Y-105370000D01*
%TO.C,U28*%
X331675000Y-86020000D02*
X331375000Y-86020000D01*
X331375000Y-86020000D02*
X331375000Y-86320000D01*
%TO.C,U15*%
X74500000Y-86020000D02*
X74200000Y-86020000D01*
X74200000Y-86020000D02*
X74200000Y-86320000D01*
%TO.C,LS1*%
X227064000Y-150608000D02*
X227064000Y-153858000D01*
X238264000Y-153858000D02*
X238264000Y-150608000D01*
X238264000Y-147908000D02*
X238264000Y-144658000D01*
X238264000Y-144658000D02*
X227064000Y-144658000D01*
X227064000Y-153858000D02*
X238264000Y-153858000D01*
X227064000Y-144658000D02*
X227064000Y-147908000D01*
%TO.C,J4*%
X220405000Y-146785000D02*
X220405000Y-149445000D01*
X207645000Y-146785000D02*
X220405000Y-146785000D01*
X207645000Y-149445000D02*
X220405000Y-149445000D01*
X207645000Y-146785000D02*
X207645000Y-149445000D01*
X206375000Y-146785000D02*
X205045000Y-146785000D01*
X205045000Y-146785000D02*
X205045000Y-148115000D01*
%TO.C,J3*%
X220405000Y-154405000D02*
X220405000Y-157065000D01*
X212725000Y-154405000D02*
X220405000Y-154405000D01*
X212725000Y-157065000D02*
X220405000Y-157065000D01*
X212725000Y-154405000D02*
X212725000Y-157065000D01*
X211455000Y-154405000D02*
X210125000Y-154405000D01*
X210125000Y-154405000D02*
X210125000Y-155735000D01*
%TO.C,R8*%
X89678742Y-117522500D02*
X90153258Y-117522500D01*
X89678742Y-116477500D02*
X90153258Y-116477500D01*
%TO.C,D62*%
X89116000Y-114614000D02*
X91401000Y-114614000D01*
X91401000Y-114614000D02*
X91401000Y-116084000D01*
X91401000Y-116084000D02*
X89116000Y-116084000D01*
%TO.C,J2*%
X182432000Y-154786000D02*
X182432000Y-157446000D01*
X177292000Y-154786000D02*
X182432000Y-154786000D01*
X177292000Y-157446000D02*
X182432000Y-157446000D01*
X177292000Y-154786000D02*
X177292000Y-157446000D01*
X176022000Y-154786000D02*
X174692000Y-154786000D01*
X174692000Y-154786000D02*
X174692000Y-156116000D01*
%TO.C,SW1*%
X89429000Y-114125000D02*
X93569000Y-114125000D01*
X93569000Y-111285000D02*
X93569000Y-110985000D01*
X93569000Y-110985000D02*
X89429000Y-110985000D01*
X89429000Y-113825000D02*
X89429000Y-114125000D01*
X89429000Y-110985000D02*
X89429000Y-111285000D01*
X93569000Y-114125000D02*
X93569000Y-113825000D01*
%TO.C,U61*%
X334044000Y-143170000D02*
X333744000Y-143170000D01*
X333744000Y-143170000D02*
X333744000Y-143470000D01*
%TO.C,U60*%
X310231000Y-143170000D02*
X309931000Y-143170000D01*
X309931000Y-143170000D02*
X309931000Y-143470000D01*
%TO.C,U59*%
X286431000Y-143170000D02*
X286131000Y-143170000D01*
X286131000Y-143170000D02*
X286131000Y-143470000D01*
%TO.C,U58*%
X262619000Y-143170000D02*
X262319000Y-143170000D01*
X262319000Y-143170000D02*
X262319000Y-143470000D01*
%TO.C,U56*%
X119744000Y-143170000D02*
X119444000Y-143170000D01*
X119444000Y-143170000D02*
X119444000Y-143470000D01*
%TO.C,U55*%
X95931200Y-143170000D02*
X95631200Y-143170000D01*
X95631200Y-143170000D02*
X95631200Y-143470000D01*
%TO.C,U54*%
X72118800Y-143170000D02*
X71818800Y-143170000D01*
X71818800Y-143170000D02*
X71818800Y-143470000D01*
%TO.C,U52*%
X284050000Y-124120000D02*
X283750000Y-124120000D01*
X283750000Y-124120000D02*
X283750000Y-124420000D01*
%TO.C,U51*%
X265000000Y-124120000D02*
X264700000Y-124120000D01*
X264700000Y-124120000D02*
X264700000Y-124420000D01*
%TO.C,U50*%
X245950000Y-124120000D02*
X245650000Y-124120000D01*
X245650000Y-124120000D02*
X245650000Y-124420000D01*
%TO.C,U49*%
X226900000Y-124120000D02*
X226600000Y-124120000D01*
X226600000Y-124120000D02*
X226600000Y-124420000D01*
%TO.C,U48*%
X207850000Y-124120000D02*
X207550000Y-124120000D01*
X207550000Y-124120000D02*
X207550000Y-124420000D01*
%TO.C,U47*%
X188800000Y-124120000D02*
X188500000Y-124120000D01*
X188500000Y-124120000D02*
X188500000Y-124420000D01*
%TO.C,U46*%
X169750000Y-124120000D02*
X169450000Y-124120000D01*
X169450000Y-124120000D02*
X169450000Y-124420000D01*
%TO.C,U45*%
X150700000Y-124120000D02*
X150400000Y-124120000D01*
X150400000Y-124120000D02*
X150400000Y-124420000D01*
%TO.C,U44*%
X131650000Y-124120000D02*
X131350000Y-124120000D01*
X131350000Y-124120000D02*
X131350000Y-124420000D01*
%TO.C,U43*%
X112600000Y-124120000D02*
X112300000Y-124120000D01*
X112300000Y-124120000D02*
X112300000Y-124420000D01*
%TO.C,U40*%
X293575000Y-105070000D02*
X293275000Y-105070000D01*
X293275000Y-105070000D02*
X293275000Y-105370000D01*
%TO.C,U39*%
X274525000Y-105070000D02*
X274225000Y-105070000D01*
X274225000Y-105070000D02*
X274225000Y-105370000D01*
%TO.C,U38*%
X255475000Y-105070000D02*
X255175000Y-105070000D01*
X255175000Y-105070000D02*
X255175000Y-105370000D01*
%TO.C,U37*%
X236425000Y-105070000D02*
X236125000Y-105070000D01*
X236125000Y-105070000D02*
X236125000Y-105370000D01*
%TO.C,U36*%
X217375000Y-105070000D02*
X217075000Y-105070000D01*
X217075000Y-105070000D02*
X217075000Y-105370000D01*
%TO.C,U35*%
X198325000Y-105070000D02*
X198025000Y-105070000D01*
X198025000Y-105070000D02*
X198025000Y-105370000D01*
%TO.C,U34*%
X179275000Y-105070000D02*
X178975000Y-105070000D01*
X178975000Y-105070000D02*
X178975000Y-105370000D01*
%TO.C,U33*%
X160225000Y-105070000D02*
X159925000Y-105070000D01*
X159925000Y-105070000D02*
X159925000Y-105370000D01*
%TO.C,U32*%
X141175000Y-105070000D02*
X140875000Y-105070000D01*
X140875000Y-105070000D02*
X140875000Y-105370000D01*
%TO.C,U31*%
X122125000Y-105070000D02*
X121825000Y-105070000D01*
X121825000Y-105070000D02*
X121825000Y-105370000D01*
%TO.C,U30*%
X103075000Y-105070000D02*
X102775000Y-105070000D01*
X102775000Y-105070000D02*
X102775000Y-105370000D01*
%TO.C,U27*%
X307862000Y-86020000D02*
X307562000Y-86020000D01*
X307562000Y-86020000D02*
X307562000Y-86320000D01*
%TO.C,U26*%
X288812000Y-86020000D02*
X288512000Y-86020000D01*
X288512000Y-86020000D02*
X288512000Y-86320000D01*
%TO.C,U25*%
X269762000Y-86020000D02*
X269462000Y-86020000D01*
X269462000Y-86020000D02*
X269462000Y-86320000D01*
%TO.C,U24*%
X250712000Y-86020000D02*
X250412000Y-86020000D01*
X250412000Y-86020000D02*
X250412000Y-86320000D01*
%TO.C,U23*%
X231662000Y-86020000D02*
X231362000Y-86020000D01*
X231362000Y-86020000D02*
X231362000Y-86320000D01*
%TO.C,U22*%
X212612000Y-86020000D02*
X212312000Y-86020000D01*
X212312000Y-86020000D02*
X212312000Y-86320000D01*
%TO.C,U21*%
X193562000Y-86020000D02*
X193262000Y-86020000D01*
X193262000Y-86020000D02*
X193262000Y-86320000D01*
%TO.C,U20*%
X174512000Y-86020000D02*
X174212000Y-86020000D01*
X174212000Y-86020000D02*
X174212000Y-86320000D01*
%TO.C,U19*%
X155462000Y-86020000D02*
X155162000Y-86020000D01*
X155162000Y-86020000D02*
X155162000Y-86320000D01*
%TO.C,U18*%
X136412000Y-86020000D02*
X136112000Y-86020000D01*
X136112000Y-86020000D02*
X136112000Y-86320000D01*
%TO.C,U17*%
X117362000Y-86020000D02*
X117062000Y-86020000D01*
X117062000Y-86020000D02*
X117062000Y-86320000D01*
%TO.C,U16*%
X98312000Y-86020000D02*
X98012000Y-86020000D01*
X98012000Y-86020000D02*
X98012000Y-86320000D01*
%TO.C,U13*%
X298338000Y-66970000D02*
X298038000Y-66970000D01*
X298038000Y-66970000D02*
X298038000Y-67270000D01*
%TO.C,U12*%
X279288000Y-66970000D02*
X278988000Y-66970000D01*
X278988000Y-66970000D02*
X278988000Y-67270000D01*
%TO.C,U11*%
X260238000Y-66970000D02*
X259938000Y-66970000D01*
X259938000Y-66970000D02*
X259938000Y-67270000D01*
%TO.C,U10*%
X241188000Y-66970000D02*
X240888000Y-66970000D01*
X240888000Y-66970000D02*
X240888000Y-67270000D01*
%TO.C,U9*%
X222138000Y-66970000D02*
X221838000Y-66970000D01*
X221838000Y-66970000D02*
X221838000Y-67270000D01*
%TO.C,U8*%
X203088000Y-66970000D02*
X202788000Y-66970000D01*
X202788000Y-66970000D02*
X202788000Y-67270000D01*
%TO.C,U7*%
X184038000Y-66970000D02*
X183738000Y-66970000D01*
X183738000Y-66970000D02*
X183738000Y-67270000D01*
%TO.C,U6*%
X164988000Y-66970000D02*
X164688000Y-66970000D01*
X164688000Y-66970000D02*
X164688000Y-67270000D01*
%TO.C,U5*%
X145938000Y-66970000D02*
X145638000Y-66970000D01*
X145638000Y-66970000D02*
X145638000Y-67270000D01*
%TO.C,U4*%
X126888000Y-66970000D02*
X126588000Y-66970000D01*
X126588000Y-66970000D02*
X126588000Y-67270000D01*
%TO.C,U3*%
X107838000Y-66970000D02*
X107538000Y-66970000D01*
X107538000Y-66970000D02*
X107538000Y-67270000D01*
%TO.C,U2*%
X88787500Y-66970000D02*
X88487500Y-66970000D01*
X88487500Y-66970000D02*
X88487500Y-67270000D01*
%TO.C,U1*%
X69737500Y-66970000D02*
X69437500Y-66970000D01*
X69437500Y-66970000D02*
X69437500Y-67270000D01*
%TO.C,U65*%
X94325000Y-134126000D02*
X100335000Y-134126000D01*
X96575000Y-127306000D02*
X100335000Y-127306000D01*
X100335000Y-134126000D02*
X100335000Y-132866000D01*
X100335000Y-127306000D02*
X100335000Y-128566000D01*
%TO.C,C16*%
X99073580Y-136306000D02*
X98792420Y-136306000D01*
X99073580Y-135286000D02*
X98792420Y-135286000D01*
%TO.C,C15*%
X99033420Y-125253000D02*
X99314580Y-125253000D01*
X99033420Y-126273000D02*
X99314580Y-126273000D01*
%TO.C,Y1*%
X183133000Y-144845000D02*
X183133000Y-148845000D01*
X179833000Y-144845000D02*
X183133000Y-144845000D01*
%TO.C,R7*%
X150859258Y-141906500D02*
X150384742Y-141906500D01*
X150859258Y-140861500D02*
X150384742Y-140861500D01*
%TO.C,R6*%
X163846742Y-139337500D02*
X164321258Y-139337500D01*
X163846742Y-140382500D02*
X164321258Y-140382500D01*
%TO.C,R5*%
X177943742Y-147338500D02*
X178418258Y-147338500D01*
X177943742Y-148383500D02*
X178418258Y-148383500D01*
%TO.C,R4*%
X157433742Y-150132500D02*
X157908258Y-150132500D01*
X157433742Y-151177500D02*
X157908258Y-151177500D01*
%TO.C,R3*%
X157433742Y-148608500D02*
X157908258Y-148608500D01*
X157433742Y-149653500D02*
X157908258Y-149653500D01*
%TO.C,C14*%
X178027420Y-149256000D02*
X178308580Y-149256000D01*
X178027420Y-150276000D02*
X178308580Y-150276000D01*
%TO.C,C13*%
X181215420Y-149256000D02*
X181496580Y-149256000D01*
X181215420Y-150276000D02*
X181496580Y-150276000D01*
%TO.C,C12*%
X181496580Y-144434000D02*
X181215420Y-144434000D01*
X181496580Y-143414000D02*
X181215420Y-143414000D01*
%TO.C,C11*%
X161176580Y-153578000D02*
X160895420Y-153578000D01*
X161176580Y-152558000D02*
X160895420Y-152558000D01*
%TO.C,C10*%
X161176580Y-151800000D02*
X160895420Y-151800000D01*
X161176580Y-150780000D02*
X160895420Y-150780000D01*
%TO.C,C9*%
X171325000Y-155607420D02*
X171325000Y-155888580D01*
X170305000Y-155607420D02*
X170305000Y-155888580D01*
%TO.C,C8*%
X170305000Y-140622580D02*
X170305000Y-140341420D01*
X171325000Y-140622580D02*
X171325000Y-140341420D01*
%TO.C,C7*%
X161036580Y-149006000D02*
X160755420Y-149006000D01*
X161036580Y-147986000D02*
X160755420Y-147986000D01*
%TO.C,C6*%
X167642000Y-155607420D02*
X167642000Y-155888580D01*
X166622000Y-155607420D02*
X166622000Y-155888580D01*
%TO.C,C5*%
X150762580Y-140370000D02*
X150481420Y-140370000D01*
X150762580Y-139350000D02*
X150481420Y-139350000D01*
%TO.C,C4*%
X165864000Y-155594420D02*
X165864000Y-155875580D01*
X164844000Y-155594420D02*
X164844000Y-155875580D01*
%TO.C,C3*%
X166749000Y-140622580D02*
X166749000Y-140341420D01*
X167769000Y-140622580D02*
X167769000Y-140341420D01*
%TO.C,C2*%
X178027420Y-150907000D02*
X178308580Y-150907000D01*
X178027420Y-151927000D02*
X178308580Y-151927000D01*
%TO.C,C1*%
X161036580Y-147482000D02*
X160755420Y-147482000D01*
X161036580Y-146462000D02*
X160755420Y-146462000D01*
%TO.C,J1*%
X75818000Y-64708000D02*
X75818000Y-62808000D01*
X75818000Y-68608000D02*
X75818000Y-66608000D01*
X85218000Y-64708000D02*
X85218000Y-62808000D01*
X85218000Y-68608000D02*
X85218000Y-66608000D01*
X75818000Y-62808000D02*
X85218000Y-62808000D01*
%TO.C,D61*%
X326247000Y-157604000D02*
X324247000Y-157604000D01*
X324247000Y-157604000D02*
X324247000Y-153704000D01*
X326247000Y-157604000D02*
X326247000Y-153704000D01*
%TO.C,D60*%
X323453000Y-157604000D02*
X321453000Y-157604000D01*
X321453000Y-157604000D02*
X321453000Y-153704000D01*
X323453000Y-157604000D02*
X323453000Y-153704000D01*
%TO.C,D59*%
X299958000Y-157858000D02*
X297958000Y-157858000D01*
X297958000Y-157858000D02*
X297958000Y-153958000D01*
X299958000Y-157858000D02*
X299958000Y-153958000D01*
%TO.C,D58*%
X276082000Y-157731000D02*
X274082000Y-157731000D01*
X274082000Y-157731000D02*
X274082000Y-153831000D01*
X276082000Y-157731000D02*
X276082000Y-153831000D01*
%TO.C,D57*%
X204962000Y-157858000D02*
X202962000Y-157858000D01*
X202962000Y-157858000D02*
X202962000Y-153958000D01*
X204962000Y-157858000D02*
X204962000Y-153958000D01*
%TO.C,D56*%
X133207000Y-157985000D02*
X131207000Y-157985000D01*
X131207000Y-157985000D02*
X131207000Y-154085000D01*
X133207000Y-157985000D02*
X133207000Y-154085000D01*
%TO.C,D55*%
X109458000Y-157858000D02*
X107458000Y-157858000D01*
X107458000Y-157858000D02*
X107458000Y-153958000D01*
X109458000Y-157858000D02*
X109458000Y-153958000D01*
%TO.C,D54*%
X85582000Y-157858000D02*
X83582000Y-157858000D01*
X83582000Y-157858000D02*
X83582000Y-153958000D01*
X85582000Y-157858000D02*
X85582000Y-153958000D01*
%TO.C,D53*%
X328819000Y-126560000D02*
X330819000Y-126560000D01*
X330819000Y-126560000D02*
X330819000Y-130460000D01*
X328819000Y-126560000D02*
X328819000Y-130460000D01*
%TO.C,D52*%
X293005000Y-126816000D02*
X295005000Y-126816000D01*
X295005000Y-126816000D02*
X295005000Y-130716000D01*
X293005000Y-126816000D02*
X293005000Y-130716000D01*
%TO.C,D51*%
X273955000Y-126689000D02*
X275955000Y-126689000D01*
X275955000Y-126689000D02*
X275955000Y-130589000D01*
X273955000Y-126689000D02*
X273955000Y-130589000D01*
%TO.C,D50*%
X254905000Y-126689000D02*
X256905000Y-126689000D01*
X256905000Y-126689000D02*
X256905000Y-130589000D01*
X254905000Y-126689000D02*
X254905000Y-130589000D01*
%TO.C,D49*%
X235855000Y-126688000D02*
X237855000Y-126688000D01*
X237855000Y-126688000D02*
X237855000Y-130588000D01*
X235855000Y-126688000D02*
X235855000Y-130588000D01*
%TO.C,D48*%
X216805000Y-126689000D02*
X218805000Y-126689000D01*
X218805000Y-126689000D02*
X218805000Y-130589000D01*
X216805000Y-126689000D02*
X216805000Y-130589000D01*
%TO.C,D47*%
X197755000Y-126689000D02*
X199755000Y-126689000D01*
X199755000Y-126689000D02*
X199755000Y-130589000D01*
X197755000Y-126689000D02*
X197755000Y-130589000D01*
%TO.C,D46*%
X178705000Y-126689000D02*
X180705000Y-126689000D01*
X180705000Y-126689000D02*
X180705000Y-130589000D01*
X178705000Y-126689000D02*
X178705000Y-130589000D01*
%TO.C,D45*%
X159655000Y-126689000D02*
X161655000Y-126689000D01*
X161655000Y-126689000D02*
X161655000Y-130589000D01*
X159655000Y-126689000D02*
X159655000Y-130589000D01*
%TO.C,D44*%
X140605000Y-126689000D02*
X142605000Y-126689000D01*
X142605000Y-126689000D02*
X142605000Y-130589000D01*
X140605000Y-126689000D02*
X140605000Y-130589000D01*
%TO.C,D43*%
X121428000Y-126689000D02*
X123428000Y-126689000D01*
X123428000Y-126689000D02*
X123428000Y-130589000D01*
X121428000Y-126689000D02*
X121428000Y-130589000D01*
%TO.C,D42*%
X90567000Y-126689000D02*
X92567000Y-126689000D01*
X92567000Y-126689000D02*
X92567000Y-130589000D01*
X90567000Y-126689000D02*
X90567000Y-130589000D01*
%TO.C,D41*%
X339074000Y-113916000D02*
X337074000Y-113916000D01*
X337074000Y-113916000D02*
X337074000Y-110016000D01*
X339074000Y-113916000D02*
X339074000Y-110016000D01*
%TO.C,D40*%
X297725000Y-121175000D02*
X297725000Y-119175000D01*
X297725000Y-119175000D02*
X301625000Y-119175000D01*
X297725000Y-121175000D02*
X301625000Y-121175000D01*
%TO.C,D39*%
X278675000Y-121175000D02*
X278675000Y-119175000D01*
X278675000Y-119175000D02*
X282575000Y-119175000D01*
X278675000Y-121175000D02*
X282575000Y-121175000D01*
%TO.C,D38*%
X259625000Y-121175000D02*
X259625000Y-119175000D01*
X259625000Y-119175000D02*
X263525000Y-119175000D01*
X259625000Y-121175000D02*
X263525000Y-121175000D01*
%TO.C,D37*%
X240575000Y-121175000D02*
X240575000Y-119175000D01*
X240575000Y-119175000D02*
X244475000Y-119175000D01*
X240575000Y-121175000D02*
X244475000Y-121175000D01*
%TO.C,D36*%
X221525000Y-121175000D02*
X221525000Y-119175000D01*
X221525000Y-119175000D02*
X225425000Y-119175000D01*
X221525000Y-121175000D02*
X225425000Y-121175000D01*
%TO.C,D35*%
X202475000Y-121175000D02*
X202475000Y-119175000D01*
X202475000Y-119175000D02*
X206375000Y-119175000D01*
X202475000Y-121175000D02*
X206375000Y-121175000D01*
%TO.C,D34*%
X183425000Y-121175000D02*
X183425000Y-119175000D01*
X183425000Y-119175000D02*
X187325000Y-119175000D01*
X183425000Y-121175000D02*
X187325000Y-121175000D01*
%TO.C,D33*%
X164248000Y-121175000D02*
X164248000Y-119175000D01*
X164248000Y-119175000D02*
X168148000Y-119175000D01*
X164248000Y-121175000D02*
X168148000Y-121175000D01*
%TO.C,D32*%
X145324000Y-121175000D02*
X145324000Y-119175000D01*
X145324000Y-119175000D02*
X149224000Y-119175000D01*
X145324000Y-121175000D02*
X149224000Y-121175000D01*
%TO.C,D31*%
X126275000Y-121175000D02*
X126275000Y-119175000D01*
X126275000Y-119175000D02*
X130175000Y-119175000D01*
X126275000Y-121175000D02*
X130175000Y-121175000D01*
%TO.C,D30*%
X107098000Y-121175000D02*
X107098000Y-119175000D01*
X107098000Y-119175000D02*
X110998000Y-119175000D01*
X107098000Y-121175000D02*
X110998000Y-121175000D01*
%TO.C,D29*%
X80936000Y-121175000D02*
X80936000Y-119175000D01*
X80936000Y-119175000D02*
X84836000Y-119175000D01*
X80936000Y-121175000D02*
X84836000Y-121175000D01*
%TO.C,D28*%
X328713000Y-102125000D02*
X328713000Y-100125000D01*
X328713000Y-100125000D02*
X332613000Y-100125000D01*
X328713000Y-102125000D02*
X332613000Y-102125000D01*
%TO.C,D27*%
X304836000Y-101998000D02*
X304836000Y-99998000D01*
X304836000Y-99998000D02*
X308736000Y-99998000D01*
X304836000Y-101998000D02*
X308736000Y-101998000D01*
%TO.C,D26*%
X292899000Y-102125000D02*
X292899000Y-100125000D01*
X292899000Y-100125000D02*
X296799000Y-100125000D01*
X292899000Y-102125000D02*
X296799000Y-102125000D01*
%TO.C,D25*%
X273848000Y-102125000D02*
X273848000Y-100125000D01*
X273848000Y-100125000D02*
X277748000Y-100125000D01*
X273848000Y-102125000D02*
X277748000Y-102125000D01*
%TO.C,D24*%
X254798000Y-102125000D02*
X254798000Y-100125000D01*
X254798000Y-100125000D02*
X258698000Y-100125000D01*
X254798000Y-102125000D02*
X258698000Y-102125000D01*
%TO.C,D23*%
X235749000Y-102125000D02*
X235749000Y-100125000D01*
X235749000Y-100125000D02*
X239649000Y-100125000D01*
X235749000Y-102125000D02*
X239649000Y-102125000D01*
%TO.C,D22*%
X216699000Y-102125000D02*
X216699000Y-100125000D01*
X216699000Y-100125000D02*
X220599000Y-100125000D01*
X216699000Y-102125000D02*
X220599000Y-102125000D01*
%TO.C,D21*%
X197649000Y-102125000D02*
X197649000Y-100125000D01*
X197649000Y-100125000D02*
X201549000Y-100125000D01*
X197649000Y-102125000D02*
X201549000Y-102125000D01*
%TO.C,D20*%
X178599000Y-102125000D02*
X178599000Y-100125000D01*
X178599000Y-100125000D02*
X182499000Y-100125000D01*
X178599000Y-102125000D02*
X182499000Y-102125000D01*
%TO.C,D19*%
X159549000Y-102252000D02*
X159549000Y-100252000D01*
X159549000Y-100252000D02*
X163449000Y-100252000D01*
X159549000Y-102252000D02*
X163449000Y-102252000D01*
%TO.C,D18*%
X140499000Y-102125000D02*
X140499000Y-100125000D01*
X140499000Y-100125000D02*
X144399000Y-100125000D01*
X140499000Y-102125000D02*
X144399000Y-102125000D01*
%TO.C,D17*%
X121449000Y-102125000D02*
X121449000Y-100125000D01*
X121449000Y-100125000D02*
X125349000Y-100125000D01*
X121449000Y-102125000D02*
X125349000Y-102125000D01*
%TO.C,D16*%
X102526000Y-102125000D02*
X102526000Y-100125000D01*
X102526000Y-100125000D02*
X106426000Y-100125000D01*
X102526000Y-102125000D02*
X106426000Y-102125000D01*
%TO.C,D15*%
X78522000Y-102125000D02*
X78522000Y-100125000D01*
X78522000Y-100125000D02*
X82422000Y-100125000D01*
X78522000Y-102125000D02*
X82422000Y-102125000D01*
%TO.C,D14*%
X330872000Y-83202000D02*
X330872000Y-81202000D01*
X330872000Y-81202000D02*
X334772000Y-81202000D01*
X330872000Y-83202000D02*
X334772000Y-83202000D01*
%TO.C,D13*%
X302424000Y-83075000D02*
X302424000Y-81075000D01*
X302424000Y-81075000D02*
X306324000Y-81075000D01*
X302424000Y-83075000D02*
X306324000Y-83075000D01*
%TO.C,D12*%
X283501000Y-83202000D02*
X283501000Y-81202000D01*
X283501000Y-81202000D02*
X287401000Y-81202000D01*
X283501000Y-83202000D02*
X287401000Y-83202000D01*
%TO.C,D11*%
X264324000Y-83202000D02*
X264324000Y-81202000D01*
X264324000Y-81202000D02*
X268224000Y-81202000D01*
X264324000Y-83202000D02*
X268224000Y-83202000D01*
%TO.C,D10*%
X245274000Y-83075000D02*
X245274000Y-81075000D01*
X245274000Y-81075000D02*
X249174000Y-81075000D01*
X245274000Y-83075000D02*
X249174000Y-83075000D01*
%TO.C,D9*%
X226224000Y-83202000D02*
X226224000Y-81202000D01*
X226224000Y-81202000D02*
X230124000Y-81202000D01*
X226224000Y-83202000D02*
X230124000Y-83202000D01*
%TO.C,D8*%
X207174000Y-83202000D02*
X207174000Y-81202000D01*
X207174000Y-81202000D02*
X211074000Y-81202000D01*
X207174000Y-83202000D02*
X211074000Y-83202000D01*
%TO.C,D7*%
X188124000Y-83202000D02*
X188124000Y-81202000D01*
X188124000Y-81202000D02*
X192024000Y-81202000D01*
X188124000Y-83202000D02*
X192024000Y-83202000D01*
%TO.C,D6*%
X169074000Y-83202000D02*
X169074000Y-81202000D01*
X169074000Y-81202000D02*
X172974000Y-81202000D01*
X169074000Y-83202000D02*
X172974000Y-83202000D01*
%TO.C,D5*%
X150023000Y-83202000D02*
X150023000Y-81202000D01*
X150023000Y-81202000D02*
X153923000Y-81202000D01*
X150023000Y-83202000D02*
X153923000Y-83202000D01*
%TO.C,D4*%
X130974000Y-83202000D02*
X130974000Y-81202000D01*
X130974000Y-81202000D02*
X134874000Y-81202000D01*
X130974000Y-83202000D02*
X134874000Y-83202000D01*
%TO.C,D3*%
X111924000Y-83202000D02*
X111924000Y-81202000D01*
X111924000Y-81202000D02*
X115824000Y-81202000D01*
X111924000Y-83202000D02*
X115824000Y-83202000D01*
%TO.C,D2*%
X92873000Y-83075000D02*
X92873000Y-81075000D01*
X92873000Y-81075000D02*
X96773000Y-81075000D01*
X92873000Y-83075000D02*
X96773000Y-83075000D01*
%TO.C,D1*%
X73824000Y-83202000D02*
X73824000Y-81202000D01*
X73824000Y-81202000D02*
X77724000Y-81202000D01*
X73824000Y-83202000D02*
X77724000Y-83202000D01*
%TO.C,R1*%
X64755500Y-68659258D02*
X64755500Y-68184742D01*
X65800500Y-68659258D02*
X65800500Y-68184742D01*
%TO.C,R2*%
X97169500Y-68659258D02*
X97169500Y-68184742D01*
X96124500Y-68659258D02*
X96124500Y-68184742D01*
%TO.C,U62*%
X166189000Y-150948000D02*
X166189000Y-151598000D01*
X166189000Y-151598000D02*
X166839000Y-151598000D01*
X173409000Y-145028000D02*
X173409000Y-144378000D01*
X173409000Y-144378000D02*
X172759000Y-144378000D01*
X173409000Y-150948000D02*
X173409000Y-151598000D01*
X173409000Y-151598000D02*
X172759000Y-151598000D01*
X166189000Y-145028000D02*
X166189000Y-144378000D01*
%TO.C,U63*%
X93243000Y-85155000D02*
X93243000Y-86955000D01*
X90023000Y-86955000D02*
X90023000Y-84505000D01*
%TO.C,U64*%
X157607000Y-144490000D02*
X154882000Y-144490000D01*
X154882000Y-144490000D02*
X154882000Y-144230000D01*
X157607000Y-144490000D02*
X160332000Y-144490000D01*
X160332000Y-144490000D02*
X160332000Y-144230000D01*
X157607000Y-139040000D02*
X154882000Y-139040000D01*
X154882000Y-139040000D02*
X154882000Y-139300000D01*
X157607000Y-139040000D02*
X160332000Y-139040000D01*
X160332000Y-139040000D02*
X160332000Y-139300000D01*
X160332000Y-139300000D02*
X162007000Y-139300000D01*
%TO.C,SW2*%
X87990000Y-107433000D02*
X87990000Y-106643000D01*
X94890000Y-106643000D02*
X94890000Y-107433000D01*
X93040000Y-105593000D02*
X91340000Y-105593000D01*
X94290000Y-108443000D02*
X88590000Y-108443000D01*
X91540000Y-109733000D02*
X91540000Y-108443000D01*
X92640000Y-109943000D02*
X91740000Y-109943000D01*
X92840000Y-108443000D02*
X92840000Y-109733000D01*
X91540000Y-109733000D02*
X91740000Y-109943000D01*
X92840000Y-109733000D02*
X92640000Y-109943000D01*
X90040000Y-105593000D02*
X89840000Y-105593000D01*
%TO.C,D62*%
D10*
X94178285Y-115801380D02*
X94178285Y-114801380D01*
X93940190Y-114801380D01*
X93797333Y-114849000D01*
X93702095Y-114944238D01*
X93654476Y-115039476D01*
X93606857Y-115229952D01*
X93606857Y-115372809D01*
X93654476Y-115563285D01*
X93702095Y-115658523D01*
X93797333Y-115753761D01*
X93940190Y-115801380D01*
X94178285Y-115801380D01*
X92749714Y-114801380D02*
X92940190Y-114801380D01*
X93035428Y-114849000D01*
X93083047Y-114896619D01*
X93178285Y-115039476D01*
X93225904Y-115229952D01*
X93225904Y-115610904D01*
X93178285Y-115706142D01*
X93130666Y-115753761D01*
X93035428Y-115801380D01*
X92844952Y-115801380D01*
X92749714Y-115753761D01*
X92702095Y-115706142D01*
X92654476Y-115610904D01*
X92654476Y-115372809D01*
X92702095Y-115277571D01*
X92749714Y-115229952D01*
X92844952Y-115182333D01*
X93035428Y-115182333D01*
X93130666Y-115229952D01*
X93178285Y-115277571D01*
X93225904Y-115372809D01*
X92273523Y-114896619D02*
X92225904Y-114849000D01*
X92130666Y-114801380D01*
X91892571Y-114801380D01*
X91797333Y-114849000D01*
X91749714Y-114896619D01*
X91702095Y-114991857D01*
X91702095Y-115087095D01*
X91749714Y-115229952D01*
X92321142Y-115801380D01*
X91702095Y-115801380D01*
%TO.C,C7*%
X161062666Y-147423142D02*
X161110285Y-147470761D01*
X161253142Y-147518380D01*
X161348380Y-147518380D01*
X161491238Y-147470761D01*
X161586476Y-147375523D01*
X161634095Y-147280285D01*
X161681714Y-147089809D01*
X161681714Y-146946952D01*
X161634095Y-146756476D01*
X161586476Y-146661238D01*
X161491238Y-146566000D01*
X161348380Y-146518380D01*
X161253142Y-146518380D01*
X161110285Y-146566000D01*
X161062666Y-146613619D01*
X160729333Y-146518380D02*
X160062666Y-146518380D01*
X160491238Y-147518380D01*
%TO.C,D61*%
X327699380Y-154139714D02*
X326699380Y-154139714D01*
X326699380Y-154377809D01*
X326747000Y-154520666D01*
X326842238Y-154615904D01*
X326937476Y-154663523D01*
X327127952Y-154711142D01*
X327270809Y-154711142D01*
X327461285Y-154663523D01*
X327556523Y-154615904D01*
X327651761Y-154520666D01*
X327699380Y-154377809D01*
X327699380Y-154139714D01*
X326699380Y-155568285D02*
X326699380Y-155377809D01*
X326747000Y-155282571D01*
X326794619Y-155234952D01*
X326937476Y-155139714D01*
X327127952Y-155092095D01*
X327508904Y-155092095D01*
X327604142Y-155139714D01*
X327651761Y-155187333D01*
X327699380Y-155282571D01*
X327699380Y-155473047D01*
X327651761Y-155568285D01*
X327604142Y-155615904D01*
X327508904Y-155663523D01*
X327270809Y-155663523D01*
X327175571Y-155615904D01*
X327127952Y-155568285D01*
X327080333Y-155473047D01*
X327080333Y-155282571D01*
X327127952Y-155187333D01*
X327175571Y-155139714D01*
X327270809Y-155092095D01*
X327699380Y-156615904D02*
X327699380Y-156044476D01*
X327699380Y-156330190D02*
X326699380Y-156330190D01*
X326842238Y-156234952D01*
X326937476Y-156139714D01*
X326985095Y-156044476D01*
%TO.C,D60*%
X324905380Y-154139714D02*
X323905380Y-154139714D01*
X323905380Y-154377809D01*
X323953000Y-154520666D01*
X324048238Y-154615904D01*
X324143476Y-154663523D01*
X324333952Y-154711142D01*
X324476809Y-154711142D01*
X324667285Y-154663523D01*
X324762523Y-154615904D01*
X324857761Y-154520666D01*
X324905380Y-154377809D01*
X324905380Y-154139714D01*
X323905380Y-155568285D02*
X323905380Y-155377809D01*
X323953000Y-155282571D01*
X324000619Y-155234952D01*
X324143476Y-155139714D01*
X324333952Y-155092095D01*
X324714904Y-155092095D01*
X324810142Y-155139714D01*
X324857761Y-155187333D01*
X324905380Y-155282571D01*
X324905380Y-155473047D01*
X324857761Y-155568285D01*
X324810142Y-155615904D01*
X324714904Y-155663523D01*
X324476809Y-155663523D01*
X324381571Y-155615904D01*
X324333952Y-155568285D01*
X324286333Y-155473047D01*
X324286333Y-155282571D01*
X324333952Y-155187333D01*
X324381571Y-155139714D01*
X324476809Y-155092095D01*
X323905380Y-156282571D02*
X323905380Y-156377809D01*
X323953000Y-156473047D01*
X324000619Y-156520666D01*
X324095857Y-156568285D01*
X324286333Y-156615904D01*
X324524428Y-156615904D01*
X324714904Y-156568285D01*
X324810142Y-156520666D01*
X324857761Y-156473047D01*
X324905380Y-156377809D01*
X324905380Y-156282571D01*
X324857761Y-156187333D01*
X324810142Y-156139714D01*
X324714904Y-156092095D01*
X324524428Y-156044476D01*
X324286333Y-156044476D01*
X324095857Y-156092095D01*
X324000619Y-156139714D01*
X323953000Y-156187333D01*
X323905380Y-156282571D01*
%TO.C,D59*%
X301410380Y-154393714D02*
X300410380Y-154393714D01*
X300410380Y-154631809D01*
X300458000Y-154774666D01*
X300553238Y-154869904D01*
X300648476Y-154917523D01*
X300838952Y-154965142D01*
X300981809Y-154965142D01*
X301172285Y-154917523D01*
X301267523Y-154869904D01*
X301362761Y-154774666D01*
X301410380Y-154631809D01*
X301410380Y-154393714D01*
X300410380Y-155869904D02*
X300410380Y-155393714D01*
X300886571Y-155346095D01*
X300838952Y-155393714D01*
X300791333Y-155488952D01*
X300791333Y-155727047D01*
X300838952Y-155822285D01*
X300886571Y-155869904D01*
X300981809Y-155917523D01*
X301219904Y-155917523D01*
X301315142Y-155869904D01*
X301362761Y-155822285D01*
X301410380Y-155727047D01*
X301410380Y-155488952D01*
X301362761Y-155393714D01*
X301315142Y-155346095D01*
X301410380Y-156393714D02*
X301410380Y-156584190D01*
X301362761Y-156679428D01*
X301315142Y-156727047D01*
X301172285Y-156822285D01*
X300981809Y-156869904D01*
X300600857Y-156869904D01*
X300505619Y-156822285D01*
X300458000Y-156774666D01*
X300410380Y-156679428D01*
X300410380Y-156488952D01*
X300458000Y-156393714D01*
X300505619Y-156346095D01*
X300600857Y-156298476D01*
X300838952Y-156298476D01*
X300934190Y-156346095D01*
X300981809Y-156393714D01*
X301029428Y-156488952D01*
X301029428Y-156679428D01*
X300981809Y-156774666D01*
X300934190Y-156822285D01*
X300838952Y-156869904D01*
%TO.C,D58*%
X277534380Y-154266714D02*
X276534380Y-154266714D01*
X276534380Y-154504809D01*
X276582000Y-154647666D01*
X276677238Y-154742904D01*
X276772476Y-154790523D01*
X276962952Y-154838142D01*
X277105809Y-154838142D01*
X277296285Y-154790523D01*
X277391523Y-154742904D01*
X277486761Y-154647666D01*
X277534380Y-154504809D01*
X277534380Y-154266714D01*
X276534380Y-155742904D02*
X276534380Y-155266714D01*
X277010571Y-155219095D01*
X276962952Y-155266714D01*
X276915333Y-155361952D01*
X276915333Y-155600047D01*
X276962952Y-155695285D01*
X277010571Y-155742904D01*
X277105809Y-155790523D01*
X277343904Y-155790523D01*
X277439142Y-155742904D01*
X277486761Y-155695285D01*
X277534380Y-155600047D01*
X277534380Y-155361952D01*
X277486761Y-155266714D01*
X277439142Y-155219095D01*
X276962952Y-156361952D02*
X276915333Y-156266714D01*
X276867714Y-156219095D01*
X276772476Y-156171476D01*
X276724857Y-156171476D01*
X276629619Y-156219095D01*
X276582000Y-156266714D01*
X276534380Y-156361952D01*
X276534380Y-156552428D01*
X276582000Y-156647666D01*
X276629619Y-156695285D01*
X276724857Y-156742904D01*
X276772476Y-156742904D01*
X276867714Y-156695285D01*
X276915333Y-156647666D01*
X276962952Y-156552428D01*
X276962952Y-156361952D01*
X277010571Y-156266714D01*
X277058190Y-156219095D01*
X277153428Y-156171476D01*
X277343904Y-156171476D01*
X277439142Y-156219095D01*
X277486761Y-156266714D01*
X277534380Y-156361952D01*
X277534380Y-156552428D01*
X277486761Y-156647666D01*
X277439142Y-156695285D01*
X277343904Y-156742904D01*
X277153428Y-156742904D01*
X277058190Y-156695285D01*
X277010571Y-156647666D01*
X276962952Y-156552428D01*
%TO.C,D57*%
X206414380Y-154393714D02*
X205414380Y-154393714D01*
X205414380Y-154631809D01*
X205462000Y-154774666D01*
X205557238Y-154869904D01*
X205652476Y-154917523D01*
X205842952Y-154965142D01*
X205985809Y-154965142D01*
X206176285Y-154917523D01*
X206271523Y-154869904D01*
X206366761Y-154774666D01*
X206414380Y-154631809D01*
X206414380Y-154393714D01*
X205414380Y-155869904D02*
X205414380Y-155393714D01*
X205890571Y-155346095D01*
X205842952Y-155393714D01*
X205795333Y-155488952D01*
X205795333Y-155727047D01*
X205842952Y-155822285D01*
X205890571Y-155869904D01*
X205985809Y-155917523D01*
X206223904Y-155917523D01*
X206319142Y-155869904D01*
X206366761Y-155822285D01*
X206414380Y-155727047D01*
X206414380Y-155488952D01*
X206366761Y-155393714D01*
X206319142Y-155346095D01*
X205414380Y-156250857D02*
X205414380Y-156917523D01*
X206414380Y-156488952D01*
%TO.C,D56*%
X134659380Y-154520714D02*
X133659380Y-154520714D01*
X133659380Y-154758809D01*
X133707000Y-154901666D01*
X133802238Y-154996904D01*
X133897476Y-155044523D01*
X134087952Y-155092142D01*
X134230809Y-155092142D01*
X134421285Y-155044523D01*
X134516523Y-154996904D01*
X134611761Y-154901666D01*
X134659380Y-154758809D01*
X134659380Y-154520714D01*
X133659380Y-155996904D02*
X133659380Y-155520714D01*
X134135571Y-155473095D01*
X134087952Y-155520714D01*
X134040333Y-155615952D01*
X134040333Y-155854047D01*
X134087952Y-155949285D01*
X134135571Y-155996904D01*
X134230809Y-156044523D01*
X134468904Y-156044523D01*
X134564142Y-155996904D01*
X134611761Y-155949285D01*
X134659380Y-155854047D01*
X134659380Y-155615952D01*
X134611761Y-155520714D01*
X134564142Y-155473095D01*
X133659380Y-156901666D02*
X133659380Y-156711190D01*
X133707000Y-156615952D01*
X133754619Y-156568333D01*
X133897476Y-156473095D01*
X134087952Y-156425476D01*
X134468904Y-156425476D01*
X134564142Y-156473095D01*
X134611761Y-156520714D01*
X134659380Y-156615952D01*
X134659380Y-156806428D01*
X134611761Y-156901666D01*
X134564142Y-156949285D01*
X134468904Y-156996904D01*
X134230809Y-156996904D01*
X134135571Y-156949285D01*
X134087952Y-156901666D01*
X134040333Y-156806428D01*
X134040333Y-156615952D01*
X134087952Y-156520714D01*
X134135571Y-156473095D01*
X134230809Y-156425476D01*
%TO.C,D55*%
X110910380Y-154393714D02*
X109910380Y-154393714D01*
X109910380Y-154631809D01*
X109958000Y-154774666D01*
X110053238Y-154869904D01*
X110148476Y-154917523D01*
X110338952Y-154965142D01*
X110481809Y-154965142D01*
X110672285Y-154917523D01*
X110767523Y-154869904D01*
X110862761Y-154774666D01*
X110910380Y-154631809D01*
X110910380Y-154393714D01*
X109910380Y-155869904D02*
X109910380Y-155393714D01*
X110386571Y-155346095D01*
X110338952Y-155393714D01*
X110291333Y-155488952D01*
X110291333Y-155727047D01*
X110338952Y-155822285D01*
X110386571Y-155869904D01*
X110481809Y-155917523D01*
X110719904Y-155917523D01*
X110815142Y-155869904D01*
X110862761Y-155822285D01*
X110910380Y-155727047D01*
X110910380Y-155488952D01*
X110862761Y-155393714D01*
X110815142Y-155346095D01*
X109910380Y-156822285D02*
X109910380Y-156346095D01*
X110386571Y-156298476D01*
X110338952Y-156346095D01*
X110291333Y-156441333D01*
X110291333Y-156679428D01*
X110338952Y-156774666D01*
X110386571Y-156822285D01*
X110481809Y-156869904D01*
X110719904Y-156869904D01*
X110815142Y-156822285D01*
X110862761Y-156774666D01*
X110910380Y-156679428D01*
X110910380Y-156441333D01*
X110862761Y-156346095D01*
X110815142Y-156298476D01*
%TO.C,D54*%
X87034380Y-154393714D02*
X86034380Y-154393714D01*
X86034380Y-154631809D01*
X86082000Y-154774666D01*
X86177238Y-154869904D01*
X86272476Y-154917523D01*
X86462952Y-154965142D01*
X86605809Y-154965142D01*
X86796285Y-154917523D01*
X86891523Y-154869904D01*
X86986761Y-154774666D01*
X87034380Y-154631809D01*
X87034380Y-154393714D01*
X86034380Y-155869904D02*
X86034380Y-155393714D01*
X86510571Y-155346095D01*
X86462952Y-155393714D01*
X86415333Y-155488952D01*
X86415333Y-155727047D01*
X86462952Y-155822285D01*
X86510571Y-155869904D01*
X86605809Y-155917523D01*
X86843904Y-155917523D01*
X86939142Y-155869904D01*
X86986761Y-155822285D01*
X87034380Y-155727047D01*
X87034380Y-155488952D01*
X86986761Y-155393714D01*
X86939142Y-155346095D01*
X86367714Y-156774666D02*
X87034380Y-156774666D01*
X85986761Y-156536571D02*
X86701047Y-156298476D01*
X86701047Y-156917523D01*
%TO.C,D53*%
X328271380Y-127595714D02*
X327271380Y-127595714D01*
X327271380Y-127833809D01*
X327319000Y-127976666D01*
X327414238Y-128071904D01*
X327509476Y-128119523D01*
X327699952Y-128167142D01*
X327842809Y-128167142D01*
X328033285Y-128119523D01*
X328128523Y-128071904D01*
X328223761Y-127976666D01*
X328271380Y-127833809D01*
X328271380Y-127595714D01*
X327271380Y-129071904D02*
X327271380Y-128595714D01*
X327747571Y-128548095D01*
X327699952Y-128595714D01*
X327652333Y-128690952D01*
X327652333Y-128929047D01*
X327699952Y-129024285D01*
X327747571Y-129071904D01*
X327842809Y-129119523D01*
X328080904Y-129119523D01*
X328176142Y-129071904D01*
X328223761Y-129024285D01*
X328271380Y-128929047D01*
X328271380Y-128690952D01*
X328223761Y-128595714D01*
X328176142Y-128548095D01*
X327271380Y-129452857D02*
X327271380Y-130071904D01*
X327652333Y-129738571D01*
X327652333Y-129881428D01*
X327699952Y-129976666D01*
X327747571Y-130024285D01*
X327842809Y-130071904D01*
X328080904Y-130071904D01*
X328176142Y-130024285D01*
X328223761Y-129976666D01*
X328271380Y-129881428D01*
X328271380Y-129595714D01*
X328223761Y-129500476D01*
X328176142Y-129452857D01*
%TO.C,D52*%
X292457380Y-127851714D02*
X291457380Y-127851714D01*
X291457380Y-128089809D01*
X291505000Y-128232666D01*
X291600238Y-128327904D01*
X291695476Y-128375523D01*
X291885952Y-128423142D01*
X292028809Y-128423142D01*
X292219285Y-128375523D01*
X292314523Y-128327904D01*
X292409761Y-128232666D01*
X292457380Y-128089809D01*
X292457380Y-127851714D01*
X291457380Y-129327904D02*
X291457380Y-128851714D01*
X291933571Y-128804095D01*
X291885952Y-128851714D01*
X291838333Y-128946952D01*
X291838333Y-129185047D01*
X291885952Y-129280285D01*
X291933571Y-129327904D01*
X292028809Y-129375523D01*
X292266904Y-129375523D01*
X292362142Y-129327904D01*
X292409761Y-129280285D01*
X292457380Y-129185047D01*
X292457380Y-128946952D01*
X292409761Y-128851714D01*
X292362142Y-128804095D01*
X291552619Y-129756476D02*
X291505000Y-129804095D01*
X291457380Y-129899333D01*
X291457380Y-130137428D01*
X291505000Y-130232666D01*
X291552619Y-130280285D01*
X291647857Y-130327904D01*
X291743095Y-130327904D01*
X291885952Y-130280285D01*
X292457380Y-129708857D01*
X292457380Y-130327904D01*
%TO.C,D51*%
X273407380Y-127724714D02*
X272407380Y-127724714D01*
X272407380Y-127962809D01*
X272455000Y-128105666D01*
X272550238Y-128200904D01*
X272645476Y-128248523D01*
X272835952Y-128296142D01*
X272978809Y-128296142D01*
X273169285Y-128248523D01*
X273264523Y-128200904D01*
X273359761Y-128105666D01*
X273407380Y-127962809D01*
X273407380Y-127724714D01*
X272407380Y-129200904D02*
X272407380Y-128724714D01*
X272883571Y-128677095D01*
X272835952Y-128724714D01*
X272788333Y-128819952D01*
X272788333Y-129058047D01*
X272835952Y-129153285D01*
X272883571Y-129200904D01*
X272978809Y-129248523D01*
X273216904Y-129248523D01*
X273312142Y-129200904D01*
X273359761Y-129153285D01*
X273407380Y-129058047D01*
X273407380Y-128819952D01*
X273359761Y-128724714D01*
X273312142Y-128677095D01*
X273407380Y-130200904D02*
X273407380Y-129629476D01*
X273407380Y-129915190D02*
X272407380Y-129915190D01*
X272550238Y-129819952D01*
X272645476Y-129724714D01*
X272693095Y-129629476D01*
%TO.C,D50*%
X254357380Y-127724714D02*
X253357380Y-127724714D01*
X253357380Y-127962809D01*
X253405000Y-128105666D01*
X253500238Y-128200904D01*
X253595476Y-128248523D01*
X253785952Y-128296142D01*
X253928809Y-128296142D01*
X254119285Y-128248523D01*
X254214523Y-128200904D01*
X254309761Y-128105666D01*
X254357380Y-127962809D01*
X254357380Y-127724714D01*
X253357380Y-129200904D02*
X253357380Y-128724714D01*
X253833571Y-128677095D01*
X253785952Y-128724714D01*
X253738333Y-128819952D01*
X253738333Y-129058047D01*
X253785952Y-129153285D01*
X253833571Y-129200904D01*
X253928809Y-129248523D01*
X254166904Y-129248523D01*
X254262142Y-129200904D01*
X254309761Y-129153285D01*
X254357380Y-129058047D01*
X254357380Y-128819952D01*
X254309761Y-128724714D01*
X254262142Y-128677095D01*
X253357380Y-129867571D02*
X253357380Y-129962809D01*
X253405000Y-130058047D01*
X253452619Y-130105666D01*
X253547857Y-130153285D01*
X253738333Y-130200904D01*
X253976428Y-130200904D01*
X254166904Y-130153285D01*
X254262142Y-130105666D01*
X254309761Y-130058047D01*
X254357380Y-129962809D01*
X254357380Y-129867571D01*
X254309761Y-129772333D01*
X254262142Y-129724714D01*
X254166904Y-129677095D01*
X253976428Y-129629476D01*
X253738333Y-129629476D01*
X253547857Y-129677095D01*
X253452619Y-129724714D01*
X253405000Y-129772333D01*
X253357380Y-129867571D01*
%TO.C,D49*%
X235307380Y-127723714D02*
X234307380Y-127723714D01*
X234307380Y-127961809D01*
X234355000Y-128104666D01*
X234450238Y-128199904D01*
X234545476Y-128247523D01*
X234735952Y-128295142D01*
X234878809Y-128295142D01*
X235069285Y-128247523D01*
X235164523Y-128199904D01*
X235259761Y-128104666D01*
X235307380Y-127961809D01*
X235307380Y-127723714D01*
X234640714Y-129152285D02*
X235307380Y-129152285D01*
X234259761Y-128914190D02*
X234974047Y-128676095D01*
X234974047Y-129295142D01*
X235307380Y-129723714D02*
X235307380Y-129914190D01*
X235259761Y-130009428D01*
X235212142Y-130057047D01*
X235069285Y-130152285D01*
X234878809Y-130199904D01*
X234497857Y-130199904D01*
X234402619Y-130152285D01*
X234355000Y-130104666D01*
X234307380Y-130009428D01*
X234307380Y-129818952D01*
X234355000Y-129723714D01*
X234402619Y-129676095D01*
X234497857Y-129628476D01*
X234735952Y-129628476D01*
X234831190Y-129676095D01*
X234878809Y-129723714D01*
X234926428Y-129818952D01*
X234926428Y-130009428D01*
X234878809Y-130104666D01*
X234831190Y-130152285D01*
X234735952Y-130199904D01*
%TO.C,D48*%
X216257380Y-127724714D02*
X215257380Y-127724714D01*
X215257380Y-127962809D01*
X215305000Y-128105666D01*
X215400238Y-128200904D01*
X215495476Y-128248523D01*
X215685952Y-128296142D01*
X215828809Y-128296142D01*
X216019285Y-128248523D01*
X216114523Y-128200904D01*
X216209761Y-128105666D01*
X216257380Y-127962809D01*
X216257380Y-127724714D01*
X215590714Y-129153285D02*
X216257380Y-129153285D01*
X215209761Y-128915190D02*
X215924047Y-128677095D01*
X215924047Y-129296142D01*
X215685952Y-129819952D02*
X215638333Y-129724714D01*
X215590714Y-129677095D01*
X215495476Y-129629476D01*
X215447857Y-129629476D01*
X215352619Y-129677095D01*
X215305000Y-129724714D01*
X215257380Y-129819952D01*
X215257380Y-130010428D01*
X215305000Y-130105666D01*
X215352619Y-130153285D01*
X215447857Y-130200904D01*
X215495476Y-130200904D01*
X215590714Y-130153285D01*
X215638333Y-130105666D01*
X215685952Y-130010428D01*
X215685952Y-129819952D01*
X215733571Y-129724714D01*
X215781190Y-129677095D01*
X215876428Y-129629476D01*
X216066904Y-129629476D01*
X216162142Y-129677095D01*
X216209761Y-129724714D01*
X216257380Y-129819952D01*
X216257380Y-130010428D01*
X216209761Y-130105666D01*
X216162142Y-130153285D01*
X216066904Y-130200904D01*
X215876428Y-130200904D01*
X215781190Y-130153285D01*
X215733571Y-130105666D01*
X215685952Y-130010428D01*
%TO.C,D47*%
X197207380Y-127724714D02*
X196207380Y-127724714D01*
X196207380Y-127962809D01*
X196255000Y-128105666D01*
X196350238Y-128200904D01*
X196445476Y-128248523D01*
X196635952Y-128296142D01*
X196778809Y-128296142D01*
X196969285Y-128248523D01*
X197064523Y-128200904D01*
X197159761Y-128105666D01*
X197207380Y-127962809D01*
X197207380Y-127724714D01*
X196540714Y-129153285D02*
X197207380Y-129153285D01*
X196159761Y-128915190D02*
X196874047Y-128677095D01*
X196874047Y-129296142D01*
X196207380Y-129581857D02*
X196207380Y-130248523D01*
X197207380Y-129819952D01*
%TO.C,D46*%
X178157380Y-127724714D02*
X177157380Y-127724714D01*
X177157380Y-127962809D01*
X177205000Y-128105666D01*
X177300238Y-128200904D01*
X177395476Y-128248523D01*
X177585952Y-128296142D01*
X177728809Y-128296142D01*
X177919285Y-128248523D01*
X178014523Y-128200904D01*
X178109761Y-128105666D01*
X178157380Y-127962809D01*
X178157380Y-127724714D01*
X177490714Y-129153285D02*
X178157380Y-129153285D01*
X177109761Y-128915190D02*
X177824047Y-128677095D01*
X177824047Y-129296142D01*
X177157380Y-130105666D02*
X177157380Y-129915190D01*
X177205000Y-129819952D01*
X177252619Y-129772333D01*
X177395476Y-129677095D01*
X177585952Y-129629476D01*
X177966904Y-129629476D01*
X178062142Y-129677095D01*
X178109761Y-129724714D01*
X178157380Y-129819952D01*
X178157380Y-130010428D01*
X178109761Y-130105666D01*
X178062142Y-130153285D01*
X177966904Y-130200904D01*
X177728809Y-130200904D01*
X177633571Y-130153285D01*
X177585952Y-130105666D01*
X177538333Y-130010428D01*
X177538333Y-129819952D01*
X177585952Y-129724714D01*
X177633571Y-129677095D01*
X177728809Y-129629476D01*
%TO.C,D45*%
X159107380Y-127724714D02*
X158107380Y-127724714D01*
X158107380Y-127962809D01*
X158155000Y-128105666D01*
X158250238Y-128200904D01*
X158345476Y-128248523D01*
X158535952Y-128296142D01*
X158678809Y-128296142D01*
X158869285Y-128248523D01*
X158964523Y-128200904D01*
X159059761Y-128105666D01*
X159107380Y-127962809D01*
X159107380Y-127724714D01*
X158440714Y-129153285D02*
X159107380Y-129153285D01*
X158059761Y-128915190D02*
X158774047Y-128677095D01*
X158774047Y-129296142D01*
X158107380Y-130153285D02*
X158107380Y-129677095D01*
X158583571Y-129629476D01*
X158535952Y-129677095D01*
X158488333Y-129772333D01*
X158488333Y-130010428D01*
X158535952Y-130105666D01*
X158583571Y-130153285D01*
X158678809Y-130200904D01*
X158916904Y-130200904D01*
X159012142Y-130153285D01*
X159059761Y-130105666D01*
X159107380Y-130010428D01*
X159107380Y-129772333D01*
X159059761Y-129677095D01*
X159012142Y-129629476D01*
%TO.C,D44*%
X140057380Y-127724714D02*
X139057380Y-127724714D01*
X139057380Y-127962809D01*
X139105000Y-128105666D01*
X139200238Y-128200904D01*
X139295476Y-128248523D01*
X139485952Y-128296142D01*
X139628809Y-128296142D01*
X139819285Y-128248523D01*
X139914523Y-128200904D01*
X140009761Y-128105666D01*
X140057380Y-127962809D01*
X140057380Y-127724714D01*
X139390714Y-129153285D02*
X140057380Y-129153285D01*
X139009761Y-128915190D02*
X139724047Y-128677095D01*
X139724047Y-129296142D01*
X139390714Y-130105666D02*
X140057380Y-130105666D01*
X139009761Y-129867571D02*
X139724047Y-129629476D01*
X139724047Y-130248523D01*
%TO.C,D43*%
X120880380Y-127724714D02*
X119880380Y-127724714D01*
X119880380Y-127962809D01*
X119928000Y-128105666D01*
X120023238Y-128200904D01*
X120118476Y-128248523D01*
X120308952Y-128296142D01*
X120451809Y-128296142D01*
X120642285Y-128248523D01*
X120737523Y-128200904D01*
X120832761Y-128105666D01*
X120880380Y-127962809D01*
X120880380Y-127724714D01*
X120213714Y-129153285D02*
X120880380Y-129153285D01*
X119832761Y-128915190D02*
X120547047Y-128677095D01*
X120547047Y-129296142D01*
X119880380Y-129581857D02*
X119880380Y-130200904D01*
X120261333Y-129867571D01*
X120261333Y-130010428D01*
X120308952Y-130105666D01*
X120356571Y-130153285D01*
X120451809Y-130200904D01*
X120689904Y-130200904D01*
X120785142Y-130153285D01*
X120832761Y-130105666D01*
X120880380Y-130010428D01*
X120880380Y-129724714D01*
X120832761Y-129629476D01*
X120785142Y-129581857D01*
%TO.C,D42*%
X90019380Y-127724714D02*
X89019380Y-127724714D01*
X89019380Y-127962809D01*
X89067000Y-128105666D01*
X89162238Y-128200904D01*
X89257476Y-128248523D01*
X89447952Y-128296142D01*
X89590809Y-128296142D01*
X89781285Y-128248523D01*
X89876523Y-128200904D01*
X89971761Y-128105666D01*
X90019380Y-127962809D01*
X90019380Y-127724714D01*
X89352714Y-129153285D02*
X90019380Y-129153285D01*
X88971761Y-128915190D02*
X89686047Y-128677095D01*
X89686047Y-129296142D01*
X89114619Y-129629476D02*
X89067000Y-129677095D01*
X89019380Y-129772333D01*
X89019380Y-130010428D01*
X89067000Y-130105666D01*
X89114619Y-130153285D01*
X89209857Y-130200904D01*
X89305095Y-130200904D01*
X89447952Y-130153285D01*
X90019380Y-129581857D01*
X90019380Y-130200904D01*
%TO.C,D41*%
X340526380Y-110451714D02*
X339526380Y-110451714D01*
X339526380Y-110689809D01*
X339574000Y-110832666D01*
X339669238Y-110927904D01*
X339764476Y-110975523D01*
X339954952Y-111023142D01*
X340097809Y-111023142D01*
X340288285Y-110975523D01*
X340383523Y-110927904D01*
X340478761Y-110832666D01*
X340526380Y-110689809D01*
X340526380Y-110451714D01*
X339859714Y-111880285D02*
X340526380Y-111880285D01*
X339478761Y-111642190D02*
X340193047Y-111404095D01*
X340193047Y-112023142D01*
X340526380Y-112927904D02*
X340526380Y-112356476D01*
X340526380Y-112642190D02*
X339526380Y-112642190D01*
X339669238Y-112546952D01*
X339764476Y-112451714D01*
X339812095Y-112356476D01*
%TO.C,D40*%
X301189285Y-122627380D02*
X301189285Y-121627380D01*
X300951190Y-121627380D01*
X300808333Y-121675000D01*
X300713095Y-121770238D01*
X300665476Y-121865476D01*
X300617857Y-122055952D01*
X300617857Y-122198809D01*
X300665476Y-122389285D01*
X300713095Y-122484523D01*
X300808333Y-122579761D01*
X300951190Y-122627380D01*
X301189285Y-122627380D01*
X299760714Y-121960714D02*
X299760714Y-122627380D01*
X299998809Y-121579761D02*
X300236904Y-122294047D01*
X299617857Y-122294047D01*
X299046428Y-121627380D02*
X298951190Y-121627380D01*
X298855952Y-121675000D01*
X298808333Y-121722619D01*
X298760714Y-121817857D01*
X298713095Y-122008333D01*
X298713095Y-122246428D01*
X298760714Y-122436904D01*
X298808333Y-122532142D01*
X298855952Y-122579761D01*
X298951190Y-122627380D01*
X299046428Y-122627380D01*
X299141666Y-122579761D01*
X299189285Y-122532142D01*
X299236904Y-122436904D01*
X299284523Y-122246428D01*
X299284523Y-122008333D01*
X299236904Y-121817857D01*
X299189285Y-121722619D01*
X299141666Y-121675000D01*
X299046428Y-121627380D01*
%TO.C,D39*%
X282139285Y-122627380D02*
X282139285Y-121627380D01*
X281901190Y-121627380D01*
X281758333Y-121675000D01*
X281663095Y-121770238D01*
X281615476Y-121865476D01*
X281567857Y-122055952D01*
X281567857Y-122198809D01*
X281615476Y-122389285D01*
X281663095Y-122484523D01*
X281758333Y-122579761D01*
X281901190Y-122627380D01*
X282139285Y-122627380D01*
X281234523Y-121627380D02*
X280615476Y-121627380D01*
X280948809Y-122008333D01*
X280805952Y-122008333D01*
X280710714Y-122055952D01*
X280663095Y-122103571D01*
X280615476Y-122198809D01*
X280615476Y-122436904D01*
X280663095Y-122532142D01*
X280710714Y-122579761D01*
X280805952Y-122627380D01*
X281091666Y-122627380D01*
X281186904Y-122579761D01*
X281234523Y-122532142D01*
X280139285Y-122627380D02*
X279948809Y-122627380D01*
X279853571Y-122579761D01*
X279805952Y-122532142D01*
X279710714Y-122389285D01*
X279663095Y-122198809D01*
X279663095Y-121817857D01*
X279710714Y-121722619D01*
X279758333Y-121675000D01*
X279853571Y-121627380D01*
X280044047Y-121627380D01*
X280139285Y-121675000D01*
X280186904Y-121722619D01*
X280234523Y-121817857D01*
X280234523Y-122055952D01*
X280186904Y-122151190D01*
X280139285Y-122198809D01*
X280044047Y-122246428D01*
X279853571Y-122246428D01*
X279758333Y-122198809D01*
X279710714Y-122151190D01*
X279663095Y-122055952D01*
%TO.C,D38*%
X263089285Y-122627380D02*
X263089285Y-121627380D01*
X262851190Y-121627380D01*
X262708333Y-121675000D01*
X262613095Y-121770238D01*
X262565476Y-121865476D01*
X262517857Y-122055952D01*
X262517857Y-122198809D01*
X262565476Y-122389285D01*
X262613095Y-122484523D01*
X262708333Y-122579761D01*
X262851190Y-122627380D01*
X263089285Y-122627380D01*
X262184523Y-121627380D02*
X261565476Y-121627380D01*
X261898809Y-122008333D01*
X261755952Y-122008333D01*
X261660714Y-122055952D01*
X261613095Y-122103571D01*
X261565476Y-122198809D01*
X261565476Y-122436904D01*
X261613095Y-122532142D01*
X261660714Y-122579761D01*
X261755952Y-122627380D01*
X262041666Y-122627380D01*
X262136904Y-122579761D01*
X262184523Y-122532142D01*
X260994047Y-122055952D02*
X261089285Y-122008333D01*
X261136904Y-121960714D01*
X261184523Y-121865476D01*
X261184523Y-121817857D01*
X261136904Y-121722619D01*
X261089285Y-121675000D01*
X260994047Y-121627380D01*
X260803571Y-121627380D01*
X260708333Y-121675000D01*
X260660714Y-121722619D01*
X260613095Y-121817857D01*
X260613095Y-121865476D01*
X260660714Y-121960714D01*
X260708333Y-122008333D01*
X260803571Y-122055952D01*
X260994047Y-122055952D01*
X261089285Y-122103571D01*
X261136904Y-122151190D01*
X261184523Y-122246428D01*
X261184523Y-122436904D01*
X261136904Y-122532142D01*
X261089285Y-122579761D01*
X260994047Y-122627380D01*
X260803571Y-122627380D01*
X260708333Y-122579761D01*
X260660714Y-122532142D01*
X260613095Y-122436904D01*
X260613095Y-122246428D01*
X260660714Y-122151190D01*
X260708333Y-122103571D01*
X260803571Y-122055952D01*
%TO.C,D37*%
X244039285Y-122627380D02*
X244039285Y-121627380D01*
X243801190Y-121627380D01*
X243658333Y-121675000D01*
X243563095Y-121770238D01*
X243515476Y-121865476D01*
X243467857Y-122055952D01*
X243467857Y-122198809D01*
X243515476Y-122389285D01*
X243563095Y-122484523D01*
X243658333Y-122579761D01*
X243801190Y-122627380D01*
X244039285Y-122627380D01*
X243134523Y-121627380D02*
X242515476Y-121627380D01*
X242848809Y-122008333D01*
X242705952Y-122008333D01*
X242610714Y-122055952D01*
X242563095Y-122103571D01*
X242515476Y-122198809D01*
X242515476Y-122436904D01*
X242563095Y-122532142D01*
X242610714Y-122579761D01*
X242705952Y-122627380D01*
X242991666Y-122627380D01*
X243086904Y-122579761D01*
X243134523Y-122532142D01*
X242182142Y-121627380D02*
X241515476Y-121627380D01*
X241944047Y-122627380D01*
%TO.C,D36*%
X224989285Y-122627380D02*
X224989285Y-121627380D01*
X224751190Y-121627380D01*
X224608333Y-121675000D01*
X224513095Y-121770238D01*
X224465476Y-121865476D01*
X224417857Y-122055952D01*
X224417857Y-122198809D01*
X224465476Y-122389285D01*
X224513095Y-122484523D01*
X224608333Y-122579761D01*
X224751190Y-122627380D01*
X224989285Y-122627380D01*
X224084523Y-121627380D02*
X223465476Y-121627380D01*
X223798809Y-122008333D01*
X223655952Y-122008333D01*
X223560714Y-122055952D01*
X223513095Y-122103571D01*
X223465476Y-122198809D01*
X223465476Y-122436904D01*
X223513095Y-122532142D01*
X223560714Y-122579761D01*
X223655952Y-122627380D01*
X223941666Y-122627380D01*
X224036904Y-122579761D01*
X224084523Y-122532142D01*
X222608333Y-121627380D02*
X222798809Y-121627380D01*
X222894047Y-121675000D01*
X222941666Y-121722619D01*
X223036904Y-121865476D01*
X223084523Y-122055952D01*
X223084523Y-122436904D01*
X223036904Y-122532142D01*
X222989285Y-122579761D01*
X222894047Y-122627380D01*
X222703571Y-122627380D01*
X222608333Y-122579761D01*
X222560714Y-122532142D01*
X222513095Y-122436904D01*
X222513095Y-122198809D01*
X222560714Y-122103571D01*
X222608333Y-122055952D01*
X222703571Y-122008333D01*
X222894047Y-122008333D01*
X222989285Y-122055952D01*
X223036904Y-122103571D01*
X223084523Y-122198809D01*
%TO.C,D35*%
X205939285Y-122627380D02*
X205939285Y-121627380D01*
X205701190Y-121627380D01*
X205558333Y-121675000D01*
X205463095Y-121770238D01*
X205415476Y-121865476D01*
X205367857Y-122055952D01*
X205367857Y-122198809D01*
X205415476Y-122389285D01*
X205463095Y-122484523D01*
X205558333Y-122579761D01*
X205701190Y-122627380D01*
X205939285Y-122627380D01*
X205034523Y-121627380D02*
X204415476Y-121627380D01*
X204748809Y-122008333D01*
X204605952Y-122008333D01*
X204510714Y-122055952D01*
X204463095Y-122103571D01*
X204415476Y-122198809D01*
X204415476Y-122436904D01*
X204463095Y-122532142D01*
X204510714Y-122579761D01*
X204605952Y-122627380D01*
X204891666Y-122627380D01*
X204986904Y-122579761D01*
X205034523Y-122532142D01*
X203510714Y-121627380D02*
X203986904Y-121627380D01*
X204034523Y-122103571D01*
X203986904Y-122055952D01*
X203891666Y-122008333D01*
X203653571Y-122008333D01*
X203558333Y-122055952D01*
X203510714Y-122103571D01*
X203463095Y-122198809D01*
X203463095Y-122436904D01*
X203510714Y-122532142D01*
X203558333Y-122579761D01*
X203653571Y-122627380D01*
X203891666Y-122627380D01*
X203986904Y-122579761D01*
X204034523Y-122532142D01*
%TO.C,D34*%
X186889285Y-122627380D02*
X186889285Y-121627380D01*
X186651190Y-121627380D01*
X186508333Y-121675000D01*
X186413095Y-121770238D01*
X186365476Y-121865476D01*
X186317857Y-122055952D01*
X186317857Y-122198809D01*
X186365476Y-122389285D01*
X186413095Y-122484523D01*
X186508333Y-122579761D01*
X186651190Y-122627380D01*
X186889285Y-122627380D01*
X185984523Y-121627380D02*
X185365476Y-121627380D01*
X185698809Y-122008333D01*
X185555952Y-122008333D01*
X185460714Y-122055952D01*
X185413095Y-122103571D01*
X185365476Y-122198809D01*
X185365476Y-122436904D01*
X185413095Y-122532142D01*
X185460714Y-122579761D01*
X185555952Y-122627380D01*
X185841666Y-122627380D01*
X185936904Y-122579761D01*
X185984523Y-122532142D01*
X184508333Y-121960714D02*
X184508333Y-122627380D01*
X184746428Y-121579761D02*
X184984523Y-122294047D01*
X184365476Y-122294047D01*
%TO.C,D33*%
X167712285Y-122627380D02*
X167712285Y-121627380D01*
X167474190Y-121627380D01*
X167331333Y-121675000D01*
X167236095Y-121770238D01*
X167188476Y-121865476D01*
X167140857Y-122055952D01*
X167140857Y-122198809D01*
X167188476Y-122389285D01*
X167236095Y-122484523D01*
X167331333Y-122579761D01*
X167474190Y-122627380D01*
X167712285Y-122627380D01*
X166807523Y-121627380D02*
X166188476Y-121627380D01*
X166521809Y-122008333D01*
X166378952Y-122008333D01*
X166283714Y-122055952D01*
X166236095Y-122103571D01*
X166188476Y-122198809D01*
X166188476Y-122436904D01*
X166236095Y-122532142D01*
X166283714Y-122579761D01*
X166378952Y-122627380D01*
X166664666Y-122627380D01*
X166759904Y-122579761D01*
X166807523Y-122532142D01*
X165855142Y-121627380D02*
X165236095Y-121627380D01*
X165569428Y-122008333D01*
X165426571Y-122008333D01*
X165331333Y-122055952D01*
X165283714Y-122103571D01*
X165236095Y-122198809D01*
X165236095Y-122436904D01*
X165283714Y-122532142D01*
X165331333Y-122579761D01*
X165426571Y-122627380D01*
X165712285Y-122627380D01*
X165807523Y-122579761D01*
X165855142Y-122532142D01*
%TO.C,D32*%
X148788285Y-122627380D02*
X148788285Y-121627380D01*
X148550190Y-121627380D01*
X148407333Y-121675000D01*
X148312095Y-121770238D01*
X148264476Y-121865476D01*
X148216857Y-122055952D01*
X148216857Y-122198809D01*
X148264476Y-122389285D01*
X148312095Y-122484523D01*
X148407333Y-122579761D01*
X148550190Y-122627380D01*
X148788285Y-122627380D01*
X147883523Y-121627380D02*
X147264476Y-121627380D01*
X147597809Y-122008333D01*
X147454952Y-122008333D01*
X147359714Y-122055952D01*
X147312095Y-122103571D01*
X147264476Y-122198809D01*
X147264476Y-122436904D01*
X147312095Y-122532142D01*
X147359714Y-122579761D01*
X147454952Y-122627380D01*
X147740666Y-122627380D01*
X147835904Y-122579761D01*
X147883523Y-122532142D01*
X146883523Y-121722619D02*
X146835904Y-121675000D01*
X146740666Y-121627380D01*
X146502571Y-121627380D01*
X146407333Y-121675000D01*
X146359714Y-121722619D01*
X146312095Y-121817857D01*
X146312095Y-121913095D01*
X146359714Y-122055952D01*
X146931142Y-122627380D01*
X146312095Y-122627380D01*
%TO.C,D31*%
X129739285Y-122627380D02*
X129739285Y-121627380D01*
X129501190Y-121627380D01*
X129358333Y-121675000D01*
X129263095Y-121770238D01*
X129215476Y-121865476D01*
X129167857Y-122055952D01*
X129167857Y-122198809D01*
X129215476Y-122389285D01*
X129263095Y-122484523D01*
X129358333Y-122579761D01*
X129501190Y-122627380D01*
X129739285Y-122627380D01*
X128834523Y-121627380D02*
X128215476Y-121627380D01*
X128548809Y-122008333D01*
X128405952Y-122008333D01*
X128310714Y-122055952D01*
X128263095Y-122103571D01*
X128215476Y-122198809D01*
X128215476Y-122436904D01*
X128263095Y-122532142D01*
X128310714Y-122579761D01*
X128405952Y-122627380D01*
X128691666Y-122627380D01*
X128786904Y-122579761D01*
X128834523Y-122532142D01*
X127263095Y-122627380D02*
X127834523Y-122627380D01*
X127548809Y-122627380D02*
X127548809Y-121627380D01*
X127644047Y-121770238D01*
X127739285Y-121865476D01*
X127834523Y-121913095D01*
%TO.C,D30*%
X110562285Y-122627380D02*
X110562285Y-121627380D01*
X110324190Y-121627380D01*
X110181333Y-121675000D01*
X110086095Y-121770238D01*
X110038476Y-121865476D01*
X109990857Y-122055952D01*
X109990857Y-122198809D01*
X110038476Y-122389285D01*
X110086095Y-122484523D01*
X110181333Y-122579761D01*
X110324190Y-122627380D01*
X110562285Y-122627380D01*
X109657523Y-121627380D02*
X109038476Y-121627380D01*
X109371809Y-122008333D01*
X109228952Y-122008333D01*
X109133714Y-122055952D01*
X109086095Y-122103571D01*
X109038476Y-122198809D01*
X109038476Y-122436904D01*
X109086095Y-122532142D01*
X109133714Y-122579761D01*
X109228952Y-122627380D01*
X109514666Y-122627380D01*
X109609904Y-122579761D01*
X109657523Y-122532142D01*
X108419428Y-121627380D02*
X108324190Y-121627380D01*
X108228952Y-121675000D01*
X108181333Y-121722619D01*
X108133714Y-121817857D01*
X108086095Y-122008333D01*
X108086095Y-122246428D01*
X108133714Y-122436904D01*
X108181333Y-122532142D01*
X108228952Y-122579761D01*
X108324190Y-122627380D01*
X108419428Y-122627380D01*
X108514666Y-122579761D01*
X108562285Y-122532142D01*
X108609904Y-122436904D01*
X108657523Y-122246428D01*
X108657523Y-122008333D01*
X108609904Y-121817857D01*
X108562285Y-121722619D01*
X108514666Y-121675000D01*
X108419428Y-121627380D01*
%TO.C,D29*%
X84400285Y-122627380D02*
X84400285Y-121627380D01*
X84162190Y-121627380D01*
X84019333Y-121675000D01*
X83924095Y-121770238D01*
X83876476Y-121865476D01*
X83828857Y-122055952D01*
X83828857Y-122198809D01*
X83876476Y-122389285D01*
X83924095Y-122484523D01*
X84019333Y-122579761D01*
X84162190Y-122627380D01*
X84400285Y-122627380D01*
X83447904Y-121722619D02*
X83400285Y-121675000D01*
X83305047Y-121627380D01*
X83066952Y-121627380D01*
X82971714Y-121675000D01*
X82924095Y-121722619D01*
X82876476Y-121817857D01*
X82876476Y-121913095D01*
X82924095Y-122055952D01*
X83495523Y-122627380D01*
X82876476Y-122627380D01*
X82400285Y-122627380D02*
X82209809Y-122627380D01*
X82114571Y-122579761D01*
X82066952Y-122532142D01*
X81971714Y-122389285D01*
X81924095Y-122198809D01*
X81924095Y-121817857D01*
X81971714Y-121722619D01*
X82019333Y-121675000D01*
X82114571Y-121627380D01*
X82305047Y-121627380D01*
X82400285Y-121675000D01*
X82447904Y-121722619D01*
X82495523Y-121817857D01*
X82495523Y-122055952D01*
X82447904Y-122151190D01*
X82400285Y-122198809D01*
X82305047Y-122246428D01*
X82114571Y-122246428D01*
X82019333Y-122198809D01*
X81971714Y-122151190D01*
X81924095Y-122055952D01*
%TO.C,D28*%
X332177285Y-103577380D02*
X332177285Y-102577380D01*
X331939190Y-102577380D01*
X331796333Y-102625000D01*
X331701095Y-102720238D01*
X331653476Y-102815476D01*
X331605857Y-103005952D01*
X331605857Y-103148809D01*
X331653476Y-103339285D01*
X331701095Y-103434523D01*
X331796333Y-103529761D01*
X331939190Y-103577380D01*
X332177285Y-103577380D01*
X331224904Y-102672619D02*
X331177285Y-102625000D01*
X331082047Y-102577380D01*
X330843952Y-102577380D01*
X330748714Y-102625000D01*
X330701095Y-102672619D01*
X330653476Y-102767857D01*
X330653476Y-102863095D01*
X330701095Y-103005952D01*
X331272523Y-103577380D01*
X330653476Y-103577380D01*
X330082047Y-103005952D02*
X330177285Y-102958333D01*
X330224904Y-102910714D01*
X330272523Y-102815476D01*
X330272523Y-102767857D01*
X330224904Y-102672619D01*
X330177285Y-102625000D01*
X330082047Y-102577380D01*
X329891571Y-102577380D01*
X329796333Y-102625000D01*
X329748714Y-102672619D01*
X329701095Y-102767857D01*
X329701095Y-102815476D01*
X329748714Y-102910714D01*
X329796333Y-102958333D01*
X329891571Y-103005952D01*
X330082047Y-103005952D01*
X330177285Y-103053571D01*
X330224904Y-103101190D01*
X330272523Y-103196428D01*
X330272523Y-103386904D01*
X330224904Y-103482142D01*
X330177285Y-103529761D01*
X330082047Y-103577380D01*
X329891571Y-103577380D01*
X329796333Y-103529761D01*
X329748714Y-103482142D01*
X329701095Y-103386904D01*
X329701095Y-103196428D01*
X329748714Y-103101190D01*
X329796333Y-103053571D01*
X329891571Y-103005952D01*
%TO.C,D27*%
X308300285Y-103450380D02*
X308300285Y-102450380D01*
X308062190Y-102450380D01*
X307919333Y-102498000D01*
X307824095Y-102593238D01*
X307776476Y-102688476D01*
X307728857Y-102878952D01*
X307728857Y-103021809D01*
X307776476Y-103212285D01*
X307824095Y-103307523D01*
X307919333Y-103402761D01*
X308062190Y-103450380D01*
X308300285Y-103450380D01*
X307347904Y-102545619D02*
X307300285Y-102498000D01*
X307205047Y-102450380D01*
X306966952Y-102450380D01*
X306871714Y-102498000D01*
X306824095Y-102545619D01*
X306776476Y-102640857D01*
X306776476Y-102736095D01*
X306824095Y-102878952D01*
X307395523Y-103450380D01*
X306776476Y-103450380D01*
X306443142Y-102450380D02*
X305776476Y-102450380D01*
X306205047Y-103450380D01*
%TO.C,D26*%
X296363285Y-103577380D02*
X296363285Y-102577380D01*
X296125190Y-102577380D01*
X295982333Y-102625000D01*
X295887095Y-102720238D01*
X295839476Y-102815476D01*
X295791857Y-103005952D01*
X295791857Y-103148809D01*
X295839476Y-103339285D01*
X295887095Y-103434523D01*
X295982333Y-103529761D01*
X296125190Y-103577380D01*
X296363285Y-103577380D01*
X295410904Y-102672619D02*
X295363285Y-102625000D01*
X295268047Y-102577380D01*
X295029952Y-102577380D01*
X294934714Y-102625000D01*
X294887095Y-102672619D01*
X294839476Y-102767857D01*
X294839476Y-102863095D01*
X294887095Y-103005952D01*
X295458523Y-103577380D01*
X294839476Y-103577380D01*
X293982333Y-102577380D02*
X294172809Y-102577380D01*
X294268047Y-102625000D01*
X294315666Y-102672619D01*
X294410904Y-102815476D01*
X294458523Y-103005952D01*
X294458523Y-103386904D01*
X294410904Y-103482142D01*
X294363285Y-103529761D01*
X294268047Y-103577380D01*
X294077571Y-103577380D01*
X293982333Y-103529761D01*
X293934714Y-103482142D01*
X293887095Y-103386904D01*
X293887095Y-103148809D01*
X293934714Y-103053571D01*
X293982333Y-103005952D01*
X294077571Y-102958333D01*
X294268047Y-102958333D01*
X294363285Y-103005952D01*
X294410904Y-103053571D01*
X294458523Y-103148809D01*
%TO.C,D25*%
X277312285Y-103577380D02*
X277312285Y-102577380D01*
X277074190Y-102577380D01*
X276931333Y-102625000D01*
X276836095Y-102720238D01*
X276788476Y-102815476D01*
X276740857Y-103005952D01*
X276740857Y-103148809D01*
X276788476Y-103339285D01*
X276836095Y-103434523D01*
X276931333Y-103529761D01*
X277074190Y-103577380D01*
X277312285Y-103577380D01*
X276359904Y-102672619D02*
X276312285Y-102625000D01*
X276217047Y-102577380D01*
X275978952Y-102577380D01*
X275883714Y-102625000D01*
X275836095Y-102672619D01*
X275788476Y-102767857D01*
X275788476Y-102863095D01*
X275836095Y-103005952D01*
X276407523Y-103577380D01*
X275788476Y-103577380D01*
X274883714Y-102577380D02*
X275359904Y-102577380D01*
X275407523Y-103053571D01*
X275359904Y-103005952D01*
X275264666Y-102958333D01*
X275026571Y-102958333D01*
X274931333Y-103005952D01*
X274883714Y-103053571D01*
X274836095Y-103148809D01*
X274836095Y-103386904D01*
X274883714Y-103482142D01*
X274931333Y-103529761D01*
X275026571Y-103577380D01*
X275264666Y-103577380D01*
X275359904Y-103529761D01*
X275407523Y-103482142D01*
%TO.C,D24*%
X258262285Y-103577380D02*
X258262285Y-102577380D01*
X258024190Y-102577380D01*
X257881333Y-102625000D01*
X257786095Y-102720238D01*
X257738476Y-102815476D01*
X257690857Y-103005952D01*
X257690857Y-103148809D01*
X257738476Y-103339285D01*
X257786095Y-103434523D01*
X257881333Y-103529761D01*
X258024190Y-103577380D01*
X258262285Y-103577380D01*
X257309904Y-102672619D02*
X257262285Y-102625000D01*
X257167047Y-102577380D01*
X256928952Y-102577380D01*
X256833714Y-102625000D01*
X256786095Y-102672619D01*
X256738476Y-102767857D01*
X256738476Y-102863095D01*
X256786095Y-103005952D01*
X257357523Y-103577380D01*
X256738476Y-103577380D01*
X255881333Y-102910714D02*
X255881333Y-103577380D01*
X256119428Y-102529761D02*
X256357523Y-103244047D01*
X255738476Y-103244047D01*
%TO.C,D23*%
X239213285Y-103577380D02*
X239213285Y-102577380D01*
X238975190Y-102577380D01*
X238832333Y-102625000D01*
X238737095Y-102720238D01*
X238689476Y-102815476D01*
X238641857Y-103005952D01*
X238641857Y-103148809D01*
X238689476Y-103339285D01*
X238737095Y-103434523D01*
X238832333Y-103529761D01*
X238975190Y-103577380D01*
X239213285Y-103577380D01*
X238260904Y-102672619D02*
X238213285Y-102625000D01*
X238118047Y-102577380D01*
X237879952Y-102577380D01*
X237784714Y-102625000D01*
X237737095Y-102672619D01*
X237689476Y-102767857D01*
X237689476Y-102863095D01*
X237737095Y-103005952D01*
X238308523Y-103577380D01*
X237689476Y-103577380D01*
X237356142Y-102577380D02*
X236737095Y-102577380D01*
X237070428Y-102958333D01*
X236927571Y-102958333D01*
X236832333Y-103005952D01*
X236784714Y-103053571D01*
X236737095Y-103148809D01*
X236737095Y-103386904D01*
X236784714Y-103482142D01*
X236832333Y-103529761D01*
X236927571Y-103577380D01*
X237213285Y-103577380D01*
X237308523Y-103529761D01*
X237356142Y-103482142D01*
%TO.C,D22*%
X220163285Y-103577380D02*
X220163285Y-102577380D01*
X219925190Y-102577380D01*
X219782333Y-102625000D01*
X219687095Y-102720238D01*
X219639476Y-102815476D01*
X219591857Y-103005952D01*
X219591857Y-103148809D01*
X219639476Y-103339285D01*
X219687095Y-103434523D01*
X219782333Y-103529761D01*
X219925190Y-103577380D01*
X220163285Y-103577380D01*
X219210904Y-102672619D02*
X219163285Y-102625000D01*
X219068047Y-102577380D01*
X218829952Y-102577380D01*
X218734714Y-102625000D01*
X218687095Y-102672619D01*
X218639476Y-102767857D01*
X218639476Y-102863095D01*
X218687095Y-103005952D01*
X219258523Y-103577380D01*
X218639476Y-103577380D01*
X218258523Y-102672619D02*
X218210904Y-102625000D01*
X218115666Y-102577380D01*
X217877571Y-102577380D01*
X217782333Y-102625000D01*
X217734714Y-102672619D01*
X217687095Y-102767857D01*
X217687095Y-102863095D01*
X217734714Y-103005952D01*
X218306142Y-103577380D01*
X217687095Y-103577380D01*
%TO.C,D21*%
X201113285Y-103577380D02*
X201113285Y-102577380D01*
X200875190Y-102577380D01*
X200732333Y-102625000D01*
X200637095Y-102720238D01*
X200589476Y-102815476D01*
X200541857Y-103005952D01*
X200541857Y-103148809D01*
X200589476Y-103339285D01*
X200637095Y-103434523D01*
X200732333Y-103529761D01*
X200875190Y-103577380D01*
X201113285Y-103577380D01*
X200160904Y-102672619D02*
X200113285Y-102625000D01*
X200018047Y-102577380D01*
X199779952Y-102577380D01*
X199684714Y-102625000D01*
X199637095Y-102672619D01*
X199589476Y-102767857D01*
X199589476Y-102863095D01*
X199637095Y-103005952D01*
X200208523Y-103577380D01*
X199589476Y-103577380D01*
X198637095Y-103577380D02*
X199208523Y-103577380D01*
X198922809Y-103577380D02*
X198922809Y-102577380D01*
X199018047Y-102720238D01*
X199113285Y-102815476D01*
X199208523Y-102863095D01*
%TO.C,D20*%
X182063285Y-103577380D02*
X182063285Y-102577380D01*
X181825190Y-102577380D01*
X181682333Y-102625000D01*
X181587095Y-102720238D01*
X181539476Y-102815476D01*
X181491857Y-103005952D01*
X181491857Y-103148809D01*
X181539476Y-103339285D01*
X181587095Y-103434523D01*
X181682333Y-103529761D01*
X181825190Y-103577380D01*
X182063285Y-103577380D01*
X181110904Y-102672619D02*
X181063285Y-102625000D01*
X180968047Y-102577380D01*
X180729952Y-102577380D01*
X180634714Y-102625000D01*
X180587095Y-102672619D01*
X180539476Y-102767857D01*
X180539476Y-102863095D01*
X180587095Y-103005952D01*
X181158523Y-103577380D01*
X180539476Y-103577380D01*
X179920428Y-102577380D02*
X179825190Y-102577380D01*
X179729952Y-102625000D01*
X179682333Y-102672619D01*
X179634714Y-102767857D01*
X179587095Y-102958333D01*
X179587095Y-103196428D01*
X179634714Y-103386904D01*
X179682333Y-103482142D01*
X179729952Y-103529761D01*
X179825190Y-103577380D01*
X179920428Y-103577380D01*
X180015666Y-103529761D01*
X180063285Y-103482142D01*
X180110904Y-103386904D01*
X180158523Y-103196428D01*
X180158523Y-102958333D01*
X180110904Y-102767857D01*
X180063285Y-102672619D01*
X180015666Y-102625000D01*
X179920428Y-102577380D01*
%TO.C,D19*%
X163013285Y-103704380D02*
X163013285Y-102704380D01*
X162775190Y-102704380D01*
X162632333Y-102752000D01*
X162537095Y-102847238D01*
X162489476Y-102942476D01*
X162441857Y-103132952D01*
X162441857Y-103275809D01*
X162489476Y-103466285D01*
X162537095Y-103561523D01*
X162632333Y-103656761D01*
X162775190Y-103704380D01*
X163013285Y-103704380D01*
X161489476Y-103704380D02*
X162060904Y-103704380D01*
X161775190Y-103704380D02*
X161775190Y-102704380D01*
X161870428Y-102847238D01*
X161965666Y-102942476D01*
X162060904Y-102990095D01*
X161013285Y-103704380D02*
X160822809Y-103704380D01*
X160727571Y-103656761D01*
X160679952Y-103609142D01*
X160584714Y-103466285D01*
X160537095Y-103275809D01*
X160537095Y-102894857D01*
X160584714Y-102799619D01*
X160632333Y-102752000D01*
X160727571Y-102704380D01*
X160918047Y-102704380D01*
X161013285Y-102752000D01*
X161060904Y-102799619D01*
X161108523Y-102894857D01*
X161108523Y-103132952D01*
X161060904Y-103228190D01*
X161013285Y-103275809D01*
X160918047Y-103323428D01*
X160727571Y-103323428D01*
X160632333Y-103275809D01*
X160584714Y-103228190D01*
X160537095Y-103132952D01*
%TO.C,D18*%
X143963285Y-103577380D02*
X143963285Y-102577380D01*
X143725190Y-102577380D01*
X143582333Y-102625000D01*
X143487095Y-102720238D01*
X143439476Y-102815476D01*
X143391857Y-103005952D01*
X143391857Y-103148809D01*
X143439476Y-103339285D01*
X143487095Y-103434523D01*
X143582333Y-103529761D01*
X143725190Y-103577380D01*
X143963285Y-103577380D01*
X142439476Y-103577380D02*
X143010904Y-103577380D01*
X142725190Y-103577380D02*
X142725190Y-102577380D01*
X142820428Y-102720238D01*
X142915666Y-102815476D01*
X143010904Y-102863095D01*
X141868047Y-103005952D02*
X141963285Y-102958333D01*
X142010904Y-102910714D01*
X142058523Y-102815476D01*
X142058523Y-102767857D01*
X142010904Y-102672619D01*
X141963285Y-102625000D01*
X141868047Y-102577380D01*
X141677571Y-102577380D01*
X141582333Y-102625000D01*
X141534714Y-102672619D01*
X141487095Y-102767857D01*
X141487095Y-102815476D01*
X141534714Y-102910714D01*
X141582333Y-102958333D01*
X141677571Y-103005952D01*
X141868047Y-103005952D01*
X141963285Y-103053571D01*
X142010904Y-103101190D01*
X142058523Y-103196428D01*
X142058523Y-103386904D01*
X142010904Y-103482142D01*
X141963285Y-103529761D01*
X141868047Y-103577380D01*
X141677571Y-103577380D01*
X141582333Y-103529761D01*
X141534714Y-103482142D01*
X141487095Y-103386904D01*
X141487095Y-103196428D01*
X141534714Y-103101190D01*
X141582333Y-103053571D01*
X141677571Y-103005952D01*
%TO.C,D17*%
X124913285Y-103577380D02*
X124913285Y-102577380D01*
X124675190Y-102577380D01*
X124532333Y-102625000D01*
X124437095Y-102720238D01*
X124389476Y-102815476D01*
X124341857Y-103005952D01*
X124341857Y-103148809D01*
X124389476Y-103339285D01*
X124437095Y-103434523D01*
X124532333Y-103529761D01*
X124675190Y-103577380D01*
X124913285Y-103577380D01*
X123389476Y-103577380D02*
X123960904Y-103577380D01*
X123675190Y-103577380D02*
X123675190Y-102577380D01*
X123770428Y-102720238D01*
X123865666Y-102815476D01*
X123960904Y-102863095D01*
X123056142Y-102577380D02*
X122389476Y-102577380D01*
X122818047Y-103577380D01*
%TO.C,D16*%
X105990285Y-103577380D02*
X105990285Y-102577380D01*
X105752190Y-102577380D01*
X105609333Y-102625000D01*
X105514095Y-102720238D01*
X105466476Y-102815476D01*
X105418857Y-103005952D01*
X105418857Y-103148809D01*
X105466476Y-103339285D01*
X105514095Y-103434523D01*
X105609333Y-103529761D01*
X105752190Y-103577380D01*
X105990285Y-103577380D01*
X104466476Y-103577380D02*
X105037904Y-103577380D01*
X104752190Y-103577380D02*
X104752190Y-102577380D01*
X104847428Y-102720238D01*
X104942666Y-102815476D01*
X105037904Y-102863095D01*
X103609333Y-102577380D02*
X103799809Y-102577380D01*
X103895047Y-102625000D01*
X103942666Y-102672619D01*
X104037904Y-102815476D01*
X104085523Y-103005952D01*
X104085523Y-103386904D01*
X104037904Y-103482142D01*
X103990285Y-103529761D01*
X103895047Y-103577380D01*
X103704571Y-103577380D01*
X103609333Y-103529761D01*
X103561714Y-103482142D01*
X103514095Y-103386904D01*
X103514095Y-103148809D01*
X103561714Y-103053571D01*
X103609333Y-103005952D01*
X103704571Y-102958333D01*
X103895047Y-102958333D01*
X103990285Y-103005952D01*
X104037904Y-103053571D01*
X104085523Y-103148809D01*
%TO.C,D15*%
X81986285Y-103577380D02*
X81986285Y-102577380D01*
X81748190Y-102577380D01*
X81605333Y-102625000D01*
X81510095Y-102720238D01*
X81462476Y-102815476D01*
X81414857Y-103005952D01*
X81414857Y-103148809D01*
X81462476Y-103339285D01*
X81510095Y-103434523D01*
X81605333Y-103529761D01*
X81748190Y-103577380D01*
X81986285Y-103577380D01*
X80462476Y-103577380D02*
X81033904Y-103577380D01*
X80748190Y-103577380D02*
X80748190Y-102577380D01*
X80843428Y-102720238D01*
X80938666Y-102815476D01*
X81033904Y-102863095D01*
X79557714Y-102577380D02*
X80033904Y-102577380D01*
X80081523Y-103053571D01*
X80033904Y-103005952D01*
X79938666Y-102958333D01*
X79700571Y-102958333D01*
X79605333Y-103005952D01*
X79557714Y-103053571D01*
X79510095Y-103148809D01*
X79510095Y-103386904D01*
X79557714Y-103482142D01*
X79605333Y-103529761D01*
X79700571Y-103577380D01*
X79938666Y-103577380D01*
X80033904Y-103529761D01*
X80081523Y-103482142D01*
%TO.C,D14*%
X334336285Y-84654380D02*
X334336285Y-83654380D01*
X334098190Y-83654380D01*
X333955333Y-83702000D01*
X333860095Y-83797238D01*
X333812476Y-83892476D01*
X333764857Y-84082952D01*
X333764857Y-84225809D01*
X333812476Y-84416285D01*
X333860095Y-84511523D01*
X333955333Y-84606761D01*
X334098190Y-84654380D01*
X334336285Y-84654380D01*
X332812476Y-84654380D02*
X333383904Y-84654380D01*
X333098190Y-84654380D02*
X333098190Y-83654380D01*
X333193428Y-83797238D01*
X333288666Y-83892476D01*
X333383904Y-83940095D01*
X331955333Y-83987714D02*
X331955333Y-84654380D01*
X332193428Y-83606761D02*
X332431523Y-84321047D01*
X331812476Y-84321047D01*
%TO.C,D13*%
X305888285Y-84527380D02*
X305888285Y-83527380D01*
X305650190Y-83527380D01*
X305507333Y-83575000D01*
X305412095Y-83670238D01*
X305364476Y-83765476D01*
X305316857Y-83955952D01*
X305316857Y-84098809D01*
X305364476Y-84289285D01*
X305412095Y-84384523D01*
X305507333Y-84479761D01*
X305650190Y-84527380D01*
X305888285Y-84527380D01*
X304364476Y-84527380D02*
X304935904Y-84527380D01*
X304650190Y-84527380D02*
X304650190Y-83527380D01*
X304745428Y-83670238D01*
X304840666Y-83765476D01*
X304935904Y-83813095D01*
X304031142Y-83527380D02*
X303412095Y-83527380D01*
X303745428Y-83908333D01*
X303602571Y-83908333D01*
X303507333Y-83955952D01*
X303459714Y-84003571D01*
X303412095Y-84098809D01*
X303412095Y-84336904D01*
X303459714Y-84432142D01*
X303507333Y-84479761D01*
X303602571Y-84527380D01*
X303888285Y-84527380D01*
X303983523Y-84479761D01*
X304031142Y-84432142D01*
%TO.C,D12*%
X286965285Y-84654380D02*
X286965285Y-83654380D01*
X286727190Y-83654380D01*
X286584333Y-83702000D01*
X286489095Y-83797238D01*
X286441476Y-83892476D01*
X286393857Y-84082952D01*
X286393857Y-84225809D01*
X286441476Y-84416285D01*
X286489095Y-84511523D01*
X286584333Y-84606761D01*
X286727190Y-84654380D01*
X286965285Y-84654380D01*
X285441476Y-84654380D02*
X286012904Y-84654380D01*
X285727190Y-84654380D02*
X285727190Y-83654380D01*
X285822428Y-83797238D01*
X285917666Y-83892476D01*
X286012904Y-83940095D01*
X285060523Y-83749619D02*
X285012904Y-83702000D01*
X284917666Y-83654380D01*
X284679571Y-83654380D01*
X284584333Y-83702000D01*
X284536714Y-83749619D01*
X284489095Y-83844857D01*
X284489095Y-83940095D01*
X284536714Y-84082952D01*
X285108142Y-84654380D01*
X284489095Y-84654380D01*
%TO.C,D11*%
X267788285Y-84654380D02*
X267788285Y-83654380D01*
X267550190Y-83654380D01*
X267407333Y-83702000D01*
X267312095Y-83797238D01*
X267264476Y-83892476D01*
X267216857Y-84082952D01*
X267216857Y-84225809D01*
X267264476Y-84416285D01*
X267312095Y-84511523D01*
X267407333Y-84606761D01*
X267550190Y-84654380D01*
X267788285Y-84654380D01*
X266264476Y-84654380D02*
X266835904Y-84654380D01*
X266550190Y-84654380D02*
X266550190Y-83654380D01*
X266645428Y-83797238D01*
X266740666Y-83892476D01*
X266835904Y-83940095D01*
X265312095Y-84654380D02*
X265883523Y-84654380D01*
X265597809Y-84654380D02*
X265597809Y-83654380D01*
X265693047Y-83797238D01*
X265788285Y-83892476D01*
X265883523Y-83940095D01*
%TO.C,D10*%
X248738285Y-84527380D02*
X248738285Y-83527380D01*
X248500190Y-83527380D01*
X248357333Y-83575000D01*
X248262095Y-83670238D01*
X248214476Y-83765476D01*
X248166857Y-83955952D01*
X248166857Y-84098809D01*
X248214476Y-84289285D01*
X248262095Y-84384523D01*
X248357333Y-84479761D01*
X248500190Y-84527380D01*
X248738285Y-84527380D01*
X247214476Y-84527380D02*
X247785904Y-84527380D01*
X247500190Y-84527380D02*
X247500190Y-83527380D01*
X247595428Y-83670238D01*
X247690666Y-83765476D01*
X247785904Y-83813095D01*
X246595428Y-83527380D02*
X246500190Y-83527380D01*
X246404952Y-83575000D01*
X246357333Y-83622619D01*
X246309714Y-83717857D01*
X246262095Y-83908333D01*
X246262095Y-84146428D01*
X246309714Y-84336904D01*
X246357333Y-84432142D01*
X246404952Y-84479761D01*
X246500190Y-84527380D01*
X246595428Y-84527380D01*
X246690666Y-84479761D01*
X246738285Y-84432142D01*
X246785904Y-84336904D01*
X246833523Y-84146428D01*
X246833523Y-83908333D01*
X246785904Y-83717857D01*
X246738285Y-83622619D01*
X246690666Y-83575000D01*
X246595428Y-83527380D01*
%TO.C,D9*%
X229212095Y-84654380D02*
X229212095Y-83654380D01*
X228974000Y-83654380D01*
X228831142Y-83702000D01*
X228735904Y-83797238D01*
X228688285Y-83892476D01*
X228640666Y-84082952D01*
X228640666Y-84225809D01*
X228688285Y-84416285D01*
X228735904Y-84511523D01*
X228831142Y-84606761D01*
X228974000Y-84654380D01*
X229212095Y-84654380D01*
X228164476Y-84654380D02*
X227974000Y-84654380D01*
X227878761Y-84606761D01*
X227831142Y-84559142D01*
X227735904Y-84416285D01*
X227688285Y-84225809D01*
X227688285Y-83844857D01*
X227735904Y-83749619D01*
X227783523Y-83702000D01*
X227878761Y-83654380D01*
X228069238Y-83654380D01*
X228164476Y-83702000D01*
X228212095Y-83749619D01*
X228259714Y-83844857D01*
X228259714Y-84082952D01*
X228212095Y-84178190D01*
X228164476Y-84225809D01*
X228069238Y-84273428D01*
X227878761Y-84273428D01*
X227783523Y-84225809D01*
X227735904Y-84178190D01*
X227688285Y-84082952D01*
%TO.C,D8*%
X210162095Y-84654380D02*
X210162095Y-83654380D01*
X209924000Y-83654380D01*
X209781142Y-83702000D01*
X209685904Y-83797238D01*
X209638285Y-83892476D01*
X209590666Y-84082952D01*
X209590666Y-84225809D01*
X209638285Y-84416285D01*
X209685904Y-84511523D01*
X209781142Y-84606761D01*
X209924000Y-84654380D01*
X210162095Y-84654380D01*
X209019238Y-84082952D02*
X209114476Y-84035333D01*
X209162095Y-83987714D01*
X209209714Y-83892476D01*
X209209714Y-83844857D01*
X209162095Y-83749619D01*
X209114476Y-83702000D01*
X209019238Y-83654380D01*
X208828761Y-83654380D01*
X208733523Y-83702000D01*
X208685904Y-83749619D01*
X208638285Y-83844857D01*
X208638285Y-83892476D01*
X208685904Y-83987714D01*
X208733523Y-84035333D01*
X208828761Y-84082952D01*
X209019238Y-84082952D01*
X209114476Y-84130571D01*
X209162095Y-84178190D01*
X209209714Y-84273428D01*
X209209714Y-84463904D01*
X209162095Y-84559142D01*
X209114476Y-84606761D01*
X209019238Y-84654380D01*
X208828761Y-84654380D01*
X208733523Y-84606761D01*
X208685904Y-84559142D01*
X208638285Y-84463904D01*
X208638285Y-84273428D01*
X208685904Y-84178190D01*
X208733523Y-84130571D01*
X208828761Y-84082952D01*
%TO.C,D7*%
X191112095Y-84654380D02*
X191112095Y-83654380D01*
X190874000Y-83654380D01*
X190731142Y-83702000D01*
X190635904Y-83797238D01*
X190588285Y-83892476D01*
X190540666Y-84082952D01*
X190540666Y-84225809D01*
X190588285Y-84416285D01*
X190635904Y-84511523D01*
X190731142Y-84606761D01*
X190874000Y-84654380D01*
X191112095Y-84654380D01*
X190207333Y-83654380D02*
X189540666Y-83654380D01*
X189969238Y-84654380D01*
%TO.C,D6*%
X172062095Y-84654380D02*
X172062095Y-83654380D01*
X171824000Y-83654380D01*
X171681142Y-83702000D01*
X171585904Y-83797238D01*
X171538285Y-83892476D01*
X171490666Y-84082952D01*
X171490666Y-84225809D01*
X171538285Y-84416285D01*
X171585904Y-84511523D01*
X171681142Y-84606761D01*
X171824000Y-84654380D01*
X172062095Y-84654380D01*
X170633523Y-83654380D02*
X170824000Y-83654380D01*
X170919238Y-83702000D01*
X170966857Y-83749619D01*
X171062095Y-83892476D01*
X171109714Y-84082952D01*
X171109714Y-84463904D01*
X171062095Y-84559142D01*
X171014476Y-84606761D01*
X170919238Y-84654380D01*
X170728761Y-84654380D01*
X170633523Y-84606761D01*
X170585904Y-84559142D01*
X170538285Y-84463904D01*
X170538285Y-84225809D01*
X170585904Y-84130571D01*
X170633523Y-84082952D01*
X170728761Y-84035333D01*
X170919238Y-84035333D01*
X171014476Y-84082952D01*
X171062095Y-84130571D01*
X171109714Y-84225809D01*
%TO.C,D5*%
X153011095Y-84654380D02*
X153011095Y-83654380D01*
X152773000Y-83654380D01*
X152630142Y-83702000D01*
X152534904Y-83797238D01*
X152487285Y-83892476D01*
X152439666Y-84082952D01*
X152439666Y-84225809D01*
X152487285Y-84416285D01*
X152534904Y-84511523D01*
X152630142Y-84606761D01*
X152773000Y-84654380D01*
X153011095Y-84654380D01*
X151534904Y-83654380D02*
X152011095Y-83654380D01*
X152058714Y-84130571D01*
X152011095Y-84082952D01*
X151915857Y-84035333D01*
X151677761Y-84035333D01*
X151582523Y-84082952D01*
X151534904Y-84130571D01*
X151487285Y-84225809D01*
X151487285Y-84463904D01*
X151534904Y-84559142D01*
X151582523Y-84606761D01*
X151677761Y-84654380D01*
X151915857Y-84654380D01*
X152011095Y-84606761D01*
X152058714Y-84559142D01*
%TO.C,D4*%
X133962095Y-84654380D02*
X133962095Y-83654380D01*
X133724000Y-83654380D01*
X133581142Y-83702000D01*
X133485904Y-83797238D01*
X133438285Y-83892476D01*
X133390666Y-84082952D01*
X133390666Y-84225809D01*
X133438285Y-84416285D01*
X133485904Y-84511523D01*
X133581142Y-84606761D01*
X133724000Y-84654380D01*
X133962095Y-84654380D01*
X132533523Y-83987714D02*
X132533523Y-84654380D01*
X132771619Y-83606761D02*
X133009714Y-84321047D01*
X132390666Y-84321047D01*
%TO.C,D3*%
X114912095Y-84654380D02*
X114912095Y-83654380D01*
X114674000Y-83654380D01*
X114531142Y-83702000D01*
X114435904Y-83797238D01*
X114388285Y-83892476D01*
X114340666Y-84082952D01*
X114340666Y-84225809D01*
X114388285Y-84416285D01*
X114435904Y-84511523D01*
X114531142Y-84606761D01*
X114674000Y-84654380D01*
X114912095Y-84654380D01*
X114007333Y-83654380D02*
X113388285Y-83654380D01*
X113721619Y-84035333D01*
X113578761Y-84035333D01*
X113483523Y-84082952D01*
X113435904Y-84130571D01*
X113388285Y-84225809D01*
X113388285Y-84463904D01*
X113435904Y-84559142D01*
X113483523Y-84606761D01*
X113578761Y-84654380D01*
X113864476Y-84654380D01*
X113959714Y-84606761D01*
X114007333Y-84559142D01*
%TO.C,D2*%
X95861095Y-84527380D02*
X95861095Y-83527380D01*
X95623000Y-83527380D01*
X95480142Y-83575000D01*
X95384904Y-83670238D01*
X95337285Y-83765476D01*
X95289666Y-83955952D01*
X95289666Y-84098809D01*
X95337285Y-84289285D01*
X95384904Y-84384523D01*
X95480142Y-84479761D01*
X95623000Y-84527380D01*
X95861095Y-84527380D01*
X94908714Y-83622619D02*
X94861095Y-83575000D01*
X94765857Y-83527380D01*
X94527761Y-83527380D01*
X94432523Y-83575000D01*
X94384904Y-83622619D01*
X94337285Y-83717857D01*
X94337285Y-83813095D01*
X94384904Y-83955952D01*
X94956333Y-84527380D01*
X94337285Y-84527380D01*
%TO.C,D1*%
X76812095Y-84654380D02*
X76812095Y-83654380D01*
X76574000Y-83654380D01*
X76431142Y-83702000D01*
X76335904Y-83797238D01*
X76288285Y-83892476D01*
X76240666Y-84082952D01*
X76240666Y-84225809D01*
X76288285Y-84416285D01*
X76335904Y-84511523D01*
X76431142Y-84606761D01*
X76574000Y-84654380D01*
X76812095Y-84654380D01*
X75288285Y-84654380D02*
X75859714Y-84654380D01*
X75574000Y-84654380D02*
X75574000Y-83654380D01*
X75669238Y-83797238D01*
X75764476Y-83892476D01*
X75859714Y-83940095D01*
%TO.C,U63*%
X88185380Y-84816904D02*
X88994904Y-84816904D01*
X89090142Y-84864523D01*
X89137761Y-84912142D01*
X89185380Y-85007380D01*
X89185380Y-85197857D01*
X89137761Y-85293095D01*
X89090142Y-85340714D01*
X88994904Y-85388333D01*
X88185380Y-85388333D01*
X88185380Y-86293095D02*
X88185380Y-86102619D01*
X88233000Y-86007380D01*
X88280619Y-85959761D01*
X88423476Y-85864523D01*
X88613952Y-85816904D01*
X88994904Y-85816904D01*
X89090142Y-85864523D01*
X89137761Y-85912142D01*
X89185380Y-86007380D01*
X89185380Y-86197857D01*
X89137761Y-86293095D01*
X89090142Y-86340714D01*
X88994904Y-86388333D01*
X88756809Y-86388333D01*
X88661571Y-86340714D01*
X88613952Y-86293095D01*
X88566333Y-86197857D01*
X88566333Y-86007380D01*
X88613952Y-85912142D01*
X88661571Y-85864523D01*
X88756809Y-85816904D01*
X88185380Y-86721666D02*
X88185380Y-87340714D01*
X88566333Y-87007380D01*
X88566333Y-87150238D01*
X88613952Y-87245476D01*
X88661571Y-87293095D01*
X88756809Y-87340714D01*
X88994904Y-87340714D01*
X89090142Y-87293095D01*
X89137761Y-87245476D01*
X89185380Y-87150238D01*
X89185380Y-86864523D01*
X89137761Y-86769285D01*
X89090142Y-86721666D01*
%TD*%
M02*
