%FSLAX45Y45*%
G04 Gerber Fmt 4.5, Leading zero omitted, Abs format (unit mm)*
G04 Created by KiCad (PCBNEW (5.1.12)-1) date 2021-12-08 00:55:53*
%MOMM*%
%LPD*%
G01*
G04 APERTURE LIST*
%TA.AperFunction,Profile*%
%ADD10C,0.099060*%
%TD*%
%ADD11C,0.200000*%
%ADD12C,0.300000*%
G04 APERTURE END LIST*
D10*
X5900000Y-15800000D02*
G75*
G03*
X6100000Y-16000000I200000J0D01*
G01*
X6100000Y-4000000D02*
G75*
G03*
X5900000Y-4200000I0J-200000D01*
G01*
X41200000Y-4200000D02*
G75*
G03*
X41000000Y-4000000I-200000J0D01*
G01*
X41000000Y-16000000D02*
G75*
G03*
X41200000Y-15800000I0J200000D01*
G01*
X41200000Y-4200000D02*
X41200000Y-15800000D01*
X6100000Y-16000000D02*
X41000000Y-16000000D01*
X5900000Y-4200000D02*
X5900000Y-15800000D01*
X6100000Y-4000000D02*
X41000000Y-4000000D01*
D11*
X6430500Y-6065500D02*
X6650500Y-6285500D01*
X6650500Y-6065500D02*
X6430500Y-6285500D01*
X6430500Y-13177500D02*
X6650500Y-13397500D01*
X6650500Y-13177500D02*
X6430500Y-13397500D01*
X18926500Y-10891500D02*
X19146500Y-11111500D01*
X19146500Y-10891500D02*
X18926500Y-11111500D01*
X23194500Y-6065500D02*
X23414500Y-6285500D01*
X23414500Y-6065500D02*
X23194500Y-6285500D01*
X23194500Y-15082500D02*
X23414500Y-15302500D01*
X23414500Y-15082500D02*
X23194500Y-15302500D01*
X34527500Y-10637500D02*
X34747500Y-10857500D01*
X34747500Y-10637500D02*
X34527500Y-10857500D01*
X40139500Y-6065500D02*
X40359500Y-6285500D01*
X40359500Y-6065500D02*
X40139500Y-6285500D01*
X40139500Y-13177500D02*
X40359500Y-13397500D01*
X40359500Y-13177500D02*
X40139500Y-13397500D01*
X8115000Y-5500000D02*
G75*
G03*
X8115000Y-5500000I-215000J0D01*
G01*
X39115000Y-5500000D02*
G75*
G03*
X39115000Y-5500000I-215000J0D01*
G01*
D12*
X6181475Y-16470667D02*
X6181475Y-16170667D01*
X6252904Y-16170667D01*
X6295761Y-16184953D01*
X6324333Y-16213524D01*
X6338618Y-16242096D01*
X6352904Y-16299239D01*
X6352904Y-16342096D01*
X6338618Y-16399239D01*
X6324333Y-16427810D01*
X6295761Y-16456382D01*
X6252904Y-16470667D01*
X6181475Y-16470667D01*
X6481475Y-16470667D02*
X6481475Y-16270667D01*
X6481475Y-16327810D02*
X6495761Y-16299239D01*
X6510047Y-16284953D01*
X6538618Y-16270667D01*
X6567190Y-16270667D01*
X6667190Y-16470667D02*
X6667190Y-16270667D01*
X6667190Y-16170667D02*
X6652904Y-16184953D01*
X6667190Y-16199239D01*
X6681475Y-16184953D01*
X6667190Y-16170667D01*
X6667190Y-16199239D01*
X6852904Y-16470667D02*
X6824333Y-16456382D01*
X6810047Y-16427810D01*
X6810047Y-16170667D01*
X7010047Y-16470667D02*
X6981475Y-16456382D01*
X6967190Y-16427810D01*
X6967190Y-16170667D01*
X7352904Y-16470667D02*
X7352904Y-16170667D01*
X7452904Y-16384953D01*
X7552904Y-16170667D01*
X7552904Y-16470667D01*
X7824333Y-16470667D02*
X7824333Y-16313524D01*
X7810047Y-16284953D01*
X7781475Y-16270667D01*
X7724333Y-16270667D01*
X7695761Y-16284953D01*
X7824333Y-16456382D02*
X7795761Y-16470667D01*
X7724333Y-16470667D01*
X7695761Y-16456382D01*
X7681475Y-16427810D01*
X7681475Y-16399239D01*
X7695761Y-16370667D01*
X7724333Y-16356382D01*
X7795761Y-16356382D01*
X7824333Y-16342096D01*
X7967190Y-16270667D02*
X7967190Y-16570667D01*
X7967190Y-16284953D02*
X7995761Y-16270667D01*
X8052904Y-16270667D01*
X8081475Y-16284953D01*
X8095761Y-16299239D01*
X8110047Y-16327810D01*
X8110047Y-16413524D01*
X8095761Y-16442096D01*
X8081475Y-16456382D01*
X8052904Y-16470667D01*
X7995761Y-16470667D01*
X7967190Y-16456382D01*
X8238618Y-16442096D02*
X8252904Y-16456382D01*
X8238618Y-16470667D01*
X8224333Y-16456382D01*
X8238618Y-16442096D01*
X8238618Y-16470667D01*
X8238618Y-16284953D02*
X8252904Y-16299239D01*
X8238618Y-16313524D01*
X8224333Y-16299239D01*
X8238618Y-16284953D01*
X8238618Y-16313524D01*
X5675047Y-16854953D02*
X5895047Y-17074953D01*
X5895047Y-16854953D02*
X5675047Y-17074953D01*
X6167190Y-16829239D02*
X6181475Y-16814953D01*
X6210047Y-16800667D01*
X6281475Y-16800667D01*
X6310047Y-16814953D01*
X6324333Y-16829239D01*
X6338618Y-16857810D01*
X6338618Y-16886382D01*
X6324333Y-16929239D01*
X6152904Y-17100667D01*
X6338618Y-17100667D01*
X6467190Y-17072096D02*
X6481475Y-17086382D01*
X6467190Y-17100667D01*
X6452904Y-17086382D01*
X6467190Y-17072096D01*
X6467190Y-17100667D01*
X6595761Y-16829239D02*
X6610047Y-16814953D01*
X6638618Y-16800667D01*
X6710047Y-16800667D01*
X6738618Y-16814953D01*
X6752904Y-16829239D01*
X6767190Y-16857810D01*
X6767190Y-16886382D01*
X6752904Y-16929239D01*
X6581475Y-17100667D01*
X6767190Y-17100667D01*
X6952904Y-16800667D02*
X6981475Y-16800667D01*
X7010047Y-16814953D01*
X7024333Y-16829239D01*
X7038618Y-16857810D01*
X7052904Y-16914953D01*
X7052904Y-16986382D01*
X7038618Y-17043525D01*
X7024333Y-17072096D01*
X7010047Y-17086382D01*
X6981475Y-17100667D01*
X6952904Y-17100667D01*
X6924333Y-17086382D01*
X6910047Y-17072096D01*
X6895761Y-17043525D01*
X6881475Y-16986382D01*
X6881475Y-16914953D01*
X6895761Y-16857810D01*
X6910047Y-16829239D01*
X6924333Y-16814953D01*
X6952904Y-16800667D01*
X7238618Y-16800667D02*
X7267190Y-16800667D01*
X7295761Y-16814953D01*
X7310047Y-16829239D01*
X7324333Y-16857810D01*
X7338618Y-16914953D01*
X7338618Y-16986382D01*
X7324333Y-17043525D01*
X7310047Y-17072096D01*
X7295761Y-17086382D01*
X7267190Y-17100667D01*
X7238618Y-17100667D01*
X7210047Y-17086382D01*
X7195761Y-17072096D01*
X7181475Y-17043525D01*
X7167190Y-16986382D01*
X7167190Y-16914953D01*
X7181475Y-16857810D01*
X7195761Y-16829239D01*
X7210047Y-16814953D01*
X7238618Y-16800667D01*
X7467190Y-17100667D02*
X7467190Y-16900667D01*
X7467190Y-16929239D02*
X7481475Y-16914953D01*
X7510047Y-16900667D01*
X7552904Y-16900667D01*
X7581475Y-16914953D01*
X7595761Y-16943525D01*
X7595761Y-17100667D01*
X7595761Y-16943525D02*
X7610047Y-16914953D01*
X7638618Y-16900667D01*
X7681475Y-16900667D01*
X7710047Y-16914953D01*
X7724333Y-16943525D01*
X7724333Y-17100667D01*
X7867190Y-17100667D02*
X7867190Y-16900667D01*
X7867190Y-16929239D02*
X7881475Y-16914953D01*
X7910047Y-16900667D01*
X7952904Y-16900667D01*
X7981475Y-16914953D01*
X7995761Y-16943525D01*
X7995761Y-17100667D01*
X7995761Y-16943525D02*
X8010047Y-16914953D01*
X8038618Y-16900667D01*
X8081475Y-16900667D01*
X8110047Y-16914953D01*
X8124333Y-16943525D01*
X8124333Y-17100667D01*
X8710047Y-16786382D02*
X8452904Y-17172096D01*
X9095761Y-16800667D02*
X9124333Y-16800667D01*
X9152904Y-16814953D01*
X9167190Y-16829239D01*
X9181475Y-16857810D01*
X9195761Y-16914953D01*
X9195761Y-16986382D01*
X9181475Y-17043525D01*
X9167190Y-17072096D01*
X9152904Y-17086382D01*
X9124333Y-17100667D01*
X9095761Y-17100667D01*
X9067190Y-17086382D01*
X9052904Y-17072096D01*
X9038618Y-17043525D01*
X9024333Y-16986382D01*
X9024333Y-16914953D01*
X9038618Y-16857810D01*
X9052904Y-16829239D01*
X9067190Y-16814953D01*
X9095761Y-16800667D01*
X9324333Y-17072096D02*
X9338618Y-17086382D01*
X9324333Y-17100667D01*
X9310047Y-17086382D01*
X9324333Y-17072096D01*
X9324333Y-17100667D01*
X9524333Y-16800667D02*
X9552904Y-16800667D01*
X9581475Y-16814953D01*
X9595761Y-16829239D01*
X9610047Y-16857810D01*
X9624333Y-16914953D01*
X9624333Y-16986382D01*
X9610047Y-17043525D01*
X9595761Y-17072096D01*
X9581475Y-17086382D01*
X9552904Y-17100667D01*
X9524333Y-17100667D01*
X9495761Y-17086382D01*
X9481475Y-17072096D01*
X9467190Y-17043525D01*
X9452904Y-16986382D01*
X9452904Y-16914953D01*
X9467190Y-16857810D01*
X9481475Y-16829239D01*
X9495761Y-16814953D01*
X9524333Y-16800667D01*
X9795761Y-16929239D02*
X9767190Y-16914953D01*
X9752904Y-16900667D01*
X9738618Y-16872096D01*
X9738618Y-16857810D01*
X9752904Y-16829239D01*
X9767190Y-16814953D01*
X9795761Y-16800667D01*
X9852904Y-16800667D01*
X9881475Y-16814953D01*
X9895761Y-16829239D01*
X9910047Y-16857810D01*
X9910047Y-16872096D01*
X9895761Y-16900667D01*
X9881475Y-16914953D01*
X9852904Y-16929239D01*
X9795761Y-16929239D01*
X9767190Y-16943525D01*
X9752904Y-16957810D01*
X9738618Y-16986382D01*
X9738618Y-17043525D01*
X9752904Y-17072096D01*
X9767190Y-17086382D01*
X9795761Y-17100667D01*
X9852904Y-17100667D01*
X9881475Y-17086382D01*
X9895761Y-17072096D01*
X9910047Y-17043525D01*
X9910047Y-16986382D01*
X9895761Y-16957810D01*
X9881475Y-16943525D01*
X9852904Y-16929239D01*
X10167190Y-16800667D02*
X10110047Y-16800667D01*
X10081475Y-16814953D01*
X10067190Y-16829239D01*
X10038618Y-16872096D01*
X10024333Y-16929239D01*
X10024333Y-17043525D01*
X10038618Y-17072096D01*
X10052904Y-17086382D01*
X10081475Y-17100667D01*
X10138618Y-17100667D01*
X10167190Y-17086382D01*
X10181475Y-17072096D01*
X10195761Y-17043525D01*
X10195761Y-16972096D01*
X10181475Y-16943525D01*
X10167190Y-16929239D01*
X10138618Y-16914953D01*
X10081475Y-16914953D01*
X10052904Y-16929239D01*
X10038618Y-16943525D01*
X10024333Y-16972096D01*
X10452904Y-16800667D02*
X10395761Y-16800667D01*
X10367190Y-16814953D01*
X10352904Y-16829239D01*
X10324333Y-16872096D01*
X10310047Y-16929239D01*
X10310047Y-17043525D01*
X10324333Y-17072096D01*
X10338618Y-17086382D01*
X10367190Y-17100667D01*
X10424333Y-17100667D01*
X10452904Y-17086382D01*
X10467190Y-17072096D01*
X10481475Y-17043525D01*
X10481475Y-16972096D01*
X10467190Y-16943525D01*
X10452904Y-16929239D01*
X10424333Y-16914953D01*
X10367190Y-16914953D01*
X10338618Y-16929239D01*
X10324333Y-16943525D01*
X10310047Y-16972096D01*
X10595761Y-16800667D02*
X10595761Y-16857810D01*
X10710047Y-16800667D02*
X10710047Y-16857810D01*
X11152904Y-17214953D02*
X11138618Y-17200667D01*
X11110047Y-17157810D01*
X11095761Y-17129239D01*
X11081475Y-17086382D01*
X11067190Y-17014953D01*
X11067190Y-16957810D01*
X11081475Y-16886382D01*
X11095761Y-16843525D01*
X11110047Y-16814953D01*
X11138618Y-16772096D01*
X11152904Y-16757810D01*
X11310047Y-16929239D02*
X11281475Y-16914953D01*
X11267190Y-16900667D01*
X11252904Y-16872096D01*
X11252904Y-16857810D01*
X11267190Y-16829239D01*
X11281475Y-16814953D01*
X11310047Y-16800667D01*
X11367190Y-16800667D01*
X11395761Y-16814953D01*
X11410047Y-16829239D01*
X11424333Y-16857810D01*
X11424333Y-16872096D01*
X11410047Y-16900667D01*
X11395761Y-16914953D01*
X11367190Y-16929239D01*
X11310047Y-16929239D01*
X11281475Y-16943525D01*
X11267190Y-16957810D01*
X11252904Y-16986382D01*
X11252904Y-17043525D01*
X11267190Y-17072096D01*
X11281475Y-17086382D01*
X11310047Y-17100667D01*
X11367190Y-17100667D01*
X11395761Y-17086382D01*
X11410047Y-17072096D01*
X11424333Y-17043525D01*
X11424333Y-16986382D01*
X11410047Y-16957810D01*
X11395761Y-16943525D01*
X11367190Y-16929239D01*
X11781475Y-17100667D02*
X11781475Y-16800667D01*
X11910047Y-17100667D02*
X11910047Y-16943525D01*
X11895761Y-16914953D01*
X11867190Y-16900667D01*
X11824333Y-16900667D01*
X11795761Y-16914953D01*
X11781475Y-16929239D01*
X12095761Y-17100667D02*
X12067190Y-17086382D01*
X12052904Y-17072096D01*
X12038618Y-17043525D01*
X12038618Y-16957810D01*
X12052904Y-16929239D01*
X12067190Y-16914953D01*
X12095761Y-16900667D01*
X12138618Y-16900667D01*
X12167190Y-16914953D01*
X12181475Y-16929239D01*
X12195761Y-16957810D01*
X12195761Y-17043525D01*
X12181475Y-17072096D01*
X12167190Y-17086382D01*
X12138618Y-17100667D01*
X12095761Y-17100667D01*
X12367190Y-17100667D02*
X12338618Y-17086382D01*
X12324333Y-17057810D01*
X12324333Y-16800667D01*
X12595761Y-17086382D02*
X12567190Y-17100667D01*
X12510047Y-17100667D01*
X12481475Y-17086382D01*
X12467190Y-17057810D01*
X12467190Y-16943525D01*
X12481475Y-16914953D01*
X12510047Y-16900667D01*
X12567190Y-16900667D01*
X12595761Y-16914953D01*
X12610047Y-16943525D01*
X12610047Y-16972096D01*
X12467190Y-17000667D01*
X12724333Y-17086382D02*
X12752904Y-17100667D01*
X12810047Y-17100667D01*
X12838618Y-17086382D01*
X12852904Y-17057810D01*
X12852904Y-17043525D01*
X12838618Y-17014953D01*
X12810047Y-17000667D01*
X12767190Y-17000667D01*
X12738618Y-16986382D01*
X12724333Y-16957810D01*
X12724333Y-16943525D01*
X12738618Y-16914953D01*
X12767190Y-16900667D01*
X12810047Y-16900667D01*
X12838618Y-16914953D01*
X12952904Y-17214953D02*
X12967190Y-17200667D01*
X12995761Y-17157810D01*
X13010047Y-17129239D01*
X13024333Y-17086382D01*
X13038618Y-17014953D01*
X13038618Y-16957810D01*
X13024333Y-16886382D01*
X13010047Y-16843525D01*
X12995761Y-16814953D01*
X12967190Y-16772096D01*
X12952904Y-16757810D01*
X5895047Y-17360953D02*
G75*
G03*
X5895047Y-17360953I-215000J0D01*
G01*
X6310047Y-17296667D02*
X6310047Y-17496667D01*
X6238618Y-17182382D02*
X6167190Y-17396667D01*
X6352904Y-17396667D01*
X6467190Y-17468096D02*
X6481475Y-17482382D01*
X6467190Y-17496667D01*
X6452904Y-17482382D01*
X6467190Y-17468096D01*
X6467190Y-17496667D01*
X6581475Y-17196667D02*
X6767190Y-17196667D01*
X6667190Y-17310953D01*
X6710047Y-17310953D01*
X6738618Y-17325239D01*
X6752904Y-17339525D01*
X6767190Y-17368096D01*
X6767190Y-17439525D01*
X6752904Y-17468096D01*
X6738618Y-17482382D01*
X6710047Y-17496667D01*
X6624333Y-17496667D01*
X6595761Y-17482382D01*
X6581475Y-17468096D01*
X6952904Y-17196667D02*
X6981475Y-17196667D01*
X7010047Y-17210953D01*
X7024333Y-17225239D01*
X7038618Y-17253810D01*
X7052904Y-17310953D01*
X7052904Y-17382382D01*
X7038618Y-17439525D01*
X7024333Y-17468096D01*
X7010047Y-17482382D01*
X6981475Y-17496667D01*
X6952904Y-17496667D01*
X6924333Y-17482382D01*
X6910047Y-17468096D01*
X6895761Y-17439525D01*
X6881475Y-17382382D01*
X6881475Y-17310953D01*
X6895761Y-17253810D01*
X6910047Y-17225239D01*
X6924333Y-17210953D01*
X6952904Y-17196667D01*
X7238618Y-17196667D02*
X7267190Y-17196667D01*
X7295761Y-17210953D01*
X7310047Y-17225239D01*
X7324333Y-17253810D01*
X7338618Y-17310953D01*
X7338618Y-17382382D01*
X7324333Y-17439525D01*
X7310047Y-17468096D01*
X7295761Y-17482382D01*
X7267190Y-17496667D01*
X7238618Y-17496667D01*
X7210047Y-17482382D01*
X7195761Y-17468096D01*
X7181475Y-17439525D01*
X7167190Y-17382382D01*
X7167190Y-17310953D01*
X7181475Y-17253810D01*
X7195761Y-17225239D01*
X7210047Y-17210953D01*
X7238618Y-17196667D01*
X7467190Y-17496667D02*
X7467190Y-17296667D01*
X7467190Y-17325239D02*
X7481475Y-17310953D01*
X7510047Y-17296667D01*
X7552904Y-17296667D01*
X7581475Y-17310953D01*
X7595761Y-17339525D01*
X7595761Y-17496667D01*
X7595761Y-17339525D02*
X7610047Y-17310953D01*
X7638618Y-17296667D01*
X7681475Y-17296667D01*
X7710047Y-17310953D01*
X7724333Y-17339525D01*
X7724333Y-17496667D01*
X7867190Y-17496667D02*
X7867190Y-17296667D01*
X7867190Y-17325239D02*
X7881475Y-17310953D01*
X7910047Y-17296667D01*
X7952904Y-17296667D01*
X7981475Y-17310953D01*
X7995761Y-17339525D01*
X7995761Y-17496667D01*
X7995761Y-17339525D02*
X8010047Y-17310953D01*
X8038618Y-17296667D01*
X8081475Y-17296667D01*
X8110047Y-17310953D01*
X8124333Y-17339525D01*
X8124333Y-17496667D01*
X8710047Y-17182382D02*
X8452904Y-17568096D01*
X9095761Y-17196667D02*
X9124333Y-17196667D01*
X9152904Y-17210953D01*
X9167190Y-17225239D01*
X9181475Y-17253810D01*
X9195761Y-17310953D01*
X9195761Y-17382382D01*
X9181475Y-17439525D01*
X9167190Y-17468096D01*
X9152904Y-17482382D01*
X9124333Y-17496667D01*
X9095761Y-17496667D01*
X9067190Y-17482382D01*
X9052904Y-17468096D01*
X9038618Y-17439525D01*
X9024333Y-17382382D01*
X9024333Y-17310953D01*
X9038618Y-17253810D01*
X9052904Y-17225239D01*
X9067190Y-17210953D01*
X9095761Y-17196667D01*
X9324333Y-17468096D02*
X9338618Y-17482382D01*
X9324333Y-17496667D01*
X9310047Y-17482382D01*
X9324333Y-17468096D01*
X9324333Y-17496667D01*
X9624333Y-17496667D02*
X9452904Y-17496667D01*
X9538618Y-17496667D02*
X9538618Y-17196667D01*
X9510047Y-17239525D01*
X9481475Y-17268096D01*
X9452904Y-17282382D01*
X9881475Y-17196667D02*
X9824333Y-17196667D01*
X9795761Y-17210953D01*
X9781475Y-17225239D01*
X9752904Y-17268096D01*
X9738618Y-17325239D01*
X9738618Y-17439525D01*
X9752904Y-17468096D01*
X9767190Y-17482382D01*
X9795761Y-17496667D01*
X9852904Y-17496667D01*
X9881475Y-17482382D01*
X9895761Y-17468096D01*
X9910047Y-17439525D01*
X9910047Y-17368096D01*
X9895761Y-17339525D01*
X9881475Y-17325239D01*
X9852904Y-17310953D01*
X9795761Y-17310953D01*
X9767190Y-17325239D01*
X9752904Y-17339525D01*
X9738618Y-17368096D01*
X10052904Y-17496667D02*
X10110047Y-17496667D01*
X10138618Y-17482382D01*
X10152904Y-17468096D01*
X10181475Y-17425239D01*
X10195761Y-17368096D01*
X10195761Y-17253810D01*
X10181475Y-17225239D01*
X10167190Y-17210953D01*
X10138618Y-17196667D01*
X10081475Y-17196667D01*
X10052904Y-17210953D01*
X10038618Y-17225239D01*
X10024333Y-17253810D01*
X10024333Y-17325239D01*
X10038618Y-17353810D01*
X10052904Y-17368096D01*
X10081475Y-17382382D01*
X10138618Y-17382382D01*
X10167190Y-17368096D01*
X10181475Y-17353810D01*
X10195761Y-17325239D01*
X10295761Y-17196667D02*
X10481475Y-17196667D01*
X10381475Y-17310953D01*
X10424333Y-17310953D01*
X10452904Y-17325239D01*
X10467190Y-17339525D01*
X10481475Y-17368096D01*
X10481475Y-17439525D01*
X10467190Y-17468096D01*
X10452904Y-17482382D01*
X10424333Y-17496667D01*
X10338618Y-17496667D01*
X10310047Y-17482382D01*
X10295761Y-17468096D01*
X10595761Y-17196667D02*
X10595761Y-17253810D01*
X10710047Y-17196667D02*
X10710047Y-17253810D01*
X11152904Y-17610953D02*
X11138618Y-17596667D01*
X11110047Y-17553810D01*
X11095761Y-17525239D01*
X11081475Y-17482382D01*
X11067190Y-17410953D01*
X11067190Y-17353810D01*
X11081475Y-17282382D01*
X11095761Y-17239525D01*
X11110047Y-17210953D01*
X11138618Y-17168096D01*
X11152904Y-17153810D01*
X11252904Y-17225239D02*
X11267190Y-17210953D01*
X11295761Y-17196667D01*
X11367190Y-17196667D01*
X11395761Y-17210953D01*
X11410047Y-17225239D01*
X11424333Y-17253810D01*
X11424333Y-17282382D01*
X11410047Y-17325239D01*
X11238618Y-17496667D01*
X11424333Y-17496667D01*
X11781475Y-17496667D02*
X11781475Y-17196667D01*
X11910047Y-17496667D02*
X11910047Y-17339525D01*
X11895761Y-17310953D01*
X11867190Y-17296667D01*
X11824333Y-17296667D01*
X11795761Y-17310953D01*
X11781475Y-17325239D01*
X12095761Y-17496667D02*
X12067190Y-17482382D01*
X12052904Y-17468096D01*
X12038618Y-17439525D01*
X12038618Y-17353810D01*
X12052904Y-17325239D01*
X12067190Y-17310953D01*
X12095761Y-17296667D01*
X12138618Y-17296667D01*
X12167190Y-17310953D01*
X12181475Y-17325239D01*
X12195761Y-17353810D01*
X12195761Y-17439525D01*
X12181475Y-17468096D01*
X12167190Y-17482382D01*
X12138618Y-17496667D01*
X12095761Y-17496667D01*
X12367190Y-17496667D02*
X12338618Y-17482382D01*
X12324333Y-17453810D01*
X12324333Y-17196667D01*
X12595761Y-17482382D02*
X12567190Y-17496667D01*
X12510047Y-17496667D01*
X12481475Y-17482382D01*
X12467190Y-17453810D01*
X12467190Y-17339525D01*
X12481475Y-17310953D01*
X12510047Y-17296667D01*
X12567190Y-17296667D01*
X12595761Y-17310953D01*
X12610047Y-17339525D01*
X12610047Y-17368096D01*
X12467190Y-17396667D01*
X12724333Y-17482382D02*
X12752904Y-17496667D01*
X12810047Y-17496667D01*
X12838618Y-17482382D01*
X12852904Y-17453810D01*
X12852904Y-17439525D01*
X12838618Y-17410953D01*
X12810047Y-17396667D01*
X12767190Y-17396667D01*
X12738618Y-17382382D01*
X12724333Y-17353810D01*
X12724333Y-17339525D01*
X12738618Y-17310953D01*
X12767190Y-17296667D01*
X12810047Y-17296667D01*
X12838618Y-17310953D01*
X12952904Y-17610953D02*
X12967190Y-17596667D01*
X12995761Y-17553810D01*
X13010047Y-17525239D01*
X13024333Y-17482382D01*
X13038618Y-17410953D01*
X13038618Y-17353810D01*
X13024333Y-17282382D01*
X13010047Y-17239525D01*
X12995761Y-17210953D01*
X12967190Y-17168096D01*
X12952904Y-17153810D01*
M02*
