%TF.GenerationSoftware,KiCad,Pcbnew,(5.1.10)-1*%
%TF.CreationDate,2021-09-29T22:37:26-06:00*%
%TF.ProjectId,PyKey60,50794b65-7936-4302-9e6b-696361645f70,1.1a*%
%TF.SameCoordinates,Original*%
%TF.FileFunction,Profile,NP*%
%FSLAX46Y46*%
G04 Gerber Fmt 4.6, Leading zero omitted, Abs format (unit mm)*
G04 Created by KiCad (PCBNEW (5.1.10)-1) date 2021-09-29 22:37:26*
%MOMM*%
%LPD*%
G01*
G04 APERTURE LIST*
%TA.AperFunction,Profile*%
%ADD10C,0.099060*%
%TD*%
%TA.AperFunction,Profile*%
%ADD11C,0.050000*%
%TD*%
G04 APERTURE END LIST*
D10*
X75510000Y-63920000D02*
X85510000Y-63920000D01*
X75510000Y-64928750D02*
X75510000Y-63920000D01*
X85510000Y-63920000D02*
X85510000Y-64928750D01*
X64325500Y-158908750D02*
X345249500Y-158908750D01*
X75510000Y-64928750D02*
X64325500Y-64928750D01*
X85510000Y-64928750D02*
X345249500Y-64928750D01*
X62293500Y-156876750D02*
G75*
G03*
X64325500Y-158908750I2032000J0D01*
G01*
X347281500Y-66960750D02*
G75*
G03*
X345249500Y-64928750I-2032000J0D01*
G01*
X347281500Y-156876750D02*
X347281500Y-66960750D01*
X345249500Y-158908750D02*
G75*
G03*
X347281500Y-156876750I0J2032000D01*
G01*
X62293500Y-66960750D02*
X62293500Y-156876750D01*
X64325500Y-64928750D02*
G75*
G03*
X62293500Y-66960750I0J-2032000D01*
G01*
D11*
%TO.C,U57*%
X194581000Y-146470000D02*
X191181000Y-146470000D01*
X191181000Y-146470000D02*
X191181000Y-143470000D01*
X191181000Y-143470000D02*
X194581000Y-143470000D01*
X194581000Y-143470000D02*
X194581000Y-146470000D01*
%TO.C,U53*%
X323169000Y-127420000D02*
X319769000Y-127420000D01*
X319769000Y-127420000D02*
X319769000Y-124420000D01*
X319769000Y-124420000D02*
X323169000Y-124420000D01*
X323169000Y-124420000D02*
X323169000Y-127420000D01*
%TO.C,U42*%
X85012000Y-127420000D02*
X81612000Y-127420000D01*
X81612000Y-127420000D02*
X81612000Y-124420000D01*
X81612000Y-124420000D02*
X85012000Y-124420000D01*
X85012000Y-124420000D02*
X85012000Y-127420000D01*
%TO.C,U41*%
X327931000Y-108370000D02*
X324531000Y-108370000D01*
X324531000Y-108370000D02*
X324531000Y-105370000D01*
X324531000Y-105370000D02*
X327931000Y-105370000D01*
X327931000Y-105370000D02*
X327931000Y-108370000D01*
%TO.C,U14*%
X330313000Y-70270000D02*
X326913000Y-70270000D01*
X326913000Y-70270000D02*
X326913000Y-67270000D01*
X326913000Y-67270000D02*
X330313000Y-67270000D01*
X330313000Y-67270000D02*
X330313000Y-70270000D01*
%TO.C,U29*%
X80282500Y-108370000D02*
X76882500Y-108370000D01*
X76882500Y-108370000D02*
X76882500Y-105370000D01*
X76882500Y-105370000D02*
X80282500Y-105370000D01*
X80282500Y-105370000D02*
X80282500Y-108370000D01*
%TO.C,U28*%
X335075000Y-89320000D02*
X331675000Y-89320000D01*
X331675000Y-89320000D02*
X331675000Y-86320000D01*
X331675000Y-86320000D02*
X335075000Y-86320000D01*
X335075000Y-86320000D02*
X335075000Y-89320000D01*
%TO.C,U15*%
X77900000Y-89320000D02*
X74500000Y-89320000D01*
X74500000Y-89320000D02*
X74500000Y-86320000D01*
X74500000Y-86320000D02*
X77900000Y-86320000D01*
X77900000Y-86320000D02*
X77900000Y-89320000D01*
%TO.C,U61*%
X337444000Y-146470000D02*
X334044000Y-146470000D01*
X334044000Y-146470000D02*
X334044000Y-143470000D01*
X334044000Y-143470000D02*
X337444000Y-143470000D01*
X337444000Y-143470000D02*
X337444000Y-146470000D01*
%TO.C,U60*%
X313631000Y-146470000D02*
X310231000Y-146470000D01*
X310231000Y-146470000D02*
X310231000Y-143470000D01*
X310231000Y-143470000D02*
X313631000Y-143470000D01*
X313631000Y-143470000D02*
X313631000Y-146470000D01*
%TO.C,U59*%
X289831000Y-146470000D02*
X286431000Y-146470000D01*
X286431000Y-146470000D02*
X286431000Y-143470000D01*
X286431000Y-143470000D02*
X289831000Y-143470000D01*
X289831000Y-143470000D02*
X289831000Y-146470000D01*
%TO.C,U58*%
X266019000Y-146470000D02*
X262619000Y-146470000D01*
X262619000Y-146470000D02*
X262619000Y-143470000D01*
X262619000Y-143470000D02*
X266019000Y-143470000D01*
X266019000Y-143470000D02*
X266019000Y-146470000D01*
%TO.C,U56*%
X123144000Y-146470000D02*
X119744000Y-146470000D01*
X119744000Y-146470000D02*
X119744000Y-143470000D01*
X119744000Y-143470000D02*
X123144000Y-143470000D01*
X123144000Y-143470000D02*
X123144000Y-146470000D01*
%TO.C,U55*%
X99331200Y-146470000D02*
X95931200Y-146470000D01*
X95931200Y-146470000D02*
X95931200Y-143470000D01*
X95931200Y-143470000D02*
X99331200Y-143470000D01*
X99331200Y-143470000D02*
X99331200Y-146470000D01*
%TO.C,U54*%
X75518800Y-146470000D02*
X72118800Y-146470000D01*
X72118800Y-146470000D02*
X72118800Y-143470000D01*
X72118800Y-143470000D02*
X75518800Y-143470000D01*
X75518800Y-143470000D02*
X75518800Y-146470000D01*
%TO.C,U52*%
X287450000Y-127420000D02*
X284050000Y-127420000D01*
X284050000Y-127420000D02*
X284050000Y-124420000D01*
X284050000Y-124420000D02*
X287450000Y-124420000D01*
X287450000Y-124420000D02*
X287450000Y-127420000D01*
%TO.C,U51*%
X268400000Y-127420000D02*
X265000000Y-127420000D01*
X265000000Y-127420000D02*
X265000000Y-124420000D01*
X265000000Y-124420000D02*
X268400000Y-124420000D01*
X268400000Y-124420000D02*
X268400000Y-127420000D01*
%TO.C,U50*%
X249350000Y-127420000D02*
X245950000Y-127420000D01*
X245950000Y-127420000D02*
X245950000Y-124420000D01*
X245950000Y-124420000D02*
X249350000Y-124420000D01*
X249350000Y-124420000D02*
X249350000Y-127420000D01*
%TO.C,U49*%
X230300000Y-127420000D02*
X226900000Y-127420000D01*
X226900000Y-127420000D02*
X226900000Y-124420000D01*
X226900000Y-124420000D02*
X230300000Y-124420000D01*
X230300000Y-124420000D02*
X230300000Y-127420000D01*
%TO.C,U48*%
X211250000Y-127420000D02*
X207850000Y-127420000D01*
X207850000Y-127420000D02*
X207850000Y-124420000D01*
X207850000Y-124420000D02*
X211250000Y-124420000D01*
X211250000Y-124420000D02*
X211250000Y-127420000D01*
%TO.C,U47*%
X192200000Y-127420000D02*
X188800000Y-127420000D01*
X188800000Y-127420000D02*
X188800000Y-124420000D01*
X188800000Y-124420000D02*
X192200000Y-124420000D01*
X192200000Y-124420000D02*
X192200000Y-127420000D01*
%TO.C,U46*%
X173150000Y-127420000D02*
X169750000Y-127420000D01*
X169750000Y-127420000D02*
X169750000Y-124420000D01*
X169750000Y-124420000D02*
X173150000Y-124420000D01*
X173150000Y-124420000D02*
X173150000Y-127420000D01*
%TO.C,U45*%
X154100000Y-127420000D02*
X150700000Y-127420000D01*
X150700000Y-127420000D02*
X150700000Y-124420000D01*
X150700000Y-124420000D02*
X154100000Y-124420000D01*
X154100000Y-124420000D02*
X154100000Y-127420000D01*
%TO.C,U44*%
X135050000Y-127420000D02*
X131650000Y-127420000D01*
X131650000Y-127420000D02*
X131650000Y-124420000D01*
X131650000Y-124420000D02*
X135050000Y-124420000D01*
X135050000Y-124420000D02*
X135050000Y-127420000D01*
%TO.C,U43*%
X116000000Y-127420000D02*
X112600000Y-127420000D01*
X112600000Y-127420000D02*
X112600000Y-124420000D01*
X112600000Y-124420000D02*
X116000000Y-124420000D01*
X116000000Y-124420000D02*
X116000000Y-127420000D01*
%TO.C,U40*%
X296975000Y-108370000D02*
X293575000Y-108370000D01*
X293575000Y-108370000D02*
X293575000Y-105370000D01*
X293575000Y-105370000D02*
X296975000Y-105370000D01*
X296975000Y-105370000D02*
X296975000Y-108370000D01*
%TO.C,U39*%
X277925000Y-108370000D02*
X274525000Y-108370000D01*
X274525000Y-108370000D02*
X274525000Y-105370000D01*
X274525000Y-105370000D02*
X277925000Y-105370000D01*
X277925000Y-105370000D02*
X277925000Y-108370000D01*
%TO.C,U38*%
X258875000Y-108370000D02*
X255475000Y-108370000D01*
X255475000Y-108370000D02*
X255475000Y-105370000D01*
X255475000Y-105370000D02*
X258875000Y-105370000D01*
X258875000Y-105370000D02*
X258875000Y-108370000D01*
%TO.C,U37*%
X239825000Y-108370000D02*
X236425000Y-108370000D01*
X236425000Y-108370000D02*
X236425000Y-105370000D01*
X236425000Y-105370000D02*
X239825000Y-105370000D01*
X239825000Y-105370000D02*
X239825000Y-108370000D01*
%TO.C,U36*%
X220775000Y-108370000D02*
X217375000Y-108370000D01*
X217375000Y-108370000D02*
X217375000Y-105370000D01*
X217375000Y-105370000D02*
X220775000Y-105370000D01*
X220775000Y-105370000D02*
X220775000Y-108370000D01*
%TO.C,U35*%
X201725000Y-108370000D02*
X198325000Y-108370000D01*
X198325000Y-108370000D02*
X198325000Y-105370000D01*
X198325000Y-105370000D02*
X201725000Y-105370000D01*
X201725000Y-105370000D02*
X201725000Y-108370000D01*
%TO.C,U34*%
X182675000Y-108370000D02*
X179275000Y-108370000D01*
X179275000Y-108370000D02*
X179275000Y-105370000D01*
X179275000Y-105370000D02*
X182675000Y-105370000D01*
X182675000Y-105370000D02*
X182675000Y-108370000D01*
%TO.C,U33*%
X163625000Y-108370000D02*
X160225000Y-108370000D01*
X160225000Y-108370000D02*
X160225000Y-105370000D01*
X160225000Y-105370000D02*
X163625000Y-105370000D01*
X163625000Y-105370000D02*
X163625000Y-108370000D01*
%TO.C,U32*%
X144575000Y-108370000D02*
X141175000Y-108370000D01*
X141175000Y-108370000D02*
X141175000Y-105370000D01*
X141175000Y-105370000D02*
X144575000Y-105370000D01*
X144575000Y-105370000D02*
X144575000Y-108370000D01*
%TO.C,U31*%
X125525000Y-108370000D02*
X122125000Y-108370000D01*
X122125000Y-108370000D02*
X122125000Y-105370000D01*
X122125000Y-105370000D02*
X125525000Y-105370000D01*
X125525000Y-105370000D02*
X125525000Y-108370000D01*
%TO.C,U30*%
X106475000Y-108370000D02*
X103075000Y-108370000D01*
X103075000Y-108370000D02*
X103075000Y-105370000D01*
X103075000Y-105370000D02*
X106475000Y-105370000D01*
X106475000Y-105370000D02*
X106475000Y-108370000D01*
%TO.C,U27*%
X311262000Y-89320000D02*
X307862000Y-89320000D01*
X307862000Y-89320000D02*
X307862000Y-86320000D01*
X307862000Y-86320000D02*
X311262000Y-86320000D01*
X311262000Y-86320000D02*
X311262000Y-89320000D01*
%TO.C,U26*%
X292212000Y-89320000D02*
X288812000Y-89320000D01*
X288812000Y-89320000D02*
X288812000Y-86320000D01*
X288812000Y-86320000D02*
X292212000Y-86320000D01*
X292212000Y-86320000D02*
X292212000Y-89320000D01*
%TO.C,U25*%
X273162000Y-89320000D02*
X269762000Y-89320000D01*
X269762000Y-89320000D02*
X269762000Y-86320000D01*
X269762000Y-86320000D02*
X273162000Y-86320000D01*
X273162000Y-86320000D02*
X273162000Y-89320000D01*
%TO.C,U24*%
X254112000Y-89320000D02*
X250712000Y-89320000D01*
X250712000Y-89320000D02*
X250712000Y-86320000D01*
X250712000Y-86320000D02*
X254112000Y-86320000D01*
X254112000Y-86320000D02*
X254112000Y-89320000D01*
%TO.C,U23*%
X235062000Y-89320000D02*
X231662000Y-89320000D01*
X231662000Y-89320000D02*
X231662000Y-86320000D01*
X231662000Y-86320000D02*
X235062000Y-86320000D01*
X235062000Y-86320000D02*
X235062000Y-89320000D01*
%TO.C,U22*%
X216012000Y-89320000D02*
X212612000Y-89320000D01*
X212612000Y-89320000D02*
X212612000Y-86320000D01*
X212612000Y-86320000D02*
X216012000Y-86320000D01*
X216012000Y-86320000D02*
X216012000Y-89320000D01*
%TO.C,U21*%
X196962000Y-89320000D02*
X193562000Y-89320000D01*
X193562000Y-89320000D02*
X193562000Y-86320000D01*
X193562000Y-86320000D02*
X196962000Y-86320000D01*
X196962000Y-86320000D02*
X196962000Y-89320000D01*
%TO.C,U20*%
X177912000Y-89320000D02*
X174512000Y-89320000D01*
X174512000Y-89320000D02*
X174512000Y-86320000D01*
X174512000Y-86320000D02*
X177912000Y-86320000D01*
X177912000Y-86320000D02*
X177912000Y-89320000D01*
%TO.C,U19*%
X158862000Y-89320000D02*
X155462000Y-89320000D01*
X155462000Y-89320000D02*
X155462000Y-86320000D01*
X155462000Y-86320000D02*
X158862000Y-86320000D01*
X158862000Y-86320000D02*
X158862000Y-89320000D01*
%TO.C,U18*%
X139812000Y-89320000D02*
X136412000Y-89320000D01*
X136412000Y-89320000D02*
X136412000Y-86320000D01*
X136412000Y-86320000D02*
X139812000Y-86320000D01*
X139812000Y-86320000D02*
X139812000Y-89320000D01*
%TO.C,U17*%
X120762000Y-89320000D02*
X117362000Y-89320000D01*
X117362000Y-89320000D02*
X117362000Y-86320000D01*
X117362000Y-86320000D02*
X120762000Y-86320000D01*
X120762000Y-86320000D02*
X120762000Y-89320000D01*
%TO.C,U16*%
X101712000Y-89320000D02*
X98312000Y-89320000D01*
X98312000Y-89320000D02*
X98312000Y-86320000D01*
X98312000Y-86320000D02*
X101712000Y-86320000D01*
X101712000Y-86320000D02*
X101712000Y-89320000D01*
%TO.C,U13*%
X301738000Y-70270000D02*
X298338000Y-70270000D01*
X298338000Y-70270000D02*
X298338000Y-67270000D01*
X298338000Y-67270000D02*
X301738000Y-67270000D01*
X301738000Y-67270000D02*
X301738000Y-70270000D01*
%TO.C,U12*%
X282688000Y-70270000D02*
X279288000Y-70270000D01*
X279288000Y-70270000D02*
X279288000Y-67270000D01*
X279288000Y-67270000D02*
X282688000Y-67270000D01*
X282688000Y-67270000D02*
X282688000Y-70270000D01*
%TO.C,U11*%
X263638000Y-70270000D02*
X260238000Y-70270000D01*
X260238000Y-70270000D02*
X260238000Y-67270000D01*
X260238000Y-67270000D02*
X263638000Y-67270000D01*
X263638000Y-67270000D02*
X263638000Y-70270000D01*
%TO.C,U10*%
X244588000Y-70270000D02*
X241188000Y-70270000D01*
X241188000Y-70270000D02*
X241188000Y-67270000D01*
X241188000Y-67270000D02*
X244588000Y-67270000D01*
X244588000Y-67270000D02*
X244588000Y-70270000D01*
%TO.C,U9*%
X225538000Y-70270000D02*
X222138000Y-70270000D01*
X222138000Y-70270000D02*
X222138000Y-67270000D01*
X222138000Y-67270000D02*
X225538000Y-67270000D01*
X225538000Y-67270000D02*
X225538000Y-70270000D01*
%TO.C,U8*%
X206488000Y-70270000D02*
X203088000Y-70270000D01*
X203088000Y-70270000D02*
X203088000Y-67270000D01*
X203088000Y-67270000D02*
X206488000Y-67270000D01*
X206488000Y-67270000D02*
X206488000Y-70270000D01*
%TO.C,U7*%
X187438000Y-70270000D02*
X184038000Y-70270000D01*
X184038000Y-70270000D02*
X184038000Y-67270000D01*
X184038000Y-67270000D02*
X187438000Y-67270000D01*
X187438000Y-67270000D02*
X187438000Y-70270000D01*
%TO.C,U6*%
X168388000Y-70270000D02*
X164988000Y-70270000D01*
X164988000Y-70270000D02*
X164988000Y-67270000D01*
X164988000Y-67270000D02*
X168388000Y-67270000D01*
X168388000Y-67270000D02*
X168388000Y-70270000D01*
%TO.C,U5*%
X149338000Y-70270000D02*
X145938000Y-70270000D01*
X145938000Y-70270000D02*
X145938000Y-67270000D01*
X145938000Y-67270000D02*
X149338000Y-67270000D01*
X149338000Y-67270000D02*
X149338000Y-70270000D01*
%TO.C,U4*%
X130288000Y-70270000D02*
X126888000Y-70270000D01*
X126888000Y-70270000D02*
X126888000Y-67270000D01*
X126888000Y-67270000D02*
X130288000Y-67270000D01*
X130288000Y-67270000D02*
X130288000Y-70270000D01*
%TO.C,U3*%
X111238000Y-70270000D02*
X107838000Y-70270000D01*
X107838000Y-70270000D02*
X107838000Y-67270000D01*
X107838000Y-67270000D02*
X111238000Y-67270000D01*
X111238000Y-67270000D02*
X111238000Y-70270000D01*
%TO.C,U2*%
X92187500Y-70270000D02*
X88787500Y-70270000D01*
X88787500Y-70270000D02*
X88787500Y-67270000D01*
X88787500Y-67270000D02*
X92187500Y-67270000D01*
X92187500Y-67270000D02*
X92187500Y-70270000D01*
%TO.C,U1*%
X73137500Y-70270000D02*
X69737500Y-70270000D01*
X69737500Y-70270000D02*
X69737500Y-67270000D01*
X69737500Y-67270000D02*
X73137500Y-67270000D01*
X73137500Y-67270000D02*
X73137500Y-70270000D01*
%TD*%
M02*
