M48
; DRILL file {KiCad (5.1.10)-1} date 09/29/21 22:37:29
; FORMAT={-:-/ absolute / inch / decimal}
; #@! TF.CreationDate,2021-09-29T22:37:29-06:00
; #@! TF.GenerationSoftware,Kicad,Pcbnew,(5.1.10)-1
; #@! TF.FileFunction,Plated,1,2,PTH
FMAT,2
INCH
T1C0.0120
T2C0.0138
T3C0.0236
T4C0.0394
T5C0.0984
%
G90
G05
T1
X2.57Y-2.7763
X2.62Y-2.6863
X2.7Y-5.7213
X2.721Y-5.6713
X2.8Y-3.4213
X2.82Y-3.3363
X2.885Y-3.9963
X2.9Y-3.1563
X2.96Y-5.4913
X2.97Y-3.2363
X2.99Y-5.4613
X3.01Y-2.6763
X3.045Y-4.7863
X3.07Y-2.9063
X3.09Y-4.9063
X3.095Y-5.6713
X3.115Y-2.9013
X3.135Y-3.2063
X3.155Y-3.9813
X3.185Y-2.5763
X3.185Y-2.6713
X3.185Y-3.1663
X3.19Y-3.4213
X3.2504Y-4.7231
X3.265Y-2.9013
X3.3Y-5.3313
X3.302Y-4.18
X3.305Y-2.9063
X3.38Y-2.7013
X3.43Y-2.6223
X3.4734Y-3.2909
X3.475Y-5.5913
X3.485Y-4.9263
X3.49Y-4.6513
X3.535Y-5.5863
X3.57Y-4.6513
X3.5705Y-4.3658
X3.595Y-3.2963
X3.605Y-5.0513
X3.64Y-5.5163
X3.64Y-5.6713
X3.64Y-5.7463
X3.68Y-3.3913
X3.72Y-3.2363
X3.73Y-3.4963
X3.735Y-3.4163
X3.75Y-3.2063
X3.805Y-2.7713
X3.81Y-5.2913
X3.925Y-4.1613
X3.93Y-4.2413
X3.985Y-4.9513
X4.025Y-5.3313
X4.035Y-5.6813
X4.055Y-3.2063
X4.1Y-2.6513
X4.105Y-3.9813
X4.13Y-5.5613
X4.148Y-3.4413
X4.1943Y-5.4191
X4.285Y-4.7323
X4.29Y-4.9213
X4.295Y-4.9963
X4.33Y-4.1613
X4.365Y-3.2063
X4.46Y-3.4213
X4.475Y-3.2413
X4.485Y-3.4913
X4.495Y-5.6003
X4.555Y-5.7513
X4.585Y-5.6963
X4.645Y-4.2363
X4.65Y-5.0563
X4.66Y-4.1613
X4.73Y-4.9263
X4.79Y-3.2063
X4.82Y-5.0513
X4.825Y-2.6463
X4.825Y-5.4913
X4.85Y-3.9813
X4.867Y-3.4213
X4.995Y-5.6813
X5.035Y-4.7323
X5.045Y-4.9213
X5.045Y-4.9913
X5.045Y-5.4253
X5.08Y-3.2063
X5.1Y-4.1663
X5.225Y-3.4963
X5.23Y-3.2363
X5.23Y-3.4263
X5.385Y-5.0563
X5.4Y-4.2413
X5.415Y-4.1763
X5.48Y-4.9213
X5.5Y-3.2063
X5.575Y-5.0513
X5.59Y-3.9813
X5.605Y-2.6663
X5.645Y-3.4163
X5.685Y-5.4963
X5.745Y-5.4313
X5.785Y-4.7323
X5.79Y-4.9213
X5.79Y-4.9863
X5.83Y-3.2063
X5.83Y-4.1713
X5.865Y-5.5013
X5.975Y-3.2363
X5.98Y-3.4213
X5.98Y-3.4863
X6.155Y-4.1763
X6.155Y-5.0563
X6.165Y-4.2413
X6.225Y-4.9163
X6.235Y-6.0613
X6.255Y-5.7913
X6.255Y-5.8313
X6.26Y-5.9723
X6.26Y-6.0263
X6.29Y-5.6563
X6.31Y-3.2063
X6.325Y-5.0513
X6.35Y-3.9813
X6.355Y-2.6663
X6.4Y-3.4263
X6.4727Y-5.9289
X6.51Y-6.2063
X6.53Y-4.9863
X6.535Y-4.7323
X6.545Y-4.9163
X6.555Y-6.0053
X6.56Y-6.0473
X6.565Y-3.2063
X6.58Y-6.2063
X6.584Y-5.6093
X6.585Y-5.4663
X6.59Y-4.1713
X6.5923Y-6.0566
X6.595Y-5.8213
X6.609Y-5.6354
X6.62Y-3.2063
X6.6219Y-6.0613
X6.6269Y-5.5691
X6.635Y-5.5313
X6.6472Y-6.0279
X6.669Y-6.0663
X6.6906Y-5.6006
X6.695Y-6.0513
X6.7082Y-6.0191
X6.7188Y-5.4603
X6.725Y-3.2363
X6.725Y-3.4213
X6.725Y-3.4863
X6.725Y-6.2063
X6.7454Y-5.6113
X6.7484Y-5.4651
X6.765Y-6.1813
X6.7701Y-5.8496
X6.7875Y-5.5988
X6.815Y-5.6363
X6.82Y-5.6013
X6.86Y-5.6463
X6.865Y-6.1763
X6.871Y-6.0031
X6.8743Y-5.8332
X6.8743Y-5.9062
X6.8858Y-5.9563
X6.895Y-5.6363
X6.9Y-5.0563
X6.905Y-4.1663
X6.9073Y-5.9813
X6.915Y-4.2413
X6.935Y-5.6363
X6.955Y-4.9213
X6.965Y-5.6413
X7.01Y-6.0063
X7.0442Y-5.6605
X7.0648Y-5.7161
X7.07Y-5.0513
X7.095Y-3.9813
X7.11Y-2.6713
X7.1226Y-6.0433
X7.165Y-3.4313
X7.21Y-5.9463
X7.23Y-5.6663
X7.235Y-5.7913
X7.2447Y-6.1516
X7.285Y-4.9113
X7.29Y-4.7323
X7.29Y-4.9963
X7.345Y-3.2063
X7.35Y-4.1763
X7.385Y-5.6713
X7.47Y-3.4263
X7.475Y-3.4913
X7.48Y-3.2363
X7.666Y-4.1724
X7.666Y-4.2413
X7.68Y-5.0563
X7.745Y-4.9313
X7.795Y-5.6763
X7.81Y-5.6163
X7.82Y-5.0503
X7.845Y-2.6663
X7.8482Y-5.5653
X7.85Y-3.9813
X7.875Y-3.2063
X7.8829Y-5.5637
X7.91Y-3.4263
X7.9632Y-5.4683
X8.015Y-5.9763
X8.035Y-4.7323
X8.04Y-4.9213
X8.05Y-4.9963
X8.09Y-3.2063
X8.095Y-4.1663
X8.23Y-3.2363
X8.2338Y-3.4201
X8.235Y-3.4863
X8.395Y-4.1713
X8.395Y-4.2363
X8.395Y-5.0563
X8.465Y-5.9813
X8.47Y-4.9163
X8.575Y-4.9263
X8.575Y-5.0513
X8.595Y-3.9813
X8.605Y-3.2063
X8.61Y-2.6713
X8.635Y-5.5813
X8.6767Y-3.4396
X8.715Y-4.9263
X8.725Y-5.4463
X8.765Y-6.1063
X8.79Y-4.7323
X8.795Y-4.9913
X8.835Y-4.1663
X8.84Y-3.2063
X8.975Y-3.2363
X8.975Y-3.4213
X8.98Y-3.4913
X9.145Y-4.1663
X9.155Y-4.2313
X9.165Y-5.0563
X9.215Y-4.9213
X9.33Y-3.2063
X9.33Y-5.0513
X9.345Y-3.9813
X9.35Y-2.6763
X9.42Y-3.4163
X9.4379Y-5.4106
X9.505Y-5.8763
X9.535Y-4.9963
X9.54Y-4.7323
X9.545Y-4.9263
X9.575Y-3.2063
X9.59Y-4.1713
X9.72Y-3.2363
X9.72Y-3.4213
X9.725Y-3.4963
X9.915Y-4.1813
X9.915Y-4.2413
X9.925Y-5.0563
X9.97Y-4.9213
X10.08Y-5.0513
X10.09Y-3.9813
X10.11Y-2.6663
X10.11Y-3.2063
X10.18Y-3.4363
X10.18Y-5.7463
X10.195Y-5.6663
X10.205Y-5.4193
X10.28Y-4.9963
X10.285Y-4.7323
X10.2962Y-4.9201
X10.33Y-3.2063
X10.34Y-4.1813
X10.36Y-2.7963
X10.46Y-3.4863
X10.48Y-3.2363
X10.485Y-3.4263
X10.58Y-5.7913
X10.61Y-5.6763
X10.655Y-4.2413
X10.655Y-5.0563
X10.66Y-4.1663
X10.705Y-4.9213
X10.81Y-3.2063
X10.825Y-5.0513
X10.845Y-3.9813
X10.8538Y-2.6701
X10.885Y-3.4313
X10.935Y-5.4313
X11.035Y-4.9163
X11.04Y-4.7323
X11.05Y-4.9913
X11.07Y-3.2063
X11.075Y-4.1763
X11.11Y-2.7963
X11.14Y-5.6763
X11.14Y-5.7513
X11.225Y-3.4913
X11.2265Y-3.2363
X11.23Y-3.4163
X11.405Y-4.2413
X11.41Y-4.1613
X11.43Y-5.0563
X11.5Y-4.9313
X11.525Y-5.8063
X11.535Y-5.6713
X11.575Y-5.0513
X11.59Y-2.6663
X11.595Y-3.9813
X11.62Y-3.2063
X11.67Y-3.4263
X11.69Y-5.4413
X11.76Y-5.4763
X11.79Y-4.7323
X11.84Y-4.1713
X11.85Y-3.2063
X11.86Y-2.7963
X11.97Y-3.2363
X11.98Y-3.4963
X11.9888Y-3.4201
X12.07Y-5.6713
X12.075Y-3.9863
X12.08Y-5.7463
X12.2681Y-3.2035
X12.375Y-5.4413
X12.42Y-3.4213
X12.43Y-5.7963
X12.44Y-4.9913
X12.5Y-5.6613
X12.64Y-4.2463
X12.645Y-4.1763
X12.72Y-2.6713
X12.745Y-4.8613
X12.875Y-5.0563
X12.89Y-3.4913
X12.905Y-3.4163
X12.98Y-2.7963
X12.98Y-5.0513
X12.995Y-5.7463
X13.0Y-5.6613
X13.015Y-3.9813
X13.095Y-3.2363
X13.145Y-4.2263
X13.22Y-2.6863
X13.275Y-3.3063
X13.31Y-3.4263
X13.31Y-4.5213
X13.36Y-5.8113
T2
X6.6348Y-5.7761
X6.6348Y-5.8263
X6.6348Y-5.8765
X6.685Y-5.7761
X6.685Y-5.8263
X6.685Y-5.8765
X6.7352Y-5.7761
X6.7352Y-5.8263
X6.7352Y-5.8765
T4
X6.93Y-6.1463
X7.03Y-6.1463
X7.13Y-6.1463
X8.125Y-5.8313
X8.225Y-5.8313
X8.325Y-5.8313
X8.325Y-6.1313
X8.425Y-5.8313
X8.425Y-6.1313
X8.525Y-5.8313
X8.525Y-6.1313
X8.625Y-5.8313
X8.625Y-6.1313
T5
X3.4445Y-3.6426
T3
G00X2.9999Y-2.5731
M15
G01X2.9999Y-2.5968
M16
G05
G00X2.9999Y-2.7279
M15
G01X2.9999Y-2.7712
M16
G05
G00X3.3401Y-2.5731
M15
G01X3.3401Y-2.5968
M16
G05
G00X3.3401Y-2.7279
M15
G01X3.3401Y-2.7712
M16
G05
T5
G00X9.9045Y-5.9163
M15
G01X10.003Y-5.9163
M16
G05
G00X12.6258Y-3.6563
M15
G01X12.7242Y-3.6563
M16
G05
T0
M30
