M48
; DRILL file {KiCad (5.1.10)-1} date 09/29/21 22:37:29
; FORMAT={-:-/ absolute / inch / decimal}
; #@! TF.CreationDate,2021-09-29T22:37:29-06:00
; #@! TF.GenerationSoftware,Kicad,Pcbnew,(5.1.10)-1
; #@! TF.FileFunction,NonPlated,1,2,NPTH
FMAT,2
INCH
T1C0.0256
T2C0.0354
T3C0.0689
T4C0.0984
T5C0.0984
T6C0.1181
T7C0.1201
T8C0.1575
%
G90
G05
T1
X3.0562Y-2.7287
X3.2838Y-2.7287
T2
X3.5409Y-4.2143
X3.6591Y-4.2143
T3
X2.6125Y-2.9063
X2.7063Y-5.9063
X2.8Y-3.6563
X2.8938Y-4.4063
X3.0125Y-2.9063
X3.08Y-5.1563
X3.1063Y-5.9063
X3.2Y-3.6563
X3.2938Y-4.4063
X3.3625Y-2.9063
X3.48Y-5.1563
X3.6437Y-5.9063
X3.7375Y-3.6563
X3.7625Y-2.9063
X3.925Y-4.4063
X4.0437Y-5.9063
X4.1125Y-2.9063
X4.1375Y-3.6563
X4.3Y-5.1563
X4.325Y-4.4063
X4.4875Y-3.6563
X4.5125Y-2.9063
X4.5813Y-5.9063
X4.675Y-4.4063
X4.7Y-5.1563
X4.8625Y-2.9063
X4.8875Y-3.6563
X4.9813Y-5.9063
X5.05Y-5.1563
X5.075Y-4.4063
X5.2375Y-3.6563
X5.2625Y-2.9063
X5.425Y-4.4063
X5.45Y-5.1563
X5.6125Y-2.9063
X5.6375Y-3.6563
X5.8Y-5.1563
X5.825Y-4.4063
X5.9875Y-3.6563
X6.0125Y-2.9063
X6.175Y-4.4063
X6.2Y-5.1563
X6.3625Y-2.9063
X6.3875Y-3.6563
X6.55Y-5.1563
X6.575Y-4.4063
X6.7375Y-3.6563
X6.7625Y-2.9063
X6.925Y-4.4063
X6.95Y-5.1563
X7.1125Y-2.9063
X7.1375Y-3.6563
X7.3Y-5.1563
X7.325Y-4.4063
X7.3937Y-5.9063
X7.4875Y-3.6563
X7.5125Y-2.9063
X7.675Y-4.4063
X7.7Y-5.1563
X7.7937Y-5.9063
X7.8625Y-2.9063
X7.8875Y-3.6563
X8.05Y-5.1563
X8.075Y-4.4063
X8.2375Y-3.6563
X8.2625Y-2.9063
X8.425Y-4.4063
X8.45Y-5.1563
X8.6125Y-2.9063
X8.6375Y-3.6563
X8.8Y-5.1563
X8.825Y-4.4063
X8.9875Y-3.6563
X9.0125Y-2.9063
X9.175Y-4.4063
X9.2Y-5.1563
X9.3625Y-2.9063
X9.3875Y-3.6563
X9.55Y-5.1563
X9.575Y-4.4063
X9.7375Y-3.6563
X9.7625Y-2.9063
X9.925Y-4.4063
X9.95Y-5.1563
X10.1125Y-2.9063
X10.1375Y-3.6563
X10.2063Y-5.9063
X10.3Y-5.1563
X10.325Y-4.4063
X10.4875Y-3.6563
X10.5125Y-2.9063
X10.6063Y-5.9063
X10.675Y-4.4063
X10.7Y-5.1563
X10.8625Y-2.9063
X10.8875Y-3.6563
X11.05Y-5.1563
X11.075Y-4.4063
X11.1437Y-5.9063
X11.2375Y-3.6563
X11.2625Y-2.9063
X11.425Y-4.4063
X11.45Y-5.1563
X11.5437Y-5.9063
X11.6125Y-2.9063
X11.6375Y-3.6563
X11.825Y-4.4063
X11.9875Y-3.6563
X12.0125Y-2.9063
X12.0807Y-5.9063
X12.3875Y-3.6563
X12.4563Y-5.1563
X12.4807Y-5.9063
X12.6437Y-4.4063
X12.7375Y-2.9063
X12.8563Y-5.1563
X12.925Y-3.6563
X13.0183Y-5.9063
X13.0437Y-4.4063
X13.1375Y-2.9063
X13.325Y-3.6563
X13.4183Y-5.9063
T6
X2.7125Y-3.1063
X2.8063Y-6.1063
X2.9Y-3.8563
X2.9625Y-3.0063
X2.9938Y-4.6063
X3.0563Y-6.0063
X3.15Y-3.7563
X3.18Y-5.3563
X3.2438Y-4.5063
X3.43Y-5.2563
X3.4625Y-3.1063
X3.7125Y-3.0063
X3.7437Y-6.1063
X3.8375Y-3.8563
X3.9937Y-6.0063
X4.025Y-4.6063
X4.0875Y-3.7563
X4.2125Y-3.1063
X4.275Y-4.5063
X4.4Y-5.3563
X4.4625Y-3.0063
X4.5875Y-3.8563
X4.65Y-5.2563
X4.6813Y-6.1063
X4.775Y-4.6063
X4.8375Y-3.7563
X4.9313Y-6.0063
X4.9625Y-3.1063
X5.025Y-4.5063
X5.15Y-5.3563
X5.2125Y-3.0063
X5.3375Y-3.8563
X5.4Y-5.2563
X5.525Y-4.6063
X5.5875Y-3.7563
X5.7125Y-3.1063
X5.775Y-4.5063
X5.9Y-5.3563
X5.9625Y-3.0063
X6.0875Y-3.8563
X6.15Y-5.2563
X6.275Y-4.6063
X6.3375Y-3.7563
X6.4625Y-3.1063
X6.525Y-4.5063
X6.65Y-5.3563
X6.7125Y-3.0063
X6.8375Y-3.8563
X6.9Y-5.2563
X7.025Y-4.6063
X7.0875Y-3.7563
X7.2125Y-3.1063
X7.275Y-4.5063
X7.4Y-5.3563
X7.4625Y-3.0063
X7.4937Y-6.1063
X7.5875Y-3.8563
X7.65Y-5.2563
X7.7437Y-6.0063
X7.775Y-4.6063
X7.8375Y-3.7563
X7.9625Y-3.1063
X8.025Y-4.5063
X8.15Y-5.3563
X8.2125Y-3.0063
X8.3375Y-3.8563
X8.4Y-5.2563
X8.525Y-4.6063
X8.5875Y-3.7563
X8.7125Y-3.1063
X8.775Y-4.5063
X8.9Y-5.3563
X8.9625Y-3.0063
X9.0875Y-3.8563
X9.15Y-5.2563
X9.275Y-4.6063
X9.3375Y-3.7563
X9.4625Y-3.1063
X9.525Y-4.5063
X9.65Y-5.3563
X9.7125Y-3.0063
X9.8375Y-3.8563
X9.9Y-5.2563
X10.025Y-4.6063
X10.0875Y-3.7563
X10.2125Y-3.1063
X10.275Y-4.5063
X10.3063Y-6.1063
X10.4Y-5.3563
X10.4625Y-3.0063
X10.5563Y-6.0063
X10.5875Y-3.8563
X10.65Y-5.2563
X10.775Y-4.6063
X10.8375Y-3.7563
X10.9625Y-3.1063
X11.025Y-4.5063
X11.15Y-5.3563
X11.2125Y-3.0063
X11.2437Y-6.1063
X11.3375Y-3.8563
X11.4Y-5.2563
X11.4937Y-6.0063
X11.525Y-4.6063
X11.5875Y-3.7563
X11.7125Y-3.1063
X11.775Y-4.5063
X11.9625Y-3.0063
X12.0875Y-3.8563
X12.1807Y-6.1063
X12.3375Y-3.7563
X12.4307Y-6.0063
X12.5563Y-5.3563
X12.7437Y-4.6063
X12.8063Y-5.2563
X12.8375Y-3.1063
X12.9937Y-4.5063
X13.025Y-3.8563
X13.0875Y-3.0063
X13.1183Y-6.1063
X13.275Y-3.7563
X13.3683Y-6.0063
T7
X2.81Y-5.4319
X3.75Y-5.4319
X5.6252Y-6.1819
X9.5622Y-6.1819
X12.1863Y-5.4319
X12.3737Y-4.6819
X12.4675Y-2.6307
X13.1263Y-5.4319
X13.3137Y-4.6819
X13.4075Y-2.6307
T8
X2.81Y-4.8319
X2.8125Y-2.9063
X2.9063Y-5.9063
X3.0Y-3.6563
X3.0938Y-4.4063
X3.28Y-5.1563
X3.5625Y-2.9063
X3.75Y-4.8319
X3.8437Y-5.9063
X3.9375Y-3.6563
X4.125Y-4.4063
X4.3125Y-2.9063
X4.5Y-5.1563
X4.6875Y-3.6563
X4.7813Y-5.9063
X4.875Y-4.4063
X5.0625Y-2.9063
X5.25Y-5.1563
X5.4375Y-3.6563
X5.625Y-4.4063
X5.6252Y-5.5819
X5.8125Y-2.9063
X6.0Y-5.1563
X6.1875Y-3.6563
X6.375Y-4.4063
X6.5625Y-2.9063
X6.75Y-5.1563
X6.9375Y-3.6563
X7.125Y-4.4063
X7.3125Y-2.9063
X7.5Y-5.1563
X7.5937Y-5.9063
X7.6875Y-3.6563
X7.875Y-4.4063
X8.0625Y-2.9063
X8.25Y-5.1563
X8.4375Y-3.6563
X8.625Y-4.4063
X8.8125Y-2.9063
X9.0Y-5.1563
X9.1875Y-3.6563
X9.375Y-4.4063
X9.5622Y-5.5819
X9.5625Y-2.9063
X9.75Y-5.1563
X9.9375Y-3.6563
X10.125Y-4.4063
X10.3125Y-2.9063
X10.4063Y-5.9063
X10.5Y-5.1563
X10.6875Y-3.6563
X10.875Y-4.4063
X11.0625Y-2.9063
X11.25Y-5.1563
X11.3437Y-5.9063
X11.4375Y-3.6563
X11.625Y-4.4063
X11.8125Y-2.9063
X12.1863Y-4.8319
X12.1875Y-3.6563
X12.2807Y-5.9063
X12.3737Y-4.0819
X12.4675Y-3.2307
X12.6563Y-5.1563
X12.8437Y-4.4063
X12.9375Y-2.9063
X13.125Y-3.6563
X13.1263Y-4.8319
X13.2183Y-5.9063
X13.3137Y-4.0819
X13.4075Y-3.2307
T4
G00X2.4214Y-4.7813
M15
G01X2.5986Y-4.7813
M16
G05
G00X13.5264Y-4.7863
M15
G01X13.7036Y-4.7863
M16
G05
T5
G00X7.4509Y-4.4063
M15
G01X7.5494Y-4.4063
M16
G05
T0
M30
