%TF.GenerationSoftware,KiCad,Pcbnew,(5.1.10)-1*%
%TF.CreationDate,2021-09-29T22:37:26-06:00*%
%TF.ProjectId,PyKey60,50794b65-7936-4302-9e6b-696361645f70,1.1a*%
%TF.SameCoordinates,Original*%
%TF.FileFunction,Soldermask,Top*%
%TF.FilePolarity,Negative*%
%FSLAX46Y46*%
G04 Gerber Fmt 4.6, Leading zero omitted, Abs format (unit mm)*
G04 Created by KiCad (PCBNEW (5.1.10)-1) date 2021-09-29 22:37:26*
%MOMM*%
%LPD*%
G01*
G04 APERTURE LIST*
%ADD10O,5.152400X2.652400*%
%ADD11O,7.152640X2.651760*%
%ADD12C,7.152640*%
%ADD13C,5.153660*%
%ADD14C,3.202400*%
%ADD15C,4.152400*%
%ADD16C,3.152400*%
%ADD17C,1.902400*%
%ADD18O,1.852400X1.852400*%
%ADD19O,1.152400X2.252400*%
%ADD20C,0.802400*%
%ADD21O,1.152400X1.752400*%
%ADD22C,1.052400*%
G04 APERTURE END LIST*
D10*
%TO.C,H6*%
X190504000Y-111920000D03*
%TD*%
D11*
%TO.C,H3*%
X63754000Y-121445000D03*
%TD*%
%TO.C,H5*%
X345821000Y-121572000D03*
%TD*%
D12*
%TO.C,H4*%
X252825000Y-150274000D03*
%TD*%
%TO.C,H2*%
X321945000Y-92870000D03*
%TD*%
D13*
%TO.C,H1*%
X87489300Y-92520800D03*
%TD*%
D14*
%TO.C,U57*%
X142881000Y-157020000D03*
D15*
X142881000Y-141780000D03*
X242881000Y-141780000D03*
D14*
X242881000Y-157020000D03*
D16*
X190341000Y-155100000D03*
X196691000Y-152560000D03*
D17*
X187801000Y-150020000D03*
X197961000Y-150020000D03*
D15*
X192881000Y-150020000D03*
%TD*%
D14*
%TO.C,U53*%
X309531000Y-137970000D03*
D15*
X309531000Y-122730000D03*
X333407000Y-122730000D03*
D14*
X333407000Y-137970000D03*
D16*
X318929000Y-136050000D03*
X325279000Y-133510000D03*
D17*
X316389000Y-130970000D03*
X326549000Y-130970000D03*
D15*
X321469000Y-130970000D03*
%TD*%
D14*
%TO.C,U42*%
X71374000Y-137970000D03*
D15*
X71374000Y-122730000D03*
X95250000Y-122730000D03*
D14*
X95250000Y-137970000D03*
D16*
X80772000Y-136050000D03*
X87122000Y-133510000D03*
D17*
X78232000Y-130970000D03*
X88392000Y-130970000D03*
D15*
X83312000Y-130970000D03*
%TD*%
D14*
%TO.C,U41*%
X314293000Y-118920000D03*
D15*
X314293000Y-103680000D03*
X338169000Y-103680000D03*
D14*
X338169000Y-118920000D03*
D16*
X323691000Y-117000000D03*
X330041000Y-114460000D03*
D17*
X321151000Y-111920000D03*
X331311000Y-111920000D03*
D15*
X326231000Y-111920000D03*
%TD*%
D14*
%TO.C,U14*%
X316675000Y-66820000D03*
D15*
X316675000Y-82060000D03*
X340551000Y-82060000D03*
D14*
X340551000Y-66820000D03*
D16*
X326073000Y-78900000D03*
X332423000Y-76360000D03*
D17*
X323533000Y-73820000D03*
X333693000Y-73820000D03*
D15*
X328613000Y-73820000D03*
%TD*%
D16*
%TO.C,U29*%
X76042500Y-117000000D03*
X82392500Y-114460000D03*
D17*
X73502500Y-111920000D03*
X83662500Y-111920000D03*
D15*
X78582500Y-111920000D03*
%TD*%
D16*
%TO.C,U28*%
X330835000Y-97950000D03*
X337185000Y-95410000D03*
D17*
X328295000Y-92870000D03*
X338455000Y-92870000D03*
D15*
X333375000Y-92870000D03*
%TD*%
D16*
%TO.C,U15*%
X73660000Y-97950000D03*
X80010000Y-95410000D03*
D17*
X71120000Y-92870000D03*
X81280000Y-92870000D03*
D15*
X76200000Y-92870000D03*
%TD*%
D18*
%TO.C,J4*%
X219075000Y-148115000D03*
X216535000Y-148115000D03*
X213995000Y-148115000D03*
X211455000Y-148115000D03*
X208915000Y-148115000D03*
G36*
G01*
X205525000Y-147188800D02*
X207225000Y-147188800D01*
G75*
G02*
X207301200Y-147265000I0J-76200D01*
G01*
X207301200Y-148965000D01*
G75*
G02*
X207225000Y-149041200I-76200J0D01*
G01*
X205525000Y-149041200D01*
G75*
G02*
X205448800Y-148965000I0J76200D01*
G01*
X205448800Y-147265000D01*
G75*
G02*
X205525000Y-147188800I76200J0D01*
G01*
G37*
%TD*%
%TO.C,J3*%
X219075000Y-155735000D03*
X216535000Y-155735000D03*
X213995000Y-155735000D03*
G36*
G01*
X210605000Y-154808800D02*
X212305000Y-154808800D01*
G75*
G02*
X212381200Y-154885000I0J-76200D01*
G01*
X212381200Y-156585000D01*
G75*
G02*
X212305000Y-156661200I-76200J0D01*
G01*
X210605000Y-156661200D01*
G75*
G02*
X210528800Y-156585000I0J76200D01*
G01*
X210528800Y-154885000D01*
G75*
G02*
X210605000Y-154808800I76200J0D01*
G01*
G37*
%TD*%
%TO.C,J2*%
X181102000Y-156116000D03*
X178562000Y-156116000D03*
G36*
G01*
X175172000Y-155189800D02*
X176872000Y-155189800D01*
G75*
G02*
X176948200Y-155266000I0J-76200D01*
G01*
X176948200Y-156966000D01*
G75*
G02*
X176872000Y-157042200I-76200J0D01*
G01*
X175172000Y-157042200D01*
G75*
G02*
X175095800Y-156966000I0J76200D01*
G01*
X175095800Y-155266000D01*
G75*
G02*
X175172000Y-155189800I76200J0D01*
G01*
G37*
%TD*%
D16*
%TO.C,U61*%
X333204000Y-155100000D03*
X339554000Y-152560000D03*
D17*
X330664000Y-150020000D03*
X340824000Y-150020000D03*
D15*
X335744000Y-150020000D03*
%TD*%
D16*
%TO.C,U60*%
X309391000Y-155100000D03*
X315741000Y-152560000D03*
D17*
X306851000Y-150020000D03*
X317011000Y-150020000D03*
D15*
X311931000Y-150020000D03*
%TD*%
D16*
%TO.C,U59*%
X285591000Y-155100000D03*
X291941000Y-152560000D03*
D17*
X283051000Y-150020000D03*
X293211000Y-150020000D03*
D15*
X288131000Y-150020000D03*
%TD*%
D16*
%TO.C,U58*%
X261779000Y-155100000D03*
X268129000Y-152560000D03*
D17*
X259239000Y-150020000D03*
X269399000Y-150020000D03*
D15*
X264319000Y-150020000D03*
%TD*%
D16*
%TO.C,U56*%
X118904000Y-155100000D03*
X125254000Y-152560000D03*
D17*
X116364000Y-150020000D03*
X126524000Y-150020000D03*
D15*
X121444000Y-150020000D03*
%TD*%
D16*
%TO.C,U55*%
X95091200Y-155100000D03*
X101441200Y-152560000D03*
D17*
X92551200Y-150020000D03*
X102711200Y-150020000D03*
D15*
X97631200Y-150020000D03*
%TD*%
D16*
%TO.C,U54*%
X71278800Y-155100000D03*
X77628800Y-152560000D03*
D17*
X68738800Y-150020000D03*
X78898800Y-150020000D03*
D15*
X73818800Y-150020000D03*
%TD*%
D16*
%TO.C,U52*%
X283210000Y-136050000D03*
X289560000Y-133510000D03*
D17*
X280670000Y-130970000D03*
X290830000Y-130970000D03*
D15*
X285750000Y-130970000D03*
%TD*%
D16*
%TO.C,U51*%
X264160000Y-136050000D03*
X270510000Y-133510000D03*
D17*
X261620000Y-130970000D03*
X271780000Y-130970000D03*
D15*
X266700000Y-130970000D03*
%TD*%
D16*
%TO.C,U50*%
X245110000Y-136050000D03*
X251460000Y-133510000D03*
D17*
X242570000Y-130970000D03*
X252730000Y-130970000D03*
D15*
X247650000Y-130970000D03*
%TD*%
D16*
%TO.C,U49*%
X226060000Y-136050000D03*
X232410000Y-133510000D03*
D17*
X223520000Y-130970000D03*
X233680000Y-130970000D03*
D15*
X228600000Y-130970000D03*
%TD*%
D16*
%TO.C,U48*%
X207010000Y-136050000D03*
X213360000Y-133510000D03*
D17*
X204470000Y-130970000D03*
X214630000Y-130970000D03*
D15*
X209550000Y-130970000D03*
%TD*%
D16*
%TO.C,U47*%
X187960000Y-136050000D03*
X194310000Y-133510000D03*
D17*
X185420000Y-130970000D03*
X195580000Y-130970000D03*
D15*
X190500000Y-130970000D03*
%TD*%
D16*
%TO.C,U46*%
X168910000Y-136050000D03*
X175260000Y-133510000D03*
D17*
X166370000Y-130970000D03*
X176530000Y-130970000D03*
D15*
X171450000Y-130970000D03*
%TD*%
D16*
%TO.C,U45*%
X149860000Y-136050000D03*
X156210000Y-133510000D03*
D17*
X147320000Y-130970000D03*
X157480000Y-130970000D03*
D15*
X152400000Y-130970000D03*
%TD*%
D16*
%TO.C,U44*%
X130810000Y-136050000D03*
X137160000Y-133510000D03*
D17*
X128270000Y-130970000D03*
X138430000Y-130970000D03*
D15*
X133350000Y-130970000D03*
%TD*%
D16*
%TO.C,U43*%
X111760000Y-136050000D03*
X118110000Y-133510000D03*
D17*
X109220000Y-130970000D03*
X119380000Y-130970000D03*
D15*
X114300000Y-130970000D03*
%TD*%
D16*
%TO.C,U40*%
X292735000Y-117000000D03*
X299085000Y-114460000D03*
D17*
X290195000Y-111920000D03*
X300355000Y-111920000D03*
D15*
X295275000Y-111920000D03*
%TD*%
D16*
%TO.C,U39*%
X273685000Y-117000000D03*
X280035000Y-114460000D03*
D17*
X271145000Y-111920000D03*
X281305000Y-111920000D03*
D15*
X276225000Y-111920000D03*
%TD*%
D16*
%TO.C,U38*%
X254635000Y-117000000D03*
X260985000Y-114460000D03*
D17*
X252095000Y-111920000D03*
X262255000Y-111920000D03*
D15*
X257175000Y-111920000D03*
%TD*%
D16*
%TO.C,U37*%
X235585000Y-117000000D03*
X241935000Y-114460000D03*
D17*
X233045000Y-111920000D03*
X243205000Y-111920000D03*
D15*
X238125000Y-111920000D03*
%TD*%
D16*
%TO.C,U36*%
X216535000Y-117000000D03*
X222885000Y-114460000D03*
D17*
X213995000Y-111920000D03*
X224155000Y-111920000D03*
D15*
X219075000Y-111920000D03*
%TD*%
D16*
%TO.C,U35*%
X197485000Y-117000000D03*
X203835000Y-114460000D03*
D17*
X194945000Y-111920000D03*
X205105000Y-111920000D03*
D15*
X200025000Y-111920000D03*
%TD*%
D16*
%TO.C,U34*%
X178435000Y-117000000D03*
X184785000Y-114460000D03*
D17*
X175895000Y-111920000D03*
X186055000Y-111920000D03*
D15*
X180975000Y-111920000D03*
%TD*%
D16*
%TO.C,U33*%
X159385000Y-117000000D03*
X165735000Y-114460000D03*
D17*
X156845000Y-111920000D03*
X167005000Y-111920000D03*
D15*
X161925000Y-111920000D03*
%TD*%
D16*
%TO.C,U32*%
X140335000Y-117000000D03*
X146685000Y-114460000D03*
D17*
X137795000Y-111920000D03*
X147955000Y-111920000D03*
D15*
X142875000Y-111920000D03*
%TD*%
D16*
%TO.C,U31*%
X121285000Y-117000000D03*
X127635000Y-114460000D03*
D17*
X118745000Y-111920000D03*
X128905000Y-111920000D03*
D15*
X123825000Y-111920000D03*
%TD*%
D16*
%TO.C,U30*%
X102235000Y-117000000D03*
X108585000Y-114460000D03*
D17*
X99695000Y-111920000D03*
X109855000Y-111920000D03*
D15*
X104775000Y-111920000D03*
%TD*%
D16*
%TO.C,U27*%
X307022000Y-97950000D03*
X313372000Y-95410000D03*
D17*
X304482000Y-92870000D03*
X314642000Y-92870000D03*
D15*
X309562000Y-92870000D03*
%TD*%
D16*
%TO.C,U26*%
X287972000Y-97950000D03*
X294322000Y-95410000D03*
D17*
X285432000Y-92870000D03*
X295592000Y-92870000D03*
D15*
X290512000Y-92870000D03*
%TD*%
D16*
%TO.C,U25*%
X268922000Y-97950000D03*
X275272000Y-95410000D03*
D17*
X266382000Y-92870000D03*
X276542000Y-92870000D03*
D15*
X271462000Y-92870000D03*
%TD*%
D16*
%TO.C,U24*%
X249872000Y-97950000D03*
X256222000Y-95410000D03*
D17*
X247332000Y-92870000D03*
X257492000Y-92870000D03*
D15*
X252412000Y-92870000D03*
%TD*%
D16*
%TO.C,U23*%
X230822000Y-97950000D03*
X237172000Y-95410000D03*
D17*
X228282000Y-92870000D03*
X238442000Y-92870000D03*
D15*
X233362000Y-92870000D03*
%TD*%
D16*
%TO.C,U22*%
X211772000Y-97950000D03*
X218122000Y-95410000D03*
D17*
X209232000Y-92870000D03*
X219392000Y-92870000D03*
D15*
X214312000Y-92870000D03*
%TD*%
D16*
%TO.C,U21*%
X192722000Y-97950000D03*
X199072000Y-95410000D03*
D17*
X190182000Y-92870000D03*
X200342000Y-92870000D03*
D15*
X195262000Y-92870000D03*
%TD*%
D16*
%TO.C,U20*%
X173672000Y-97950000D03*
X180022000Y-95410000D03*
D17*
X171132000Y-92870000D03*
X181292000Y-92870000D03*
D15*
X176212000Y-92870000D03*
%TD*%
D16*
%TO.C,U19*%
X154622000Y-97950000D03*
X160972000Y-95410000D03*
D17*
X152082000Y-92870000D03*
X162242000Y-92870000D03*
D15*
X157162000Y-92870000D03*
%TD*%
D16*
%TO.C,U18*%
X135572000Y-97950000D03*
X141922000Y-95410000D03*
D17*
X133032000Y-92870000D03*
X143192000Y-92870000D03*
D15*
X138112000Y-92870000D03*
%TD*%
D16*
%TO.C,U17*%
X116522000Y-97950000D03*
X122872000Y-95410000D03*
D17*
X113982000Y-92870000D03*
X124142000Y-92870000D03*
D15*
X119062000Y-92870000D03*
%TD*%
D16*
%TO.C,U16*%
X97472000Y-97950000D03*
X103822000Y-95410000D03*
D17*
X94932000Y-92870000D03*
X105092000Y-92870000D03*
D15*
X100012000Y-92870000D03*
%TD*%
D16*
%TO.C,U13*%
X297498000Y-78900000D03*
X303848000Y-76360000D03*
D17*
X294958000Y-73820000D03*
X305118000Y-73820000D03*
D15*
X300038000Y-73820000D03*
%TD*%
D16*
%TO.C,U12*%
X278448000Y-78900000D03*
X284798000Y-76360000D03*
D17*
X275908000Y-73820000D03*
X286068000Y-73820000D03*
D15*
X280988000Y-73820000D03*
%TD*%
D16*
%TO.C,U11*%
X259398000Y-78900000D03*
X265748000Y-76360000D03*
D17*
X256858000Y-73820000D03*
X267018000Y-73820000D03*
D15*
X261938000Y-73820000D03*
%TD*%
D16*
%TO.C,U10*%
X240348000Y-78900000D03*
X246698000Y-76360000D03*
D17*
X237808000Y-73820000D03*
X247968000Y-73820000D03*
D15*
X242888000Y-73820000D03*
%TD*%
D16*
%TO.C,U9*%
X221298000Y-78900000D03*
X227648000Y-76360000D03*
D17*
X218758000Y-73820000D03*
X228918000Y-73820000D03*
D15*
X223838000Y-73820000D03*
%TD*%
D16*
%TO.C,U8*%
X202248000Y-78900000D03*
X208598000Y-76360000D03*
D17*
X199708000Y-73820000D03*
X209868000Y-73820000D03*
D15*
X204788000Y-73820000D03*
%TD*%
D16*
%TO.C,U7*%
X183198000Y-78900000D03*
X189548000Y-76360000D03*
D17*
X180658000Y-73820000D03*
X190818000Y-73820000D03*
D15*
X185738000Y-73820000D03*
%TD*%
D16*
%TO.C,U6*%
X164148000Y-78900000D03*
X170498000Y-76360000D03*
D17*
X161608000Y-73820000D03*
X171768000Y-73820000D03*
D15*
X166688000Y-73820000D03*
%TD*%
D16*
%TO.C,U5*%
X145098000Y-78900000D03*
X151448000Y-76360000D03*
D17*
X142558000Y-73820000D03*
X152718000Y-73820000D03*
D15*
X147638000Y-73820000D03*
%TD*%
D16*
%TO.C,U4*%
X126048000Y-78900000D03*
X132398000Y-76360000D03*
D17*
X123508000Y-73820000D03*
X133668000Y-73820000D03*
D15*
X128588000Y-73820000D03*
%TD*%
D16*
%TO.C,U3*%
X106998000Y-78900000D03*
X113348000Y-76360000D03*
D17*
X104458000Y-73820000D03*
X114618000Y-73820000D03*
D15*
X109538000Y-73820000D03*
%TD*%
D16*
%TO.C,U2*%
X87947500Y-78900000D03*
X94297500Y-76360000D03*
D17*
X85407500Y-73820000D03*
X95567500Y-73820000D03*
D15*
X90487500Y-73820000D03*
%TD*%
D16*
%TO.C,U1*%
X68897500Y-78900000D03*
X75247500Y-76360000D03*
D17*
X66357500Y-73820000D03*
X76517500Y-73820000D03*
D15*
X71437500Y-73820000D03*
%TD*%
D19*
%TO.C,J1*%
X84838000Y-69838000D03*
X76198000Y-69838000D03*
D20*
X77628000Y-69308000D03*
D21*
X76198000Y-65658000D03*
D20*
X83408000Y-69308000D03*
D21*
X84838000Y-65658000D03*
%TD*%
D22*
%TO.C,SW2*%
X92940000Y-107043000D03*
X89940000Y-107043000D03*
%TD*%
M02*
