%TF.GenerationSoftware,KiCad,Pcbnew,(5.1.10)-1*%
%TF.CreationDate,2021-11-24T22:45:44-06:00*%
%TF.ProjectId,PyKey18,50794b65-7931-4382-9e6b-696361645f70,1.0*%
%TF.SameCoordinates,Original*%
%TF.FileFunction,Profile,NP*%
%FSLAX46Y46*%
G04 Gerber Fmt 4.6, Leading zero omitted, Abs format (unit mm)*
G04 Created by KiCad (PCBNEW (5.1.10)-1) date 2021-11-24 22:45:44*
%MOMM*%
%LPD*%
G01*
G04 APERTURE LIST*
%TA.AperFunction,Profile*%
%ADD10C,0.050000*%
%TD*%
%TA.AperFunction,Profile*%
%ADD11C,0.150000*%
%TD*%
G04 APERTURE END LIST*
D10*
X64000000Y-57230000D02*
X64000000Y-67230000D01*
X64000000Y-67230000D02*
X87000000Y-67230000D01*
X87000000Y-57230000D02*
X87000000Y-67230000D01*
X64000000Y-57230000D02*
X87000000Y-57230000D01*
D11*
X87985000Y-77015000D02*
X87985000Y-90985000D01*
X113310400Y-159110600D02*
X113310400Y-165765400D01*
X114123200Y-159110600D02*
X113310400Y-159110600D01*
X114123200Y-157485000D02*
X114123200Y-159110600D01*
X112015000Y-157485000D02*
X114123200Y-157485000D01*
X112015000Y-143515000D02*
X112015000Y-157485000D01*
X114123200Y-143515000D02*
X112015000Y-143515000D01*
X114123200Y-141889400D02*
X114123200Y-143515000D01*
X113310400Y-141889400D02*
X114123200Y-141889400D01*
X113310400Y-135234600D02*
X113310400Y-141889400D01*
X116714000Y-135234600D02*
X113310400Y-135234600D01*
X116714000Y-134371000D02*
X116714000Y-135234600D01*
X119508000Y-134371000D02*
X116714000Y-134371000D01*
X119508000Y-135234600D02*
X119508000Y-134371000D01*
X125604000Y-135234600D02*
X119508000Y-135234600D01*
X125604000Y-136276000D02*
X125604000Y-135234600D01*
X126772400Y-136276000D02*
X125604000Y-136276000D01*
X126772400Y-140848000D02*
X126772400Y-136276000D01*
X125604000Y-140848000D02*
X126772400Y-140848000D01*
X125604000Y-141889400D02*
X125604000Y-140848000D01*
X124816600Y-141889400D02*
X125604000Y-141889400D01*
X124816600Y-143515000D02*
X124816600Y-141889400D01*
X125985000Y-143515000D02*
X124816600Y-143515000D01*
X125985000Y-157485000D02*
X125985000Y-143515000D01*
X124816600Y-157485000D02*
X125985000Y-157485000D01*
X124816600Y-159110600D02*
X124816600Y-157485000D01*
X125604000Y-159110600D02*
X124816600Y-159110600D01*
X125604000Y-160152000D02*
X125604000Y-159110600D01*
X126772400Y-160152000D02*
X125604000Y-160152000D01*
X126772400Y-164724000D02*
X126772400Y-160152000D01*
X125604000Y-164724000D02*
X126772400Y-164724000D01*
X125604000Y-165765400D02*
X125604000Y-164724000D01*
X119508000Y-165765400D02*
X125604000Y-165765400D01*
X119508000Y-166629000D02*
X119508000Y-165765400D01*
X116714000Y-166629000D02*
X119508000Y-166629000D01*
X116714000Y-165765400D02*
X116714000Y-166629000D01*
X113310400Y-165765400D02*
X116714000Y-165765400D01*
X113310400Y-103889400D02*
X113310400Y-97234600D01*
X114123200Y-103889400D02*
X113310400Y-103889400D01*
X114123200Y-105515000D02*
X114123200Y-103889400D01*
X112015000Y-105515000D02*
X114123200Y-105515000D01*
X112015000Y-119485000D02*
X112015000Y-105515000D01*
X114123200Y-119485000D02*
X112015000Y-119485000D01*
X114123200Y-121110600D02*
X114123200Y-119485000D01*
X113310400Y-121110600D02*
X114123200Y-121110600D01*
X113310400Y-127765400D02*
X113310400Y-121110600D01*
X116714000Y-127765400D02*
X113310400Y-127765400D01*
X116714000Y-128629000D02*
X116714000Y-127765400D01*
X119508000Y-128629000D02*
X116714000Y-128629000D01*
X119508000Y-127765400D02*
X119508000Y-128629000D01*
X125604000Y-127765400D02*
X119508000Y-127765400D01*
X125604000Y-126724000D02*
X125604000Y-127765400D01*
X126772400Y-126724000D02*
X125604000Y-126724000D01*
X126772400Y-122152000D02*
X126772400Y-126724000D01*
X125604000Y-122152000D02*
X126772400Y-122152000D01*
X125604000Y-121110600D02*
X125604000Y-122152000D01*
X124816600Y-121110600D02*
X125604000Y-121110600D01*
X124816600Y-119485000D02*
X124816600Y-121110600D01*
X125985000Y-119485000D02*
X124816600Y-119485000D01*
X125985000Y-105515000D02*
X125985000Y-119485000D01*
X124816600Y-105515000D02*
X125985000Y-105515000D01*
X124816600Y-103889400D02*
X124816600Y-105515000D01*
X125604000Y-103889400D02*
X124816600Y-103889400D01*
X125604000Y-102848000D02*
X125604000Y-103889400D01*
X126772400Y-102848000D02*
X125604000Y-102848000D01*
X126772400Y-98276000D02*
X126772400Y-102848000D01*
X125604000Y-98276000D02*
X126772400Y-98276000D01*
X125604000Y-97234600D02*
X125604000Y-98276000D01*
X119508000Y-97234600D02*
X125604000Y-97234600D01*
X119508000Y-96371000D02*
X119508000Y-97234600D01*
X116714000Y-96371000D02*
X119508000Y-96371000D01*
X116714000Y-97234600D02*
X116714000Y-96371000D01*
X113310400Y-97234600D02*
X116714000Y-97234600D01*
X93015000Y-115015000D02*
X93015000Y-128985000D01*
X106985000Y-115015000D02*
X93015000Y-115015000D01*
X106985000Y-128985000D02*
X106985000Y-115015000D01*
X93015000Y-128985000D02*
X106985000Y-128985000D01*
X106985000Y-96015000D02*
X93015000Y-96015000D01*
X106985000Y-109985000D02*
X106985000Y-96015000D01*
X93015000Y-109985000D02*
X106985000Y-109985000D01*
X93015000Y-96015000D02*
X93015000Y-109985000D01*
X112015000Y-90985000D02*
X112015000Y-77015000D01*
X125985000Y-90985000D02*
X112015000Y-90985000D01*
X125985000Y-77015000D02*
X125985000Y-90985000D01*
X112015000Y-77015000D02*
X125985000Y-77015000D01*
X93015000Y-90985000D02*
X93015000Y-77015000D01*
X106985000Y-90985000D02*
X93015000Y-90985000D01*
X106985000Y-77015000D02*
X106985000Y-90985000D01*
X93015000Y-77015000D02*
X106985000Y-77015000D01*
X74015000Y-90985000D02*
X74015000Y-77015000D01*
X87985000Y-90985000D02*
X74015000Y-90985000D01*
X74015000Y-77015000D02*
X87985000Y-77015000D01*
X74015000Y-96015000D02*
X74015000Y-109985000D01*
X87985000Y-96015000D02*
X74015000Y-96015000D01*
X87985000Y-109985000D02*
X87985000Y-96015000D01*
X74015000Y-109985000D02*
X87985000Y-109985000D01*
X74015000Y-128985000D02*
X74015000Y-115015000D01*
X87985000Y-128985000D02*
X74015000Y-128985000D01*
X87985000Y-115015000D02*
X87985000Y-128985000D01*
X74015000Y-115015000D02*
X87985000Y-115015000D01*
X106985000Y-134015000D02*
X93015000Y-134015000D01*
X106985000Y-147985000D02*
X106985000Y-134015000D01*
X93015000Y-147985000D02*
X106985000Y-147985000D01*
X93015000Y-134015000D02*
X93015000Y-147985000D01*
X87985000Y-134015000D02*
X74015000Y-134015000D01*
X87985000Y-147985000D02*
X87985000Y-134015000D01*
X74015000Y-147985000D02*
X87985000Y-147985000D01*
X74015000Y-134015000D02*
X74015000Y-147985000D01*
X93015000Y-167005000D02*
X93015000Y-153015000D01*
X106985000Y-167005000D02*
X93015000Y-167005000D01*
X106985000Y-153015000D02*
X106985000Y-167005000D01*
X93015000Y-153015000D02*
X106985000Y-153015000D01*
X55015000Y-96015000D02*
X55015000Y-109985000D01*
X68985000Y-96015000D02*
X55015000Y-96015000D01*
X68985000Y-109985000D02*
X68985000Y-96015000D01*
X55015000Y-109985000D02*
X68985000Y-109985000D01*
X55015000Y-115015000D02*
X55015000Y-128985000D01*
X68985000Y-115015000D02*
X55015000Y-115015000D01*
X68985000Y-128985000D02*
X68985000Y-115015000D01*
X55015000Y-128985000D02*
X68985000Y-128985000D01*
X56234600Y-159492000D02*
X55371000Y-159492000D01*
X56234600Y-153396000D02*
X56234600Y-159492000D01*
X57276000Y-153396000D02*
X56234600Y-153396000D01*
X57276000Y-152227600D02*
X57276000Y-153396000D01*
X61848000Y-152227600D02*
X57276000Y-152227600D01*
X61848000Y-153396000D02*
X61848000Y-152227600D01*
X62889400Y-153396000D02*
X61848000Y-153396000D01*
X62889400Y-154183400D02*
X62889400Y-153396000D01*
X64515000Y-154183400D02*
X62889400Y-154183400D01*
X64515000Y-153015000D02*
X64515000Y-154183400D01*
X78485000Y-153015000D02*
X64515000Y-153015000D01*
X78485000Y-154183400D02*
X78485000Y-153015000D01*
X80110600Y-154183400D02*
X78485000Y-154183400D01*
X80110600Y-153396000D02*
X80110600Y-154183400D01*
X81152000Y-153396000D02*
X80110600Y-153396000D01*
X81152000Y-152227600D02*
X81152000Y-153396000D01*
X85724000Y-152227600D02*
X81152000Y-152227600D01*
X85724000Y-153396000D02*
X85724000Y-152227600D01*
X86765400Y-153396000D02*
X85724000Y-153396000D01*
X86765400Y-159492000D02*
X86765400Y-153396000D01*
X87629000Y-159492000D02*
X86765400Y-159492000D01*
X87629000Y-162286000D02*
X87629000Y-159492000D01*
X86765400Y-162286000D02*
X87629000Y-162286000D01*
X86765400Y-165689600D02*
X86765400Y-162286000D01*
X80110600Y-165689600D02*
X86765400Y-165689600D01*
X80110600Y-164876800D02*
X80110600Y-165689600D01*
X78485000Y-164876800D02*
X80110600Y-164876800D01*
X78485000Y-166985000D02*
X78485000Y-164876800D01*
X64515000Y-166985000D02*
X78485000Y-166985000D01*
X64515000Y-164876800D02*
X64515000Y-166985000D01*
X62889400Y-164876800D02*
X64515000Y-164876800D01*
X62889400Y-165689600D02*
X62889400Y-164876800D01*
X56234600Y-165689600D02*
X62889400Y-165689600D01*
X56234600Y-162286000D02*
X56234600Y-165689600D01*
X55371000Y-162286000D02*
X56234600Y-162286000D01*
X55371000Y-159492000D02*
X55371000Y-162286000D01*
X55015000Y-134015000D02*
X55015000Y-147985000D01*
X68985000Y-134015000D02*
X55015000Y-134015000D01*
X68985000Y-147985000D02*
X68985000Y-134015000D01*
X55015000Y-147985000D02*
X68985000Y-147985000D01*
D10*
X111887000Y-53594000D02*
X111887000Y-70993000D01*
X126111000Y-53594000D02*
X111887000Y-53594000D01*
X126111000Y-70993000D02*
X126111000Y-53594000D01*
X111887000Y-70993000D02*
X126111000Y-70993000D01*
D11*
X55015000Y-77015000D02*
X55015000Y-90985000D01*
X68985000Y-77015000D02*
X55015000Y-77015000D01*
X68985000Y-90985000D02*
X68985000Y-77015000D01*
X55015000Y-90985000D02*
X68985000Y-90985000D01*
X129000000Y-50000000D02*
G75*
G02*
X131000000Y-52000000I0J-2000000D01*
G01*
X131000000Y-168000000D02*
G75*
G02*
X129000000Y-170000000I-2000000J0D01*
G01*
X52000000Y-170000000D02*
G75*
G02*
X50000000Y-168000000I0J2000000D01*
G01*
X50000000Y-52000000D02*
G75*
G02*
X52000000Y-50000000I2000000J0D01*
G01*
X129000000Y-50000000D02*
X52000000Y-50000000D01*
X131000000Y-168000000D02*
X131000000Y-52000000D01*
X52000000Y-170000000D02*
X129000000Y-170000000D01*
X50000000Y-52000000D02*
X50000000Y-168000000D01*
M02*
