%TF.GenerationSoftware,KiCad,Pcbnew,(5.1.2)-1*%
%TF.CreationDate,2021-11-11T01:17:37-08:00*%
%TF.ProjectId,PyKey60,50794b65-7936-4302-9e6b-696361645f70,1.1a*%
%TF.SameCoordinates,Original*%
%TF.FileFunction,Soldermask,Top*%
%TF.FilePolarity,Negative*%
%FSLAX46Y46*%
G04 Gerber Fmt 4.6, Leading zero omitted, Abs format (unit mm)*
G04 Created by KiCad (PCBNEW (5.1.2)-1) date 2021-11-11 01:17:37*
%MOMM*%
%LPD*%
G04 APERTURE LIST*
%ADD10C,5.552400*%
%ADD11C,3.152400*%
%ADD12C,1.902400*%
%ADD13C,4.152400*%
%ADD14C,3.202400*%
%ADD15O,1.852400X1.852400*%
%ADD16R,1.852400X1.852400*%
%ADD17O,1.152400X2.252400*%
%ADD18C,0.802400*%
%ADD19O,1.152400X1.752400*%
%ADD20C,1.052400*%
G04 APERTURE END LIST*
D10*
%TO.C,REF\002A\002A*%
X402495000Y-61755000D03*
%TD*%
%TO.C,REF\002A\002A*%
X402495000Y-132875000D03*
%TD*%
%TO.C,REF\002A\002A*%
X233045000Y-61755000D03*
%TD*%
%TO.C,REF\002A\002A*%
X233045000Y-151925000D03*
%TD*%
%TO.C,REF\002A\002A*%
X65405000Y-61755000D03*
%TD*%
%TO.C,REF\002A\002A*%
X65405000Y-132875000D03*
%TD*%
D11*
%TO.C,U74*%
X335597500Y-55087500D03*
X341947500Y-52547500D03*
D12*
X333057500Y-50007500D03*
X343217500Y-50007500D03*
D13*
X338137500Y-50007500D03*
%TD*%
D11*
%TO.C,U77*%
X397510000Y-55087500D03*
X403860000Y-52547500D03*
D12*
X394970000Y-50007500D03*
X405130000Y-50007500D03*
D13*
X400050000Y-50007500D03*
%TD*%
D11*
%TO.C,U80*%
X397510000Y-78900000D03*
X403860000Y-76360000D03*
D12*
X394970000Y-73820000D03*
X405130000Y-73820000D03*
D13*
X400050000Y-73820000D03*
%TD*%
D11*
%TO.C,U83*%
X397510000Y-97950000D03*
X403860000Y-95410000D03*
D12*
X394970000Y-92870000D03*
X405130000Y-92870000D03*
D13*
X400050000Y-92870000D03*
%TD*%
D11*
%TO.C,U84*%
X378460000Y-136050000D03*
X384810000Y-133510000D03*
D12*
X375920000Y-130970000D03*
X386080000Y-130970000D03*
D13*
X381000000Y-130970000D03*
%TD*%
D11*
%TO.C,U87*%
X397510000Y-155100000D03*
X403860000Y-152560000D03*
D12*
X394970000Y-150020000D03*
X405130000Y-150020000D03*
D13*
X400050000Y-150020000D03*
%TD*%
D14*
%TO.C,U42*%
X71374000Y-137970000D03*
D13*
X71374000Y-122730000D03*
X95250000Y-122730000D03*
D14*
X95250000Y-137970000D03*
D11*
X80772000Y-136050000D03*
X87122000Y-133510000D03*
D12*
X78232000Y-130970000D03*
X88392000Y-130970000D03*
D13*
X83312000Y-130970000D03*
%TD*%
D11*
%TO.C,U1*%
X68897500Y-78900000D03*
X75247500Y-76360000D03*
D12*
X66357500Y-73820000D03*
X76517500Y-73820000D03*
D13*
X71437500Y-73820000D03*
%TD*%
D11*
%TO.C,U2*%
X87947500Y-78900000D03*
X94297500Y-76360000D03*
D12*
X85407500Y-73820000D03*
X95567500Y-73820000D03*
D13*
X90487500Y-73820000D03*
%TD*%
D11*
%TO.C,U3*%
X106998000Y-78900000D03*
X113348000Y-76360000D03*
D12*
X104458000Y-73820000D03*
X114618000Y-73820000D03*
D13*
X109538000Y-73820000D03*
%TD*%
D11*
%TO.C,U4*%
X126048000Y-78900000D03*
X132398000Y-76360000D03*
D12*
X123508000Y-73820000D03*
X133668000Y-73820000D03*
D13*
X128588000Y-73820000D03*
%TD*%
D11*
%TO.C,U5*%
X145098000Y-78900000D03*
X151448000Y-76360000D03*
D12*
X142558000Y-73820000D03*
X152718000Y-73820000D03*
D13*
X147638000Y-73820000D03*
%TD*%
D11*
%TO.C,U6*%
X164148000Y-78900000D03*
X170498000Y-76360000D03*
D12*
X161608000Y-73820000D03*
X171768000Y-73820000D03*
D13*
X166688000Y-73820000D03*
%TD*%
D11*
%TO.C,U8*%
X202248000Y-78900000D03*
X208598000Y-76360000D03*
D12*
X199708000Y-73820000D03*
X209868000Y-73820000D03*
D13*
X204788000Y-73820000D03*
%TD*%
D11*
%TO.C,U9*%
X221298000Y-78900000D03*
X227648000Y-76360000D03*
D12*
X218758000Y-73820000D03*
X228918000Y-73820000D03*
D13*
X223838000Y-73820000D03*
%TD*%
D11*
%TO.C,U10*%
X240348000Y-78900000D03*
X246698000Y-76360000D03*
D12*
X237808000Y-73820000D03*
X247968000Y-73820000D03*
D13*
X242888000Y-73820000D03*
%TD*%
D11*
%TO.C,U11*%
X259398000Y-78900000D03*
X265748000Y-76360000D03*
D12*
X256858000Y-73820000D03*
X267018000Y-73820000D03*
D13*
X261938000Y-73820000D03*
%TD*%
D11*
%TO.C,U12*%
X278448000Y-78900000D03*
X284798000Y-76360000D03*
D12*
X275908000Y-73820000D03*
X286068000Y-73820000D03*
D13*
X280988000Y-73820000D03*
%TD*%
D11*
%TO.C,U13*%
X297498000Y-78900000D03*
X303848000Y-76360000D03*
D12*
X294958000Y-73820000D03*
X305118000Y-73820000D03*
D13*
X300038000Y-73820000D03*
%TD*%
D11*
%TO.C,U16*%
X97472000Y-97950000D03*
X103822000Y-95410000D03*
D12*
X94932000Y-92870000D03*
X105092000Y-92870000D03*
D13*
X100012000Y-92870000D03*
%TD*%
D11*
%TO.C,U17*%
X116522000Y-97950000D03*
X122872000Y-95410000D03*
D12*
X113982000Y-92870000D03*
X124142000Y-92870000D03*
D13*
X119062000Y-92870000D03*
%TD*%
D11*
%TO.C,U18*%
X135572000Y-97950000D03*
X141922000Y-95410000D03*
D12*
X133032000Y-92870000D03*
X143192000Y-92870000D03*
D13*
X138112000Y-92870000D03*
%TD*%
D11*
%TO.C,U19*%
X154622000Y-97950000D03*
X160972000Y-95410000D03*
D12*
X152082000Y-92870000D03*
X162242000Y-92870000D03*
D13*
X157162000Y-92870000D03*
%TD*%
D11*
%TO.C,U20*%
X173672000Y-97950000D03*
X180022000Y-95410000D03*
D12*
X171132000Y-92870000D03*
X181292000Y-92870000D03*
D13*
X176212000Y-92870000D03*
%TD*%
D11*
%TO.C,U21*%
X192722000Y-97950000D03*
X199072000Y-95410000D03*
D12*
X190182000Y-92870000D03*
X200342000Y-92870000D03*
D13*
X195262000Y-92870000D03*
%TD*%
D11*
%TO.C,U22*%
X211772000Y-97950000D03*
X218122000Y-95410000D03*
D12*
X209232000Y-92870000D03*
X219392000Y-92870000D03*
D13*
X214312000Y-92870000D03*
%TD*%
D11*
%TO.C,U23*%
X230822000Y-97950000D03*
X237172000Y-95410000D03*
D12*
X228282000Y-92870000D03*
X238442000Y-92870000D03*
D13*
X233362000Y-92870000D03*
%TD*%
D11*
%TO.C,U24*%
X249872000Y-97950000D03*
X256222000Y-95410000D03*
D12*
X247332000Y-92870000D03*
X257492000Y-92870000D03*
D13*
X252412000Y-92870000D03*
%TD*%
D11*
%TO.C,U25*%
X268922000Y-97950000D03*
X275272000Y-95410000D03*
D12*
X266382000Y-92870000D03*
X276542000Y-92870000D03*
D13*
X271462000Y-92870000D03*
%TD*%
D11*
%TO.C,U26*%
X287972000Y-97950000D03*
X294322000Y-95410000D03*
D12*
X285432000Y-92870000D03*
X295592000Y-92870000D03*
D13*
X290512000Y-92870000D03*
%TD*%
D11*
%TO.C,U27*%
X307022000Y-97950000D03*
X313372000Y-95410000D03*
D12*
X304482000Y-92870000D03*
X314642000Y-92870000D03*
D13*
X309562000Y-92870000D03*
%TD*%
D11*
%TO.C,U30*%
X102235000Y-117000000D03*
X108585000Y-114460000D03*
D12*
X99695000Y-111920000D03*
X109855000Y-111920000D03*
D13*
X104775000Y-111920000D03*
%TD*%
D11*
%TO.C,U31*%
X121285000Y-117000000D03*
X127635000Y-114460000D03*
D12*
X118745000Y-111920000D03*
X128905000Y-111920000D03*
D13*
X123825000Y-111920000D03*
%TD*%
D11*
%TO.C,U32*%
X140335000Y-117000000D03*
X146685000Y-114460000D03*
D12*
X137795000Y-111920000D03*
X147955000Y-111920000D03*
D13*
X142875000Y-111920000D03*
%TD*%
D11*
%TO.C,U33*%
X159385000Y-117000000D03*
X165735000Y-114460000D03*
D12*
X156845000Y-111920000D03*
X167005000Y-111920000D03*
D13*
X161925000Y-111920000D03*
%TD*%
D11*
%TO.C,U34*%
X178435000Y-117000000D03*
X184785000Y-114460000D03*
D12*
X175895000Y-111920000D03*
X186055000Y-111920000D03*
D13*
X180975000Y-111920000D03*
%TD*%
D11*
%TO.C,U35*%
X197485000Y-117000000D03*
X203835000Y-114460000D03*
D12*
X194945000Y-111920000D03*
X205105000Y-111920000D03*
D13*
X200025000Y-111920000D03*
%TD*%
D11*
%TO.C,U36*%
X216535000Y-117000000D03*
X222885000Y-114460000D03*
D12*
X213995000Y-111920000D03*
X224155000Y-111920000D03*
D13*
X219075000Y-111920000D03*
%TD*%
D11*
%TO.C,U37*%
X235585000Y-117000000D03*
X241935000Y-114460000D03*
D12*
X233045000Y-111920000D03*
X243205000Y-111920000D03*
D13*
X238125000Y-111920000D03*
%TD*%
D11*
%TO.C,U38*%
X254635000Y-117000000D03*
X260985000Y-114460000D03*
D12*
X252095000Y-111920000D03*
X262255000Y-111920000D03*
D13*
X257175000Y-111920000D03*
%TD*%
D11*
%TO.C,U39*%
X273685000Y-117000000D03*
X280035000Y-114460000D03*
D12*
X271145000Y-111920000D03*
X281305000Y-111920000D03*
D13*
X276225000Y-111920000D03*
%TD*%
D11*
%TO.C,U40*%
X292735000Y-117000000D03*
X299085000Y-114460000D03*
D12*
X290195000Y-111920000D03*
X300355000Y-111920000D03*
D13*
X295275000Y-111920000D03*
%TD*%
D11*
%TO.C,U43*%
X111760000Y-136050000D03*
X118110000Y-133510000D03*
D12*
X109220000Y-130970000D03*
X119380000Y-130970000D03*
D13*
X114300000Y-130970000D03*
%TD*%
D11*
%TO.C,U44*%
X130810000Y-136050000D03*
X137160000Y-133510000D03*
D12*
X128270000Y-130970000D03*
X138430000Y-130970000D03*
D13*
X133350000Y-130970000D03*
%TD*%
D11*
%TO.C,U45*%
X149860000Y-136050000D03*
X156210000Y-133510000D03*
D12*
X147320000Y-130970000D03*
X157480000Y-130970000D03*
D13*
X152400000Y-130970000D03*
%TD*%
D11*
%TO.C,U46*%
X168910000Y-136050000D03*
X175260000Y-133510000D03*
D12*
X166370000Y-130970000D03*
X176530000Y-130970000D03*
D13*
X171450000Y-130970000D03*
%TD*%
D11*
%TO.C,U47*%
X187960000Y-136050000D03*
X194310000Y-133510000D03*
D12*
X185420000Y-130970000D03*
X195580000Y-130970000D03*
D13*
X190500000Y-130970000D03*
%TD*%
D11*
%TO.C,U48*%
X207010000Y-136050000D03*
X213360000Y-133510000D03*
D12*
X204470000Y-130970000D03*
X214630000Y-130970000D03*
D13*
X209550000Y-130970000D03*
%TD*%
D11*
%TO.C,U49*%
X226060000Y-136050000D03*
X232410000Y-133510000D03*
D12*
X223520000Y-130970000D03*
X233680000Y-130970000D03*
D13*
X228600000Y-130970000D03*
%TD*%
D11*
%TO.C,U50*%
X245110000Y-136050000D03*
X251460000Y-133510000D03*
D12*
X242570000Y-130970000D03*
X252730000Y-130970000D03*
D13*
X247650000Y-130970000D03*
%TD*%
D11*
%TO.C,U51*%
X264160000Y-136050000D03*
X270510000Y-133510000D03*
D12*
X261620000Y-130970000D03*
X271780000Y-130970000D03*
D13*
X266700000Y-130970000D03*
%TD*%
D11*
%TO.C,U52*%
X283210000Y-136050000D03*
X289560000Y-133510000D03*
D12*
X280670000Y-130970000D03*
X290830000Y-130970000D03*
D13*
X285750000Y-130970000D03*
%TD*%
D11*
%TO.C,U62*%
X68897500Y-55087500D03*
X75247500Y-52547500D03*
D12*
X66357500Y-50007500D03*
X76517500Y-50007500D03*
D13*
X71437500Y-50007500D03*
%TD*%
%TO.C,U63*%
X109537500Y-50007500D03*
D12*
X114617500Y-50007500D03*
X104457500Y-50007500D03*
D11*
X113347500Y-52547500D03*
X106997500Y-55087500D03*
%TD*%
%TO.C,U64*%
X126047500Y-55087500D03*
X132397500Y-52547500D03*
D12*
X123507500Y-50007500D03*
X133667500Y-50007500D03*
D13*
X128587500Y-50007500D03*
%TD*%
D11*
%TO.C,U65*%
X145097500Y-55087500D03*
X151447500Y-52547500D03*
D12*
X142557500Y-50007500D03*
X152717500Y-50007500D03*
D13*
X147637500Y-50007500D03*
%TD*%
D11*
%TO.C,U66*%
X164147500Y-55087500D03*
X170497500Y-52547500D03*
D12*
X161607500Y-50007500D03*
X171767500Y-50007500D03*
D13*
X166687500Y-50007500D03*
%TD*%
D11*
%TO.C,U67*%
X192722500Y-55087500D03*
X199072500Y-52547500D03*
D12*
X190182500Y-50007500D03*
X200342500Y-50007500D03*
D13*
X195262500Y-50007500D03*
%TD*%
D11*
%TO.C,U68*%
X211772500Y-55087500D03*
X218122500Y-52547500D03*
D12*
X209232500Y-50007500D03*
X219392500Y-50007500D03*
D13*
X214312500Y-50007500D03*
%TD*%
D11*
%TO.C,U69*%
X230822500Y-55087500D03*
X237172500Y-52547500D03*
D12*
X228282500Y-50007500D03*
X238442500Y-50007500D03*
D13*
X233362500Y-50007500D03*
%TD*%
D11*
%TO.C,U70*%
X249872500Y-55087500D03*
X256222500Y-52547500D03*
D12*
X247332500Y-50007500D03*
X257492500Y-50007500D03*
D13*
X252412500Y-50007500D03*
%TD*%
D11*
%TO.C,U71*%
X278447500Y-55087500D03*
X284797500Y-52547500D03*
D12*
X275907500Y-50007500D03*
X286067500Y-50007500D03*
D13*
X280987500Y-50007500D03*
%TD*%
D11*
%TO.C,U72*%
X297497500Y-55087500D03*
X303847500Y-52547500D03*
D12*
X294957500Y-50007500D03*
X305117500Y-50007500D03*
D13*
X300037500Y-50007500D03*
%TD*%
D11*
%TO.C,U73*%
X316547500Y-55087500D03*
X322897500Y-52547500D03*
D12*
X314007500Y-50007500D03*
X324167500Y-50007500D03*
D13*
X319087500Y-50007500D03*
%TD*%
D11*
%TO.C,U75*%
X359410000Y-55087500D03*
X365760000Y-52547500D03*
D12*
X356870000Y-50007500D03*
X367030000Y-50007500D03*
D13*
X361950000Y-50007500D03*
%TD*%
D11*
%TO.C,U78*%
X359410000Y-78900000D03*
X365760000Y-76360000D03*
D12*
X356870000Y-73820000D03*
X367030000Y-73820000D03*
D13*
X361950000Y-73820000D03*
%TD*%
D11*
%TO.C,U81*%
X359410000Y-97950000D03*
X365760000Y-95410000D03*
D12*
X356870000Y-92870000D03*
X367030000Y-92870000D03*
D13*
X361950000Y-92870000D03*
%TD*%
D11*
%TO.C,U85*%
X359410000Y-155100000D03*
X365760000Y-152560000D03*
D12*
X356870000Y-150020000D03*
X367030000Y-150020000D03*
D13*
X361950000Y-150020000D03*
%TD*%
D11*
%TO.C,U76*%
X378460000Y-55087500D03*
X384810000Y-52547500D03*
D12*
X375920000Y-50007500D03*
X386080000Y-50007500D03*
D13*
X381000000Y-50007500D03*
%TD*%
D11*
%TO.C,U79*%
X378460000Y-78900000D03*
X384810000Y-76360000D03*
D12*
X375920000Y-73820000D03*
X386080000Y-73820000D03*
D13*
X381000000Y-73820000D03*
%TD*%
D11*
%TO.C,U82*%
X378460000Y-97950000D03*
X384810000Y-95410000D03*
D12*
X375920000Y-92870000D03*
X386080000Y-92870000D03*
D13*
X381000000Y-92870000D03*
%TD*%
D11*
%TO.C,U7*%
X183198000Y-78900000D03*
X189548000Y-76360000D03*
D12*
X180658000Y-73820000D03*
X190818000Y-73820000D03*
D13*
X185738000Y-73820000D03*
%TD*%
D11*
%TO.C,U86*%
X378460000Y-155100000D03*
X384810000Y-152560000D03*
D12*
X375920000Y-150020000D03*
X386080000Y-150020000D03*
D13*
X381000000Y-150020000D03*
%TD*%
D14*
%TO.C,U57*%
X142881000Y-157020000D03*
D13*
X142881000Y-141780000D03*
X242881000Y-141780000D03*
D14*
X242881000Y-157020000D03*
D11*
X190341000Y-155100000D03*
X196691000Y-152560000D03*
D12*
X187801000Y-150020000D03*
X197961000Y-150020000D03*
D13*
X192881000Y-150020000D03*
%TD*%
D14*
%TO.C,U53*%
X309531000Y-137970000D03*
D13*
X309531000Y-122730000D03*
X333407000Y-122730000D03*
D14*
X333407000Y-137970000D03*
D11*
X318929000Y-136050000D03*
X325279000Y-133510000D03*
D12*
X316389000Y-130970000D03*
X326549000Y-130970000D03*
D13*
X321469000Y-130970000D03*
%TD*%
D14*
%TO.C,U41*%
X314293000Y-118920000D03*
D13*
X314293000Y-103680000D03*
X338169000Y-103680000D03*
D14*
X338169000Y-118920000D03*
D11*
X323691000Y-117000000D03*
X330041000Y-114460000D03*
D12*
X321151000Y-111920000D03*
X331311000Y-111920000D03*
D13*
X326231000Y-111920000D03*
%TD*%
D14*
%TO.C,U14*%
X316675000Y-66820000D03*
D13*
X316675000Y-82060000D03*
X340551000Y-82060000D03*
D14*
X340551000Y-66820000D03*
D11*
X326073000Y-78900000D03*
X332423000Y-76360000D03*
D12*
X323533000Y-73820000D03*
X333693000Y-73820000D03*
D13*
X328613000Y-73820000D03*
%TD*%
D11*
%TO.C,U29*%
X76042500Y-117000000D03*
X82392500Y-114460000D03*
D12*
X73502500Y-111920000D03*
X83662500Y-111920000D03*
D13*
X78582500Y-111920000D03*
%TD*%
D11*
%TO.C,U28*%
X330835000Y-97950000D03*
X337185000Y-95410000D03*
D12*
X328295000Y-92870000D03*
X338455000Y-92870000D03*
D13*
X333375000Y-92870000D03*
%TD*%
D11*
%TO.C,U15*%
X73660000Y-97950000D03*
X80010000Y-95410000D03*
D12*
X71120000Y-92870000D03*
X81280000Y-92870000D03*
D13*
X76200000Y-92870000D03*
%TD*%
D15*
%TO.C,J2*%
X181102000Y-156116000D03*
X178562000Y-156116000D03*
D16*
X176022000Y-156116000D03*
%TD*%
D11*
%TO.C,U61*%
X333204000Y-155100000D03*
X339554000Y-152560000D03*
D12*
X330664000Y-150020000D03*
X340824000Y-150020000D03*
D13*
X335744000Y-150020000D03*
%TD*%
D11*
%TO.C,U60*%
X309391000Y-155100000D03*
X315741000Y-152560000D03*
D12*
X306851000Y-150020000D03*
X317011000Y-150020000D03*
D13*
X311931000Y-150020000D03*
%TD*%
D11*
%TO.C,U59*%
X285591000Y-155100000D03*
X291941000Y-152560000D03*
D12*
X283051000Y-150020000D03*
X293211000Y-150020000D03*
D13*
X288131000Y-150020000D03*
%TD*%
D11*
%TO.C,U58*%
X261779000Y-155100000D03*
X268129000Y-152560000D03*
D12*
X259239000Y-150020000D03*
X269399000Y-150020000D03*
D13*
X264319000Y-150020000D03*
%TD*%
D11*
%TO.C,U56*%
X118904000Y-155100000D03*
X125254000Y-152560000D03*
D12*
X116364000Y-150020000D03*
X126524000Y-150020000D03*
D13*
X121444000Y-150020000D03*
%TD*%
D11*
%TO.C,U55*%
X95091200Y-155100000D03*
X101441200Y-152560000D03*
D12*
X92551200Y-150020000D03*
X102711200Y-150020000D03*
D13*
X97631200Y-150020000D03*
%TD*%
D11*
%TO.C,U54*%
X71278800Y-155100000D03*
X77628800Y-152560000D03*
D12*
X68738800Y-150020000D03*
X78898800Y-150020000D03*
D13*
X73818800Y-150020000D03*
%TD*%
D17*
%TO.C,J1*%
X92712000Y-47081000D03*
X84072000Y-47081000D03*
D18*
X85502000Y-46551000D03*
D19*
X84072000Y-42901000D03*
D18*
X91282000Y-46551000D03*
D19*
X92712000Y-42901000D03*
%TD*%
D20*
%TO.C,SW2*%
X92940000Y-107043000D03*
X89940000Y-107043000D03*
%TD*%
M02*
