M48
; DRILL file {KiCad (5.1.2)-1} date 11/11/2021 1:18:50 AM
; FORMAT={-:-/ absolute / metric / decimal}
; #@! TF.CreationDate,2021-11-11T01:18:50-08:00
; #@! TF.GenerationSoftware,Kicad,Pcbnew,(5.1.2)-1
; #@! TF.FileFunction,NonPlated,1,2,NPTH
FMAT,2
METRIC
T1C0.650
T2C0.900
T3C1.750
T4C3.000
T5C3.050
T6C4.000
%
G90
G05
T1
X85.502Y-46.551
X91.282Y-46.551
T2
X89.94Y-107.043
X92.94Y-107.043
T3
X228.282Y-92.87
X238.442Y-92.87
X166.37Y-130.97
X176.53Y-130.97
X92.551Y-150.02
X102.711Y-150.02
X113.982Y-92.87
X124.142Y-92.87
X356.87Y-92.87
X367.03Y-92.87
X394.97Y-92.87
X405.13Y-92.87
X316.389Y-130.97
X326.549Y-130.97
X194.945Y-111.92
X205.105Y-111.92
X275.907Y-50.008
X286.067Y-50.008
X161.608Y-73.82
X171.768Y-73.82
X283.051Y-150.02
X293.211Y-150.02
X209.232Y-92.87
X219.392Y-92.87
X356.87Y-73.82
X367.03Y-73.82
X237.808Y-73.82
X247.968Y-73.82
X156.845Y-111.92
X167.005Y-111.92
X228.282Y-50.008
X238.442Y-50.008
X66.358Y-73.82
X76.517Y-73.82
X259.239Y-150.02
X269.399Y-150.02
X171.132Y-92.87
X181.292Y-92.87
X123.507Y-50.008
X133.667Y-50.008
X209.232Y-50.008
X219.392Y-50.008
X78.232Y-130.97
X88.392Y-130.97
X290.195Y-111.92
X300.355Y-111.92
X294.957Y-50.008
X305.118Y-50.008
X275.908Y-73.82
X286.068Y-73.82
X252.095Y-111.92
X262.255Y-111.92
X333.058Y-50.008
X343.217Y-50.008
X71.12Y-92.87
X81.28Y-92.87
X218.758Y-73.82
X228.918Y-73.82
X242.57Y-130.97
X252.73Y-130.97
X306.851Y-150.02
X317.011Y-150.02
X66.358Y-50.008
X76.517Y-50.008
X187.801Y-150.02
X197.961Y-150.02
X99.695Y-111.92
X109.855Y-111.92
X314.007Y-50.008
X324.167Y-50.008
X223.52Y-130.97
X233.68Y-130.97
X133.032Y-92.87
X143.192Y-92.87
X247.332Y-50.008
X257.493Y-50.008
X375.92Y-130.97
X386.08Y-130.97
X190.182Y-92.87
X200.342Y-92.87
X375.92Y-50.008
X386.08Y-50.008
X394.97Y-150.02
X405.13Y-150.02
X68.739Y-150.02
X78.899Y-150.02
X304.482Y-92.87
X314.642Y-92.87
X375.92Y-92.87
X386.08Y-92.87
X256.858Y-73.82
X267.018Y-73.82
X285.432Y-92.87
X295.592Y-92.87
X261.62Y-130.97
X271.78Y-130.97
X356.87Y-150.02
X367.03Y-150.02
X85.407Y-73.82
X95.567Y-73.82
X247.332Y-92.87
X257.492Y-92.87
X233.045Y-111.92
X243.205Y-111.92
X190.183Y-50.008
X200.343Y-50.008
X142.558Y-73.82
X152.718Y-73.82
X328.295Y-92.87
X338.455Y-92.87
X128.27Y-130.97
X138.43Y-130.97
X123.508Y-73.82
X133.668Y-73.82
X323.533Y-73.82
X333.693Y-73.82
X109.22Y-130.97
X119.38Y-130.97
X394.97Y-73.82
X405.13Y-73.82
X185.42Y-130.97
X195.58Y-130.97
X266.382Y-92.87
X276.542Y-92.87
X213.995Y-111.92
X224.155Y-111.92
X116.364Y-150.02
X126.524Y-150.02
X118.745Y-111.92
X128.905Y-111.92
X356.87Y-50.008
X367.03Y-50.008
X394.97Y-50.008
X405.13Y-50.008
X321.151Y-111.92
X331.311Y-111.92
X175.895Y-111.92
X186.055Y-111.92
X161.607Y-50.008
X171.767Y-50.008
X104.458Y-73.82
X114.618Y-73.82
X73.502Y-111.92
X83.662Y-111.92
X94.932Y-92.87
X105.092Y-92.87
X375.92Y-73.82
X386.08Y-73.82
X294.958Y-73.82
X305.118Y-73.82
X137.795Y-111.92
X147.955Y-111.92
X180.658Y-73.82
X190.818Y-73.82
X152.082Y-92.87
X162.242Y-92.87
X104.457Y-50.008
X114.617Y-50.008
X375.92Y-150.02
X386.08Y-150.02
X271.145Y-111.92
X281.305Y-111.92
X142.558Y-50.008
X152.718Y-50.008
X199.708Y-73.82
X209.868Y-73.82
X147.32Y-130.97
X157.48Y-130.97
X204.47Y-130.97
X214.63Y-130.97
X330.664Y-150.02
X340.824Y-150.02
X280.67Y-130.97
X290.83Y-130.97
T4
X87.947Y-78.9
X94.297Y-76.36
X249.872Y-97.95
X256.222Y-95.41
X235.585Y-117.0
X241.935Y-114.46
X192.722Y-55.087
X199.072Y-52.547
X145.098Y-78.9
X151.448Y-76.36
X330.835Y-97.95
X337.185Y-95.41
X130.81Y-136.05
X137.16Y-133.51
X126.048Y-78.9
X132.398Y-76.36
X326.073Y-78.9
X332.423Y-76.36
X111.76Y-136.05
X118.11Y-133.51
X397.51Y-78.9
X403.86Y-76.36
X187.96Y-136.05
X194.31Y-133.51
X268.922Y-97.95
X275.272Y-95.41
X216.535Y-117.0
X222.885Y-114.46
X118.904Y-155.1
X125.254Y-152.56
X121.285Y-117.0
X127.635Y-114.46
X359.41Y-55.087
X365.76Y-52.547
X397.51Y-55.087
X403.86Y-52.547
X323.691Y-117.0
X330.041Y-114.46
X178.435Y-117.0
X184.785Y-114.46
X164.147Y-55.087
X170.498Y-52.547
X106.998Y-78.9
X113.348Y-76.36
X76.042Y-117.0
X82.392Y-114.46
X97.472Y-97.95
X103.822Y-95.41
X378.46Y-78.9
X384.81Y-76.36
X297.498Y-78.9
X303.848Y-76.36
X140.335Y-117.0
X146.685Y-114.46
X183.198Y-78.9
X189.548Y-76.36
X154.622Y-97.95
X160.972Y-95.41
X106.997Y-55.087
X113.347Y-52.547
X378.46Y-155.1
X384.81Y-152.56
X273.685Y-117.0
X280.035Y-114.46
X145.097Y-55.087
X151.447Y-52.547
X202.248Y-78.9
X208.598Y-76.36
X149.86Y-136.05
X156.21Y-133.51
X207.01Y-136.05
X213.36Y-133.51
X333.204Y-155.1
X339.554Y-152.56
X283.21Y-136.05
X289.56Y-133.51
X230.822Y-97.95
X237.172Y-95.41
X168.91Y-136.05
X175.26Y-133.51
X95.091Y-155.1
X101.441Y-152.56
X116.522Y-97.95
X122.872Y-95.41
X359.41Y-97.95
X365.76Y-95.41
X397.51Y-97.95
X403.86Y-95.41
X318.929Y-136.05
X325.279Y-133.51
X197.485Y-117.0
X203.835Y-114.46
X278.447Y-55.087
X284.798Y-52.547
X164.148Y-78.9
X170.498Y-76.36
X285.591Y-155.1
X291.941Y-152.56
X211.772Y-97.95
X218.122Y-95.41
X359.41Y-78.9
X365.76Y-76.36
X240.348Y-78.9
X246.698Y-76.36
X159.385Y-117.0
X165.735Y-114.46
X230.822Y-55.087
X237.172Y-52.547
X68.897Y-78.9
X75.248Y-76.36
X261.779Y-155.1
X268.129Y-152.56
X173.672Y-97.95
X180.022Y-95.41
X126.047Y-55.087
X132.398Y-52.547
X211.772Y-55.087
X218.123Y-52.547
X80.772Y-136.05
X87.122Y-133.51
X292.735Y-117.0
X299.085Y-114.46
X297.498Y-55.087
X303.847Y-52.547
X278.448Y-78.9
X284.798Y-76.36
X254.635Y-117.0
X260.985Y-114.46
X335.597Y-55.087
X341.947Y-52.547
X73.66Y-97.95
X80.01Y-95.41
X221.298Y-78.9
X227.648Y-76.36
X245.11Y-136.05
X251.46Y-133.51
X309.391Y-155.1
X315.741Y-152.56
X68.897Y-55.087
X75.248Y-52.547
X190.341Y-155.1
X196.691Y-152.56
X102.235Y-117.0
X108.585Y-114.46
X316.548Y-55.087
X322.897Y-52.547
X226.06Y-136.05
X232.41Y-133.51
X135.572Y-97.95
X141.922Y-95.41
X249.873Y-55.087
X256.222Y-52.547
X378.46Y-136.05
X384.81Y-133.51
X192.722Y-97.95
X199.072Y-95.41
X378.46Y-55.087
X384.81Y-52.547
X397.51Y-155.1
X403.86Y-152.56
X71.279Y-155.1
X77.629Y-152.56
X307.022Y-97.95
X313.372Y-95.41
X378.46Y-97.95
X384.81Y-95.41
X259.398Y-78.9
X265.748Y-76.36
X287.972Y-97.95
X294.322Y-95.41
X264.16Y-136.05
X270.51Y-133.51
X359.41Y-155.1
X365.76Y-152.56
T5
X314.293Y-118.92
X338.169Y-118.92
X309.531Y-137.97
X333.407Y-137.97
X71.374Y-137.97
X95.25Y-137.97
X142.881Y-157.02
X242.881Y-157.02
X316.675Y-66.82
X340.551Y-66.82
T6
X335.744Y-150.02
X285.75Y-130.97
X233.362Y-92.87
X171.45Y-130.97
X97.631Y-150.02
X119.062Y-92.87
X361.95Y-92.87
X400.05Y-92.87
X309.531Y-122.73
X321.469Y-130.97
X333.407Y-122.73
X200.025Y-111.92
X280.988Y-50.008
X166.688Y-73.82
X288.131Y-150.02
X214.312Y-92.87
X361.95Y-73.82
X242.888Y-73.82
X161.925Y-111.92
X233.362Y-50.008
X71.438Y-73.82
X264.319Y-150.02
X176.212Y-92.87
X128.588Y-50.008
X214.312Y-50.008
X71.374Y-122.73
X83.312Y-130.97
X95.25Y-122.73
X295.275Y-111.92
X300.037Y-50.008
X280.988Y-73.82
X257.175Y-111.92
X338.137Y-50.008
X76.2Y-92.87
X223.838Y-73.82
X247.65Y-130.97
X311.931Y-150.02
X71.438Y-50.008
X142.881Y-141.78
X192.881Y-150.02
X242.881Y-141.78
X104.775Y-111.92
X319.087Y-50.008
X228.6Y-130.97
X138.112Y-92.87
X252.412Y-50.008
X381.0Y-130.97
X195.262Y-92.87
X381.0Y-50.008
X400.05Y-150.02
X73.819Y-150.02
X309.562Y-92.87
X381.0Y-92.87
X261.938Y-73.82
X290.512Y-92.87
X266.7Y-130.97
X361.95Y-150.02
X90.487Y-73.82
X252.412Y-92.87
X238.125Y-111.92
X195.262Y-50.008
X147.638Y-73.82
X333.375Y-92.87
X133.35Y-130.97
X128.588Y-73.82
X316.675Y-82.06
X328.613Y-73.82
X340.551Y-82.06
X114.3Y-130.97
X400.05Y-73.82
X190.5Y-130.97
X271.462Y-92.87
X219.075Y-111.92
X121.444Y-150.02
X123.825Y-111.92
X361.95Y-50.008
X400.05Y-50.008
X314.293Y-103.68
X326.231Y-111.92
X338.169Y-103.68
X180.975Y-111.92
X166.688Y-50.008
X109.538Y-73.82
X78.582Y-111.92
X100.012Y-92.87
X381.0Y-73.82
X300.038Y-73.82
X142.875Y-111.92
X185.738Y-73.82
X157.162Y-92.87
X109.537Y-50.008
X381.0Y-150.02
X276.225Y-111.92
X147.637Y-50.008
X204.788Y-73.82
X152.4Y-130.97
X209.55Y-130.97
T0
M30
