%TF.GenerationSoftware,KiCad,Pcbnew,(5.1.2)-1*%
%TF.CreationDate,2021-11-08T02:50:53-08:00*%
%TF.ProjectId,PyKey60,50794b65-7936-4302-9e6b-696361645f70,1.1a*%
%TF.SameCoordinates,Original*%
%TF.FileFunction,Legend,Top*%
%TF.FilePolarity,Positive*%
%FSLAX46Y46*%
G04 Gerber Fmt 4.6, Leading zero omitted, Abs format (unit mm)*
G04 Created by KiCad (PCBNEW (5.1.2)-1) date 2021-11-08 02:50:53*
%MOMM*%
%LPD*%
G04 APERTURE LIST*
%ADD10C,0.120000*%
%ADD11C,0.150000*%
G04 APERTURE END LIST*
D10*
%TO.C,U74*%
X345137500Y-57007500D02*
X345137500Y-43007500D01*
X345137500Y-57007500D02*
X331137500Y-57007500D01*
X331137500Y-57007500D02*
X331137500Y-43007500D01*
X331137500Y-43007500D02*
X345137500Y-43007500D01*
%TO.C,U77*%
X407050000Y-57007500D02*
X407050000Y-43007500D01*
X407050000Y-57007500D02*
X393050000Y-57007500D01*
X393050000Y-57007500D02*
X393050000Y-43007500D01*
X393050000Y-43007500D02*
X407050000Y-43007500D01*
%TO.C,U80*%
X407050000Y-80820000D02*
X407050000Y-66820000D01*
X407050000Y-80820000D02*
X393050000Y-80820000D01*
X393050000Y-80820000D02*
X393050000Y-66820000D01*
X393050000Y-66820000D02*
X407050000Y-66820000D01*
%TO.C,U83*%
X407050000Y-99870000D02*
X407050000Y-85870000D01*
X407050000Y-99870000D02*
X393050000Y-99870000D01*
X393050000Y-99870000D02*
X393050000Y-85870000D01*
X393050000Y-85870000D02*
X407050000Y-85870000D01*
%TO.C,U84*%
X388000000Y-137970000D02*
X388000000Y-123970000D01*
X388000000Y-137970000D02*
X374000000Y-137970000D01*
X374000000Y-137970000D02*
X374000000Y-123970000D01*
X374000000Y-123970000D02*
X388000000Y-123970000D01*
%TO.C,U87*%
X407050000Y-157020000D02*
X407050000Y-143020000D01*
X407050000Y-157020000D02*
X393050000Y-157020000D01*
X393050000Y-157020000D02*
X393050000Y-143020000D01*
X393050000Y-143020000D02*
X407050000Y-143020000D01*
%TO.C,U42*%
X76312000Y-123970000D02*
X90312000Y-123970000D01*
X76312000Y-137970000D02*
X76312000Y-123970000D01*
X90312000Y-137970000D02*
X76312000Y-137970000D01*
X90312000Y-137970000D02*
X90312000Y-123970000D01*
%TO.C,U1*%
X64437500Y-66820000D02*
X78437500Y-66820000D01*
X64437500Y-80820000D02*
X64437500Y-66820000D01*
X78437500Y-80820000D02*
X64437500Y-80820000D01*
X78437500Y-80820000D02*
X78437500Y-66820000D01*
%TO.C,U2*%
X83487500Y-66820000D02*
X97487500Y-66820000D01*
X83487500Y-80820000D02*
X83487500Y-66820000D01*
X97487500Y-80820000D02*
X83487500Y-80820000D01*
X97487500Y-80820000D02*
X97487500Y-66820000D01*
%TO.C,U3*%
X102538000Y-66820000D02*
X116538000Y-66820000D01*
X102538000Y-80820000D02*
X102538000Y-66820000D01*
X116538000Y-80820000D02*
X102538000Y-80820000D01*
X116538000Y-80820000D02*
X116538000Y-66820000D01*
%TO.C,U4*%
X121588000Y-66820000D02*
X135588000Y-66820000D01*
X121588000Y-80820000D02*
X121588000Y-66820000D01*
X135588000Y-80820000D02*
X121588000Y-80820000D01*
X135588000Y-80820000D02*
X135588000Y-66820000D01*
%TO.C,U5*%
X140638000Y-66820000D02*
X154638000Y-66820000D01*
X140638000Y-80820000D02*
X140638000Y-66820000D01*
X154638000Y-80820000D02*
X140638000Y-80820000D01*
X154638000Y-80820000D02*
X154638000Y-66820000D01*
%TO.C,U6*%
X159688000Y-66820000D02*
X173688000Y-66820000D01*
X159688000Y-80820000D02*
X159688000Y-66820000D01*
X173688000Y-80820000D02*
X159688000Y-80820000D01*
X173688000Y-80820000D02*
X173688000Y-66820000D01*
%TO.C,U8*%
X197788000Y-66820000D02*
X211788000Y-66820000D01*
X197788000Y-80820000D02*
X197788000Y-66820000D01*
X211788000Y-80820000D02*
X197788000Y-80820000D01*
X211788000Y-80820000D02*
X211788000Y-66820000D01*
%TO.C,U9*%
X216838000Y-66820000D02*
X230838000Y-66820000D01*
X216838000Y-80820000D02*
X216838000Y-66820000D01*
X230838000Y-80820000D02*
X216838000Y-80820000D01*
X230838000Y-80820000D02*
X230838000Y-66820000D01*
%TO.C,U10*%
X235888000Y-66820000D02*
X249888000Y-66820000D01*
X235888000Y-80820000D02*
X235888000Y-66820000D01*
X249888000Y-80820000D02*
X235888000Y-80820000D01*
X249888000Y-80820000D02*
X249888000Y-66820000D01*
%TO.C,U11*%
X254938000Y-66820000D02*
X268938000Y-66820000D01*
X254938000Y-80820000D02*
X254938000Y-66820000D01*
X268938000Y-80820000D02*
X254938000Y-80820000D01*
X268938000Y-80820000D02*
X268938000Y-66820000D01*
%TO.C,U12*%
X273988000Y-66820000D02*
X287988000Y-66820000D01*
X273988000Y-80820000D02*
X273988000Y-66820000D01*
X287988000Y-80820000D02*
X273988000Y-80820000D01*
X287988000Y-80820000D02*
X287988000Y-66820000D01*
%TO.C,U13*%
X293038000Y-66820000D02*
X307038000Y-66820000D01*
X293038000Y-80820000D02*
X293038000Y-66820000D01*
X307038000Y-80820000D02*
X293038000Y-80820000D01*
X307038000Y-80820000D02*
X307038000Y-66820000D01*
%TO.C,U16*%
X93012000Y-85870000D02*
X107012000Y-85870000D01*
X93012000Y-99870000D02*
X93012000Y-85870000D01*
X107012000Y-99870000D02*
X93012000Y-99870000D01*
X107012000Y-99870000D02*
X107012000Y-85870000D01*
%TO.C,U17*%
X112062000Y-85870000D02*
X126062000Y-85870000D01*
X112062000Y-99870000D02*
X112062000Y-85870000D01*
X126062000Y-99870000D02*
X112062000Y-99870000D01*
X126062000Y-99870000D02*
X126062000Y-85870000D01*
%TO.C,U18*%
X131112000Y-85870000D02*
X145112000Y-85870000D01*
X131112000Y-99870000D02*
X131112000Y-85870000D01*
X145112000Y-99870000D02*
X131112000Y-99870000D01*
X145112000Y-99870000D02*
X145112000Y-85870000D01*
%TO.C,U19*%
X150162000Y-85870000D02*
X164162000Y-85870000D01*
X150162000Y-99870000D02*
X150162000Y-85870000D01*
X164162000Y-99870000D02*
X150162000Y-99870000D01*
X164162000Y-99870000D02*
X164162000Y-85870000D01*
%TO.C,U20*%
X169212000Y-85870000D02*
X183212000Y-85870000D01*
X169212000Y-99870000D02*
X169212000Y-85870000D01*
X183212000Y-99870000D02*
X169212000Y-99870000D01*
X183212000Y-99870000D02*
X183212000Y-85870000D01*
%TO.C,U21*%
X188262000Y-85870000D02*
X202262000Y-85870000D01*
X188262000Y-99870000D02*
X188262000Y-85870000D01*
X202262000Y-99870000D02*
X188262000Y-99870000D01*
X202262000Y-99870000D02*
X202262000Y-85870000D01*
%TO.C,U22*%
X207312000Y-85870000D02*
X221312000Y-85870000D01*
X207312000Y-99870000D02*
X207312000Y-85870000D01*
X221312000Y-99870000D02*
X207312000Y-99870000D01*
X221312000Y-99870000D02*
X221312000Y-85870000D01*
%TO.C,U23*%
X226362000Y-85870000D02*
X240362000Y-85870000D01*
X226362000Y-99870000D02*
X226362000Y-85870000D01*
X240362000Y-99870000D02*
X226362000Y-99870000D01*
X240362000Y-99870000D02*
X240362000Y-85870000D01*
%TO.C,U24*%
X245412000Y-85870000D02*
X259412000Y-85870000D01*
X245412000Y-99870000D02*
X245412000Y-85870000D01*
X259412000Y-99870000D02*
X245412000Y-99870000D01*
X259412000Y-99870000D02*
X259412000Y-85870000D01*
%TO.C,U25*%
X264462000Y-85870000D02*
X278462000Y-85870000D01*
X264462000Y-99870000D02*
X264462000Y-85870000D01*
X278462000Y-99870000D02*
X264462000Y-99870000D01*
X278462000Y-99870000D02*
X278462000Y-85870000D01*
%TO.C,U26*%
X283512000Y-85870000D02*
X297512000Y-85870000D01*
X283512000Y-99870000D02*
X283512000Y-85870000D01*
X297512000Y-99870000D02*
X283512000Y-99870000D01*
X297512000Y-99870000D02*
X297512000Y-85870000D01*
%TO.C,U27*%
X302562000Y-85870000D02*
X316562000Y-85870000D01*
X302562000Y-99870000D02*
X302562000Y-85870000D01*
X316562000Y-99870000D02*
X302562000Y-99870000D01*
X316562000Y-99870000D02*
X316562000Y-85870000D01*
%TO.C,U30*%
X97775000Y-104920000D02*
X111775000Y-104920000D01*
X97775000Y-118920000D02*
X97775000Y-104920000D01*
X111775000Y-118920000D02*
X97775000Y-118920000D01*
X111775000Y-118920000D02*
X111775000Y-104920000D01*
%TO.C,U31*%
X116825000Y-104920000D02*
X130825000Y-104920000D01*
X116825000Y-118920000D02*
X116825000Y-104920000D01*
X130825000Y-118920000D02*
X116825000Y-118920000D01*
X130825000Y-118920000D02*
X130825000Y-104920000D01*
%TO.C,U32*%
X135875000Y-104920000D02*
X149875000Y-104920000D01*
X135875000Y-118920000D02*
X135875000Y-104920000D01*
X149875000Y-118920000D02*
X135875000Y-118920000D01*
X149875000Y-118920000D02*
X149875000Y-104920000D01*
%TO.C,U33*%
X154925000Y-104920000D02*
X168925000Y-104920000D01*
X154925000Y-118920000D02*
X154925000Y-104920000D01*
X168925000Y-118920000D02*
X154925000Y-118920000D01*
X168925000Y-118920000D02*
X168925000Y-104920000D01*
%TO.C,U34*%
X173975000Y-104920000D02*
X187975000Y-104920000D01*
X173975000Y-118920000D02*
X173975000Y-104920000D01*
X187975000Y-118920000D02*
X173975000Y-118920000D01*
X187975000Y-118920000D02*
X187975000Y-104920000D01*
%TO.C,U35*%
X193025000Y-104920000D02*
X207025000Y-104920000D01*
X193025000Y-118920000D02*
X193025000Y-104920000D01*
X207025000Y-118920000D02*
X193025000Y-118920000D01*
X207025000Y-118920000D02*
X207025000Y-104920000D01*
%TO.C,U36*%
X212075000Y-104920000D02*
X226075000Y-104920000D01*
X212075000Y-118920000D02*
X212075000Y-104920000D01*
X226075000Y-118920000D02*
X212075000Y-118920000D01*
X226075000Y-118920000D02*
X226075000Y-104920000D01*
%TO.C,U37*%
X231125000Y-104920000D02*
X245125000Y-104920000D01*
X231125000Y-118920000D02*
X231125000Y-104920000D01*
X245125000Y-118920000D02*
X231125000Y-118920000D01*
X245125000Y-118920000D02*
X245125000Y-104920000D01*
%TO.C,U38*%
X250175000Y-104920000D02*
X264175000Y-104920000D01*
X250175000Y-118920000D02*
X250175000Y-104920000D01*
X264175000Y-118920000D02*
X250175000Y-118920000D01*
X264175000Y-118920000D02*
X264175000Y-104920000D01*
%TO.C,U39*%
X269225000Y-104920000D02*
X283225000Y-104920000D01*
X269225000Y-118920000D02*
X269225000Y-104920000D01*
X283225000Y-118920000D02*
X269225000Y-118920000D01*
X283225000Y-118920000D02*
X283225000Y-104920000D01*
%TO.C,U40*%
X288275000Y-104920000D02*
X302275000Y-104920000D01*
X288275000Y-118920000D02*
X288275000Y-104920000D01*
X302275000Y-118920000D02*
X288275000Y-118920000D01*
X302275000Y-118920000D02*
X302275000Y-104920000D01*
%TO.C,U43*%
X107300000Y-123970000D02*
X121300000Y-123970000D01*
X107300000Y-137970000D02*
X107300000Y-123970000D01*
X121300000Y-137970000D02*
X107300000Y-137970000D01*
X121300000Y-137970000D02*
X121300000Y-123970000D01*
%TO.C,U44*%
X126350000Y-123970000D02*
X140350000Y-123970000D01*
X126350000Y-137970000D02*
X126350000Y-123970000D01*
X140350000Y-137970000D02*
X126350000Y-137970000D01*
X140350000Y-137970000D02*
X140350000Y-123970000D01*
%TO.C,U45*%
X145400000Y-123970000D02*
X159400000Y-123970000D01*
X145400000Y-137970000D02*
X145400000Y-123970000D01*
X159400000Y-137970000D02*
X145400000Y-137970000D01*
X159400000Y-137970000D02*
X159400000Y-123970000D01*
%TO.C,U46*%
X164450000Y-123970000D02*
X178450000Y-123970000D01*
X164450000Y-137970000D02*
X164450000Y-123970000D01*
X178450000Y-137970000D02*
X164450000Y-137970000D01*
X178450000Y-137970000D02*
X178450000Y-123970000D01*
%TO.C,U47*%
X183500000Y-123970000D02*
X197500000Y-123970000D01*
X183500000Y-137970000D02*
X183500000Y-123970000D01*
X197500000Y-137970000D02*
X183500000Y-137970000D01*
X197500000Y-137970000D02*
X197500000Y-123970000D01*
%TO.C,U48*%
X202550000Y-123970000D02*
X216550000Y-123970000D01*
X202550000Y-137970000D02*
X202550000Y-123970000D01*
X216550000Y-137970000D02*
X202550000Y-137970000D01*
X216550000Y-137970000D02*
X216550000Y-123970000D01*
%TO.C,U49*%
X221600000Y-123970000D02*
X235600000Y-123970000D01*
X221600000Y-137970000D02*
X221600000Y-123970000D01*
X235600000Y-137970000D02*
X221600000Y-137970000D01*
X235600000Y-137970000D02*
X235600000Y-123970000D01*
%TO.C,U50*%
X240650000Y-123970000D02*
X254650000Y-123970000D01*
X240650000Y-137970000D02*
X240650000Y-123970000D01*
X254650000Y-137970000D02*
X240650000Y-137970000D01*
X254650000Y-137970000D02*
X254650000Y-123970000D01*
%TO.C,U51*%
X259700000Y-123970000D02*
X273700000Y-123970000D01*
X259700000Y-137970000D02*
X259700000Y-123970000D01*
X273700000Y-137970000D02*
X259700000Y-137970000D01*
X273700000Y-137970000D02*
X273700000Y-123970000D01*
%TO.C,U52*%
X278750000Y-123970000D02*
X292750000Y-123970000D01*
X278750000Y-137970000D02*
X278750000Y-123970000D01*
X292750000Y-137970000D02*
X278750000Y-137970000D01*
X292750000Y-137970000D02*
X292750000Y-123970000D01*
%TO.C,U62*%
X78437500Y-57007500D02*
X78437500Y-43007500D01*
X78437500Y-57007500D02*
X64437500Y-57007500D01*
X64437500Y-57007500D02*
X64437500Y-43007500D01*
X64437500Y-43007500D02*
X78437500Y-43007500D01*
%TO.C,U63*%
X102537500Y-43007500D02*
X116537500Y-43007500D01*
X102537500Y-57007500D02*
X102537500Y-43007500D01*
X116537500Y-57007500D02*
X102537500Y-57007500D01*
X116537500Y-57007500D02*
X116537500Y-43007500D01*
%TO.C,U64*%
X135587500Y-57007500D02*
X135587500Y-43007500D01*
X135587500Y-57007500D02*
X121587500Y-57007500D01*
X121587500Y-57007500D02*
X121587500Y-43007500D01*
X121587500Y-43007500D02*
X135587500Y-43007500D01*
%TO.C,U65*%
X154637500Y-57007500D02*
X154637500Y-43007500D01*
X154637500Y-57007500D02*
X140637500Y-57007500D01*
X140637500Y-57007500D02*
X140637500Y-43007500D01*
X140637500Y-43007500D02*
X154637500Y-43007500D01*
%TO.C,U66*%
X173687500Y-57007500D02*
X173687500Y-43007500D01*
X173687500Y-57007500D02*
X159687500Y-57007500D01*
X159687500Y-57007500D02*
X159687500Y-43007500D01*
X159687500Y-43007500D02*
X173687500Y-43007500D01*
%TO.C,U67*%
X202262500Y-57007500D02*
X202262500Y-43007500D01*
X202262500Y-57007500D02*
X188262500Y-57007500D01*
X188262500Y-57007500D02*
X188262500Y-43007500D01*
X188262500Y-43007500D02*
X202262500Y-43007500D01*
%TO.C,U68*%
X221312500Y-57007500D02*
X221312500Y-43007500D01*
X221312500Y-57007500D02*
X207312500Y-57007500D01*
X207312500Y-57007500D02*
X207312500Y-43007500D01*
X207312500Y-43007500D02*
X221312500Y-43007500D01*
%TO.C,U69*%
X240362500Y-57007500D02*
X240362500Y-43007500D01*
X240362500Y-57007500D02*
X226362500Y-57007500D01*
X226362500Y-57007500D02*
X226362500Y-43007500D01*
X226362500Y-43007500D02*
X240362500Y-43007500D01*
%TO.C,U70*%
X259412500Y-57007500D02*
X259412500Y-43007500D01*
X259412500Y-57007500D02*
X245412500Y-57007500D01*
X245412500Y-57007500D02*
X245412500Y-43007500D01*
X245412500Y-43007500D02*
X259412500Y-43007500D01*
%TO.C,U71*%
X287987500Y-57007500D02*
X287987500Y-43007500D01*
X287987500Y-57007500D02*
X273987500Y-57007500D01*
X273987500Y-57007500D02*
X273987500Y-43007500D01*
X273987500Y-43007500D02*
X287987500Y-43007500D01*
%TO.C,U72*%
X307037500Y-57007500D02*
X307037500Y-43007500D01*
X307037500Y-57007500D02*
X293037500Y-57007500D01*
X293037500Y-57007500D02*
X293037500Y-43007500D01*
X293037500Y-43007500D02*
X307037500Y-43007500D01*
%TO.C,U73*%
X326087500Y-57007500D02*
X326087500Y-43007500D01*
X326087500Y-57007500D02*
X312087500Y-57007500D01*
X312087500Y-57007500D02*
X312087500Y-43007500D01*
X312087500Y-43007500D02*
X326087500Y-43007500D01*
%TO.C,U75*%
X368950000Y-57007500D02*
X368950000Y-43007500D01*
X368950000Y-57007500D02*
X354950000Y-57007500D01*
X354950000Y-57007500D02*
X354950000Y-43007500D01*
X354950000Y-43007500D02*
X368950000Y-43007500D01*
%TO.C,U78*%
X368950000Y-80820000D02*
X368950000Y-66820000D01*
X368950000Y-80820000D02*
X354950000Y-80820000D01*
X354950000Y-80820000D02*
X354950000Y-66820000D01*
X354950000Y-66820000D02*
X368950000Y-66820000D01*
%TO.C,U81*%
X368950000Y-99870000D02*
X368950000Y-85870000D01*
X368950000Y-99870000D02*
X354950000Y-99870000D01*
X354950000Y-99870000D02*
X354950000Y-85870000D01*
X354950000Y-85870000D02*
X368950000Y-85870000D01*
%TO.C,U85*%
X368950000Y-157020000D02*
X368950000Y-143020000D01*
X368950000Y-157020000D02*
X354950000Y-157020000D01*
X354950000Y-157020000D02*
X354950000Y-143020000D01*
X354950000Y-143020000D02*
X368950000Y-143020000D01*
%TO.C,U76*%
X388000000Y-57007500D02*
X388000000Y-43007500D01*
X388000000Y-57007500D02*
X374000000Y-57007500D01*
X374000000Y-57007500D02*
X374000000Y-43007500D01*
X374000000Y-43007500D02*
X388000000Y-43007500D01*
%TO.C,U79*%
X388000000Y-80820000D02*
X388000000Y-66820000D01*
X388000000Y-80820000D02*
X374000000Y-80820000D01*
X374000000Y-80820000D02*
X374000000Y-66820000D01*
X374000000Y-66820000D02*
X388000000Y-66820000D01*
%TO.C,U82*%
X388000000Y-99870000D02*
X388000000Y-85870000D01*
X388000000Y-99870000D02*
X374000000Y-99870000D01*
X374000000Y-99870000D02*
X374000000Y-85870000D01*
X374000000Y-85870000D02*
X388000000Y-85870000D01*
%TO.C,U7*%
X178738000Y-66820000D02*
X192738000Y-66820000D01*
X178738000Y-80820000D02*
X178738000Y-66820000D01*
X192738000Y-80820000D02*
X178738000Y-80820000D01*
X192738000Y-80820000D02*
X192738000Y-66820000D01*
%TO.C,U86*%
X388000000Y-157020000D02*
X388000000Y-143020000D01*
X388000000Y-157020000D02*
X374000000Y-157020000D01*
X374000000Y-157020000D02*
X374000000Y-143020000D01*
X374000000Y-143020000D02*
X388000000Y-143020000D01*
%TO.C,U57*%
X185881000Y-143020000D02*
X199881000Y-143020000D01*
X185881000Y-157020000D02*
X185881000Y-143020000D01*
X199881000Y-157020000D02*
X185881000Y-157020000D01*
X199881000Y-157020000D02*
X199881000Y-143020000D01*
%TO.C,U53*%
X314469000Y-123970000D02*
X328469000Y-123970000D01*
X314469000Y-137970000D02*
X314469000Y-123970000D01*
X328469000Y-137970000D02*
X314469000Y-137970000D01*
X328469000Y-137970000D02*
X328469000Y-123970000D01*
%TO.C,U41*%
X319231000Y-104920000D02*
X333231000Y-104920000D01*
X319231000Y-118920000D02*
X319231000Y-104920000D01*
X333231000Y-118920000D02*
X319231000Y-118920000D01*
X333231000Y-118920000D02*
X333231000Y-104920000D01*
%TO.C,U14*%
X321613000Y-66820000D02*
X335613000Y-66820000D01*
X321613000Y-80820000D02*
X321613000Y-66820000D01*
X335613000Y-80820000D02*
X321613000Y-80820000D01*
X335613000Y-80820000D02*
X335613000Y-66820000D01*
%TO.C,U29*%
X71582500Y-104920000D02*
X85582500Y-104920000D01*
X71582500Y-118920000D02*
X71582500Y-104920000D01*
X85582500Y-118920000D02*
X71582500Y-118920000D01*
X85582500Y-118920000D02*
X85582500Y-104920000D01*
%TO.C,U28*%
X326375000Y-85870000D02*
X340375000Y-85870000D01*
X326375000Y-99870000D02*
X326375000Y-85870000D01*
X340375000Y-99870000D02*
X326375000Y-99870000D01*
X340375000Y-99870000D02*
X340375000Y-85870000D01*
%TO.C,U15*%
X69200000Y-85870000D02*
X83200000Y-85870000D01*
X69200000Y-99870000D02*
X69200000Y-85870000D01*
X83200000Y-99870000D02*
X69200000Y-99870000D01*
X83200000Y-99870000D02*
X83200000Y-85870000D01*
%TO.C,U61*%
X328744000Y-143020000D02*
X342744000Y-143020000D01*
X328744000Y-157020000D02*
X328744000Y-143020000D01*
X342744000Y-157020000D02*
X328744000Y-157020000D01*
X342744000Y-157020000D02*
X342744000Y-143020000D01*
%TO.C,U60*%
X304931000Y-143020000D02*
X318931000Y-143020000D01*
X304931000Y-157020000D02*
X304931000Y-143020000D01*
X318931000Y-157020000D02*
X304931000Y-157020000D01*
X318931000Y-157020000D02*
X318931000Y-143020000D01*
%TO.C,U59*%
X281131000Y-143020000D02*
X295131000Y-143020000D01*
X281131000Y-157020000D02*
X281131000Y-143020000D01*
X295131000Y-157020000D02*
X281131000Y-157020000D01*
X295131000Y-157020000D02*
X295131000Y-143020000D01*
%TO.C,U58*%
X257319000Y-143020000D02*
X271319000Y-143020000D01*
X257319000Y-157020000D02*
X257319000Y-143020000D01*
X271319000Y-157020000D02*
X257319000Y-157020000D01*
X271319000Y-157020000D02*
X271319000Y-143020000D01*
%TO.C,U56*%
X114444000Y-143020000D02*
X128444000Y-143020000D01*
X114444000Y-157020000D02*
X114444000Y-143020000D01*
X128444000Y-157020000D02*
X114444000Y-157020000D01*
X128444000Y-157020000D02*
X128444000Y-143020000D01*
%TO.C,U55*%
X90631200Y-143020000D02*
X104631200Y-143020000D01*
X90631200Y-157020000D02*
X90631200Y-143020000D01*
X104631200Y-157020000D02*
X90631200Y-157020000D01*
X104631200Y-157020000D02*
X104631200Y-143020000D01*
%TO.C,U54*%
X66818800Y-143020000D02*
X80818800Y-143020000D01*
X66818800Y-157020000D02*
X66818800Y-143020000D01*
X80818800Y-157020000D02*
X66818800Y-157020000D01*
X80818800Y-157020000D02*
X80818800Y-143020000D01*
%TO.C,U74*%
D11*
X336899404Y-58122380D02*
X336899404Y-58931904D01*
X336947023Y-59027142D01*
X336994642Y-59074761D01*
X337089880Y-59122380D01*
X337280357Y-59122380D01*
X337375595Y-59074761D01*
X337423214Y-59027142D01*
X337470833Y-58931904D01*
X337470833Y-58122380D01*
X337851785Y-58122380D02*
X338518452Y-58122380D01*
X338089880Y-59122380D01*
X339327976Y-58455714D02*
X339327976Y-59122380D01*
X339089880Y-58074761D02*
X338851785Y-58789047D01*
X339470833Y-58789047D01*
%TO.C,U77*%
X398811904Y-58122380D02*
X398811904Y-58931904D01*
X398859523Y-59027142D01*
X398907142Y-59074761D01*
X399002380Y-59122380D01*
X399192857Y-59122380D01*
X399288095Y-59074761D01*
X399335714Y-59027142D01*
X399383333Y-58931904D01*
X399383333Y-58122380D01*
X399764285Y-58122380D02*
X400430952Y-58122380D01*
X400002380Y-59122380D01*
X400716666Y-58122380D02*
X401383333Y-58122380D01*
X400954761Y-59122380D01*
%TO.C,U80*%
X398811904Y-81934880D02*
X398811904Y-82744404D01*
X398859523Y-82839642D01*
X398907142Y-82887261D01*
X399002380Y-82934880D01*
X399192857Y-82934880D01*
X399288095Y-82887261D01*
X399335714Y-82839642D01*
X399383333Y-82744404D01*
X399383333Y-81934880D01*
X400002380Y-82363452D02*
X399907142Y-82315833D01*
X399859523Y-82268214D01*
X399811904Y-82172976D01*
X399811904Y-82125357D01*
X399859523Y-82030119D01*
X399907142Y-81982500D01*
X400002380Y-81934880D01*
X400192857Y-81934880D01*
X400288095Y-81982500D01*
X400335714Y-82030119D01*
X400383333Y-82125357D01*
X400383333Y-82172976D01*
X400335714Y-82268214D01*
X400288095Y-82315833D01*
X400192857Y-82363452D01*
X400002380Y-82363452D01*
X399907142Y-82411071D01*
X399859523Y-82458690D01*
X399811904Y-82553928D01*
X399811904Y-82744404D01*
X399859523Y-82839642D01*
X399907142Y-82887261D01*
X400002380Y-82934880D01*
X400192857Y-82934880D01*
X400288095Y-82887261D01*
X400335714Y-82839642D01*
X400383333Y-82744404D01*
X400383333Y-82553928D01*
X400335714Y-82458690D01*
X400288095Y-82411071D01*
X400192857Y-82363452D01*
X401002380Y-81934880D02*
X401097619Y-81934880D01*
X401192857Y-81982500D01*
X401240476Y-82030119D01*
X401288095Y-82125357D01*
X401335714Y-82315833D01*
X401335714Y-82553928D01*
X401288095Y-82744404D01*
X401240476Y-82839642D01*
X401192857Y-82887261D01*
X401097619Y-82934880D01*
X401002380Y-82934880D01*
X400907142Y-82887261D01*
X400859523Y-82839642D01*
X400811904Y-82744404D01*
X400764285Y-82553928D01*
X400764285Y-82315833D01*
X400811904Y-82125357D01*
X400859523Y-82030119D01*
X400907142Y-81982500D01*
X401002380Y-81934880D01*
%TO.C,U83*%
X398811904Y-100984880D02*
X398811904Y-101794404D01*
X398859523Y-101889642D01*
X398907142Y-101937261D01*
X399002380Y-101984880D01*
X399192857Y-101984880D01*
X399288095Y-101937261D01*
X399335714Y-101889642D01*
X399383333Y-101794404D01*
X399383333Y-100984880D01*
X400002380Y-101413452D02*
X399907142Y-101365833D01*
X399859523Y-101318214D01*
X399811904Y-101222976D01*
X399811904Y-101175357D01*
X399859523Y-101080119D01*
X399907142Y-101032500D01*
X400002380Y-100984880D01*
X400192857Y-100984880D01*
X400288095Y-101032500D01*
X400335714Y-101080119D01*
X400383333Y-101175357D01*
X400383333Y-101222976D01*
X400335714Y-101318214D01*
X400288095Y-101365833D01*
X400192857Y-101413452D01*
X400002380Y-101413452D01*
X399907142Y-101461071D01*
X399859523Y-101508690D01*
X399811904Y-101603928D01*
X399811904Y-101794404D01*
X399859523Y-101889642D01*
X399907142Y-101937261D01*
X400002380Y-101984880D01*
X400192857Y-101984880D01*
X400288095Y-101937261D01*
X400335714Y-101889642D01*
X400383333Y-101794404D01*
X400383333Y-101603928D01*
X400335714Y-101508690D01*
X400288095Y-101461071D01*
X400192857Y-101413452D01*
X400716666Y-100984880D02*
X401335714Y-100984880D01*
X401002380Y-101365833D01*
X401145238Y-101365833D01*
X401240476Y-101413452D01*
X401288095Y-101461071D01*
X401335714Y-101556309D01*
X401335714Y-101794404D01*
X401288095Y-101889642D01*
X401240476Y-101937261D01*
X401145238Y-101984880D01*
X400859523Y-101984880D01*
X400764285Y-101937261D01*
X400716666Y-101889642D01*
%TO.C,U84*%
X379761904Y-139084880D02*
X379761904Y-139894404D01*
X379809523Y-139989642D01*
X379857142Y-140037261D01*
X379952380Y-140084880D01*
X380142857Y-140084880D01*
X380238095Y-140037261D01*
X380285714Y-139989642D01*
X380333333Y-139894404D01*
X380333333Y-139084880D01*
X380952380Y-139513452D02*
X380857142Y-139465833D01*
X380809523Y-139418214D01*
X380761904Y-139322976D01*
X380761904Y-139275357D01*
X380809523Y-139180119D01*
X380857142Y-139132500D01*
X380952380Y-139084880D01*
X381142857Y-139084880D01*
X381238095Y-139132500D01*
X381285714Y-139180119D01*
X381333333Y-139275357D01*
X381333333Y-139322976D01*
X381285714Y-139418214D01*
X381238095Y-139465833D01*
X381142857Y-139513452D01*
X380952380Y-139513452D01*
X380857142Y-139561071D01*
X380809523Y-139608690D01*
X380761904Y-139703928D01*
X380761904Y-139894404D01*
X380809523Y-139989642D01*
X380857142Y-140037261D01*
X380952380Y-140084880D01*
X381142857Y-140084880D01*
X381238095Y-140037261D01*
X381285714Y-139989642D01*
X381333333Y-139894404D01*
X381333333Y-139703928D01*
X381285714Y-139608690D01*
X381238095Y-139561071D01*
X381142857Y-139513452D01*
X382190476Y-139418214D02*
X382190476Y-140084880D01*
X381952380Y-139037261D02*
X381714285Y-139751547D01*
X382333333Y-139751547D01*
%TO.C,U87*%
X398811904Y-158134880D02*
X398811904Y-158944404D01*
X398859523Y-159039642D01*
X398907142Y-159087261D01*
X399002380Y-159134880D01*
X399192857Y-159134880D01*
X399288095Y-159087261D01*
X399335714Y-159039642D01*
X399383333Y-158944404D01*
X399383333Y-158134880D01*
X400002380Y-158563452D02*
X399907142Y-158515833D01*
X399859523Y-158468214D01*
X399811904Y-158372976D01*
X399811904Y-158325357D01*
X399859523Y-158230119D01*
X399907142Y-158182500D01*
X400002380Y-158134880D01*
X400192857Y-158134880D01*
X400288095Y-158182500D01*
X400335714Y-158230119D01*
X400383333Y-158325357D01*
X400383333Y-158372976D01*
X400335714Y-158468214D01*
X400288095Y-158515833D01*
X400192857Y-158563452D01*
X400002380Y-158563452D01*
X399907142Y-158611071D01*
X399859523Y-158658690D01*
X399811904Y-158753928D01*
X399811904Y-158944404D01*
X399859523Y-159039642D01*
X399907142Y-159087261D01*
X400002380Y-159134880D01*
X400192857Y-159134880D01*
X400288095Y-159087261D01*
X400335714Y-159039642D01*
X400383333Y-158944404D01*
X400383333Y-158753928D01*
X400335714Y-158658690D01*
X400288095Y-158611071D01*
X400192857Y-158563452D01*
X400716666Y-158134880D02*
X401383333Y-158134880D01*
X400954761Y-159134880D01*
%TO.C,U62*%
X70199404Y-58122380D02*
X70199404Y-58931904D01*
X70247023Y-59027142D01*
X70294642Y-59074761D01*
X70389880Y-59122380D01*
X70580357Y-59122380D01*
X70675595Y-59074761D01*
X70723214Y-59027142D01*
X70770833Y-58931904D01*
X70770833Y-58122380D01*
X71675595Y-58122380D02*
X71485119Y-58122380D01*
X71389880Y-58170000D01*
X71342261Y-58217619D01*
X71247023Y-58360476D01*
X71199404Y-58550952D01*
X71199404Y-58931904D01*
X71247023Y-59027142D01*
X71294642Y-59074761D01*
X71389880Y-59122380D01*
X71580357Y-59122380D01*
X71675595Y-59074761D01*
X71723214Y-59027142D01*
X71770833Y-58931904D01*
X71770833Y-58693809D01*
X71723214Y-58598571D01*
X71675595Y-58550952D01*
X71580357Y-58503333D01*
X71389880Y-58503333D01*
X71294642Y-58550952D01*
X71247023Y-58598571D01*
X71199404Y-58693809D01*
X72151785Y-58217619D02*
X72199404Y-58170000D01*
X72294642Y-58122380D01*
X72532738Y-58122380D01*
X72627976Y-58170000D01*
X72675595Y-58217619D01*
X72723214Y-58312857D01*
X72723214Y-58408095D01*
X72675595Y-58550952D01*
X72104166Y-59122380D01*
X72723214Y-59122380D01*
%TO.C,U63*%
X108299404Y-58122380D02*
X108299404Y-58931904D01*
X108347023Y-59027142D01*
X108394642Y-59074761D01*
X108489880Y-59122380D01*
X108680357Y-59122380D01*
X108775595Y-59074761D01*
X108823214Y-59027142D01*
X108870833Y-58931904D01*
X108870833Y-58122380D01*
X109775595Y-58122380D02*
X109585119Y-58122380D01*
X109489880Y-58170000D01*
X109442261Y-58217619D01*
X109347023Y-58360476D01*
X109299404Y-58550952D01*
X109299404Y-58931904D01*
X109347023Y-59027142D01*
X109394642Y-59074761D01*
X109489880Y-59122380D01*
X109680357Y-59122380D01*
X109775595Y-59074761D01*
X109823214Y-59027142D01*
X109870833Y-58931904D01*
X109870833Y-58693809D01*
X109823214Y-58598571D01*
X109775595Y-58550952D01*
X109680357Y-58503333D01*
X109489880Y-58503333D01*
X109394642Y-58550952D01*
X109347023Y-58598571D01*
X109299404Y-58693809D01*
X110204166Y-58122380D02*
X110823214Y-58122380D01*
X110489880Y-58503333D01*
X110632738Y-58503333D01*
X110727976Y-58550952D01*
X110775595Y-58598571D01*
X110823214Y-58693809D01*
X110823214Y-58931904D01*
X110775595Y-59027142D01*
X110727976Y-59074761D01*
X110632738Y-59122380D01*
X110347023Y-59122380D01*
X110251785Y-59074761D01*
X110204166Y-59027142D01*
%TO.C,U64*%
X127349404Y-58122380D02*
X127349404Y-58931904D01*
X127397023Y-59027142D01*
X127444642Y-59074761D01*
X127539880Y-59122380D01*
X127730357Y-59122380D01*
X127825595Y-59074761D01*
X127873214Y-59027142D01*
X127920833Y-58931904D01*
X127920833Y-58122380D01*
X128825595Y-58122380D02*
X128635119Y-58122380D01*
X128539880Y-58170000D01*
X128492261Y-58217619D01*
X128397023Y-58360476D01*
X128349404Y-58550952D01*
X128349404Y-58931904D01*
X128397023Y-59027142D01*
X128444642Y-59074761D01*
X128539880Y-59122380D01*
X128730357Y-59122380D01*
X128825595Y-59074761D01*
X128873214Y-59027142D01*
X128920833Y-58931904D01*
X128920833Y-58693809D01*
X128873214Y-58598571D01*
X128825595Y-58550952D01*
X128730357Y-58503333D01*
X128539880Y-58503333D01*
X128444642Y-58550952D01*
X128397023Y-58598571D01*
X128349404Y-58693809D01*
X129777976Y-58455714D02*
X129777976Y-59122380D01*
X129539880Y-58074761D02*
X129301785Y-58789047D01*
X129920833Y-58789047D01*
%TO.C,U65*%
X146399404Y-58122380D02*
X146399404Y-58931904D01*
X146447023Y-59027142D01*
X146494642Y-59074761D01*
X146589880Y-59122380D01*
X146780357Y-59122380D01*
X146875595Y-59074761D01*
X146923214Y-59027142D01*
X146970833Y-58931904D01*
X146970833Y-58122380D01*
X147875595Y-58122380D02*
X147685119Y-58122380D01*
X147589880Y-58170000D01*
X147542261Y-58217619D01*
X147447023Y-58360476D01*
X147399404Y-58550952D01*
X147399404Y-58931904D01*
X147447023Y-59027142D01*
X147494642Y-59074761D01*
X147589880Y-59122380D01*
X147780357Y-59122380D01*
X147875595Y-59074761D01*
X147923214Y-59027142D01*
X147970833Y-58931904D01*
X147970833Y-58693809D01*
X147923214Y-58598571D01*
X147875595Y-58550952D01*
X147780357Y-58503333D01*
X147589880Y-58503333D01*
X147494642Y-58550952D01*
X147447023Y-58598571D01*
X147399404Y-58693809D01*
X148875595Y-58122380D02*
X148399404Y-58122380D01*
X148351785Y-58598571D01*
X148399404Y-58550952D01*
X148494642Y-58503333D01*
X148732738Y-58503333D01*
X148827976Y-58550952D01*
X148875595Y-58598571D01*
X148923214Y-58693809D01*
X148923214Y-58931904D01*
X148875595Y-59027142D01*
X148827976Y-59074761D01*
X148732738Y-59122380D01*
X148494642Y-59122380D01*
X148399404Y-59074761D01*
X148351785Y-59027142D01*
%TO.C,U66*%
X165449404Y-58122380D02*
X165449404Y-58931904D01*
X165497023Y-59027142D01*
X165544642Y-59074761D01*
X165639880Y-59122380D01*
X165830357Y-59122380D01*
X165925595Y-59074761D01*
X165973214Y-59027142D01*
X166020833Y-58931904D01*
X166020833Y-58122380D01*
X166925595Y-58122380D02*
X166735119Y-58122380D01*
X166639880Y-58170000D01*
X166592261Y-58217619D01*
X166497023Y-58360476D01*
X166449404Y-58550952D01*
X166449404Y-58931904D01*
X166497023Y-59027142D01*
X166544642Y-59074761D01*
X166639880Y-59122380D01*
X166830357Y-59122380D01*
X166925595Y-59074761D01*
X166973214Y-59027142D01*
X167020833Y-58931904D01*
X167020833Y-58693809D01*
X166973214Y-58598571D01*
X166925595Y-58550952D01*
X166830357Y-58503333D01*
X166639880Y-58503333D01*
X166544642Y-58550952D01*
X166497023Y-58598571D01*
X166449404Y-58693809D01*
X167877976Y-58122380D02*
X167687500Y-58122380D01*
X167592261Y-58170000D01*
X167544642Y-58217619D01*
X167449404Y-58360476D01*
X167401785Y-58550952D01*
X167401785Y-58931904D01*
X167449404Y-59027142D01*
X167497023Y-59074761D01*
X167592261Y-59122380D01*
X167782738Y-59122380D01*
X167877976Y-59074761D01*
X167925595Y-59027142D01*
X167973214Y-58931904D01*
X167973214Y-58693809D01*
X167925595Y-58598571D01*
X167877976Y-58550952D01*
X167782738Y-58503333D01*
X167592261Y-58503333D01*
X167497023Y-58550952D01*
X167449404Y-58598571D01*
X167401785Y-58693809D01*
%TO.C,U67*%
X194024404Y-58122380D02*
X194024404Y-58931904D01*
X194072023Y-59027142D01*
X194119642Y-59074761D01*
X194214880Y-59122380D01*
X194405357Y-59122380D01*
X194500595Y-59074761D01*
X194548214Y-59027142D01*
X194595833Y-58931904D01*
X194595833Y-58122380D01*
X195500595Y-58122380D02*
X195310119Y-58122380D01*
X195214880Y-58170000D01*
X195167261Y-58217619D01*
X195072023Y-58360476D01*
X195024404Y-58550952D01*
X195024404Y-58931904D01*
X195072023Y-59027142D01*
X195119642Y-59074761D01*
X195214880Y-59122380D01*
X195405357Y-59122380D01*
X195500595Y-59074761D01*
X195548214Y-59027142D01*
X195595833Y-58931904D01*
X195595833Y-58693809D01*
X195548214Y-58598571D01*
X195500595Y-58550952D01*
X195405357Y-58503333D01*
X195214880Y-58503333D01*
X195119642Y-58550952D01*
X195072023Y-58598571D01*
X195024404Y-58693809D01*
X195929166Y-58122380D02*
X196595833Y-58122380D01*
X196167261Y-59122380D01*
%TO.C,U68*%
X213074404Y-58122380D02*
X213074404Y-58931904D01*
X213122023Y-59027142D01*
X213169642Y-59074761D01*
X213264880Y-59122380D01*
X213455357Y-59122380D01*
X213550595Y-59074761D01*
X213598214Y-59027142D01*
X213645833Y-58931904D01*
X213645833Y-58122380D01*
X214550595Y-58122380D02*
X214360119Y-58122380D01*
X214264880Y-58170000D01*
X214217261Y-58217619D01*
X214122023Y-58360476D01*
X214074404Y-58550952D01*
X214074404Y-58931904D01*
X214122023Y-59027142D01*
X214169642Y-59074761D01*
X214264880Y-59122380D01*
X214455357Y-59122380D01*
X214550595Y-59074761D01*
X214598214Y-59027142D01*
X214645833Y-58931904D01*
X214645833Y-58693809D01*
X214598214Y-58598571D01*
X214550595Y-58550952D01*
X214455357Y-58503333D01*
X214264880Y-58503333D01*
X214169642Y-58550952D01*
X214122023Y-58598571D01*
X214074404Y-58693809D01*
X215217261Y-58550952D02*
X215122023Y-58503333D01*
X215074404Y-58455714D01*
X215026785Y-58360476D01*
X215026785Y-58312857D01*
X215074404Y-58217619D01*
X215122023Y-58170000D01*
X215217261Y-58122380D01*
X215407738Y-58122380D01*
X215502976Y-58170000D01*
X215550595Y-58217619D01*
X215598214Y-58312857D01*
X215598214Y-58360476D01*
X215550595Y-58455714D01*
X215502976Y-58503333D01*
X215407738Y-58550952D01*
X215217261Y-58550952D01*
X215122023Y-58598571D01*
X215074404Y-58646190D01*
X215026785Y-58741428D01*
X215026785Y-58931904D01*
X215074404Y-59027142D01*
X215122023Y-59074761D01*
X215217261Y-59122380D01*
X215407738Y-59122380D01*
X215502976Y-59074761D01*
X215550595Y-59027142D01*
X215598214Y-58931904D01*
X215598214Y-58741428D01*
X215550595Y-58646190D01*
X215502976Y-58598571D01*
X215407738Y-58550952D01*
%TO.C,U69*%
X232124404Y-58122380D02*
X232124404Y-58931904D01*
X232172023Y-59027142D01*
X232219642Y-59074761D01*
X232314880Y-59122380D01*
X232505357Y-59122380D01*
X232600595Y-59074761D01*
X232648214Y-59027142D01*
X232695833Y-58931904D01*
X232695833Y-58122380D01*
X233600595Y-58122380D02*
X233410119Y-58122380D01*
X233314880Y-58170000D01*
X233267261Y-58217619D01*
X233172023Y-58360476D01*
X233124404Y-58550952D01*
X233124404Y-58931904D01*
X233172023Y-59027142D01*
X233219642Y-59074761D01*
X233314880Y-59122380D01*
X233505357Y-59122380D01*
X233600595Y-59074761D01*
X233648214Y-59027142D01*
X233695833Y-58931904D01*
X233695833Y-58693809D01*
X233648214Y-58598571D01*
X233600595Y-58550952D01*
X233505357Y-58503333D01*
X233314880Y-58503333D01*
X233219642Y-58550952D01*
X233172023Y-58598571D01*
X233124404Y-58693809D01*
X234172023Y-59122380D02*
X234362500Y-59122380D01*
X234457738Y-59074761D01*
X234505357Y-59027142D01*
X234600595Y-58884285D01*
X234648214Y-58693809D01*
X234648214Y-58312857D01*
X234600595Y-58217619D01*
X234552976Y-58170000D01*
X234457738Y-58122380D01*
X234267261Y-58122380D01*
X234172023Y-58170000D01*
X234124404Y-58217619D01*
X234076785Y-58312857D01*
X234076785Y-58550952D01*
X234124404Y-58646190D01*
X234172023Y-58693809D01*
X234267261Y-58741428D01*
X234457738Y-58741428D01*
X234552976Y-58693809D01*
X234600595Y-58646190D01*
X234648214Y-58550952D01*
%TO.C,U70*%
X251174404Y-58122380D02*
X251174404Y-58931904D01*
X251222023Y-59027142D01*
X251269642Y-59074761D01*
X251364880Y-59122380D01*
X251555357Y-59122380D01*
X251650595Y-59074761D01*
X251698214Y-59027142D01*
X251745833Y-58931904D01*
X251745833Y-58122380D01*
X252126785Y-58122380D02*
X252793452Y-58122380D01*
X252364880Y-59122380D01*
X253364880Y-58122380D02*
X253460119Y-58122380D01*
X253555357Y-58170000D01*
X253602976Y-58217619D01*
X253650595Y-58312857D01*
X253698214Y-58503333D01*
X253698214Y-58741428D01*
X253650595Y-58931904D01*
X253602976Y-59027142D01*
X253555357Y-59074761D01*
X253460119Y-59122380D01*
X253364880Y-59122380D01*
X253269642Y-59074761D01*
X253222023Y-59027142D01*
X253174404Y-58931904D01*
X253126785Y-58741428D01*
X253126785Y-58503333D01*
X253174404Y-58312857D01*
X253222023Y-58217619D01*
X253269642Y-58170000D01*
X253364880Y-58122380D01*
%TO.C,U71*%
X279749404Y-58122380D02*
X279749404Y-58931904D01*
X279797023Y-59027142D01*
X279844642Y-59074761D01*
X279939880Y-59122380D01*
X280130357Y-59122380D01*
X280225595Y-59074761D01*
X280273214Y-59027142D01*
X280320833Y-58931904D01*
X280320833Y-58122380D01*
X280701785Y-58122380D02*
X281368452Y-58122380D01*
X280939880Y-59122380D01*
X282273214Y-59122380D02*
X281701785Y-59122380D01*
X281987500Y-59122380D02*
X281987500Y-58122380D01*
X281892261Y-58265238D01*
X281797023Y-58360476D01*
X281701785Y-58408095D01*
%TO.C,U72*%
X298799404Y-58122380D02*
X298799404Y-58931904D01*
X298847023Y-59027142D01*
X298894642Y-59074761D01*
X298989880Y-59122380D01*
X299180357Y-59122380D01*
X299275595Y-59074761D01*
X299323214Y-59027142D01*
X299370833Y-58931904D01*
X299370833Y-58122380D01*
X299751785Y-58122380D02*
X300418452Y-58122380D01*
X299989880Y-59122380D01*
X300751785Y-58217619D02*
X300799404Y-58170000D01*
X300894642Y-58122380D01*
X301132738Y-58122380D01*
X301227976Y-58170000D01*
X301275595Y-58217619D01*
X301323214Y-58312857D01*
X301323214Y-58408095D01*
X301275595Y-58550952D01*
X300704166Y-59122380D01*
X301323214Y-59122380D01*
%TO.C,U73*%
X317849404Y-58122380D02*
X317849404Y-58931904D01*
X317897023Y-59027142D01*
X317944642Y-59074761D01*
X318039880Y-59122380D01*
X318230357Y-59122380D01*
X318325595Y-59074761D01*
X318373214Y-59027142D01*
X318420833Y-58931904D01*
X318420833Y-58122380D01*
X318801785Y-58122380D02*
X319468452Y-58122380D01*
X319039880Y-59122380D01*
X319754166Y-58122380D02*
X320373214Y-58122380D01*
X320039880Y-58503333D01*
X320182738Y-58503333D01*
X320277976Y-58550952D01*
X320325595Y-58598571D01*
X320373214Y-58693809D01*
X320373214Y-58931904D01*
X320325595Y-59027142D01*
X320277976Y-59074761D01*
X320182738Y-59122380D01*
X319897023Y-59122380D01*
X319801785Y-59074761D01*
X319754166Y-59027142D01*
%TO.C,U75*%
X360711904Y-58122380D02*
X360711904Y-58931904D01*
X360759523Y-59027142D01*
X360807142Y-59074761D01*
X360902380Y-59122380D01*
X361092857Y-59122380D01*
X361188095Y-59074761D01*
X361235714Y-59027142D01*
X361283333Y-58931904D01*
X361283333Y-58122380D01*
X361664285Y-58122380D02*
X362330952Y-58122380D01*
X361902380Y-59122380D01*
X363188095Y-58122380D02*
X362711904Y-58122380D01*
X362664285Y-58598571D01*
X362711904Y-58550952D01*
X362807142Y-58503333D01*
X363045238Y-58503333D01*
X363140476Y-58550952D01*
X363188095Y-58598571D01*
X363235714Y-58693809D01*
X363235714Y-58931904D01*
X363188095Y-59027142D01*
X363140476Y-59074761D01*
X363045238Y-59122380D01*
X362807142Y-59122380D01*
X362711904Y-59074761D01*
X362664285Y-59027142D01*
%TO.C,U78*%
X360711904Y-81934880D02*
X360711904Y-82744404D01*
X360759523Y-82839642D01*
X360807142Y-82887261D01*
X360902380Y-82934880D01*
X361092857Y-82934880D01*
X361188095Y-82887261D01*
X361235714Y-82839642D01*
X361283333Y-82744404D01*
X361283333Y-81934880D01*
X361664285Y-81934880D02*
X362330952Y-81934880D01*
X361902380Y-82934880D01*
X362854761Y-82363452D02*
X362759523Y-82315833D01*
X362711904Y-82268214D01*
X362664285Y-82172976D01*
X362664285Y-82125357D01*
X362711904Y-82030119D01*
X362759523Y-81982500D01*
X362854761Y-81934880D01*
X363045238Y-81934880D01*
X363140476Y-81982500D01*
X363188095Y-82030119D01*
X363235714Y-82125357D01*
X363235714Y-82172976D01*
X363188095Y-82268214D01*
X363140476Y-82315833D01*
X363045238Y-82363452D01*
X362854761Y-82363452D01*
X362759523Y-82411071D01*
X362711904Y-82458690D01*
X362664285Y-82553928D01*
X362664285Y-82744404D01*
X362711904Y-82839642D01*
X362759523Y-82887261D01*
X362854761Y-82934880D01*
X363045238Y-82934880D01*
X363140476Y-82887261D01*
X363188095Y-82839642D01*
X363235714Y-82744404D01*
X363235714Y-82553928D01*
X363188095Y-82458690D01*
X363140476Y-82411071D01*
X363045238Y-82363452D01*
%TO.C,U81*%
X360711904Y-100984880D02*
X360711904Y-101794404D01*
X360759523Y-101889642D01*
X360807142Y-101937261D01*
X360902380Y-101984880D01*
X361092857Y-101984880D01*
X361188095Y-101937261D01*
X361235714Y-101889642D01*
X361283333Y-101794404D01*
X361283333Y-100984880D01*
X361902380Y-101413452D02*
X361807142Y-101365833D01*
X361759523Y-101318214D01*
X361711904Y-101222976D01*
X361711904Y-101175357D01*
X361759523Y-101080119D01*
X361807142Y-101032500D01*
X361902380Y-100984880D01*
X362092857Y-100984880D01*
X362188095Y-101032500D01*
X362235714Y-101080119D01*
X362283333Y-101175357D01*
X362283333Y-101222976D01*
X362235714Y-101318214D01*
X362188095Y-101365833D01*
X362092857Y-101413452D01*
X361902380Y-101413452D01*
X361807142Y-101461071D01*
X361759523Y-101508690D01*
X361711904Y-101603928D01*
X361711904Y-101794404D01*
X361759523Y-101889642D01*
X361807142Y-101937261D01*
X361902380Y-101984880D01*
X362092857Y-101984880D01*
X362188095Y-101937261D01*
X362235714Y-101889642D01*
X362283333Y-101794404D01*
X362283333Y-101603928D01*
X362235714Y-101508690D01*
X362188095Y-101461071D01*
X362092857Y-101413452D01*
X363235714Y-101984880D02*
X362664285Y-101984880D01*
X362950000Y-101984880D02*
X362950000Y-100984880D01*
X362854761Y-101127738D01*
X362759523Y-101222976D01*
X362664285Y-101270595D01*
%TO.C,U85*%
X360711904Y-158134880D02*
X360711904Y-158944404D01*
X360759523Y-159039642D01*
X360807142Y-159087261D01*
X360902380Y-159134880D01*
X361092857Y-159134880D01*
X361188095Y-159087261D01*
X361235714Y-159039642D01*
X361283333Y-158944404D01*
X361283333Y-158134880D01*
X361902380Y-158563452D02*
X361807142Y-158515833D01*
X361759523Y-158468214D01*
X361711904Y-158372976D01*
X361711904Y-158325357D01*
X361759523Y-158230119D01*
X361807142Y-158182500D01*
X361902380Y-158134880D01*
X362092857Y-158134880D01*
X362188095Y-158182500D01*
X362235714Y-158230119D01*
X362283333Y-158325357D01*
X362283333Y-158372976D01*
X362235714Y-158468214D01*
X362188095Y-158515833D01*
X362092857Y-158563452D01*
X361902380Y-158563452D01*
X361807142Y-158611071D01*
X361759523Y-158658690D01*
X361711904Y-158753928D01*
X361711904Y-158944404D01*
X361759523Y-159039642D01*
X361807142Y-159087261D01*
X361902380Y-159134880D01*
X362092857Y-159134880D01*
X362188095Y-159087261D01*
X362235714Y-159039642D01*
X362283333Y-158944404D01*
X362283333Y-158753928D01*
X362235714Y-158658690D01*
X362188095Y-158611071D01*
X362092857Y-158563452D01*
X363188095Y-158134880D02*
X362711904Y-158134880D01*
X362664285Y-158611071D01*
X362711904Y-158563452D01*
X362807142Y-158515833D01*
X363045238Y-158515833D01*
X363140476Y-158563452D01*
X363188095Y-158611071D01*
X363235714Y-158706309D01*
X363235714Y-158944404D01*
X363188095Y-159039642D01*
X363140476Y-159087261D01*
X363045238Y-159134880D01*
X362807142Y-159134880D01*
X362711904Y-159087261D01*
X362664285Y-159039642D01*
%TO.C,U76*%
X379761904Y-58122380D02*
X379761904Y-58931904D01*
X379809523Y-59027142D01*
X379857142Y-59074761D01*
X379952380Y-59122380D01*
X380142857Y-59122380D01*
X380238095Y-59074761D01*
X380285714Y-59027142D01*
X380333333Y-58931904D01*
X380333333Y-58122380D01*
X380714285Y-58122380D02*
X381380952Y-58122380D01*
X380952380Y-59122380D01*
X382190476Y-58122380D02*
X382000000Y-58122380D01*
X381904761Y-58170000D01*
X381857142Y-58217619D01*
X381761904Y-58360476D01*
X381714285Y-58550952D01*
X381714285Y-58931904D01*
X381761904Y-59027142D01*
X381809523Y-59074761D01*
X381904761Y-59122380D01*
X382095238Y-59122380D01*
X382190476Y-59074761D01*
X382238095Y-59027142D01*
X382285714Y-58931904D01*
X382285714Y-58693809D01*
X382238095Y-58598571D01*
X382190476Y-58550952D01*
X382095238Y-58503333D01*
X381904761Y-58503333D01*
X381809523Y-58550952D01*
X381761904Y-58598571D01*
X381714285Y-58693809D01*
%TO.C,U79*%
X379761904Y-81934880D02*
X379761904Y-82744404D01*
X379809523Y-82839642D01*
X379857142Y-82887261D01*
X379952380Y-82934880D01*
X380142857Y-82934880D01*
X380238095Y-82887261D01*
X380285714Y-82839642D01*
X380333333Y-82744404D01*
X380333333Y-81934880D01*
X380714285Y-81934880D02*
X381380952Y-81934880D01*
X380952380Y-82934880D01*
X381809523Y-82934880D02*
X382000000Y-82934880D01*
X382095238Y-82887261D01*
X382142857Y-82839642D01*
X382238095Y-82696785D01*
X382285714Y-82506309D01*
X382285714Y-82125357D01*
X382238095Y-82030119D01*
X382190476Y-81982500D01*
X382095238Y-81934880D01*
X381904761Y-81934880D01*
X381809523Y-81982500D01*
X381761904Y-82030119D01*
X381714285Y-82125357D01*
X381714285Y-82363452D01*
X381761904Y-82458690D01*
X381809523Y-82506309D01*
X381904761Y-82553928D01*
X382095238Y-82553928D01*
X382190476Y-82506309D01*
X382238095Y-82458690D01*
X382285714Y-82363452D01*
%TO.C,U82*%
X379761904Y-100984880D02*
X379761904Y-101794404D01*
X379809523Y-101889642D01*
X379857142Y-101937261D01*
X379952380Y-101984880D01*
X380142857Y-101984880D01*
X380238095Y-101937261D01*
X380285714Y-101889642D01*
X380333333Y-101794404D01*
X380333333Y-100984880D01*
X380952380Y-101413452D02*
X380857142Y-101365833D01*
X380809523Y-101318214D01*
X380761904Y-101222976D01*
X380761904Y-101175357D01*
X380809523Y-101080119D01*
X380857142Y-101032500D01*
X380952380Y-100984880D01*
X381142857Y-100984880D01*
X381238095Y-101032500D01*
X381285714Y-101080119D01*
X381333333Y-101175357D01*
X381333333Y-101222976D01*
X381285714Y-101318214D01*
X381238095Y-101365833D01*
X381142857Y-101413452D01*
X380952380Y-101413452D01*
X380857142Y-101461071D01*
X380809523Y-101508690D01*
X380761904Y-101603928D01*
X380761904Y-101794404D01*
X380809523Y-101889642D01*
X380857142Y-101937261D01*
X380952380Y-101984880D01*
X381142857Y-101984880D01*
X381238095Y-101937261D01*
X381285714Y-101889642D01*
X381333333Y-101794404D01*
X381333333Y-101603928D01*
X381285714Y-101508690D01*
X381238095Y-101461071D01*
X381142857Y-101413452D01*
X381714285Y-101080119D02*
X381761904Y-101032500D01*
X381857142Y-100984880D01*
X382095238Y-100984880D01*
X382190476Y-101032500D01*
X382238095Y-101080119D01*
X382285714Y-101175357D01*
X382285714Y-101270595D01*
X382238095Y-101413452D01*
X381666666Y-101984880D01*
X382285714Y-101984880D01*
%TO.C,U86*%
X379761904Y-158134880D02*
X379761904Y-158944404D01*
X379809523Y-159039642D01*
X379857142Y-159087261D01*
X379952380Y-159134880D01*
X380142857Y-159134880D01*
X380238095Y-159087261D01*
X380285714Y-159039642D01*
X380333333Y-158944404D01*
X380333333Y-158134880D01*
X380952380Y-158563452D02*
X380857142Y-158515833D01*
X380809523Y-158468214D01*
X380761904Y-158372976D01*
X380761904Y-158325357D01*
X380809523Y-158230119D01*
X380857142Y-158182500D01*
X380952380Y-158134880D01*
X381142857Y-158134880D01*
X381238095Y-158182500D01*
X381285714Y-158230119D01*
X381333333Y-158325357D01*
X381333333Y-158372976D01*
X381285714Y-158468214D01*
X381238095Y-158515833D01*
X381142857Y-158563452D01*
X380952380Y-158563452D01*
X380857142Y-158611071D01*
X380809523Y-158658690D01*
X380761904Y-158753928D01*
X380761904Y-158944404D01*
X380809523Y-159039642D01*
X380857142Y-159087261D01*
X380952380Y-159134880D01*
X381142857Y-159134880D01*
X381238095Y-159087261D01*
X381285714Y-159039642D01*
X381333333Y-158944404D01*
X381333333Y-158753928D01*
X381285714Y-158658690D01*
X381238095Y-158611071D01*
X381142857Y-158563452D01*
X382190476Y-158134880D02*
X382000000Y-158134880D01*
X381904761Y-158182500D01*
X381857142Y-158230119D01*
X381761904Y-158372976D01*
X381714285Y-158563452D01*
X381714285Y-158944404D01*
X381761904Y-159039642D01*
X381809523Y-159087261D01*
X381904761Y-159134880D01*
X382095238Y-159134880D01*
X382190476Y-159087261D01*
X382238095Y-159039642D01*
X382285714Y-158944404D01*
X382285714Y-158706309D01*
X382238095Y-158611071D01*
X382190476Y-158563452D01*
X382095238Y-158515833D01*
X381904761Y-158515833D01*
X381809523Y-158563452D01*
X381761904Y-158611071D01*
X381714285Y-158706309D01*
%TD*%
M02*
